%TF.GenerationSoftware,KiCad,Pcbnew,(5.1.10)-1*%
%TF.CreationDate,2021-10-27T21:30:29+02:00*%
%TF.ProjectId,ALU,414c552e-6b69-4636-9164-5f7063625858,rev1.0*%
%TF.SameCoordinates,Original*%
%TF.FileFunction,Legend,Bot*%
%TF.FilePolarity,Positive*%
%FSLAX46Y46*%
G04 Gerber Fmt 4.6, Leading zero omitted, Abs format (unit mm)*
G04 Created by KiCad (PCBNEW (5.1.10)-1) date 2021-10-27 21:30:29*
%MOMM*%
%LPD*%
G01*
G04 APERTURE LIST*
%ADD10C,0.500000*%
G04 APERTURE END LIST*
D10*
X283000000Y-88333333D02*
X279190476Y-88333333D01*
X283761904Y-90619047D02*
X281095238Y-82619047D01*
X278428571Y-90619047D01*
X271952380Y-90619047D02*
X275761904Y-90619047D01*
X275761904Y-82619047D01*
X269285714Y-82619047D02*
X269285714Y-89095238D01*
X268904761Y-89857142D01*
X268523809Y-90238095D01*
X267761904Y-90619047D01*
X266238095Y-90619047D01*
X265476190Y-90238095D01*
X265095238Y-89857142D01*
X264714285Y-89095238D01*
X264714285Y-82619047D01*
X250238095Y-89857142D02*
X250619047Y-90238095D01*
X251761904Y-90619047D01*
X252523809Y-90619047D01*
X253666666Y-90238095D01*
X254428571Y-89476190D01*
X254809523Y-88714285D01*
X255190476Y-87190476D01*
X255190476Y-86047619D01*
X254809523Y-84523809D01*
X254428571Y-83761904D01*
X253666666Y-83000000D01*
X252523809Y-82619047D01*
X251761904Y-82619047D01*
X250619047Y-83000000D01*
X250238095Y-83380952D01*
X245285714Y-82619047D02*
X243761904Y-82619047D01*
X243000000Y-83000000D01*
X242238095Y-83761904D01*
X241857142Y-85285714D01*
X241857142Y-87952380D01*
X242238095Y-89476190D01*
X243000000Y-90238095D01*
X243761904Y-90619047D01*
X245285714Y-90619047D01*
X246047619Y-90238095D01*
X246809523Y-89476190D01*
X247190476Y-87952380D01*
X247190476Y-85285714D01*
X246809523Y-83761904D01*
X246047619Y-83000000D01*
X245285714Y-82619047D01*
X238428571Y-90619047D02*
X238428571Y-82619047D01*
X235761904Y-88333333D01*
X233095238Y-82619047D01*
X233095238Y-90619047D01*
X229285714Y-90619047D02*
X229285714Y-82619047D01*
X226619047Y-88333333D01*
X223952380Y-82619047D01*
X223952380Y-90619047D01*
X220523809Y-88333333D02*
X216714285Y-88333333D01*
X221285714Y-90619047D02*
X218619047Y-82619047D01*
X215952380Y-90619047D01*
X213285714Y-90619047D02*
X213285714Y-82619047D01*
X208714285Y-90619047D01*
X208714285Y-82619047D01*
X204904761Y-90619047D02*
X204904761Y-82619047D01*
X203000000Y-82619047D01*
X201857142Y-83000000D01*
X201095238Y-83761904D01*
X200714285Y-84523809D01*
X200333333Y-86047619D01*
X200333333Y-87190476D01*
X200714285Y-88714285D01*
X201095238Y-89476190D01*
X201857142Y-90238095D01*
X203000000Y-90619047D01*
X204904761Y-90619047D01*
X186238095Y-89857142D02*
X186619047Y-90238095D01*
X187761904Y-90619047D01*
X188523809Y-90619047D01*
X189666666Y-90238095D01*
X190428571Y-89476190D01*
X190809523Y-88714285D01*
X191190476Y-87190476D01*
X191190476Y-86047619D01*
X190809523Y-84523809D01*
X190428571Y-83761904D01*
X189666666Y-83000000D01*
X188523809Y-82619047D01*
X187761904Y-82619047D01*
X186619047Y-83000000D01*
X186238095Y-83380952D01*
X181285714Y-82619047D02*
X179761904Y-82619047D01*
X179000000Y-83000000D01*
X178238095Y-83761904D01*
X177857142Y-85285714D01*
X177857142Y-87952380D01*
X178238095Y-89476190D01*
X179000000Y-90238095D01*
X179761904Y-90619047D01*
X181285714Y-90619047D01*
X182047619Y-90238095D01*
X182809523Y-89476190D01*
X183190476Y-87952380D01*
X183190476Y-85285714D01*
X182809523Y-83761904D01*
X182047619Y-83000000D01*
X181285714Y-82619047D01*
X174428571Y-90619047D02*
X174428571Y-82619047D01*
X172523809Y-82619047D01*
X171380952Y-83000000D01*
X170619047Y-83761904D01*
X170238095Y-84523809D01*
X169857142Y-86047619D01*
X169857142Y-87190476D01*
X170238095Y-88714285D01*
X170619047Y-89476190D01*
X171380952Y-90238095D01*
X172523809Y-90619047D01*
X174428571Y-90619047D01*
X166428571Y-86428571D02*
X163761904Y-86428571D01*
X162619047Y-90619047D02*
X166428571Y-90619047D01*
X166428571Y-82619047D01*
X162619047Y-82619047D01*
X159571428Y-90238095D02*
X158428571Y-90619047D01*
X156523809Y-90619047D01*
X155761904Y-90238095D01*
X155380952Y-89857142D01*
X155000000Y-89095238D01*
X155000000Y-88333333D01*
X155380952Y-87571428D01*
X155761904Y-87190476D01*
X156523809Y-86809523D01*
X158047619Y-86428571D01*
X158809523Y-86047619D01*
X159190476Y-85666666D01*
X159571428Y-84904761D01*
X159571428Y-84142857D01*
X159190476Y-83380952D01*
X158809523Y-83000000D01*
X158047619Y-82619047D01*
X156142857Y-82619047D01*
X155000000Y-83000000D01*
X196928571Y-104833333D02*
X194547619Y-104833333D01*
X197404761Y-106261904D02*
X195738095Y-101261904D01*
X194071428Y-106261904D01*
X192404761Y-106261904D02*
X192404761Y-101261904D01*
X189547619Y-106261904D01*
X189547619Y-101261904D01*
X187166666Y-106261904D02*
X187166666Y-101261904D01*
X185976190Y-101261904D01*
X185261904Y-101500000D01*
X184785714Y-101976190D01*
X184547619Y-102452380D01*
X184309523Y-103404761D01*
X184309523Y-104119047D01*
X184547619Y-105071428D01*
X184785714Y-105547619D01*
X185261904Y-106023809D01*
X185976190Y-106261904D01*
X187166666Y-106261904D01*
X182166666Y-105785714D02*
X181928571Y-106023809D01*
X182166666Y-106261904D01*
X182404761Y-106023809D01*
X182166666Y-105785714D01*
X182166666Y-106261904D01*
X182166666Y-103166666D02*
X181928571Y-103404761D01*
X182166666Y-103642857D01*
X182404761Y-103404761D01*
X182166666Y-103166666D01*
X182166666Y-103642857D01*
X173357142Y-106261904D02*
X176214285Y-106261904D01*
X174785714Y-106261904D02*
X174785714Y-101261904D01*
X175261904Y-101976190D01*
X175738095Y-102452380D01*
X176214285Y-102690476D01*
X170261904Y-101261904D02*
X169785714Y-101261904D01*
X169309523Y-101500000D01*
X169071428Y-101738095D01*
X168833333Y-102214285D01*
X168595238Y-103166666D01*
X168595238Y-104357142D01*
X168833333Y-105309523D01*
X169071428Y-105785714D01*
X169309523Y-106023809D01*
X169785714Y-106261904D01*
X170261904Y-106261904D01*
X170738095Y-106023809D01*
X170976190Y-105785714D01*
X171214285Y-105309523D01*
X171452380Y-104357142D01*
X171452380Y-103166666D01*
X171214285Y-102214285D01*
X170976190Y-101738095D01*
X170738095Y-101500000D01*
X170261904Y-101261904D01*
X165500000Y-101261904D02*
X165023809Y-101261904D01*
X164547619Y-101500000D01*
X164309523Y-101738095D01*
X164071428Y-102214285D01*
X163833333Y-103166666D01*
X163833333Y-104357142D01*
X164071428Y-105309523D01*
X164309523Y-105785714D01*
X164547619Y-106023809D01*
X165023809Y-106261904D01*
X165500000Y-106261904D01*
X165976190Y-106023809D01*
X166214285Y-105785714D01*
X166452380Y-105309523D01*
X166690476Y-104357142D01*
X166690476Y-103166666D01*
X166452380Y-102214285D01*
X166214285Y-101738095D01*
X165976190Y-101500000D01*
X165500000Y-101261904D01*
X162166666Y-101261904D02*
X158833333Y-106261904D01*
X158833333Y-101261904D02*
X162166666Y-106261904D01*
X193595238Y-109261904D02*
X192642857Y-109261904D01*
X192166666Y-109500000D01*
X191690476Y-109976190D01*
X191452380Y-110928571D01*
X191452380Y-112595238D01*
X191690476Y-113547619D01*
X192166666Y-114023809D01*
X192642857Y-114261904D01*
X193595238Y-114261904D01*
X194071428Y-114023809D01*
X194547619Y-113547619D01*
X194785714Y-112595238D01*
X194785714Y-110928571D01*
X194547619Y-109976190D01*
X194071428Y-109500000D01*
X193595238Y-109261904D01*
X186452380Y-114261904D02*
X188119047Y-111880952D01*
X189309523Y-114261904D02*
X189309523Y-109261904D01*
X187404761Y-109261904D01*
X186928571Y-109500000D01*
X186690476Y-109738095D01*
X186452380Y-110214285D01*
X186452380Y-110928571D01*
X186690476Y-111404761D01*
X186928571Y-111642857D01*
X187404761Y-111880952D01*
X189309523Y-111880952D01*
X184309523Y-113785714D02*
X184071428Y-114023809D01*
X184309523Y-114261904D01*
X184547619Y-114023809D01*
X184309523Y-113785714D01*
X184309523Y-114261904D01*
X184309523Y-111166666D02*
X184071428Y-111404761D01*
X184309523Y-111642857D01*
X184547619Y-111404761D01*
X184309523Y-111166666D01*
X184309523Y-111642857D01*
X177166666Y-109261904D02*
X176690476Y-109261904D01*
X176214285Y-109500000D01*
X175976190Y-109738095D01*
X175738095Y-110214285D01*
X175500000Y-111166666D01*
X175500000Y-112357142D01*
X175738095Y-113309523D01*
X175976190Y-113785714D01*
X176214285Y-114023809D01*
X176690476Y-114261904D01*
X177166666Y-114261904D01*
X177642857Y-114023809D01*
X177880952Y-113785714D01*
X178119047Y-113309523D01*
X178357142Y-112357142D01*
X178357142Y-111166666D01*
X178119047Y-110214285D01*
X177880952Y-109738095D01*
X177642857Y-109500000D01*
X177166666Y-109261904D01*
X170738095Y-114261904D02*
X173595238Y-114261904D01*
X172166666Y-114261904D02*
X172166666Y-109261904D01*
X172642857Y-109976190D01*
X173119047Y-110452380D01*
X173595238Y-110690476D01*
X167642857Y-109261904D02*
X167166666Y-109261904D01*
X166690476Y-109500000D01*
X166452380Y-109738095D01*
X166214285Y-110214285D01*
X165976190Y-111166666D01*
X165976190Y-112357142D01*
X166214285Y-113309523D01*
X166452380Y-113785714D01*
X166690476Y-114023809D01*
X167166666Y-114261904D01*
X167642857Y-114261904D01*
X168119047Y-114023809D01*
X168357142Y-113785714D01*
X168595238Y-113309523D01*
X168833333Y-112357142D01*
X168833333Y-111166666D01*
X168595238Y-110214285D01*
X168357142Y-109738095D01*
X168119047Y-109500000D01*
X167642857Y-109261904D01*
X164309523Y-109261904D02*
X160976190Y-114261904D01*
X160976190Y-109261904D02*
X164309523Y-114261904D01*
X197404761Y-117261904D02*
X194071428Y-122261904D01*
X194071428Y-117261904D02*
X197404761Y-122261904D01*
X191214285Y-117261904D02*
X190261904Y-117261904D01*
X189785714Y-117500000D01*
X189309523Y-117976190D01*
X189071428Y-118928571D01*
X189071428Y-120595238D01*
X189309523Y-121547619D01*
X189785714Y-122023809D01*
X190261904Y-122261904D01*
X191214285Y-122261904D01*
X191690476Y-122023809D01*
X192166666Y-121547619D01*
X192404761Y-120595238D01*
X192404761Y-118928571D01*
X192166666Y-117976190D01*
X191690476Y-117500000D01*
X191214285Y-117261904D01*
X184071428Y-122261904D02*
X185738095Y-119880952D01*
X186928571Y-122261904D02*
X186928571Y-117261904D01*
X185023809Y-117261904D01*
X184547619Y-117500000D01*
X184309523Y-117738095D01*
X184071428Y-118214285D01*
X184071428Y-118928571D01*
X184309523Y-119404761D01*
X184547619Y-119642857D01*
X185023809Y-119880952D01*
X186928571Y-119880952D01*
X181928571Y-121785714D02*
X181690476Y-122023809D01*
X181928571Y-122261904D01*
X182166666Y-122023809D01*
X181928571Y-121785714D01*
X181928571Y-122261904D01*
X181928571Y-119166666D02*
X181690476Y-119404761D01*
X181928571Y-119642857D01*
X182166666Y-119404761D01*
X181928571Y-119166666D01*
X181928571Y-119642857D01*
X173119047Y-122261904D02*
X175976190Y-122261904D01*
X174547619Y-122261904D02*
X174547619Y-117261904D01*
X175023809Y-117976190D01*
X175500000Y-118452380D01*
X175976190Y-118690476D01*
X170023809Y-117261904D02*
X169547619Y-117261904D01*
X169071428Y-117500000D01*
X168833333Y-117738095D01*
X168595238Y-118214285D01*
X168357142Y-119166666D01*
X168357142Y-120357142D01*
X168595238Y-121309523D01*
X168833333Y-121785714D01*
X169071428Y-122023809D01*
X169547619Y-122261904D01*
X170023809Y-122261904D01*
X170500000Y-122023809D01*
X170738095Y-121785714D01*
X170976190Y-121309523D01*
X171214285Y-120357142D01*
X171214285Y-119166666D01*
X170976190Y-118214285D01*
X170738095Y-117738095D01*
X170500000Y-117500000D01*
X170023809Y-117261904D01*
X163595238Y-122261904D02*
X166452380Y-122261904D01*
X165023809Y-122261904D02*
X165023809Y-117261904D01*
X165500000Y-117976190D01*
X165976190Y-118452380D01*
X166452380Y-118690476D01*
X161928571Y-117261904D02*
X158595238Y-122261904D01*
X158595238Y-117261904D02*
X161928571Y-122261904D01*
X197404761Y-130261904D02*
X197404761Y-125261904D01*
X194547619Y-130261904D01*
X194547619Y-125261904D01*
X192404761Y-128833333D02*
X190023809Y-128833333D01*
X192880952Y-130261904D02*
X191214285Y-125261904D01*
X189547619Y-130261904D01*
X187880952Y-130261904D02*
X187880952Y-125261904D01*
X185023809Y-130261904D01*
X185023809Y-125261904D01*
X182642857Y-130261904D02*
X182642857Y-125261904D01*
X181452380Y-125261904D01*
X180738095Y-125500000D01*
X180261904Y-125976190D01*
X180023809Y-126452380D01*
X179785714Y-127404761D01*
X179785714Y-128119047D01*
X180023809Y-129071428D01*
X180261904Y-129547619D01*
X180738095Y-130023809D01*
X181452380Y-130261904D01*
X182642857Y-130261904D01*
X177642857Y-129785714D02*
X177404761Y-130023809D01*
X177642857Y-130261904D01*
X177880952Y-130023809D01*
X177642857Y-129785714D01*
X177642857Y-130261904D01*
X177642857Y-127166666D02*
X177404761Y-127404761D01*
X177642857Y-127642857D01*
X177880952Y-127404761D01*
X177642857Y-127166666D01*
X177642857Y-127642857D01*
X174309523Y-125261904D02*
X173833333Y-125261904D01*
X173357142Y-125500000D01*
X173119047Y-125738095D01*
X172880952Y-126214285D01*
X172642857Y-127166666D01*
X172642857Y-128357142D01*
X172880952Y-129309523D01*
X173119047Y-129785714D01*
X173357142Y-130023809D01*
X173833333Y-130261904D01*
X174309523Y-130261904D01*
X174785714Y-130023809D01*
X175023809Y-129785714D01*
X175261904Y-129309523D01*
X175500000Y-128357142D01*
X175500000Y-127166666D01*
X175261904Y-126214285D01*
X175023809Y-125738095D01*
X174785714Y-125500000D01*
X174309523Y-125261904D01*
X167880952Y-130261904D02*
X170738095Y-130261904D01*
X169309523Y-130261904D02*
X169309523Y-125261904D01*
X169785714Y-125976190D01*
X170261904Y-126452380D01*
X170738095Y-126690476D01*
X163119047Y-130261904D02*
X165976190Y-130261904D01*
X164547619Y-130261904D02*
X164547619Y-125261904D01*
X165023809Y-125976190D01*
X165500000Y-126452380D01*
X165976190Y-126690476D01*
X161452380Y-125261904D02*
X158119047Y-130261904D01*
X158119047Y-125261904D02*
X161452380Y-130261904D01*
X273809523Y-96833333D02*
X271428571Y-96833333D01*
X274285714Y-98261904D02*
X272619047Y-93261904D01*
X270952380Y-98261904D01*
X269285714Y-98261904D02*
X269285714Y-93261904D01*
X268095238Y-93261904D01*
X267380952Y-93500000D01*
X266904761Y-93976190D01*
X266666666Y-94452380D01*
X266428571Y-95404761D01*
X266428571Y-96119047D01*
X266666666Y-97071428D01*
X266904761Y-97547619D01*
X267380952Y-98023809D01*
X268095238Y-98261904D01*
X269285714Y-98261904D01*
X264285714Y-98261904D02*
X264285714Y-93261904D01*
X263095238Y-93261904D01*
X262380952Y-93500000D01*
X261904761Y-93976190D01*
X261666666Y-94452380D01*
X261428571Y-95404761D01*
X261428571Y-96119047D01*
X261666666Y-97071428D01*
X261904761Y-97547619D01*
X262380952Y-98023809D01*
X263095238Y-98261904D01*
X264285714Y-98261904D01*
X259285714Y-97785714D02*
X259047619Y-98023809D01*
X259285714Y-98261904D01*
X259523809Y-98023809D01*
X259285714Y-97785714D01*
X259285714Y-98261904D01*
X259285714Y-95166666D02*
X259047619Y-95404761D01*
X259285714Y-95642857D01*
X259523809Y-95404761D01*
X259285714Y-95166666D01*
X259285714Y-95642857D01*
X250476190Y-98261904D02*
X253333333Y-98261904D01*
X251904761Y-98261904D02*
X251904761Y-93261904D01*
X252380952Y-93976190D01*
X252857142Y-94452380D01*
X253333333Y-94690476D01*
X245714285Y-98261904D02*
X248571428Y-98261904D01*
X247142857Y-98261904D02*
X247142857Y-93261904D01*
X247619047Y-93976190D01*
X248095238Y-94452380D01*
X248571428Y-94690476D01*
X242619047Y-93261904D02*
X242142857Y-93261904D01*
X241666666Y-93500000D01*
X241428571Y-93738095D01*
X241190476Y-94214285D01*
X240952380Y-95166666D01*
X240952380Y-96357142D01*
X241190476Y-97309523D01*
X241428571Y-97785714D01*
X241666666Y-98023809D01*
X242142857Y-98261904D01*
X242619047Y-98261904D01*
X243095238Y-98023809D01*
X243333333Y-97785714D01*
X243571428Y-97309523D01*
X243809523Y-96357142D01*
X243809523Y-95166666D01*
X243571428Y-94214285D01*
X243333333Y-93738095D01*
X243095238Y-93500000D01*
X242619047Y-93261904D01*
X237857142Y-93261904D02*
X237380952Y-93261904D01*
X236904761Y-93500000D01*
X236666666Y-93738095D01*
X236428571Y-94214285D01*
X236190476Y-95166666D01*
X236190476Y-96357142D01*
X236428571Y-97309523D01*
X236666666Y-97785714D01*
X236904761Y-98023809D01*
X237380952Y-98261904D01*
X237857142Y-98261904D01*
X238333333Y-98023809D01*
X238571428Y-97785714D01*
X238809523Y-97309523D01*
X239047619Y-96357142D01*
X239047619Y-95166666D01*
X238809523Y-94214285D01*
X238571428Y-93738095D01*
X238333333Y-93500000D01*
X237857142Y-93261904D01*
X274166666Y-106023809D02*
X273452380Y-106261904D01*
X272261904Y-106261904D01*
X271785714Y-106023809D01*
X271547619Y-105785714D01*
X271309523Y-105309523D01*
X271309523Y-104833333D01*
X271547619Y-104357142D01*
X271785714Y-104119047D01*
X272261904Y-103880952D01*
X273214285Y-103642857D01*
X273690476Y-103404761D01*
X273928571Y-103166666D01*
X274166666Y-102690476D01*
X274166666Y-102214285D01*
X273928571Y-101738095D01*
X273690476Y-101500000D01*
X273214285Y-101261904D01*
X272023809Y-101261904D01*
X271309523Y-101500000D01*
X269166666Y-101261904D02*
X269166666Y-105309523D01*
X268928571Y-105785714D01*
X268690476Y-106023809D01*
X268214285Y-106261904D01*
X267261904Y-106261904D01*
X266785714Y-106023809D01*
X266547619Y-105785714D01*
X266309523Y-105309523D01*
X266309523Y-101261904D01*
X262261904Y-103642857D02*
X261547619Y-103880952D01*
X261309523Y-104119047D01*
X261071428Y-104595238D01*
X261071428Y-105309523D01*
X261309523Y-105785714D01*
X261547619Y-106023809D01*
X262023809Y-106261904D01*
X263928571Y-106261904D01*
X263928571Y-101261904D01*
X262261904Y-101261904D01*
X261785714Y-101500000D01*
X261547619Y-101738095D01*
X261309523Y-102214285D01*
X261309523Y-102690476D01*
X261547619Y-103166666D01*
X261785714Y-103404761D01*
X262261904Y-103642857D01*
X263928571Y-103642857D01*
X258928571Y-105785714D02*
X258690476Y-106023809D01*
X258928571Y-106261904D01*
X259166666Y-106023809D01*
X258928571Y-105785714D01*
X258928571Y-106261904D01*
X258928571Y-103166666D02*
X258690476Y-103404761D01*
X258928571Y-103642857D01*
X259166666Y-103404761D01*
X258928571Y-103166666D01*
X258928571Y-103642857D01*
X250119047Y-106261904D02*
X252976190Y-106261904D01*
X251547619Y-106261904D02*
X251547619Y-101261904D01*
X252023809Y-101976190D01*
X252500000Y-102452380D01*
X252976190Y-102690476D01*
X245357142Y-106261904D02*
X248214285Y-106261904D01*
X246785714Y-106261904D02*
X246785714Y-101261904D01*
X247261904Y-101976190D01*
X247738095Y-102452380D01*
X248214285Y-102690476D01*
X242261904Y-101261904D02*
X241785714Y-101261904D01*
X241309523Y-101500000D01*
X241071428Y-101738095D01*
X240833333Y-102214285D01*
X240595238Y-103166666D01*
X240595238Y-104357142D01*
X240833333Y-105309523D01*
X241071428Y-105785714D01*
X241309523Y-106023809D01*
X241785714Y-106261904D01*
X242261904Y-106261904D01*
X242738095Y-106023809D01*
X242976190Y-105785714D01*
X243214285Y-105309523D01*
X243452380Y-104357142D01*
X243452380Y-103166666D01*
X243214285Y-102214285D01*
X242976190Y-101738095D01*
X242738095Y-101500000D01*
X242261904Y-101261904D01*
X235833333Y-106261904D02*
X238690476Y-106261904D01*
X237261904Y-106261904D02*
X237261904Y-101261904D01*
X237738095Y-101976190D01*
X238214285Y-102452380D01*
X238690476Y-102690476D01*
X284523809Y-114261904D02*
X286904761Y-114261904D01*
X286904761Y-109261904D01*
X282857142Y-111642857D02*
X281190476Y-111642857D01*
X280476190Y-114261904D02*
X282857142Y-114261904D01*
X282857142Y-109261904D01*
X280476190Y-109261904D01*
X276666666Y-111642857D02*
X278333333Y-111642857D01*
X278333333Y-114261904D02*
X278333333Y-109261904D01*
X275952380Y-109261904D01*
X274761904Y-109261904D02*
X271904761Y-109261904D01*
X273333333Y-114261904D02*
X273333333Y-109261904D01*
X266666666Y-114023809D02*
X265952380Y-114261904D01*
X264761904Y-114261904D01*
X264285714Y-114023809D01*
X264047619Y-113785714D01*
X263809523Y-113309523D01*
X263809523Y-112833333D01*
X264047619Y-112357142D01*
X264285714Y-112119047D01*
X264761904Y-111880952D01*
X265714285Y-111642857D01*
X266190476Y-111404761D01*
X266428571Y-111166666D01*
X266666666Y-110690476D01*
X266666666Y-110214285D01*
X266428571Y-109738095D01*
X266190476Y-109500000D01*
X265714285Y-109261904D01*
X264523809Y-109261904D01*
X263809523Y-109500000D01*
X261666666Y-114261904D02*
X261666666Y-109261904D01*
X261666666Y-111642857D02*
X258809523Y-111642857D01*
X258809523Y-114261904D02*
X258809523Y-109261904D01*
X256428571Y-114261904D02*
X256428571Y-109261904D01*
X252380952Y-111642857D02*
X254047619Y-111642857D01*
X254047619Y-114261904D02*
X254047619Y-109261904D01*
X251666666Y-109261904D01*
X250476190Y-109261904D02*
X247619047Y-109261904D01*
X249047619Y-114261904D02*
X249047619Y-109261904D01*
X245952380Y-113785714D02*
X245714285Y-114023809D01*
X245952380Y-114261904D01*
X246190476Y-114023809D01*
X245952380Y-113785714D01*
X245952380Y-114261904D01*
X245952380Y-111166666D02*
X245714285Y-111404761D01*
X245952380Y-111642857D01*
X246190476Y-111404761D01*
X245952380Y-111166666D01*
X245952380Y-111642857D01*
X238809523Y-109261904D02*
X238333333Y-109261904D01*
X237857142Y-109500000D01*
X237619047Y-109738095D01*
X237380952Y-110214285D01*
X237142857Y-111166666D01*
X237142857Y-112357142D01*
X237380952Y-113309523D01*
X237619047Y-113785714D01*
X237857142Y-114023809D01*
X238333333Y-114261904D01*
X238809523Y-114261904D01*
X239285714Y-114023809D01*
X239523809Y-113785714D01*
X239761904Y-113309523D01*
X240000000Y-112357142D01*
X240000000Y-111166666D01*
X239761904Y-110214285D01*
X239523809Y-109738095D01*
X239285714Y-109500000D01*
X238809523Y-109261904D01*
X234047619Y-109261904D02*
X233571428Y-109261904D01*
X233095238Y-109500000D01*
X232857142Y-109738095D01*
X232619047Y-110214285D01*
X232380952Y-111166666D01*
X232380952Y-112357142D01*
X232619047Y-113309523D01*
X232857142Y-113785714D01*
X233095238Y-114023809D01*
X233571428Y-114261904D01*
X234047619Y-114261904D01*
X234523809Y-114023809D01*
X234761904Y-113785714D01*
X235000000Y-113309523D01*
X235238095Y-112357142D01*
X235238095Y-111166666D01*
X235000000Y-110214285D01*
X234761904Y-109738095D01*
X234523809Y-109500000D01*
X234047619Y-109261904D01*
X229285714Y-109261904D02*
X228809523Y-109261904D01*
X228333333Y-109500000D01*
X228095238Y-109738095D01*
X227857142Y-110214285D01*
X227619047Y-111166666D01*
X227619047Y-112357142D01*
X227857142Y-113309523D01*
X228095238Y-113785714D01*
X228333333Y-114023809D01*
X228809523Y-114261904D01*
X229285714Y-114261904D01*
X229761904Y-114023809D01*
X230000000Y-113785714D01*
X230238095Y-113309523D01*
X230476190Y-112357142D01*
X230476190Y-111166666D01*
X230238095Y-110214285D01*
X230000000Y-109738095D01*
X229761904Y-109500000D01*
X229285714Y-109261904D01*
X222857142Y-114261904D02*
X225714285Y-114261904D01*
X224285714Y-114261904D02*
X224285714Y-109261904D01*
X224761904Y-109976190D01*
X225238095Y-110452380D01*
X225714285Y-110690476D01*
X287619047Y-122261904D02*
X290000000Y-122261904D01*
X290000000Y-117261904D01*
X285952380Y-119642857D02*
X284285714Y-119642857D01*
X283571428Y-122261904D02*
X285952380Y-122261904D01*
X285952380Y-117261904D01*
X283571428Y-117261904D01*
X279761904Y-119642857D02*
X281428571Y-119642857D01*
X281428571Y-122261904D02*
X281428571Y-117261904D01*
X279047619Y-117261904D01*
X277857142Y-117261904D02*
X275000000Y-117261904D01*
X276428571Y-122261904D02*
X276428571Y-117261904D01*
X266666666Y-122261904D02*
X268333333Y-119880952D01*
X269523809Y-122261904D02*
X269523809Y-117261904D01*
X267619047Y-117261904D01*
X267142857Y-117500000D01*
X266904761Y-117738095D01*
X266666666Y-118214285D01*
X266666666Y-118928571D01*
X266904761Y-119404761D01*
X267142857Y-119642857D01*
X267619047Y-119880952D01*
X269523809Y-119880952D01*
X263571428Y-117261904D02*
X262619047Y-117261904D01*
X262142857Y-117500000D01*
X261666666Y-117976190D01*
X261428571Y-118928571D01*
X261428571Y-120595238D01*
X261666666Y-121547619D01*
X262142857Y-122023809D01*
X262619047Y-122261904D01*
X263571428Y-122261904D01*
X264047619Y-122023809D01*
X264523809Y-121547619D01*
X264761904Y-120595238D01*
X264761904Y-118928571D01*
X264523809Y-117976190D01*
X264047619Y-117500000D01*
X263571428Y-117261904D01*
X260000000Y-117261904D02*
X257142857Y-117261904D01*
X258571428Y-122261904D02*
X258571428Y-117261904D01*
X255714285Y-120833333D02*
X253333333Y-120833333D01*
X256190476Y-122261904D02*
X254523809Y-117261904D01*
X252857142Y-122261904D01*
X251904761Y-117261904D02*
X249047619Y-117261904D01*
X250476190Y-122261904D02*
X250476190Y-117261904D01*
X247380952Y-119642857D02*
X245714285Y-119642857D01*
X245000000Y-122261904D02*
X247380952Y-122261904D01*
X247380952Y-117261904D01*
X245000000Y-117261904D01*
X242857142Y-121785714D02*
X242619047Y-122023809D01*
X242857142Y-122261904D01*
X243095238Y-122023809D01*
X242857142Y-121785714D01*
X242857142Y-122261904D01*
X242857142Y-119166666D02*
X242619047Y-119404761D01*
X242857142Y-119642857D01*
X243095238Y-119404761D01*
X242857142Y-119166666D01*
X242857142Y-119642857D01*
X235714285Y-117261904D02*
X235238095Y-117261904D01*
X234761904Y-117500000D01*
X234523809Y-117738095D01*
X234285714Y-118214285D01*
X234047619Y-119166666D01*
X234047619Y-120357142D01*
X234285714Y-121309523D01*
X234523809Y-121785714D01*
X234761904Y-122023809D01*
X235238095Y-122261904D01*
X235714285Y-122261904D01*
X236190476Y-122023809D01*
X236428571Y-121785714D01*
X236666666Y-121309523D01*
X236904761Y-120357142D01*
X236904761Y-119166666D01*
X236666666Y-118214285D01*
X236428571Y-117738095D01*
X236190476Y-117500000D01*
X235714285Y-117261904D01*
X230952380Y-117261904D02*
X230476190Y-117261904D01*
X230000000Y-117500000D01*
X229761904Y-117738095D01*
X229523809Y-118214285D01*
X229285714Y-119166666D01*
X229285714Y-120357142D01*
X229523809Y-121309523D01*
X229761904Y-121785714D01*
X230000000Y-122023809D01*
X230476190Y-122261904D01*
X230952380Y-122261904D01*
X231428571Y-122023809D01*
X231666666Y-121785714D01*
X231904761Y-121309523D01*
X232142857Y-120357142D01*
X232142857Y-119166666D01*
X231904761Y-118214285D01*
X231666666Y-117738095D01*
X231428571Y-117500000D01*
X230952380Y-117261904D01*
X226190476Y-117261904D02*
X225714285Y-117261904D01*
X225238095Y-117500000D01*
X225000000Y-117738095D01*
X224761904Y-118214285D01*
X224523809Y-119166666D01*
X224523809Y-120357142D01*
X224761904Y-121309523D01*
X225000000Y-121785714D01*
X225238095Y-122023809D01*
X225714285Y-122261904D01*
X226190476Y-122261904D01*
X226666666Y-122023809D01*
X226904761Y-121785714D01*
X227142857Y-121309523D01*
X227380952Y-120357142D01*
X227380952Y-119166666D01*
X227142857Y-118214285D01*
X226904761Y-117738095D01*
X226666666Y-117500000D01*
X226190476Y-117261904D01*
X221428571Y-117261904D02*
X220952380Y-117261904D01*
X220476190Y-117500000D01*
X220238095Y-117738095D01*
X220000000Y-118214285D01*
X219761904Y-119166666D01*
X219761904Y-120357142D01*
X220000000Y-121309523D01*
X220238095Y-121785714D01*
X220476190Y-122023809D01*
X220952380Y-122261904D01*
X221428571Y-122261904D01*
X221904761Y-122023809D01*
X222142857Y-121785714D01*
X222380952Y-121309523D01*
X222619047Y-120357142D01*
X222619047Y-119166666D01*
X222380952Y-118214285D01*
X222142857Y-117738095D01*
X221904761Y-117500000D01*
X221428571Y-117261904D01*
X286428571Y-130261904D02*
X288095238Y-127880952D01*
X289285714Y-130261904D02*
X289285714Y-125261904D01*
X287380952Y-125261904D01*
X286904761Y-125500000D01*
X286666666Y-125738095D01*
X286428571Y-126214285D01*
X286428571Y-126928571D01*
X286666666Y-127404761D01*
X286904761Y-127642857D01*
X287380952Y-127880952D01*
X289285714Y-127880952D01*
X284285714Y-130261904D02*
X284285714Y-125261904D01*
X279285714Y-125500000D02*
X279761904Y-125261904D01*
X280476190Y-125261904D01*
X281190476Y-125500000D01*
X281666666Y-125976190D01*
X281904761Y-126452380D01*
X282142857Y-127404761D01*
X282142857Y-128119047D01*
X281904761Y-129071428D01*
X281666666Y-129547619D01*
X281190476Y-130023809D01*
X280476190Y-130261904D01*
X280000000Y-130261904D01*
X279285714Y-130023809D01*
X279047619Y-129785714D01*
X279047619Y-128119047D01*
X280000000Y-128119047D01*
X276904761Y-130261904D02*
X276904761Y-125261904D01*
X276904761Y-127642857D02*
X274047619Y-127642857D01*
X274047619Y-130261904D02*
X274047619Y-125261904D01*
X272380952Y-125261904D02*
X269523809Y-125261904D01*
X270952380Y-130261904D02*
X270952380Y-125261904D01*
X264285714Y-130023809D02*
X263571428Y-130261904D01*
X262380952Y-130261904D01*
X261904761Y-130023809D01*
X261666666Y-129785714D01*
X261428571Y-129309523D01*
X261428571Y-128833333D01*
X261666666Y-128357142D01*
X261904761Y-128119047D01*
X262380952Y-127880952D01*
X263333333Y-127642857D01*
X263809523Y-127404761D01*
X264047619Y-127166666D01*
X264285714Y-126690476D01*
X264285714Y-126214285D01*
X264047619Y-125738095D01*
X263809523Y-125500000D01*
X263333333Y-125261904D01*
X262142857Y-125261904D01*
X261428571Y-125500000D01*
X259285714Y-130261904D02*
X259285714Y-125261904D01*
X259285714Y-127642857D02*
X256428571Y-127642857D01*
X256428571Y-130261904D02*
X256428571Y-125261904D01*
X254047619Y-130261904D02*
X254047619Y-125261904D01*
X250000000Y-127642857D02*
X251666666Y-127642857D01*
X251666666Y-130261904D02*
X251666666Y-125261904D01*
X249285714Y-125261904D01*
X248095238Y-125261904D02*
X245238095Y-125261904D01*
X246666666Y-130261904D02*
X246666666Y-125261904D01*
X243571428Y-129785714D02*
X243333333Y-130023809D01*
X243571428Y-130261904D01*
X243809523Y-130023809D01*
X243571428Y-129785714D01*
X243571428Y-130261904D01*
X243571428Y-127166666D02*
X243333333Y-127404761D01*
X243571428Y-127642857D01*
X243809523Y-127404761D01*
X243571428Y-127166666D01*
X243571428Y-127642857D01*
X236428571Y-125261904D02*
X235952380Y-125261904D01*
X235476190Y-125500000D01*
X235238095Y-125738095D01*
X235000000Y-126214285D01*
X234761904Y-127166666D01*
X234761904Y-128357142D01*
X235000000Y-129309523D01*
X235238095Y-129785714D01*
X235476190Y-130023809D01*
X235952380Y-130261904D01*
X236428571Y-130261904D01*
X236904761Y-130023809D01*
X237142857Y-129785714D01*
X237380952Y-129309523D01*
X237619047Y-128357142D01*
X237619047Y-127166666D01*
X237380952Y-126214285D01*
X237142857Y-125738095D01*
X236904761Y-125500000D01*
X236428571Y-125261904D01*
X231666666Y-125261904D02*
X231190476Y-125261904D01*
X230714285Y-125500000D01*
X230476190Y-125738095D01*
X230238095Y-126214285D01*
X230000000Y-127166666D01*
X230000000Y-128357142D01*
X230238095Y-129309523D01*
X230476190Y-129785714D01*
X230714285Y-130023809D01*
X231190476Y-130261904D01*
X231666666Y-130261904D01*
X232142857Y-130023809D01*
X232380952Y-129785714D01*
X232619047Y-129309523D01*
X232857142Y-128357142D01*
X232857142Y-127166666D01*
X232619047Y-126214285D01*
X232380952Y-125738095D01*
X232142857Y-125500000D01*
X231666666Y-125261904D01*
X225238095Y-130261904D02*
X228095238Y-130261904D01*
X226666666Y-130261904D02*
X226666666Y-125261904D01*
X227142857Y-125976190D01*
X227619047Y-126452380D01*
X228095238Y-126690476D01*
X220476190Y-130261904D02*
X223333333Y-130261904D01*
X221904761Y-130261904D02*
X221904761Y-125261904D01*
X222380952Y-125976190D01*
X222857142Y-126452380D01*
X223333333Y-126690476D01*
X289523809Y-138261904D02*
X291190476Y-135880952D01*
X292380952Y-138261904D02*
X292380952Y-133261904D01*
X290476190Y-133261904D01*
X290000000Y-133500000D01*
X289761904Y-133738095D01*
X289523809Y-134214285D01*
X289523809Y-134928571D01*
X289761904Y-135404761D01*
X290000000Y-135642857D01*
X290476190Y-135880952D01*
X292380952Y-135880952D01*
X287380952Y-138261904D02*
X287380952Y-133261904D01*
X282380952Y-133500000D02*
X282857142Y-133261904D01*
X283571428Y-133261904D01*
X284285714Y-133500000D01*
X284761904Y-133976190D01*
X285000000Y-134452380D01*
X285238095Y-135404761D01*
X285238095Y-136119047D01*
X285000000Y-137071428D01*
X284761904Y-137547619D01*
X284285714Y-138023809D01*
X283571428Y-138261904D01*
X283095238Y-138261904D01*
X282380952Y-138023809D01*
X282142857Y-137785714D01*
X282142857Y-136119047D01*
X283095238Y-136119047D01*
X280000000Y-138261904D02*
X280000000Y-133261904D01*
X280000000Y-135642857D02*
X277142857Y-135642857D01*
X277142857Y-138261904D02*
X277142857Y-133261904D01*
X275476190Y-133261904D02*
X272619047Y-133261904D01*
X274047619Y-138261904D02*
X274047619Y-133261904D01*
X264285714Y-138261904D02*
X265952380Y-135880952D01*
X267142857Y-138261904D02*
X267142857Y-133261904D01*
X265238095Y-133261904D01*
X264761904Y-133500000D01*
X264523809Y-133738095D01*
X264285714Y-134214285D01*
X264285714Y-134928571D01*
X264523809Y-135404761D01*
X264761904Y-135642857D01*
X265238095Y-135880952D01*
X267142857Y-135880952D01*
X261190476Y-133261904D02*
X260238095Y-133261904D01*
X259761904Y-133500000D01*
X259285714Y-133976190D01*
X259047619Y-134928571D01*
X259047619Y-136595238D01*
X259285714Y-137547619D01*
X259761904Y-138023809D01*
X260238095Y-138261904D01*
X261190476Y-138261904D01*
X261666666Y-138023809D01*
X262142857Y-137547619D01*
X262380952Y-136595238D01*
X262380952Y-134928571D01*
X262142857Y-133976190D01*
X261666666Y-133500000D01*
X261190476Y-133261904D01*
X257619047Y-133261904D02*
X254761904Y-133261904D01*
X256190476Y-138261904D02*
X256190476Y-133261904D01*
X253333333Y-136833333D02*
X250952380Y-136833333D01*
X253809523Y-138261904D02*
X252142857Y-133261904D01*
X250476190Y-138261904D01*
X249523809Y-133261904D02*
X246666666Y-133261904D01*
X248095238Y-138261904D02*
X248095238Y-133261904D01*
X245000000Y-135642857D02*
X243333333Y-135642857D01*
X242619047Y-138261904D02*
X245000000Y-138261904D01*
X245000000Y-133261904D01*
X242619047Y-133261904D01*
X240476190Y-137785714D02*
X240238095Y-138023809D01*
X240476190Y-138261904D01*
X240714285Y-138023809D01*
X240476190Y-137785714D01*
X240476190Y-138261904D01*
X240476190Y-135166666D02*
X240238095Y-135404761D01*
X240476190Y-135642857D01*
X240714285Y-135404761D01*
X240476190Y-135166666D01*
X240476190Y-135642857D01*
X233333333Y-133261904D02*
X232857142Y-133261904D01*
X232380952Y-133500000D01*
X232142857Y-133738095D01*
X231904761Y-134214285D01*
X231666666Y-135166666D01*
X231666666Y-136357142D01*
X231904761Y-137309523D01*
X232142857Y-137785714D01*
X232380952Y-138023809D01*
X232857142Y-138261904D01*
X233333333Y-138261904D01*
X233809523Y-138023809D01*
X234047619Y-137785714D01*
X234285714Y-137309523D01*
X234523809Y-136357142D01*
X234523809Y-135166666D01*
X234285714Y-134214285D01*
X234047619Y-133738095D01*
X233809523Y-133500000D01*
X233333333Y-133261904D01*
X228571428Y-133261904D02*
X228095238Y-133261904D01*
X227619047Y-133500000D01*
X227380952Y-133738095D01*
X227142857Y-134214285D01*
X226904761Y-135166666D01*
X226904761Y-136357142D01*
X227142857Y-137309523D01*
X227380952Y-137785714D01*
X227619047Y-138023809D01*
X228095238Y-138261904D01*
X228571428Y-138261904D01*
X229047619Y-138023809D01*
X229285714Y-137785714D01*
X229523809Y-137309523D01*
X229761904Y-136357142D01*
X229761904Y-135166666D01*
X229523809Y-134214285D01*
X229285714Y-133738095D01*
X229047619Y-133500000D01*
X228571428Y-133261904D01*
X222142857Y-138261904D02*
X225000000Y-138261904D01*
X223571428Y-138261904D02*
X223571428Y-133261904D01*
X224047619Y-133976190D01*
X224523809Y-134452380D01*
X225000000Y-134690476D01*
X219047619Y-133261904D02*
X218571428Y-133261904D01*
X218095238Y-133500000D01*
X217857142Y-133738095D01*
X217619047Y-134214285D01*
X217380952Y-135166666D01*
X217380952Y-136357142D01*
X217619047Y-137309523D01*
X217857142Y-137785714D01*
X218095238Y-138023809D01*
X218571428Y-138261904D01*
X219047619Y-138261904D01*
X219523809Y-138023809D01*
X219761904Y-137785714D01*
X220000000Y-137309523D01*
X220238095Y-136357142D01*
X220238095Y-135166666D01*
X220000000Y-134214285D01*
X219761904Y-133738095D01*
X219523809Y-133500000D01*
X219047619Y-133261904D01*
X313928571Y-212261904D02*
X311071428Y-212261904D01*
X312500000Y-217261904D02*
X312500000Y-212261904D01*
X309404761Y-217261904D02*
X309404761Y-213928571D01*
X309404761Y-212261904D02*
X309642857Y-212500000D01*
X309404761Y-212738095D01*
X309166666Y-212500000D01*
X309404761Y-212261904D01*
X309404761Y-212738095D01*
X307023809Y-213928571D02*
X307023809Y-217261904D01*
X307023809Y-214404761D02*
X306785714Y-214166666D01*
X306309523Y-213928571D01*
X305595238Y-213928571D01*
X305119047Y-214166666D01*
X304880952Y-214642857D01*
X304880952Y-217261904D01*
X302976190Y-213928571D02*
X301785714Y-217261904D01*
X300595238Y-213928571D02*
X301785714Y-217261904D01*
X302261904Y-218452380D01*
X302500000Y-218690476D01*
X302976190Y-218928571D01*
X295833333Y-217261904D02*
X297500000Y-214880952D01*
X298690476Y-217261904D02*
X298690476Y-212261904D01*
X296785714Y-212261904D01*
X296309523Y-212500000D01*
X296071428Y-212738095D01*
X295833333Y-213214285D01*
X295833333Y-213928571D01*
X296071428Y-214404761D01*
X296309523Y-214642857D01*
X296785714Y-214880952D01*
X298690476Y-214880952D01*
X293690476Y-217261904D02*
X293690476Y-212261904D01*
X291547619Y-217023809D02*
X290833333Y-217261904D01*
X289642857Y-217261904D01*
X289166666Y-217023809D01*
X288928571Y-216785714D01*
X288690476Y-216309523D01*
X288690476Y-215833333D01*
X288928571Y-215357142D01*
X289166666Y-215119047D01*
X289642857Y-214880952D01*
X290595238Y-214642857D01*
X291071428Y-214404761D01*
X291309523Y-214166666D01*
X291547619Y-213690476D01*
X291547619Y-213214285D01*
X291309523Y-212738095D01*
X291071428Y-212500000D01*
X290595238Y-212261904D01*
X289404761Y-212261904D01*
X288690476Y-212500000D01*
X283690476Y-216785714D02*
X283928571Y-217023809D01*
X284642857Y-217261904D01*
X285119047Y-217261904D01*
X285833333Y-217023809D01*
X286309523Y-216547619D01*
X286547619Y-216071428D01*
X286785714Y-215119047D01*
X286785714Y-214404761D01*
X286547619Y-213452380D01*
X286309523Y-212976190D01*
X285833333Y-212500000D01*
X285119047Y-212261904D01*
X284642857Y-212261904D01*
X283928571Y-212500000D01*
X283690476Y-212738095D01*
X277976190Y-215833333D02*
X275595238Y-215833333D01*
X278452380Y-217261904D02*
X276785714Y-212261904D01*
X275119047Y-217261904D01*
X271071428Y-217261904D02*
X273452380Y-217261904D01*
X273452380Y-212261904D01*
X269404761Y-212261904D02*
X269404761Y-216309523D01*
X269166666Y-216785714D01*
X268928571Y-217023809D01*
X268452380Y-217261904D01*
X267500000Y-217261904D01*
X267023809Y-217023809D01*
X266785714Y-216785714D01*
X266547619Y-216309523D01*
X266547619Y-212261904D01*
X258928571Y-219166666D02*
X259166666Y-218928571D01*
X259642857Y-218214285D01*
X259880952Y-217738095D01*
X260119047Y-217023809D01*
X260357142Y-215833333D01*
X260357142Y-214880952D01*
X260119047Y-213690476D01*
X259880952Y-212976190D01*
X259642857Y-212500000D01*
X259166666Y-211785714D01*
X258928571Y-211547619D01*
X257023809Y-217261904D02*
X257023809Y-213928571D01*
X257023809Y-214880952D02*
X256785714Y-214404761D01*
X256547619Y-214166666D01*
X256071428Y-213928571D01*
X255595238Y-213928571D01*
X252023809Y-217023809D02*
X252500000Y-217261904D01*
X253452380Y-217261904D01*
X253928571Y-217023809D01*
X254166666Y-216547619D01*
X254166666Y-214642857D01*
X253928571Y-214166666D01*
X253452380Y-213928571D01*
X252500000Y-213928571D01*
X252023809Y-214166666D01*
X251785714Y-214642857D01*
X251785714Y-215119047D01*
X254166666Y-215595238D01*
X250119047Y-213928571D02*
X248928571Y-217261904D01*
X247738095Y-213928571D01*
X245833333Y-216785714D02*
X245595238Y-217023809D01*
X245833333Y-217261904D01*
X246071428Y-217023809D01*
X245833333Y-216785714D01*
X245833333Y-217261904D01*
X237023809Y-217261904D02*
X239880952Y-217261904D01*
X238452380Y-217261904D02*
X238452380Y-212261904D01*
X238928571Y-212976190D01*
X239404761Y-213452380D01*
X239880952Y-213690476D01*
X234880952Y-216785714D02*
X234642857Y-217023809D01*
X234880952Y-217261904D01*
X235119047Y-217023809D01*
X234880952Y-216785714D01*
X234880952Y-217261904D01*
X231547619Y-212261904D02*
X231071428Y-212261904D01*
X230595238Y-212500000D01*
X230357142Y-212738095D01*
X230119047Y-213214285D01*
X229880952Y-214166666D01*
X229880952Y-215357142D01*
X230119047Y-216309523D01*
X230357142Y-216785714D01*
X230595238Y-217023809D01*
X231071428Y-217261904D01*
X231547619Y-217261904D01*
X232023809Y-217023809D01*
X232261904Y-216785714D01*
X232500000Y-216309523D01*
X232738095Y-215357142D01*
X232738095Y-214166666D01*
X232500000Y-213214285D01*
X232261904Y-212738095D01*
X232023809Y-212500000D01*
X231547619Y-212261904D01*
X228214285Y-219166666D02*
X227976190Y-218928571D01*
X227500000Y-218214285D01*
X227261904Y-217738095D01*
X227023809Y-217023809D01*
X226785714Y-215833333D01*
X226785714Y-214880952D01*
X227023809Y-213690476D01*
X227261904Y-212976190D01*
X227500000Y-212500000D01*
X227976190Y-211785714D01*
X228214285Y-211547619D01*
X310357142Y-224785714D02*
X310595238Y-225023809D01*
X311309523Y-225261904D01*
X311785714Y-225261904D01*
X312500000Y-225023809D01*
X312976190Y-224547619D01*
X313214285Y-224071428D01*
X313452380Y-223119047D01*
X313452380Y-222404761D01*
X313214285Y-221452380D01*
X312976190Y-220976190D01*
X312500000Y-220500000D01*
X311785714Y-220261904D01*
X311309523Y-220261904D01*
X310595238Y-220500000D01*
X310357142Y-220738095D01*
X308214285Y-225261904D02*
X308214285Y-221928571D01*
X308214285Y-222880952D02*
X307976190Y-222404761D01*
X307738095Y-222166666D01*
X307261904Y-221928571D01*
X306785714Y-221928571D01*
X303214285Y-225023809D02*
X303690476Y-225261904D01*
X304642857Y-225261904D01*
X305119047Y-225023809D01*
X305357142Y-224547619D01*
X305357142Y-222642857D01*
X305119047Y-222166666D01*
X304642857Y-221928571D01*
X303690476Y-221928571D01*
X303214285Y-222166666D01*
X302976190Y-222642857D01*
X302976190Y-223119047D01*
X305357142Y-223595238D01*
X298690476Y-225261904D02*
X298690476Y-222642857D01*
X298928571Y-222166666D01*
X299404761Y-221928571D01*
X300357142Y-221928571D01*
X300833333Y-222166666D01*
X298690476Y-225023809D02*
X299166666Y-225261904D01*
X300357142Y-225261904D01*
X300833333Y-225023809D01*
X301071428Y-224547619D01*
X301071428Y-224071428D01*
X300833333Y-223595238D01*
X300357142Y-223357142D01*
X299166666Y-223357142D01*
X298690476Y-223119047D01*
X297023809Y-221928571D02*
X295119047Y-221928571D01*
X296309523Y-220261904D02*
X296309523Y-224547619D01*
X296071428Y-225023809D01*
X295595238Y-225261904D01*
X295119047Y-225261904D01*
X292738095Y-225261904D02*
X293214285Y-225023809D01*
X293452380Y-224785714D01*
X293690476Y-224309523D01*
X293690476Y-222880952D01*
X293452380Y-222404761D01*
X293214285Y-222166666D01*
X292738095Y-221928571D01*
X292023809Y-221928571D01*
X291547619Y-222166666D01*
X291309523Y-222404761D01*
X291071428Y-222880952D01*
X291071428Y-224309523D01*
X291309523Y-224785714D01*
X291547619Y-225023809D01*
X292023809Y-225261904D01*
X292738095Y-225261904D01*
X288928571Y-225261904D02*
X288928571Y-221928571D01*
X288928571Y-222880952D02*
X288690476Y-222404761D01*
X288452380Y-222166666D01*
X287976190Y-221928571D01*
X287500000Y-221928571D01*
X285833333Y-224785714D02*
X285595238Y-225023809D01*
X285833333Y-225261904D01*
X286071428Y-225023809D01*
X285833333Y-224785714D01*
X285833333Y-225261904D01*
X285833333Y-222166666D02*
X285595238Y-222404761D01*
X285833333Y-222642857D01*
X286071428Y-222404761D01*
X285833333Y-222166666D01*
X285833333Y-222642857D01*
X277261904Y-225261904D02*
X279642857Y-225261904D01*
X279642857Y-220261904D01*
X273452380Y-221928571D02*
X273452380Y-225261904D01*
X275595238Y-221928571D02*
X275595238Y-224547619D01*
X275357142Y-225023809D01*
X274880952Y-225261904D01*
X274166666Y-225261904D01*
X273690476Y-225023809D01*
X273452380Y-224785714D01*
X268928571Y-225023809D02*
X269404761Y-225261904D01*
X270357142Y-225261904D01*
X270833333Y-225023809D01*
X271071428Y-224785714D01*
X271309523Y-224309523D01*
X271309523Y-222880952D01*
X271071428Y-222404761D01*
X270833333Y-222166666D01*
X270357142Y-221928571D01*
X269404761Y-221928571D01*
X268928571Y-222166666D01*
X261309523Y-222642857D02*
X260595238Y-222880952D01*
X260357142Y-223119047D01*
X260119047Y-223595238D01*
X260119047Y-224309523D01*
X260357142Y-224785714D01*
X260595238Y-225023809D01*
X261071428Y-225261904D01*
X262976190Y-225261904D01*
X262976190Y-220261904D01*
X261309523Y-220261904D01*
X260833333Y-220500000D01*
X260595238Y-220738095D01*
X260357142Y-221214285D01*
X260357142Y-221690476D01*
X260595238Y-222166666D01*
X260833333Y-222404761D01*
X261309523Y-222642857D01*
X262976190Y-222642857D01*
X257261904Y-225261904D02*
X257738095Y-225023809D01*
X257976190Y-224785714D01*
X258214285Y-224309523D01*
X258214285Y-222880952D01*
X257976190Y-222404761D01*
X257738095Y-222166666D01*
X257261904Y-221928571D01*
X256547619Y-221928571D01*
X256071428Y-222166666D01*
X255833333Y-222404761D01*
X255595238Y-222880952D01*
X255595238Y-224309523D01*
X255833333Y-224785714D01*
X256071428Y-225023809D01*
X256547619Y-225261904D01*
X257261904Y-225261904D01*
X251309523Y-221928571D02*
X251309523Y-225261904D01*
X253452380Y-221928571D02*
X253452380Y-224547619D01*
X253214285Y-225023809D01*
X252738095Y-225261904D01*
X252023809Y-225261904D01*
X251547619Y-225023809D01*
X251309523Y-224785714D01*
X248214285Y-225261904D02*
X248690476Y-225023809D01*
X248928571Y-224547619D01*
X248928571Y-220261904D01*
X244404761Y-225023809D02*
X244880952Y-225261904D01*
X245833333Y-225261904D01*
X246309523Y-225023809D01*
X246547619Y-224547619D01*
X246547619Y-222642857D01*
X246309523Y-222166666D01*
X245833333Y-221928571D01*
X244880952Y-221928571D01*
X244404761Y-222166666D01*
X244166666Y-222642857D01*
X244166666Y-223119047D01*
X246547619Y-223595238D01*
X242261904Y-225023809D02*
X241785714Y-225261904D01*
X240833333Y-225261904D01*
X240357142Y-225023809D01*
X240119047Y-224547619D01*
X240119047Y-224309523D01*
X240357142Y-223833333D01*
X240833333Y-223595238D01*
X241547619Y-223595238D01*
X242023809Y-223357142D01*
X242261904Y-222880952D01*
X242261904Y-222642857D01*
X242023809Y-222166666D01*
X241547619Y-221928571D01*
X240833333Y-221928571D01*
X240357142Y-222166666D01*
X238690476Y-221928571D02*
X236785714Y-221928571D01*
X237976190Y-220261904D02*
X237976190Y-224547619D01*
X237738095Y-225023809D01*
X237261904Y-225261904D01*
X236785714Y-225261904D01*
X233214285Y-225023809D02*
X233690476Y-225261904D01*
X234642857Y-225261904D01*
X235119047Y-225023809D01*
X235357142Y-224547619D01*
X235357142Y-222642857D01*
X235119047Y-222166666D01*
X234642857Y-221928571D01*
X233690476Y-221928571D01*
X233214285Y-222166666D01*
X232976190Y-222642857D01*
X232976190Y-223119047D01*
X235357142Y-223595238D01*
X230833333Y-225261904D02*
X230833333Y-221928571D01*
X230833333Y-220261904D02*
X231071428Y-220500000D01*
X230833333Y-220738095D01*
X230595238Y-220500000D01*
X230833333Y-220261904D01*
X230833333Y-220738095D01*
X228928571Y-225261904D02*
X226309523Y-221928571D01*
X228928571Y-221928571D02*
X226309523Y-225261904D01*
M02*
