%TF.GenerationSoftware,KiCad,Pcbnew,(5.1.10)-1*%
%TF.CreationDate,2021-10-27T21:30:29+02:00*%
%TF.ProjectId,ALU,414c552e-6b69-4636-9164-5f7063625858,rev1.0*%
%TF.SameCoordinates,Original*%
%TF.FileFunction,Soldermask,Bot*%
%TF.FilePolarity,Negative*%
%FSLAX46Y46*%
G04 Gerber Fmt 4.6, Leading zero omitted, Abs format (unit mm)*
G04 Created by KiCad (PCBNEW (5.1.10)-1) date 2021-10-27 21:30:29*
%MOMM*%
%LPD*%
G01*
G04 APERTURE LIST*
%ADD10O,2.000000X1.700000*%
%ADD11C,1.200000*%
%ADD12R,1.600000X1.600000*%
%ADD13O,1.600000X1.600000*%
%ADD14R,1.500000X1.500000*%
%ADD15C,1.500000*%
%ADD16R,1.650000X1.650000*%
%ADD17C,1.650000*%
%ADD18C,1.600000*%
%ADD19C,7.000000*%
%ADD20C,0.800000*%
%ADD21O,1.400000X1.400000*%
%ADD22C,1.400000*%
G04 APERTURE END LIST*
%TO.C,5V/GND1*%
G36*
G01*
X96750000Y-207850000D02*
X95250000Y-207850000D01*
G75*
G02*
X95000000Y-207600000I0J250000D01*
G01*
X95000000Y-206400000D01*
G75*
G02*
X95250000Y-206150000I250000J0D01*
G01*
X96750000Y-206150000D01*
G75*
G02*
X97000000Y-206400000I0J-250000D01*
G01*
X97000000Y-207600000D01*
G75*
G02*
X96750000Y-207850000I-250000J0D01*
G01*
G37*
D10*
X96000000Y-204500000D03*
D11*
X98000000Y-208600000D03*
%TD*%
D12*
%TO.C,ADD4.3*%
X247000000Y-111000000D03*
D13*
X254620000Y-128780000D03*
X247000000Y-113540000D03*
X254620000Y-126240000D03*
X247000000Y-116080000D03*
X254620000Y-123700000D03*
X247000000Y-118620000D03*
X254620000Y-121160000D03*
X247000000Y-121160000D03*
X254620000Y-118620000D03*
X247000000Y-123700000D03*
X254620000Y-116080000D03*
X247000000Y-126240000D03*
X254620000Y-113540000D03*
X247000000Y-128780000D03*
X254620000Y-111000000D03*
%TD*%
%TO.C,ADD4.2*%
X174620000Y-112000000D03*
X167000000Y-129780000D03*
X174620000Y-114540000D03*
X167000000Y-127240000D03*
X174620000Y-117080000D03*
X167000000Y-124700000D03*
X174620000Y-119620000D03*
X167000000Y-122160000D03*
X174620000Y-122160000D03*
X167000000Y-119620000D03*
X174620000Y-124700000D03*
X167000000Y-117080000D03*
X174620000Y-127240000D03*
X167000000Y-114540000D03*
X174620000Y-129780000D03*
D12*
X167000000Y-112000000D03*
%TD*%
%TO.C,ADD4.1*%
X232000000Y-65000000D03*
D13*
X239620000Y-82780000D03*
X232000000Y-67540000D03*
X239620000Y-80240000D03*
X232000000Y-70080000D03*
X239620000Y-77700000D03*
X232000000Y-72620000D03*
X239620000Y-75160000D03*
X232000000Y-75160000D03*
X239620000Y-72620000D03*
X232000000Y-77700000D03*
X239620000Y-70080000D03*
X232000000Y-80240000D03*
X239620000Y-67540000D03*
X232000000Y-82780000D03*
X239620000Y-65000000D03*
%TD*%
%TO.C,ADD4.0*%
X186620000Y-65000000D03*
X179000000Y-82780000D03*
X186620000Y-67540000D03*
X179000000Y-80240000D03*
X186620000Y-70080000D03*
X179000000Y-77700000D03*
X186620000Y-72620000D03*
X179000000Y-75160000D03*
X186620000Y-75160000D03*
X179000000Y-72620000D03*
X186620000Y-77700000D03*
X179000000Y-70080000D03*
X186620000Y-80240000D03*
X179000000Y-67540000D03*
X186620000Y-82780000D03*
D12*
X179000000Y-65000000D03*
%TD*%
D13*
%TO.C,ADD_GATE0*%
X271620000Y-60000000D03*
X264000000Y-82860000D03*
X271620000Y-62540000D03*
X264000000Y-80320000D03*
X271620000Y-65080000D03*
X264000000Y-77780000D03*
X271620000Y-67620000D03*
X264000000Y-75240000D03*
X271620000Y-70160000D03*
X264000000Y-72700000D03*
X271620000Y-72700000D03*
X264000000Y-70160000D03*
X271620000Y-75240000D03*
X264000000Y-67620000D03*
X271620000Y-77780000D03*
X264000000Y-65080000D03*
X271620000Y-80320000D03*
X264000000Y-62540000D03*
X271620000Y-82860000D03*
D12*
X264000000Y-60000000D03*
%TD*%
%TO.C,ADD_GATE1*%
X271000000Y-105000000D03*
D13*
X278620000Y-127860000D03*
X271000000Y-107540000D03*
X278620000Y-125320000D03*
X271000000Y-110080000D03*
X278620000Y-122780000D03*
X271000000Y-112620000D03*
X278620000Y-120240000D03*
X271000000Y-115160000D03*
X278620000Y-117700000D03*
X271000000Y-117700000D03*
X278620000Y-115160000D03*
X271000000Y-120240000D03*
X278620000Y-112620000D03*
X271000000Y-122780000D03*
X278620000Y-110080000D03*
X271000000Y-125320000D03*
X278620000Y-107540000D03*
X271000000Y-127860000D03*
X278620000Y-105000000D03*
%TD*%
D14*
%TO.C,ALU_COMM1*%
X95000000Y-157000000D03*
D15*
X95000000Y-159540000D03*
X95000000Y-162080000D03*
X97540000Y-157000000D03*
X97540000Y-159540000D03*
X97540000Y-162080000D03*
%TD*%
D16*
%TO.C,ALU_OUT1*%
X331000000Y-186000000D03*
D17*
X333540000Y-186000000D03*
X331000000Y-188540000D03*
X333540000Y-188540000D03*
X331000000Y-191080000D03*
X333540000Y-191080000D03*
X331000000Y-193620000D03*
X333540000Y-193620000D03*
X331000000Y-196160000D03*
X333540000Y-196160000D03*
X331000000Y-198700000D03*
X333540000Y-198700000D03*
X331000000Y-201240000D03*
X333540000Y-201240000D03*
X331000000Y-203780000D03*
X333540000Y-203780000D03*
%TD*%
D12*
%TO.C,AND0*%
X223000000Y-168000000D03*
D13*
X230620000Y-183240000D03*
X223000000Y-170540000D03*
X230620000Y-180700000D03*
X223000000Y-173080000D03*
X230620000Y-178160000D03*
X223000000Y-175620000D03*
X230620000Y-175620000D03*
X223000000Y-178160000D03*
X230620000Y-173080000D03*
X223000000Y-180700000D03*
X230620000Y-170540000D03*
X223000000Y-183240000D03*
X230620000Y-168000000D03*
%TD*%
%TO.C,AND1*%
X230620000Y-198000000D03*
X223000000Y-213240000D03*
X230620000Y-200540000D03*
X223000000Y-210700000D03*
X230620000Y-203080000D03*
X223000000Y-208160000D03*
X230620000Y-205620000D03*
X223000000Y-205620000D03*
X230620000Y-208160000D03*
X223000000Y-203080000D03*
X230620000Y-210700000D03*
X223000000Y-200540000D03*
X230620000Y-213240000D03*
D12*
X223000000Y-198000000D03*
%TD*%
D13*
%TO.C,AND_GATE1*%
X250620000Y-180000000D03*
X243000000Y-202860000D03*
X250620000Y-182540000D03*
X243000000Y-200320000D03*
X250620000Y-185080000D03*
X243000000Y-197780000D03*
X250620000Y-187620000D03*
X243000000Y-195240000D03*
X250620000Y-190160000D03*
X243000000Y-192700000D03*
X250620000Y-192700000D03*
X243000000Y-190160000D03*
X250620000Y-195240000D03*
X243000000Y-187620000D03*
X250620000Y-197780000D03*
X243000000Y-185080000D03*
X250620000Y-200320000D03*
X243000000Y-182540000D03*
X250620000Y-202860000D03*
D12*
X243000000Y-180000000D03*
%TD*%
D18*
%TO.C,C1*%
X115000000Y-201000000D03*
D13*
X122500000Y-201000000D03*
%TD*%
%TO.C,C2*%
X123500000Y-186000000D03*
D18*
X116000000Y-186000000D03*
%TD*%
%TO.C,C6*%
X208000000Y-92000000D03*
D13*
X215500000Y-92000000D03*
%TD*%
%TO.C,C7*%
X146500000Y-197000000D03*
D18*
X139000000Y-197000000D03*
%TD*%
%TO.C,C8*%
X295000000Y-73000000D03*
D13*
X302500000Y-73000000D03*
%TD*%
D18*
%TO.C,C9*%
X88000000Y-106000000D03*
D13*
X95500000Y-106000000D03*
%TD*%
%TO.C,C10*%
X303500000Y-107000000D03*
D18*
X296000000Y-107000000D03*
%TD*%
D13*
%TO.C,C11*%
X95500000Y-78000000D03*
D18*
X88000000Y-78000000D03*
%TD*%
%TO.C,C12*%
X148000000Y-67000000D03*
D13*
X155500000Y-67000000D03*
%TD*%
D18*
%TO.C,C13*%
X179000000Y-61000000D03*
D13*
X186500000Y-61000000D03*
%TD*%
D18*
%TO.C,C14*%
X110000000Y-95000000D03*
D13*
X117500000Y-95000000D03*
%TD*%
%TO.C,C15*%
X322000000Y-48500000D03*
D18*
X322000000Y-56000000D03*
%TD*%
D13*
%TO.C,C16*%
X240500000Y-61000000D03*
D18*
X233000000Y-61000000D03*
%TD*%
%TO.C,C17*%
X170000000Y-199000000D03*
D13*
X170000000Y-191500000D03*
%TD*%
%TO.C,C18*%
X230500000Y-124000000D03*
D18*
X223000000Y-124000000D03*
%TD*%
%TO.C,C19*%
X171000000Y-220000000D03*
D13*
X171000000Y-212500000D03*
%TD*%
%TO.C,C20*%
X145500000Y-114000000D03*
D18*
X138000000Y-114000000D03*
%TD*%
%TO.C,C21*%
X247000000Y-105000000D03*
D13*
X254500000Y-105000000D03*
%TD*%
%TO.C,C22*%
X175500000Y-107000000D03*
D18*
X168000000Y-107000000D03*
%TD*%
D13*
%TO.C,C23*%
X271500000Y-56000000D03*
D18*
X264000000Y-56000000D03*
%TD*%
%TO.C,C24*%
X223000000Y-164000000D03*
D13*
X230500000Y-164000000D03*
%TD*%
%TO.C,C25*%
X230500000Y-194000000D03*
D18*
X223000000Y-194000000D03*
%TD*%
D13*
%TO.C,C26*%
X282500000Y-154000000D03*
D18*
X275000000Y-154000000D03*
%TD*%
D13*
%TO.C,C27*%
X282500000Y-203000000D03*
D18*
X275000000Y-203000000D03*
%TD*%
%TO.C,C28*%
X271000000Y-132000000D03*
D13*
X278500000Y-132000000D03*
%TD*%
D18*
%TO.C,C29*%
X307000000Y-211000000D03*
D13*
X299500000Y-211000000D03*
%TD*%
D18*
%TO.C,C30*%
X320000000Y-155000000D03*
D13*
X327500000Y-155000000D03*
%TD*%
D18*
%TO.C,C31*%
X118000000Y-142000000D03*
D13*
X110500000Y-142000000D03*
%TD*%
%TO.C,C32*%
X204000000Y-146000000D03*
D18*
X196500000Y-146000000D03*
%TD*%
%TO.C,C33*%
X137000000Y-176000000D03*
D13*
X144500000Y-176000000D03*
%TD*%
D18*
%TO.C,C34*%
X178000000Y-145000000D03*
D13*
X185500000Y-145000000D03*
%TD*%
%TO.C,C35*%
X167500000Y-145000000D03*
D18*
X160000000Y-145000000D03*
%TD*%
D13*
%TO.C,C36*%
X250500000Y-207000000D03*
D18*
X243000000Y-207000000D03*
%TD*%
D12*
%TO.C,COMP1*%
X320000000Y-127000000D03*
D13*
X327620000Y-149860000D03*
X320000000Y-129540000D03*
X327620000Y-147320000D03*
X320000000Y-132080000D03*
X327620000Y-144780000D03*
X320000000Y-134620000D03*
X327620000Y-142240000D03*
X320000000Y-137160000D03*
X327620000Y-139700000D03*
X320000000Y-139700000D03*
X327620000Y-137160000D03*
X320000000Y-142240000D03*
X327620000Y-134620000D03*
X320000000Y-144780000D03*
X327620000Y-132080000D03*
X320000000Y-147320000D03*
X327620000Y-129540000D03*
X320000000Y-149860000D03*
X327620000Y-127000000D03*
%TD*%
D12*
%TO.C,CPOWER1*%
X95000000Y-188000000D03*
D18*
X97500000Y-188000000D03*
%TD*%
D12*
%TO.C,DEC1*%
X116000000Y-163000000D03*
D13*
X123620000Y-180780000D03*
X116000000Y-165540000D03*
X123620000Y-178240000D03*
X116000000Y-168080000D03*
X123620000Y-175700000D03*
X116000000Y-170620000D03*
X123620000Y-173160000D03*
X116000000Y-173160000D03*
X123620000Y-170620000D03*
X116000000Y-175700000D03*
X123620000Y-168080000D03*
X116000000Y-178240000D03*
X123620000Y-165540000D03*
X116000000Y-180780000D03*
X123620000Y-163000000D03*
%TD*%
D15*
%TO.C,FLAGS_OUT1*%
X333540000Y-92080000D03*
X333540000Y-89540000D03*
X333540000Y-87000000D03*
X331000000Y-92080000D03*
X331000000Y-89540000D03*
D14*
X331000000Y-87000000D03*
%TD*%
D13*
%TO.C,FlagsAdd0*%
X204620000Y-151000000D03*
X197000000Y-173860000D03*
X204620000Y-153540000D03*
X197000000Y-171320000D03*
X204620000Y-156080000D03*
X197000000Y-168780000D03*
X204620000Y-158620000D03*
X197000000Y-166240000D03*
X204620000Y-161160000D03*
X197000000Y-163700000D03*
X204620000Y-163700000D03*
X197000000Y-161160000D03*
X204620000Y-166240000D03*
X197000000Y-158620000D03*
X204620000Y-168780000D03*
X197000000Y-156080000D03*
X204620000Y-171320000D03*
X197000000Y-153540000D03*
X204620000Y-173860000D03*
D12*
X197000000Y-151000000D03*
%TD*%
%TO.C,FlagsLeft1*%
X178000000Y-151000000D03*
D13*
X185620000Y-173860000D03*
X178000000Y-153540000D03*
X185620000Y-171320000D03*
X178000000Y-156080000D03*
X185620000Y-168780000D03*
X178000000Y-158620000D03*
X185620000Y-166240000D03*
X178000000Y-161160000D03*
X185620000Y-163700000D03*
X178000000Y-163700000D03*
X185620000Y-161160000D03*
X178000000Y-166240000D03*
X185620000Y-158620000D03*
X178000000Y-168780000D03*
X185620000Y-156080000D03*
X178000000Y-171320000D03*
X185620000Y-153540000D03*
X178000000Y-173860000D03*
X185620000Y-151000000D03*
%TD*%
%TO.C,FlagsLogical1*%
X110380000Y-136000000D03*
X118000000Y-113140000D03*
X110380000Y-133460000D03*
X118000000Y-115680000D03*
X110380000Y-130920000D03*
X118000000Y-118220000D03*
X110380000Y-128380000D03*
X118000000Y-120760000D03*
X110380000Y-125840000D03*
X118000000Y-123300000D03*
X110380000Y-123300000D03*
X118000000Y-125840000D03*
X110380000Y-120760000D03*
X118000000Y-128380000D03*
X110380000Y-118220000D03*
X118000000Y-130920000D03*
X110380000Y-115680000D03*
X118000000Y-133460000D03*
X110380000Y-113140000D03*
D12*
X118000000Y-136000000D03*
%TD*%
D13*
%TO.C,FlagsRight1*%
X167620000Y-151000000D03*
X160000000Y-173860000D03*
X167620000Y-153540000D03*
X160000000Y-171320000D03*
X167620000Y-156080000D03*
X160000000Y-168780000D03*
X167620000Y-158620000D03*
X160000000Y-166240000D03*
X167620000Y-161160000D03*
X160000000Y-163700000D03*
X167620000Y-163700000D03*
X160000000Y-161160000D03*
X167620000Y-166240000D03*
X160000000Y-158620000D03*
X167620000Y-168780000D03*
X160000000Y-156080000D03*
X167620000Y-171320000D03*
X160000000Y-153540000D03*
X167620000Y-173860000D03*
D12*
X160000000Y-151000000D03*
%TD*%
D19*
%TO.C,H1*%
X325000000Y-35000000D03*
D20*
X327625000Y-35000000D03*
X326856155Y-36856155D03*
X325000000Y-37625000D03*
X323143845Y-36856155D03*
X322375000Y-35000000D03*
X323143845Y-33143845D03*
X325000000Y-32375000D03*
X326856155Y-33143845D03*
%TD*%
%TO.C,H2*%
X96856155Y-223143845D03*
X95000000Y-222375000D03*
X93143845Y-223143845D03*
X92375000Y-225000000D03*
X93143845Y-226856155D03*
X95000000Y-227625000D03*
X96856155Y-226856155D03*
X97625000Y-225000000D03*
D19*
X95000000Y-225000000D03*
%TD*%
%TO.C,H3*%
X325000000Y-225000000D03*
D20*
X327625000Y-225000000D03*
X326856155Y-226856155D03*
X325000000Y-227625000D03*
X323143845Y-226856155D03*
X322375000Y-225000000D03*
X323143845Y-223143845D03*
X325000000Y-222375000D03*
X326856155Y-223143845D03*
%TD*%
D19*
%TO.C,H4*%
X85000000Y-35000000D03*
D20*
X87625000Y-35000000D03*
X86856155Y-36856155D03*
X85000000Y-37625000D03*
X83143845Y-36856155D03*
X82375000Y-35000000D03*
X83143845Y-33143845D03*
X85000000Y-32375000D03*
X86856155Y-33143845D03*
%TD*%
%TO.C,H5*%
X96856155Y-33143845D03*
X95000000Y-32375000D03*
X93143845Y-33143845D03*
X92375000Y-35000000D03*
X93143845Y-36856155D03*
X95000000Y-37625000D03*
X96856155Y-36856155D03*
X97625000Y-35000000D03*
D19*
X95000000Y-35000000D03*
%TD*%
D20*
%TO.C,H6*%
X86856155Y-223143845D03*
X85000000Y-222375000D03*
X83143845Y-223143845D03*
X82375000Y-225000000D03*
X83143845Y-226856155D03*
X85000000Y-227625000D03*
X86856155Y-226856155D03*
X87625000Y-225000000D03*
D19*
X85000000Y-225000000D03*
%TD*%
%TO.C,H7*%
X335000000Y-225000000D03*
D20*
X337625000Y-225000000D03*
X336856155Y-226856155D03*
X335000000Y-227625000D03*
X333143845Y-226856155D03*
X332375000Y-225000000D03*
X333143845Y-223143845D03*
X335000000Y-222375000D03*
X336856155Y-223143845D03*
%TD*%
%TO.C,H8*%
X336856155Y-33143845D03*
X335000000Y-32375000D03*
X333143845Y-33143845D03*
X332375000Y-35000000D03*
X333143845Y-36856155D03*
X335000000Y-37625000D03*
X336856155Y-36856155D03*
X337625000Y-35000000D03*
D19*
X335000000Y-35000000D03*
%TD*%
D13*
%TO.C,MUXCout1*%
X147620000Y-205000000D03*
X140000000Y-222780000D03*
X147620000Y-207540000D03*
X140000000Y-220240000D03*
X147620000Y-210080000D03*
X140000000Y-217700000D03*
X147620000Y-212620000D03*
X140000000Y-215160000D03*
X147620000Y-215160000D03*
X140000000Y-212620000D03*
X147620000Y-217700000D03*
X140000000Y-210080000D03*
X147620000Y-220240000D03*
X140000000Y-207540000D03*
X147620000Y-222780000D03*
D12*
X140000000Y-205000000D03*
%TD*%
D13*
%TO.C,NAND0*%
X95620000Y-59000000D03*
X88000000Y-74240000D03*
X95620000Y-61540000D03*
X88000000Y-71700000D03*
X95620000Y-64080000D03*
X88000000Y-69160000D03*
X95620000Y-66620000D03*
X88000000Y-66620000D03*
X95620000Y-69160000D03*
X88000000Y-64080000D03*
X95620000Y-71700000D03*
X88000000Y-61540000D03*
X95620000Y-74240000D03*
D12*
X88000000Y-59000000D03*
%TD*%
%TO.C,NAND1*%
X88000000Y-87000000D03*
D13*
X95620000Y-102240000D03*
X88000000Y-89540000D03*
X95620000Y-99700000D03*
X88000000Y-92080000D03*
X95620000Y-97160000D03*
X88000000Y-94620000D03*
X95620000Y-94620000D03*
X88000000Y-97160000D03*
X95620000Y-92080000D03*
X88000000Y-99700000D03*
X95620000Y-89540000D03*
X88000000Y-102240000D03*
X95620000Y-87000000D03*
%TD*%
%TO.C,NAND41*%
X122620000Y-205000000D03*
X115000000Y-220240000D03*
X122620000Y-207540000D03*
X115000000Y-217700000D03*
X122620000Y-210080000D03*
X115000000Y-215160000D03*
X122620000Y-212620000D03*
X115000000Y-212620000D03*
X122620000Y-215160000D03*
X115000000Y-210080000D03*
X122620000Y-217700000D03*
X115000000Y-207540000D03*
X122620000Y-220240000D03*
D12*
X115000000Y-205000000D03*
%TD*%
%TO.C,NAND_GATE0*%
X110000000Y-68000000D03*
D13*
X117620000Y-90860000D03*
X110000000Y-70540000D03*
X117620000Y-88320000D03*
X110000000Y-73080000D03*
X117620000Y-85780000D03*
X110000000Y-75620000D03*
X117620000Y-83240000D03*
X110000000Y-78160000D03*
X117620000Y-80700000D03*
X110000000Y-80700000D03*
X117620000Y-78160000D03*
X110000000Y-83240000D03*
X117620000Y-75620000D03*
X110000000Y-85780000D03*
X117620000Y-73080000D03*
X110000000Y-88320000D03*
X117620000Y-70540000D03*
X110000000Y-90860000D03*
X117620000Y-68000000D03*
%TD*%
D17*
%TO.C,OP1*%
X161780000Y-37460000D03*
X161780000Y-40000000D03*
X159240000Y-37460000D03*
X159240000Y-40000000D03*
X156700000Y-37460000D03*
X156700000Y-40000000D03*
X154160000Y-37460000D03*
X154160000Y-40000000D03*
X151620000Y-37460000D03*
X151620000Y-40000000D03*
X149080000Y-37460000D03*
X149080000Y-40000000D03*
X146540000Y-37460000D03*
X146540000Y-40000000D03*
X144000000Y-37460000D03*
D16*
X144000000Y-40000000D03*
%TD*%
%TO.C,OP2*%
X202000000Y-40000000D03*
D17*
X202000000Y-37460000D03*
X204540000Y-40000000D03*
X204540000Y-37460000D03*
X207080000Y-40000000D03*
X207080000Y-37460000D03*
X209620000Y-40000000D03*
X209620000Y-37460000D03*
X212160000Y-40000000D03*
X212160000Y-37460000D03*
X214700000Y-40000000D03*
X214700000Y-37460000D03*
X217240000Y-40000000D03*
X217240000Y-37460000D03*
X219780000Y-40000000D03*
X219780000Y-37460000D03*
%TD*%
D12*
%TO.C,OR0*%
X275000000Y-158000000D03*
D13*
X282620000Y-173240000D03*
X275000000Y-160540000D03*
X282620000Y-170700000D03*
X275000000Y-163080000D03*
X282620000Y-168160000D03*
X275000000Y-165620000D03*
X282620000Y-165620000D03*
X275000000Y-168160000D03*
X282620000Y-163080000D03*
X275000000Y-170700000D03*
X282620000Y-160540000D03*
X275000000Y-173240000D03*
X282620000Y-158000000D03*
%TD*%
D12*
%TO.C,OR1*%
X275000000Y-183000000D03*
D13*
X282620000Y-198240000D03*
X275000000Y-185540000D03*
X282620000Y-195700000D03*
X275000000Y-188080000D03*
X282620000Y-193160000D03*
X275000000Y-190620000D03*
X282620000Y-190620000D03*
X275000000Y-193160000D03*
X282620000Y-188080000D03*
X275000000Y-195700000D03*
X282620000Y-185540000D03*
X275000000Y-198240000D03*
X282620000Y-183000000D03*
%TD*%
D12*
%TO.C,OR_GATE1*%
X307000000Y-207000000D03*
D13*
X299380000Y-184140000D03*
X307000000Y-204460000D03*
X299380000Y-186680000D03*
X307000000Y-201920000D03*
X299380000Y-189220000D03*
X307000000Y-199380000D03*
X299380000Y-191760000D03*
X307000000Y-196840000D03*
X299380000Y-194300000D03*
X307000000Y-194300000D03*
X299380000Y-196840000D03*
X307000000Y-191760000D03*
X299380000Y-199380000D03*
X307000000Y-189220000D03*
X299380000Y-201920000D03*
X307000000Y-186680000D03*
X299380000Y-204460000D03*
X307000000Y-184140000D03*
X299380000Y-207000000D03*
%TD*%
%TO.C,OverflowXOR1*%
X144620000Y-156000000D03*
X137000000Y-171240000D03*
X144620000Y-158540000D03*
X137000000Y-168700000D03*
X144620000Y-161080000D03*
X137000000Y-166160000D03*
X144620000Y-163620000D03*
X137000000Y-163620000D03*
X144620000Y-166160000D03*
X137000000Y-161080000D03*
X144620000Y-168700000D03*
X137000000Y-158540000D03*
X144620000Y-171240000D03*
D12*
X137000000Y-156000000D03*
%TD*%
D21*
%TO.C,PD8*%
X186000000Y-35380000D03*
D22*
X186000000Y-43000000D03*
%TD*%
%TO.C,PD9*%
X132000000Y-50000000D03*
D21*
X132000000Y-42380000D03*
%TD*%
%TO.C,PD10*%
X182000000Y-35380000D03*
D22*
X182000000Y-43000000D03*
%TD*%
%TO.C,PD11*%
X125000000Y-50000000D03*
D21*
X125000000Y-42380000D03*
%TD*%
%TO.C,PD12*%
X178000000Y-35380000D03*
D22*
X178000000Y-43000000D03*
%TD*%
%TO.C,PD13*%
X118000000Y-50000000D03*
D21*
X118000000Y-42380000D03*
%TD*%
%TO.C,PD14*%
X174000000Y-35380000D03*
D22*
X174000000Y-43000000D03*
%TD*%
%TO.C,PD15*%
X111000000Y-50000000D03*
D21*
X111000000Y-42380000D03*
%TD*%
D22*
%TO.C,PDB8*%
X248000000Y-44000000D03*
D21*
X248000000Y-36380000D03*
%TD*%
%TO.C,PDB9*%
X280000000Y-36380000D03*
D22*
X280000000Y-44000000D03*
%TD*%
%TO.C,PDB10*%
X255000000Y-44000000D03*
D21*
X255000000Y-36380000D03*
%TD*%
%TO.C,PDB11*%
X276000000Y-36380000D03*
D22*
X276000000Y-44000000D03*
%TD*%
%TO.C,PDB12*%
X241000000Y-44000000D03*
D21*
X241000000Y-36380000D03*
%TD*%
%TO.C,PDB13*%
X272000000Y-36380000D03*
D22*
X272000000Y-44000000D03*
%TD*%
D21*
%TO.C,PDB14*%
X234000000Y-36380000D03*
D22*
X234000000Y-44000000D03*
%TD*%
%TO.C,PDB15*%
X268000000Y-44000000D03*
D21*
X268000000Y-36380000D03*
%TD*%
D12*
%TO.C,SL_GATE0*%
X176000000Y-220000000D03*
D13*
X198860000Y-212380000D03*
X178540000Y-220000000D03*
X196320000Y-212380000D03*
X181080000Y-220000000D03*
X193780000Y-212380000D03*
X183620000Y-220000000D03*
X191240000Y-212380000D03*
X186160000Y-220000000D03*
X188700000Y-212380000D03*
X188700000Y-220000000D03*
X186160000Y-212380000D03*
X191240000Y-220000000D03*
X183620000Y-212380000D03*
X193780000Y-220000000D03*
X181080000Y-212380000D03*
X196320000Y-220000000D03*
X178540000Y-212380000D03*
X198860000Y-220000000D03*
X176000000Y-212380000D03*
%TD*%
D12*
%TO.C,SR_GATE0*%
X175000000Y-199000000D03*
D13*
X197860000Y-191380000D03*
X177540000Y-199000000D03*
X195320000Y-191380000D03*
X180080000Y-199000000D03*
X192780000Y-191380000D03*
X182620000Y-199000000D03*
X190240000Y-191380000D03*
X185160000Y-199000000D03*
X187700000Y-191380000D03*
X187700000Y-199000000D03*
X185160000Y-191380000D03*
X190240000Y-199000000D03*
X182620000Y-191380000D03*
X192780000Y-199000000D03*
X180080000Y-191380000D03*
X195320000Y-199000000D03*
X177540000Y-191380000D03*
X197860000Y-199000000D03*
X175000000Y-191380000D03*
%TD*%
D12*
%TO.C,XOR0*%
X303000000Y-93000000D03*
D13*
X295380000Y-77760000D03*
X303000000Y-90460000D03*
X295380000Y-80300000D03*
X303000000Y-87920000D03*
X295380000Y-82840000D03*
X303000000Y-85380000D03*
X295380000Y-85380000D03*
X303000000Y-82840000D03*
X295380000Y-87920000D03*
X303000000Y-80300000D03*
X295380000Y-90460000D03*
X303000000Y-77760000D03*
X295380000Y-93000000D03*
%TD*%
%TO.C,XOR1*%
X303620000Y-111000000D03*
X296000000Y-126240000D03*
X303620000Y-113540000D03*
X296000000Y-123700000D03*
X303620000Y-116080000D03*
X296000000Y-121160000D03*
X303620000Y-118620000D03*
X296000000Y-118620000D03*
X303620000Y-121160000D03*
X296000000Y-116080000D03*
X303620000Y-123700000D03*
X296000000Y-113540000D03*
X303620000Y-126240000D03*
D12*
X296000000Y-111000000D03*
%TD*%
D13*
%TO.C,XOR2*%
X215620000Y-72000000D03*
X208000000Y-87240000D03*
X215620000Y-74540000D03*
X208000000Y-84700000D03*
X215620000Y-77080000D03*
X208000000Y-82160000D03*
X215620000Y-79620000D03*
X208000000Y-79620000D03*
X215620000Y-82160000D03*
X208000000Y-77080000D03*
X215620000Y-84700000D03*
X208000000Y-74540000D03*
X215620000Y-87240000D03*
D12*
X208000000Y-72000000D03*
%TD*%
%TO.C,XOR3*%
X138000000Y-118000000D03*
D13*
X145620000Y-133240000D03*
X138000000Y-120540000D03*
X145620000Y-130700000D03*
X138000000Y-123080000D03*
X145620000Y-128160000D03*
X138000000Y-125620000D03*
X145620000Y-125620000D03*
X138000000Y-128160000D03*
X145620000Y-123080000D03*
X138000000Y-130700000D03*
X145620000Y-120540000D03*
X138000000Y-133240000D03*
X145620000Y-118000000D03*
%TD*%
%TO.C,XOR4*%
X230620000Y-128000000D03*
X223000000Y-143240000D03*
X230620000Y-130540000D03*
X223000000Y-140700000D03*
X230620000Y-133080000D03*
X223000000Y-138160000D03*
X230620000Y-135620000D03*
X223000000Y-135620000D03*
X230620000Y-138160000D03*
X223000000Y-133080000D03*
X230620000Y-140700000D03*
X223000000Y-130540000D03*
X230620000Y-143240000D03*
D12*
X223000000Y-128000000D03*
%TD*%
%TO.C,XOR41*%
X148000000Y-72000000D03*
D13*
X155620000Y-87240000D03*
X148000000Y-74540000D03*
X155620000Y-84700000D03*
X148000000Y-77080000D03*
X155620000Y-82160000D03*
X148000000Y-79620000D03*
X155620000Y-79620000D03*
X148000000Y-82160000D03*
X155620000Y-77080000D03*
X148000000Y-84700000D03*
X155620000Y-74540000D03*
X148000000Y-87240000D03*
X155620000Y-72000000D03*
%TD*%
%TO.C,XOR_GATE0*%
X294000000Y-48380000D03*
X316860000Y-56000000D03*
X296540000Y-48380000D03*
X314320000Y-56000000D03*
X299080000Y-48380000D03*
X311780000Y-56000000D03*
X301620000Y-48380000D03*
X309240000Y-56000000D03*
X304160000Y-48380000D03*
X306700000Y-56000000D03*
X306700000Y-48380000D03*
X304160000Y-56000000D03*
X309240000Y-48380000D03*
X301620000Y-56000000D03*
X311780000Y-48380000D03*
X299080000Y-56000000D03*
X314320000Y-48380000D03*
X296540000Y-56000000D03*
X316860000Y-48380000D03*
D12*
X294000000Y-56000000D03*
%TD*%
M02*
