M48
; DRILL file {KiCad (5.1.10)-1} date 10/27/21 21:30:31
; FORMAT={-:-/ absolute / inch / decimal}
; #@! TF.CreationDate,2021-10-27T21:30:31+02:00
; #@! TF.GenerationSoftware,Kicad,Pcbnew,(5.1.10)-1
; #@! TF.FileFunction,Plated,1,2,PTH
FMAT,2
INCH
T1C0.0157
T2C0.0197
T3C0.0276
T4C0.0315
T5C0.0394
T6C0.0433
T7C0.1378
%
G90
G05
T1
X4.8817Y-5.2735
X4.885Y-5.4837
X5.0476Y-2.2983
X5.1561Y-6.9327
X5.2061Y-6.8847
X5.2971Y-6.9273
X5.3589Y-5.8421
X5.6766Y-5.8761
X5.6958Y-5.9543
X5.7002Y-2.4843
X5.9989Y-2.3074
X6.039Y-3.1903
X6.1385Y-2.0036
X6.2012Y-6.9117
X6.2956Y-2.336
X6.3563Y-2.286
X6.383Y-2.257
X6.5385Y-6.3917
X6.5416Y-3.9377
X6.8976Y-2.7148
X6.9236Y-6.5431
X6.93Y-6.2582
X7.0391Y-6.9984
X7.1041Y-2.9766
X7.1341Y-6.9403
X7.141Y-3.6302
X7.151Y-2.542
X7.7271Y-2.363
X7.8776Y-7.6912
X7.8795Y-3.6009
X7.9062Y-7.4777
X7.967Y-4.385
X7.9912Y-4.5085
X8.0396Y-4.5119
X8.0746Y-8.0492
X8.0789Y-3.8289
X8.0913Y-4.5328
X8.1397Y-3.8879
X8.2627Y-3.8543
X8.3344Y-3.0509
X8.4905Y-1.3614
X8.5309Y-3.9252
X8.5506Y-1.3792
X8.5892Y-3.9004
X8.5967Y-6.68
X8.6274Y-7.3248
X8.6662Y-7.2318
X8.7175Y-7.8586
X8.8121Y-7.5447
X8.8575Y-7.0903
X9.0814Y-3.7765
X9.1238Y-4.9356
X9.1421Y-6.7642
X9.2527Y-8.0066
X9.3144Y-6.8333
X9.3644Y-2.7344
X9.4409Y-8.0906
X9.5028Y-8.2502
X9.556Y-8.2498
X10.0221Y-2.3349
X10.191Y-2.462
X10.3136Y-7.6026
X10.365Y-7.111
X10.366Y-7.2587
X10.3952Y-6.1417
X10.3952Y-7.078
X10.403Y-7.5047
X10.4347Y-7.3371
X10.472Y-5.9376
X10.5012Y-3.9184
X10.5185Y-7.413
X10.5322Y-4.0012
X10.6628Y-3.8934
X10.875Y-7.9455
X10.9424Y-7.9196
X11.2357Y-6.3205
X11.2537Y-6.2454
X11.2684Y-6.2878
X11.2747Y-6.2036
X11.3001Y-4.8262
X11.3096Y-5.1
X11.3144Y-6.1922
X11.3245Y-6.2316
X11.36Y-6.125
X11.3673Y-6.1643
X11.3675Y-5.1694
X11.3715Y-5.216
X11.4039Y-3.4418
X11.4498Y-7.7454
X11.5004Y-5.3205
X11.5183Y-5.2609
X11.9197Y-7.5205
X12.3669Y-4.3709
X12.514Y-7.2902
X12.7214Y-7.4622
T2
X3.2431Y-1.378
X3.2431Y-8.8583
X3.2734Y-1.3049
X3.2734Y-1.451
X3.2734Y-8.7852
X3.2734Y-8.9313
X3.3465Y-1.2746
X3.3465Y-1.4813
X3.3465Y-8.7549
X3.3465Y-8.9616
X3.4195Y-1.3049
X3.4195Y-1.451
X3.4195Y-8.7852
X3.4195Y-8.9313
X3.4498Y-1.378
X3.4498Y-8.8583
X3.6368Y-1.378
X3.6368Y-8.8583
X3.6671Y-1.3049
X3.6671Y-1.451
X3.6671Y-8.7852
X3.6671Y-8.9313
X3.7402Y-1.2746
X3.7402Y-1.4813
X3.7402Y-8.7549
X3.7402Y-8.9616
X3.8132Y-1.3049
X3.8132Y-1.451
X3.8132Y-8.7852
X3.8132Y-8.9313
X3.8435Y-1.378
X3.8435Y-8.8583
X12.6919Y-1.378
X12.6919Y-8.8583
X12.7222Y-1.3049
X12.7222Y-1.451
X12.7222Y-8.7852
X12.7222Y-8.9313
X12.7953Y-1.2746
X12.7953Y-1.4813
X12.7953Y-8.7549
X12.7953Y-8.9616
X12.8684Y-1.3049
X12.8684Y-1.451
X12.8684Y-8.7852
X12.8684Y-8.9313
X12.8986Y-1.378
X12.8986Y-8.8583
X13.0856Y-1.378
X13.0856Y-8.8583
X13.1159Y-1.3049
X13.1159Y-1.451
X13.1159Y-8.7852
X13.1159Y-8.9313
X13.189Y-1.2746
X13.189Y-1.4813
X13.189Y-8.7549
X13.189Y-8.9616
X13.2621Y-1.3049
X13.2621Y-1.451
X13.2621Y-8.7852
X13.2621Y-8.9313
X13.2923Y-1.378
X13.2923Y-8.8583
T3
X4.3701Y-1.6685
X4.3701Y-1.9685
X4.6457Y-1.6685
X4.6457Y-1.9685
X4.9213Y-1.6685
X4.9213Y-1.9685
X5.1969Y-1.6685
X5.1969Y-1.9685
X6.8504Y-1.3929
X6.8504Y-1.6929
X7.0079Y-1.3929
X7.0079Y-1.6929
X7.1654Y-1.3929
X7.1654Y-1.6929
X7.3228Y-1.3929
X7.3228Y-1.6929
X9.2126Y-1.4323
X9.2126Y-1.7323
X9.4882Y-1.4323
X9.4882Y-1.7323
X9.7638Y-1.4323
X9.7638Y-1.7323
X10.0394Y-1.4323
X10.0394Y-1.7323
X10.5512Y-1.4323
X10.5512Y-1.7323
X10.7087Y-1.4323
X10.7087Y-1.7323
X10.8661Y-1.4323
X10.8661Y-1.7323
X11.0236Y-1.4323
X11.0236Y-1.7323
T4
X3.4646Y-2.3228
X3.4646Y-2.4228
X3.4646Y-2.5228
X3.4646Y-2.6228
X3.4646Y-2.7228
X3.4646Y-2.8228
X3.4646Y-2.9228
X3.4646Y-3.0709
X3.4646Y-3.4252
X3.4646Y-3.5252
X3.4646Y-3.6252
X3.4646Y-3.7252
X3.4646Y-3.8252
X3.4646Y-3.9252
X3.4646Y-4.0252
X3.4646Y-4.1732
X3.7402Y-7.4016
X3.7598Y-3.0709
X3.7598Y-4.1732
X3.7646Y-2.3228
X3.7646Y-2.4228
X3.7646Y-2.5228
X3.7646Y-2.6228
X3.7646Y-2.7228
X3.7646Y-2.8228
X3.7646Y-2.9228
X3.7646Y-3.4252
X3.7646Y-3.5252
X3.7646Y-3.6252
X3.7646Y-3.7252
X3.7646Y-3.8252
X3.7646Y-3.9252
X3.7646Y-4.0252
X3.8386Y-7.4016
X4.3307Y-2.6772
X4.3307Y-2.7772
X4.3307Y-2.8772
X4.3307Y-2.9772
X4.3307Y-3.0772
X4.3307Y-3.1772
X4.3307Y-3.2772
X4.3307Y-3.3772
X4.3307Y-3.4772
X4.3307Y-3.5772
X4.3307Y-3.7402
X4.3457Y-4.4543
X4.3457Y-4.5543
X4.3457Y-4.6543
X4.3457Y-4.7543
X4.3457Y-4.8543
X4.3457Y-4.9543
X4.3457Y-5.0543
X4.3457Y-5.1543
X4.3457Y-5.2543
X4.3457Y-5.3543
X4.3504Y-5.5906
X4.5276Y-7.9134
X4.5276Y-8.0709
X4.5276Y-8.1709
X4.5276Y-8.2709
X4.5276Y-8.3709
X4.5276Y-8.4709
X4.5276Y-8.5709
X4.5276Y-8.6709
X4.5669Y-6.4173
X4.5669Y-6.5173
X4.5669Y-6.6173
X4.5669Y-6.7173
X4.5669Y-6.8173
X4.5669Y-6.9173
X4.5669Y-7.0173
X4.5669Y-7.1173
X4.5669Y-7.3228
X4.626Y-3.7402
X4.6307Y-2.6772
X4.6307Y-2.7772
X4.6307Y-2.8772
X4.6307Y-2.9772
X4.6307Y-3.0772
X4.6307Y-3.1772
X4.6307Y-3.2772
X4.6307Y-3.3772
X4.6307Y-3.4772
X4.6307Y-3.5772
X4.6457Y-4.4543
X4.6457Y-4.5543
X4.6457Y-4.6543
X4.6457Y-4.7543
X4.6457Y-4.8543
X4.6457Y-4.9543
X4.6457Y-5.0543
X4.6457Y-5.1543
X4.6457Y-5.2543
X4.6457Y-5.3543
X4.6457Y-5.5906
X4.8228Y-7.9134
X4.8276Y-8.0709
X4.8276Y-8.1709
X4.8276Y-8.2709
X4.8276Y-8.3709
X4.8276Y-8.4709
X4.8276Y-8.5709
X4.8276Y-8.6709
X4.8622Y-7.3228
X4.8669Y-6.4173
X4.8669Y-6.5173
X4.8669Y-6.6173
X4.8669Y-6.7173
X4.8669Y-6.8173
X4.8669Y-6.9173
X4.8669Y-7.0173
X4.8669Y-7.1173
X5.3937Y-6.1417
X5.3937Y-6.2417
X5.3937Y-6.3417
X5.3937Y-6.4417
X5.3937Y-6.5417
X5.3937Y-6.6417
X5.3937Y-6.7417
X5.3937Y-6.9291
X5.4331Y-4.4882
X5.4331Y-4.6457
X5.4331Y-4.7457
X5.4331Y-4.8457
X5.4331Y-4.9457
X5.4331Y-5.0457
X5.4331Y-5.1457
X5.4331Y-5.2457
X5.4724Y-7.7559
X5.5118Y-8.0709
X5.5118Y-8.1709
X5.5118Y-8.2709
X5.5118Y-8.3709
X5.5118Y-8.4709
X5.5118Y-8.5709
X5.5118Y-8.6709
X5.5118Y-8.7709
X5.689Y-6.9291
X5.6937Y-6.1417
X5.6937Y-6.2417
X5.6937Y-6.3417
X5.6937Y-6.4417
X5.6937Y-6.5417
X5.6937Y-6.6417
X5.6937Y-6.7417
X5.7283Y-4.4882
X5.7331Y-4.6457
X5.7331Y-4.7457
X5.7331Y-4.8457
X5.7331Y-4.9457
X5.7331Y-5.0457
X5.7331Y-5.1457
X5.7331Y-5.2457
X5.7677Y-7.7559
X5.8118Y-8.0709
X5.8118Y-8.1709
X5.8118Y-8.2709
X5.8118Y-8.3709
X5.8118Y-8.4709
X5.8118Y-8.5709
X5.8118Y-8.6709
X5.8118Y-8.7709
X5.8268Y-2.6378
X5.8268Y-2.8346
X5.8268Y-2.9346
X5.8268Y-3.0346
X5.8268Y-3.1346
X5.8268Y-3.2346
X5.8268Y-3.3346
X5.8268Y-3.4346
X6.122Y-2.6378
X6.1268Y-2.8346
X6.1268Y-2.9346
X6.1268Y-3.0346
X6.1268Y-3.1346
X6.1268Y-3.2346
X6.1268Y-3.3346
X6.1268Y-3.4346
X6.2992Y-5.7087
X6.2992Y-5.9449
X6.2992Y-6.0449
X6.2992Y-6.1449
X6.2992Y-6.2449
X6.2992Y-6.3449
X6.2992Y-6.4449
X6.2992Y-6.5449
X6.2992Y-6.6449
X6.2992Y-6.7449
X6.2992Y-6.8449
X6.5748Y-4.4094
X6.5748Y-4.5094
X6.5748Y-4.6094
X6.5748Y-4.7094
X6.5748Y-4.8094
X6.5748Y-4.9094
X6.5748Y-5.0094
X6.5748Y-5.1094
X6.5945Y-5.7087
X6.5992Y-5.9449
X6.5992Y-6.0449
X6.5992Y-6.1449
X6.5992Y-6.2449
X6.5992Y-6.3449
X6.5992Y-6.4449
X6.5992Y-6.5449
X6.5992Y-6.6449
X6.5992Y-6.7449
X6.5992Y-6.8449
X6.6142Y-4.2126
X6.6929Y-7.5394
X6.6929Y-7.8346
X6.7323Y-8.3661
X6.7323Y-8.6614
X6.8748Y-4.4094
X6.8748Y-4.5094
X6.8748Y-4.6094
X6.8748Y-4.7094
X6.8748Y-4.8094
X6.8748Y-4.9094
X6.8748Y-5.0094
X6.8748Y-5.1094
X6.8898Y-7.5346
X6.8898Y-7.8346
X6.9094Y-4.2126
X6.9291Y-8.3614
X6.9291Y-8.6614
X6.9898Y-7.5346
X6.9898Y-7.8346
X7.0079Y-5.7087
X7.0079Y-5.9449
X7.0079Y-6.0449
X7.0079Y-6.1449
X7.0079Y-6.2449
X7.0079Y-6.3449
X7.0079Y-6.4449
X7.0079Y-6.5449
X7.0079Y-6.6449
X7.0079Y-6.7449
X7.0079Y-6.8449
X7.0291Y-8.3614
X7.0291Y-8.6614
X7.0472Y-2.4016
X7.0472Y-2.5591
X7.0472Y-2.6591
X7.0472Y-2.7591
X7.0472Y-2.8591
X7.0472Y-2.9591
X7.0472Y-3.0591
X7.0472Y-3.1591
X7.0472Y-3.2591
X7.0898Y-7.5346
X7.0898Y-7.8346
X7.1291Y-8.3614
X7.1291Y-8.6614
X7.1898Y-7.5346
X7.1898Y-7.8346
X7.2291Y-8.3614
X7.2291Y-8.6614
X7.2898Y-7.5346
X7.2898Y-7.8346
X7.3031Y-5.7087
X7.3079Y-5.9449
X7.3079Y-6.0449
X7.3079Y-6.1449
X7.3079Y-6.2449
X7.3079Y-6.3449
X7.3079Y-6.4449
X7.3079Y-6.5449
X7.3079Y-6.6449
X7.3079Y-6.7449
X7.3079Y-6.8449
X7.3291Y-8.3614
X7.3291Y-8.6614
X7.3425Y-2.4016
X7.3472Y-2.5591
X7.3472Y-2.6591
X7.3472Y-2.7591
X7.3472Y-2.8591
X7.3472Y-2.9591
X7.3472Y-3.0591
X7.3472Y-3.1591
X7.3472Y-3.2591
X7.3898Y-7.5346
X7.3898Y-7.8346
X7.4291Y-8.3614
X7.4291Y-8.6614
X7.4898Y-7.5346
X7.4898Y-7.8346
X7.5291Y-8.3614
X7.5291Y-8.6614
X7.5898Y-7.5346
X7.5898Y-7.8346
X7.6291Y-8.3614
X7.6291Y-8.6614
X7.6898Y-7.5346
X7.6898Y-7.8346
X7.7291Y-8.3614
X7.7291Y-8.6614
X7.7362Y-5.748
X7.7559Y-5.9449
X7.7559Y-6.0449
X7.7559Y-6.1449
X7.7559Y-6.2449
X7.7559Y-6.3449
X7.7559Y-6.4449
X7.7559Y-6.5449
X7.7559Y-6.6449
X7.7559Y-6.7449
X7.7559Y-6.8449
X7.7898Y-7.5346
X7.7898Y-7.8346
X7.8291Y-8.3614
X7.8291Y-8.6614
X8.0315Y-5.748
X8.0559Y-5.9449
X8.0559Y-6.0449
X8.0559Y-6.1449
X8.0559Y-6.2449
X8.0559Y-6.3449
X8.0559Y-6.4449
X8.0559Y-6.5449
X8.0559Y-6.6449
X8.0559Y-6.7449
X8.0559Y-6.8449
X8.189Y-2.8346
X8.189Y-2.9346
X8.189Y-3.0346
X8.189Y-3.1346
X8.189Y-3.2346
X8.189Y-3.3346
X8.189Y-3.4346
X8.189Y-3.622
X8.4843Y-3.622
X8.489Y-2.8346
X8.489Y-2.9346
X8.489Y-3.0346
X8.489Y-3.1346
X8.489Y-3.2346
X8.489Y-3.3346
X8.489Y-3.4346
X8.7795Y-4.8819
X8.7795Y-5.0394
X8.7795Y-5.1394
X8.7795Y-5.2394
X8.7795Y-5.3394
X8.7795Y-5.4394
X8.7795Y-5.5394
X8.7795Y-5.6394
X8.7795Y-6.4567
X8.7795Y-6.6142
X8.7795Y-6.7142
X8.7795Y-6.8142
X8.7795Y-6.9142
X8.7795Y-7.0142
X8.7795Y-7.1142
X8.7795Y-7.2142
X8.7795Y-7.6378
X8.7795Y-7.7953
X8.7795Y-7.8953
X8.7795Y-7.9953
X8.7795Y-8.0953
X8.7795Y-8.1953
X8.7795Y-8.2953
X8.7795Y-8.3953
X9.0748Y-4.8819
X9.0748Y-6.4567
X9.0748Y-7.6378
X9.0795Y-5.0394
X9.0795Y-5.1394
X9.0795Y-5.2394
X9.0795Y-5.3394
X9.0795Y-5.4394
X9.0795Y-5.5394
X9.0795Y-5.6394
X9.0795Y-6.6142
X9.0795Y-6.7142
X9.0795Y-6.8142
X9.0795Y-6.9142
X9.0795Y-7.0142
X9.0795Y-7.1142
X9.0795Y-7.2142
X9.0795Y-7.7953
X9.0795Y-7.8953
X9.0795Y-7.9953
X9.0795Y-8.0953
X9.0795Y-8.1953
X9.0795Y-8.2953
X9.0795Y-8.3953
X9.1339Y-2.5591
X9.1339Y-2.6591
X9.1339Y-2.7591
X9.1339Y-2.8591
X9.1339Y-2.9591
X9.1339Y-3.0591
X9.1339Y-3.1591
X9.1339Y-3.2591
X9.1732Y-2.4016
X9.4339Y-2.5591
X9.4339Y-2.6591
X9.4339Y-2.7591
X9.4339Y-2.8591
X9.4339Y-2.9591
X9.4339Y-3.0591
X9.4339Y-3.1591
X9.4339Y-3.2591
X9.4685Y-2.4016
X9.5669Y-7.0866
X9.5669Y-7.1866
X9.5669Y-7.2866
X9.5669Y-7.3866
X9.5669Y-7.4866
X9.5669Y-7.5866
X9.5669Y-7.6866
X9.5669Y-7.7866
X9.5669Y-7.8866
X9.5669Y-7.9866
X9.5669Y-8.1496
X9.7244Y-4.1339
X9.7244Y-4.3701
X9.7244Y-4.4701
X9.7244Y-4.5701
X9.7244Y-4.6701
X9.7244Y-4.7701
X9.7244Y-4.8701
X9.7244Y-4.9701
X9.7244Y-5.0701
X9.8622Y-8.1496
X9.8669Y-7.0866
X9.8669Y-7.1866
X9.8669Y-7.2866
X9.8669Y-7.3866
X9.8669Y-7.4866
X9.8669Y-7.5866
X9.8669Y-7.6866
X9.8669Y-7.7866
X9.8669Y-7.8866
X9.8669Y-7.9866
X10.0197Y-4.1339
X10.0244Y-4.3701
X10.0244Y-4.4701
X10.0244Y-4.5701
X10.0244Y-4.6701
X10.0244Y-4.7701
X10.0244Y-4.8701
X10.0244Y-4.9701
X10.0244Y-5.0701
X10.3937Y-2.2047
X10.3937Y-2.3622
X10.3937Y-2.4622
X10.3937Y-2.5622
X10.3937Y-2.6622
X10.3937Y-2.7622
X10.3937Y-2.8622
X10.3937Y-2.9622
X10.3937Y-3.0622
X10.3937Y-3.1622
X10.3937Y-3.2622
X10.6693Y-4.1339
X10.6693Y-4.2339
X10.6693Y-4.3339
X10.6693Y-4.4339
X10.6693Y-4.5339
X10.6693Y-4.6339
X10.6693Y-4.7339
X10.6693Y-4.8339
X10.6693Y-4.9339
X10.6693Y-5.0339
X10.6693Y-5.1969
X10.689Y-2.2047
X10.6937Y-2.3622
X10.6937Y-2.4622
X10.6937Y-2.5622
X10.6937Y-2.6622
X10.6937Y-2.7622
X10.6937Y-2.8622
X10.6937Y-2.9622
X10.6937Y-3.0622
X10.6937Y-3.1622
X10.6937Y-3.2622
X10.8268Y-6.063
X10.8268Y-6.2205
X10.8268Y-6.3205
X10.8268Y-6.4205
X10.8268Y-6.5205
X10.8268Y-6.6205
X10.8268Y-6.7205
X10.8268Y-6.8205
X10.8268Y-7.2047
X10.8268Y-7.3047
X10.8268Y-7.4047
X10.8268Y-7.5047
X10.8268Y-7.6047
X10.8268Y-7.7047
X10.8268Y-7.8047
X10.8268Y-7.9921
X10.9646Y-5.1969
X10.9693Y-4.1339
X10.9693Y-4.2339
X10.9693Y-4.3339
X10.9693Y-4.4339
X10.9693Y-4.5339
X10.9693Y-4.6339
X10.9693Y-4.7339
X10.9693Y-4.8339
X10.9693Y-4.9339
X10.9693Y-5.0339
X11.122Y-6.063
X11.122Y-7.9921
X11.1268Y-6.2205
X11.1268Y-6.3205
X11.1268Y-6.4205
X11.1268Y-6.5205
X11.1268Y-6.6205
X11.1268Y-6.7205
X11.1268Y-6.8205
X11.1268Y-7.2047
X11.1268Y-7.3047
X11.1268Y-7.4047
X11.1268Y-7.5047
X11.1268Y-7.6047
X11.1268Y-7.7047
X11.1268Y-7.8047
X11.5748Y-1.9047
X11.5748Y-2.2047
X11.6142Y-2.874
X11.6291Y-3.0614
X11.6291Y-3.1614
X11.6291Y-3.2614
X11.6291Y-3.3614
X11.6291Y-3.4614
X11.6291Y-3.5614
X11.6291Y-3.6614
X11.6535Y-4.2126
X11.6535Y-4.3701
X11.6535Y-4.4701
X11.6535Y-4.5701
X11.6535Y-4.6701
X11.6535Y-4.7701
X11.6535Y-4.8701
X11.6535Y-4.9701
X11.6748Y-1.9047
X11.6748Y-2.2047
X11.7748Y-1.9047
X11.7748Y-2.2047
X11.7866Y-7.2496
X11.7866Y-7.3496
X11.7866Y-7.4496
X11.7866Y-7.5496
X11.7866Y-7.6496
X11.7866Y-7.7496
X11.7866Y-7.8496
X11.7866Y-7.9496
X11.7866Y-8.0496
X11.7866Y-8.1496
X11.7913Y-8.3071
X11.8748Y-1.9047
X11.8748Y-2.2047
X11.9094Y-2.874
X11.9291Y-3.0614
X11.9291Y-3.1614
X11.9291Y-3.2614
X11.9291Y-3.3614
X11.9291Y-3.4614
X11.9291Y-3.5614
X11.9291Y-3.6614
X11.9488Y-4.2126
X11.9535Y-4.3701
X11.9535Y-4.4701
X11.9535Y-4.5701
X11.9535Y-4.6701
X11.9535Y-4.7701
X11.9535Y-4.8701
X11.9535Y-4.9701
X11.9748Y-1.9047
X11.9748Y-2.2047
X12.0748Y-1.9047
X12.0748Y-2.2047
X12.0866Y-7.2496
X12.0866Y-7.3496
X12.0866Y-7.4496
X12.0866Y-7.5496
X12.0866Y-7.6496
X12.0866Y-7.7496
X12.0866Y-7.8496
X12.0866Y-7.9496
X12.0866Y-8.0496
X12.0866Y-8.1496
X12.0866Y-8.3071
X12.1748Y-1.9047
X12.1748Y-2.2047
X12.2748Y-1.9047
X12.2748Y-2.2047
X12.3748Y-1.9047
X12.3748Y-2.2047
X12.4748Y-1.9047
X12.4748Y-2.2047
X12.5984Y-5.0
X12.5984Y-5.1
X12.5984Y-5.2
X12.5984Y-5.3
X12.5984Y-5.4
X12.5984Y-5.5
X12.5984Y-5.6
X12.5984Y-5.7
X12.5984Y-5.8
X12.5984Y-5.9
X12.5984Y-6.1024
X12.6772Y-1.9094
X12.6772Y-2.2047
X12.8937Y-6.1024
X12.8984Y-5.0
X12.8984Y-5.1
X12.8984Y-5.2
X12.8984Y-5.3
X12.8984Y-5.4
X12.8984Y-5.5
X12.8984Y-5.6
X12.8984Y-5.7
X12.8984Y-5.8
X12.8984Y-5.9
T5
X3.7402Y-6.1811
X3.7402Y-6.2811
X3.7402Y-6.3811
X3.7795Y-8.0512
X3.7795Y-8.1496
X3.8402Y-6.1811
X3.8402Y-6.2811
X3.8402Y-6.3811
X13.0315Y-3.4252
X13.0315Y-3.5252
X13.0315Y-3.6252
X13.1315Y-3.4252
X13.1315Y-3.5252
X13.1315Y-3.6252
T6
X5.6693Y-1.4748
X5.6693Y-1.5748
X5.7693Y-1.4748
X5.7693Y-1.5748
X5.8693Y-1.4748
X5.8693Y-1.5748
X5.9693Y-1.4748
X5.9693Y-1.5748
X6.0693Y-1.4748
X6.0693Y-1.5748
X6.1693Y-1.4748
X6.1693Y-1.5748
X6.2693Y-1.4748
X6.2693Y-1.5748
X6.3693Y-1.4748
X6.3693Y-1.5748
X7.9528Y-1.4748
X7.9528Y-1.5748
X8.0528Y-1.4748
X8.0528Y-1.5748
X8.1528Y-1.4748
X8.1528Y-1.5748
X8.2528Y-1.4748
X8.2528Y-1.5748
X8.3528Y-1.4748
X8.3528Y-1.5748
X8.4528Y-1.4748
X8.4528Y-1.5748
X8.5528Y-1.4748
X8.5528Y-1.5748
X8.6528Y-1.4748
X8.6528Y-1.5748
X13.0315Y-7.3228
X13.0315Y-7.4228
X13.0315Y-7.5228
X13.0315Y-7.6228
X13.0315Y-7.7228
X13.0315Y-7.8228
X13.0315Y-7.9228
X13.0315Y-8.0228
X13.1315Y-7.3228
X13.1315Y-7.4228
X13.1315Y-7.5228
X13.1315Y-7.6228
X13.1315Y-7.7228
X13.1315Y-7.8228
X13.1315Y-7.9228
X13.1315Y-8.0228
T7
X3.3465Y-1.378
X3.3465Y-8.8583
X3.7402Y-1.378
X3.7402Y-8.8583
X12.7953Y-1.378
X12.7953Y-8.8583
X13.189Y-1.378
X13.189Y-8.8583
T0
M30
