%TF.GenerationSoftware,KiCad,Pcbnew,(5.1.10)-1*%
%TF.CreationDate,2021-10-27T21:30:29+02:00*%
%TF.ProjectId,ALU,414c552e-6b69-4636-9164-5f7063625858,rev1.0*%
%TF.SameCoordinates,Original*%
%TF.FileFunction,Copper,L2,Bot*%
%TF.FilePolarity,Positive*%
%FSLAX46Y46*%
G04 Gerber Fmt 4.6, Leading zero omitted, Abs format (unit mm)*
G04 Created by KiCad (PCBNEW (5.1.10)-1) date 2021-10-27 21:30:29*
%MOMM*%
%LPD*%
G01*
G04 APERTURE LIST*
%TA.AperFunction,ComponentPad*%
%ADD10O,2.000000X1.700000*%
%TD*%
%TA.AperFunction,ComponentPad*%
%ADD11R,1.600000X1.600000*%
%TD*%
%TA.AperFunction,ComponentPad*%
%ADD12O,1.600000X1.600000*%
%TD*%
%TA.AperFunction,ComponentPad*%
%ADD13R,1.500000X1.500000*%
%TD*%
%TA.AperFunction,ComponentPad*%
%ADD14C,1.500000*%
%TD*%
%TA.AperFunction,ComponentPad*%
%ADD15R,1.650000X1.650000*%
%TD*%
%TA.AperFunction,ComponentPad*%
%ADD16C,1.650000*%
%TD*%
%TA.AperFunction,ComponentPad*%
%ADD17C,1.600000*%
%TD*%
%TA.AperFunction,ComponentPad*%
%ADD18C,7.000000*%
%TD*%
%TA.AperFunction,ComponentPad*%
%ADD19C,0.800000*%
%TD*%
%TA.AperFunction,ComponentPad*%
%ADD20O,1.400000X1.400000*%
%TD*%
%TA.AperFunction,ComponentPad*%
%ADD21C,1.400000*%
%TD*%
%TA.AperFunction,ViaPad*%
%ADD22C,0.800000*%
%TD*%
%TA.AperFunction,Conductor*%
%ADD23C,0.400000*%
%TD*%
%TA.AperFunction,Conductor*%
%ADD24C,0.250000*%
%TD*%
G04 APERTURE END LIST*
%TO.P,5V/GND1,1*%
%TO.N,+5V*%
%TA.AperFunction,ComponentPad*%
G36*
G01*
X96750000Y-207850000D02*
X95250000Y-207850000D01*
G75*
G02*
X95000000Y-207600000I0J250000D01*
G01*
X95000000Y-206400000D01*
G75*
G02*
X95250000Y-206150000I250000J0D01*
G01*
X96750000Y-206150000D01*
G75*
G02*
X97000000Y-206400000I0J-250000D01*
G01*
X97000000Y-207600000D01*
G75*
G02*
X96750000Y-207850000I-250000J0D01*
G01*
G37*
%TD.AperFunction*%
D10*
%TO.P,5V/GND1,2*%
%TO.N,GNDREF*%
X96000000Y-204500000D03*
%TD*%
D11*
%TO.P,ADD4.3,1*%
%TO.N,/S13*%
X247000000Y-111000000D03*
D12*
%TO.P,ADD4.3,9*%
%TO.N,Net-(ADD4.3-Pad9)*%
X254620000Y-128780000D03*
%TO.P,ADD4.3,2*%
%TO.N,Net-(ADD4.3-Pad2)*%
X247000000Y-113540000D03*
%TO.P,ADD4.3,10*%
%TO.N,/S15*%
X254620000Y-126240000D03*
%TO.P,ADD4.3,3*%
%TO.N,/A13*%
X247000000Y-116080000D03*
%TO.P,ADD4.3,11*%
%TO.N,Net-(ADD4.3-Pad11)*%
X254620000Y-123700000D03*
%TO.P,ADD4.3,4*%
%TO.N,/S12*%
X247000000Y-118620000D03*
%TO.P,ADD4.3,12*%
%TO.N,/A15*%
X254620000Y-121160000D03*
%TO.P,ADD4.3,5*%
%TO.N,/A12*%
X247000000Y-121160000D03*
%TO.P,ADD4.3,13*%
%TO.N,/S14*%
X254620000Y-118620000D03*
%TO.P,ADD4.3,6*%
%TO.N,Net-(ADD4.3-Pad6)*%
X247000000Y-123700000D03*
%TO.P,ADD4.3,14*%
%TO.N,/A14*%
X254620000Y-116080000D03*
%TO.P,ADD4.3,7*%
%TO.N,Net-(ADD4.2-Pad9)*%
X247000000Y-126240000D03*
%TO.P,ADD4.3,15*%
%TO.N,Net-(ADD4.3-Pad15)*%
X254620000Y-113540000D03*
%TO.P,ADD4.3,8*%
%TO.N,GNDREF*%
X247000000Y-128780000D03*
%TO.P,ADD4.3,16*%
%TO.N,+5V*%
X254620000Y-111000000D03*
%TD*%
%TO.P,ADD4.2,16*%
%TO.N,+5V*%
X174620000Y-112000000D03*
%TO.P,ADD4.2,8*%
%TO.N,GNDREF*%
X167000000Y-129780000D03*
%TO.P,ADD4.2,15*%
%TO.N,Net-(ADD4.2-Pad15)*%
X174620000Y-114540000D03*
%TO.P,ADD4.2,7*%
%TO.N,ADD_COUT*%
X167000000Y-127240000D03*
%TO.P,ADD4.2,14*%
%TO.N,/A10*%
X174620000Y-117080000D03*
%TO.P,ADD4.2,6*%
%TO.N,Net-(ADD4.2-Pad6)*%
X167000000Y-124700000D03*
%TO.P,ADD4.2,13*%
%TO.N,/S10*%
X174620000Y-119620000D03*
%TO.P,ADD4.2,5*%
%TO.N,/A8*%
X167000000Y-122160000D03*
%TO.P,ADD4.2,12*%
%TO.N,/A11*%
X174620000Y-122160000D03*
%TO.P,ADD4.2,4*%
%TO.N,/S8*%
X167000000Y-119620000D03*
%TO.P,ADD4.2,11*%
%TO.N,Net-(ADD4.2-Pad11)*%
X174620000Y-124700000D03*
%TO.P,ADD4.2,3*%
%TO.N,/A9*%
X167000000Y-117080000D03*
%TO.P,ADD4.2,10*%
%TO.N,ADD_CX*%
X174620000Y-127240000D03*
%TO.P,ADD4.2,2*%
%TO.N,Net-(ADD4.2-Pad2)*%
X167000000Y-114540000D03*
%TO.P,ADD4.2,9*%
%TO.N,Net-(ADD4.2-Pad9)*%
X174620000Y-129780000D03*
D11*
%TO.P,ADD4.2,1*%
%TO.N,/S9*%
X167000000Y-112000000D03*
%TD*%
%TO.P,ADD4.1,1*%
%TO.N,/S5*%
X232000000Y-65000000D03*
D12*
%TO.P,ADD4.1,9*%
%TO.N,ADD_COUT*%
X239620000Y-82780000D03*
%TO.P,ADD4.1,2*%
%TO.N,Net-(ADD4.1-Pad2)*%
X232000000Y-67540000D03*
%TO.P,ADD4.1,10*%
%TO.N,ADD_N*%
X239620000Y-80240000D03*
%TO.P,ADD4.1,3*%
%TO.N,/A5*%
X232000000Y-70080000D03*
%TO.P,ADD4.1,11*%
%TO.N,Net-(ADD4.1-Pad11)*%
X239620000Y-77700000D03*
%TO.P,ADD4.1,4*%
%TO.N,/S4*%
X232000000Y-72620000D03*
%TO.P,ADD4.1,12*%
%TO.N,SL_COUT*%
X239620000Y-75160000D03*
%TO.P,ADD4.1,5*%
%TO.N,/A4*%
X232000000Y-75160000D03*
%TO.P,ADD4.1,13*%
%TO.N,/S6*%
X239620000Y-72620000D03*
%TO.P,ADD4.1,6*%
%TO.N,Net-(ADD4.1-Pad6)*%
X232000000Y-77700000D03*
%TO.P,ADD4.1,14*%
%TO.N,SL_N*%
X239620000Y-70080000D03*
%TO.P,ADD4.1,7*%
%TO.N,Net-(ADD4.0-Pad9)*%
X232000000Y-80240000D03*
%TO.P,ADD4.1,15*%
%TO.N,Net-(ADD4.1-Pad15)*%
X239620000Y-67540000D03*
%TO.P,ADD4.1,8*%
%TO.N,GNDREF*%
X232000000Y-82780000D03*
%TO.P,ADD4.1,16*%
%TO.N,+5V*%
X239620000Y-65000000D03*
%TD*%
%TO.P,ADD4.0,16*%
%TO.N,+5V*%
X186620000Y-65000000D03*
%TO.P,ADD4.0,8*%
%TO.N,GNDREF*%
X179000000Y-82780000D03*
%TO.P,ADD4.0,15*%
%TO.N,Net-(ADD4.0-Pad15)*%
X186620000Y-67540000D03*
%TO.P,ADD4.0,7*%
%TO.N,CarryIn*%
X179000000Y-80240000D03*
%TO.P,ADD4.0,14*%
%TO.N,/A2*%
X186620000Y-70080000D03*
%TO.P,ADD4.0,6*%
%TO.N,Net-(ADD4.0-Pad6)*%
X179000000Y-77700000D03*
%TO.P,ADD4.0,13*%
%TO.N,/S2*%
X186620000Y-72620000D03*
%TO.P,ADD4.0,5*%
%TO.N,SR_COUT*%
X179000000Y-75160000D03*
%TO.P,ADD4.0,12*%
%TO.N,/A3*%
X186620000Y-75160000D03*
%TO.P,ADD4.0,4*%
%TO.N,/S0*%
X179000000Y-72620000D03*
%TO.P,ADD4.0,11*%
%TO.N,Net-(ADD4.0-Pad11)*%
X186620000Y-77700000D03*
%TO.P,ADD4.0,3*%
%TO.N,/A1*%
X179000000Y-70080000D03*
%TO.P,ADD4.0,10*%
%TO.N,/S3*%
X186620000Y-80240000D03*
%TO.P,ADD4.0,2*%
%TO.N,Net-(ADD4.0-Pad2)*%
X179000000Y-67540000D03*
%TO.P,ADD4.0,9*%
%TO.N,Net-(ADD4.0-Pad9)*%
X186620000Y-82780000D03*
D11*
%TO.P,ADD4.0,1*%
%TO.N,/S1*%
X179000000Y-65000000D03*
%TD*%
D12*
%TO.P,ADD_GATE0,20*%
%TO.N,+5V*%
X271620000Y-60000000D03*
%TO.P,ADD_GATE0,10*%
%TO.N,GNDREF*%
X264000000Y-82860000D03*
%TO.P,ADD_GATE0,19*%
%TO.N,~ADDER_EN*%
X271620000Y-62540000D03*
%TO.P,ADD_GATE0,9*%
%TO.N,ADD_N*%
X264000000Y-80320000D03*
%TO.P,ADD_GATE0,18*%
%TO.N,/O0*%
X271620000Y-65080000D03*
%TO.P,ADD_GATE0,8*%
%TO.N,/S6*%
X264000000Y-77780000D03*
%TO.P,ADD_GATE0,17*%
%TO.N,/O1*%
X271620000Y-67620000D03*
%TO.P,ADD_GATE0,7*%
%TO.N,/S5*%
X264000000Y-75240000D03*
%TO.P,ADD_GATE0,16*%
%TO.N,/O2*%
X271620000Y-70160000D03*
%TO.P,ADD_GATE0,6*%
%TO.N,/S4*%
X264000000Y-72700000D03*
%TO.P,ADD_GATE0,15*%
%TO.N,/O3*%
X271620000Y-72700000D03*
%TO.P,ADD_GATE0,5*%
%TO.N,/S3*%
X264000000Y-70160000D03*
%TO.P,ADD_GATE0,14*%
%TO.N,/O4*%
X271620000Y-75240000D03*
%TO.P,ADD_GATE0,4*%
%TO.N,/S2*%
X264000000Y-67620000D03*
%TO.P,ADD_GATE0,13*%
%TO.N,/O5*%
X271620000Y-77780000D03*
%TO.P,ADD_GATE0,3*%
%TO.N,/S1*%
X264000000Y-65080000D03*
%TO.P,ADD_GATE0,12*%
%TO.N,/O6*%
X271620000Y-80320000D03*
%TO.P,ADD_GATE0,2*%
%TO.N,/S0*%
X264000000Y-62540000D03*
%TO.P,ADD_GATE0,11*%
%TO.N,Logical_N*%
X271620000Y-82860000D03*
D11*
%TO.P,ADD_GATE0,1*%
%TO.N,+5V*%
X264000000Y-60000000D03*
%TD*%
%TO.P,ADD_GATE1,1*%
%TO.N,+5V*%
X271000000Y-105000000D03*
D12*
%TO.P,ADD_GATE1,11*%
%TO.N,/O15*%
X278620000Y-127860000D03*
%TO.P,ADD_GATE1,2*%
%TO.N,/S8*%
X271000000Y-107540000D03*
%TO.P,ADD_GATE1,12*%
%TO.N,/O14*%
X278620000Y-125320000D03*
%TO.P,ADD_GATE1,3*%
%TO.N,/S9*%
X271000000Y-110080000D03*
%TO.P,ADD_GATE1,13*%
%TO.N,/O13*%
X278620000Y-122780000D03*
%TO.P,ADD_GATE1,4*%
%TO.N,/S10*%
X271000000Y-112620000D03*
%TO.P,ADD_GATE1,14*%
%TO.N,/O12*%
X278620000Y-120240000D03*
%TO.P,ADD_GATE1,5*%
%TO.N,ADD_CX*%
X271000000Y-115160000D03*
%TO.P,ADD_GATE1,15*%
%TO.N,/O11*%
X278620000Y-117700000D03*
%TO.P,ADD_GATE1,6*%
%TO.N,/S12*%
X271000000Y-117700000D03*
%TO.P,ADD_GATE1,16*%
%TO.N,/O10*%
X278620000Y-115160000D03*
%TO.P,ADD_GATE1,7*%
%TO.N,/S13*%
X271000000Y-120240000D03*
%TO.P,ADD_GATE1,17*%
%TO.N,/O9*%
X278620000Y-112620000D03*
%TO.P,ADD_GATE1,8*%
%TO.N,/S14*%
X271000000Y-122780000D03*
%TO.P,ADD_GATE1,18*%
%TO.N,/O8*%
X278620000Y-110080000D03*
%TO.P,ADD_GATE1,9*%
%TO.N,/S15*%
X271000000Y-125320000D03*
%TO.P,ADD_GATE1,19*%
%TO.N,~ADDER_EN*%
X278620000Y-107540000D03*
%TO.P,ADD_GATE1,10*%
%TO.N,GNDREF*%
X271000000Y-127860000D03*
%TO.P,ADD_GATE1,20*%
%TO.N,+5V*%
X278620000Y-105000000D03*
%TD*%
D13*
%TO.P,ALU_COMM1,1*%
%TO.N,D*%
X95000000Y-157000000D03*
D14*
%TO.P,ALU_COMM1,2*%
%TO.N,/C*%
X95000000Y-159540000D03*
%TO.P,ALU_COMM1,3*%
%TO.N,B*%
X95000000Y-162080000D03*
%TO.P,ALU_COMM1,4*%
%TO.N,A*%
X97540000Y-157000000D03*
%TO.P,ALU_COMM1,5*%
%TO.N,nBit*%
X97540000Y-159540000D03*
%TO.P,ALU_COMM1,6*%
%TO.N,CarryIn*%
X97540000Y-162080000D03*
%TD*%
D15*
%TO.P,ALU_OUT1,1*%
%TO.N,/O0*%
X331000000Y-186000000D03*
D16*
%TO.P,ALU_OUT1,2*%
%TO.N,/O1*%
X333540000Y-186000000D03*
%TO.P,ALU_OUT1,3*%
%TO.N,/O2*%
X331000000Y-188540000D03*
%TO.P,ALU_OUT1,4*%
%TO.N,/O3*%
X333540000Y-188540000D03*
%TO.P,ALU_OUT1,5*%
%TO.N,/O4*%
X331000000Y-191080000D03*
%TO.P,ALU_OUT1,6*%
%TO.N,/O5*%
X333540000Y-191080000D03*
%TO.P,ALU_OUT1,7*%
%TO.N,/O6*%
X331000000Y-193620000D03*
%TO.P,ALU_OUT1,8*%
%TO.N,Logical_N*%
X333540000Y-193620000D03*
%TO.P,ALU_OUT1,9*%
%TO.N,/O8*%
X331000000Y-196160000D03*
%TO.P,ALU_OUT1,10*%
%TO.N,/O9*%
X333540000Y-196160000D03*
%TO.P,ALU_OUT1,11*%
%TO.N,/O10*%
X331000000Y-198700000D03*
%TO.P,ALU_OUT1,12*%
%TO.N,/O11*%
X333540000Y-198700000D03*
%TO.P,ALU_OUT1,13*%
%TO.N,/O12*%
X331000000Y-201240000D03*
%TO.P,ALU_OUT1,14*%
%TO.N,/O13*%
X333540000Y-201240000D03*
%TO.P,ALU_OUT1,15*%
%TO.N,/O14*%
X331000000Y-203780000D03*
%TO.P,ALU_OUT1,16*%
%TO.N,/O15*%
X333540000Y-203780000D03*
%TD*%
D11*
%TO.P,AND0,1*%
%TO.N,SR_COUT*%
X223000000Y-168000000D03*
D12*
%TO.P,AND0,8*%
%TO.N,Net-(AND0-Pad8)*%
X230620000Y-183240000D03*
%TO.P,AND0,2*%
%TO.N,/B0*%
X223000000Y-170540000D03*
%TO.P,AND0,9*%
%TO.N,/A2*%
X230620000Y-180700000D03*
%TO.P,AND0,3*%
%TO.N,Net-(AND0-Pad3)*%
X223000000Y-173080000D03*
%TO.P,AND0,10*%
%TO.N,/B2*%
X230620000Y-178160000D03*
%TO.P,AND0,4*%
%TO.N,/A1*%
X223000000Y-175620000D03*
%TO.P,AND0,11*%
%TO.N,Net-(AND0-Pad11)*%
X230620000Y-175620000D03*
%TO.P,AND0,5*%
%TO.N,/B1*%
X223000000Y-178160000D03*
%TO.P,AND0,12*%
%TO.N,/A3*%
X230620000Y-173080000D03*
%TO.P,AND0,6*%
%TO.N,Net-(AND0-Pad6)*%
X223000000Y-180700000D03*
%TO.P,AND0,13*%
%TO.N,/B3*%
X230620000Y-170540000D03*
%TO.P,AND0,7*%
%TO.N,GNDREF*%
X223000000Y-183240000D03*
%TO.P,AND0,14*%
%TO.N,+5V*%
X230620000Y-168000000D03*
%TD*%
%TO.P,AND1,14*%
%TO.N,+5V*%
X230620000Y-198000000D03*
%TO.P,AND1,7*%
%TO.N,GNDREF*%
X223000000Y-213240000D03*
%TO.P,AND1,13*%
%TO.N,/B7*%
X230620000Y-200540000D03*
%TO.P,AND1,6*%
%TO.N,Net-(AND1-Pad6)*%
X223000000Y-210700000D03*
%TO.P,AND1,12*%
%TO.N,SL_COUT*%
X230620000Y-203080000D03*
%TO.P,AND1,5*%
%TO.N,/B5*%
X223000000Y-208160000D03*
%TO.P,AND1,11*%
%TO.N,Net-(AND1-Pad11)*%
X230620000Y-205620000D03*
%TO.P,AND1,4*%
%TO.N,/A5*%
X223000000Y-205620000D03*
%TO.P,AND1,10*%
%TO.N,/B6*%
X230620000Y-208160000D03*
%TO.P,AND1,3*%
%TO.N,Net-(AND1-Pad3)*%
X223000000Y-203080000D03*
%TO.P,AND1,9*%
%TO.N,SL_N*%
X230620000Y-210700000D03*
%TO.P,AND1,2*%
%TO.N,/B4*%
X223000000Y-200540000D03*
%TO.P,AND1,8*%
%TO.N,Net-(AND1-Pad8)*%
X230620000Y-213240000D03*
D11*
%TO.P,AND1,1*%
%TO.N,/A4*%
X223000000Y-198000000D03*
%TD*%
D12*
%TO.P,AND_GATE1,20*%
%TO.N,+5V*%
X250620000Y-180000000D03*
%TO.P,AND_GATE1,10*%
%TO.N,GNDREF*%
X243000000Y-202860000D03*
%TO.P,AND_GATE1,19*%
%TO.N,~AND_EN*%
X250620000Y-182540000D03*
%TO.P,AND_GATE1,9*%
%TO.N,Net-(AND1-Pad11)*%
X243000000Y-200320000D03*
%TO.P,AND_GATE1,18*%
%TO.N,/O0*%
X250620000Y-185080000D03*
%TO.P,AND_GATE1,8*%
%TO.N,Net-(AND1-Pad8)*%
X243000000Y-197780000D03*
%TO.P,AND_GATE1,17*%
%TO.N,/O1*%
X250620000Y-187620000D03*
%TO.P,AND_GATE1,7*%
%TO.N,Net-(AND1-Pad6)*%
X243000000Y-195240000D03*
%TO.P,AND_GATE1,16*%
%TO.N,/O2*%
X250620000Y-190160000D03*
%TO.P,AND_GATE1,6*%
%TO.N,Net-(AND1-Pad3)*%
X243000000Y-192700000D03*
%TO.P,AND_GATE1,15*%
%TO.N,/O3*%
X250620000Y-192700000D03*
%TO.P,AND_GATE1,5*%
%TO.N,Net-(AND0-Pad11)*%
X243000000Y-190160000D03*
%TO.P,AND_GATE1,14*%
%TO.N,/O4*%
X250620000Y-195240000D03*
%TO.P,AND_GATE1,4*%
%TO.N,Net-(AND0-Pad8)*%
X243000000Y-187620000D03*
%TO.P,AND_GATE1,13*%
%TO.N,/O5*%
X250620000Y-197780000D03*
%TO.P,AND_GATE1,3*%
%TO.N,Net-(AND0-Pad6)*%
X243000000Y-185080000D03*
%TO.P,AND_GATE1,12*%
%TO.N,/O6*%
X250620000Y-200320000D03*
%TO.P,AND_GATE1,2*%
%TO.N,Net-(AND0-Pad3)*%
X243000000Y-182540000D03*
%TO.P,AND_GATE1,11*%
%TO.N,Logical_N*%
X250620000Y-202860000D03*
D11*
%TO.P,AND_GATE1,1*%
%TO.N,+5V*%
X243000000Y-180000000D03*
%TD*%
D17*
%TO.P,C1,1*%
%TO.N,+5V*%
X115000000Y-201000000D03*
D12*
%TO.P,C1,2*%
%TO.N,GNDREF*%
X122500000Y-201000000D03*
%TD*%
%TO.P,C2,2*%
%TO.N,GNDREF*%
X123500000Y-186000000D03*
D17*
%TO.P,C2,1*%
%TO.N,+5V*%
X116000000Y-186000000D03*
%TD*%
%TO.P,C6,1*%
%TO.N,+5V*%
X208000000Y-92000000D03*
D12*
%TO.P,C6,2*%
%TO.N,GNDREF*%
X215500000Y-92000000D03*
%TD*%
%TO.P,C7,2*%
%TO.N,GNDREF*%
X146500000Y-197000000D03*
D17*
%TO.P,C7,1*%
%TO.N,+5V*%
X139000000Y-197000000D03*
%TD*%
%TO.P,C8,1*%
%TO.N,+5V*%
X295000000Y-73000000D03*
D12*
%TO.P,C8,2*%
%TO.N,GNDREF*%
X302500000Y-73000000D03*
%TD*%
D17*
%TO.P,C9,1*%
%TO.N,+5V*%
X88000000Y-106000000D03*
D12*
%TO.P,C9,2*%
%TO.N,GNDREF*%
X95500000Y-106000000D03*
%TD*%
%TO.P,C10,2*%
%TO.N,GNDREF*%
X303500000Y-107000000D03*
D17*
%TO.P,C10,1*%
%TO.N,+5V*%
X296000000Y-107000000D03*
%TD*%
D12*
%TO.P,C11,2*%
%TO.N,GNDREF*%
X95500000Y-78000000D03*
D17*
%TO.P,C11,1*%
%TO.N,+5V*%
X88000000Y-78000000D03*
%TD*%
%TO.P,C12,1*%
%TO.N,+5V*%
X148000000Y-67000000D03*
D12*
%TO.P,C12,2*%
%TO.N,GNDREF*%
X155500000Y-67000000D03*
%TD*%
D17*
%TO.P,C13,1*%
%TO.N,+5V*%
X179000000Y-61000000D03*
D12*
%TO.P,C13,2*%
%TO.N,GNDREF*%
X186500000Y-61000000D03*
%TD*%
D17*
%TO.P,C14,1*%
%TO.N,+5V*%
X110000000Y-95000000D03*
D12*
%TO.P,C14,2*%
%TO.N,GNDREF*%
X117500000Y-95000000D03*
%TD*%
%TO.P,C15,2*%
%TO.N,GNDREF*%
X322000000Y-48500000D03*
D17*
%TO.P,C15,1*%
%TO.N,+5V*%
X322000000Y-56000000D03*
%TD*%
D12*
%TO.P,C16,2*%
%TO.N,GNDREF*%
X240500000Y-61000000D03*
D17*
%TO.P,C16,1*%
%TO.N,+5V*%
X233000000Y-61000000D03*
%TD*%
%TO.P,C17,1*%
%TO.N,+5V*%
X170000000Y-199000000D03*
D12*
%TO.P,C17,2*%
%TO.N,GNDREF*%
X170000000Y-191500000D03*
%TD*%
%TO.P,C18,2*%
%TO.N,GNDREF*%
X230500000Y-124000000D03*
D17*
%TO.P,C18,1*%
%TO.N,+5V*%
X223000000Y-124000000D03*
%TD*%
%TO.P,C19,1*%
%TO.N,+5V*%
X171000000Y-220000000D03*
D12*
%TO.P,C19,2*%
%TO.N,GNDREF*%
X171000000Y-212500000D03*
%TD*%
%TO.P,C20,2*%
%TO.N,GNDREF*%
X145500000Y-114000000D03*
D17*
%TO.P,C20,1*%
%TO.N,+5V*%
X138000000Y-114000000D03*
%TD*%
%TO.P,C21,1*%
%TO.N,+5V*%
X247000000Y-105000000D03*
D12*
%TO.P,C21,2*%
%TO.N,GNDREF*%
X254500000Y-105000000D03*
%TD*%
%TO.P,C22,2*%
%TO.N,GNDREF*%
X175500000Y-107000000D03*
D17*
%TO.P,C22,1*%
%TO.N,+5V*%
X168000000Y-107000000D03*
%TD*%
D12*
%TO.P,C23,2*%
%TO.N,GNDREF*%
X271500000Y-56000000D03*
D17*
%TO.P,C23,1*%
%TO.N,+5V*%
X264000000Y-56000000D03*
%TD*%
%TO.P,C24,1*%
%TO.N,+5V*%
X223000000Y-164000000D03*
D12*
%TO.P,C24,2*%
%TO.N,GNDREF*%
X230500000Y-164000000D03*
%TD*%
%TO.P,C25,2*%
%TO.N,GNDREF*%
X230500000Y-194000000D03*
D17*
%TO.P,C25,1*%
%TO.N,+5V*%
X223000000Y-194000000D03*
%TD*%
D12*
%TO.P,C26,2*%
%TO.N,GNDREF*%
X282500000Y-154000000D03*
D17*
%TO.P,C26,1*%
%TO.N,+5V*%
X275000000Y-154000000D03*
%TD*%
D12*
%TO.P,C27,2*%
%TO.N,GNDREF*%
X282500000Y-203000000D03*
D17*
%TO.P,C27,1*%
%TO.N,+5V*%
X275000000Y-203000000D03*
%TD*%
%TO.P,C28,1*%
%TO.N,+5V*%
X271000000Y-132000000D03*
D12*
%TO.P,C28,2*%
%TO.N,GNDREF*%
X278500000Y-132000000D03*
%TD*%
D17*
%TO.P,C29,1*%
%TO.N,+5V*%
X307000000Y-211000000D03*
D12*
%TO.P,C29,2*%
%TO.N,GNDREF*%
X299500000Y-211000000D03*
%TD*%
D17*
%TO.P,C30,1*%
%TO.N,+5V*%
X320000000Y-155000000D03*
D12*
%TO.P,C30,2*%
%TO.N,GNDREF*%
X327500000Y-155000000D03*
%TD*%
D17*
%TO.P,C31,1*%
%TO.N,+5V*%
X118000000Y-142000000D03*
D12*
%TO.P,C31,2*%
%TO.N,GNDREF*%
X110500000Y-142000000D03*
%TD*%
%TO.P,C32,2*%
%TO.N,GNDREF*%
X204000000Y-146000000D03*
D17*
%TO.P,C32,1*%
%TO.N,+5V*%
X196500000Y-146000000D03*
%TD*%
%TO.P,C33,1*%
%TO.N,+5V*%
X137000000Y-176000000D03*
D12*
%TO.P,C33,2*%
%TO.N,GNDREF*%
X144500000Y-176000000D03*
%TD*%
D17*
%TO.P,C34,1*%
%TO.N,+5V*%
X178000000Y-145000000D03*
D12*
%TO.P,C34,2*%
%TO.N,GNDREF*%
X185500000Y-145000000D03*
%TD*%
%TO.P,C35,2*%
%TO.N,GNDREF*%
X167500000Y-145000000D03*
D17*
%TO.P,C35,1*%
%TO.N,+5V*%
X160000000Y-145000000D03*
%TD*%
D12*
%TO.P,C36,2*%
%TO.N,GNDREF*%
X250500000Y-207000000D03*
D17*
%TO.P,C36,1*%
%TO.N,+5V*%
X243000000Y-207000000D03*
%TD*%
D11*
%TO.P,COMP1,1*%
%TO.N,GNDREF*%
X320000000Y-127000000D03*
D12*
%TO.P,COMP1,11*%
%TO.N,/O4*%
X327620000Y-149860000D03*
%TO.P,COMP1,2*%
%TO.N,/O0*%
X320000000Y-129540000D03*
%TO.P,COMP1,12*%
%TO.N,GNDREF*%
X327620000Y-147320000D03*
%TO.P,COMP1,3*%
X320000000Y-132080000D03*
%TO.P,COMP1,13*%
%TO.N,/O5*%
X327620000Y-144780000D03*
%TO.P,COMP1,4*%
%TO.N,/O1*%
X320000000Y-134620000D03*
%TO.P,COMP1,14*%
%TO.N,GNDREF*%
X327620000Y-142240000D03*
%TO.P,COMP1,5*%
X320000000Y-137160000D03*
%TO.P,COMP1,15*%
%TO.N,/O6*%
X327620000Y-139700000D03*
%TO.P,COMP1,6*%
%TO.N,/O2*%
X320000000Y-139700000D03*
%TO.P,COMP1,16*%
%TO.N,GNDREF*%
X327620000Y-137160000D03*
%TO.P,COMP1,7*%
X320000000Y-142240000D03*
%TO.P,COMP1,17*%
%TO.N,Logical_N*%
X327620000Y-134620000D03*
%TO.P,COMP1,8*%
%TO.N,/O3*%
X320000000Y-144780000D03*
%TO.P,COMP1,18*%
%TO.N,GNDREF*%
X327620000Y-132080000D03*
%TO.P,COMP1,9*%
X320000000Y-147320000D03*
%TO.P,COMP1,19*%
%TO.N,~Z*%
X327620000Y-129540000D03*
%TO.P,COMP1,10*%
%TO.N,GNDREF*%
X320000000Y-149860000D03*
%TO.P,COMP1,20*%
%TO.N,+5V*%
X327620000Y-127000000D03*
%TD*%
D11*
%TO.P,CPOWER1,1*%
%TO.N,+5V*%
X95000000Y-188000000D03*
D17*
%TO.P,CPOWER1,2*%
%TO.N,GNDREF*%
X97500000Y-188000000D03*
%TD*%
D11*
%TO.P,DEC1,1*%
%TO.N,A*%
X116000000Y-163000000D03*
D12*
%TO.P,DEC1,9*%
%TO.N,~NAND_EN*%
X123620000Y-180780000D03*
%TO.P,DEC1,2*%
%TO.N,B*%
X116000000Y-165540000D03*
%TO.P,DEC1,10*%
%TO.N,~XOR_EN*%
X123620000Y-178240000D03*
%TO.P,DEC1,3*%
%TO.N,/C*%
X116000000Y-168080000D03*
%TO.P,DEC1,11*%
%TO.N,~RIGHT_EN*%
X123620000Y-175700000D03*
%TO.P,DEC1,4*%
%TO.N,GNDREF*%
X116000000Y-170620000D03*
%TO.P,DEC1,12*%
%TO.N,~ADDER_EN*%
X123620000Y-173160000D03*
%TO.P,DEC1,5*%
%TO.N,GNDREF*%
X116000000Y-173160000D03*
%TO.P,DEC1,13*%
%TO.N,~OR_EN*%
X123620000Y-170620000D03*
%TO.P,DEC1,6*%
%TO.N,+5V*%
X116000000Y-175700000D03*
%TO.P,DEC1,14*%
%TO.N,~AND_EN*%
X123620000Y-168080000D03*
%TO.P,DEC1,7*%
%TO.N,Net-(DEC1-Pad7)*%
X116000000Y-178240000D03*
%TO.P,DEC1,15*%
%TO.N,~LEFT_EN*%
X123620000Y-165540000D03*
%TO.P,DEC1,8*%
%TO.N,GNDREF*%
X116000000Y-180780000D03*
%TO.P,DEC1,16*%
%TO.N,+5V*%
X123620000Y-163000000D03*
%TD*%
D14*
%TO.P,FLAGS_OUT1,6*%
%TO.N,GNDREF*%
X333540000Y-92080000D03*
%TO.P,FLAGS_OUT1,5*%
%TO.N,+5V*%
X333540000Y-89540000D03*
%TO.P,FLAGS_OUT1,4*%
%TO.N,Z*%
X333540000Y-87000000D03*
%TO.P,FLAGS_OUT1,3*%
%TO.N,/Ov*%
X331000000Y-92080000D03*
%TO.P,FLAGS_OUT1,2*%
%TO.N,/N*%
X331000000Y-89540000D03*
D13*
%TO.P,FLAGS_OUT1,1*%
%TO.N,/Carry*%
X331000000Y-87000000D03*
%TD*%
D12*
%TO.P,FlagsAdd0,20*%
%TO.N,+5V*%
X204620000Y-151000000D03*
%TO.P,FlagsAdd0,10*%
%TO.N,GNDREF*%
X197000000Y-173860000D03*
%TO.P,FlagsAdd0,19*%
%TO.N,~ADDER_EN*%
X204620000Y-153540000D03*
%TO.P,FlagsAdd0,9*%
%TO.N,GNDREF*%
X197000000Y-171320000D03*
%TO.P,FlagsAdd0,18*%
%TO.N,/Carry*%
X204620000Y-156080000D03*
%TO.P,FlagsAdd0,8*%
%TO.N,GNDREF*%
X197000000Y-168780000D03*
%TO.P,FlagsAdd0,17*%
%TO.N,/N*%
X204620000Y-158620000D03*
%TO.P,FlagsAdd0,7*%
%TO.N,GNDREF*%
X197000000Y-166240000D03*
%TO.P,FlagsAdd0,16*%
%TO.N,/Ov*%
X204620000Y-161160000D03*
%TO.P,FlagsAdd0,6*%
%TO.N,GNDREF*%
X197000000Y-163700000D03*
%TO.P,FlagsAdd0,15*%
%TO.N,Z*%
X204620000Y-163700000D03*
%TO.P,FlagsAdd0,5*%
X197000000Y-161160000D03*
%TO.P,FlagsAdd0,14*%
%TO.N,Net-(FlagsAdd0-Pad14)*%
X204620000Y-166240000D03*
%TO.P,FlagsAdd0,4*%
%TO.N,Net-(FlagsAdd0-Pad4)*%
X197000000Y-158620000D03*
%TO.P,FlagsAdd0,13*%
%TO.N,Net-(FlagsAdd0-Pad13)*%
X204620000Y-168780000D03*
%TO.P,FlagsAdd0,3*%
%TO.N,ADD_N*%
X197000000Y-156080000D03*
%TO.P,FlagsAdd0,12*%
%TO.N,Net-(FlagsAdd0-Pad12)*%
X204620000Y-171320000D03*
%TO.P,FlagsAdd0,2*%
%TO.N,ADD_COUT*%
X197000000Y-153540000D03*
%TO.P,FlagsAdd0,11*%
%TO.N,Net-(FlagsAdd0-Pad11)*%
X204620000Y-173860000D03*
D11*
%TO.P,FlagsAdd0,1*%
%TO.N,+5V*%
X197000000Y-151000000D03*
%TD*%
%TO.P,FlagsLeft1,1*%
%TO.N,+5V*%
X178000000Y-151000000D03*
D12*
%TO.P,FlagsLeft1,11*%
%TO.N,Net-(FlagsLeft1-Pad11)*%
X185620000Y-173860000D03*
%TO.P,FlagsLeft1,2*%
%TO.N,SL_COUT*%
X178000000Y-153540000D03*
%TO.P,FlagsLeft1,12*%
%TO.N,Net-(FlagsLeft1-Pad12)*%
X185620000Y-171320000D03*
%TO.P,FlagsLeft1,3*%
%TO.N,SL_N*%
X178000000Y-156080000D03*
%TO.P,FlagsLeft1,13*%
%TO.N,Net-(FlagsLeft1-Pad13)*%
X185620000Y-168780000D03*
%TO.P,FlagsLeft1,4*%
%TO.N,+5V*%
X178000000Y-158620000D03*
%TO.P,FlagsLeft1,14*%
%TO.N,Net-(FlagsLeft1-Pad14)*%
X185620000Y-166240000D03*
%TO.P,FlagsLeft1,5*%
%TO.N,Z*%
X178000000Y-161160000D03*
%TO.P,FlagsLeft1,15*%
X185620000Y-163700000D03*
%TO.P,FlagsLeft1,6*%
%TO.N,GNDREF*%
X178000000Y-163700000D03*
%TO.P,FlagsLeft1,16*%
%TO.N,/Ov*%
X185620000Y-161160000D03*
%TO.P,FlagsLeft1,7*%
%TO.N,GNDREF*%
X178000000Y-166240000D03*
%TO.P,FlagsLeft1,17*%
%TO.N,/N*%
X185620000Y-158620000D03*
%TO.P,FlagsLeft1,8*%
%TO.N,GNDREF*%
X178000000Y-168780000D03*
%TO.P,FlagsLeft1,18*%
%TO.N,/Carry*%
X185620000Y-156080000D03*
%TO.P,FlagsLeft1,9*%
%TO.N,GNDREF*%
X178000000Y-171320000D03*
%TO.P,FlagsLeft1,19*%
%TO.N,~LEFT_EN*%
X185620000Y-153540000D03*
%TO.P,FlagsLeft1,10*%
%TO.N,GNDREF*%
X178000000Y-173860000D03*
%TO.P,FlagsLeft1,20*%
%TO.N,+5V*%
X185620000Y-151000000D03*
%TD*%
%TO.P,FlagsLogical1,20*%
%TO.N,+5V*%
X110380000Y-136000000D03*
%TO.P,FlagsLogical1,10*%
%TO.N,GNDREF*%
X118000000Y-113140000D03*
%TO.P,FlagsLogical1,19*%
%TO.N,~LOG_EN*%
X110380000Y-133460000D03*
%TO.P,FlagsLogical1,9*%
%TO.N,GNDREF*%
X118000000Y-115680000D03*
%TO.P,FlagsLogical1,18*%
%TO.N,/Carry*%
X110380000Y-130920000D03*
%TO.P,FlagsLogical1,8*%
%TO.N,GNDREF*%
X118000000Y-118220000D03*
%TO.P,FlagsLogical1,17*%
%TO.N,/N*%
X110380000Y-128380000D03*
%TO.P,FlagsLogical1,7*%
%TO.N,GNDREF*%
X118000000Y-120760000D03*
%TO.P,FlagsLogical1,16*%
%TO.N,/Ov*%
X110380000Y-125840000D03*
%TO.P,FlagsLogical1,6*%
%TO.N,GNDREF*%
X118000000Y-123300000D03*
%TO.P,FlagsLogical1,15*%
%TO.N,Z*%
X110380000Y-123300000D03*
%TO.P,FlagsLogical1,5*%
X118000000Y-125840000D03*
%TO.P,FlagsLogical1,14*%
%TO.N,Net-(FlagsLogical1-Pad14)*%
X110380000Y-120760000D03*
%TO.P,FlagsLogical1,4*%
%TO.N,GNDREF*%
X118000000Y-128380000D03*
%TO.P,FlagsLogical1,13*%
%TO.N,Net-(FlagsLogical1-Pad13)*%
X110380000Y-118220000D03*
%TO.P,FlagsLogical1,3*%
%TO.N,Logical_N*%
X118000000Y-130920000D03*
%TO.P,FlagsLogical1,12*%
%TO.N,Net-(FlagsLogical1-Pad12)*%
X110380000Y-115680000D03*
%TO.P,FlagsLogical1,2*%
%TO.N,GNDREF*%
X118000000Y-133460000D03*
%TO.P,FlagsLogical1,11*%
%TO.N,Net-(FlagsLogical1-Pad11)*%
X110380000Y-113140000D03*
D11*
%TO.P,FlagsLogical1,1*%
%TO.N,+5V*%
X118000000Y-136000000D03*
%TD*%
D12*
%TO.P,FlagsRight1,20*%
%TO.N,+5V*%
X167620000Y-151000000D03*
%TO.P,FlagsRight1,10*%
%TO.N,GNDREF*%
X160000000Y-173860000D03*
%TO.P,FlagsRight1,19*%
%TO.N,~RIGHT_EN*%
X167620000Y-153540000D03*
%TO.P,FlagsRight1,9*%
%TO.N,GNDREF*%
X160000000Y-171320000D03*
%TO.P,FlagsRight1,18*%
%TO.N,/Carry*%
X167620000Y-156080000D03*
%TO.P,FlagsRight1,8*%
%TO.N,GNDREF*%
X160000000Y-168780000D03*
%TO.P,FlagsRight1,17*%
%TO.N,/N*%
X167620000Y-158620000D03*
%TO.P,FlagsRight1,7*%
%TO.N,GNDREF*%
X160000000Y-166240000D03*
%TO.P,FlagsRight1,16*%
%TO.N,/Ov*%
X167620000Y-161160000D03*
%TO.P,FlagsRight1,6*%
%TO.N,GNDREF*%
X160000000Y-163700000D03*
%TO.P,FlagsRight1,15*%
%TO.N,Z*%
X167620000Y-163700000D03*
%TO.P,FlagsRight1,5*%
X160000000Y-161160000D03*
%TO.P,FlagsRight1,14*%
%TO.N,Net-(FlagsRight1-Pad14)*%
X167620000Y-166240000D03*
%TO.P,FlagsRight1,4*%
%TO.N,+5V*%
X160000000Y-158620000D03*
%TO.P,FlagsRight1,13*%
%TO.N,Net-(FlagsRight1-Pad13)*%
X167620000Y-168780000D03*
%TO.P,FlagsRight1,3*%
%TO.N,SR_N*%
X160000000Y-156080000D03*
%TO.P,FlagsRight1,12*%
%TO.N,Net-(FlagsRight1-Pad12)*%
X167620000Y-171320000D03*
%TO.P,FlagsRight1,2*%
%TO.N,SR_COUT*%
X160000000Y-153540000D03*
%TO.P,FlagsRight1,11*%
%TO.N,Net-(FlagsRight1-Pad11)*%
X167620000Y-173860000D03*
D11*
%TO.P,FlagsRight1,1*%
%TO.N,+5V*%
X160000000Y-151000000D03*
%TD*%
D18*
%TO.P,H1,1*%
%TO.N,GNDREF*%
X325000000Y-35000000D03*
D19*
X327625000Y-35000000D03*
X326856155Y-36856155D03*
X325000000Y-37625000D03*
X323143845Y-36856155D03*
X322375000Y-35000000D03*
X323143845Y-33143845D03*
X325000000Y-32375000D03*
X326856155Y-33143845D03*
%TD*%
%TO.P,H2,1*%
%TO.N,GNDREF*%
X96856155Y-223143845D03*
X95000000Y-222375000D03*
X93143845Y-223143845D03*
X92375000Y-225000000D03*
X93143845Y-226856155D03*
X95000000Y-227625000D03*
X96856155Y-226856155D03*
X97625000Y-225000000D03*
D18*
X95000000Y-225000000D03*
%TD*%
%TO.P,H3,1*%
%TO.N,+5V*%
X325000000Y-225000000D03*
D19*
X327625000Y-225000000D03*
X326856155Y-226856155D03*
X325000000Y-227625000D03*
X323143845Y-226856155D03*
X322375000Y-225000000D03*
X323143845Y-223143845D03*
X325000000Y-222375000D03*
X326856155Y-223143845D03*
%TD*%
D18*
%TO.P,H4,1*%
%TO.N,N/C*%
X85000000Y-35000000D03*
D19*
X87625000Y-35000000D03*
X86856155Y-36856155D03*
X85000000Y-37625000D03*
X83143845Y-36856155D03*
X82375000Y-35000000D03*
X83143845Y-33143845D03*
X85000000Y-32375000D03*
X86856155Y-33143845D03*
%TD*%
%TO.P,H5,1*%
%TO.N,+5V*%
X96856155Y-33143845D03*
X95000000Y-32375000D03*
X93143845Y-33143845D03*
X92375000Y-35000000D03*
X93143845Y-36856155D03*
X95000000Y-37625000D03*
X96856155Y-36856155D03*
X97625000Y-35000000D03*
D18*
X95000000Y-35000000D03*
%TD*%
D19*
%TO.P,H6,1*%
%TO.N,N/C*%
X86856155Y-223143845D03*
X85000000Y-222375000D03*
X83143845Y-223143845D03*
X82375000Y-225000000D03*
X83143845Y-226856155D03*
X85000000Y-227625000D03*
X86856155Y-226856155D03*
X87625000Y-225000000D03*
D18*
X85000000Y-225000000D03*
%TD*%
%TO.P,H7,1*%
%TO.N,N/C*%
X335000000Y-225000000D03*
D19*
X337625000Y-225000000D03*
X336856155Y-226856155D03*
X335000000Y-227625000D03*
X333143845Y-226856155D03*
X332375000Y-225000000D03*
X333143845Y-223143845D03*
X335000000Y-222375000D03*
X336856155Y-223143845D03*
%TD*%
%TO.P,H8,1*%
%TO.N,N/C*%
X336856155Y-33143845D03*
X335000000Y-32375000D03*
X333143845Y-33143845D03*
X332375000Y-35000000D03*
X333143845Y-36856155D03*
X335000000Y-37625000D03*
X336856155Y-36856155D03*
X337625000Y-35000000D03*
D18*
X335000000Y-35000000D03*
%TD*%
D12*
%TO.P,MUXCout1,16*%
%TO.N,+5V*%
X147620000Y-205000000D03*
%TO.P,MUXCout1,8*%
%TO.N,GNDREF*%
X140000000Y-222780000D03*
%TO.P,MUXCout1,15*%
X147620000Y-207540000D03*
%TO.P,MUXCout1,7*%
%TO.N,/SL0*%
X140000000Y-220240000D03*
%TO.P,MUXCout1,14*%
%TO.N,Net-(MUXCout1-Pad14)*%
X147620000Y-210080000D03*
%TO.P,MUXCout1,6*%
%TO.N,nBit*%
X140000000Y-217700000D03*
%TO.P,MUXCout1,13*%
%TO.N,Net-(MUXCout1-Pad13)*%
X147620000Y-212620000D03*
%TO.P,MUXCout1,5*%
%TO.N,SL_COUT*%
X140000000Y-215160000D03*
%TO.P,MUXCout1,12*%
%TO.N,Net-(MUXCout1-Pad12)*%
X147620000Y-215160000D03*
%TO.P,MUXCout1,4*%
%TO.N,SR_N*%
X140000000Y-212620000D03*
%TO.P,MUXCout1,11*%
%TO.N,Net-(MUXCout1-Pad11)*%
X147620000Y-217700000D03*
%TO.P,MUXCout1,3*%
%TO.N,nBit*%
X140000000Y-210080000D03*
%TO.P,MUXCout1,10*%
%TO.N,Net-(MUXCout1-Pad10)*%
X147620000Y-220240000D03*
%TO.P,MUXCout1,2*%
%TO.N,SR_COUT*%
X140000000Y-207540000D03*
%TO.P,MUXCout1,9*%
%TO.N,Net-(MUXCout1-Pad9)*%
X147620000Y-222780000D03*
D11*
%TO.P,MUXCout1,1*%
%TO.N,D*%
X140000000Y-205000000D03*
%TD*%
D12*
%TO.P,NAND0,14*%
%TO.N,+5V*%
X95620000Y-59000000D03*
%TO.P,NAND0,7*%
%TO.N,GNDREF*%
X88000000Y-74240000D03*
%TO.P,NAND0,13*%
%TO.N,/A2*%
X95620000Y-61540000D03*
%TO.P,NAND0,6*%
%TO.N,Net-(NAND0-Pad6)*%
X88000000Y-71700000D03*
%TO.P,NAND0,12*%
%TO.N,/B2*%
X95620000Y-64080000D03*
%TO.P,NAND0,5*%
%TO.N,/B1*%
X88000000Y-69160000D03*
%TO.P,NAND0,11*%
%TO.N,Net-(NAND0-Pad11)*%
X95620000Y-66620000D03*
%TO.P,NAND0,4*%
%TO.N,/A1*%
X88000000Y-66620000D03*
%TO.P,NAND0,10*%
%TO.N,/A3*%
X95620000Y-69160000D03*
%TO.P,NAND0,3*%
%TO.N,Net-(NAND0-Pad3)*%
X88000000Y-64080000D03*
%TO.P,NAND0,9*%
%TO.N,/B3*%
X95620000Y-71700000D03*
%TO.P,NAND0,2*%
%TO.N,/B0*%
X88000000Y-61540000D03*
%TO.P,NAND0,8*%
%TO.N,Net-(NAND0-Pad8)*%
X95620000Y-74240000D03*
D11*
%TO.P,NAND0,1*%
%TO.N,SR_COUT*%
X88000000Y-59000000D03*
%TD*%
%TO.P,NAND1,1*%
%TO.N,/A4*%
X88000000Y-87000000D03*
D12*
%TO.P,NAND1,8*%
%TO.N,Net-(NAND1-Pad8)*%
X95620000Y-102240000D03*
%TO.P,NAND1,2*%
%TO.N,/B4*%
X88000000Y-89540000D03*
%TO.P,NAND1,9*%
%TO.N,/B7*%
X95620000Y-99700000D03*
%TO.P,NAND1,3*%
%TO.N,Net-(NAND1-Pad3)*%
X88000000Y-92080000D03*
%TO.P,NAND1,10*%
%TO.N,SL_COUT*%
X95620000Y-97160000D03*
%TO.P,NAND1,4*%
%TO.N,/A5*%
X88000000Y-94620000D03*
%TO.P,NAND1,11*%
%TO.N,Net-(NAND1-Pad11)*%
X95620000Y-94620000D03*
%TO.P,NAND1,5*%
%TO.N,/B5*%
X88000000Y-97160000D03*
%TO.P,NAND1,12*%
%TO.N,/B6*%
X95620000Y-92080000D03*
%TO.P,NAND1,6*%
%TO.N,Net-(NAND1-Pad6)*%
X88000000Y-99700000D03*
%TO.P,NAND1,13*%
%TO.N,SL_N*%
X95620000Y-89540000D03*
%TO.P,NAND1,7*%
%TO.N,GNDREF*%
X88000000Y-102240000D03*
%TO.P,NAND1,14*%
%TO.N,+5V*%
X95620000Y-87000000D03*
%TD*%
%TO.P,NAND41,14*%
%TO.N,+5V*%
X122620000Y-205000000D03*
%TO.P,NAND41,7*%
%TO.N,GNDREF*%
X115000000Y-220240000D03*
%TO.P,NAND41,13*%
%TO.N,Net-(NAND41-Pad13)*%
X122620000Y-207540000D03*
%TO.P,NAND41,6*%
%TO.N,Net-(NAND41-Pad6)*%
X115000000Y-217700000D03*
%TO.P,NAND41,12*%
%TO.N,Net-(NAND41-Pad12)*%
X122620000Y-210080000D03*
%TO.P,NAND41,5*%
%TO.N,Net-(NAND41-Pad5)*%
X115000000Y-215160000D03*
%TO.P,NAND41,11*%
%TO.N,Net-(NAND41-Pad11)*%
X122620000Y-212620000D03*
%TO.P,NAND41,4*%
%TO.N,Net-(NAND41-Pad4)*%
X115000000Y-212620000D03*
%TO.P,NAND41,10*%
%TO.N,Net-(NAND41-Pad10)*%
X122620000Y-215160000D03*
%TO.P,NAND41,3*%
%TO.N,Z*%
X115000000Y-210080000D03*
%TO.P,NAND41,9*%
%TO.N,Net-(NAND41-Pad9)*%
X122620000Y-217700000D03*
%TO.P,NAND41,2*%
%TO.N,~Z*%
X115000000Y-207540000D03*
%TO.P,NAND41,8*%
%TO.N,Net-(NAND41-Pad8)*%
X122620000Y-220240000D03*
D11*
%TO.P,NAND41,1*%
%TO.N,~Z*%
X115000000Y-205000000D03*
%TD*%
%TO.P,NAND_GATE0,1*%
%TO.N,+5V*%
X110000000Y-68000000D03*
D12*
%TO.P,NAND_GATE0,11*%
%TO.N,Logical_N*%
X117620000Y-90860000D03*
%TO.P,NAND_GATE0,2*%
%TO.N,Net-(NAND0-Pad3)*%
X110000000Y-70540000D03*
%TO.P,NAND_GATE0,12*%
%TO.N,/O6*%
X117620000Y-88320000D03*
%TO.P,NAND_GATE0,3*%
%TO.N,Net-(NAND0-Pad6)*%
X110000000Y-73080000D03*
%TO.P,NAND_GATE0,13*%
%TO.N,/O5*%
X117620000Y-85780000D03*
%TO.P,NAND_GATE0,4*%
%TO.N,Net-(NAND0-Pad11)*%
X110000000Y-75620000D03*
%TO.P,NAND_GATE0,14*%
%TO.N,/O4*%
X117620000Y-83240000D03*
%TO.P,NAND_GATE0,5*%
%TO.N,Net-(NAND0-Pad8)*%
X110000000Y-78160000D03*
%TO.P,NAND_GATE0,15*%
%TO.N,/O3*%
X117620000Y-80700000D03*
%TO.P,NAND_GATE0,6*%
%TO.N,Net-(NAND1-Pad3)*%
X110000000Y-80700000D03*
%TO.P,NAND_GATE0,16*%
%TO.N,/O2*%
X117620000Y-78160000D03*
%TO.P,NAND_GATE0,7*%
%TO.N,Net-(NAND1-Pad6)*%
X110000000Y-83240000D03*
%TO.P,NAND_GATE0,17*%
%TO.N,/O1*%
X117620000Y-75620000D03*
%TO.P,NAND_GATE0,8*%
%TO.N,Net-(NAND1-Pad11)*%
X110000000Y-85780000D03*
%TO.P,NAND_GATE0,18*%
%TO.N,/O0*%
X117620000Y-73080000D03*
%TO.P,NAND_GATE0,9*%
%TO.N,Net-(NAND1-Pad8)*%
X110000000Y-88320000D03*
%TO.P,NAND_GATE0,19*%
%TO.N,~NAND_EN*%
X117620000Y-70540000D03*
%TO.P,NAND_GATE0,10*%
%TO.N,GNDREF*%
X110000000Y-90860000D03*
%TO.P,NAND_GATE0,20*%
%TO.N,+5V*%
X117620000Y-68000000D03*
%TD*%
D16*
%TO.P,OP1,16*%
%TO.N,/A15*%
X161780000Y-37460000D03*
%TO.P,OP1,15*%
%TO.N,/A14*%
X161780000Y-40000000D03*
%TO.P,OP1,14*%
%TO.N,/A13*%
X159240000Y-37460000D03*
%TO.P,OP1,13*%
%TO.N,/A12*%
X159240000Y-40000000D03*
%TO.P,OP1,12*%
%TO.N,/A11*%
X156700000Y-37460000D03*
%TO.P,OP1,11*%
%TO.N,/A10*%
X156700000Y-40000000D03*
%TO.P,OP1,10*%
%TO.N,/A9*%
X154160000Y-37460000D03*
%TO.P,OP1,9*%
%TO.N,/A8*%
X154160000Y-40000000D03*
%TO.P,OP1,8*%
%TO.N,SL_COUT*%
X151620000Y-37460000D03*
%TO.P,OP1,7*%
%TO.N,SL_N*%
X151620000Y-40000000D03*
%TO.P,OP1,6*%
%TO.N,/A5*%
X149080000Y-37460000D03*
%TO.P,OP1,5*%
%TO.N,/A4*%
X149080000Y-40000000D03*
%TO.P,OP1,4*%
%TO.N,/A3*%
X146540000Y-37460000D03*
%TO.P,OP1,3*%
%TO.N,/A2*%
X146540000Y-40000000D03*
%TO.P,OP1,2*%
%TO.N,/A1*%
X144000000Y-37460000D03*
D15*
%TO.P,OP1,1*%
%TO.N,SR_COUT*%
X144000000Y-40000000D03*
%TD*%
%TO.P,OP2,1*%
%TO.N,/B0*%
X202000000Y-40000000D03*
D16*
%TO.P,OP2,2*%
%TO.N,/B1*%
X202000000Y-37460000D03*
%TO.P,OP2,3*%
%TO.N,/B2*%
X204540000Y-40000000D03*
%TO.P,OP2,4*%
%TO.N,/B3*%
X204540000Y-37460000D03*
%TO.P,OP2,5*%
%TO.N,/B4*%
X207080000Y-40000000D03*
%TO.P,OP2,6*%
%TO.N,/B5*%
X207080000Y-37460000D03*
%TO.P,OP2,7*%
%TO.N,/B6*%
X209620000Y-40000000D03*
%TO.P,OP2,8*%
%TO.N,/B7*%
X209620000Y-37460000D03*
%TO.P,OP2,9*%
%TO.N,/B8*%
X212160000Y-40000000D03*
%TO.P,OP2,10*%
%TO.N,/B9*%
X212160000Y-37460000D03*
%TO.P,OP2,11*%
%TO.N,/B10*%
X214700000Y-40000000D03*
%TO.P,OP2,12*%
%TO.N,/B11*%
X214700000Y-37460000D03*
%TO.P,OP2,13*%
%TO.N,/B12*%
X217240000Y-40000000D03*
%TO.P,OP2,14*%
%TO.N,/B13*%
X217240000Y-37460000D03*
%TO.P,OP2,15*%
%TO.N,/B14*%
X219780000Y-40000000D03*
%TO.P,OP2,16*%
%TO.N,/B15*%
X219780000Y-37460000D03*
%TD*%
D11*
%TO.P,OR0,1*%
%TO.N,SR_COUT*%
X275000000Y-158000000D03*
D12*
%TO.P,OR0,8*%
%TO.N,Net-(OR0-Pad8)*%
X282620000Y-173240000D03*
%TO.P,OR0,2*%
%TO.N,/B0*%
X275000000Y-160540000D03*
%TO.P,OR0,9*%
%TO.N,/B3*%
X282620000Y-170700000D03*
%TO.P,OR0,3*%
%TO.N,Net-(OR0-Pad3)*%
X275000000Y-163080000D03*
%TO.P,OR0,10*%
%TO.N,/A3*%
X282620000Y-168160000D03*
%TO.P,OR0,4*%
%TO.N,/A1*%
X275000000Y-165620000D03*
%TO.P,OR0,11*%
%TO.N,Net-(OR0-Pad11)*%
X282620000Y-165620000D03*
%TO.P,OR0,5*%
%TO.N,/B1*%
X275000000Y-168160000D03*
%TO.P,OR0,12*%
%TO.N,/B2*%
X282620000Y-163080000D03*
%TO.P,OR0,6*%
%TO.N,Net-(OR0-Pad6)*%
X275000000Y-170700000D03*
%TO.P,OR0,13*%
%TO.N,/A2*%
X282620000Y-160540000D03*
%TO.P,OR0,7*%
%TO.N,GNDREF*%
X275000000Y-173240000D03*
%TO.P,OR0,14*%
%TO.N,+5V*%
X282620000Y-158000000D03*
%TD*%
D11*
%TO.P,OR1,1*%
%TO.N,/A4*%
X275000000Y-183000000D03*
D12*
%TO.P,OR1,8*%
%TO.N,Net-(OR1-Pad8)*%
X282620000Y-198240000D03*
%TO.P,OR1,2*%
%TO.N,/B4*%
X275000000Y-185540000D03*
%TO.P,OR1,9*%
%TO.N,/B7*%
X282620000Y-195700000D03*
%TO.P,OR1,3*%
%TO.N,Net-(OR1-Pad3)*%
X275000000Y-188080000D03*
%TO.P,OR1,10*%
%TO.N,SL_COUT*%
X282620000Y-193160000D03*
%TO.P,OR1,4*%
%TO.N,/A5*%
X275000000Y-190620000D03*
%TO.P,OR1,11*%
%TO.N,Net-(OR1-Pad11)*%
X282620000Y-190620000D03*
%TO.P,OR1,5*%
%TO.N,/B5*%
X275000000Y-193160000D03*
%TO.P,OR1,12*%
%TO.N,/B6*%
X282620000Y-188080000D03*
%TO.P,OR1,6*%
%TO.N,Net-(OR1-Pad6)*%
X275000000Y-195700000D03*
%TO.P,OR1,13*%
%TO.N,SL_N*%
X282620000Y-185540000D03*
%TO.P,OR1,7*%
%TO.N,GNDREF*%
X275000000Y-198240000D03*
%TO.P,OR1,14*%
%TO.N,+5V*%
X282620000Y-183000000D03*
%TD*%
D11*
%TO.P,OR_GATE1,1*%
%TO.N,+5V*%
X307000000Y-207000000D03*
D12*
%TO.P,OR_GATE1,11*%
%TO.N,Logical_N*%
X299380000Y-184140000D03*
%TO.P,OR_GATE1,2*%
%TO.N,Net-(OR0-Pad3)*%
X307000000Y-204460000D03*
%TO.P,OR_GATE1,12*%
%TO.N,/O6*%
X299380000Y-186680000D03*
%TO.P,OR_GATE1,3*%
%TO.N,Net-(OR0-Pad6)*%
X307000000Y-201920000D03*
%TO.P,OR_GATE1,13*%
%TO.N,/O5*%
X299380000Y-189220000D03*
%TO.P,OR_GATE1,4*%
%TO.N,Net-(OR0-Pad11)*%
X307000000Y-199380000D03*
%TO.P,OR_GATE1,14*%
%TO.N,/O4*%
X299380000Y-191760000D03*
%TO.P,OR_GATE1,5*%
%TO.N,Net-(OR0-Pad8)*%
X307000000Y-196840000D03*
%TO.P,OR_GATE1,15*%
%TO.N,/O3*%
X299380000Y-194300000D03*
%TO.P,OR_GATE1,6*%
%TO.N,Net-(OR1-Pad3)*%
X307000000Y-194300000D03*
%TO.P,OR_GATE1,16*%
%TO.N,/O2*%
X299380000Y-196840000D03*
%TO.P,OR_GATE1,7*%
%TO.N,Net-(OR1-Pad6)*%
X307000000Y-191760000D03*
%TO.P,OR_GATE1,17*%
%TO.N,/O1*%
X299380000Y-199380000D03*
%TO.P,OR_GATE1,8*%
%TO.N,Net-(OR1-Pad11)*%
X307000000Y-189220000D03*
%TO.P,OR_GATE1,18*%
%TO.N,/O0*%
X299380000Y-201920000D03*
%TO.P,OR_GATE1,9*%
%TO.N,Net-(OR1-Pad8)*%
X307000000Y-186680000D03*
%TO.P,OR_GATE1,19*%
%TO.N,~OR_EN*%
X299380000Y-204460000D03*
%TO.P,OR_GATE1,10*%
%TO.N,GNDREF*%
X307000000Y-184140000D03*
%TO.P,OR_GATE1,20*%
%TO.N,+5V*%
X299380000Y-207000000D03*
%TD*%
%TO.P,OverflowXOR1,14*%
%TO.N,+5V*%
X144620000Y-156000000D03*
%TO.P,OverflowXOR1,7*%
%TO.N,GNDREF*%
X137000000Y-171240000D03*
%TO.P,OverflowXOR1,13*%
%TO.N,Net-(OverflowXOR1-Pad13)*%
X144620000Y-158540000D03*
%TO.P,OverflowXOR1,6*%
%TO.N,~LOG_EN*%
X137000000Y-168700000D03*
%TO.P,OverflowXOR1,12*%
%TO.N,Net-(OverflowXOR1-Pad12)*%
X144620000Y-161080000D03*
%TO.P,OverflowXOR1,5*%
%TO.N,B*%
X137000000Y-166160000D03*
%TO.P,OverflowXOR1,11*%
%TO.N,Net-(OverflowXOR1-Pad11)*%
X144620000Y-163620000D03*
%TO.P,OverflowXOR1,4*%
%TO.N,A*%
X137000000Y-163620000D03*
%TO.P,OverflowXOR1,10*%
%TO.N,Net-(OverflowXOR1-Pad10)*%
X144620000Y-166160000D03*
%TO.P,OverflowXOR1,3*%
%TO.N,Net-(FlagsAdd0-Pad4)*%
X137000000Y-161080000D03*
%TO.P,OverflowXOR1,9*%
%TO.N,GNDREF*%
X144620000Y-168700000D03*
%TO.P,OverflowXOR1,2*%
%TO.N,ADD_CX*%
X137000000Y-158540000D03*
%TO.P,OverflowXOR1,8*%
%TO.N,Net-(OverflowXOR1-Pad8)*%
X144620000Y-171240000D03*
D11*
%TO.P,OverflowXOR1,1*%
%TO.N,ADD_COUT*%
X137000000Y-156000000D03*
%TD*%
D20*
%TO.P,PD8,2*%
%TO.N,GNDREF*%
X186000000Y-35380000D03*
D21*
%TO.P,PD8,1*%
%TO.N,/A8*%
X186000000Y-43000000D03*
%TD*%
%TO.P,PD9,1*%
%TO.N,/A9*%
X132000000Y-50000000D03*
D20*
%TO.P,PD9,2*%
%TO.N,GNDREF*%
X132000000Y-42380000D03*
%TD*%
%TO.P,PD10,2*%
%TO.N,GNDREF*%
X182000000Y-35380000D03*
D21*
%TO.P,PD10,1*%
%TO.N,/A10*%
X182000000Y-43000000D03*
%TD*%
%TO.P,PD11,1*%
%TO.N,/A11*%
X125000000Y-50000000D03*
D20*
%TO.P,PD11,2*%
%TO.N,GNDREF*%
X125000000Y-42380000D03*
%TD*%
%TO.P,PD12,2*%
%TO.N,GNDREF*%
X178000000Y-35380000D03*
D21*
%TO.P,PD12,1*%
%TO.N,/A12*%
X178000000Y-43000000D03*
%TD*%
%TO.P,PD13,1*%
%TO.N,/A13*%
X118000000Y-50000000D03*
D20*
%TO.P,PD13,2*%
%TO.N,GNDREF*%
X118000000Y-42380000D03*
%TD*%
%TO.P,PD14,2*%
%TO.N,GNDREF*%
X174000000Y-35380000D03*
D21*
%TO.P,PD14,1*%
%TO.N,/A14*%
X174000000Y-43000000D03*
%TD*%
%TO.P,PD15,1*%
%TO.N,/A15*%
X111000000Y-50000000D03*
D20*
%TO.P,PD15,2*%
%TO.N,GNDREF*%
X111000000Y-42380000D03*
%TD*%
D21*
%TO.P,PDB8,1*%
%TO.N,/B8*%
X248000000Y-44000000D03*
D20*
%TO.P,PDB8,2*%
%TO.N,GNDREF*%
X248000000Y-36380000D03*
%TD*%
%TO.P,PDB9,2*%
%TO.N,GNDREF*%
X280000000Y-36380000D03*
D21*
%TO.P,PDB9,1*%
%TO.N,/B9*%
X280000000Y-44000000D03*
%TD*%
%TO.P,PDB10,1*%
%TO.N,/B10*%
X255000000Y-44000000D03*
D20*
%TO.P,PDB10,2*%
%TO.N,GNDREF*%
X255000000Y-36380000D03*
%TD*%
%TO.P,PDB11,2*%
%TO.N,GNDREF*%
X276000000Y-36380000D03*
D21*
%TO.P,PDB11,1*%
%TO.N,/B11*%
X276000000Y-44000000D03*
%TD*%
%TO.P,PDB12,1*%
%TO.N,/B12*%
X241000000Y-44000000D03*
D20*
%TO.P,PDB12,2*%
%TO.N,GNDREF*%
X241000000Y-36380000D03*
%TD*%
%TO.P,PDB13,2*%
%TO.N,GNDREF*%
X272000000Y-36380000D03*
D21*
%TO.P,PDB13,1*%
%TO.N,/B13*%
X272000000Y-44000000D03*
%TD*%
D20*
%TO.P,PDB14,2*%
%TO.N,GNDREF*%
X234000000Y-36380000D03*
D21*
%TO.P,PDB14,1*%
%TO.N,/B14*%
X234000000Y-44000000D03*
%TD*%
%TO.P,PDB15,1*%
%TO.N,/B15*%
X268000000Y-44000000D03*
D20*
%TO.P,PDB15,2*%
%TO.N,GNDREF*%
X268000000Y-36380000D03*
%TD*%
D11*
%TO.P,SL_GATE0,1*%
%TO.N,+5V*%
X176000000Y-220000000D03*
D12*
%TO.P,SL_GATE0,11*%
%TO.N,Logical_N*%
X198860000Y-212380000D03*
%TO.P,SL_GATE0,2*%
%TO.N,/SL0*%
X178540000Y-220000000D03*
%TO.P,SL_GATE0,12*%
%TO.N,/O6*%
X196320000Y-212380000D03*
%TO.P,SL_GATE0,3*%
%TO.N,SR_COUT*%
X181080000Y-220000000D03*
%TO.P,SL_GATE0,13*%
%TO.N,/O5*%
X193780000Y-212380000D03*
%TO.P,SL_GATE0,4*%
%TO.N,/A1*%
X183620000Y-220000000D03*
%TO.P,SL_GATE0,14*%
%TO.N,/O4*%
X191240000Y-212380000D03*
%TO.P,SL_GATE0,5*%
%TO.N,/A2*%
X186160000Y-220000000D03*
%TO.P,SL_GATE0,15*%
%TO.N,/O3*%
X188700000Y-212380000D03*
%TO.P,SL_GATE0,6*%
%TO.N,/A3*%
X188700000Y-220000000D03*
%TO.P,SL_GATE0,16*%
%TO.N,/O2*%
X186160000Y-212380000D03*
%TO.P,SL_GATE0,7*%
%TO.N,/A4*%
X191240000Y-220000000D03*
%TO.P,SL_GATE0,17*%
%TO.N,/O1*%
X183620000Y-212380000D03*
%TO.P,SL_GATE0,8*%
%TO.N,/A5*%
X193780000Y-220000000D03*
%TO.P,SL_GATE0,18*%
%TO.N,/O0*%
X181080000Y-212380000D03*
%TO.P,SL_GATE0,9*%
%TO.N,SL_N*%
X196320000Y-220000000D03*
%TO.P,SL_GATE0,19*%
%TO.N,~LEFT_EN*%
X178540000Y-212380000D03*
%TO.P,SL_GATE0,10*%
%TO.N,GNDREF*%
X198860000Y-220000000D03*
%TO.P,SL_GATE0,20*%
%TO.N,+5V*%
X176000000Y-212380000D03*
%TD*%
D11*
%TO.P,SR_GATE0,1*%
%TO.N,+5V*%
X175000000Y-199000000D03*
D12*
%TO.P,SR_GATE0,11*%
%TO.N,Logical_N*%
X197860000Y-191380000D03*
%TO.P,SR_GATE0,2*%
%TO.N,/A1*%
X177540000Y-199000000D03*
%TO.P,SR_GATE0,12*%
%TO.N,/O6*%
X195320000Y-191380000D03*
%TO.P,SR_GATE0,3*%
%TO.N,/A2*%
X180080000Y-199000000D03*
%TO.P,SR_GATE0,13*%
%TO.N,/O5*%
X192780000Y-191380000D03*
%TO.P,SR_GATE0,4*%
%TO.N,/A3*%
X182620000Y-199000000D03*
%TO.P,SR_GATE0,14*%
%TO.N,/O4*%
X190240000Y-191380000D03*
%TO.P,SR_GATE0,5*%
%TO.N,/A4*%
X185160000Y-199000000D03*
%TO.P,SR_GATE0,15*%
%TO.N,/O3*%
X187700000Y-191380000D03*
%TO.P,SR_GATE0,6*%
%TO.N,/A5*%
X187700000Y-199000000D03*
%TO.P,SR_GATE0,16*%
%TO.N,/O2*%
X185160000Y-191380000D03*
%TO.P,SR_GATE0,7*%
%TO.N,SL_N*%
X190240000Y-199000000D03*
%TO.P,SR_GATE0,17*%
%TO.N,/O1*%
X182620000Y-191380000D03*
%TO.P,SR_GATE0,8*%
%TO.N,SL_COUT*%
X192780000Y-199000000D03*
%TO.P,SR_GATE0,18*%
%TO.N,/O0*%
X180080000Y-191380000D03*
%TO.P,SR_GATE0,9*%
%TO.N,SR_N*%
X195320000Y-199000000D03*
%TO.P,SR_GATE0,19*%
%TO.N,~RIGHT_EN*%
X177540000Y-191380000D03*
%TO.P,SR_GATE0,10*%
%TO.N,GNDREF*%
X197860000Y-199000000D03*
%TO.P,SR_GATE0,20*%
%TO.N,+5V*%
X175000000Y-191380000D03*
%TD*%
D11*
%TO.P,XOR0,1*%
%TO.N,SR_COUT*%
X303000000Y-93000000D03*
D12*
%TO.P,XOR0,8*%
%TO.N,Net-(XOR0-Pad8)*%
X295380000Y-77760000D03*
%TO.P,XOR0,2*%
%TO.N,/B0*%
X303000000Y-90460000D03*
%TO.P,XOR0,9*%
%TO.N,/B3*%
X295380000Y-80300000D03*
%TO.P,XOR0,3*%
%TO.N,Net-(XOR0-Pad3)*%
X303000000Y-87920000D03*
%TO.P,XOR0,10*%
%TO.N,/A3*%
X295380000Y-82840000D03*
%TO.P,XOR0,4*%
%TO.N,/A1*%
X303000000Y-85380000D03*
%TO.P,XOR0,11*%
%TO.N,Net-(XOR0-Pad11)*%
X295380000Y-85380000D03*
%TO.P,XOR0,5*%
%TO.N,/B1*%
X303000000Y-82840000D03*
%TO.P,XOR0,12*%
%TO.N,/B2*%
X295380000Y-87920000D03*
%TO.P,XOR0,6*%
%TO.N,Net-(XOR0-Pad6)*%
X303000000Y-80300000D03*
%TO.P,XOR0,13*%
%TO.N,/A2*%
X295380000Y-90460000D03*
%TO.P,XOR0,7*%
%TO.N,GNDREF*%
X303000000Y-77760000D03*
%TO.P,XOR0,14*%
%TO.N,+5V*%
X295380000Y-93000000D03*
%TD*%
%TO.P,XOR1,14*%
%TO.N,+5V*%
X303620000Y-111000000D03*
%TO.P,XOR1,7*%
%TO.N,GNDREF*%
X296000000Y-126240000D03*
%TO.P,XOR1,13*%
%TO.N,SL_N*%
X303620000Y-113540000D03*
%TO.P,XOR1,6*%
%TO.N,Net-(XOR1-Pad6)*%
X296000000Y-123700000D03*
%TO.P,XOR1,12*%
%TO.N,/B6*%
X303620000Y-116080000D03*
%TO.P,XOR1,5*%
%TO.N,/B5*%
X296000000Y-121160000D03*
%TO.P,XOR1,11*%
%TO.N,Net-(XOR1-Pad11)*%
X303620000Y-118620000D03*
%TO.P,XOR1,4*%
%TO.N,/A5*%
X296000000Y-118620000D03*
%TO.P,XOR1,10*%
%TO.N,SL_COUT*%
X303620000Y-121160000D03*
%TO.P,XOR1,3*%
%TO.N,Net-(XOR1-Pad3)*%
X296000000Y-116080000D03*
%TO.P,XOR1,9*%
%TO.N,/B7*%
X303620000Y-123700000D03*
%TO.P,XOR1,2*%
%TO.N,/B4*%
X296000000Y-113540000D03*
%TO.P,XOR1,8*%
%TO.N,Net-(XOR1-Pad8)*%
X303620000Y-126240000D03*
D11*
%TO.P,XOR1,1*%
%TO.N,/A4*%
X296000000Y-111000000D03*
%TD*%
D12*
%TO.P,XOR2,14*%
%TO.N,+5V*%
X215620000Y-72000000D03*
%TO.P,XOR2,7*%
%TO.N,GNDREF*%
X208000000Y-87240000D03*
%TO.P,XOR2,13*%
%TO.N,D*%
X215620000Y-74540000D03*
%TO.P,XOR2,6*%
%TO.N,Net-(ADD4.1-Pad2)*%
X208000000Y-84700000D03*
%TO.P,XOR2,12*%
%TO.N,/B6*%
X215620000Y-77080000D03*
%TO.P,XOR2,5*%
%TO.N,/B5*%
X208000000Y-82160000D03*
%TO.P,XOR2,11*%
%TO.N,Net-(ADD4.1-Pad15)*%
X215620000Y-79620000D03*
%TO.P,XOR2,4*%
%TO.N,D*%
X208000000Y-79620000D03*
%TO.P,XOR2,10*%
X215620000Y-82160000D03*
%TO.P,XOR2,3*%
%TO.N,Net-(ADD4.1-Pad6)*%
X208000000Y-77080000D03*
%TO.P,XOR2,9*%
%TO.N,/B7*%
X215620000Y-84700000D03*
%TO.P,XOR2,2*%
%TO.N,/B4*%
X208000000Y-74540000D03*
%TO.P,XOR2,8*%
%TO.N,Net-(ADD4.1-Pad11)*%
X215620000Y-87240000D03*
D11*
%TO.P,XOR2,1*%
%TO.N,D*%
X208000000Y-72000000D03*
%TD*%
%TO.P,XOR3,1*%
%TO.N,D*%
X138000000Y-118000000D03*
D12*
%TO.P,XOR3,8*%
%TO.N,Net-(ADD4.2-Pad11)*%
X145620000Y-133240000D03*
%TO.P,XOR3,2*%
%TO.N,/B8*%
X138000000Y-120540000D03*
%TO.P,XOR3,9*%
%TO.N,/B11*%
X145620000Y-130700000D03*
%TO.P,XOR3,3*%
%TO.N,Net-(ADD4.2-Pad6)*%
X138000000Y-123080000D03*
%TO.P,XOR3,10*%
%TO.N,D*%
X145620000Y-128160000D03*
%TO.P,XOR3,4*%
X138000000Y-125620000D03*
%TO.P,XOR3,11*%
%TO.N,Net-(ADD4.2-Pad15)*%
X145620000Y-125620000D03*
%TO.P,XOR3,5*%
%TO.N,/B9*%
X138000000Y-128160000D03*
%TO.P,XOR3,12*%
%TO.N,/B10*%
X145620000Y-123080000D03*
%TO.P,XOR3,6*%
%TO.N,Net-(ADD4.2-Pad2)*%
X138000000Y-130700000D03*
%TO.P,XOR3,13*%
%TO.N,D*%
X145620000Y-120540000D03*
%TO.P,XOR3,7*%
%TO.N,GNDREF*%
X138000000Y-133240000D03*
%TO.P,XOR3,14*%
%TO.N,+5V*%
X145620000Y-118000000D03*
%TD*%
%TO.P,XOR4,14*%
%TO.N,+5V*%
X230620000Y-128000000D03*
%TO.P,XOR4,7*%
%TO.N,GNDREF*%
X223000000Y-143240000D03*
%TO.P,XOR4,13*%
%TO.N,D*%
X230620000Y-130540000D03*
%TO.P,XOR4,6*%
%TO.N,Net-(ADD4.3-Pad2)*%
X223000000Y-140700000D03*
%TO.P,XOR4,12*%
%TO.N,/B14*%
X230620000Y-133080000D03*
%TO.P,XOR4,5*%
%TO.N,/B13*%
X223000000Y-138160000D03*
%TO.P,XOR4,11*%
%TO.N,Net-(ADD4.3-Pad15)*%
X230620000Y-135620000D03*
%TO.P,XOR4,4*%
%TO.N,D*%
X223000000Y-135620000D03*
%TO.P,XOR4,10*%
X230620000Y-138160000D03*
%TO.P,XOR4,3*%
%TO.N,Net-(ADD4.3-Pad6)*%
X223000000Y-133080000D03*
%TO.P,XOR4,9*%
%TO.N,/B15*%
X230620000Y-140700000D03*
%TO.P,XOR4,2*%
%TO.N,/B12*%
X223000000Y-130540000D03*
%TO.P,XOR4,8*%
%TO.N,Net-(ADD4.3-Pad11)*%
X230620000Y-143240000D03*
D11*
%TO.P,XOR4,1*%
%TO.N,D*%
X223000000Y-128000000D03*
%TD*%
%TO.P,XOR41,1*%
%TO.N,D*%
X148000000Y-72000000D03*
D12*
%TO.P,XOR41,8*%
%TO.N,Net-(ADD4.0-Pad11)*%
X155620000Y-87240000D03*
%TO.P,XOR41,2*%
%TO.N,/B0*%
X148000000Y-74540000D03*
%TO.P,XOR41,9*%
%TO.N,/B3*%
X155620000Y-84700000D03*
%TO.P,XOR41,3*%
%TO.N,Net-(ADD4.0-Pad6)*%
X148000000Y-77080000D03*
%TO.P,XOR41,10*%
%TO.N,D*%
X155620000Y-82160000D03*
%TO.P,XOR41,4*%
X148000000Y-79620000D03*
%TO.P,XOR41,11*%
%TO.N,Net-(ADD4.0-Pad15)*%
X155620000Y-79620000D03*
%TO.P,XOR41,5*%
%TO.N,/B1*%
X148000000Y-82160000D03*
%TO.P,XOR41,12*%
%TO.N,/B2*%
X155620000Y-77080000D03*
%TO.P,XOR41,6*%
%TO.N,Net-(ADD4.0-Pad2)*%
X148000000Y-84700000D03*
%TO.P,XOR41,13*%
%TO.N,D*%
X155620000Y-74540000D03*
%TO.P,XOR41,7*%
%TO.N,GNDREF*%
X148000000Y-87240000D03*
%TO.P,XOR41,14*%
%TO.N,+5V*%
X155620000Y-72000000D03*
%TD*%
%TO.P,XOR_GATE0,20*%
%TO.N,+5V*%
X294000000Y-48380000D03*
%TO.P,XOR_GATE0,10*%
%TO.N,GNDREF*%
X316860000Y-56000000D03*
%TO.P,XOR_GATE0,19*%
%TO.N,~XOR_EN*%
X296540000Y-48380000D03*
%TO.P,XOR_GATE0,9*%
%TO.N,Net-(XOR1-Pad8)*%
X314320000Y-56000000D03*
%TO.P,XOR_GATE0,18*%
%TO.N,/O0*%
X299080000Y-48380000D03*
%TO.P,XOR_GATE0,8*%
%TO.N,Net-(XOR1-Pad11)*%
X311780000Y-56000000D03*
%TO.P,XOR_GATE0,17*%
%TO.N,/O1*%
X301620000Y-48380000D03*
%TO.P,XOR_GATE0,7*%
%TO.N,Net-(XOR1-Pad6)*%
X309240000Y-56000000D03*
%TO.P,XOR_GATE0,16*%
%TO.N,/O2*%
X304160000Y-48380000D03*
%TO.P,XOR_GATE0,6*%
%TO.N,Net-(XOR1-Pad3)*%
X306700000Y-56000000D03*
%TO.P,XOR_GATE0,15*%
%TO.N,/O3*%
X306700000Y-48380000D03*
%TO.P,XOR_GATE0,5*%
%TO.N,Net-(XOR0-Pad8)*%
X304160000Y-56000000D03*
%TO.P,XOR_GATE0,14*%
%TO.N,/O4*%
X309240000Y-48380000D03*
%TO.P,XOR_GATE0,4*%
%TO.N,Net-(XOR0-Pad11)*%
X301620000Y-56000000D03*
%TO.P,XOR_GATE0,13*%
%TO.N,/O5*%
X311780000Y-48380000D03*
%TO.P,XOR_GATE0,3*%
%TO.N,Net-(XOR0-Pad6)*%
X299080000Y-56000000D03*
%TO.P,XOR_GATE0,12*%
%TO.N,/O6*%
X314320000Y-48380000D03*
%TO.P,XOR_GATE0,2*%
%TO.N,Net-(XOR0-Pad3)*%
X296540000Y-56000000D03*
%TO.P,XOR_GATE0,11*%
%TO.N,Logical_N*%
X316860000Y-48380000D03*
D11*
%TO.P,XOR_GATE0,1*%
%TO.N,+5V*%
X294000000Y-56000000D03*
%TD*%
D22*
%TO.N,+5V*%
X181635000Y-64566000D03*
%TO.N,/S1*%
X258850700Y-62534000D03*
%TO.N,Net-(ADD4.0-Pad2)*%
X153390600Y-81034600D03*
%TO.N,/A1*%
X178791900Y-177759200D03*
X181381000Y-92207100D03*
X267518500Y-101629800D03*
%TO.N,/A3*%
X181205400Y-176284300D03*
X180444000Y-75606500D03*
%TO.N,SR_COUT*%
X157509700Y-175557000D03*
X292564500Y-133626700D03*
%TO.N,/S2*%
X196269500Y-60021100D03*
X254562400Y-59307700D03*
%TO.N,/A2*%
X200818600Y-189932800D03*
X218355300Y-169671200D03*
X175198800Y-68954700D03*
X232208400Y-171810000D03*
%TO.N,CarryIn*%
X166157200Y-100016500D03*
%TO.N,ADD_COUT*%
X200139800Y-91463500D03*
X144186000Y-149251700D03*
%TO.N,Net-(ADD4.1-Pad2)*%
X211693200Y-77491800D03*
%TO.N,ADD_N*%
X231745300Y-125365200D03*
%TO.N,/A5*%
X217185200Y-35032800D03*
X264237300Y-190620000D03*
%TO.N,SL_COUT*%
X287022700Y-122585800D03*
X123995700Y-133946400D03*
%TO.N,/A4*%
X230667700Y-95923700D03*
X220121600Y-183686900D03*
%TO.N,SL_N*%
X270834100Y-98893200D03*
X215659000Y-34580500D03*
X128209800Y-58377800D03*
X263296700Y-184370800D03*
%TO.N,Net-(ADD4.1-Pad15)*%
X237855400Y-69454700D03*
%TO.N,ADD_CX*%
X144672400Y-151239000D03*
%TO.N,/A13*%
X205519300Y-115132100D03*
%TO.N,/A15*%
X204205800Y-114601400D03*
%TO.N,/A12*%
X202975800Y-114516100D03*
%TO.N,/A14*%
X202362400Y-111379800D03*
%TO.N,Logical_N*%
X317855700Y-185170400D03*
X264037100Y-179781600D03*
%TO.N,/O6*%
X290823800Y-196733200D03*
X200091000Y-195357300D03*
X205095000Y-204449000D03*
%TO.N,/O5*%
X263270500Y-180619800D03*
X241371000Y-209554300D03*
%TO.N,/O3*%
X323124700Y-189538700D03*
X288835900Y-132486700D03*
X242723600Y-209544000D03*
%TO.N,/O2*%
X264037000Y-155999400D03*
X288734000Y-131302400D03*
%TO.N,/O1*%
X267168800Y-188291100D03*
X130965700Y-176089900D03*
%TO.N,/O0*%
X265042500Y-186361400D03*
X132234500Y-174871700D03*
X265989800Y-150815000D03*
X287264800Y-129540000D03*
%TO.N,/O15*%
X285386100Y-160540200D03*
%TO.N,/O14*%
X286216100Y-159710200D03*
%TO.N,/O13*%
X285843100Y-158631900D03*
%TO.N,/O12*%
X286377500Y-157571100D03*
%TO.N,/O11*%
X287385200Y-157283000D03*
%TO.N,/O10*%
X287642900Y-158283400D03*
%TO.N,/O9*%
X288728300Y-156574400D03*
%TO.N,/O8*%
X288545100Y-155574000D03*
%TO.N,/B0*%
X292110900Y-135139900D03*
X144785500Y-63100400D03*
%TO.N,Net-(AND0-Pad3)*%
X224980800Y-180093900D03*
%TO.N,/B2*%
X289659600Y-87420500D03*
%TO.N,/B1*%
X159909100Y-59333500D03*
X266730000Y-99528100D03*
%TO.N,/B3*%
X236586000Y-173566100D03*
%TO.N,Net-(AND1-Pad8)*%
X235017800Y-203368700D03*
%TO.N,/B4*%
X219136000Y-186051000D03*
X205202800Y-97253500D03*
%TO.N,Net-(AND1-Pad3)*%
X223826600Y-191635200D03*
%TO.N,/B6*%
X209872100Y-97899600D03*
X276225700Y-201815400D03*
%TO.N,/B5*%
X206747300Y-98753800D03*
X261964700Y-193106900D03*
%TO.N,Net-(AND1-Pad6)*%
X221424200Y-199608200D03*
%TO.N,/B7*%
X277936700Y-201158800D03*
X239800100Y-205500300D03*
X216683800Y-99700000D03*
%TO.N,~Z*%
X134546800Y-175952900D03*
%TO.N,Z*%
X124078300Y-139285700D03*
%TO.N,~LOG_EN*%
X136115000Y-148389700D03*
%TO.N,~XOR_EN*%
X155917400Y-50892400D03*
%TO.N,~LEFT_EN*%
X176021500Y-158958300D03*
X175860000Y-166193500D03*
%TO.N,/Ov*%
X166077200Y-162350000D03*
%TO.N,/B11*%
X162127600Y-57327600D03*
%TO.N,/B10*%
X218165600Y-99069600D03*
%TO.N,/B9*%
X161449000Y-58063800D03*
%TO.N,/B8*%
X152372000Y-58608200D03*
%TO.N,Net-(OR1-Pad11)*%
X302761600Y-191019800D03*
%TO.N,Net-(XOR1-Pad8)*%
X314118000Y-111020700D03*
%TD*%
D23*
%TO.N,+5V*%
X282620000Y-183000000D02*
X279774100Y-185845900D01*
X279774100Y-185845900D02*
X279774100Y-196975700D01*
X279774100Y-196975700D02*
X275000000Y-201749800D01*
X275000000Y-201749800D02*
X275000000Y-203000000D01*
X271000000Y-105000000D02*
X269691700Y-106308300D01*
X269691700Y-106308300D02*
X269691700Y-130691700D01*
X269691700Y-130691700D02*
X271000000Y-132000000D01*
X178000000Y-151000000D02*
X176692500Y-152307500D01*
X176692500Y-152307500D02*
X176692500Y-157312500D01*
X176692500Y-157312500D02*
X178000000Y-158620000D01*
X178000000Y-145000000D02*
X178000000Y-151000000D01*
X323143900Y-223143800D02*
X324231200Y-223143800D01*
X324231200Y-223143800D02*
X325000000Y-222375000D01*
X322375000Y-223912700D02*
X323143900Y-223143800D01*
X208000000Y-92000000D02*
X212646700Y-87353300D01*
X212646700Y-87353300D02*
X212646700Y-74973300D01*
X212646700Y-74973300D02*
X215620000Y-72000000D01*
X95620000Y-59299100D02*
X99998800Y-59299100D01*
X99998800Y-59299100D02*
X108699700Y-68000000D01*
X88000000Y-78000000D02*
X90459600Y-75540400D01*
X90459600Y-75540400D02*
X90459600Y-64459500D01*
X90459600Y-64459500D02*
X95620000Y-59299100D01*
X95620000Y-59000000D02*
X95620000Y-59299100D01*
X110000000Y-68000000D02*
X108699700Y-68000000D01*
X95620000Y-87000000D02*
X95620000Y-85699700D01*
X95620000Y-85699700D02*
X88000000Y-78079700D01*
X88000000Y-78079700D02*
X88000000Y-78000000D01*
X95620000Y-59000000D02*
X95620000Y-37935000D01*
X109079600Y-107304200D02*
X109079600Y-95920400D01*
X109079600Y-95920400D02*
X110000000Y-95000000D01*
X110380000Y-136000000D02*
X109079600Y-134699600D01*
X109079600Y-134699600D02*
X109079600Y-107304200D01*
X109079600Y-107304200D02*
X89304200Y-107304200D01*
X89304200Y-107304200D02*
X88000000Y-106000000D01*
X322375000Y-223912700D02*
X322375000Y-225000000D01*
X307000000Y-211000000D02*
X309462300Y-211000000D01*
X309462300Y-211000000D02*
X322375000Y-223912700D01*
X307000000Y-211000000D02*
X307000000Y-207000000D01*
X295000000Y-73000000D02*
X296680400Y-74680400D01*
X296680400Y-74680400D02*
X296680400Y-91699600D01*
X296680400Y-91699600D02*
X295380000Y-93000000D01*
X144620000Y-154699700D02*
X145592000Y-153727700D01*
X145592000Y-153727700D02*
X145592000Y-146067200D01*
X145592000Y-146067200D02*
X144317300Y-144792500D01*
X144317300Y-144792500D02*
X144317300Y-119302700D01*
X144317300Y-119302700D02*
X145620000Y-118000000D01*
X275000000Y-154000000D02*
X271000000Y-150000000D01*
X271000000Y-150000000D02*
X271000000Y-132000000D01*
X320000000Y-155000000D02*
X324438400Y-150561600D01*
X324438400Y-150561600D02*
X324438400Y-130181600D01*
X324438400Y-130181600D02*
X327620000Y-127000000D01*
X230620000Y-126699700D02*
X231704000Y-126699700D01*
X231704000Y-126699700D02*
X232959800Y-125443900D01*
X232959800Y-125443900D02*
X232959800Y-121097300D01*
X232959800Y-121097300D02*
X247000000Y-107057100D01*
X327625000Y-225000000D02*
X326856200Y-225768800D01*
X326856200Y-225768800D02*
X326856200Y-226856100D01*
X326856200Y-223143800D02*
X327625000Y-223912600D01*
X327625000Y-223912600D02*
X327625000Y-225000000D01*
X137000000Y-176000000D02*
X138911800Y-174088200D01*
X138911800Y-174088200D02*
X138911800Y-161708200D01*
X138911800Y-161708200D02*
X144620000Y-156000000D01*
X295380000Y-93000000D02*
X295380000Y-94300300D01*
X295380000Y-94300300D02*
X296000000Y-94920300D01*
X296000000Y-94920300D02*
X296000000Y-107000000D01*
X179000000Y-61000000D02*
X181635000Y-63635000D01*
X181635000Y-63635000D02*
X181635000Y-64566000D01*
X294000000Y-56000000D02*
X294000000Y-49680300D01*
X294000000Y-48380000D02*
X294000000Y-49680300D01*
X144620000Y-156000000D02*
X144620000Y-154699700D01*
X137000000Y-176000000D02*
X139000000Y-178000000D01*
X139000000Y-178000000D02*
X139000000Y-197000000D01*
X116000000Y-175700000D02*
X117306700Y-177006700D01*
X117306700Y-177006700D02*
X117306700Y-184693300D01*
X117306700Y-184693300D02*
X116000000Y-186000000D01*
X116000000Y-175700000D02*
X121218500Y-170481500D01*
X121218500Y-170481500D02*
X121218500Y-165401500D01*
X121218500Y-165401500D02*
X123620000Y-163000000D01*
X294000000Y-48380000D02*
X295305900Y-47074100D01*
X295305900Y-47074100D02*
X322456100Y-47074100D01*
X322456100Y-47074100D02*
X323344600Y-47962600D01*
X323344600Y-47962600D02*
X323344600Y-54655400D01*
X323344600Y-54655400D02*
X322000000Y-56000000D01*
X243000000Y-178699700D02*
X232300300Y-168000000D01*
X232300300Y-168000000D02*
X231920300Y-168000000D01*
X242909400Y-204894100D02*
X241811100Y-203795900D01*
X241811100Y-203795900D02*
X238673200Y-203795900D01*
X238673200Y-203795900D02*
X238479400Y-203602100D01*
X238479400Y-203602100D02*
X238390300Y-203602100D01*
X238390300Y-203602100D02*
X238245300Y-203457100D01*
X238245300Y-203457100D02*
X238032900Y-203457100D01*
X238032900Y-203457100D02*
X237968300Y-203392500D01*
X237968300Y-203392500D02*
X237464000Y-203392500D01*
X237464000Y-203392500D02*
X234805900Y-200734400D01*
X234805900Y-200734400D02*
X234654700Y-200734400D01*
X234654700Y-200734400D02*
X231920300Y-198000000D01*
X204620000Y-151000000D02*
X205920300Y-151000000D01*
X223000000Y-164000000D02*
X218920300Y-164000000D01*
X218920300Y-164000000D02*
X205920300Y-151000000D01*
X95620000Y-37935000D02*
X95777300Y-37935000D01*
X95777300Y-37935000D02*
X96856200Y-36856100D01*
X95000000Y-37625000D02*
X95310000Y-37935000D01*
X95310000Y-37935000D02*
X95620000Y-37935000D01*
X93143900Y-36856100D02*
X94231100Y-36856100D01*
X94231100Y-36856100D02*
X95000000Y-37625000D01*
X322000000Y-56000000D02*
X322000000Y-72629600D01*
X322000000Y-72629600D02*
X332250400Y-82880000D01*
X332250400Y-82880000D02*
X332250400Y-88250400D01*
X332250400Y-88250400D02*
X333540000Y-89540000D01*
X243000000Y-207000000D02*
X243000000Y-204984800D01*
X243000000Y-204984800D02*
X242909400Y-204894100D01*
X244300400Y-180650200D02*
X244300400Y-203503100D01*
X244300400Y-203503100D02*
X242909400Y-204894100D01*
X230620000Y-198000000D02*
X231920300Y-198000000D01*
X250620000Y-180000000D02*
X249319700Y-180000000D01*
X243000000Y-179349800D02*
X244300400Y-180650200D01*
X244300400Y-180650200D02*
X248669500Y-180650200D01*
X248669500Y-180650200D02*
X249319700Y-180000000D01*
X97625000Y-35000000D02*
X96856200Y-35768800D01*
X96856200Y-35768800D02*
X96856200Y-36856100D01*
X97625000Y-35000000D02*
X96856200Y-34231200D01*
X96856200Y-34231200D02*
X96856200Y-33143800D01*
X118000000Y-142000000D02*
X118000000Y-136000000D01*
X123620000Y-161699700D02*
X118000000Y-156079700D01*
X118000000Y-156079700D02*
X118000000Y-142000000D01*
X247000000Y-107057100D02*
X249376800Y-107057100D01*
X249376800Y-107057100D02*
X253319700Y-111000000D01*
X247000000Y-107057100D02*
X247000000Y-105000000D01*
X254620000Y-111000000D02*
X253319700Y-111000000D01*
X243000000Y-179349800D02*
X243000000Y-178699700D01*
X243000000Y-180000000D02*
X243000000Y-179349800D01*
X174620000Y-112000000D02*
X173319700Y-112000000D01*
X168000000Y-107000000D02*
X168319700Y-107000000D01*
X168319700Y-107000000D02*
X173319700Y-112000000D01*
X123620000Y-163000000D02*
X123620000Y-161699700D01*
X160000000Y-158620000D02*
X161314600Y-157305400D01*
X161314600Y-157305400D02*
X161314600Y-152314600D01*
X161314600Y-152314600D02*
X160000000Y-151000000D01*
X176000000Y-212380000D02*
X176000000Y-220000000D01*
X175000000Y-200300300D02*
X176000000Y-201300300D01*
X176000000Y-201300300D02*
X176000000Y-212380000D01*
X175000000Y-199000000D02*
X175000000Y-200300300D01*
X230620000Y-168000000D02*
X231920300Y-168000000D01*
X230620000Y-128000000D02*
X230620000Y-126699700D01*
X147620000Y-205000000D02*
X146319700Y-205000000D01*
X139000000Y-197000000D02*
X146319700Y-204319700D01*
X146319700Y-204319700D02*
X146319700Y-205000000D01*
X264000000Y-56000000D02*
X264000000Y-60000000D01*
X197000000Y-151000000D02*
X197000000Y-149699700D01*
X196500000Y-146000000D02*
X196500000Y-149199700D01*
X196500000Y-149199700D02*
X197000000Y-149699700D01*
X160000000Y-145000000D02*
X160000000Y-151000000D01*
%TO.N,GNDREF*%
X278500000Y-132000000D02*
X278500000Y-133300300D01*
X282500000Y-154000000D02*
X282500000Y-137300300D01*
X282500000Y-137300300D02*
X278500000Y-133300300D01*
X282500000Y-154650100D02*
X282500000Y-154000000D01*
X282500000Y-154650100D02*
X282500000Y-155300300D01*
X275000000Y-173890100D02*
X279800400Y-169089700D01*
X279800400Y-169089700D02*
X279800400Y-157999900D01*
X279800400Y-157999900D02*
X282500000Y-155300300D01*
X275000000Y-173890100D02*
X275000000Y-174540300D01*
X275000000Y-173240000D02*
X275000000Y-173890100D01*
X278500000Y-132000000D02*
X277199700Y-132000000D01*
X277199700Y-132000000D02*
X273059700Y-127860000D01*
X273059700Y-127860000D02*
X272315300Y-127860000D01*
X272315300Y-127860000D02*
X272315300Y-103840200D01*
X272315300Y-103840200D02*
X266622400Y-98147300D01*
X266622400Y-98147300D02*
X264000000Y-98147300D01*
X167500000Y-145000000D02*
X167500000Y-146300300D01*
X167500000Y-146300300D02*
X166199700Y-147600600D01*
X166199700Y-147600600D02*
X166199700Y-157500300D01*
X166199700Y-157500300D02*
X160000000Y-163700000D01*
X167000000Y-131080300D02*
X167500000Y-131580300D01*
X167500000Y-131580300D02*
X167500000Y-145000000D01*
X110500000Y-140699700D02*
X116699700Y-134500000D01*
X116699700Y-134500000D02*
X116699700Y-133460000D01*
X316860000Y-56000000D02*
X316860000Y-54699700D01*
X322000000Y-48500000D02*
X322000000Y-49800300D01*
X322000000Y-49800300D02*
X317100600Y-54699700D01*
X317100600Y-54699700D02*
X316860000Y-54699700D01*
X223000000Y-143240000D02*
X223000000Y-144540300D01*
X230500000Y-164000000D02*
X230500000Y-152040300D01*
X230500000Y-152040300D02*
X223000000Y-144540300D01*
X230500000Y-164650100D02*
X230500000Y-164000000D01*
X303500000Y-107000000D02*
X303500000Y-108300300D01*
X303500000Y-108300300D02*
X300449100Y-111351200D01*
X300449100Y-111351200D02*
X300449100Y-121790900D01*
X300449100Y-121790900D02*
X296000000Y-126240000D01*
X272315300Y-127860000D02*
X271000000Y-127860000D01*
X264000000Y-98147300D02*
X260052400Y-98147300D01*
X260052400Y-98147300D02*
X254500000Y-103699700D01*
X264000000Y-84160300D02*
X264000000Y-98147300D01*
X197860000Y-199000000D02*
X197860000Y-197699700D01*
X197000000Y-173860000D02*
X197000000Y-175160300D01*
X197000000Y-175160300D02*
X199181400Y-177341700D01*
X199181400Y-177341700D02*
X199181400Y-196378300D01*
X199181400Y-196378300D02*
X197860000Y-197699700D01*
X197000000Y-171320000D02*
X197000000Y-173860000D01*
X160000000Y-163700000D02*
X160000000Y-164939700D01*
X275000000Y-174540300D02*
X273697100Y-175843200D01*
X273697100Y-175843200D02*
X273697100Y-196937100D01*
X273697100Y-196937100D02*
X275000000Y-198240000D01*
X160000000Y-166240000D02*
X160000000Y-164939700D01*
X144500000Y-176000000D02*
X144500000Y-174699700D01*
X144620000Y-168700000D02*
X143310200Y-170009800D01*
X143310200Y-170009800D02*
X143310200Y-173509900D01*
X143310200Y-173509900D02*
X144500000Y-174699700D01*
X280000000Y-36380000D02*
X320995000Y-36380000D01*
X320995000Y-36380000D02*
X322375000Y-35000000D01*
X149300300Y-87240000D02*
X154290900Y-82249400D01*
X154290900Y-82249400D02*
X154290900Y-69509400D01*
X154290900Y-69509400D02*
X155500000Y-68300300D01*
X320000000Y-151160300D02*
X307000000Y-164160300D01*
X307000000Y-164160300D02*
X307000000Y-184140000D01*
X254500000Y-105000000D02*
X254500000Y-103699700D01*
X264000000Y-82860000D02*
X264000000Y-84160300D01*
X145500000Y-114000000D02*
X145500000Y-115300300D01*
X138000000Y-133240000D02*
X143222400Y-128017600D01*
X143222400Y-128017600D02*
X143222400Y-117577900D01*
X143222400Y-117577900D02*
X145500000Y-115300300D01*
X186000000Y-35380000D02*
X186000000Y-36580300D01*
X186500000Y-61000000D02*
X186500000Y-59699700D01*
X186500000Y-59699700D02*
X184750100Y-57949800D01*
X184750100Y-57949800D02*
X184750100Y-37830200D01*
X184750100Y-37830200D02*
X186000000Y-36580300D01*
X179000000Y-82780000D02*
X179000000Y-84080300D01*
X145500000Y-114000000D02*
X145500000Y-112699700D01*
X145500000Y-112699700D02*
X148000000Y-110199700D01*
X148000000Y-110199700D02*
X148000000Y-88540300D01*
X118000000Y-133460000D02*
X116699700Y-133460000D01*
X110500000Y-142000000D02*
X110500000Y-140699700D01*
X223000000Y-184540300D02*
X229199700Y-190740000D01*
X229199700Y-190740000D02*
X229199700Y-194000000D01*
X148000000Y-87240000D02*
X148000000Y-88540300D01*
X230500000Y-194000000D02*
X229199700Y-194000000D01*
X197860000Y-199000000D02*
X197860000Y-200300300D01*
X200166400Y-213240000D02*
X200166400Y-217393300D01*
X200166400Y-217393300D02*
X198860000Y-218699700D01*
X221699700Y-213240000D02*
X200166400Y-213240000D01*
X197860000Y-200300300D02*
X200166400Y-202606700D01*
X200166400Y-202606700D02*
X200166400Y-213240000D01*
X269200300Y-36380000D02*
X269600200Y-36779900D01*
X269600200Y-36779900D02*
X270399800Y-36779900D01*
X270399800Y-36779900D02*
X270799700Y-36380000D01*
X270399800Y-36779900D02*
X270399800Y-53599500D01*
X270399800Y-53599500D02*
X271500000Y-54699700D01*
X271500000Y-56000000D02*
X271500000Y-54699700D01*
X96856200Y-223143800D02*
X95768800Y-223143800D01*
X95768800Y-223143800D02*
X95000000Y-222375000D01*
X97625000Y-223528200D02*
X97240600Y-223528200D01*
X97240600Y-223528200D02*
X96856200Y-223143800D01*
X95000000Y-222375000D02*
X94746700Y-222121700D01*
X94746700Y-222121700D02*
X94493400Y-222121700D01*
X324297200Y-34615600D02*
X323143900Y-35768900D01*
X325000000Y-35000000D02*
X324615600Y-34615600D01*
X324615600Y-34615600D02*
X324297200Y-34615600D01*
X324297200Y-34615600D02*
X324297200Y-34297200D01*
X324297200Y-34297200D02*
X324231200Y-34231200D01*
X324231200Y-34231200D02*
X324231200Y-33143800D01*
X323143900Y-35768900D02*
X323143900Y-36856100D01*
X322375000Y-35000000D02*
X323143900Y-35768900D01*
X320000000Y-132080000D02*
X321300300Y-130779700D01*
X321300300Y-130779700D02*
X321300300Y-127000000D01*
X272000000Y-36380000D02*
X270799700Y-36380000D01*
X97625000Y-223528200D02*
X110411500Y-223528200D01*
X110411500Y-223528200D02*
X113699700Y-220240000D01*
X97625000Y-223528200D02*
X97625000Y-225000000D01*
X115000000Y-220240000D02*
X113699700Y-220240000D01*
X94493400Y-222121700D02*
X94166000Y-222121700D01*
X94166000Y-222121700D02*
X93143900Y-223143800D01*
X94493400Y-222121700D02*
X94493400Y-206006600D01*
X94493400Y-206006600D02*
X96000000Y-204500000D01*
X321300300Y-127000000D02*
X321300300Y-104319700D01*
X321300300Y-104319700D02*
X333540000Y-92080000D01*
X320000000Y-127000000D02*
X321300300Y-127000000D01*
X324231200Y-33143800D02*
X325000000Y-32375000D01*
X323143900Y-33143800D02*
X324231200Y-33143800D01*
X230500000Y-194000000D02*
X231800300Y-194000000D01*
X268000000Y-36380000D02*
X269200300Y-36380000D01*
X239750000Y-38205300D02*
X237025600Y-38205300D01*
X237025600Y-38205300D02*
X235200300Y-36380000D01*
X241000000Y-37580300D02*
X240375000Y-38205300D01*
X240375000Y-38205300D02*
X239750000Y-38205300D01*
X239750000Y-38205300D02*
X239750000Y-58949700D01*
X239750000Y-58949700D02*
X240500000Y-59699700D01*
X234000000Y-36380000D02*
X235200300Y-36380000D01*
X223000000Y-213240000D02*
X221699700Y-213240000D01*
X95500000Y-106000000D02*
X96800300Y-106000000D01*
X110000000Y-90860000D02*
X110000000Y-92160300D01*
X110000000Y-92160300D02*
X96800300Y-105360000D01*
X96800300Y-105360000D02*
X96800300Y-106000000D01*
X96000000Y-204500000D02*
X96000000Y-203149700D01*
X97500000Y-188000000D02*
X97500000Y-201649700D01*
X97500000Y-201649700D02*
X96000000Y-203149700D01*
X231800300Y-194000000D02*
X240660300Y-202860000D01*
X240660300Y-202860000D02*
X241699700Y-202860000D01*
X170000000Y-191500000D02*
X170000000Y-192800300D01*
X170000000Y-192800300D02*
X171337400Y-194137700D01*
X171337400Y-194137700D02*
X171337400Y-210862300D01*
X171337400Y-210862300D02*
X171000000Y-211199700D01*
X170300300Y-182860000D02*
X170000000Y-183160300D01*
X170000000Y-183160300D02*
X170000000Y-191500000D01*
X171000000Y-212500000D02*
X171000000Y-211199700D01*
X144500000Y-176000000D02*
X144500000Y-177300300D01*
X146500000Y-197000000D02*
X146500000Y-179300300D01*
X146500000Y-179300300D02*
X144500000Y-177300300D01*
X223000000Y-183240000D02*
X224300300Y-183240000D01*
X224300300Y-183240000D02*
X225892600Y-181647700D01*
X225892600Y-181647700D02*
X225892600Y-169907700D01*
X225892600Y-169907700D02*
X230500000Y-165300300D01*
X148000000Y-87240000D02*
X149300300Y-87240000D01*
X320000000Y-149860000D02*
X320000000Y-151160300D01*
X320000000Y-147320000D02*
X320000000Y-149860000D01*
X243000000Y-202860000D02*
X241699700Y-202860000D01*
X116000000Y-173160000D02*
X116000000Y-170620000D01*
X170300300Y-182860000D02*
X178000000Y-175160300D01*
X170300300Y-182860000D02*
X161300300Y-173860000D01*
X160000000Y-173860000D02*
X161300300Y-173860000D01*
X197000000Y-168780000D02*
X197000000Y-171320000D01*
X197000000Y-166240000D02*
X197000000Y-168780000D01*
X197000000Y-163700000D02*
X197000000Y-166240000D01*
X110500000Y-142000000D02*
X110500000Y-165120000D01*
X110500000Y-165120000D02*
X116000000Y-170620000D01*
X118000000Y-115680000D02*
X118000000Y-113140000D01*
X118000000Y-118220000D02*
X118000000Y-115680000D01*
X118000000Y-120760000D02*
X118000000Y-118220000D01*
X118000000Y-123300000D02*
X118000000Y-120760000D01*
X160000000Y-171320000D02*
X160000000Y-173860000D01*
X160000000Y-168780000D02*
X160000000Y-171320000D01*
X160000000Y-166240000D02*
X160000000Y-168780000D01*
X178000000Y-166240000D02*
X178000000Y-163700000D01*
X178000000Y-168780000D02*
X178000000Y-166240000D01*
X178000000Y-171320000D02*
X178000000Y-168780000D01*
X117500000Y-95000000D02*
X117500000Y-96300300D01*
X117500000Y-96300300D02*
X118000000Y-96800300D01*
X118000000Y-96800300D02*
X118000000Y-113140000D01*
X198860000Y-220000000D02*
X198860000Y-218699700D01*
X230500000Y-164650100D02*
X230500000Y-165300300D01*
X175500000Y-107000000D02*
X175500000Y-105699700D01*
X175500000Y-105699700D02*
X179000000Y-102199700D01*
X179000000Y-102199700D02*
X179000000Y-84080300D01*
X122500000Y-201000000D02*
X122500000Y-199699700D01*
X122500000Y-199699700D02*
X123500000Y-198699700D01*
X123500000Y-198699700D02*
X123500000Y-186000000D01*
X155500000Y-67000000D02*
X155500000Y-68300300D01*
X178000000Y-173860000D02*
X178000000Y-175160300D01*
X240500000Y-61000000D02*
X240500000Y-59699700D01*
X241000000Y-36380000D02*
X241000000Y-37580300D01*
X223000000Y-183240000D02*
X223000000Y-184540300D01*
X167000000Y-129780000D02*
X167000000Y-131080300D01*
X326856200Y-33143800D02*
X327625000Y-33912600D01*
X327625000Y-33912600D02*
X327625000Y-35000000D01*
D24*
%TO.N,/S1*%
X262874700Y-65080000D02*
X260328700Y-62534000D01*
X260328700Y-62534000D02*
X258850700Y-62534000D01*
X264000000Y-65080000D02*
X262874700Y-65080000D01*
%TO.N,Net-(ADD4.0-Pad2)*%
X148000000Y-84700000D02*
X149725200Y-84700000D01*
X149725200Y-84700000D02*
X153390600Y-81034600D01*
%TO.N,/A1*%
X275000000Y-164494700D02*
X275281400Y-164494700D01*
X275281400Y-164494700D02*
X276125300Y-163650800D01*
X276125300Y-163650800D02*
X276125300Y-160033700D01*
X276125300Y-160033700D02*
X275217000Y-159125400D01*
X275217000Y-159125400D02*
X273995300Y-159125400D01*
X273995300Y-159125400D02*
X267518500Y-152648600D01*
X267518500Y-152648600D02*
X267518500Y-101629800D01*
X179000000Y-70080000D02*
X179000000Y-68954700D01*
X144000000Y-37460000D02*
X145631100Y-35828900D01*
X145631100Y-35828900D02*
X154189900Y-35828900D01*
X154189900Y-35828900D02*
X155430000Y-37069000D01*
X155430000Y-37069000D02*
X155430000Y-45561600D01*
X155430000Y-45561600D02*
X178823100Y-68954700D01*
X178823100Y-68954700D02*
X179000000Y-68954700D01*
X181381000Y-92207100D02*
X181692600Y-91895500D01*
X181692600Y-91895500D02*
X181692600Y-72772600D01*
X181692600Y-72772600D02*
X179000000Y-70080000D01*
X177540000Y-199000000D02*
X177540000Y-197874700D01*
X178791900Y-177759200D02*
X176414700Y-180136400D01*
X176414700Y-180136400D02*
X176414700Y-196749400D01*
X176414700Y-196749400D02*
X177540000Y-197874700D01*
X275000000Y-165620000D02*
X275000000Y-164494700D01*
X183620000Y-220000000D02*
X183620000Y-218874700D01*
X177540000Y-199000000D02*
X177540000Y-200125300D01*
X177540000Y-200125300D02*
X177340700Y-200324600D01*
X177340700Y-200324600D02*
X177340700Y-212876700D01*
X177340700Y-212876700D02*
X183338700Y-218874700D01*
X183338700Y-218874700D02*
X183620000Y-218874700D01*
%TO.N,/A3*%
X282620000Y-167034700D02*
X282901300Y-167034700D01*
X282901300Y-167034700D02*
X290861800Y-159074200D01*
X290861800Y-159074200D02*
X290861800Y-88202200D01*
X290861800Y-88202200D02*
X295098700Y-83965300D01*
X295098700Y-83965300D02*
X295380000Y-83965300D01*
X181205400Y-176284300D02*
X181205400Y-162756700D01*
X181205400Y-162756700D02*
X178409400Y-159960700D01*
X178409400Y-159960700D02*
X177522400Y-159960700D01*
X177522400Y-159960700D02*
X176746800Y-159185100D01*
X176746800Y-159185100D02*
X176746800Y-158657800D01*
X176746800Y-158657800D02*
X175413800Y-157324800D01*
X175413800Y-157324800D02*
X175413800Y-136400200D01*
X175413800Y-136400200D02*
X167452900Y-128439300D01*
X167452900Y-128439300D02*
X166588200Y-128439300D01*
X166588200Y-128439300D02*
X164981100Y-126832200D01*
X164981100Y-126832200D02*
X164981100Y-90062600D01*
X164981100Y-90062600D02*
X178613700Y-76430000D01*
X178613700Y-76430000D02*
X179620500Y-76430000D01*
X179620500Y-76430000D02*
X180444000Y-75606500D01*
X146540000Y-37460000D02*
X147690400Y-38610400D01*
X147690400Y-38610400D02*
X147690400Y-40237200D01*
X147690400Y-40237200D02*
X175924100Y-68470900D01*
X175924100Y-68470900D02*
X175924100Y-71141000D01*
X175924100Y-71141000D02*
X178528500Y-73745400D01*
X178528500Y-73745400D02*
X179257700Y-73745400D01*
X179257700Y-73745400D02*
X180444000Y-74931700D01*
X180444000Y-74931700D02*
X180444000Y-75606500D01*
X295380000Y-82840000D02*
X295380000Y-83965300D01*
X282620000Y-168160000D02*
X282620000Y-167034700D01*
X181205400Y-176284300D02*
X181205400Y-191727600D01*
X181205400Y-191727600D02*
X182620000Y-193142200D01*
X182620000Y-193142200D02*
X182620000Y-199000000D01*
X188700000Y-220000000D02*
X188700000Y-218874700D01*
X182620000Y-199000000D02*
X182620000Y-200125300D01*
X182620000Y-200125300D02*
X182485000Y-200260300D01*
X182485000Y-200260300D02*
X182485000Y-212941000D01*
X182485000Y-212941000D02*
X188418700Y-218874700D01*
X188418700Y-218874700D02*
X188700000Y-218874700D01*
%TO.N,SR_COUT*%
X292564500Y-133626700D02*
X292564500Y-112370200D01*
X292564500Y-112370200D02*
X295222500Y-109712200D01*
X295222500Y-109712200D02*
X295779800Y-109712200D01*
X295779800Y-109712200D02*
X303000000Y-102492000D01*
X303000000Y-102492000D02*
X303000000Y-93000000D01*
X157509700Y-175557000D02*
X157509700Y-196871700D01*
X157509700Y-196871700D02*
X148111400Y-206270000D01*
X148111400Y-206270000D02*
X142395300Y-206270000D01*
X142395300Y-206270000D02*
X141125300Y-207540000D01*
X160000000Y-154665300D02*
X159718700Y-154665300D01*
X159718700Y-154665300D02*
X157509700Y-156874300D01*
X157509700Y-156874300D02*
X157509700Y-175557000D01*
X144000000Y-41150300D02*
X147201300Y-41150300D01*
X147201300Y-41150300D02*
X162891700Y-56840700D01*
X162891700Y-56840700D02*
X162891700Y-60177000D01*
X162891700Y-60177000D02*
X177874700Y-75160000D01*
X177874700Y-75160000D02*
X158774600Y-94260100D01*
X158774600Y-94260100D02*
X158774600Y-152033300D01*
X158774600Y-152033300D02*
X159156000Y-152414700D01*
X159156000Y-152414700D02*
X160000000Y-152414700D01*
X160000000Y-153540000D02*
X160000000Y-152414700D01*
X144000000Y-40000000D02*
X144000000Y-41150300D01*
X160000000Y-153540000D02*
X160000000Y-154665300D01*
X179000000Y-75160000D02*
X177874700Y-75160000D01*
X140000000Y-207540000D02*
X141125300Y-207540000D01*
%TO.N,/S2*%
X262874700Y-67620000D02*
X254562400Y-59307700D01*
X186620000Y-72620000D02*
X185487800Y-71487800D01*
X185487800Y-71487800D02*
X185487800Y-69605000D01*
X185487800Y-69605000D02*
X186282800Y-68810000D01*
X186282800Y-68810000D02*
X187480600Y-68810000D01*
X187480600Y-68810000D02*
X196269500Y-60021100D01*
X264000000Y-67620000D02*
X262874700Y-67620000D01*
%TO.N,/A2*%
X146540000Y-40000000D02*
X146724600Y-40000000D01*
X146724600Y-40000000D02*
X175198800Y-68474200D01*
X175198800Y-68474200D02*
X175198800Y-68954700D01*
X295380000Y-91585300D02*
X294961500Y-91585300D01*
X294961500Y-91585300D02*
X291362500Y-95184300D01*
X291362500Y-95184300D02*
X291362500Y-163560500D01*
X291362500Y-163560500D02*
X283033500Y-171889500D01*
X283033500Y-171889500D02*
X282190600Y-171889500D01*
X282190600Y-171889500D02*
X280982900Y-170681800D01*
X280982900Y-170681800D02*
X280982900Y-163021100D01*
X280982900Y-163021100D02*
X282338700Y-161665300D01*
X282338700Y-161665300D02*
X282620000Y-161665300D01*
X186620000Y-71205300D02*
X186901300Y-71205300D01*
X186901300Y-71205300D02*
X200869700Y-85173700D01*
X200869700Y-85173700D02*
X200869700Y-151437400D01*
X200869700Y-151437400D02*
X204242300Y-154810000D01*
X204242300Y-154810000D02*
X204981300Y-154810000D01*
X204981300Y-154810000D02*
X218355300Y-168184000D01*
X218355300Y-168184000D02*
X218355300Y-169671200D01*
X218355300Y-169671200D02*
X200818600Y-187207900D01*
X200818600Y-187207900D02*
X200818600Y-189932800D01*
X186620000Y-70080000D02*
X186620000Y-71205300D01*
X180080000Y-199000000D02*
X180080000Y-200125300D01*
X180080000Y-200125300D02*
X179945000Y-200260300D01*
X179945000Y-200260300D02*
X179945000Y-213785000D01*
X179945000Y-213785000D02*
X186160000Y-220000000D01*
X295380000Y-90460000D02*
X295380000Y-91585300D01*
X282620000Y-160540000D02*
X282620000Y-161665300D01*
X230620000Y-179574700D02*
X230901300Y-179574700D01*
X230901300Y-179574700D02*
X232208400Y-178267600D01*
X232208400Y-178267600D02*
X232208400Y-171810000D01*
X230620000Y-180700000D02*
X230620000Y-179574700D01*
%TO.N,CarryIn*%
X179000000Y-80240000D02*
X179000000Y-81365300D01*
X166157200Y-100016500D02*
X166157200Y-93786100D01*
X166157200Y-93786100D02*
X178578000Y-81365300D01*
X178578000Y-81365300D02*
X179000000Y-81365300D01*
%TO.N,/S5*%
X264000000Y-75240000D02*
X262874700Y-75240000D01*
X232000000Y-65000000D02*
X233125300Y-65000000D01*
X262874700Y-75240000D02*
X254035200Y-66400500D01*
X254035200Y-66400500D02*
X234525800Y-66400500D01*
X234525800Y-66400500D02*
X233125300Y-65000000D01*
%TO.N,ADD_COUT*%
X200139800Y-91463500D02*
X200139800Y-100789800D01*
X200139800Y-100789800D02*
X174959600Y-125970000D01*
X174959600Y-125970000D02*
X174258100Y-125970000D01*
X174258100Y-125970000D02*
X171723300Y-128504800D01*
X171723300Y-128504800D02*
X195874700Y-152656200D01*
X195874700Y-152656200D02*
X195874700Y-153540000D01*
X168125300Y-127240000D02*
X169390100Y-128504800D01*
X169390100Y-128504800D02*
X171723300Y-128504800D01*
X137000000Y-156000000D02*
X138125300Y-156000000D01*
X138125300Y-156000000D02*
X138125300Y-155312400D01*
X138125300Y-155312400D02*
X144186000Y-149251700D01*
X167000000Y-127240000D02*
X168125300Y-127240000D01*
X197000000Y-153540000D02*
X195874700Y-153540000D01*
%TO.N,Net-(ADD4.1-Pad2)*%
X208000000Y-84700000D02*
X211693200Y-81006800D01*
X211693200Y-81006800D02*
X211693200Y-77491800D01*
%TO.N,ADD_N*%
X239620000Y-81365300D02*
X239338700Y-81365300D01*
X239338700Y-81365300D02*
X231745300Y-88958700D01*
X231745300Y-88958700D02*
X231745300Y-125365200D01*
X239620000Y-80240000D02*
X239620000Y-81365300D01*
%TO.N,/A5*%
X217185200Y-35032800D02*
X217334300Y-35181900D01*
X217334300Y-35181900D02*
X219846400Y-35181900D01*
X219846400Y-35181900D02*
X226953600Y-42289100D01*
X226953600Y-42289100D02*
X226953600Y-64189600D01*
X226953600Y-64189600D02*
X231718700Y-68954700D01*
X231718700Y-68954700D02*
X232000000Y-68954700D01*
X232000000Y-70080000D02*
X232000000Y-68954700D01*
X275000000Y-189494700D02*
X275262100Y-189494700D01*
X275262100Y-189494700D02*
X277286300Y-187470500D01*
X277286300Y-187470500D02*
X277286300Y-184179300D01*
X277286300Y-184179300D02*
X294190400Y-167275200D01*
X294190400Y-167275200D02*
X294190400Y-121273600D01*
X294190400Y-121273600D02*
X295718700Y-119745300D01*
X295718700Y-119745300D02*
X296000000Y-119745300D01*
X296000000Y-118620000D02*
X296000000Y-119745300D01*
X275000000Y-190620000D02*
X275000000Y-189494700D01*
X232000000Y-71205300D02*
X232281400Y-71205300D01*
X232281400Y-71205300D02*
X233125300Y-72049200D01*
X233125300Y-72049200D02*
X233125300Y-72877200D01*
X233125300Y-72877200D02*
X239218100Y-78970000D01*
X239218100Y-78970000D02*
X240017100Y-78970000D01*
X240017100Y-78970000D02*
X251692500Y-90645400D01*
X251692500Y-90645400D02*
X251692500Y-105732600D01*
X251692500Y-105732600D02*
X264762400Y-118802500D01*
X264762400Y-118802500D02*
X264762400Y-185527400D01*
X264762400Y-185527400D02*
X264237300Y-186052500D01*
X264237300Y-186052500D02*
X264237300Y-190620000D01*
X225975400Y-212028800D02*
X216725000Y-221279200D01*
X216725000Y-221279200D02*
X195903200Y-221279200D01*
X195903200Y-221279200D02*
X194905300Y-220281300D01*
X194905300Y-220281300D02*
X194905300Y-220000000D01*
X264237300Y-190620000D02*
X264237300Y-191939800D01*
X264237300Y-191939800D02*
X251710200Y-204466900D01*
X251710200Y-204466900D02*
X251300200Y-204466900D01*
X251300200Y-204466900D02*
X240867600Y-214899500D01*
X240867600Y-214899500D02*
X229624300Y-214899500D01*
X229624300Y-214899500D02*
X226753600Y-212028800D01*
X226753600Y-212028800D02*
X225975400Y-212028800D01*
X225975400Y-212028800D02*
X223376500Y-209430000D01*
X223376500Y-209430000D02*
X222598200Y-209430000D01*
X222598200Y-209430000D02*
X221874700Y-208706500D01*
X221874700Y-208706500D02*
X221874700Y-207589200D01*
X221874700Y-207589200D02*
X222718600Y-206745300D01*
X222718600Y-206745300D02*
X223000000Y-206745300D01*
X193780000Y-220000000D02*
X194905300Y-220000000D01*
X223000000Y-205620000D02*
X223000000Y-206745300D01*
X232000000Y-70080000D02*
X232000000Y-71205300D01*
X187700000Y-199000000D02*
X187700000Y-200125300D01*
X193780000Y-220000000D02*
X193780000Y-218874700D01*
X193780000Y-218874700D02*
X193498700Y-218874700D01*
X193498700Y-218874700D02*
X187503900Y-212879900D01*
X187503900Y-212879900D02*
X187503900Y-200321400D01*
X187503900Y-200321400D02*
X187700000Y-200125300D01*
%TO.N,SL_COUT*%
X303620000Y-121160000D02*
X303620000Y-122285300D01*
X282620000Y-193160000D02*
X282620000Y-192034700D01*
X282620000Y-192034700D02*
X282901300Y-192034700D01*
X282901300Y-192034700D02*
X304745300Y-170190700D01*
X304745300Y-170190700D02*
X304745300Y-123129200D01*
X304745300Y-123129200D02*
X303901400Y-122285300D01*
X303901400Y-122285300D02*
X303620000Y-122285300D01*
X239620000Y-75160000D02*
X240745300Y-75160000D01*
X287022700Y-122585800D02*
X287022700Y-116839400D01*
X287022700Y-116839400D02*
X278993300Y-108810000D01*
X278993300Y-108810000D02*
X278266700Y-108810000D01*
X278266700Y-108810000D02*
X265519000Y-96062300D01*
X265519000Y-96062300D02*
X265519000Y-82573700D01*
X265519000Y-82573700D02*
X264569000Y-81623700D01*
X264569000Y-81623700D02*
X247209000Y-81623700D01*
X247209000Y-81623700D02*
X240745300Y-75160000D01*
X112727400Y-85368300D02*
X116949100Y-89590000D01*
X116949100Y-89590000D02*
X117943300Y-89590000D01*
X117943300Y-89590000D02*
X123995700Y-95642400D01*
X123995700Y-95642400D02*
X123995700Y-133946400D01*
X178000000Y-153540000D02*
X178000000Y-154665300D01*
X178000000Y-154665300D02*
X178281300Y-154665300D01*
X178281300Y-154665300D02*
X183253600Y-159637600D01*
X183253600Y-159637600D02*
X183253600Y-174652100D01*
X183253600Y-174652100D02*
X191365400Y-182763900D01*
X191365400Y-182763900D02*
X191365400Y-191727600D01*
X191365400Y-191727600D02*
X192780000Y-193142200D01*
X192780000Y-193142200D02*
X192780000Y-199000000D01*
X112727400Y-85368300D02*
X112727400Y-73826700D01*
X112727400Y-73826700D02*
X117213400Y-69340700D01*
X117213400Y-69340700D02*
X118289200Y-69340700D01*
X118289200Y-69340700D02*
X140424300Y-47205600D01*
X140424300Y-47205600D02*
X140424300Y-41454700D01*
X140424300Y-41454700D02*
X143029400Y-38849600D01*
X143029400Y-38849600D02*
X144288000Y-38849600D01*
X144288000Y-38849600D02*
X145270000Y-37867600D01*
X145270000Y-37867600D02*
X145270000Y-37059400D01*
X145270000Y-37059400D02*
X146040900Y-36288500D01*
X146040900Y-36288500D02*
X150448500Y-36288500D01*
X150448500Y-36288500D02*
X151620000Y-37460000D01*
X95620000Y-97160000D02*
X98155300Y-97160000D01*
X98155300Y-97160000D02*
X108265300Y-87050000D01*
X108265300Y-87050000D02*
X111045700Y-87050000D01*
X111045700Y-87050000D02*
X112727400Y-85368300D01*
%TO.N,/A4*%
X275000000Y-181874700D02*
X275626100Y-181874700D01*
X275626100Y-181874700D02*
X293289800Y-164211000D01*
X293289800Y-164211000D02*
X293289800Y-114554200D01*
X293289800Y-114554200D02*
X295718700Y-112125300D01*
X295718700Y-112125300D02*
X296000000Y-112125300D01*
X232000000Y-75160000D02*
X232000000Y-76285300D01*
X230667700Y-95923700D02*
X230667700Y-77336300D01*
X230667700Y-77336300D02*
X231718700Y-76285300D01*
X231718700Y-76285300D02*
X232000000Y-76285300D01*
X296000000Y-111000000D02*
X296000000Y-112125300D01*
X275000000Y-183000000D02*
X275000000Y-181874700D01*
X223000000Y-196874700D02*
X220121600Y-193996300D01*
X220121600Y-193996300D02*
X220121600Y-183686900D01*
X223000000Y-198000000D02*
X223000000Y-196874700D01*
X191240000Y-220000000D02*
X191240000Y-218874700D01*
X185160000Y-199000000D02*
X185160000Y-200125300D01*
X185160000Y-200125300D02*
X185025000Y-200260300D01*
X185025000Y-200260300D02*
X185025000Y-212941000D01*
X185025000Y-212941000D02*
X190958700Y-218874700D01*
X190958700Y-218874700D02*
X191240000Y-218874700D01*
%TO.N,SL_N*%
X238494700Y-70080000D02*
X238394700Y-70180000D01*
X238394700Y-70180000D02*
X236241200Y-70180000D01*
X236241200Y-70180000D02*
X232186600Y-66125400D01*
X232186600Y-66125400D02*
X231020800Y-66125400D01*
X231020800Y-66125400D02*
X227403900Y-62508500D01*
X227403900Y-62508500D02*
X227403900Y-42035100D01*
X227403900Y-42035100D02*
X220100400Y-34731600D01*
X220100400Y-34731600D02*
X217909900Y-34731600D01*
X217909900Y-34731600D02*
X217474300Y-34296000D01*
X217474300Y-34296000D02*
X215943500Y-34296000D01*
X215943500Y-34296000D02*
X215659000Y-34580500D01*
X270834100Y-98893200D02*
X267235000Y-95294100D01*
X267235000Y-95294100D02*
X267235000Y-81937400D01*
X267235000Y-81937400D02*
X264347600Y-79050000D01*
X264347600Y-79050000D02*
X248027400Y-79050000D01*
X248027400Y-79050000D02*
X239057400Y-70080000D01*
X239057400Y-70080000D02*
X238494700Y-70080000D01*
X239620000Y-70080000D02*
X239057400Y-70080000D01*
X190240000Y-199000000D02*
X190240000Y-200125300D01*
X196320000Y-220000000D02*
X196320000Y-218874700D01*
X196320000Y-218874700D02*
X196038700Y-218874700D01*
X196038700Y-218874700D02*
X190066400Y-212902400D01*
X190066400Y-212902400D02*
X190066400Y-200298900D01*
X190066400Y-200298900D02*
X190240000Y-200125300D01*
X178000000Y-157205300D02*
X178422000Y-157205300D01*
X178422000Y-157205300D02*
X181826200Y-160609500D01*
X181826200Y-160609500D02*
X181826200Y-175879300D01*
X181826200Y-175879300D02*
X188915500Y-182968600D01*
X188915500Y-182968600D02*
X188915500Y-192590900D01*
X188915500Y-192590900D02*
X190240000Y-193915400D01*
X190240000Y-193915400D02*
X190240000Y-199000000D01*
X178000000Y-156080000D02*
X178000000Y-157205300D01*
X95620000Y-89540000D02*
X96745300Y-89540000D01*
X128209800Y-58377800D02*
X125475500Y-58377800D01*
X125475500Y-58377800D02*
X111607100Y-72246200D01*
X111607100Y-72246200D02*
X111607100Y-75621900D01*
X111607100Y-75621900D02*
X110412900Y-76816100D01*
X110412900Y-76816100D02*
X109469200Y-76816100D01*
X109469200Y-76816100D02*
X96745300Y-89540000D01*
X231745300Y-210700000D02*
X231843400Y-210798100D01*
X231843400Y-210798100D02*
X243189600Y-210798100D01*
X243189600Y-210798100D02*
X248325900Y-205661800D01*
X248325900Y-205661800D02*
X248325900Y-200976000D01*
X248325900Y-200976000D02*
X250233500Y-199068400D01*
X250233500Y-199068400D02*
X250936100Y-199068400D01*
X250936100Y-199068400D02*
X263296700Y-186707800D01*
X263296700Y-186707800D02*
X263296700Y-184370800D01*
X230620000Y-210700000D02*
X231745300Y-210700000D01*
X303620000Y-114665300D02*
X303338700Y-114665300D01*
X303338700Y-114665300D02*
X301074500Y-116929500D01*
X301074500Y-116929500D02*
X301074500Y-166305200D01*
X301074500Y-166305200D02*
X282965000Y-184414700D01*
X282965000Y-184414700D02*
X282620000Y-184414700D01*
X282620000Y-185540000D02*
X282620000Y-184414700D01*
X303620000Y-113540000D02*
X303620000Y-114665300D01*
%TO.N,Net-(ADD4.1-Pad15)*%
X239620000Y-67540000D02*
X239620000Y-68665300D01*
X239620000Y-68665300D02*
X238644800Y-68665300D01*
X238644800Y-68665300D02*
X237855400Y-69454700D01*
%TO.N,ADD_CX*%
X138125300Y-158540000D02*
X138125300Y-157786100D01*
X138125300Y-157786100D02*
X144672400Y-151239000D01*
X137000000Y-158540000D02*
X138125300Y-158540000D01*
%TO.N,/A9*%
X167000000Y-115954700D02*
X166718700Y-115954700D01*
X166718700Y-115954700D02*
X165431900Y-114667900D01*
X165431900Y-114667900D02*
X165431900Y-92205400D01*
X165431900Y-92205400D02*
X178667300Y-78970000D01*
X178667300Y-78970000D02*
X179338000Y-78970000D01*
X179338000Y-78970000D02*
X181172400Y-77135600D01*
X181172400Y-77135600D02*
X181172400Y-73195600D01*
X181172400Y-73195600D02*
X179326800Y-71350000D01*
X179326800Y-71350000D02*
X178613600Y-71350000D01*
X178613600Y-71350000D02*
X176909800Y-69646200D01*
X176909800Y-69646200D02*
X176909800Y-68315100D01*
X176909800Y-68315100D02*
X152997400Y-44402700D01*
X152997400Y-44402700D02*
X152997400Y-38622600D01*
X152997400Y-38622600D02*
X154160000Y-37460000D01*
X167000000Y-117080000D02*
X167000000Y-115954700D01*
%TO.N,/A11*%
X156700000Y-37460000D02*
X158089600Y-38849600D01*
X158089600Y-38849600D02*
X158089600Y-46163600D01*
X158089600Y-46163600D02*
X178153700Y-66227700D01*
X178153700Y-66227700D02*
X179291000Y-66227700D01*
X179291000Y-66227700D02*
X182143000Y-69079700D01*
X182143000Y-69079700D02*
X182143000Y-106285800D01*
X182143000Y-106285800D02*
X175088100Y-113340700D01*
X175088100Y-113340700D02*
X174220500Y-113340700D01*
X174220500Y-113340700D02*
X173477300Y-114083900D01*
X173477300Y-114083900D02*
X173477300Y-120173300D01*
X173477300Y-120173300D02*
X174338700Y-121034700D01*
X174338700Y-121034700D02*
X174620000Y-121034700D01*
X156700000Y-37460000D02*
X154618600Y-35378600D01*
X154618600Y-35378600D02*
X144379200Y-35378600D01*
X144379200Y-35378600D02*
X129757800Y-50000000D01*
X129757800Y-50000000D02*
X125000000Y-50000000D01*
X174620000Y-122160000D02*
X174620000Y-121034700D01*
%TO.N,/A8*%
X186000000Y-43000000D02*
X187740600Y-44740600D01*
X187740600Y-44740600D02*
X187740600Y-61504800D01*
X187740600Y-61504800D02*
X183899700Y-65345700D01*
X183899700Y-65345700D02*
X183899700Y-114502300D01*
X183899700Y-114502300D02*
X175116700Y-123285300D01*
X175116700Y-123285300D02*
X169250600Y-123285300D01*
X169250600Y-123285300D02*
X168125300Y-122160000D01*
X167000000Y-122160000D02*
X168125300Y-122160000D01*
%TO.N,/A10*%
X182000000Y-43000000D02*
X182595900Y-43595900D01*
X182595900Y-43595900D02*
X182595900Y-108183100D01*
X182595900Y-108183100D02*
X174824300Y-115954700D01*
X174824300Y-115954700D02*
X174620000Y-115954700D01*
X174620000Y-117080000D02*
X174620000Y-115954700D01*
%TO.N,Net-(ADD4.3-Pad2)*%
X247000000Y-113540000D02*
X247000000Y-114665300D01*
X223000000Y-140700000D02*
X224125300Y-140700000D01*
X224125300Y-140700000D02*
X225315900Y-141890600D01*
X225315900Y-141890600D02*
X231039600Y-141890600D01*
X231039600Y-141890600D02*
X245874700Y-127055500D01*
X245874700Y-127055500D02*
X245874700Y-115509200D01*
X245874700Y-115509200D02*
X246718600Y-114665300D01*
X246718600Y-114665300D02*
X247000000Y-114665300D01*
%TO.N,/A13*%
X159240000Y-37460000D02*
X163858800Y-32841200D01*
X163858800Y-32841200D02*
X186982500Y-32841200D01*
X186982500Y-32841200D02*
X204477500Y-50336200D01*
X204477500Y-50336200D02*
X204477500Y-97553900D01*
X204477500Y-97553900D02*
X205519200Y-98595600D01*
X205519200Y-98595600D02*
X205519300Y-98595600D01*
X205519300Y-98595600D02*
X205519300Y-115132100D01*
X159240000Y-37460000D02*
X156258000Y-34478000D01*
X156258000Y-34478000D02*
X143169800Y-34478000D01*
X143169800Y-34478000D02*
X131126700Y-46521100D01*
X131126700Y-46521100D02*
X121478900Y-46521100D01*
X121478900Y-46521100D02*
X118000000Y-50000000D01*
%TO.N,Net-(ADD4.3-Pad11)*%
X254620000Y-123700000D02*
X253494700Y-123700000D01*
X230620000Y-143240000D02*
X234376700Y-143240000D01*
X234376700Y-143240000D02*
X253494700Y-124122000D01*
X253494700Y-124122000D02*
X253494700Y-123700000D01*
%TO.N,/A15*%
X161780000Y-37460000D02*
X165948400Y-33291600D01*
X165948400Y-33291600D02*
X186796000Y-33291600D01*
X186796000Y-33291600D02*
X204027200Y-50522800D01*
X204027200Y-50522800D02*
X204027200Y-114422800D01*
X204027200Y-114422800D02*
X204205800Y-114601400D01*
X111000000Y-50000000D02*
X112062600Y-51062600D01*
X112062600Y-51062600D02*
X120655400Y-51062600D01*
X120655400Y-51062600D02*
X124134700Y-47583300D01*
X124134700Y-47583300D02*
X131537400Y-47583300D01*
X131537400Y-47583300D02*
X144192400Y-34928300D01*
X144192400Y-34928300D02*
X155819600Y-34928300D01*
X155819600Y-34928300D02*
X157850400Y-36959100D01*
X157850400Y-36959100D02*
X157850400Y-37701500D01*
X157850400Y-37701500D02*
X158814600Y-38665700D01*
X158814600Y-38665700D02*
X160574300Y-38665700D01*
X160574300Y-38665700D02*
X161780000Y-37460000D01*
%TO.N,/A12*%
X178000000Y-43000000D02*
X178000000Y-41717000D01*
X178000000Y-41717000D02*
X185508000Y-34209000D01*
X185508000Y-34209000D02*
X186433600Y-34209000D01*
X186433600Y-34209000D02*
X201508700Y-49284100D01*
X201508700Y-49284100D02*
X201508700Y-113049000D01*
X201508700Y-113049000D02*
X202975800Y-114516100D01*
%TO.N,/A14*%
X174000000Y-43000000D02*
X175988800Y-43000000D01*
X175988800Y-43000000D02*
X185230200Y-33758600D01*
X185230200Y-33758600D02*
X186620100Y-33758600D01*
X186620100Y-33758600D02*
X202362400Y-49500900D01*
X202362400Y-49500900D02*
X202362400Y-111379800D01*
X174000000Y-43000000D02*
X164780000Y-43000000D01*
X164780000Y-43000000D02*
X161780000Y-40000000D01*
%TO.N,Net-(ADD4.3-Pad15)*%
X254620000Y-113540000D02*
X253494700Y-113540000D01*
X230620000Y-135620000D02*
X230620000Y-134494700D01*
X230620000Y-134494700D02*
X230901300Y-134494700D01*
X230901300Y-134494700D02*
X245277000Y-120119000D01*
X245277000Y-120119000D02*
X245277000Y-113640500D01*
X245277000Y-113640500D02*
X246502800Y-112414700D01*
X246502800Y-112414700D02*
X252369400Y-112414700D01*
X252369400Y-112414700D02*
X253494700Y-113540000D01*
%TO.N,Logical_N*%
X299380000Y-184140000D02*
X304810300Y-184140000D01*
X304810300Y-184140000D02*
X306066600Y-185396300D01*
X306066600Y-185396300D02*
X317629800Y-185396300D01*
X317629800Y-185396300D02*
X317855700Y-185170400D01*
X197860000Y-191380000D02*
X197860000Y-192505300D01*
X198860000Y-212380000D02*
X198860000Y-211254700D01*
X198860000Y-211254700D02*
X196622200Y-209016900D01*
X196622200Y-209016900D02*
X196622200Y-193743100D01*
X196622200Y-193743100D02*
X197860000Y-192505300D01*
X118000000Y-130920000D02*
X118000000Y-129794700D01*
X117620000Y-90860000D02*
X117620000Y-91985300D01*
X117620000Y-91985300D02*
X119232400Y-93597700D01*
X119232400Y-93597700D02*
X119232400Y-128984300D01*
X119232400Y-128984300D02*
X118422000Y-129794700D01*
X118422000Y-129794700D02*
X118000000Y-129794700D01*
X264037100Y-179781600D02*
X264037100Y-185615800D01*
X264037100Y-185615800D02*
X263778500Y-185874400D01*
X263778500Y-185874400D02*
X263778500Y-188857500D01*
X263778500Y-188857500D02*
X250901300Y-201734700D01*
X250901300Y-201734700D02*
X250620000Y-201734700D01*
X250620000Y-202860000D02*
X250620000Y-201734700D01*
X333540000Y-193620000D02*
X336056400Y-191103600D01*
X336056400Y-191103600D02*
X336056400Y-143759700D01*
X336056400Y-143759700D02*
X328042000Y-135745300D01*
X328042000Y-135745300D02*
X327620000Y-135745300D01*
X327620000Y-134620000D02*
X327620000Y-135745300D01*
%TO.N,/O6*%
X200091000Y-195357300D02*
X200091000Y-199445000D01*
X200091000Y-199445000D02*
X205095000Y-204449000D01*
X297273400Y-196592100D02*
X290964900Y-196592100D01*
X290964900Y-196592100D02*
X290823800Y-196733200D01*
X331000000Y-193620000D02*
X326651900Y-197968100D01*
X326651900Y-197968100D02*
X298649400Y-197968100D01*
X298649400Y-197968100D02*
X297273400Y-196592100D01*
X297273400Y-196592100D02*
X297273400Y-188786600D01*
X297273400Y-188786600D02*
X299380000Y-186680000D01*
X327620000Y-140825300D02*
X327938300Y-140825300D01*
X327938300Y-140825300D02*
X335606100Y-148493100D01*
X335606100Y-148493100D02*
X335606100Y-190679600D01*
X335606100Y-190679600D02*
X333935700Y-192350000D01*
X333935700Y-192350000D02*
X332270000Y-192350000D01*
X332270000Y-192350000D02*
X331000000Y-193620000D01*
X327620000Y-139700000D02*
X327620000Y-140825300D01*
%TO.N,/O5*%
X192780000Y-191380000D02*
X192780000Y-192505300D01*
X193780000Y-212380000D02*
X193780000Y-211254700D01*
X193780000Y-211254700D02*
X193905300Y-211129400D01*
X193905300Y-211129400D02*
X193905300Y-193630600D01*
X193905300Y-193630600D02*
X192780000Y-192505300D01*
X333540000Y-191080000D02*
X332903100Y-191080000D01*
X332903100Y-191080000D02*
X331751600Y-192231500D01*
X331751600Y-192231500D02*
X326843300Y-192231500D01*
X326843300Y-192231500D02*
X323425200Y-188813400D01*
X323425200Y-188813400D02*
X322824300Y-188813400D01*
X322824300Y-188813400D02*
X318704500Y-192933200D01*
X318704500Y-192933200D02*
X298931900Y-192933200D01*
X298931900Y-192933200D02*
X298254700Y-192256000D01*
X298254700Y-192256000D02*
X298254700Y-191189200D01*
X298254700Y-191189200D02*
X299098600Y-190345300D01*
X299098600Y-190345300D02*
X299380000Y-190345300D01*
X250620000Y-197780000D02*
X250620000Y-196654700D01*
X250620000Y-197780000D02*
X247240200Y-201159800D01*
X247240200Y-201159800D02*
X247240200Y-206059200D01*
X247240200Y-206059200D02*
X242988300Y-210311100D01*
X242988300Y-210311100D02*
X242127800Y-210311100D01*
X242127800Y-210311100D02*
X241371000Y-209554300D01*
X250620000Y-196654700D02*
X250901400Y-196654700D01*
X250901400Y-196654700D02*
X251745300Y-195810800D01*
X251745300Y-195810800D02*
X251745300Y-192145000D01*
X251745300Y-192145000D02*
X263270500Y-180619800D01*
X311780000Y-48380000D02*
X311780000Y-49505300D01*
X327620000Y-145342600D02*
X326387300Y-144109900D01*
X326387300Y-144109900D02*
X326387300Y-134228400D01*
X326387300Y-134228400D02*
X327195000Y-133420700D01*
X327195000Y-133420700D02*
X328020300Y-133420700D01*
X328020300Y-133420700D02*
X334757900Y-126683100D01*
X334757900Y-126683100D02*
X334757900Y-91591200D01*
X334757900Y-91591200D02*
X333976700Y-90810000D01*
X333976700Y-90810000D02*
X333111400Y-90810000D01*
X333111400Y-90810000D02*
X332364600Y-90063200D01*
X332364600Y-90063200D02*
X332364600Y-89316200D01*
X332364600Y-89316200D02*
X331123800Y-88075400D01*
X331123800Y-88075400D02*
X330074500Y-88075400D01*
X330074500Y-88075400D02*
X315519300Y-73520200D01*
X315519300Y-73520200D02*
X315519300Y-53244600D01*
X315519300Y-53244600D02*
X311780000Y-49505300D01*
X327620000Y-145342600D02*
X327620000Y-145905300D01*
X327620000Y-144780000D02*
X327620000Y-145342600D01*
X327620000Y-145905300D02*
X328042000Y-145905300D01*
X328042000Y-145905300D02*
X335155800Y-153019100D01*
X335155800Y-153019100D02*
X335155800Y-189464200D01*
X335155800Y-189464200D02*
X333540000Y-191080000D01*
X299380000Y-189220000D02*
X299380000Y-190345300D01*
%TO.N,/O4*%
X331000000Y-191080000D02*
X328283100Y-188363100D01*
X328283100Y-188363100D02*
X322637700Y-188363100D01*
X322637700Y-188363100D02*
X320510800Y-190490000D01*
X320510800Y-190490000D02*
X304974900Y-190490000D01*
X304974900Y-190490000D02*
X303704900Y-191760000D01*
X303704900Y-191760000D02*
X299380000Y-191760000D01*
X327620000Y-149860000D02*
X327620000Y-150985300D01*
X331000000Y-191080000D02*
X332389600Y-189690400D01*
X332389600Y-189690400D02*
X332389600Y-187993600D01*
X332389600Y-187993600D02*
X333113200Y-187270000D01*
X333113200Y-187270000D02*
X333984000Y-187270000D01*
X333984000Y-187270000D02*
X334705400Y-186548600D01*
X334705400Y-186548600D02*
X334705400Y-158070700D01*
X334705400Y-158070700D02*
X327620000Y-150985300D01*
X190240000Y-191380000D02*
X190240000Y-192505300D01*
X191240000Y-212380000D02*
X191240000Y-211254700D01*
X190240000Y-192505300D02*
X191391000Y-193656300D01*
X191391000Y-193656300D02*
X191391000Y-211103700D01*
X191391000Y-211103700D02*
X191240000Y-211254700D01*
%TO.N,/O3*%
X288835900Y-132486700D02*
X288008700Y-131659500D01*
X288008700Y-131659500D02*
X288008700Y-123751600D01*
X288008700Y-123751600D02*
X288198300Y-123562000D01*
X288198300Y-123562000D02*
X288198300Y-90122300D01*
X288198300Y-90122300D02*
X271901300Y-73825300D01*
X271901300Y-73825300D02*
X271620000Y-73825300D01*
X300505300Y-194300000D02*
X301630600Y-195425300D01*
X301630600Y-195425300D02*
X317238100Y-195425300D01*
X317238100Y-195425300D02*
X323124700Y-189538700D01*
X299380000Y-194300000D02*
X300505300Y-194300000D01*
X271620000Y-72700000D02*
X271620000Y-73825300D01*
X250620000Y-193825300D02*
X250415700Y-193825300D01*
X250415700Y-193825300D02*
X246526200Y-197714800D01*
X246526200Y-197714800D02*
X246526200Y-205741400D01*
X246526200Y-205741400D02*
X242723600Y-209544000D01*
X187700000Y-191380000D02*
X187700000Y-192505300D01*
X188700000Y-212380000D02*
X188700000Y-211254700D01*
X188700000Y-211254700D02*
X188825300Y-211129400D01*
X188825300Y-211129400D02*
X188825300Y-193630600D01*
X188825300Y-193630600D02*
X187700000Y-192505300D01*
X250620000Y-192700000D02*
X250620000Y-193825300D01*
%TO.N,/O2*%
X318618000Y-186613300D02*
X317281300Y-187950000D01*
X317281300Y-187950000D02*
X299054200Y-187950000D01*
X299054200Y-187950000D02*
X297763000Y-189241200D01*
X297763000Y-189241200D02*
X297763000Y-194379000D01*
X297763000Y-194379000D02*
X299098700Y-195714700D01*
X299098700Y-195714700D02*
X299380000Y-195714700D01*
X331000000Y-188540000D02*
X329073300Y-186613300D01*
X329073300Y-186613300D02*
X318618000Y-186613300D01*
X318618000Y-186613300D02*
X318618000Y-184643100D01*
X318618000Y-184643100D02*
X318229800Y-184254900D01*
X318229800Y-184254900D02*
X318229800Y-154092900D01*
X318229800Y-154092900D02*
X321274500Y-151048200D01*
X321274500Y-151048200D02*
X321274500Y-141677800D01*
X321274500Y-141677800D02*
X320422000Y-140825300D01*
X320422000Y-140825300D02*
X320000000Y-140825300D01*
X250620000Y-189034700D02*
X250901300Y-189034700D01*
X250901300Y-189034700D02*
X264037000Y-175899000D01*
X264037000Y-175899000D02*
X264037000Y-155999400D01*
X250620000Y-190160000D02*
X250620000Y-189034700D01*
X271620000Y-71285300D02*
X271796900Y-71285300D01*
X271796900Y-71285300D02*
X288734000Y-88222400D01*
X288734000Y-88222400D02*
X288734000Y-131302400D01*
X299380000Y-196840000D02*
X299380000Y-195714700D01*
X320000000Y-139700000D02*
X320000000Y-140825300D01*
X271620000Y-70160000D02*
X271620000Y-71285300D01*
X186160000Y-212380000D02*
X186160000Y-211254700D01*
X185160000Y-191380000D02*
X185160000Y-192505300D01*
X185160000Y-192505300D02*
X186295000Y-193640300D01*
X186295000Y-193640300D02*
X186295000Y-211119700D01*
X186295000Y-211119700D02*
X186160000Y-211254700D01*
%TO.N,/O1*%
X298254700Y-199380000D02*
X293400100Y-204234600D01*
X293400100Y-204234600D02*
X274435200Y-204234600D01*
X274435200Y-204234600D02*
X267168800Y-196968200D01*
X267168800Y-196968200D02*
X267168800Y-188291100D01*
X299380000Y-199380000D02*
X298254700Y-199380000D01*
X117620000Y-76745300D02*
X117824500Y-76745300D01*
X117824500Y-76745300D02*
X130965700Y-89886500D01*
X130965700Y-89886500D02*
X130965700Y-176089900D01*
X117620000Y-75620000D02*
X117620000Y-76745300D01*
X320000000Y-134620000D02*
X320000000Y-135745300D01*
X333540000Y-186000000D02*
X318734400Y-171194400D01*
X318734400Y-171194400D02*
X318734400Y-154514300D01*
X318734400Y-154514300D02*
X321725000Y-151523700D01*
X321725000Y-151523700D02*
X321725000Y-137048300D01*
X321725000Y-137048300D02*
X320422000Y-135745300D01*
X320422000Y-135745300D02*
X320000000Y-135745300D01*
X320000000Y-134620000D02*
X320000000Y-133494700D01*
X301620000Y-48380000D02*
X302745300Y-48380000D01*
X320000000Y-133494700D02*
X319578000Y-133494700D01*
X319578000Y-133494700D02*
X313050000Y-126966700D01*
X313050000Y-126966700D02*
X313050000Y-55653600D01*
X313050000Y-55653600D02*
X306901700Y-49505300D01*
X306901700Y-49505300D02*
X303589200Y-49505300D01*
X303589200Y-49505300D02*
X302745300Y-48661400D01*
X302745300Y-48661400D02*
X302745300Y-48380000D01*
X183620000Y-212380000D02*
X183620000Y-211254700D01*
X182620000Y-191380000D02*
X182620000Y-192505300D01*
X182620000Y-192505300D02*
X183755000Y-193640300D01*
X183755000Y-193640300D02*
X183755000Y-211119700D01*
X183755000Y-211119700D02*
X183620000Y-211254700D01*
%TO.N,/O0*%
X287264800Y-129540000D02*
X287264800Y-123369500D01*
X287264800Y-123369500D02*
X287748000Y-122886300D01*
X287748000Y-122886300D02*
X287748000Y-100879200D01*
X287748000Y-100879200D02*
X270494700Y-83625900D01*
X270494700Y-83625900D02*
X270494700Y-67049200D01*
X270494700Y-67049200D02*
X271338600Y-66205300D01*
X271338600Y-66205300D02*
X271620000Y-66205300D01*
X265042500Y-196129300D02*
X274097700Y-205184500D01*
X274097700Y-205184500D02*
X294990200Y-205184500D01*
X294990200Y-205184500D02*
X298254700Y-201920000D01*
X265042500Y-196129300D02*
X239442200Y-221729600D01*
X239442200Y-221729600D02*
X188803100Y-221729600D01*
X188803100Y-221729600D02*
X187331400Y-220257900D01*
X187331400Y-220257900D02*
X187331400Y-219475400D01*
X187331400Y-219475400D02*
X181361300Y-213505300D01*
X181361300Y-213505300D02*
X181080000Y-213505300D01*
X265042500Y-186361400D02*
X265989800Y-185414100D01*
X265989800Y-185414100D02*
X265989800Y-150815000D01*
X265042500Y-196129300D02*
X265042500Y-186361400D01*
X181080000Y-212380000D02*
X181080000Y-213505300D01*
X117620000Y-73080000D02*
X117620000Y-74205300D01*
X132234500Y-174871700D02*
X132234500Y-88538500D01*
X132234500Y-88538500D02*
X117901300Y-74205300D01*
X117901300Y-74205300D02*
X117620000Y-74205300D01*
X299380000Y-201920000D02*
X298254700Y-201920000D01*
X271620000Y-65080000D02*
X271620000Y-66205300D01*
X180080000Y-191380000D02*
X180080000Y-192505300D01*
X181080000Y-212380000D02*
X181080000Y-211254700D01*
X181080000Y-211254700D02*
X181205300Y-211129400D01*
X181205300Y-211129400D02*
X181205300Y-193630600D01*
X181205300Y-193630600D02*
X180080000Y-192505300D01*
%TO.N,~ADDER_EN*%
X278620000Y-106414700D02*
X278297700Y-106414700D01*
X278297700Y-106414700D02*
X271559400Y-99676400D01*
X271559400Y-99676400D02*
X271559400Y-98402800D01*
X271559400Y-98402800D02*
X270044300Y-96887700D01*
X270044300Y-96887700D02*
X270044300Y-64959700D01*
X270044300Y-64959700D02*
X271338700Y-63665300D01*
X271338700Y-63665300D02*
X271620000Y-63665300D01*
X271620000Y-62540000D02*
X271620000Y-63665300D01*
X278620000Y-107540000D02*
X278620000Y-106414700D01*
%TO.N,/O15*%
X278620000Y-127860000D02*
X278620000Y-130029400D01*
X278620000Y-130029400D02*
X284217200Y-135626600D01*
X284217200Y-135626600D02*
X284217200Y-159371300D01*
X284217200Y-159371300D02*
X285386100Y-160540200D01*
%TO.N,/O14*%
X286216100Y-159710200D02*
X285880600Y-159710200D01*
X285880600Y-159710200D02*
X284892600Y-158722200D01*
X284892600Y-158722200D02*
X284892600Y-135665100D01*
X284892600Y-135665100D02*
X279745300Y-130517800D01*
X279745300Y-130517800D02*
X279745300Y-127289200D01*
X279745300Y-127289200D02*
X278901400Y-126445300D01*
X278901400Y-126445300D02*
X278620000Y-126445300D01*
X278620000Y-125320000D02*
X278620000Y-126445300D01*
%TO.N,/O13*%
X285843100Y-158631900D02*
X285610800Y-158399600D01*
X285610800Y-158399600D02*
X285610800Y-135109600D01*
X285610800Y-135109600D02*
X280315300Y-129814100D01*
X280315300Y-129814100D02*
X280315300Y-125319200D01*
X280315300Y-125319200D02*
X278901400Y-123905300D01*
X278901400Y-123905300D02*
X278620000Y-123905300D01*
X278620000Y-122780000D02*
X278620000Y-123905300D01*
%TO.N,/O12*%
X286377500Y-157571100D02*
X286377500Y-134805600D01*
X286377500Y-134805600D02*
X280765700Y-129193800D01*
X280765700Y-129193800D02*
X280765700Y-123229600D01*
X280765700Y-123229600D02*
X278901400Y-121365300D01*
X278901400Y-121365300D02*
X278620000Y-121365300D01*
X278620000Y-120240000D02*
X278620000Y-121365300D01*
%TO.N,/O11*%
X278620000Y-118825300D02*
X278901400Y-118825300D01*
X278901400Y-118825300D02*
X283369600Y-123293500D01*
X283369600Y-123293500D02*
X283369600Y-129639700D01*
X283369600Y-129639700D02*
X285129300Y-131399400D01*
X285129300Y-131399400D02*
X285129400Y-131399400D01*
X285129400Y-131399400D02*
X285129400Y-132560000D01*
X285129400Y-132560000D02*
X286919200Y-134349800D01*
X286919200Y-134349800D02*
X286919200Y-156817000D01*
X286919200Y-156817000D02*
X287385200Y-157283000D01*
X278620000Y-117700000D02*
X278620000Y-118825300D01*
%TO.N,/O10*%
X278620000Y-116285300D02*
X278824700Y-116285300D01*
X278824700Y-116285300D02*
X284552800Y-122013400D01*
X284552800Y-122013400D02*
X284552800Y-130186000D01*
X284552800Y-130186000D02*
X284552900Y-130186000D01*
X284552900Y-130186000D02*
X285579700Y-131212800D01*
X285579700Y-131212800D02*
X285579700Y-132373400D01*
X285579700Y-132373400D02*
X287369500Y-134163200D01*
X287369500Y-134163200D02*
X287369500Y-156241500D01*
X287369500Y-156241500D02*
X288110600Y-156982600D01*
X288110600Y-156982600D02*
X288110600Y-157815700D01*
X288110600Y-157815700D02*
X287642900Y-158283400D01*
X278620000Y-115160000D02*
X278620000Y-116285300D01*
%TO.N,/O9*%
X288728300Y-156574400D02*
X288467500Y-156574400D01*
X288467500Y-156574400D02*
X287819800Y-155926700D01*
X287819800Y-155926700D02*
X287819800Y-133339700D01*
X287819800Y-133339700D02*
X286030000Y-131549900D01*
X286030000Y-131549900D02*
X286030000Y-124045000D01*
X286030000Y-124045000D02*
X285697000Y-123712000D01*
X285697000Y-123712000D02*
X285697000Y-120617800D01*
X285697000Y-120617800D02*
X278824500Y-113745300D01*
X278824500Y-113745300D02*
X278620000Y-113745300D01*
X278620000Y-112620000D02*
X278620000Y-113745300D01*
%TO.N,/O8*%
X278620000Y-111205300D02*
X278824300Y-111205300D01*
X278824300Y-111205300D02*
X286147300Y-118528300D01*
X286147300Y-118528300D02*
X286147300Y-123525400D01*
X286147300Y-123525400D02*
X286480400Y-123858500D01*
X286480400Y-123858500D02*
X286480400Y-131270200D01*
X286480400Y-131270200D02*
X288545100Y-133334900D01*
X288545100Y-133334900D02*
X288545100Y-155574000D01*
X278620000Y-110080000D02*
X278620000Y-111205300D01*
%TO.N,nBit*%
X140000000Y-217700000D02*
X140000000Y-216574700D01*
X137749400Y-211205300D02*
X138874700Y-210080000D01*
X97540000Y-159540000D02*
X98925400Y-160925400D01*
X98925400Y-160925400D02*
X98925400Y-195610500D01*
X98925400Y-195610500D02*
X114520200Y-211205300D01*
X114520200Y-211205300D02*
X137749400Y-211205300D01*
X137749400Y-211205300D02*
X137749400Y-214605400D01*
X137749400Y-214605400D02*
X139718700Y-216574700D01*
X139718700Y-216574700D02*
X140000000Y-216574700D01*
X140000000Y-210080000D02*
X138874700Y-210080000D01*
%TO.N,D*%
X140000000Y-205000000D02*
X140000000Y-203874700D01*
X138000000Y-125620000D02*
X138000000Y-126745300D01*
X138000000Y-126745300D02*
X137718700Y-126745300D01*
X137718700Y-126745300D02*
X135378300Y-129085700D01*
X135378300Y-129085700D02*
X135378300Y-170737200D01*
X135378300Y-170737200D02*
X135722500Y-171081400D01*
X135722500Y-171081400D02*
X135722500Y-199597200D01*
X135722500Y-199597200D02*
X140000000Y-203874700D01*
X155620000Y-83285300D02*
X155338600Y-83285300D01*
X155338600Y-83285300D02*
X154044400Y-84579500D01*
X154044400Y-84579500D02*
X154044400Y-111412300D01*
X154044400Y-111412300D02*
X146042000Y-119414700D01*
X146042000Y-119414700D02*
X145620000Y-119414700D01*
X155620000Y-82160000D02*
X155620000Y-83285300D01*
X155620000Y-74540000D02*
X155620000Y-75665300D01*
X155620000Y-82160000D02*
X155620000Y-81034700D01*
X155620000Y-81034700D02*
X155901300Y-81034700D01*
X155901300Y-81034700D02*
X156745300Y-80190700D01*
X156745300Y-80190700D02*
X156745300Y-76509200D01*
X156745300Y-76509200D02*
X155901400Y-75665300D01*
X155901400Y-75665300D02*
X155620000Y-75665300D01*
X215620000Y-82160000D02*
X217206600Y-83746600D01*
X217206600Y-83746600D02*
X217206600Y-99181500D01*
X217206600Y-99181500D02*
X221080600Y-103055500D01*
X221080600Y-103055500D02*
X221080600Y-124955300D01*
X221080600Y-124955300D02*
X223000000Y-126874700D01*
X223000000Y-128000000D02*
X223000000Y-126874700D01*
X145620000Y-120540000D02*
X145620000Y-119414700D01*
X208000000Y-72000000D02*
X208000000Y-73125300D01*
X208000000Y-79620000D02*
X208000000Y-78494700D01*
X208000000Y-78494700D02*
X208281300Y-78494700D01*
X208281300Y-78494700D02*
X209125300Y-77650700D01*
X209125300Y-77650700D02*
X209125300Y-73969200D01*
X209125300Y-73969200D02*
X208281400Y-73125300D01*
X208281400Y-73125300D02*
X208000000Y-73125300D01*
X148000000Y-72000000D02*
X148000000Y-73125300D01*
X148000000Y-79620000D02*
X148000000Y-78494700D01*
X148000000Y-78494700D02*
X148281300Y-78494700D01*
X148281300Y-78494700D02*
X149125300Y-77650700D01*
X149125300Y-77650700D02*
X149125300Y-73969200D01*
X149125300Y-73969200D02*
X148281400Y-73125300D01*
X148281400Y-73125300D02*
X148000000Y-73125300D01*
%TO.N,Net-(AND0-Pad8)*%
X243000000Y-187620000D02*
X241874700Y-187620000D01*
X230620000Y-183240000D02*
X237494700Y-183240000D01*
X237494700Y-183240000D02*
X241874700Y-187620000D01*
%TO.N,/B0*%
X202000000Y-38849700D02*
X202287700Y-38849700D01*
X202287700Y-38849700D02*
X203150300Y-37987100D01*
X203150300Y-37987100D02*
X203150300Y-37210900D01*
X203150300Y-37210900D02*
X207430800Y-32930400D01*
X207430800Y-32930400D02*
X240898300Y-32930400D01*
X240898300Y-32930400D02*
X256387100Y-48419200D01*
X256387100Y-48419200D02*
X259732000Y-48419200D01*
X259732000Y-48419200D02*
X269614700Y-58301900D01*
X269614700Y-58301900D02*
X282101500Y-58301900D01*
X282101500Y-58301900D02*
X297305700Y-73506100D01*
X297305700Y-73506100D02*
X297305700Y-83921800D01*
X297305700Y-83921800D02*
X302718600Y-89334700D01*
X302718600Y-89334700D02*
X303000000Y-89334700D01*
X303000000Y-90460000D02*
X303000000Y-89334700D01*
X202000000Y-40000000D02*
X202000000Y-38849700D01*
X303000000Y-90460000D02*
X303000000Y-91585300D01*
X292110900Y-135139900D02*
X291839200Y-134868200D01*
X291839200Y-134868200D02*
X291839200Y-112458600D01*
X291839200Y-112458600D02*
X295035900Y-109261900D01*
X295035900Y-109261900D02*
X295593200Y-109261900D01*
X295593200Y-109261900D02*
X298066700Y-106788400D01*
X298066700Y-106788400D02*
X298066700Y-95815200D01*
X298066700Y-95815200D02*
X302296600Y-91585300D01*
X302296600Y-91585300D02*
X303000000Y-91585300D01*
X148000000Y-74540000D02*
X144785500Y-71325500D01*
X144785500Y-71325500D02*
X144785500Y-63100400D01*
%TO.N,Net-(AND0-Pad3)*%
X223000000Y-174205300D02*
X223281300Y-174205300D01*
X223281300Y-174205300D02*
X224980800Y-175904800D01*
X224980800Y-175904800D02*
X224980800Y-180093900D01*
X223000000Y-173080000D02*
X223000000Y-174205300D01*
%TO.N,/B2*%
X204540000Y-40000000D02*
X205690400Y-38849600D01*
X205690400Y-38849600D02*
X205690400Y-37188300D01*
X205690400Y-37188300D02*
X209033000Y-33845700D01*
X209033000Y-33845700D02*
X217660900Y-33845700D01*
X217660900Y-33845700D02*
X218096500Y-34281300D01*
X218096500Y-34281300D02*
X240499000Y-34281300D01*
X240499000Y-34281300D02*
X258648200Y-52430500D01*
X258648200Y-52430500D02*
X262205900Y-52430500D01*
X262205900Y-52430500D02*
X271116100Y-61340700D01*
X271116100Y-61340700D02*
X272088900Y-61340700D01*
X272088900Y-61340700D02*
X289659600Y-78911400D01*
X289659600Y-78911400D02*
X289659600Y-87420500D01*
X289659600Y-87420500D02*
X289659600Y-157292600D01*
X289659600Y-157292600D02*
X283872300Y-163079900D01*
X283872300Y-163079900D02*
X283745300Y-163079900D01*
X283745300Y-163079900D02*
X283745300Y-163080000D01*
X282620000Y-163080000D02*
X283745300Y-163080000D01*
%TO.N,Net-(AND0-Pad11)*%
X230620000Y-175620000D02*
X230620000Y-176745300D01*
X230620000Y-176745300D02*
X230338600Y-176745300D01*
X230338600Y-176745300D02*
X229494700Y-177589200D01*
X229494700Y-177589200D02*
X229494700Y-183710600D01*
X229494700Y-183710600D02*
X235944100Y-190160000D01*
X235944100Y-190160000D02*
X243000000Y-190160000D01*
%TO.N,/B1*%
X148000000Y-82160000D02*
X152859400Y-77300600D01*
X152859400Y-77300600D02*
X152859400Y-66383200D01*
X152859400Y-66383200D02*
X159909100Y-59333500D01*
X303000000Y-82840000D02*
X303000000Y-81714700D01*
X202000000Y-37460000D02*
X206980000Y-32480000D01*
X206980000Y-32480000D02*
X241163400Y-32480000D01*
X241163400Y-32480000D02*
X254566800Y-45883400D01*
X254566800Y-45883400D02*
X258516500Y-45883400D01*
X258516500Y-45883400D02*
X269858500Y-57225400D01*
X269858500Y-57225400D02*
X281661900Y-57225400D01*
X281661900Y-57225400D02*
X297756200Y-73319700D01*
X297756200Y-73319700D02*
X297756200Y-76752200D01*
X297756200Y-76752200D02*
X302718700Y-81714700D01*
X302718700Y-81714700D02*
X303000000Y-81714700D01*
X275000000Y-168160000D02*
X275000000Y-167034700D01*
X266730000Y-99528100D02*
X266730000Y-159046000D01*
X266730000Y-159046000D02*
X274718700Y-167034700D01*
X274718700Y-167034700D02*
X275000000Y-167034700D01*
%TO.N,/B3*%
X204540000Y-37460000D02*
X208604600Y-33395400D01*
X208604600Y-33395400D02*
X217847500Y-33395400D01*
X217847500Y-33395400D02*
X218283100Y-33831000D01*
X218283100Y-33831000D02*
X240762600Y-33831000D01*
X240762600Y-33831000D02*
X255801200Y-48869600D01*
X255801200Y-48869600D02*
X259281900Y-48869600D01*
X259281900Y-48869600D02*
X269164600Y-58752300D01*
X269164600Y-58752300D02*
X272153500Y-58752300D01*
X272153500Y-58752300D02*
X293978000Y-80576700D01*
X293978000Y-80576700D02*
X290411400Y-84143300D01*
X290411400Y-84143300D02*
X290411400Y-157191500D01*
X290411400Y-157191500D02*
X283252900Y-164350000D01*
X283252900Y-164350000D02*
X282263800Y-164350000D01*
X282263800Y-164350000D02*
X281494700Y-165119100D01*
X281494700Y-165119100D02*
X281494700Y-168730800D01*
X281494700Y-168730800D02*
X282338600Y-169574700D01*
X282338600Y-169574700D02*
X282620000Y-169574700D01*
X294367300Y-80300000D02*
X294254700Y-80300000D01*
X294254700Y-80300000D02*
X293978000Y-80576700D01*
X282620000Y-170700000D02*
X282620000Y-169574700D01*
X295380000Y-80300000D02*
X294367300Y-80300000D01*
X230620000Y-170540000D02*
X233559900Y-170540000D01*
X233559900Y-170540000D02*
X236586000Y-173566100D01*
%TO.N,Net-(AND1-Pad8)*%
X230620000Y-212114700D02*
X230338700Y-212114700D01*
X230338700Y-212114700D02*
X229482500Y-211258500D01*
X229482500Y-211258500D02*
X229482500Y-210214100D01*
X229482500Y-210214100D02*
X230192700Y-209503900D01*
X230192700Y-209503900D02*
X230873800Y-209503900D01*
X230873800Y-209503900D02*
X235017800Y-205359900D01*
X235017800Y-205359900D02*
X235017800Y-203368700D01*
X230620000Y-213240000D02*
X230620000Y-212114700D01*
%TO.N,/B4*%
X219136000Y-186051000D02*
X219136000Y-196274400D01*
X219136000Y-196274400D02*
X222276300Y-199414700D01*
X222276300Y-199414700D02*
X223000000Y-199414700D01*
X205975800Y-97253500D02*
X205975800Y-106560100D01*
X205975800Y-106560100D02*
X206296900Y-106881200D01*
X206296900Y-106881200D02*
X206296900Y-146212200D01*
X206296900Y-146212200D02*
X203385700Y-149123400D01*
X203385700Y-149123400D02*
X203385700Y-151583400D01*
X203385700Y-151583400D02*
X204143000Y-152340700D01*
X204143000Y-152340700D02*
X205039200Y-152340700D01*
X205039200Y-152340700D02*
X219136000Y-166437500D01*
X219136000Y-166437500D02*
X219136000Y-186051000D01*
X223000000Y-200540000D02*
X223000000Y-199414700D01*
X206874700Y-74540000D02*
X205975800Y-75438900D01*
X205975800Y-75438900D02*
X205975800Y-97253500D01*
X205975800Y-97253500D02*
X205202800Y-97253500D01*
X206874700Y-74540000D02*
X206874700Y-40205300D01*
X206874700Y-40205300D02*
X207080000Y-40000000D01*
X208000000Y-74540000D02*
X206874700Y-74540000D01*
X275000000Y-184414700D02*
X275646000Y-184414700D01*
X275646000Y-184414700D02*
X293740100Y-166320600D01*
X293740100Y-166320600D02*
X293740100Y-115799900D01*
X293740100Y-115799900D02*
X296000000Y-113540000D01*
X275000000Y-185540000D02*
X275000000Y-184414700D01*
%TO.N,Net-(AND1-Pad3)*%
X223000000Y-203080000D02*
X223000000Y-201954700D01*
X223000000Y-201954700D02*
X223281300Y-201954700D01*
X223281300Y-201954700D02*
X224232800Y-201003200D01*
X224232800Y-201003200D02*
X224232800Y-192041400D01*
X224232800Y-192041400D02*
X223826600Y-191635200D01*
%TO.N,/B6*%
X282620000Y-188080000D02*
X280562600Y-190137400D01*
X280562600Y-190137400D02*
X280562600Y-197478500D01*
X280562600Y-197478500D02*
X276225700Y-201815400D01*
X209872100Y-97899600D02*
X209872100Y-147561100D01*
X209872100Y-147561100D02*
X224726600Y-162415600D01*
X224726600Y-162415600D02*
X224726600Y-168391400D01*
X224726600Y-168391400D02*
X223992600Y-169125400D01*
X223992600Y-169125400D02*
X222801200Y-169125400D01*
X222801200Y-169125400D02*
X221297300Y-170629300D01*
X221297300Y-170629300D02*
X221297300Y-184675500D01*
X221297300Y-184675500D02*
X225658600Y-189036800D01*
X225658600Y-189036800D02*
X225658600Y-202354600D01*
X225658600Y-202354600D02*
X230338700Y-207034700D01*
X230338700Y-207034700D02*
X230620000Y-207034700D01*
X215620000Y-76517300D02*
X214012700Y-78124600D01*
X214012700Y-78124600D02*
X214012700Y-93759000D01*
X214012700Y-93759000D02*
X209872100Y-97899600D01*
X230620000Y-208160000D02*
X230620000Y-207034700D01*
X215620000Y-76517300D02*
X215620000Y-75954700D01*
X215620000Y-77080000D02*
X215620000Y-76517300D01*
X303620000Y-116080000D02*
X301594100Y-118105900D01*
X301594100Y-118105900D02*
X301594100Y-168261900D01*
X301594100Y-168261900D02*
X282901300Y-186954700D01*
X282901300Y-186954700D02*
X282620000Y-186954700D01*
X282620000Y-188080000D02*
X282620000Y-186954700D01*
X215620000Y-75954700D02*
X215901300Y-75954700D01*
X215901300Y-75954700D02*
X216855200Y-75000800D01*
X216855200Y-75000800D02*
X216855200Y-71427200D01*
X216855200Y-71427200D02*
X209620000Y-64192000D01*
X209620000Y-64192000D02*
X209620000Y-40000000D01*
%TO.N,/B5*%
X206747300Y-98753800D02*
X206747300Y-145438600D01*
X206747300Y-145438600D02*
X224266900Y-162958200D01*
X224266900Y-162958200D02*
X224266900Y-164481400D01*
X224266900Y-164481400D02*
X220847000Y-167901300D01*
X220847000Y-167901300D02*
X220847000Y-187212600D01*
X220847000Y-187212600D02*
X224702900Y-191068500D01*
X224702900Y-191068500D02*
X224702900Y-207405600D01*
X224702900Y-207405600D02*
X223948500Y-208160000D01*
X208000000Y-83285300D02*
X207718700Y-83285300D01*
X207718700Y-83285300D02*
X206747300Y-84256700D01*
X206747300Y-84256700D02*
X206747300Y-98753800D01*
X275000000Y-192034700D02*
X275281300Y-192034700D01*
X275281300Y-192034700D02*
X277736600Y-189579400D01*
X277736600Y-189579400D02*
X277736600Y-184683400D01*
X277736600Y-184683400D02*
X294735500Y-167684500D01*
X294735500Y-167684500D02*
X294735500Y-122424500D01*
X294735500Y-122424500D02*
X296000000Y-121160000D01*
X208000000Y-82160000D02*
X208000000Y-83285300D01*
X223948500Y-208160000D02*
X224012700Y-208160000D01*
X223000000Y-208160000D02*
X223948500Y-208160000D01*
X208000000Y-81597300D02*
X208000000Y-82160000D01*
X261964700Y-193106900D02*
X240662900Y-214408700D01*
X240662900Y-214408700D02*
X230153000Y-214408700D01*
X230153000Y-214408700D02*
X224012700Y-208268400D01*
X224012700Y-208268400D02*
X224012700Y-208160000D01*
X275000000Y-193160000D02*
X275000000Y-192034700D01*
X207080000Y-37460000D02*
X208230400Y-38610400D01*
X208230400Y-38610400D02*
X208230400Y-69891600D01*
X208230400Y-69891600D02*
X209630900Y-71292100D01*
X209630900Y-71292100D02*
X209630900Y-79685100D01*
X209630900Y-79685100D02*
X208281300Y-81034700D01*
X208281300Y-81034700D02*
X208000000Y-81034700D01*
X208000000Y-81597300D02*
X208000000Y-81034700D01*
%TO.N,Net-(AND1-Pad6)*%
X223000000Y-210700000D02*
X221424200Y-209124200D01*
X221424200Y-209124200D02*
X221424200Y-199608200D01*
%TO.N,/B7*%
X303620000Y-124825300D02*
X303338600Y-124825300D01*
X303338600Y-124825300D02*
X302044500Y-126119400D01*
X302044500Y-126119400D02*
X302044500Y-170249500D01*
X302044500Y-170249500D02*
X283072800Y-189221200D01*
X283072800Y-189221200D02*
X282400100Y-189221200D01*
X282400100Y-189221200D02*
X281494700Y-190126600D01*
X281494700Y-190126600D02*
X281494700Y-193730800D01*
X281494700Y-193730800D02*
X282338600Y-194574700D01*
X282338600Y-194574700D02*
X282620000Y-194574700D01*
X282620000Y-195700000D02*
X282620000Y-196825300D01*
X282620000Y-196825300D02*
X282270200Y-196825300D01*
X282270200Y-196825300D02*
X277936700Y-201158800D01*
X230620000Y-200399300D02*
X233097100Y-200399300D01*
X233097100Y-200399300D02*
X238198100Y-205500300D01*
X238198100Y-205500300D02*
X239800100Y-205500300D01*
X230620000Y-200399300D02*
X230620000Y-200258600D01*
X230620000Y-200540000D02*
X230620000Y-200399300D01*
X230620000Y-200258600D02*
X226932900Y-196571500D01*
X226932900Y-196571500D02*
X226932900Y-189465600D01*
X226932900Y-189465600D02*
X221773800Y-184306500D01*
X221773800Y-184306500D02*
X221773800Y-172695700D01*
X221773800Y-172695700D02*
X222659500Y-171810000D01*
X222659500Y-171810000D02*
X223360900Y-171810000D01*
X223360900Y-171810000D02*
X225176900Y-169994000D01*
X225176900Y-169994000D02*
X225176900Y-148024100D01*
X225176900Y-148024100D02*
X216683800Y-139531000D01*
X216683800Y-139531000D02*
X216683800Y-99700000D01*
X215620000Y-85825300D02*
X215901400Y-85825300D01*
X215901400Y-85825300D02*
X216745300Y-86669200D01*
X216745300Y-86669200D02*
X216745300Y-99638500D01*
X216745300Y-99638500D02*
X216683800Y-99700000D01*
X215620000Y-84700000D02*
X215620000Y-83574700D01*
X282620000Y-195700000D02*
X282620000Y-194574700D01*
X303620000Y-123700000D02*
X303620000Y-124825300D01*
X215620000Y-84700000D02*
X215620000Y-85825300D01*
X209620000Y-37460000D02*
X210890000Y-38730000D01*
X210890000Y-38730000D02*
X210890100Y-38730000D01*
X210890100Y-38730000D02*
X210890100Y-64370700D01*
X210890100Y-64370700D02*
X217311000Y-70791600D01*
X217311000Y-70791600D02*
X217311000Y-76985700D01*
X217311000Y-76985700D02*
X215976300Y-78320400D01*
X215976300Y-78320400D02*
X215277900Y-78320400D01*
X215277900Y-78320400D02*
X214494700Y-79103600D01*
X214494700Y-79103600D02*
X214494700Y-82730800D01*
X214494700Y-82730800D02*
X215338600Y-83574700D01*
X215338600Y-83574700D02*
X215620000Y-83574700D01*
%TO.N,~Z*%
X115000000Y-205000000D02*
X115000000Y-203874700D01*
X115000000Y-203874700D02*
X122193200Y-196681500D01*
X122193200Y-196681500D02*
X122193200Y-185540300D01*
X122193200Y-185540300D02*
X123053100Y-184680400D01*
X123053100Y-184680400D02*
X125819300Y-184680400D01*
X125819300Y-184680400D02*
X134546800Y-175952900D01*
X115000000Y-205000000D02*
X115000000Y-206414700D01*
X115000000Y-207540000D02*
X115000000Y-206414700D01*
%TO.N,Z*%
X115000000Y-210080000D02*
X115000000Y-208954700D01*
X115000000Y-208954700D02*
X114718700Y-208954700D01*
X114718700Y-208954700D02*
X113874600Y-208110600D01*
X113874600Y-208110600D02*
X113874600Y-203992800D01*
X113874600Y-203992800D02*
X121353600Y-196513800D01*
X121353600Y-196513800D02*
X121353600Y-171294800D01*
X121353600Y-171294800D02*
X123298400Y-169350000D01*
X123298400Y-169350000D02*
X123975300Y-169350000D01*
X123975300Y-169350000D02*
X124848500Y-168476800D01*
X124848500Y-168476800D02*
X124848500Y-140055900D01*
X124848500Y-140055900D02*
X124078300Y-139285700D01*
X118000000Y-125840000D02*
X118000000Y-126965300D01*
X124078300Y-139285700D02*
X124078300Y-137733000D01*
X124078300Y-137733000D02*
X118464600Y-132119300D01*
X118464600Y-132119300D02*
X117570200Y-132119300D01*
X117570200Y-132119300D02*
X116740700Y-131289800D01*
X116740700Y-131289800D02*
X116740700Y-127802600D01*
X116740700Y-127802600D02*
X117578000Y-126965300D01*
X117578000Y-126965300D02*
X118000000Y-126965300D01*
X197000000Y-161160000D02*
X195874700Y-161160000D01*
X195874700Y-161160000D02*
X193334700Y-163700000D01*
X193334700Y-163700000D02*
X185620000Y-163700000D01*
X203494700Y-163700000D02*
X200954700Y-161160000D01*
X200954700Y-161160000D02*
X197000000Y-161160000D01*
X118000000Y-125840000D02*
X114045300Y-125840000D01*
X114045300Y-125840000D02*
X111505300Y-123300000D01*
X110380000Y-123300000D02*
X111505300Y-123300000D01*
X204620000Y-163700000D02*
X203494700Y-163700000D01*
%TO.N,~LOG_EN*%
X137000000Y-167574700D02*
X136718700Y-167574700D01*
X136718700Y-167574700D02*
X135828700Y-166684700D01*
X135828700Y-166684700D02*
X135828700Y-148676000D01*
X135828700Y-148676000D02*
X136115000Y-148389700D01*
X137000000Y-168700000D02*
X137000000Y-167574700D01*
%TO.N,~NAND_EN*%
X117620000Y-70540000D02*
X117620000Y-71665300D01*
X117620000Y-71665300D02*
X117338700Y-71665300D01*
X117338700Y-71665300D02*
X116493900Y-72510100D01*
X116493900Y-72510100D02*
X116493900Y-78674700D01*
X116493900Y-78674700D02*
X117249200Y-79430000D01*
X117249200Y-79430000D02*
X117997400Y-79430000D01*
X117997400Y-79430000D02*
X125315300Y-86747900D01*
X125315300Y-86747900D02*
X125315300Y-179084700D01*
X125315300Y-179084700D02*
X123620000Y-180780000D01*
%TO.N,~OR_EN*%
X298254700Y-204460000D02*
X280504700Y-222210000D01*
X280504700Y-222210000D02*
X156470200Y-222210000D01*
X156470200Y-222210000D02*
X148150200Y-213890000D01*
X148150200Y-213890000D02*
X139645900Y-213890000D01*
X139645900Y-213890000D02*
X138874600Y-213118700D01*
X138874600Y-213118700D02*
X138874600Y-212147900D01*
X138874600Y-212147900D02*
X139672500Y-211350000D01*
X139672500Y-211350000D02*
X140321700Y-211350000D01*
X140321700Y-211350000D02*
X141127000Y-210544700D01*
X141127000Y-210544700D02*
X141127000Y-209611900D01*
X141127000Y-209611900D02*
X140399000Y-208883900D01*
X140399000Y-208883900D02*
X139732000Y-208883900D01*
X139732000Y-208883900D02*
X135272100Y-204424000D01*
X135272100Y-204424000D02*
X135272100Y-175584500D01*
X135272100Y-175584500D02*
X134910500Y-175222900D01*
X134910500Y-175222900D02*
X134243700Y-175222900D01*
X134243700Y-175222900D02*
X127078700Y-182387900D01*
X127078700Y-182387900D02*
X122915700Y-182387900D01*
X122915700Y-182387900D02*
X122024600Y-181496800D01*
X122024600Y-181496800D02*
X122024600Y-173059400D01*
X122024600Y-173059400D02*
X123338700Y-171745300D01*
X123338700Y-171745300D02*
X123620000Y-171745300D01*
X123620000Y-170620000D02*
X123620000Y-171745300D01*
X299380000Y-204460000D02*
X298254700Y-204460000D01*
%TO.N,~XOR_EN*%
X155917400Y-50892400D02*
X133698900Y-73110900D01*
X133698900Y-73110900D02*
X133698900Y-174433100D01*
X133698900Y-174433100D02*
X126220300Y-181911700D01*
X126220300Y-181911700D02*
X123126700Y-181911700D01*
X123126700Y-181911700D02*
X122494700Y-181279700D01*
X122494700Y-181279700D02*
X122494700Y-180209200D01*
X122494700Y-180209200D02*
X123338600Y-179365300D01*
X123338600Y-179365300D02*
X123620000Y-179365300D01*
X123620000Y-178240000D02*
X123620000Y-179365300D01*
%TO.N,~RIGHT_EN*%
X177540000Y-190254700D02*
X179517200Y-188277500D01*
X179517200Y-188277500D02*
X179517200Y-173630400D01*
X179517200Y-173630400D02*
X178476800Y-172590000D01*
X178476800Y-172590000D02*
X177519300Y-172590000D01*
X177519300Y-172590000D02*
X168745300Y-163816000D01*
X168745300Y-163816000D02*
X168745300Y-155509200D01*
X168745300Y-155509200D02*
X167901400Y-154665300D01*
X167901400Y-154665300D02*
X167620000Y-154665300D01*
X167620000Y-153540000D02*
X167620000Y-154665300D01*
X177540000Y-191380000D02*
X177540000Y-190254700D01*
%TO.N,~LEFT_EN*%
X177494200Y-162453200D02*
X178558400Y-162453200D01*
X178558400Y-162453200D02*
X179967500Y-163862300D01*
X179967500Y-163862300D02*
X179967500Y-189734000D01*
X179967500Y-189734000D02*
X178810000Y-190891500D01*
X178810000Y-190891500D02*
X178810000Y-210984700D01*
X178810000Y-210984700D02*
X178540000Y-211254700D01*
X175860000Y-166193500D02*
X175860000Y-164087400D01*
X175860000Y-164087400D02*
X177494200Y-162453200D01*
X177494200Y-162453200D02*
X176021500Y-160980500D01*
X176021500Y-160980500D02*
X176021500Y-158958300D01*
X178540000Y-212380000D02*
X178540000Y-211254700D01*
%TO.N,/Ov*%
X185620000Y-161160000D02*
X186745300Y-161160000D01*
X204620000Y-161160000D02*
X203494700Y-161160000D01*
X203494700Y-161160000D02*
X202369400Y-160034700D01*
X202369400Y-160034700D02*
X187870600Y-160034700D01*
X187870600Y-160034700D02*
X186745300Y-161160000D01*
X167620000Y-161160000D02*
X166494700Y-161160000D01*
X166494700Y-161160000D02*
X166494700Y-161932500D01*
X166494700Y-161932500D02*
X166077200Y-162350000D01*
%TO.N,/N*%
X185620000Y-158620000D02*
X186745300Y-158620000D01*
X204620000Y-158620000D02*
X203494700Y-158620000D01*
X203494700Y-158620000D02*
X202369400Y-157494700D01*
X202369400Y-157494700D02*
X187870600Y-157494700D01*
X187870600Y-157494700D02*
X186745300Y-158620000D01*
%TO.N,/Carry*%
X204620000Y-156080000D02*
X203494700Y-156080000D01*
X185620000Y-156080000D02*
X186745300Y-156080000D01*
X186745300Y-156080000D02*
X187870600Y-154954700D01*
X187870600Y-154954700D02*
X202369400Y-154954700D01*
X202369400Y-154954700D02*
X203494700Y-156080000D01*
%TO.N,SR_N*%
X160000000Y-156080000D02*
X160000000Y-157205300D01*
X140000000Y-212620000D02*
X141125300Y-212620000D01*
X141125300Y-212620000D02*
X144864600Y-208880700D01*
X144864600Y-208880700D02*
X148026000Y-208880700D01*
X148026000Y-208880700D02*
X158269200Y-198637500D01*
X158269200Y-198637500D02*
X158269200Y-158514100D01*
X158269200Y-158514100D02*
X159578000Y-157205300D01*
X159578000Y-157205300D02*
X160000000Y-157205300D01*
%TO.N,Net-(NAND0-Pad11)*%
X110000000Y-75620000D02*
X108874700Y-75620000D01*
X95620000Y-66620000D02*
X99874700Y-66620000D01*
X99874700Y-66620000D02*
X108874700Y-75620000D01*
%TO.N,Net-(NAND1-Pad8)*%
X110000000Y-88320000D02*
X110000000Y-89445300D01*
X95620000Y-102240000D02*
X96745300Y-102240000D01*
X96745300Y-102240000D02*
X109540000Y-89445300D01*
X109540000Y-89445300D02*
X110000000Y-89445300D01*
%TO.N,Net-(NAND1-Pad3)*%
X110000000Y-80700000D02*
X108874700Y-80700000D01*
X88000000Y-92080000D02*
X89125300Y-92080000D01*
X89125300Y-92080000D02*
X90250600Y-90954700D01*
X90250600Y-90954700D02*
X98620000Y-90954700D01*
X98620000Y-90954700D02*
X108874700Y-80700000D01*
%TO.N,Net-(NAND1-Pad11)*%
X108874700Y-85780000D02*
X100034700Y-94620000D01*
X100034700Y-94620000D02*
X96745300Y-94620000D01*
X110000000Y-85780000D02*
X108874700Y-85780000D01*
X95620000Y-94620000D02*
X96745300Y-94620000D01*
%TO.N,Net-(NAND1-Pad6)*%
X110000000Y-83240000D02*
X108874700Y-83240000D01*
X88000000Y-99700000D02*
X89125300Y-99700000D01*
X89125300Y-99700000D02*
X89125300Y-99418700D01*
X89125300Y-99418700D02*
X95194000Y-93350000D01*
X95194000Y-93350000D02*
X98764700Y-93350000D01*
X98764700Y-93350000D02*
X108874700Y-83240000D01*
%TO.N,/B15*%
X230620000Y-140700000D02*
X230620000Y-139574700D01*
X219780000Y-37460000D02*
X225166800Y-42846800D01*
X225166800Y-42846800D02*
X225166800Y-134402800D01*
X225166800Y-134402800D02*
X230338700Y-139574700D01*
X230338700Y-139574700D02*
X230620000Y-139574700D01*
%TO.N,/B14*%
X230620000Y-131954700D02*
X230338700Y-131954700D01*
X230338700Y-131954700D02*
X225617200Y-127233200D01*
X225617200Y-127233200D02*
X225617200Y-41637100D01*
X225617200Y-41637100D02*
X220240800Y-36260700D01*
X220240800Y-36260700D02*
X219350000Y-36260700D01*
X219350000Y-36260700D02*
X218578000Y-37032700D01*
X218578000Y-37032700D02*
X218578000Y-38161100D01*
X218578000Y-38161100D02*
X219780000Y-39363100D01*
X219780000Y-39363100D02*
X219780000Y-40000000D01*
X230620000Y-133080000D02*
X230620000Y-131954700D01*
%TO.N,/B13*%
X217240000Y-37460000D02*
X218510000Y-38730000D01*
X218510000Y-38730000D02*
X218510000Y-42497200D01*
X218510000Y-42497200D02*
X224716400Y-48703600D01*
X224716400Y-48703600D02*
X224716400Y-135599600D01*
X224716400Y-135599600D02*
X223281300Y-137034700D01*
X223281300Y-137034700D02*
X223000000Y-137034700D01*
X223000000Y-138160000D02*
X223000000Y-137034700D01*
%TO.N,/B12*%
X217240000Y-40000000D02*
X217240000Y-58139400D01*
X217240000Y-58139400D02*
X224252100Y-65151500D01*
X224252100Y-65151500D02*
X224252100Y-128808000D01*
X224252100Y-128808000D02*
X223645400Y-129414700D01*
X223645400Y-129414700D02*
X223000000Y-129414700D01*
X223000000Y-130540000D02*
X223000000Y-129414700D01*
%TO.N,/B11*%
X162127600Y-57327600D02*
X162221000Y-57421000D01*
X162221000Y-57421000D02*
X162221000Y-84468600D01*
X162221000Y-84468600D02*
X158324200Y-88365400D01*
X158324200Y-88365400D02*
X158324200Y-117151800D01*
X158324200Y-117151800D02*
X145901300Y-129574700D01*
X145901300Y-129574700D02*
X145620000Y-129574700D01*
X145620000Y-130700000D02*
X145620000Y-129574700D01*
%TO.N,/B10*%
X214700000Y-40000000D02*
X214700000Y-65832000D01*
X214700000Y-65832000D02*
X218165600Y-69297600D01*
X218165600Y-69297600D02*
X218165600Y-99069600D01*
%TO.N,/B9*%
X138000000Y-128160000D02*
X139744700Y-126415300D01*
X139744700Y-126415300D02*
X139744700Y-119365400D01*
X139744700Y-119365400D02*
X144274600Y-114835500D01*
X144274600Y-114835500D02*
X144274600Y-86779800D01*
X144274600Y-86779800D02*
X147577700Y-83476700D01*
X147577700Y-83476700D02*
X148280800Y-83476700D01*
X148280800Y-83476700D02*
X153665400Y-78092100D01*
X153665400Y-78092100D02*
X153665400Y-66820800D01*
X153665400Y-66820800D02*
X161449000Y-59037200D01*
X161449000Y-59037200D02*
X161449000Y-58063800D01*
%TO.N,/B8*%
X138000000Y-119414700D02*
X138703400Y-119414700D01*
X138703400Y-119414700D02*
X143287300Y-114830800D01*
X143287300Y-114830800D02*
X143287300Y-85233800D01*
X143287300Y-85233800D02*
X147631100Y-80890000D01*
X147631100Y-80890000D02*
X148387800Y-80890000D01*
X148387800Y-80890000D02*
X152372000Y-76905800D01*
X152372000Y-76905800D02*
X152372000Y-58608200D01*
X138000000Y-120540000D02*
X138000000Y-119414700D01*
%TO.N,Net-(OR0-Pad6)*%
X307000000Y-201920000D02*
X305874700Y-201920000D01*
X275000000Y-170700000D02*
X275000000Y-171825300D01*
X275000000Y-171825300D02*
X274578000Y-171825300D01*
X274578000Y-171825300D02*
X266443400Y-179959900D01*
X266443400Y-179959900D02*
X266443400Y-196879700D01*
X266443400Y-196879700D02*
X274297900Y-204734200D01*
X274297900Y-204734200D02*
X294030500Y-204734200D01*
X294030500Y-204734200D02*
X297970000Y-200794700D01*
X297970000Y-200794700D02*
X304749400Y-200794700D01*
X304749400Y-200794700D02*
X305874700Y-201920000D01*
%TO.N,Net-(OR1-Pad8)*%
X305874700Y-186680000D02*
X304749400Y-185554700D01*
X304749400Y-185554700D02*
X296430600Y-185554700D01*
X296430600Y-185554700D02*
X283745300Y-198240000D01*
X307000000Y-186680000D02*
X305874700Y-186680000D01*
X282620000Y-198240000D02*
X283745300Y-198240000D01*
%TO.N,Net-(OR1-Pad11)*%
X307000000Y-189220000D02*
X304561400Y-189220000D01*
X304561400Y-189220000D02*
X302761600Y-191019800D01*
%TO.N,Net-(XOR0-Pad3)*%
X296540000Y-56000000D02*
X297665300Y-56000000D01*
X303000000Y-87920000D02*
X303000000Y-86794700D01*
X303000000Y-86794700D02*
X303281300Y-86794700D01*
X303281300Y-86794700D02*
X304246300Y-85829700D01*
X304246300Y-85829700D02*
X304246300Y-60426500D01*
X304246300Y-60426500D02*
X300350000Y-56530200D01*
X300350000Y-56530200D02*
X300350000Y-55638300D01*
X300350000Y-55638300D02*
X299586400Y-54874700D01*
X299586400Y-54874700D02*
X298509200Y-54874700D01*
X298509200Y-54874700D02*
X297665300Y-55718600D01*
X297665300Y-55718600D02*
X297665300Y-56000000D01*
%TO.N,Net-(XOR0-Pad6)*%
X303000000Y-79174700D02*
X302656300Y-79174700D01*
X302656300Y-79174700D02*
X299080000Y-75598400D01*
X299080000Y-75598400D02*
X299080000Y-57125300D01*
X299080000Y-56000000D02*
X299080000Y-57125300D01*
X303000000Y-80300000D02*
X303000000Y-79174700D01*
%TO.N,Net-(XOR1-Pad8)*%
X314320000Y-56000000D02*
X314320000Y-57125300D01*
X314118000Y-111020700D02*
X314118000Y-57327300D01*
X314118000Y-57327300D02*
X314320000Y-57125300D01*
%TO.N,Net-(XOR1-Pad3)*%
X306700000Y-56000000D02*
X306700000Y-100360500D01*
X306700000Y-100360500D02*
X299249700Y-107810800D01*
X299249700Y-107810800D02*
X299249700Y-111986300D01*
X299249700Y-111986300D02*
X296281300Y-114954700D01*
X296281300Y-114954700D02*
X296000000Y-114954700D01*
X296000000Y-116080000D02*
X296000000Y-114954700D01*
%TO.N,Net-(XOR1-Pad11)*%
X311780000Y-56000000D02*
X311780000Y-109616000D01*
X311780000Y-109616000D02*
X303901300Y-117494700D01*
X303901300Y-117494700D02*
X303620000Y-117494700D01*
X303620000Y-118620000D02*
X303620000Y-117494700D01*
%TO.N,Net-(XOR1-Pad6)*%
X296000000Y-123700000D02*
X296000000Y-122574700D01*
X296000000Y-122574700D02*
X296281300Y-122574700D01*
X296281300Y-122574700D02*
X299700100Y-119155900D01*
X299700100Y-119155900D02*
X299700100Y-109067000D01*
X299700100Y-109067000D02*
X309240000Y-99527100D01*
X309240000Y-99527100D02*
X309240000Y-56000000D01*
%TD*%
M02*
