%TF.GenerationSoftware,KiCad,Pcbnew,(5.1.10)-1*%
%TF.CreationDate,2021-10-21T23:45:09+02:00*%
%TF.ProjectId,Program Counter,50726f67-7261-46d2-9043-6f756e746572,rev1.0*%
%TF.SameCoordinates,Original*%
%TF.FileFunction,Copper,L2,Bot*%
%TF.FilePolarity,Positive*%
%FSLAX46Y46*%
G04 Gerber Fmt 4.6, Leading zero omitted, Abs format (unit mm)*
G04 Created by KiCad (PCBNEW (5.1.10)-1) date 2021-10-21 23:45:09*
%MOMM*%
%LPD*%
G01*
G04 APERTURE LIST*
%TA.AperFunction,ComponentPad*%
%ADD10C,7.000000*%
%TD*%
%TA.AperFunction,ComponentPad*%
%ADD11C,0.800000*%
%TD*%
%TA.AperFunction,ComponentPad*%
%ADD12C,1.600000*%
%TD*%
%TA.AperFunction,ComponentPad*%
%ADD13O,1.600000X1.600000*%
%TD*%
%TA.AperFunction,ComponentPad*%
%ADD14R,1.600000X1.600000*%
%TD*%
%TA.AperFunction,ComponentPad*%
%ADD15C,1.400000*%
%TD*%
%TA.AperFunction,ComponentPad*%
%ADD16O,1.400000X1.400000*%
%TD*%
%TA.AperFunction,ComponentPad*%
%ADD17C,2.340000*%
%TD*%
%TA.AperFunction,ComponentPad*%
%ADD18R,3.000000X2.350000*%
%TD*%
%TA.AperFunction,ComponentPad*%
%ADD19O,3.000000X2.350000*%
%TD*%
%TA.AperFunction,ComponentPad*%
%ADD20C,4.064000*%
%TD*%
%TA.AperFunction,ComponentPad*%
%ADD21R,1.750000X1.750000*%
%TD*%
%TA.AperFunction,ComponentPad*%
%ADD22C,1.750000*%
%TD*%
%TA.AperFunction,ViaPad*%
%ADD23C,0.800000*%
%TD*%
%TA.AperFunction,Conductor*%
%ADD24C,0.254000*%
%TD*%
%TA.AperFunction,Conductor*%
%ADD25C,0.508000*%
%TD*%
%TA.AperFunction,Conductor*%
%ADD26C,0.100000*%
%TD*%
G04 APERTURE END LIST*
D10*
%TO.P,H8,1*%
%TO.N,GNDREF*%
X56000000Y-152000000D03*
D11*
X58625000Y-152000000D03*
X57856155Y-153856155D03*
X56000000Y-154625000D03*
X54143845Y-153856155D03*
X53375000Y-152000000D03*
X54143845Y-150143845D03*
X56000000Y-149375000D03*
X57856155Y-150143845D03*
%TD*%
D10*
%TO.P,H7,1*%
%TO.N,GNDREF*%
X224000000Y-25000000D03*
D11*
X226625000Y-25000000D03*
X225856155Y-26856155D03*
X224000000Y-27625000D03*
X222143845Y-26856155D03*
X221375000Y-25000000D03*
X222143845Y-23143845D03*
X224000000Y-22375000D03*
X225856155Y-23143845D03*
%TD*%
D10*
%TO.P,H6,1*%
%TO.N,+5V*%
X56000000Y-25000000D03*
D11*
X58625000Y-25000000D03*
X57856155Y-26856155D03*
X56000000Y-27625000D03*
X54143845Y-26856155D03*
X53375000Y-25000000D03*
X54143845Y-23143845D03*
X56000000Y-22375000D03*
X57856155Y-23143845D03*
%TD*%
D10*
%TO.P,H5,1*%
%TO.N,+5V*%
X225000000Y-152000000D03*
D11*
X227625000Y-152000000D03*
X226856155Y-153856155D03*
X225000000Y-154625000D03*
X223143845Y-153856155D03*
X222375000Y-152000000D03*
X223143845Y-150143845D03*
X225000000Y-149375000D03*
X226856155Y-150143845D03*
%TD*%
D10*
%TO.P,H4,1*%
%TO.N,N/C*%
X234000000Y-25000000D03*
D11*
X236625000Y-25000000D03*
X235856155Y-26856155D03*
X234000000Y-27625000D03*
X232143845Y-26856155D03*
X231375000Y-25000000D03*
X232143845Y-23143845D03*
X234000000Y-22375000D03*
X235856155Y-23143845D03*
%TD*%
D10*
%TO.P,H3,1*%
%TO.N,N/C*%
X234000000Y-152000000D03*
D11*
X236625000Y-152000000D03*
X235856155Y-153856155D03*
X234000000Y-154625000D03*
X232143845Y-153856155D03*
X231375000Y-152000000D03*
X232143845Y-150143845D03*
X234000000Y-149375000D03*
X235856155Y-150143845D03*
%TD*%
D10*
%TO.P,H2,1*%
%TO.N,N/C*%
X46000000Y-152000000D03*
D11*
X48625000Y-152000000D03*
X47856155Y-153856155D03*
X46000000Y-154625000D03*
X44143845Y-153856155D03*
X43375000Y-152000000D03*
X44143845Y-150143845D03*
X46000000Y-149375000D03*
X47856155Y-150143845D03*
%TD*%
D10*
%TO.P,H1,1*%
%TO.N,N/C*%
X46000000Y-25000000D03*
D11*
X48625000Y-25000000D03*
X47856155Y-26856155D03*
X46000000Y-27625000D03*
X44143845Y-26856155D03*
X43375000Y-25000000D03*
X44143845Y-23143845D03*
X46000000Y-22375000D03*
X47856155Y-23143845D03*
%TD*%
D12*
%TO.P,C13,1*%
%TO.N,GNDREF*%
X152000000Y-87000000D03*
D13*
%TO.P,C13,2*%
%TO.N,+5V*%
X159500000Y-87000000D03*
%TD*%
D12*
%TO.P,C12,1*%
%TO.N,GNDREF*%
X151500000Y-61000000D03*
D13*
%TO.P,C12,2*%
%TO.N,+5V*%
X159000000Y-61000000D03*
%TD*%
D12*
%TO.P,C11,1*%
%TO.N,GNDREF*%
X101000000Y-145000000D03*
D13*
%TO.P,C11,2*%
%TO.N,+5V*%
X93500000Y-145000000D03*
%TD*%
D12*
%TO.P,C10,1*%
%TO.N,GNDREF*%
X94000000Y-92000000D03*
D13*
%TO.P,C10,2*%
%TO.N,+5V*%
X101500000Y-92000000D03*
%TD*%
D12*
%TO.P,C9,1*%
%TO.N,GNDREF*%
X94000000Y-81000000D03*
D13*
%TO.P,C9,2*%
%TO.N,+5V*%
X101500000Y-81000000D03*
%TD*%
D12*
%TO.P,C8,1*%
%TO.N,GNDREF*%
X94000000Y-29000000D03*
D13*
%TO.P,C8,2*%
%TO.N,+5V*%
X101500000Y-29000000D03*
%TD*%
D12*
%TO.P,C7,1*%
%TO.N,+5V*%
X202000000Y-131000000D03*
D13*
%TO.P,C7,2*%
%TO.N,GNDREF*%
X202000000Y-123500000D03*
%TD*%
D12*
%TO.P,C6,1*%
%TO.N,+5V*%
X203000000Y-96000000D03*
D13*
%TO.P,C6,2*%
%TO.N,GNDREF*%
X203000000Y-88500000D03*
%TD*%
D12*
%TO.P,C5,1*%
%TO.N,+5V*%
X202000000Y-66000000D03*
D13*
%TO.P,C5,2*%
%TO.N,GNDREF*%
X202000000Y-58500000D03*
%TD*%
D12*
%TO.P,C4,1*%
%TO.N,+5V*%
X203000000Y-39000000D03*
D13*
%TO.P,C4,2*%
%TO.N,GNDREF*%
X203000000Y-31500000D03*
%TD*%
D12*
%TO.P,C3,1*%
%TO.N,~PC_CLR*%
X171000000Y-143000000D03*
D13*
%TO.P,C3,2*%
%TO.N,GNDREF*%
X178500000Y-143000000D03*
%TD*%
D12*
%TO.P,C2,1*%
%TO.N,GNDREF*%
X125000000Y-120000000D03*
D13*
%TO.P,C2,2*%
%TO.N,+5V*%
X132500000Y-120000000D03*
%TD*%
D12*
%TO.P,C1,1*%
%TO.N,GNDREF*%
X125000000Y-66040000D03*
D13*
%TO.P,C1,2*%
%TO.N,+5V*%
X132500000Y-66040000D03*
%TD*%
D14*
%TO.P,REG8.2,1*%
%TO.N,GNDREF*%
X125000000Y-88000000D03*
D13*
%TO.P,REG8.2,13*%
%TO.N,CLK*%
X132620000Y-115940000D03*
%TO.P,REG8.2,2*%
%TO.N,GNDREF*%
X125000000Y-90540000D03*
%TO.P,REG8.2,14*%
%TO.N,~STALL*%
X132620000Y-113400000D03*
%TO.P,REG8.2,3*%
%TO.N,/N8*%
X125000000Y-93080000D03*
%TO.P,REG8.2,15*%
%TO.N,/O15*%
X132620000Y-110860000D03*
%TO.P,REG8.2,4*%
%TO.N,/N9*%
X125000000Y-95620000D03*
%TO.P,REG8.2,16*%
%TO.N,/O14*%
X132620000Y-108320000D03*
%TO.P,REG8.2,5*%
%TO.N,/N10*%
X125000000Y-98160000D03*
%TO.P,REG8.2,17*%
%TO.N,/O13*%
X132620000Y-105780000D03*
%TO.P,REG8.2,6*%
%TO.N,/N11*%
X125000000Y-100700000D03*
%TO.P,REG8.2,18*%
%TO.N,/O12*%
X132620000Y-103240000D03*
%TO.P,REG8.2,7*%
%TO.N,/N12*%
X125000000Y-103240000D03*
%TO.P,REG8.2,19*%
%TO.N,/O11*%
X132620000Y-100700000D03*
%TO.P,REG8.2,8*%
%TO.N,/N13*%
X125000000Y-105780000D03*
%TO.P,REG8.2,20*%
%TO.N,/O10*%
X132620000Y-98160000D03*
%TO.P,REG8.2,9*%
%TO.N,/N14*%
X125000000Y-108320000D03*
%TO.P,REG8.2,21*%
%TO.N,/O9*%
X132620000Y-95620000D03*
%TO.P,REG8.2,10*%
%TO.N,/N15*%
X125000000Y-110860000D03*
%TO.P,REG8.2,22*%
%TO.N,/O8*%
X132620000Y-93080000D03*
%TO.P,REG8.2,11*%
%TO.N,~PC_CLR*%
X125000000Y-113400000D03*
%TO.P,REG8.2,23*%
%TO.N,GNDREF*%
X132620000Y-90540000D03*
%TO.P,REG8.2,12*%
X125000000Y-115940000D03*
%TO.P,REG8.2,24*%
%TO.N,+5V*%
X132620000Y-88000000D03*
%TD*%
D14*
%TO.P,REG8.1,1*%
%TO.N,GNDREF*%
X125000000Y-33000000D03*
D13*
%TO.P,REG8.1,13*%
%TO.N,CLK*%
X132620000Y-60940000D03*
%TO.P,REG8.1,2*%
%TO.N,GNDREF*%
X125000000Y-35540000D03*
%TO.P,REG8.1,14*%
%TO.N,~STALL*%
X132620000Y-58400000D03*
%TO.P,REG8.1,3*%
%TO.N,/N0*%
X125000000Y-38080000D03*
%TO.P,REG8.1,15*%
%TO.N,/O7*%
X132620000Y-55860000D03*
%TO.P,REG8.1,4*%
%TO.N,/N1*%
X125000000Y-40620000D03*
%TO.P,REG8.1,16*%
%TO.N,/O6*%
X132620000Y-53320000D03*
%TO.P,REG8.1,5*%
%TO.N,/N2*%
X125000000Y-43160000D03*
%TO.P,REG8.1,17*%
%TO.N,/O5*%
X132620000Y-50780000D03*
%TO.P,REG8.1,6*%
%TO.N,/N3*%
X125000000Y-45700000D03*
%TO.P,REG8.1,18*%
%TO.N,/O4*%
X132620000Y-48240000D03*
%TO.P,REG8.1,7*%
%TO.N,/N4*%
X125000000Y-48240000D03*
%TO.P,REG8.1,19*%
%TO.N,/O3*%
X132620000Y-45700000D03*
%TO.P,REG8.1,8*%
%TO.N,/N5*%
X125000000Y-50780000D03*
%TO.P,REG8.1,20*%
%TO.N,/O2*%
X132620000Y-43160000D03*
%TO.P,REG8.1,9*%
%TO.N,/N6*%
X125000000Y-53320000D03*
%TO.P,REG8.1,21*%
%TO.N,/O1*%
X132620000Y-40620000D03*
%TO.P,REG8.1,10*%
%TO.N,/N7*%
X125000000Y-55860000D03*
%TO.P,REG8.1,22*%
%TO.N,/O0*%
X132620000Y-38080000D03*
%TO.P,REG8.1,11*%
%TO.N,~PC_CLR*%
X125000000Y-58400000D03*
%TO.P,REG8.1,23*%
%TO.N,GNDREF*%
X132620000Y-35540000D03*
%TO.P,REG8.1,12*%
X125000000Y-60940000D03*
%TO.P,REG8.1,24*%
%TO.N,+5V*%
X132620000Y-33000000D03*
%TD*%
D15*
%TO.P,R14,1*%
%TO.N,GNDREF*%
X54000000Y-124000000D03*
D16*
%TO.P,R14,2*%
%TO.N,JMP_IN*%
X61620000Y-124000000D03*
%TD*%
D15*
%TO.P,R10,1*%
%TO.N,GNDREF*%
X131000000Y-137000000D03*
D16*
%TO.P,R10,2*%
%TO.N,Net-(ADD4.4-Pad9)*%
X123380000Y-137000000D03*
%TD*%
D15*
%TO.P,R6,1*%
%TO.N,+5V*%
X131000000Y-132000000D03*
D16*
%TO.P,R6,2*%
%TO.N,Net-(POT1-Pad1)*%
X123380000Y-132000000D03*
%TD*%
D15*
%TO.P,R5,1*%
%TO.N,GNDREF*%
X54000000Y-119000000D03*
D16*
%TO.P,R5,2*%
%TO.N,~STALL*%
X61620000Y-119000000D03*
%TD*%
D15*
%TO.P,R4,1*%
%TO.N,GNDREF*%
X54000000Y-129000000D03*
D16*
%TO.P,R4,2*%
%TO.N,JMP_ABS*%
X61620000Y-129000000D03*
%TD*%
D17*
%TO.P,POT1,3*%
%TO.N,Net-(POT1-Pad3)*%
X160000000Y-143000000D03*
%TO.P,POT1,2*%
%TO.N,~PC_CLR*%
X155000000Y-138000000D03*
%TO.P,POT1,1*%
%TO.N,Net-(POT1-Pad1)*%
X150000000Y-143000000D03*
%TD*%
D14*
%TO.P,MUXB2,1*%
%TO.N,JMP_IN*%
X152000000Y-91000000D03*
D13*
%TO.P,MUXB2,9*%
%TO.N,/R6*%
X159620000Y-108780000D03*
%TO.P,MUXB2,2*%
%TO.N,GNDREF*%
X152000000Y-93540000D03*
%TO.P,MUXB2,10*%
%TO.N,/OFF6*%
X159620000Y-106240000D03*
%TO.P,MUXB2,3*%
%TO.N,/OFF4*%
X152000000Y-96080000D03*
%TO.P,MUXB2,11*%
%TO.N,GNDREF*%
X159620000Y-103700000D03*
%TO.P,MUXB2,4*%
%TO.N,/R4*%
X152000000Y-98620000D03*
%TO.P,MUXB2,12*%
%TO.N,/R7*%
X159620000Y-101160000D03*
%TO.P,MUXB2,5*%
%TO.N,GNDREF*%
X152000000Y-101160000D03*
%TO.P,MUXB2,13*%
%TO.N,/OFF7*%
X159620000Y-98620000D03*
%TO.P,MUXB2,6*%
%TO.N,/OFF5*%
X152000000Y-103700000D03*
%TO.P,MUXB2,14*%
%TO.N,GNDREF*%
X159620000Y-96080000D03*
%TO.P,MUXB2,7*%
%TO.N,/R5*%
X152000000Y-106240000D03*
%TO.P,MUXB2,15*%
%TO.N,GNDREF*%
X159620000Y-93540000D03*
%TO.P,MUXB2,8*%
X152000000Y-108780000D03*
%TO.P,MUXB2,16*%
%TO.N,+5V*%
X159620000Y-91000000D03*
%TD*%
D14*
%TO.P,MUXB1,1*%
%TO.N,JMP_IN*%
X159000000Y-55000000D03*
D13*
%TO.P,MUXB1,9*%
%TO.N,/R2*%
X151380000Y-37220000D03*
%TO.P,MUXB1,2*%
%TO.N,GNDREF*%
X159000000Y-52460000D03*
%TO.P,MUXB1,10*%
%TO.N,/OFF2*%
X151380000Y-39760000D03*
%TO.P,MUXB1,3*%
%TO.N,/OFF0*%
X159000000Y-49920000D03*
%TO.P,MUXB1,11*%
%TO.N,GNDREF*%
X151380000Y-42300000D03*
%TO.P,MUXB1,4*%
%TO.N,/R0*%
X159000000Y-47380000D03*
%TO.P,MUXB1,12*%
%TO.N,/R3*%
X151380000Y-44840000D03*
%TO.P,MUXB1,5*%
%TO.N,+5V*%
X159000000Y-44840000D03*
%TO.P,MUXB1,13*%
%TO.N,/OFF3*%
X151380000Y-47380000D03*
%TO.P,MUXB1,6*%
%TO.N,/OFF1*%
X159000000Y-42300000D03*
%TO.P,MUXB1,14*%
%TO.N,GNDREF*%
X151380000Y-49920000D03*
%TO.P,MUXB1,7*%
%TO.N,/R1*%
X159000000Y-39760000D03*
%TO.P,MUXB1,15*%
%TO.N,GNDREF*%
X151380000Y-52460000D03*
%TO.P,MUXB1,8*%
X159000000Y-37220000D03*
%TO.P,MUXB1,16*%
%TO.N,+5V*%
X151380000Y-55000000D03*
%TD*%
D14*
%TO.P,MUXA4,1*%
%TO.N,JMP_ABS*%
X94000000Y-123000000D03*
D13*
%TO.P,MUXA4,9*%
%TO.N,/N14*%
X101620000Y-140780000D03*
%TO.P,MUXA4,2*%
%TO.N,/S12*%
X94000000Y-125540000D03*
%TO.P,MUXA4,10*%
%TO.N,/OFF14*%
X101620000Y-138240000D03*
%TO.P,MUXA4,3*%
%TO.N,/OFF12*%
X94000000Y-128080000D03*
%TO.P,MUXA4,11*%
%TO.N,/S14*%
X101620000Y-135700000D03*
%TO.P,MUXA4,4*%
%TO.N,/N12*%
X94000000Y-130620000D03*
%TO.P,MUXA4,12*%
%TO.N,/N15*%
X101620000Y-133160000D03*
%TO.P,MUXA4,5*%
%TO.N,/S13*%
X94000000Y-133160000D03*
%TO.P,MUXA4,13*%
%TO.N,/OFF15*%
X101620000Y-130620000D03*
%TO.P,MUXA4,6*%
%TO.N,/OFF13*%
X94000000Y-135700000D03*
%TO.P,MUXA4,14*%
%TO.N,/S15*%
X101620000Y-128080000D03*
%TO.P,MUXA4,7*%
%TO.N,/N13*%
X94000000Y-138240000D03*
%TO.P,MUXA4,15*%
%TO.N,GNDREF*%
X101620000Y-125540000D03*
%TO.P,MUXA4,8*%
X94000000Y-140780000D03*
%TO.P,MUXA4,16*%
%TO.N,+5V*%
X101620000Y-123000000D03*
%TD*%
D14*
%TO.P,MUXA3,1*%
%TO.N,JMP_ABS*%
X94000000Y-98000000D03*
D13*
%TO.P,MUXA3,9*%
%TO.N,/N10*%
X101620000Y-115780000D03*
%TO.P,MUXA3,2*%
%TO.N,/S8*%
X94000000Y-100540000D03*
%TO.P,MUXA3,10*%
%TO.N,/OFF10*%
X101620000Y-113240000D03*
%TO.P,MUXA3,3*%
%TO.N,/OFF8*%
X94000000Y-103080000D03*
%TO.P,MUXA3,11*%
%TO.N,/S10*%
X101620000Y-110700000D03*
%TO.P,MUXA3,4*%
%TO.N,/N8*%
X94000000Y-105620000D03*
%TO.P,MUXA3,12*%
%TO.N,/N11*%
X101620000Y-108160000D03*
%TO.P,MUXA3,5*%
%TO.N,/S9*%
X94000000Y-108160000D03*
%TO.P,MUXA3,13*%
%TO.N,/OFF11*%
X101620000Y-105620000D03*
%TO.P,MUXA3,6*%
%TO.N,/OFF9*%
X94000000Y-110700000D03*
%TO.P,MUXA3,14*%
%TO.N,/S11*%
X101620000Y-103080000D03*
%TO.P,MUXA3,7*%
%TO.N,/N9*%
X94000000Y-113240000D03*
%TO.P,MUXA3,15*%
%TO.N,GNDREF*%
X101620000Y-100540000D03*
%TO.P,MUXA3,8*%
X94000000Y-115780000D03*
%TO.P,MUXA3,16*%
%TO.N,+5V*%
X101620000Y-98000000D03*
%TD*%
D14*
%TO.P,MUXA2,1*%
%TO.N,JMP_ABS*%
X94000000Y-58000000D03*
D13*
%TO.P,MUXA2,9*%
%TO.N,/N6*%
X101620000Y-75780000D03*
%TO.P,MUXA2,2*%
%TO.N,/S4*%
X94000000Y-60540000D03*
%TO.P,MUXA2,10*%
%TO.N,/OFF6*%
X101620000Y-73240000D03*
%TO.P,MUXA2,3*%
%TO.N,/OFF4*%
X94000000Y-63080000D03*
%TO.P,MUXA2,11*%
%TO.N,/S6*%
X101620000Y-70700000D03*
%TO.P,MUXA2,4*%
%TO.N,/N4*%
X94000000Y-65620000D03*
%TO.P,MUXA2,12*%
%TO.N,/N7*%
X101620000Y-68160000D03*
%TO.P,MUXA2,5*%
%TO.N,/S5*%
X94000000Y-68160000D03*
%TO.P,MUXA2,13*%
%TO.N,/OFF7*%
X101620000Y-65620000D03*
%TO.P,MUXA2,6*%
%TO.N,/OFF5*%
X94000000Y-70700000D03*
%TO.P,MUXA2,14*%
%TO.N,/S7*%
X101620000Y-63080000D03*
%TO.P,MUXA2,7*%
%TO.N,/N5*%
X94000000Y-73240000D03*
%TO.P,MUXA2,15*%
%TO.N,Net-(MUXA2-Pad15)*%
X101620000Y-60540000D03*
%TO.P,MUXA2,8*%
%TO.N,GNDREF*%
X94000000Y-75780000D03*
%TO.P,MUXA2,16*%
%TO.N,+5V*%
X101620000Y-58000000D03*
%TD*%
D14*
%TO.P,MUXA1,1*%
%TO.N,JMP_ABS*%
X94000000Y-34000000D03*
D13*
%TO.P,MUXA1,9*%
%TO.N,/N2*%
X101620000Y-51780000D03*
%TO.P,MUXA1,2*%
%TO.N,/S0*%
X94000000Y-36540000D03*
%TO.P,MUXA1,10*%
%TO.N,/OFF2*%
X101620000Y-49240000D03*
%TO.P,MUXA1,3*%
%TO.N,/OFF0*%
X94000000Y-39080000D03*
%TO.P,MUXA1,11*%
%TO.N,/S2*%
X101620000Y-46700000D03*
%TO.P,MUXA1,4*%
%TO.N,/N0*%
X94000000Y-41620000D03*
%TO.P,MUXA1,12*%
%TO.N,/N3*%
X101620000Y-44160000D03*
%TO.P,MUXA1,5*%
%TO.N,/S1*%
X94000000Y-44160000D03*
%TO.P,MUXA1,13*%
%TO.N,/OFF3*%
X101620000Y-41620000D03*
%TO.P,MUXA1,6*%
%TO.N,/OFF1*%
X94000000Y-46700000D03*
%TO.P,MUXA1,14*%
%TO.N,/S3*%
X101620000Y-39080000D03*
%TO.P,MUXA1,7*%
%TO.N,/N1*%
X94000000Y-49240000D03*
%TO.P,MUXA1,15*%
%TO.N,GNDREF*%
X101620000Y-36540000D03*
%TO.P,MUXA1,8*%
X94000000Y-51780000D03*
%TO.P,MUXA1,16*%
%TO.N,+5V*%
X101620000Y-34000000D03*
%TD*%
D18*
%TO.P,J5,1*%
%TO.N,GNDREF*%
X229000000Y-123000000D03*
D19*
%TO.P,J5,2*%
%TO.N,+5V*%
X229000000Y-128000000D03*
%TD*%
D20*
%TO.P,J4,1*%
%TO.N,CLK*%
X226000000Y-112000000D03*
%TD*%
D21*
%TO.P,J3,1*%
%TO.N,JMP_IN*%
X56000000Y-95000000D03*
D22*
%TO.P,J3,2*%
%TO.N,REL_SIGN*%
X56000000Y-97500000D03*
%TO.P,J3,3*%
%TO.N,~STALL*%
X56000000Y-100000000D03*
%TO.P,J3,4*%
%TO.N,JMP_ABS*%
X56000000Y-102500000D03*
%TD*%
D21*
%TO.P,J2,1*%
%TO.N,/OFF0*%
X56000000Y-44000000D03*
D22*
%TO.P,J2,2*%
%TO.N,/OFF1*%
X56000000Y-46500000D03*
%TO.P,J2,3*%
%TO.N,/OFF2*%
X56000000Y-49000000D03*
%TO.P,J2,4*%
%TO.N,/OFF3*%
X56000000Y-51500000D03*
%TO.P,J2,5*%
%TO.N,/OFF4*%
X56000000Y-54000000D03*
%TO.P,J2,6*%
%TO.N,/OFF5*%
X56000000Y-56500000D03*
%TO.P,J2,7*%
%TO.N,/OFF6*%
X56000000Y-59000000D03*
%TO.P,J2,8*%
%TO.N,/OFF7*%
X56000000Y-61500000D03*
%TO.P,J2,9*%
%TO.N,/OFF8*%
X56000000Y-64000000D03*
%TO.P,J2,10*%
%TO.N,/OFF9*%
X56000000Y-66500000D03*
%TO.P,J2,11*%
%TO.N,/OFF10*%
X56000000Y-69000000D03*
%TO.P,J2,12*%
%TO.N,/OFF11*%
X56000000Y-71500000D03*
%TO.P,J2,13*%
%TO.N,/OFF12*%
X56000000Y-74000000D03*
%TO.P,J2,14*%
%TO.N,/OFF13*%
X56000000Y-76500000D03*
%TO.P,J2,15*%
%TO.N,/OFF14*%
X56000000Y-79000000D03*
%TO.P,J2,16*%
%TO.N,/OFF15*%
X56000000Y-81500000D03*
%TD*%
D21*
%TO.P,J1,1*%
%TO.N,/O0*%
X227000000Y-52000000D03*
D22*
%TO.P,J1,2*%
%TO.N,/O1*%
X227000000Y-54500000D03*
%TO.P,J1,3*%
%TO.N,/O2*%
X227000000Y-57000000D03*
%TO.P,J1,4*%
%TO.N,/O3*%
X227000000Y-59500000D03*
%TO.P,J1,5*%
%TO.N,/O4*%
X227000000Y-62000000D03*
%TO.P,J1,6*%
%TO.N,/O5*%
X227000000Y-64500000D03*
%TO.P,J1,7*%
%TO.N,/O6*%
X227000000Y-67000000D03*
%TO.P,J1,8*%
%TO.N,/O7*%
X227000000Y-69500000D03*
%TO.P,J1,9*%
%TO.N,/O8*%
X227000000Y-72000000D03*
%TO.P,J1,10*%
%TO.N,/O9*%
X227000000Y-74500000D03*
%TO.P,J1,11*%
%TO.N,/O10*%
X227000000Y-77000000D03*
%TO.P,J1,12*%
%TO.N,/O11*%
X227000000Y-79500000D03*
%TO.P,J1,13*%
%TO.N,/O12*%
X227000000Y-82000000D03*
%TO.P,J1,14*%
%TO.N,/O13*%
X227000000Y-84500000D03*
%TO.P,J1,15*%
%TO.N,/O14*%
X227000000Y-87000000D03*
%TO.P,J1,16*%
%TO.N,/O15*%
X227000000Y-89500000D03*
%TD*%
D14*
%TO.P,C_BOARD1,1*%
%TO.N,+5V*%
X228000000Y-136000000D03*
D12*
%TO.P,C_BOARD1,2*%
%TO.N,GNDREF*%
X228000000Y-138500000D03*
%TD*%
D14*
%TO.P,ADD4.2,1*%
%TO.N,/S5*%
X179000000Y-66000000D03*
D13*
%TO.P,ADD4.2,9*%
%TO.N,Net-(ADD4.2-Pad9)*%
X196780000Y-58380000D03*
%TO.P,ADD4.2,2*%
%TO.N,/OFF5*%
X181540000Y-66000000D03*
%TO.P,ADD4.2,10*%
%TO.N,/S7*%
X194240000Y-58380000D03*
%TO.P,ADD4.2,3*%
%TO.N,/R5*%
X184080000Y-66000000D03*
%TO.P,ADD4.2,11*%
%TO.N,/OFF7*%
X191700000Y-58380000D03*
%TO.P,ADD4.2,4*%
%TO.N,/S4*%
X186620000Y-66000000D03*
%TO.P,ADD4.2,12*%
%TO.N,/R7*%
X189160000Y-58380000D03*
%TO.P,ADD4.2,5*%
%TO.N,/R4*%
X189160000Y-66000000D03*
%TO.P,ADD4.2,13*%
%TO.N,/S6*%
X186620000Y-58380000D03*
%TO.P,ADD4.2,6*%
%TO.N,/OFF4*%
X191700000Y-66000000D03*
%TO.P,ADD4.2,14*%
%TO.N,/R6*%
X184080000Y-58380000D03*
%TO.P,ADD4.2,7*%
%TO.N,Net-(ADD4.1-Pad9)*%
X194240000Y-66000000D03*
%TO.P,ADD4.2,15*%
%TO.N,/OFF6*%
X181540000Y-58380000D03*
%TO.P,ADD4.2,8*%
%TO.N,GNDREF*%
X196780000Y-66000000D03*
%TO.P,ADD4.2,16*%
%TO.N,+5V*%
X179000000Y-58380000D03*
%TD*%
D14*
%TO.P,ADD4.1,1*%
%TO.N,/S1*%
X180000000Y-39000000D03*
D13*
%TO.P,ADD4.1,9*%
%TO.N,Net-(ADD4.1-Pad9)*%
X197780000Y-31380000D03*
%TO.P,ADD4.1,2*%
%TO.N,/OFF1*%
X182540000Y-39000000D03*
%TO.P,ADD4.1,10*%
%TO.N,/S3*%
X195240000Y-31380000D03*
%TO.P,ADD4.1,3*%
%TO.N,/R1*%
X185080000Y-39000000D03*
%TO.P,ADD4.1,11*%
%TO.N,/OFF3*%
X192700000Y-31380000D03*
%TO.P,ADD4.1,4*%
%TO.N,/S0*%
X187620000Y-39000000D03*
%TO.P,ADD4.1,12*%
%TO.N,/R3*%
X190160000Y-31380000D03*
%TO.P,ADD4.1,5*%
%TO.N,/R0*%
X190160000Y-39000000D03*
%TO.P,ADD4.1,13*%
%TO.N,/S2*%
X187620000Y-31380000D03*
%TO.P,ADD4.1,6*%
%TO.N,/OFF0*%
X192700000Y-39000000D03*
%TO.P,ADD4.1,14*%
%TO.N,/R2*%
X185080000Y-31380000D03*
%TO.P,ADD4.1,7*%
%TO.N,GNDREF*%
X195240000Y-39000000D03*
%TO.P,ADD4.1,15*%
%TO.N,/OFF2*%
X182540000Y-31380000D03*
%TO.P,ADD4.1,8*%
%TO.N,GNDREF*%
X197780000Y-39000000D03*
%TO.P,ADD4.1,16*%
%TO.N,+5V*%
X180000000Y-31380000D03*
%TD*%
D14*
%TO.P,ADD4.3,1*%
%TO.N,/S9*%
X179000000Y-96000000D03*
D13*
%TO.P,ADD4.3,9*%
%TO.N,Net-(ADD4.3-Pad9)*%
X196780000Y-88380000D03*
%TO.P,ADD4.3,2*%
%TO.N,/OFF9*%
X181540000Y-96000000D03*
%TO.P,ADD4.3,10*%
%TO.N,/S11*%
X194240000Y-88380000D03*
%TO.P,ADD4.3,3*%
%TO.N,REL_SIGN*%
X184080000Y-96000000D03*
%TO.P,ADD4.3,11*%
%TO.N,/OFF11*%
X191700000Y-88380000D03*
%TO.P,ADD4.3,4*%
%TO.N,/S8*%
X186620000Y-96000000D03*
%TO.P,ADD4.3,12*%
%TO.N,REL_SIGN*%
X189160000Y-88380000D03*
%TO.P,ADD4.3,5*%
X189160000Y-96000000D03*
%TO.P,ADD4.3,13*%
%TO.N,/S10*%
X186620000Y-88380000D03*
%TO.P,ADD4.3,6*%
%TO.N,/OFF8*%
X191700000Y-96000000D03*
%TO.P,ADD4.3,14*%
%TO.N,REL_SIGN*%
X184080000Y-88380000D03*
%TO.P,ADD4.3,7*%
%TO.N,Net-(ADD4.2-Pad9)*%
X194240000Y-96000000D03*
%TO.P,ADD4.3,15*%
%TO.N,/OFF10*%
X181540000Y-88380000D03*
%TO.P,ADD4.3,8*%
%TO.N,GNDREF*%
X196780000Y-96000000D03*
%TO.P,ADD4.3,16*%
%TO.N,+5V*%
X179000000Y-88380000D03*
%TD*%
D14*
%TO.P,ADD4.4,1*%
%TO.N,/S13*%
X179000000Y-131000000D03*
D13*
%TO.P,ADD4.4,9*%
%TO.N,Net-(ADD4.4-Pad9)*%
X196780000Y-123380000D03*
%TO.P,ADD4.4,2*%
%TO.N,/OFF13*%
X181540000Y-131000000D03*
%TO.P,ADD4.4,10*%
%TO.N,/S15*%
X194240000Y-123380000D03*
%TO.P,ADD4.4,3*%
%TO.N,REL_SIGN*%
X184080000Y-131000000D03*
%TO.P,ADD4.4,11*%
%TO.N,/OFF15*%
X191700000Y-123380000D03*
%TO.P,ADD4.4,4*%
%TO.N,/S12*%
X186620000Y-131000000D03*
%TO.P,ADD4.4,12*%
%TO.N,REL_SIGN*%
X189160000Y-123380000D03*
%TO.P,ADD4.4,5*%
X189160000Y-131000000D03*
%TO.P,ADD4.4,13*%
%TO.N,/S14*%
X186620000Y-123380000D03*
%TO.P,ADD4.4,6*%
%TO.N,/OFF12*%
X191700000Y-131000000D03*
%TO.P,ADD4.4,14*%
%TO.N,REL_SIGN*%
X184080000Y-123380000D03*
%TO.P,ADD4.4,7*%
%TO.N,Net-(ADD4.3-Pad9)*%
X194240000Y-131000000D03*
%TO.P,ADD4.4,15*%
%TO.N,/OFF14*%
X181540000Y-123380000D03*
%TO.P,ADD4.4,8*%
%TO.N,GNDREF*%
X196780000Y-131000000D03*
%TO.P,ADD4.4,16*%
%TO.N,+5V*%
X179000000Y-123380000D03*
%TD*%
D23*
%TO.N,/S14*%
X171456400Y-132287300D03*
%TO.N,/S9*%
X142562100Y-107050000D03*
%TO.N,/OFF9*%
X165590900Y-111536500D03*
%TO.N,/S11*%
X113917600Y-91909700D03*
X194240000Y-73628000D03*
%TO.N,/OFF11*%
X184267000Y-72864100D03*
X123589100Y-87323500D03*
%TO.N,/S10*%
X142864500Y-104652700D03*
%TO.N,/OFF10*%
X165020600Y-107510000D03*
%TO.N,/S1*%
X165587000Y-38164300D03*
%TO.N,/OFF3*%
X101915000Y-53976300D03*
%TO.N,/R0*%
X183326000Y-45217700D03*
%TO.N,/S2*%
X104675400Y-45384000D03*
X135361700Y-35377500D03*
%TO.N,/OFF2*%
X120668400Y-45836100D03*
X156245400Y-35160600D03*
%TO.N,/OFF7*%
X183213500Y-64872600D03*
X169475200Y-67871900D03*
%TO.N,/S6*%
X175860100Y-67707100D03*
%TO.N,/OFF4*%
X129800500Y-54698000D03*
X158205500Y-71669300D03*
%TO.N,/OFF6*%
X170954200Y-69769400D03*
%TO.N,/O12*%
X134790500Y-103338800D03*
X182463000Y-101167800D03*
%TO.N,/N1*%
X103762000Y-47566800D03*
%TO.N,/N4*%
X95589200Y-58890000D03*
%TO.N,/N5*%
X128232700Y-72601200D03*
%TO.N,/N15*%
X104285000Y-132849400D03*
%TO.N,GNDREF*%
X142201400Y-39676600D03*
X214584800Y-88499000D03*
X91966000Y-113642500D03*
X92065300Y-131813300D03*
X131995000Y-145242600D03*
X210659300Y-124293800D03*
X134693700Y-91074900D03*
X139410700Y-93540000D03*
X214584800Y-56681400D03*
%TD*%
D24*
%TO.N,/OFF13*%
X94000000Y-135700000D02*
X94000000Y-134572700D01*
X56000000Y-76500000D02*
X90159000Y-110659000D01*
X90159000Y-110659000D02*
X90159000Y-130965300D01*
X90159000Y-130965300D02*
X93766400Y-134572700D01*
X93766400Y-134572700D02*
X94000000Y-134572700D01*
%TO.N,REL_SIGN*%
X186474400Y-94828300D02*
X186173100Y-94828300D01*
X186173100Y-94828300D02*
X185207300Y-95794100D01*
X185207300Y-95794100D02*
X185207300Y-96000000D01*
X188032700Y-96000000D02*
X188032700Y-95718200D01*
X188032700Y-95718200D02*
X187142800Y-94828300D01*
X187142800Y-94828300D02*
X186474400Y-94828300D01*
X186474400Y-94828300D02*
X186474400Y-89507400D01*
X186474400Y-89507400D02*
X187138900Y-89507400D01*
X187138900Y-89507400D02*
X188032700Y-88613600D01*
X188032700Y-88613600D02*
X188032700Y-88380000D01*
X185207300Y-88380000D02*
X185207300Y-88661800D01*
X185207300Y-88661800D02*
X186052900Y-89507400D01*
X186052900Y-89507400D02*
X186474400Y-89507400D01*
X189160000Y-88380000D02*
X188032700Y-88380000D01*
X184080000Y-88380000D02*
X185207300Y-88380000D01*
X189160000Y-123380000D02*
X189160000Y-96000000D01*
X189160000Y-129872300D02*
X189160000Y-123380000D01*
X189160000Y-131000000D02*
X189160000Y-129872300D01*
X189160000Y-129872300D02*
X186101400Y-129872300D01*
X186101400Y-129872300D02*
X185207300Y-130766400D01*
X185207300Y-130766400D02*
X185207300Y-131000000D01*
X184080000Y-131000000D02*
X185207300Y-131000000D01*
X184080000Y-96000000D02*
X185207300Y-96000000D01*
X189160000Y-96000000D02*
X188032700Y-96000000D01*
%TO.N,/OFF15*%
X101620000Y-130620000D02*
X101620000Y-131747300D01*
X56000000Y-81500000D02*
X88824800Y-114324800D01*
X88824800Y-114324800D02*
X88824800Y-134659800D01*
X88824800Y-134659800D02*
X93582500Y-139417500D01*
X93582500Y-139417500D02*
X94493900Y-139417500D01*
X94493900Y-139417500D02*
X100207400Y-133704000D01*
X100207400Y-133704000D02*
X100207400Y-132926300D01*
X100207400Y-132926300D02*
X101386400Y-131747300D01*
X101386400Y-131747300D02*
X101620000Y-131747300D01*
%TO.N,/S14*%
X186620000Y-123380000D02*
X185492700Y-123380000D01*
X185492700Y-123380000D02*
X185492700Y-123661800D01*
X185492700Y-123661800D02*
X182555800Y-126598700D01*
X182555800Y-126598700D02*
X177145000Y-126598700D01*
X177145000Y-126598700D02*
X171456400Y-132287300D01*
%TO.N,/OFF12*%
X56000000Y-74000000D02*
X91238700Y-109238700D01*
X91238700Y-109238700D02*
X91238700Y-124425000D01*
X91238700Y-124425000D02*
X93766400Y-126952700D01*
X93766400Y-126952700D02*
X94000000Y-126952700D01*
X94000000Y-128080000D02*
X94000000Y-126952700D01*
%TO.N,Net-(ADD4.3-Pad9)*%
X196780000Y-88380000D02*
X196780000Y-89507300D01*
X194240000Y-131000000D02*
X194240000Y-129872700D01*
X194240000Y-129872700D02*
X195367300Y-128745400D01*
X195367300Y-128745400D02*
X195367300Y-90920000D01*
X195367300Y-90920000D02*
X196780000Y-89507300D01*
%TO.N,/OFF14*%
X100013500Y-140847000D02*
X103681600Y-144515100D01*
X103681600Y-144515100D02*
X156191700Y-144515100D01*
X156191700Y-144515100D02*
X176199500Y-124507300D01*
X176199500Y-124507300D02*
X179567300Y-124507300D01*
X179567300Y-124507300D02*
X180412700Y-123661900D01*
X180412700Y-123661900D02*
X180412700Y-123380000D01*
X181540000Y-123380000D02*
X180412700Y-123380000D01*
X100013500Y-140847000D02*
X100013500Y-138719200D01*
X100013500Y-138719200D02*
X100492700Y-138240000D01*
X56000000Y-79000000D02*
X54797600Y-80202400D01*
X54797600Y-80202400D02*
X54797600Y-87196000D01*
X54797600Y-87196000D02*
X83517600Y-115916000D01*
X83517600Y-115916000D02*
X83517600Y-131905200D01*
X83517600Y-131905200D02*
X93524800Y-141912400D01*
X93524800Y-141912400D02*
X98948100Y-141912400D01*
X98948100Y-141912400D02*
X100013500Y-140847000D01*
X101620000Y-138240000D02*
X100492700Y-138240000D01*
D25*
%TO.N,+5V*%
X101620000Y-58000000D02*
X101620000Y-59254300D01*
X101500000Y-81000000D02*
X101500000Y-79745700D01*
X101500000Y-79745700D02*
X100334400Y-78580100D01*
X100334400Y-78580100D02*
X100334400Y-60020100D01*
X100334400Y-60020100D02*
X101100200Y-59254300D01*
X101100200Y-59254300D02*
X101620000Y-59254300D01*
X203000000Y-96000000D02*
X204261300Y-94738700D01*
X204261300Y-94738700D02*
X204261300Y-68261300D01*
X204261300Y-68261300D02*
X202000000Y-66000000D01*
X203259400Y-128000000D02*
X203259400Y-96259400D01*
X203259400Y-96259400D02*
X203000000Y-96000000D01*
X180000000Y-31380000D02*
X180000000Y-32634300D01*
X179000000Y-58380000D02*
X179000000Y-57125700D01*
X179000000Y-57125700D02*
X181254400Y-54871300D01*
X181254400Y-54871300D02*
X181254400Y-33888700D01*
X181254400Y-33888700D02*
X180000000Y-32634300D01*
X228000000Y-136000000D02*
X228000000Y-128000000D01*
X228000000Y-128000000D02*
X227045700Y-128000000D01*
X229000000Y-128000000D02*
X228000000Y-128000000D01*
X202000000Y-131000000D02*
X203259400Y-129740600D01*
X203259400Y-129740600D02*
X203259400Y-128000000D01*
X203259400Y-128000000D02*
X227045700Y-128000000D01*
X101620000Y-56745700D02*
X102885500Y-55480200D01*
X102885500Y-55480200D02*
X102885500Y-36000000D01*
X102885500Y-36000000D02*
X102139800Y-35254300D01*
X102139800Y-35254300D02*
X101620000Y-35254300D01*
X203000000Y-39000000D02*
X203256700Y-39256700D01*
X203256700Y-39256700D02*
X203256700Y-64743300D01*
X203256700Y-64743300D02*
X202000000Y-66000000D01*
X159000000Y-44840000D02*
X159000000Y-46094300D01*
X152634300Y-55000000D02*
X152634300Y-51940200D01*
X152634300Y-51940200D02*
X158480200Y-46094300D01*
X158480200Y-46094300D02*
X159000000Y-46094300D01*
X152457200Y-55000000D02*
X152634300Y-55000000D01*
X151380000Y-55000000D02*
X152457200Y-55000000D01*
X159000000Y-61000000D02*
X159000000Y-62254300D01*
X159000000Y-61000000D02*
X157745700Y-61000000D01*
X157745700Y-61000000D02*
X152634300Y-55888600D01*
X152634300Y-55888600D02*
X152634300Y-55000000D01*
X159500000Y-85745700D02*
X159500000Y-62754300D01*
X159500000Y-62754300D02*
X159000000Y-62254300D01*
X159500000Y-87000000D02*
X159500000Y-85745700D01*
X132500000Y-120000000D02*
X132500000Y-121254300D01*
X132500000Y-121254300D02*
X131000000Y-122754300D01*
X131000000Y-122754300D02*
X131000000Y-132000000D01*
X57856200Y-23143800D02*
X58625000Y-23912600D01*
X58625000Y-23912600D02*
X58625000Y-25000000D01*
X101620000Y-34000000D02*
X101620000Y-35254300D01*
X101620000Y-58000000D02*
X101620000Y-56745700D01*
X132500000Y-66040000D02*
X132500000Y-67294300D01*
X132620000Y-88000000D02*
X132620000Y-67414300D01*
X132620000Y-67414300D02*
X132500000Y-67294300D01*
X101620000Y-98000000D02*
X101620000Y-96745700D01*
X101620000Y-96745700D02*
X101500000Y-96625700D01*
X101500000Y-96625700D02*
X101500000Y-92000000D01*
X101620000Y-34000000D02*
X101620000Y-32745700D01*
X101620000Y-32745700D02*
X101500000Y-32625700D01*
X101500000Y-32625700D02*
X101500000Y-29000000D01*
D24*
%TO.N,/S9*%
X142562100Y-107050000D02*
X147298500Y-111786400D01*
X147298500Y-111786400D02*
X162487900Y-111786400D01*
X162487900Y-111786400D02*
X177872700Y-96401600D01*
X177872700Y-96401600D02*
X177872700Y-96000000D01*
X179000000Y-96000000D02*
X177872700Y-96000000D01*
%TO.N,/OFF9*%
X165590900Y-111536500D02*
X180412700Y-96714700D01*
X180412700Y-96714700D02*
X180412700Y-96000000D01*
X181540000Y-96000000D02*
X180412700Y-96000000D01*
X56000000Y-66500000D02*
X92609700Y-103109700D01*
X92609700Y-103109700D02*
X92609700Y-108420000D01*
X92609700Y-108420000D02*
X93876000Y-109686300D01*
X93876000Y-109686300D02*
X94000000Y-109686300D01*
X94000000Y-110700000D02*
X94000000Y-109686300D01*
%TO.N,/S11*%
X102747300Y-103080000D02*
X113917600Y-91909700D01*
X194240000Y-88380000D02*
X194240000Y-73628000D01*
X101620000Y-103080000D02*
X102747300Y-103080000D01*
%TO.N,/OFF11*%
X123589100Y-87323500D02*
X105292600Y-105620000D01*
X105292600Y-105620000D02*
X102747300Y-105620000D01*
X101620000Y-105620000D02*
X102747300Y-105620000D01*
X184267000Y-72864100D02*
X191700000Y-80297100D01*
X191700000Y-80297100D02*
X191700000Y-88380000D01*
X101074300Y-105620000D02*
X101620000Y-105620000D01*
X101074300Y-105620000D02*
X100492700Y-105620000D01*
X56000000Y-71500000D02*
X54795500Y-70295500D01*
X54795500Y-70295500D02*
X54795500Y-63433600D01*
X54795500Y-63433600D02*
X55479100Y-62750000D01*
X55479100Y-62750000D02*
X56509400Y-62750000D01*
X56509400Y-62750000D02*
X92886800Y-99127400D01*
X92886800Y-99127400D02*
X94233700Y-99127400D01*
X94233700Y-99127400D02*
X100492700Y-105386400D01*
X100492700Y-105386400D02*
X100492700Y-105620000D01*
%TO.N,/S10*%
X186620000Y-88380000D02*
X185466100Y-87226100D01*
X185466100Y-87226100D02*
X183589400Y-87226100D01*
X183589400Y-87226100D02*
X182830200Y-87985300D01*
X182830200Y-87985300D02*
X182830200Y-90101900D01*
X182830200Y-90101900D02*
X177333900Y-95598200D01*
X177333900Y-95598200D02*
X177333900Y-96297900D01*
X177333900Y-96297900D02*
X162356500Y-111275300D01*
X162356500Y-111275300D02*
X149487100Y-111275300D01*
X149487100Y-111275300D02*
X142864500Y-104652700D01*
%TO.N,/OFF8*%
X94000000Y-103080000D02*
X94000000Y-101952700D01*
X56000000Y-64000000D02*
X56000000Y-64170200D01*
X56000000Y-64170200D02*
X93782500Y-101952700D01*
X93782500Y-101952700D02*
X94000000Y-101952700D01*
%TO.N,Net-(ADD4.2-Pad9)*%
X196780000Y-58380000D02*
X196780000Y-59507300D01*
X194240000Y-96000000D02*
X194240000Y-94872700D01*
X194240000Y-94872700D02*
X193092300Y-93725000D01*
X193092300Y-93725000D02*
X193092300Y-63195000D01*
X193092300Y-63195000D02*
X196780000Y-59507300D01*
%TO.N,/OFF10*%
X101620000Y-113240000D02*
X100492700Y-113240000D01*
X56000000Y-69000000D02*
X91693100Y-104693100D01*
X91693100Y-104693100D02*
X91693100Y-112320200D01*
X91693100Y-112320200D02*
X92693400Y-113320500D01*
X92693400Y-113320500D02*
X92693400Y-113549300D01*
X92693400Y-113549300D02*
X93520900Y-114376800D01*
X93520900Y-114376800D02*
X99355900Y-114376800D01*
X99355900Y-114376800D02*
X100492700Y-113240000D01*
X181540000Y-88380000D02*
X181540000Y-89507300D01*
X181540000Y-89507300D02*
X176718800Y-94328500D01*
X176718800Y-94328500D02*
X176718800Y-95811800D01*
X176718800Y-95811800D02*
X165020600Y-107510000D01*
%TO.N,/S1*%
X94000000Y-43032700D02*
X94193800Y-43032700D01*
X94193800Y-43032700D02*
X95127400Y-42099100D01*
X95127400Y-42099100D02*
X95127400Y-31726000D01*
X95127400Y-31726000D02*
X92850500Y-29449100D01*
X92850500Y-29449100D02*
X92850500Y-28474700D01*
X92850500Y-28474700D02*
X93477000Y-27848200D01*
X93477000Y-27848200D02*
X155270900Y-27848200D01*
X155270900Y-27848200D02*
X165587000Y-38164300D01*
X94000000Y-44160000D02*
X94000000Y-43032700D01*
%TO.N,Net-(ADD4.1-Pad9)*%
X194240000Y-66000000D02*
X194240000Y-64872700D01*
X197780000Y-31380000D02*
X197780000Y-32507300D01*
X197780000Y-32507300D02*
X196651700Y-33635600D01*
X196651700Y-33635600D02*
X196651700Y-56177700D01*
X196651700Y-56177700D02*
X197933100Y-57459100D01*
X197933100Y-57459100D02*
X197933100Y-61179600D01*
X197933100Y-61179600D02*
X194240000Y-64872700D01*
%TO.N,/OFF3*%
X101620000Y-41620000D02*
X101620000Y-42747300D01*
X101620000Y-42747300D02*
X101338200Y-42747300D01*
X101338200Y-42747300D02*
X100456700Y-43628800D01*
X100456700Y-43628800D02*
X100456700Y-52518000D01*
X100456700Y-52518000D02*
X101915000Y-53976300D01*
X192700000Y-31380000D02*
X191572700Y-31380000D01*
X151380000Y-47380000D02*
X152507300Y-47380000D01*
X152507300Y-47380000D02*
X156317300Y-43570000D01*
X156317300Y-43570000D02*
X163881100Y-43570000D01*
X163881100Y-43570000D02*
X177670000Y-29781100D01*
X177670000Y-29781100D02*
X182571700Y-29781100D01*
X182571700Y-29781100D02*
X183810000Y-31019400D01*
X183810000Y-31019400D02*
X183810000Y-31763400D01*
X183810000Y-31763400D02*
X184594800Y-32548200D01*
X184594800Y-32548200D02*
X190638100Y-32548200D01*
X190638100Y-32548200D02*
X191572700Y-31613600D01*
X191572700Y-31613600D02*
X191572700Y-31380000D01*
%TO.N,/R3*%
X189032700Y-31380000D02*
X189032700Y-31098200D01*
X189032700Y-31098200D02*
X187261200Y-29326700D01*
X187261200Y-29326700D02*
X176423100Y-29326700D01*
X176423100Y-29326700D02*
X164719800Y-41030000D01*
X164719800Y-41030000D02*
X156317300Y-41030000D01*
X156317300Y-41030000D02*
X152507300Y-44840000D01*
X151380000Y-44840000D02*
X152507300Y-44840000D01*
X190160000Y-31380000D02*
X189032700Y-31380000D01*
%TO.N,/R0*%
X190160000Y-39000000D02*
X189032700Y-39000000D01*
X189032700Y-39000000D02*
X189032700Y-39511000D01*
X189032700Y-39511000D02*
X183326000Y-45217700D01*
%TO.N,/S2*%
X135361700Y-35377500D02*
X133929200Y-36810000D01*
X133929200Y-36810000D02*
X113249400Y-36810000D01*
X113249400Y-36810000D02*
X104675400Y-45384000D01*
%TO.N,/OFF0*%
X159000000Y-49920000D02*
X160127300Y-49920000D01*
X192700000Y-39000000D02*
X191572700Y-39000000D01*
X191572700Y-39000000D02*
X191572700Y-38718100D01*
X191572700Y-38718100D02*
X190727300Y-37872700D01*
X190727300Y-37872700D02*
X187397700Y-37872700D01*
X187397700Y-37872700D02*
X181381200Y-31856200D01*
X181381200Y-31856200D02*
X181381200Y-31157600D01*
X181381200Y-31157600D02*
X180459100Y-30235500D01*
X180459100Y-30235500D02*
X179549000Y-30235500D01*
X179549000Y-30235500D02*
X160127300Y-49657200D01*
X160127300Y-49657200D02*
X160127300Y-49920000D01*
%TO.N,/OFF2*%
X150252700Y-39760000D02*
X149412900Y-38920200D01*
X149412900Y-38920200D02*
X134834000Y-38920200D01*
X134834000Y-38920200D02*
X134261600Y-39492600D01*
X134261600Y-39492600D02*
X131947200Y-39492600D01*
X131947200Y-39492600D02*
X129549800Y-41890000D01*
X129549800Y-41890000D02*
X124614500Y-41890000D01*
X124614500Y-41890000D02*
X120668400Y-45836100D01*
X151380000Y-39760000D02*
X150252700Y-39760000D01*
X151380000Y-38632700D02*
X152773300Y-38632700D01*
X152773300Y-38632700D02*
X156245400Y-35160600D01*
X151380000Y-39760000D02*
X151380000Y-38632700D01*
%TO.N,/OFF5*%
X181540000Y-67127300D02*
X174616400Y-74050900D01*
X174616400Y-74050900D02*
X174616400Y-95439900D01*
X174616400Y-95439900D02*
X160145400Y-109910900D01*
X160145400Y-109910900D02*
X159104600Y-109910900D01*
X159104600Y-109910900D02*
X153127300Y-103933600D01*
X153127300Y-103933600D02*
X153127300Y-103700000D01*
X94000000Y-70700000D02*
X92872700Y-70700000D01*
X56000000Y-56500000D02*
X78672700Y-56500000D01*
X78672700Y-56500000D02*
X92872700Y-70700000D01*
X152000000Y-103700000D02*
X153127300Y-103700000D01*
X181540000Y-66000000D02*
X181540000Y-67127300D01*
%TO.N,/R5*%
X184080000Y-67127300D02*
X175525000Y-75682300D01*
X175525000Y-75682300D02*
X175525000Y-95174000D01*
X175525000Y-95174000D02*
X160333700Y-110365300D01*
X160333700Y-110365300D02*
X157252600Y-110365300D01*
X157252600Y-110365300D02*
X153127300Y-106240000D01*
X184080000Y-66000000D02*
X184080000Y-67127300D01*
X152000000Y-106240000D02*
X153127300Y-106240000D01*
%TO.N,/OFF7*%
X169475200Y-67871900D02*
X169475200Y-87871100D01*
X169475200Y-87871100D02*
X159853600Y-97492700D01*
X159853600Y-97492700D02*
X159620000Y-97492700D01*
X190572700Y-58380000D02*
X190572700Y-58613600D01*
X190572700Y-58613600D02*
X184313700Y-64872600D01*
X184313700Y-64872600D02*
X183213500Y-64872600D01*
X191700000Y-58380000D02*
X190572700Y-58380000D01*
X159620000Y-98620000D02*
X159620000Y-97492700D01*
%TO.N,/R7*%
X159620000Y-101160000D02*
X159620000Y-100032700D01*
X189160000Y-58380000D02*
X188032700Y-58380000D01*
X188032700Y-58380000D02*
X188032700Y-58098200D01*
X188032700Y-58098200D02*
X187180800Y-57246300D01*
X187180800Y-57246300D02*
X181018600Y-57246300D01*
X181018600Y-57246300D02*
X180187500Y-58077400D01*
X180187500Y-58077400D02*
X180187500Y-59491300D01*
X180187500Y-59491300D02*
X169929600Y-69749200D01*
X169929600Y-69749200D02*
X169929600Y-89956700D01*
X169929600Y-89956700D02*
X159853600Y-100032700D01*
X159853600Y-100032700D02*
X159620000Y-100032700D01*
%TO.N,/R4*%
X189160000Y-67127300D02*
X188878200Y-67127300D01*
X188878200Y-67127300D02*
X176264500Y-79741000D01*
X176264500Y-79741000D02*
X176264500Y-95077200D01*
X176264500Y-95077200D02*
X160521600Y-110820100D01*
X160521600Y-110820100D02*
X152411800Y-110820100D01*
X152411800Y-110820100D02*
X150390800Y-108799100D01*
X150390800Y-108799100D02*
X150390800Y-101122900D01*
X150390800Y-101122900D02*
X151766400Y-99747300D01*
X151766400Y-99747300D02*
X152000000Y-99747300D01*
X152000000Y-98620000D02*
X152000000Y-99747300D01*
X189160000Y-66000000D02*
X189160000Y-67127300D01*
%TO.N,/S6*%
X185492700Y-58380000D02*
X185492700Y-58591300D01*
X185492700Y-58591300D02*
X182746800Y-61337200D01*
X182746800Y-61337200D02*
X181545400Y-61337200D01*
X181545400Y-61337200D02*
X175860100Y-67022500D01*
X175860100Y-67022500D02*
X175860100Y-67707100D01*
X186620000Y-58380000D02*
X185492700Y-58380000D01*
%TO.N,/OFF4*%
X150357400Y-74494700D02*
X132992700Y-57130000D01*
X132992700Y-57130000D02*
X132232500Y-57130000D01*
X132232500Y-57130000D02*
X129800500Y-54698000D01*
X150357400Y-74494700D02*
X150357400Y-93591900D01*
X150357400Y-93591900D02*
X151718200Y-94952700D01*
X151718200Y-94952700D02*
X152000000Y-94952700D01*
X158205500Y-71669300D02*
X155380100Y-74494700D01*
X155380100Y-74494700D02*
X150357400Y-74494700D01*
X152000000Y-96080000D02*
X152000000Y-94952700D01*
%TO.N,/R6*%
X182952700Y-58380000D02*
X182952700Y-59287300D01*
X182952700Y-59287300D02*
X174162100Y-68077900D01*
X174162100Y-68077900D02*
X174162100Y-93292400D01*
X174162100Y-93292400D02*
X159801800Y-107652700D01*
X159801800Y-107652700D02*
X159620000Y-107652700D01*
X159620000Y-108780000D02*
X159620000Y-107652700D01*
X184080000Y-58380000D02*
X182952700Y-58380000D01*
%TO.N,/OFF6*%
X170954200Y-69769400D02*
X170954200Y-94012100D01*
X170954200Y-94012100D02*
X159853600Y-105112700D01*
X159853600Y-105112700D02*
X159620000Y-105112700D01*
X181540000Y-59507300D02*
X181216300Y-59507300D01*
X181216300Y-59507300D02*
X170954200Y-69769400D01*
X159620000Y-106240000D02*
X159620000Y-105112700D01*
X181540000Y-58380000D02*
X181540000Y-59507300D01*
%TO.N,~PC_CLR*%
X126715600Y-112811700D02*
X132004500Y-118100700D01*
X132004500Y-118100700D02*
X135100700Y-118100700D01*
X135100700Y-118100700D02*
X155000000Y-138000000D01*
X125000000Y-59527300D02*
X125281800Y-59527300D01*
X125281800Y-59527300D02*
X126151900Y-60397400D01*
X126151900Y-60397400D02*
X126151900Y-112248100D01*
X126151900Y-112248100D02*
X126715600Y-112811700D01*
X126715600Y-112811700D02*
X126127300Y-113400000D01*
X125000000Y-113400000D02*
X126127300Y-113400000D01*
X125000000Y-58400000D02*
X125000000Y-59527300D01*
%TO.N,/O0*%
X225797700Y-52000000D02*
X202657300Y-28859600D01*
X202657300Y-28859600D02*
X176080100Y-28859600D01*
X176080100Y-28859600D02*
X166012800Y-38926900D01*
X166012800Y-38926900D02*
X165260000Y-38926900D01*
X165260000Y-38926900D02*
X160757600Y-34424500D01*
X160757600Y-34424500D02*
X137402800Y-34424500D01*
X137402800Y-34424500D02*
X133747300Y-38080000D01*
X132620000Y-38080000D02*
X133747300Y-38080000D01*
X227000000Y-52000000D02*
X225797700Y-52000000D01*
%TO.N,/O12*%
X182463000Y-101167800D02*
X171347500Y-112283300D01*
X171347500Y-112283300D02*
X143735000Y-112283300D01*
X143735000Y-112283300D02*
X134790500Y-103338800D01*
%TO.N,JMP_IN*%
X159000000Y-55000000D02*
X159000000Y-56127300D01*
X152000000Y-91000000D02*
X157141000Y-91000000D01*
X157141000Y-91000000D02*
X160675000Y-87466000D01*
X160675000Y-87466000D02*
X160675000Y-57802300D01*
X160675000Y-57802300D02*
X159000000Y-56127300D01*
X61620000Y-124000000D02*
X61620000Y-122972700D01*
X56000000Y-95000000D02*
X56000000Y-96202300D01*
X56000000Y-96202300D02*
X56450900Y-96202300D01*
X56450900Y-96202300D02*
X62669500Y-102420900D01*
X62669500Y-102420900D02*
X62669500Y-121923200D01*
X62669500Y-121923200D02*
X61620000Y-122972700D01*
%TO.N,~STALL*%
X56000000Y-100000000D02*
X61620000Y-105620000D01*
X61620000Y-105620000D02*
X61620000Y-119000000D01*
X132620000Y-58400000D02*
X132620000Y-59527300D01*
X132620000Y-113400000D02*
X132620000Y-112272700D01*
X132620000Y-112272700D02*
X132338200Y-112272700D01*
X132338200Y-112272700D02*
X131371800Y-111306300D01*
X131371800Y-111306300D02*
X131371800Y-60425100D01*
X131371800Y-60425100D02*
X132269600Y-59527300D01*
X132269600Y-59527300D02*
X132620000Y-59527300D01*
%TO.N,JMP_ABS*%
X94000000Y-58000000D02*
X94000000Y-59127300D01*
X94000000Y-98000000D02*
X94000000Y-96872700D01*
X94000000Y-96872700D02*
X92854200Y-95726900D01*
X92854200Y-95726900D02*
X92854200Y-72758700D01*
X92854200Y-72758700D02*
X93642900Y-71970000D01*
X93642900Y-71970000D02*
X94386400Y-71970000D01*
X94386400Y-71970000D02*
X95152200Y-71204200D01*
X95152200Y-71204200D02*
X95152200Y-70231700D01*
X95152200Y-70231700D02*
X94350500Y-69430000D01*
X94350500Y-69430000D02*
X93611600Y-69430000D01*
X93611600Y-69430000D02*
X92872700Y-68691100D01*
X92872700Y-68691100D02*
X92872700Y-59972700D01*
X92872700Y-59972700D02*
X93718100Y-59127300D01*
X93718100Y-59127300D02*
X94000000Y-59127300D01*
X94000000Y-58000000D02*
X94000000Y-56872700D01*
X94000000Y-34000000D02*
X94000000Y-35127300D01*
X94000000Y-35127300D02*
X93718200Y-35127300D01*
X93718200Y-35127300D02*
X92872700Y-35972800D01*
X92872700Y-35972800D02*
X92872700Y-55745400D01*
X92872700Y-55745400D02*
X94000000Y-56872700D01*
%TO.N,CLK*%
X132620000Y-60940000D02*
X132620000Y-62167300D01*
X132620000Y-115940000D02*
X132620000Y-114712700D01*
X132620000Y-114712700D02*
X133080200Y-114712700D01*
X133080200Y-114712700D02*
X133847400Y-113945500D01*
X133847400Y-113945500D02*
X133847400Y-63394700D01*
X133847400Y-63394700D02*
X132620000Y-62167300D01*
%TO.N,/N1*%
X123872700Y-40620000D02*
X116925900Y-47566800D01*
X116925900Y-47566800D02*
X103762000Y-47566800D01*
X125000000Y-40620000D02*
X123872700Y-40620000D01*
%TO.N,/N6*%
X125000000Y-53320000D02*
X125000000Y-54447300D01*
X101620000Y-75780000D02*
X102747300Y-75780000D01*
X102747300Y-75780000D02*
X121397300Y-57130000D01*
X121397300Y-57130000D02*
X125351600Y-57130000D01*
X125351600Y-57130000D02*
X126147300Y-56334300D01*
X126147300Y-56334300D02*
X126147300Y-55361000D01*
X126147300Y-55361000D02*
X125233600Y-54447300D01*
X125233600Y-54447300D02*
X125000000Y-54447300D01*
%TO.N,/N4*%
X94000000Y-65620000D02*
X94000000Y-64492700D01*
X94000000Y-64492700D02*
X94281800Y-64492700D01*
X94281800Y-64492700D02*
X95589200Y-63185300D01*
X95589200Y-63185300D02*
X95589200Y-58890000D01*
%TO.N,/N7*%
X101620000Y-68160000D02*
X102747300Y-68160000D01*
X102747300Y-68160000D02*
X115047300Y-55860000D01*
X115047300Y-55860000D02*
X125000000Y-55860000D01*
%TO.N,/N5*%
X125000000Y-50780000D02*
X125000000Y-51907300D01*
X128232700Y-72601200D02*
X128232700Y-54906400D01*
X128232700Y-54906400D02*
X125233600Y-51907300D01*
X125233600Y-51907300D02*
X125000000Y-51907300D01*
%TO.N,/N10*%
X125000000Y-98160000D02*
X123872700Y-98160000D01*
X101620000Y-115780000D02*
X106252700Y-115780000D01*
X106252700Y-115780000D02*
X123872700Y-98160000D01*
%TO.N,/N8*%
X125000000Y-93080000D02*
X123872700Y-93080000D01*
X123872700Y-93080000D02*
X110193100Y-106759600D01*
X110193100Y-106759600D02*
X96266900Y-106759600D01*
X96266900Y-106759600D02*
X95127300Y-105620000D01*
X94000000Y-105620000D02*
X95127300Y-105620000D01*
%TO.N,/N9*%
X125000000Y-95620000D02*
X123872700Y-95620000D01*
X94000000Y-113240000D02*
X95127300Y-113240000D01*
X95127300Y-113240000D02*
X96254600Y-112112700D01*
X96254600Y-112112700D02*
X107380000Y-112112700D01*
X107380000Y-112112700D02*
X123872700Y-95620000D01*
%TO.N,/N14*%
X125000000Y-108320000D02*
X125000000Y-109447300D01*
X101620000Y-140780000D02*
X101620000Y-139652700D01*
X101620000Y-139652700D02*
X101901900Y-139652700D01*
X101901900Y-139652700D02*
X102747300Y-138807300D01*
X102747300Y-138807300D02*
X102747300Y-131466400D01*
X102747300Y-131466400D02*
X124766400Y-109447300D01*
X124766400Y-109447300D02*
X125000000Y-109447300D01*
%TO.N,/N12*%
X125000000Y-103240000D02*
X125000000Y-104367300D01*
X94000000Y-130620000D02*
X95127300Y-130620000D01*
X95127300Y-130620000D02*
X98937300Y-126810000D01*
X98937300Y-126810000D02*
X101960200Y-126810000D01*
X101960200Y-126810000D02*
X124402900Y-104367300D01*
X124402900Y-104367300D02*
X125000000Y-104367300D01*
%TO.N,/N15*%
X125000000Y-110860000D02*
X125000000Y-111987300D01*
X104285000Y-132849400D02*
X104285000Y-132468700D01*
X104285000Y-132468700D02*
X124766400Y-111987300D01*
X124766400Y-111987300D02*
X125000000Y-111987300D01*
%TO.N,/N13*%
X94000000Y-138240000D02*
X94000000Y-137112700D01*
X125000000Y-105780000D02*
X125000000Y-106907300D01*
X125000000Y-106907300D02*
X124412800Y-106907300D01*
X124412800Y-106907300D02*
X101969900Y-129350200D01*
X101969900Y-129350200D02*
X101263500Y-129350200D01*
X101263500Y-129350200D02*
X95412600Y-135201100D01*
X95412600Y-135201100D02*
X95412600Y-135933700D01*
X95412600Y-135933700D02*
X94233600Y-137112700D01*
X94233600Y-137112700D02*
X94000000Y-137112700D01*
%TO.N,Net-(POT1-Pad1)*%
X123380000Y-132000000D02*
X124407300Y-132000000D01*
X150000000Y-143000000D02*
X135407300Y-143000000D01*
X135407300Y-143000000D02*
X124407300Y-132000000D01*
%TO.N,GNDREF*%
X125000000Y-120000000D02*
X125000000Y-115940000D01*
X131000000Y-137000000D02*
X125000000Y-131000000D01*
X125000000Y-131000000D02*
X125000000Y-120000000D01*
X134693700Y-91074900D02*
X137158800Y-93540000D01*
X137158800Y-93540000D02*
X139410700Y-93540000D01*
X150232300Y-44341400D02*
X151146400Y-43427300D01*
X151146400Y-43427300D02*
X151380000Y-43427300D01*
X151380000Y-48792700D02*
X151098200Y-48792700D01*
X151098200Y-48792700D02*
X150232300Y-47926800D01*
X150232300Y-47926800D02*
X150232300Y-44341400D01*
X142201400Y-39676600D02*
X146866200Y-44341400D01*
X146866200Y-44341400D02*
X150232300Y-44341400D01*
X94000000Y-115780000D02*
X94000000Y-115676500D01*
X94000000Y-115676500D02*
X91966000Y-113642500D01*
X217439500Y-89669100D02*
X215754900Y-89669100D01*
X215754900Y-89669100D02*
X214584800Y-88499000D01*
X152000000Y-93540000D02*
X152000000Y-92412700D01*
X152000000Y-92412700D02*
X151295400Y-92412700D01*
X151295400Y-92412700D02*
X150872600Y-91989900D01*
X150872600Y-91989900D02*
X150872600Y-88127400D01*
X150872600Y-88127400D02*
X152000000Y-87000000D01*
X97419700Y-125540000D02*
X97419700Y-126325600D01*
X97419700Y-126325600D02*
X94395300Y-129350000D01*
X94395300Y-129350000D02*
X93638700Y-129350000D01*
X93638700Y-129350000D02*
X92065300Y-130923400D01*
X92065300Y-130923400D02*
X92065300Y-131813300D01*
X94000000Y-115780000D02*
X94000000Y-116907300D01*
X97419700Y-125540000D02*
X97419700Y-120327000D01*
X97419700Y-120327000D02*
X94000000Y-116907300D01*
X101620000Y-125540000D02*
X97419700Y-125540000D01*
X202000000Y-123500000D02*
X202000000Y-124627300D01*
X202000000Y-124627300D02*
X196780000Y-129847300D01*
X196780000Y-129847300D02*
X196780000Y-131000000D01*
X151380000Y-42300000D02*
X151380000Y-43427300D01*
X151380000Y-42300000D02*
X152507300Y-42300000D01*
X151380000Y-49920000D02*
X151380000Y-48792700D01*
X151380000Y-52460000D02*
X151380000Y-49920000D01*
X101000000Y-150980500D02*
X101000000Y-145000000D01*
X94000000Y-74652700D02*
X94281800Y-74652700D01*
X94281800Y-74652700D02*
X96340600Y-72593900D01*
X96340600Y-72593900D02*
X96340600Y-55247900D01*
X96340600Y-55247900D02*
X94000000Y-52907300D01*
X101620000Y-37667300D02*
X101338100Y-37667300D01*
X101338100Y-37667300D02*
X99329000Y-39676400D01*
X99329000Y-39676400D02*
X99329000Y-45557300D01*
X99329000Y-45557300D02*
X94233600Y-50652700D01*
X94233600Y-50652700D02*
X94000000Y-50652700D01*
X217038400Y-46305200D02*
X203360500Y-32627300D01*
X203360500Y-32627300D02*
X203000000Y-32627300D01*
X203000000Y-31500000D02*
X203000000Y-32627300D01*
X203000000Y-32627300D02*
X197780000Y-37847300D01*
X197780000Y-37847300D02*
X197780000Y-39000000D01*
X225856200Y-23143800D02*
X224768800Y-23143800D01*
X224768800Y-23143800D02*
X224000000Y-22375000D01*
X226625000Y-25000000D02*
X225856200Y-24231200D01*
X225856200Y-24231200D02*
X225856200Y-23143800D01*
X125000000Y-35540000D02*
X125000000Y-34127300D01*
X125000000Y-35540000D02*
X131492700Y-35540000D01*
X125000000Y-33000000D02*
X125000000Y-34127300D01*
X94000000Y-75780000D02*
X94000000Y-74652700D01*
X94000000Y-75780000D02*
X94000000Y-81000000D01*
X94000000Y-51780000D02*
X94000000Y-52907300D01*
X101620000Y-36540000D02*
X100492700Y-36540000D01*
X94000000Y-29000000D02*
X100492700Y-35492700D01*
X100492700Y-35492700D02*
X100492700Y-36540000D01*
X94000000Y-51780000D02*
X94000000Y-50652700D01*
X101620000Y-36540000D02*
X101620000Y-37667300D01*
X196780000Y-96000000D02*
X196780000Y-94872700D01*
X203000000Y-88500000D02*
X203000000Y-89627300D01*
X203000000Y-89627300D02*
X197754600Y-94872700D01*
X197754600Y-94872700D02*
X196780000Y-94872700D01*
X130872800Y-151488700D02*
X131995000Y-150366500D01*
X131995000Y-150366500D02*
X131995000Y-145242600D01*
X222143900Y-23143800D02*
X223231200Y-23143800D01*
X223231200Y-23143800D02*
X224000000Y-22375000D01*
X217757800Y-123402800D02*
X211550300Y-123402800D01*
X211550300Y-123402800D02*
X210659300Y-124293800D01*
X202000000Y-58500000D02*
X202000000Y-59627300D01*
X202000000Y-59627300D02*
X196780000Y-64847300D01*
X196780000Y-64847300D02*
X196780000Y-66000000D01*
X159000000Y-37220000D02*
X157872700Y-37220000D01*
X152507300Y-42300000D02*
X157587300Y-37220000D01*
X157587300Y-37220000D02*
X157872700Y-37220000D01*
X158472300Y-101160000D02*
X158472300Y-101658600D01*
X158472300Y-101658600D02*
X159386400Y-102572700D01*
X159386400Y-102572700D02*
X159620000Y-102572700D01*
X159620000Y-96080000D02*
X158472300Y-97227700D01*
X158472300Y-97227700D02*
X158472300Y-101160000D01*
X158472300Y-101160000D02*
X153127300Y-101160000D01*
X152000000Y-101160000D02*
X153127300Y-101160000D01*
X132620000Y-35540000D02*
X131492700Y-35540000D01*
X94000000Y-92000000D02*
X101412700Y-99412700D01*
X101412700Y-99412700D02*
X101620000Y-99412700D01*
X101620000Y-100540000D02*
X101620000Y-99412700D01*
X56000000Y-153178200D02*
X56000000Y-154625000D01*
X224000000Y-44808800D02*
X224000000Y-27625000D01*
X215289600Y-55976600D02*
X214584800Y-56681400D01*
X179647800Y-151322800D02*
X178500000Y-150175000D01*
X178500000Y-150175000D02*
X178500000Y-143000000D01*
X125000000Y-66040000D02*
X125000000Y-88000000D01*
X125000000Y-88000000D02*
X125000000Y-90540000D01*
X159620000Y-96080000D02*
X159620000Y-93540000D01*
X159620000Y-103700000D02*
X159620000Y-102572700D01*
X152000000Y-108780000D02*
X152000000Y-107652700D01*
X152000000Y-101160000D02*
X152000000Y-102287300D01*
X152000000Y-102287300D02*
X151718200Y-102287300D01*
X151718200Y-102287300D02*
X150852300Y-103153200D01*
X150852300Y-103153200D02*
X150852300Y-106738600D01*
X150852300Y-106738600D02*
X151766400Y-107652700D01*
X151766400Y-107652700D02*
X152000000Y-107652700D01*
X151380000Y-52460000D02*
X151380000Y-53587300D01*
X151500000Y-61000000D02*
X150252700Y-59752700D01*
X150252700Y-59752700D02*
X150252700Y-54481000D01*
X150252700Y-54481000D02*
X151146400Y-53587300D01*
X151146400Y-53587300D02*
X151380000Y-53587300D01*
%TD*%
%TO.N,GNDREF*%
X67366061Y-55738000D02*
X57306909Y-55738000D01*
X57172893Y-55537431D01*
X56962569Y-55327107D01*
X56847170Y-55250000D01*
X56962569Y-55172893D01*
X57172893Y-54962569D01*
X57338144Y-54715253D01*
X57451971Y-54440451D01*
X57510000Y-54148722D01*
X57510000Y-53851278D01*
X57451971Y-53559549D01*
X57338144Y-53284747D01*
X57172893Y-53037431D01*
X56962569Y-52827107D01*
X56847170Y-52750000D01*
X56962569Y-52672893D01*
X57172893Y-52462569D01*
X57338144Y-52215253D01*
X57451971Y-51940451D01*
X57510000Y-51648722D01*
X57510000Y-51351278D01*
X57451971Y-51059549D01*
X57338144Y-50784747D01*
X57172893Y-50537431D01*
X56962569Y-50327107D01*
X56847170Y-50250000D01*
X56962569Y-50172893D01*
X57172893Y-49962569D01*
X57338144Y-49715253D01*
X57451971Y-49440451D01*
X57510000Y-49148722D01*
X57510000Y-48851278D01*
X57451971Y-48559549D01*
X57338144Y-48284747D01*
X57172893Y-48037431D01*
X56962569Y-47827107D01*
X56847170Y-47750000D01*
X56962569Y-47672893D01*
X57172893Y-47462569D01*
X57338144Y-47215253D01*
X57451971Y-46940451D01*
X57510000Y-46648722D01*
X57510000Y-46351278D01*
X57451971Y-46059549D01*
X57338144Y-45784747D01*
X57172893Y-45537431D01*
X57104436Y-45468974D01*
X57119180Y-45464502D01*
X57229494Y-45405537D01*
X57326185Y-45326185D01*
X57405537Y-45229494D01*
X57464502Y-45119180D01*
X57500812Y-44999482D01*
X57513072Y-44875000D01*
X57513072Y-43125000D01*
X57500812Y-43000518D01*
X57464502Y-42880820D01*
X57405537Y-42770506D01*
X57326185Y-42673815D01*
X57229494Y-42594463D01*
X57119180Y-42535498D01*
X56999482Y-42499188D01*
X56875000Y-42486928D01*
X55125000Y-42486928D01*
X55000518Y-42499188D01*
X54880820Y-42535498D01*
X54770506Y-42594463D01*
X54673815Y-42673815D01*
X54594463Y-42770506D01*
X54535498Y-42880820D01*
X54499188Y-43000518D01*
X54486928Y-43125000D01*
X54486928Y-44875000D01*
X54499188Y-44999482D01*
X54535498Y-45119180D01*
X54594463Y-45229494D01*
X54673815Y-45326185D01*
X54770506Y-45405537D01*
X54880820Y-45464502D01*
X54895564Y-45468974D01*
X54827107Y-45537431D01*
X54661856Y-45784747D01*
X54548029Y-46059549D01*
X54490000Y-46351278D01*
X54490000Y-46648722D01*
X54548029Y-46940451D01*
X54661856Y-47215253D01*
X54827107Y-47462569D01*
X55037431Y-47672893D01*
X55152830Y-47750000D01*
X55037431Y-47827107D01*
X54827107Y-48037431D01*
X54661856Y-48284747D01*
X54548029Y-48559549D01*
X54490000Y-48851278D01*
X54490000Y-49148722D01*
X54548029Y-49440451D01*
X54661856Y-49715253D01*
X54827107Y-49962569D01*
X55037431Y-50172893D01*
X55152830Y-50250000D01*
X55037431Y-50327107D01*
X54827107Y-50537431D01*
X54661856Y-50784747D01*
X54548029Y-51059549D01*
X54490000Y-51351278D01*
X54490000Y-51648722D01*
X54548029Y-51940451D01*
X54661856Y-52215253D01*
X54827107Y-52462569D01*
X55037431Y-52672893D01*
X55152830Y-52750000D01*
X55037431Y-52827107D01*
X54827107Y-53037431D01*
X54661856Y-53284747D01*
X54548029Y-53559549D01*
X54490000Y-53851278D01*
X54490000Y-54148722D01*
X54548029Y-54440451D01*
X54661856Y-54715253D01*
X54827107Y-54962569D01*
X55037431Y-55172893D01*
X55152830Y-55250000D01*
X55037431Y-55327107D01*
X54827107Y-55537431D01*
X54661856Y-55784747D01*
X54548029Y-56059549D01*
X54490000Y-56351278D01*
X54490000Y-56648722D01*
X54548029Y-56940451D01*
X54661856Y-57215253D01*
X54827107Y-57462569D01*
X55037431Y-57672893D01*
X55152830Y-57750000D01*
X55037431Y-57827107D01*
X54827107Y-58037431D01*
X54661856Y-58284747D01*
X54548029Y-58559549D01*
X54490000Y-58851278D01*
X54490000Y-59148722D01*
X54548029Y-59440451D01*
X54661856Y-59715253D01*
X54827107Y-59962569D01*
X55037431Y-60172893D01*
X55152830Y-60250000D01*
X55037431Y-60327107D01*
X54827107Y-60537431D01*
X54661856Y-60784747D01*
X54548029Y-61059549D01*
X54490000Y-61351278D01*
X54490000Y-61648722D01*
X54548029Y-61940451D01*
X54661856Y-62215253D01*
X54771749Y-62379720D01*
X54283149Y-62868321D01*
X54254079Y-62892178D01*
X54230222Y-62921248D01*
X54230221Y-62921249D01*
X54158855Y-63008208D01*
X54088099Y-63140585D01*
X54044527Y-63284222D01*
X54029814Y-63433600D01*
X54033501Y-63471033D01*
X54033500Y-70258077D01*
X54029814Y-70295500D01*
X54033500Y-70332923D01*
X54033500Y-70332925D01*
X54044526Y-70444877D01*
X54088098Y-70588514D01*
X54088099Y-70588515D01*
X54158855Y-70720892D01*
X54184463Y-70752095D01*
X54254078Y-70836922D01*
X54283154Y-70860784D01*
X54537061Y-71114691D01*
X54490000Y-71351278D01*
X54490000Y-71648722D01*
X54548029Y-71940451D01*
X54661856Y-72215253D01*
X54827107Y-72462569D01*
X55037431Y-72672893D01*
X55152830Y-72750000D01*
X55037431Y-72827107D01*
X54827107Y-73037431D01*
X54661856Y-73284747D01*
X54548029Y-73559549D01*
X54490000Y-73851278D01*
X54490000Y-74148722D01*
X54548029Y-74440451D01*
X54661856Y-74715253D01*
X54827107Y-74962569D01*
X55037431Y-75172893D01*
X55152830Y-75250000D01*
X55037431Y-75327107D01*
X54827107Y-75537431D01*
X54661856Y-75784747D01*
X54548029Y-76059549D01*
X54490000Y-76351278D01*
X54490000Y-76648722D01*
X54548029Y-76940451D01*
X54661856Y-77215253D01*
X54827107Y-77462569D01*
X55037431Y-77672893D01*
X55152830Y-77750000D01*
X55037431Y-77827107D01*
X54827107Y-78037431D01*
X54661856Y-78284747D01*
X54548029Y-78559549D01*
X54490000Y-78851278D01*
X54490000Y-79148722D01*
X54537061Y-79385309D01*
X54285254Y-79637116D01*
X54256178Y-79660978D01*
X54221221Y-79703574D01*
X54160955Y-79777008D01*
X54156818Y-79784748D01*
X54090198Y-79909386D01*
X54046626Y-80053023D01*
X54037299Y-80147723D01*
X54031914Y-80202400D01*
X54035600Y-80239823D01*
X54035601Y-87158567D01*
X54031914Y-87196000D01*
X54046627Y-87345378D01*
X54090199Y-87489015D01*
X54160955Y-87621392D01*
X54208830Y-87679727D01*
X54256179Y-87737422D01*
X54285249Y-87761279D01*
X68585091Y-102061121D01*
X69873044Y-151003341D01*
X69876135Y-151028045D01*
X69883986Y-151051671D01*
X69896296Y-151073311D01*
X69912591Y-151092134D01*
X69932245Y-151107416D01*
X69954503Y-151118571D01*
X69978509Y-151125168D01*
X70000864Y-151126997D01*
X217000864Y-150126997D01*
X217025623Y-150124388D01*
X217049398Y-150116999D01*
X217071274Y-150105114D01*
X217090411Y-150089190D01*
X217106074Y-150069837D01*
X217117661Y-150047802D01*
X217124725Y-150023929D01*
X217126977Y-149997604D01*
X216928772Y-139492702D01*
X227186903Y-139492702D01*
X227258486Y-139736671D01*
X227513996Y-139857571D01*
X227788184Y-139926300D01*
X228070512Y-139940217D01*
X228350130Y-139898787D01*
X228616292Y-139803603D01*
X228741514Y-139736671D01*
X228813097Y-139492702D01*
X228000000Y-138679605D01*
X227186903Y-139492702D01*
X216928772Y-139492702D01*
X216911372Y-138570512D01*
X226559783Y-138570512D01*
X226601213Y-138850130D01*
X226696397Y-139116292D01*
X226763329Y-139241514D01*
X227007298Y-139313097D01*
X227820395Y-138500000D01*
X228179605Y-138500000D01*
X228992702Y-139313097D01*
X229236671Y-139241514D01*
X229357571Y-138986004D01*
X229426300Y-138711816D01*
X229440217Y-138429488D01*
X229398787Y-138149870D01*
X229303603Y-137883708D01*
X229236671Y-137758486D01*
X228992702Y-137686903D01*
X228179605Y-138500000D01*
X227820395Y-138500000D01*
X227007298Y-137686903D01*
X226763329Y-137758486D01*
X226642429Y-138013996D01*
X226573700Y-138288184D01*
X226559783Y-138570512D01*
X216911372Y-138570512D01*
X216728701Y-128889000D01*
X227097844Y-128889000D01*
X227111001Y-128913614D01*
X227111000Y-134570693D01*
X227075518Y-134574188D01*
X226955820Y-134610498D01*
X226845506Y-134669463D01*
X226748815Y-134748815D01*
X226669463Y-134845506D01*
X226610498Y-134955820D01*
X226574188Y-135075518D01*
X226561928Y-135200000D01*
X226561928Y-136800000D01*
X226574188Y-136924482D01*
X226610498Y-137044180D01*
X226669463Y-137154494D01*
X226748815Y-137251185D01*
X226845506Y-137330537D01*
X226955820Y-137389502D01*
X227075518Y-137425812D01*
X227200000Y-137438072D01*
X227207215Y-137438072D01*
X227186903Y-137507298D01*
X228000000Y-138320395D01*
X228813097Y-137507298D01*
X228792785Y-137438072D01*
X228800000Y-137438072D01*
X228924482Y-137425812D01*
X229044180Y-137389502D01*
X229154494Y-137330537D01*
X229251185Y-137251185D01*
X229330537Y-137154494D01*
X229389502Y-137044180D01*
X229425812Y-136924482D01*
X229438072Y-136800000D01*
X229438072Y-135200000D01*
X229425812Y-135075518D01*
X229389502Y-134955820D01*
X229330537Y-134845506D01*
X229251185Y-134748815D01*
X229154494Y-134669463D01*
X229044180Y-134610498D01*
X228924482Y-134574188D01*
X228889000Y-134570693D01*
X228889000Y-129810000D01*
X229413911Y-129810000D01*
X229679822Y-129783810D01*
X230021008Y-129680312D01*
X230335447Y-129512241D01*
X230611055Y-129286055D01*
X230837241Y-129010447D01*
X231005312Y-128696008D01*
X231108810Y-128354822D01*
X231143757Y-128000000D01*
X231108810Y-127645178D01*
X231005312Y-127303992D01*
X230837241Y-126989553D01*
X230611055Y-126713945D01*
X230335447Y-126487759D01*
X230021008Y-126319688D01*
X229679822Y-126216190D01*
X229413911Y-126190000D01*
X228586089Y-126190000D01*
X228320178Y-126216190D01*
X227978992Y-126319688D01*
X227664553Y-126487759D01*
X227388945Y-126713945D01*
X227162759Y-126989553D01*
X227097844Y-127111000D01*
X216695154Y-127111000D01*
X216639758Y-124175000D01*
X226861928Y-124175000D01*
X226874188Y-124299482D01*
X226910498Y-124419180D01*
X226969463Y-124529494D01*
X227048815Y-124626185D01*
X227145506Y-124705537D01*
X227255820Y-124764502D01*
X227375518Y-124800812D01*
X227500000Y-124813072D01*
X228714250Y-124810000D01*
X228873000Y-124651250D01*
X228873000Y-123127000D01*
X229127000Y-123127000D01*
X229127000Y-124651250D01*
X229285750Y-124810000D01*
X230500000Y-124813072D01*
X230624482Y-124800812D01*
X230744180Y-124764502D01*
X230854494Y-124705537D01*
X230951185Y-124626185D01*
X231030537Y-124529494D01*
X231089502Y-124419180D01*
X231125812Y-124299482D01*
X231138072Y-124175000D01*
X231135000Y-123285750D01*
X230976250Y-123127000D01*
X229127000Y-123127000D01*
X228873000Y-123127000D01*
X227023750Y-123127000D01*
X226865000Y-123285750D01*
X226861928Y-124175000D01*
X216639758Y-124175000D01*
X216595419Y-121825000D01*
X226861928Y-121825000D01*
X226865000Y-122714250D01*
X227023750Y-122873000D01*
X228873000Y-122873000D01*
X228873000Y-121348750D01*
X229127000Y-121348750D01*
X229127000Y-122873000D01*
X230976250Y-122873000D01*
X231135000Y-122714250D01*
X231138072Y-121825000D01*
X231125812Y-121700518D01*
X231089502Y-121580820D01*
X231030537Y-121470506D01*
X230951185Y-121373815D01*
X230854494Y-121294463D01*
X230744180Y-121235498D01*
X230624482Y-121199188D01*
X230500000Y-121186928D01*
X229285750Y-121190000D01*
X229127000Y-121348750D01*
X228873000Y-121348750D01*
X228714250Y-121190000D01*
X227500000Y-121186928D01*
X227375518Y-121199188D01*
X227255820Y-121235498D01*
X227145506Y-121294463D01*
X227048815Y-121373815D01*
X226969463Y-121470506D01*
X226910498Y-121580820D01*
X226874188Y-121700518D01*
X226861928Y-121825000D01*
X216595419Y-121825000D01*
X216405085Y-111737323D01*
X223333000Y-111737323D01*
X223333000Y-112262677D01*
X223435492Y-112777935D01*
X223636536Y-113263298D01*
X223928406Y-113700113D01*
X224299887Y-114071594D01*
X224736702Y-114363464D01*
X225222065Y-114564508D01*
X225737323Y-114667000D01*
X226262677Y-114667000D01*
X226777935Y-114564508D01*
X227263298Y-114363464D01*
X227700113Y-114071594D01*
X228071594Y-113700113D01*
X228363464Y-113263298D01*
X228564508Y-112777935D01*
X228667000Y-112262677D01*
X228667000Y-111737323D01*
X228564508Y-111222065D01*
X228363464Y-110736702D01*
X228071594Y-110299887D01*
X227700113Y-109928406D01*
X227263298Y-109636536D01*
X226777935Y-109435492D01*
X226262677Y-109333000D01*
X225737323Y-109333000D01*
X225222065Y-109435492D01*
X224736702Y-109636536D01*
X224299887Y-109928406D01*
X223928406Y-110299887D01*
X223636536Y-110736702D01*
X223435492Y-111222065D01*
X223333000Y-111737323D01*
X216405085Y-111737323D01*
X215129418Y-44127000D01*
X216847070Y-44127000D01*
X225232416Y-52512346D01*
X225256278Y-52541422D01*
X225327284Y-52599695D01*
X225372307Y-52636645D01*
X225412773Y-52658274D01*
X225486928Y-52697911D01*
X225486928Y-52875000D01*
X225499188Y-52999482D01*
X225535498Y-53119180D01*
X225594463Y-53229494D01*
X225673815Y-53326185D01*
X225770506Y-53405537D01*
X225880820Y-53464502D01*
X225895564Y-53468974D01*
X225827107Y-53537431D01*
X225661856Y-53784747D01*
X225548029Y-54059549D01*
X225490000Y-54351278D01*
X225490000Y-54648722D01*
X225548029Y-54940451D01*
X225661856Y-55215253D01*
X225827107Y-55462569D01*
X226037431Y-55672893D01*
X226152830Y-55750000D01*
X226037431Y-55827107D01*
X225827107Y-56037431D01*
X225661856Y-56284747D01*
X225548029Y-56559549D01*
X225490000Y-56851278D01*
X225490000Y-57148722D01*
X225548029Y-57440451D01*
X225661856Y-57715253D01*
X225827107Y-57962569D01*
X226037431Y-58172893D01*
X226152830Y-58250000D01*
X226037431Y-58327107D01*
X225827107Y-58537431D01*
X225661856Y-58784747D01*
X225548029Y-59059549D01*
X225490000Y-59351278D01*
X225490000Y-59648722D01*
X225548029Y-59940451D01*
X225661856Y-60215253D01*
X225827107Y-60462569D01*
X226037431Y-60672893D01*
X226152830Y-60750000D01*
X226037431Y-60827107D01*
X225827107Y-61037431D01*
X225661856Y-61284747D01*
X225548029Y-61559549D01*
X225490000Y-61851278D01*
X225490000Y-62148722D01*
X225548029Y-62440451D01*
X225661856Y-62715253D01*
X225827107Y-62962569D01*
X226037431Y-63172893D01*
X226152830Y-63250000D01*
X226037431Y-63327107D01*
X225827107Y-63537431D01*
X225661856Y-63784747D01*
X225548029Y-64059549D01*
X225490000Y-64351278D01*
X225490000Y-64648722D01*
X225548029Y-64940451D01*
X225661856Y-65215253D01*
X225827107Y-65462569D01*
X226037431Y-65672893D01*
X226152830Y-65750000D01*
X226037431Y-65827107D01*
X225827107Y-66037431D01*
X225661856Y-66284747D01*
X225548029Y-66559549D01*
X225490000Y-66851278D01*
X225490000Y-67148722D01*
X225548029Y-67440451D01*
X225661856Y-67715253D01*
X225827107Y-67962569D01*
X226037431Y-68172893D01*
X226152830Y-68250000D01*
X226037431Y-68327107D01*
X225827107Y-68537431D01*
X225661856Y-68784747D01*
X225548029Y-69059549D01*
X225490000Y-69351278D01*
X225490000Y-69648722D01*
X225548029Y-69940451D01*
X225661856Y-70215253D01*
X225827107Y-70462569D01*
X226037431Y-70672893D01*
X226152830Y-70750000D01*
X226037431Y-70827107D01*
X225827107Y-71037431D01*
X225661856Y-71284747D01*
X225548029Y-71559549D01*
X225490000Y-71851278D01*
X225490000Y-72148722D01*
X225548029Y-72440451D01*
X225661856Y-72715253D01*
X225827107Y-72962569D01*
X226037431Y-73172893D01*
X226152830Y-73250000D01*
X226037431Y-73327107D01*
X225827107Y-73537431D01*
X225661856Y-73784747D01*
X225548029Y-74059549D01*
X225490000Y-74351278D01*
X225490000Y-74648722D01*
X225548029Y-74940451D01*
X225661856Y-75215253D01*
X225827107Y-75462569D01*
X226037431Y-75672893D01*
X226152830Y-75750000D01*
X226037431Y-75827107D01*
X225827107Y-76037431D01*
X225661856Y-76284747D01*
X225548029Y-76559549D01*
X225490000Y-76851278D01*
X225490000Y-77148722D01*
X225548029Y-77440451D01*
X225661856Y-77715253D01*
X225827107Y-77962569D01*
X226037431Y-78172893D01*
X226152830Y-78250000D01*
X226037431Y-78327107D01*
X225827107Y-78537431D01*
X225661856Y-78784747D01*
X225548029Y-79059549D01*
X225490000Y-79351278D01*
X225490000Y-79648722D01*
X225548029Y-79940451D01*
X225661856Y-80215253D01*
X225827107Y-80462569D01*
X226037431Y-80672893D01*
X226152830Y-80750000D01*
X226037431Y-80827107D01*
X225827107Y-81037431D01*
X225661856Y-81284747D01*
X225548029Y-81559549D01*
X225490000Y-81851278D01*
X225490000Y-82148722D01*
X225548029Y-82440451D01*
X225661856Y-82715253D01*
X225827107Y-82962569D01*
X226037431Y-83172893D01*
X226152830Y-83250000D01*
X226037431Y-83327107D01*
X225827107Y-83537431D01*
X225661856Y-83784747D01*
X225548029Y-84059549D01*
X225490000Y-84351278D01*
X225490000Y-84648722D01*
X225548029Y-84940451D01*
X225661856Y-85215253D01*
X225827107Y-85462569D01*
X226037431Y-85672893D01*
X226152830Y-85750000D01*
X226037431Y-85827107D01*
X225827107Y-86037431D01*
X225661856Y-86284747D01*
X225548029Y-86559549D01*
X225490000Y-86851278D01*
X225490000Y-87148722D01*
X225548029Y-87440451D01*
X225661856Y-87715253D01*
X225827107Y-87962569D01*
X226037431Y-88172893D01*
X226152830Y-88250000D01*
X226037431Y-88327107D01*
X225827107Y-88537431D01*
X225661856Y-88784747D01*
X225548029Y-89059549D01*
X225490000Y-89351278D01*
X225490000Y-89648722D01*
X225548029Y-89940451D01*
X225661856Y-90215253D01*
X225827107Y-90462569D01*
X226037431Y-90672893D01*
X226284747Y-90838144D01*
X226559549Y-90951971D01*
X226851278Y-91010000D01*
X227148722Y-91010000D01*
X227440451Y-90951971D01*
X227715253Y-90838144D01*
X227962569Y-90672893D01*
X228172893Y-90462569D01*
X228338144Y-90215253D01*
X228451971Y-89940451D01*
X228510000Y-89648722D01*
X228510000Y-89351278D01*
X228451971Y-89059549D01*
X228338144Y-88784747D01*
X228172893Y-88537431D01*
X227962569Y-88327107D01*
X227847170Y-88250000D01*
X227962569Y-88172893D01*
X228172893Y-87962569D01*
X228338144Y-87715253D01*
X228451971Y-87440451D01*
X228510000Y-87148722D01*
X228510000Y-86851278D01*
X228451971Y-86559549D01*
X228338144Y-86284747D01*
X228172893Y-86037431D01*
X227962569Y-85827107D01*
X227847170Y-85750000D01*
X227962569Y-85672893D01*
X228172893Y-85462569D01*
X228338144Y-85215253D01*
X228451971Y-84940451D01*
X228510000Y-84648722D01*
X228510000Y-84351278D01*
X228451971Y-84059549D01*
X228338144Y-83784747D01*
X228172893Y-83537431D01*
X227962569Y-83327107D01*
X227847170Y-83250000D01*
X227962569Y-83172893D01*
X228172893Y-82962569D01*
X228338144Y-82715253D01*
X228451971Y-82440451D01*
X228510000Y-82148722D01*
X228510000Y-81851278D01*
X228451971Y-81559549D01*
X228338144Y-81284747D01*
X228172893Y-81037431D01*
X227962569Y-80827107D01*
X227847170Y-80750000D01*
X227962569Y-80672893D01*
X228172893Y-80462569D01*
X228338144Y-80215253D01*
X228451971Y-79940451D01*
X228510000Y-79648722D01*
X228510000Y-79351278D01*
X228451971Y-79059549D01*
X228338144Y-78784747D01*
X228172893Y-78537431D01*
X227962569Y-78327107D01*
X227847170Y-78250000D01*
X227962569Y-78172893D01*
X228172893Y-77962569D01*
X228338144Y-77715253D01*
X228451971Y-77440451D01*
X228510000Y-77148722D01*
X228510000Y-76851278D01*
X228451971Y-76559549D01*
X228338144Y-76284747D01*
X228172893Y-76037431D01*
X227962569Y-75827107D01*
X227847170Y-75750000D01*
X227962569Y-75672893D01*
X228172893Y-75462569D01*
X228338144Y-75215253D01*
X228451971Y-74940451D01*
X228510000Y-74648722D01*
X228510000Y-74351278D01*
X228451971Y-74059549D01*
X228338144Y-73784747D01*
X228172893Y-73537431D01*
X227962569Y-73327107D01*
X227847170Y-73250000D01*
X227962569Y-73172893D01*
X228172893Y-72962569D01*
X228338144Y-72715253D01*
X228451971Y-72440451D01*
X228510000Y-72148722D01*
X228510000Y-71851278D01*
X228451971Y-71559549D01*
X228338144Y-71284747D01*
X228172893Y-71037431D01*
X227962569Y-70827107D01*
X227847170Y-70750000D01*
X227962569Y-70672893D01*
X228172893Y-70462569D01*
X228338144Y-70215253D01*
X228451971Y-69940451D01*
X228510000Y-69648722D01*
X228510000Y-69351278D01*
X228451971Y-69059549D01*
X228338144Y-68784747D01*
X228172893Y-68537431D01*
X227962569Y-68327107D01*
X227847170Y-68250000D01*
X227962569Y-68172893D01*
X228172893Y-67962569D01*
X228338144Y-67715253D01*
X228451971Y-67440451D01*
X228510000Y-67148722D01*
X228510000Y-66851278D01*
X228451971Y-66559549D01*
X228338144Y-66284747D01*
X228172893Y-66037431D01*
X227962569Y-65827107D01*
X227847170Y-65750000D01*
X227962569Y-65672893D01*
X228172893Y-65462569D01*
X228338144Y-65215253D01*
X228451971Y-64940451D01*
X228510000Y-64648722D01*
X228510000Y-64351278D01*
X228451971Y-64059549D01*
X228338144Y-63784747D01*
X228172893Y-63537431D01*
X227962569Y-63327107D01*
X227847170Y-63250000D01*
X227962569Y-63172893D01*
X228172893Y-62962569D01*
X228338144Y-62715253D01*
X228451971Y-62440451D01*
X228510000Y-62148722D01*
X228510000Y-61851278D01*
X228451971Y-61559549D01*
X228338144Y-61284747D01*
X228172893Y-61037431D01*
X227962569Y-60827107D01*
X227847170Y-60750000D01*
X227962569Y-60672893D01*
X228172893Y-60462569D01*
X228338144Y-60215253D01*
X228451971Y-59940451D01*
X228510000Y-59648722D01*
X228510000Y-59351278D01*
X228451971Y-59059549D01*
X228338144Y-58784747D01*
X228172893Y-58537431D01*
X227962569Y-58327107D01*
X227847170Y-58250000D01*
X227962569Y-58172893D01*
X228172893Y-57962569D01*
X228338144Y-57715253D01*
X228451971Y-57440451D01*
X228510000Y-57148722D01*
X228510000Y-56851278D01*
X228451971Y-56559549D01*
X228338144Y-56284747D01*
X228172893Y-56037431D01*
X227962569Y-55827107D01*
X227847170Y-55750000D01*
X227962569Y-55672893D01*
X228172893Y-55462569D01*
X228338144Y-55215253D01*
X228451971Y-54940451D01*
X228510000Y-54648722D01*
X228510000Y-54351278D01*
X228451971Y-54059549D01*
X228338144Y-53784747D01*
X228172893Y-53537431D01*
X228104436Y-53468974D01*
X228119180Y-53464502D01*
X228229494Y-53405537D01*
X228326185Y-53326185D01*
X228405537Y-53229494D01*
X228464502Y-53119180D01*
X228500812Y-52999482D01*
X228513072Y-52875000D01*
X228513072Y-51125000D01*
X228500812Y-51000518D01*
X228464502Y-50880820D01*
X228405537Y-50770506D01*
X228326185Y-50673815D01*
X228229494Y-50594463D01*
X228119180Y-50535498D01*
X227999482Y-50499188D01*
X227875000Y-50486928D01*
X226125000Y-50486928D01*
X226000518Y-50499188D01*
X225880820Y-50535498D01*
X225770506Y-50594463D01*
X225673815Y-50673815D01*
X225617620Y-50742290D01*
X219002330Y-44127000D01*
X235873000Y-44127000D01*
X235873000Y-144873000D01*
X221000000Y-144873000D01*
X220975224Y-144875440D01*
X220951399Y-144882667D01*
X220929443Y-144894403D01*
X220910197Y-144910197D01*
X220894403Y-144929443D01*
X220882667Y-144951399D01*
X220875440Y-144975224D01*
X220873000Y-145000000D01*
X220873000Y-151552519D01*
X220865000Y-151592738D01*
X220865000Y-152407262D01*
X220873000Y-152447481D01*
X220873000Y-154872264D01*
X59651767Y-153940349D01*
X59824748Y-153623388D01*
X60067964Y-152846024D01*
X60154851Y-152036147D01*
X60082069Y-151224882D01*
X59852415Y-150443403D01*
X59474715Y-149721744D01*
X59434550Y-149661634D01*
X58914155Y-149265450D01*
X56179605Y-152000000D01*
X56193748Y-152014143D01*
X56014143Y-152193748D01*
X56000000Y-152179605D01*
X55985858Y-152193748D01*
X55806253Y-152014143D01*
X55820395Y-152000000D01*
X53085845Y-149265450D01*
X52565450Y-149661634D01*
X52175252Y-150376612D01*
X51932036Y-151153976D01*
X51845149Y-151963853D01*
X51917931Y-152775118D01*
X52147585Y-153556597D01*
X52326270Y-153898005D01*
X49695810Y-153882800D01*
X49976094Y-153206135D01*
X50135000Y-152407262D01*
X50135000Y-151592738D01*
X49976094Y-150793865D01*
X49664389Y-150041343D01*
X49211864Y-149364091D01*
X48933618Y-149085845D01*
X53265450Y-149085845D01*
X56000000Y-151820395D01*
X58734550Y-149085845D01*
X58338366Y-148565450D01*
X57623388Y-148175252D01*
X56846024Y-147932036D01*
X56036147Y-147845149D01*
X55224882Y-147917931D01*
X54443403Y-148147585D01*
X53721744Y-148525285D01*
X53661634Y-148565450D01*
X53265450Y-149085845D01*
X48933618Y-149085845D01*
X48635909Y-148788136D01*
X48127000Y-148448094D01*
X48127000Y-129921269D01*
X53258336Y-129921269D01*
X53317797Y-130155037D01*
X53556242Y-130265934D01*
X53811740Y-130328183D01*
X54074473Y-130339390D01*
X54334344Y-130299125D01*
X54581366Y-130208935D01*
X54682203Y-130155037D01*
X54741664Y-129921269D01*
X54000000Y-129179605D01*
X53258336Y-129921269D01*
X48127000Y-129921269D01*
X48127000Y-129074473D01*
X52660610Y-129074473D01*
X52700875Y-129334344D01*
X52791065Y-129581366D01*
X52844963Y-129682203D01*
X53078731Y-129741664D01*
X53820395Y-129000000D01*
X54179605Y-129000000D01*
X54921269Y-129741664D01*
X55155037Y-129682203D01*
X55265934Y-129443758D01*
X55328183Y-129188260D01*
X55339390Y-128925527D01*
X55330557Y-128868514D01*
X60285000Y-128868514D01*
X60285000Y-129131486D01*
X60336304Y-129389405D01*
X60436939Y-129632359D01*
X60583038Y-129851013D01*
X60768987Y-130036962D01*
X60987641Y-130183061D01*
X61230595Y-130283696D01*
X61488514Y-130335000D01*
X61751486Y-130335000D01*
X62009405Y-130283696D01*
X62252359Y-130183061D01*
X62471013Y-130036962D01*
X62656962Y-129851013D01*
X62803061Y-129632359D01*
X62903696Y-129389405D01*
X62955000Y-129131486D01*
X62955000Y-128868514D01*
X62903696Y-128610595D01*
X62803061Y-128367641D01*
X62656962Y-128148987D01*
X62471013Y-127963038D01*
X62252359Y-127816939D01*
X62009405Y-127716304D01*
X61751486Y-127665000D01*
X61488514Y-127665000D01*
X61230595Y-127716304D01*
X60987641Y-127816939D01*
X60768987Y-127963038D01*
X60583038Y-128148987D01*
X60436939Y-128367641D01*
X60336304Y-128610595D01*
X60285000Y-128868514D01*
X55330557Y-128868514D01*
X55299125Y-128665656D01*
X55208935Y-128418634D01*
X55155037Y-128317797D01*
X54921269Y-128258336D01*
X54179605Y-129000000D01*
X53820395Y-129000000D01*
X53078731Y-128258336D01*
X52844963Y-128317797D01*
X52734066Y-128556242D01*
X52671817Y-128811740D01*
X52660610Y-129074473D01*
X48127000Y-129074473D01*
X48127000Y-128078731D01*
X53258336Y-128078731D01*
X54000000Y-128820395D01*
X54741664Y-128078731D01*
X54682203Y-127844963D01*
X54443758Y-127734066D01*
X54188260Y-127671817D01*
X53925527Y-127660610D01*
X53665656Y-127700875D01*
X53418634Y-127791065D01*
X53317797Y-127844963D01*
X53258336Y-128078731D01*
X48127000Y-128078731D01*
X48127000Y-124921269D01*
X53258336Y-124921269D01*
X53317797Y-125155037D01*
X53556242Y-125265934D01*
X53811740Y-125328183D01*
X54074473Y-125339390D01*
X54334344Y-125299125D01*
X54581366Y-125208935D01*
X54682203Y-125155037D01*
X54741664Y-124921269D01*
X54000000Y-124179605D01*
X53258336Y-124921269D01*
X48127000Y-124921269D01*
X48127000Y-124074473D01*
X52660610Y-124074473D01*
X52700875Y-124334344D01*
X52791065Y-124581366D01*
X52844963Y-124682203D01*
X53078731Y-124741664D01*
X53820395Y-124000000D01*
X54179605Y-124000000D01*
X54921269Y-124741664D01*
X55155037Y-124682203D01*
X55265934Y-124443758D01*
X55328183Y-124188260D01*
X55339390Y-123925527D01*
X55299125Y-123665656D01*
X55208935Y-123418634D01*
X55155037Y-123317797D01*
X54921269Y-123258336D01*
X54179605Y-124000000D01*
X53820395Y-124000000D01*
X53078731Y-123258336D01*
X52844963Y-123317797D01*
X52734066Y-123556242D01*
X52671817Y-123811740D01*
X52660610Y-124074473D01*
X48127000Y-124074473D01*
X48127000Y-123078731D01*
X53258336Y-123078731D01*
X54000000Y-123820395D01*
X54741664Y-123078731D01*
X54682203Y-122844963D01*
X54443758Y-122734066D01*
X54188260Y-122671817D01*
X53925527Y-122660610D01*
X53665656Y-122700875D01*
X53418634Y-122791065D01*
X53317797Y-122844963D01*
X53258336Y-123078731D01*
X48127000Y-123078731D01*
X48127000Y-119921269D01*
X53258336Y-119921269D01*
X53317797Y-120155037D01*
X53556242Y-120265934D01*
X53811740Y-120328183D01*
X54074473Y-120339390D01*
X54334344Y-120299125D01*
X54581366Y-120208935D01*
X54682203Y-120155037D01*
X54741664Y-119921269D01*
X54000000Y-119179605D01*
X53258336Y-119921269D01*
X48127000Y-119921269D01*
X48127000Y-119074473D01*
X52660610Y-119074473D01*
X52700875Y-119334344D01*
X52791065Y-119581366D01*
X52844963Y-119682203D01*
X53078731Y-119741664D01*
X53820395Y-119000000D01*
X54179605Y-119000000D01*
X54921269Y-119741664D01*
X55155037Y-119682203D01*
X55265934Y-119443758D01*
X55328183Y-119188260D01*
X55339390Y-118925527D01*
X55299125Y-118665656D01*
X55208935Y-118418634D01*
X55155037Y-118317797D01*
X54921269Y-118258336D01*
X54179605Y-119000000D01*
X53820395Y-119000000D01*
X53078731Y-118258336D01*
X52844963Y-118317797D01*
X52734066Y-118556242D01*
X52671817Y-118811740D01*
X52660610Y-119074473D01*
X48127000Y-119074473D01*
X48127000Y-118078731D01*
X53258336Y-118078731D01*
X54000000Y-118820395D01*
X54741664Y-118078731D01*
X54682203Y-117844963D01*
X54443758Y-117734066D01*
X54188260Y-117671817D01*
X53925527Y-117660610D01*
X53665656Y-117700875D01*
X53418634Y-117791065D01*
X53317797Y-117844963D01*
X53258336Y-118078731D01*
X48127000Y-118078731D01*
X48127000Y-94125000D01*
X54486928Y-94125000D01*
X54486928Y-95875000D01*
X54499188Y-95999482D01*
X54535498Y-96119180D01*
X54594463Y-96229494D01*
X54673815Y-96326185D01*
X54770506Y-96405537D01*
X54880820Y-96464502D01*
X54895564Y-96468974D01*
X54827107Y-96537431D01*
X54661856Y-96784747D01*
X54548029Y-97059549D01*
X54490000Y-97351278D01*
X54490000Y-97648722D01*
X54548029Y-97940451D01*
X54661856Y-98215253D01*
X54827107Y-98462569D01*
X55037431Y-98672893D01*
X55152830Y-98750000D01*
X55037431Y-98827107D01*
X54827107Y-99037431D01*
X54661856Y-99284747D01*
X54548029Y-99559549D01*
X54490000Y-99851278D01*
X54490000Y-100148722D01*
X54548029Y-100440451D01*
X54661856Y-100715253D01*
X54827107Y-100962569D01*
X55037431Y-101172893D01*
X55152830Y-101250000D01*
X55037431Y-101327107D01*
X54827107Y-101537431D01*
X54661856Y-101784747D01*
X54548029Y-102059549D01*
X54490000Y-102351278D01*
X54490000Y-102648722D01*
X54548029Y-102940451D01*
X54661856Y-103215253D01*
X54827107Y-103462569D01*
X55037431Y-103672893D01*
X55284747Y-103838144D01*
X55559549Y-103951971D01*
X55851278Y-104010000D01*
X56148722Y-104010000D01*
X56440451Y-103951971D01*
X56715253Y-103838144D01*
X56962569Y-103672893D01*
X57172893Y-103462569D01*
X57338144Y-103215253D01*
X57451971Y-102940451D01*
X57510000Y-102648722D01*
X57510000Y-102587630D01*
X60858000Y-105935631D01*
X60858001Y-117903561D01*
X60768987Y-117963038D01*
X60583038Y-118148987D01*
X60436939Y-118367641D01*
X60336304Y-118610595D01*
X60285000Y-118868514D01*
X60285000Y-119131486D01*
X60336304Y-119389405D01*
X60436939Y-119632359D01*
X60583038Y-119851013D01*
X60768987Y-120036962D01*
X60987641Y-120183061D01*
X61230595Y-120283696D01*
X61488514Y-120335000D01*
X61751486Y-120335000D01*
X61907501Y-120303966D01*
X61907501Y-121607568D01*
X61107649Y-122407421D01*
X61078579Y-122431278D01*
X61054722Y-122460348D01*
X61054721Y-122460349D01*
X60983355Y-122547308D01*
X60912599Y-122679685D01*
X60869027Y-122823322D01*
X60861344Y-122901328D01*
X60768987Y-122963038D01*
X60583038Y-123148987D01*
X60436939Y-123367641D01*
X60336304Y-123610595D01*
X60285000Y-123868514D01*
X60285000Y-124131486D01*
X60336304Y-124389405D01*
X60436939Y-124632359D01*
X60583038Y-124851013D01*
X60768987Y-125036962D01*
X60987641Y-125183061D01*
X61230595Y-125283696D01*
X61488514Y-125335000D01*
X61751486Y-125335000D01*
X62009405Y-125283696D01*
X62252359Y-125183061D01*
X62471013Y-125036962D01*
X62656962Y-124851013D01*
X62803061Y-124632359D01*
X62903696Y-124389405D01*
X62955000Y-124131486D01*
X62955000Y-123868514D01*
X62903696Y-123610595D01*
X62803061Y-123367641D01*
X62656962Y-123148987D01*
X62589153Y-123081178D01*
X63181851Y-122488479D01*
X63210922Y-122464622D01*
X63306145Y-122348592D01*
X63376902Y-122216215D01*
X63420474Y-122072578D01*
X63431500Y-121960626D01*
X63431500Y-121960624D01*
X63435186Y-121923201D01*
X63431500Y-121885778D01*
X63431500Y-102458322D01*
X63435186Y-102420899D01*
X63430429Y-102372598D01*
X63420474Y-102271522D01*
X63376902Y-102127885D01*
X63306145Y-101995508D01*
X63210922Y-101879478D01*
X63181853Y-101855622D01*
X57457852Y-96131622D01*
X57464502Y-96119180D01*
X57500812Y-95999482D01*
X57513072Y-95875000D01*
X57513072Y-94125000D01*
X57500812Y-94000518D01*
X57464502Y-93880820D01*
X57405537Y-93770506D01*
X57326185Y-93673815D01*
X57229494Y-93594463D01*
X57119180Y-93535498D01*
X56999482Y-93499188D01*
X56875000Y-93486928D01*
X55125000Y-93486928D01*
X55000518Y-93499188D01*
X54880820Y-93535498D01*
X54770506Y-93594463D01*
X54673815Y-93673815D01*
X54594463Y-93770506D01*
X54535498Y-93880820D01*
X54499188Y-94000518D01*
X54486928Y-94125000D01*
X48127000Y-94125000D01*
X48127000Y-37127000D01*
X66876298Y-37127000D01*
X67366061Y-55738000D01*
%TA.AperFunction,Conductor*%
D26*
G36*
X67366061Y-55738000D02*
G01*
X57306909Y-55738000D01*
X57172893Y-55537431D01*
X56962569Y-55327107D01*
X56847170Y-55250000D01*
X56962569Y-55172893D01*
X57172893Y-54962569D01*
X57338144Y-54715253D01*
X57451971Y-54440451D01*
X57510000Y-54148722D01*
X57510000Y-53851278D01*
X57451971Y-53559549D01*
X57338144Y-53284747D01*
X57172893Y-53037431D01*
X56962569Y-52827107D01*
X56847170Y-52750000D01*
X56962569Y-52672893D01*
X57172893Y-52462569D01*
X57338144Y-52215253D01*
X57451971Y-51940451D01*
X57510000Y-51648722D01*
X57510000Y-51351278D01*
X57451971Y-51059549D01*
X57338144Y-50784747D01*
X57172893Y-50537431D01*
X56962569Y-50327107D01*
X56847170Y-50250000D01*
X56962569Y-50172893D01*
X57172893Y-49962569D01*
X57338144Y-49715253D01*
X57451971Y-49440451D01*
X57510000Y-49148722D01*
X57510000Y-48851278D01*
X57451971Y-48559549D01*
X57338144Y-48284747D01*
X57172893Y-48037431D01*
X56962569Y-47827107D01*
X56847170Y-47750000D01*
X56962569Y-47672893D01*
X57172893Y-47462569D01*
X57338144Y-47215253D01*
X57451971Y-46940451D01*
X57510000Y-46648722D01*
X57510000Y-46351278D01*
X57451971Y-46059549D01*
X57338144Y-45784747D01*
X57172893Y-45537431D01*
X57104436Y-45468974D01*
X57119180Y-45464502D01*
X57229494Y-45405537D01*
X57326185Y-45326185D01*
X57405537Y-45229494D01*
X57464502Y-45119180D01*
X57500812Y-44999482D01*
X57513072Y-44875000D01*
X57513072Y-43125000D01*
X57500812Y-43000518D01*
X57464502Y-42880820D01*
X57405537Y-42770506D01*
X57326185Y-42673815D01*
X57229494Y-42594463D01*
X57119180Y-42535498D01*
X56999482Y-42499188D01*
X56875000Y-42486928D01*
X55125000Y-42486928D01*
X55000518Y-42499188D01*
X54880820Y-42535498D01*
X54770506Y-42594463D01*
X54673815Y-42673815D01*
X54594463Y-42770506D01*
X54535498Y-42880820D01*
X54499188Y-43000518D01*
X54486928Y-43125000D01*
X54486928Y-44875000D01*
X54499188Y-44999482D01*
X54535498Y-45119180D01*
X54594463Y-45229494D01*
X54673815Y-45326185D01*
X54770506Y-45405537D01*
X54880820Y-45464502D01*
X54895564Y-45468974D01*
X54827107Y-45537431D01*
X54661856Y-45784747D01*
X54548029Y-46059549D01*
X54490000Y-46351278D01*
X54490000Y-46648722D01*
X54548029Y-46940451D01*
X54661856Y-47215253D01*
X54827107Y-47462569D01*
X55037431Y-47672893D01*
X55152830Y-47750000D01*
X55037431Y-47827107D01*
X54827107Y-48037431D01*
X54661856Y-48284747D01*
X54548029Y-48559549D01*
X54490000Y-48851278D01*
X54490000Y-49148722D01*
X54548029Y-49440451D01*
X54661856Y-49715253D01*
X54827107Y-49962569D01*
X55037431Y-50172893D01*
X55152830Y-50250000D01*
X55037431Y-50327107D01*
X54827107Y-50537431D01*
X54661856Y-50784747D01*
X54548029Y-51059549D01*
X54490000Y-51351278D01*
X54490000Y-51648722D01*
X54548029Y-51940451D01*
X54661856Y-52215253D01*
X54827107Y-52462569D01*
X55037431Y-52672893D01*
X55152830Y-52750000D01*
X55037431Y-52827107D01*
X54827107Y-53037431D01*
X54661856Y-53284747D01*
X54548029Y-53559549D01*
X54490000Y-53851278D01*
X54490000Y-54148722D01*
X54548029Y-54440451D01*
X54661856Y-54715253D01*
X54827107Y-54962569D01*
X55037431Y-55172893D01*
X55152830Y-55250000D01*
X55037431Y-55327107D01*
X54827107Y-55537431D01*
X54661856Y-55784747D01*
X54548029Y-56059549D01*
X54490000Y-56351278D01*
X54490000Y-56648722D01*
X54548029Y-56940451D01*
X54661856Y-57215253D01*
X54827107Y-57462569D01*
X55037431Y-57672893D01*
X55152830Y-57750000D01*
X55037431Y-57827107D01*
X54827107Y-58037431D01*
X54661856Y-58284747D01*
X54548029Y-58559549D01*
X54490000Y-58851278D01*
X54490000Y-59148722D01*
X54548029Y-59440451D01*
X54661856Y-59715253D01*
X54827107Y-59962569D01*
X55037431Y-60172893D01*
X55152830Y-60250000D01*
X55037431Y-60327107D01*
X54827107Y-60537431D01*
X54661856Y-60784747D01*
X54548029Y-61059549D01*
X54490000Y-61351278D01*
X54490000Y-61648722D01*
X54548029Y-61940451D01*
X54661856Y-62215253D01*
X54771749Y-62379720D01*
X54283149Y-62868321D01*
X54254079Y-62892178D01*
X54230222Y-62921248D01*
X54230221Y-62921249D01*
X54158855Y-63008208D01*
X54088099Y-63140585D01*
X54044527Y-63284222D01*
X54029814Y-63433600D01*
X54033501Y-63471033D01*
X54033500Y-70258077D01*
X54029814Y-70295500D01*
X54033500Y-70332923D01*
X54033500Y-70332925D01*
X54044526Y-70444877D01*
X54088098Y-70588514D01*
X54088099Y-70588515D01*
X54158855Y-70720892D01*
X54184463Y-70752095D01*
X54254078Y-70836922D01*
X54283154Y-70860784D01*
X54537061Y-71114691D01*
X54490000Y-71351278D01*
X54490000Y-71648722D01*
X54548029Y-71940451D01*
X54661856Y-72215253D01*
X54827107Y-72462569D01*
X55037431Y-72672893D01*
X55152830Y-72750000D01*
X55037431Y-72827107D01*
X54827107Y-73037431D01*
X54661856Y-73284747D01*
X54548029Y-73559549D01*
X54490000Y-73851278D01*
X54490000Y-74148722D01*
X54548029Y-74440451D01*
X54661856Y-74715253D01*
X54827107Y-74962569D01*
X55037431Y-75172893D01*
X55152830Y-75250000D01*
X55037431Y-75327107D01*
X54827107Y-75537431D01*
X54661856Y-75784747D01*
X54548029Y-76059549D01*
X54490000Y-76351278D01*
X54490000Y-76648722D01*
X54548029Y-76940451D01*
X54661856Y-77215253D01*
X54827107Y-77462569D01*
X55037431Y-77672893D01*
X55152830Y-77750000D01*
X55037431Y-77827107D01*
X54827107Y-78037431D01*
X54661856Y-78284747D01*
X54548029Y-78559549D01*
X54490000Y-78851278D01*
X54490000Y-79148722D01*
X54537061Y-79385309D01*
X54285254Y-79637116D01*
X54256178Y-79660978D01*
X54221221Y-79703574D01*
X54160955Y-79777008D01*
X54156818Y-79784748D01*
X54090198Y-79909386D01*
X54046626Y-80053023D01*
X54037299Y-80147723D01*
X54031914Y-80202400D01*
X54035600Y-80239823D01*
X54035601Y-87158567D01*
X54031914Y-87196000D01*
X54046627Y-87345378D01*
X54090199Y-87489015D01*
X54160955Y-87621392D01*
X54208830Y-87679727D01*
X54256179Y-87737422D01*
X54285249Y-87761279D01*
X68585091Y-102061121D01*
X69873044Y-151003341D01*
X69876135Y-151028045D01*
X69883986Y-151051671D01*
X69896296Y-151073311D01*
X69912591Y-151092134D01*
X69932245Y-151107416D01*
X69954503Y-151118571D01*
X69978509Y-151125168D01*
X70000864Y-151126997D01*
X217000864Y-150126997D01*
X217025623Y-150124388D01*
X217049398Y-150116999D01*
X217071274Y-150105114D01*
X217090411Y-150089190D01*
X217106074Y-150069837D01*
X217117661Y-150047802D01*
X217124725Y-150023929D01*
X217126977Y-149997604D01*
X216928772Y-139492702D01*
X227186903Y-139492702D01*
X227258486Y-139736671D01*
X227513996Y-139857571D01*
X227788184Y-139926300D01*
X228070512Y-139940217D01*
X228350130Y-139898787D01*
X228616292Y-139803603D01*
X228741514Y-139736671D01*
X228813097Y-139492702D01*
X228000000Y-138679605D01*
X227186903Y-139492702D01*
X216928772Y-139492702D01*
X216911372Y-138570512D01*
X226559783Y-138570512D01*
X226601213Y-138850130D01*
X226696397Y-139116292D01*
X226763329Y-139241514D01*
X227007298Y-139313097D01*
X227820395Y-138500000D01*
X228179605Y-138500000D01*
X228992702Y-139313097D01*
X229236671Y-139241514D01*
X229357571Y-138986004D01*
X229426300Y-138711816D01*
X229440217Y-138429488D01*
X229398787Y-138149870D01*
X229303603Y-137883708D01*
X229236671Y-137758486D01*
X228992702Y-137686903D01*
X228179605Y-138500000D01*
X227820395Y-138500000D01*
X227007298Y-137686903D01*
X226763329Y-137758486D01*
X226642429Y-138013996D01*
X226573700Y-138288184D01*
X226559783Y-138570512D01*
X216911372Y-138570512D01*
X216728701Y-128889000D01*
X227097844Y-128889000D01*
X227111001Y-128913614D01*
X227111000Y-134570693D01*
X227075518Y-134574188D01*
X226955820Y-134610498D01*
X226845506Y-134669463D01*
X226748815Y-134748815D01*
X226669463Y-134845506D01*
X226610498Y-134955820D01*
X226574188Y-135075518D01*
X226561928Y-135200000D01*
X226561928Y-136800000D01*
X226574188Y-136924482D01*
X226610498Y-137044180D01*
X226669463Y-137154494D01*
X226748815Y-137251185D01*
X226845506Y-137330537D01*
X226955820Y-137389502D01*
X227075518Y-137425812D01*
X227200000Y-137438072D01*
X227207215Y-137438072D01*
X227186903Y-137507298D01*
X228000000Y-138320395D01*
X228813097Y-137507298D01*
X228792785Y-137438072D01*
X228800000Y-137438072D01*
X228924482Y-137425812D01*
X229044180Y-137389502D01*
X229154494Y-137330537D01*
X229251185Y-137251185D01*
X229330537Y-137154494D01*
X229389502Y-137044180D01*
X229425812Y-136924482D01*
X229438072Y-136800000D01*
X229438072Y-135200000D01*
X229425812Y-135075518D01*
X229389502Y-134955820D01*
X229330537Y-134845506D01*
X229251185Y-134748815D01*
X229154494Y-134669463D01*
X229044180Y-134610498D01*
X228924482Y-134574188D01*
X228889000Y-134570693D01*
X228889000Y-129810000D01*
X229413911Y-129810000D01*
X229679822Y-129783810D01*
X230021008Y-129680312D01*
X230335447Y-129512241D01*
X230611055Y-129286055D01*
X230837241Y-129010447D01*
X231005312Y-128696008D01*
X231108810Y-128354822D01*
X231143757Y-128000000D01*
X231108810Y-127645178D01*
X231005312Y-127303992D01*
X230837241Y-126989553D01*
X230611055Y-126713945D01*
X230335447Y-126487759D01*
X230021008Y-126319688D01*
X229679822Y-126216190D01*
X229413911Y-126190000D01*
X228586089Y-126190000D01*
X228320178Y-126216190D01*
X227978992Y-126319688D01*
X227664553Y-126487759D01*
X227388945Y-126713945D01*
X227162759Y-126989553D01*
X227097844Y-127111000D01*
X216695154Y-127111000D01*
X216639758Y-124175000D01*
X226861928Y-124175000D01*
X226874188Y-124299482D01*
X226910498Y-124419180D01*
X226969463Y-124529494D01*
X227048815Y-124626185D01*
X227145506Y-124705537D01*
X227255820Y-124764502D01*
X227375518Y-124800812D01*
X227500000Y-124813072D01*
X228714250Y-124810000D01*
X228873000Y-124651250D01*
X228873000Y-123127000D01*
X229127000Y-123127000D01*
X229127000Y-124651250D01*
X229285750Y-124810000D01*
X230500000Y-124813072D01*
X230624482Y-124800812D01*
X230744180Y-124764502D01*
X230854494Y-124705537D01*
X230951185Y-124626185D01*
X231030537Y-124529494D01*
X231089502Y-124419180D01*
X231125812Y-124299482D01*
X231138072Y-124175000D01*
X231135000Y-123285750D01*
X230976250Y-123127000D01*
X229127000Y-123127000D01*
X228873000Y-123127000D01*
X227023750Y-123127000D01*
X226865000Y-123285750D01*
X226861928Y-124175000D01*
X216639758Y-124175000D01*
X216595419Y-121825000D01*
X226861928Y-121825000D01*
X226865000Y-122714250D01*
X227023750Y-122873000D01*
X228873000Y-122873000D01*
X228873000Y-121348750D01*
X229127000Y-121348750D01*
X229127000Y-122873000D01*
X230976250Y-122873000D01*
X231135000Y-122714250D01*
X231138072Y-121825000D01*
X231125812Y-121700518D01*
X231089502Y-121580820D01*
X231030537Y-121470506D01*
X230951185Y-121373815D01*
X230854494Y-121294463D01*
X230744180Y-121235498D01*
X230624482Y-121199188D01*
X230500000Y-121186928D01*
X229285750Y-121190000D01*
X229127000Y-121348750D01*
X228873000Y-121348750D01*
X228714250Y-121190000D01*
X227500000Y-121186928D01*
X227375518Y-121199188D01*
X227255820Y-121235498D01*
X227145506Y-121294463D01*
X227048815Y-121373815D01*
X226969463Y-121470506D01*
X226910498Y-121580820D01*
X226874188Y-121700518D01*
X226861928Y-121825000D01*
X216595419Y-121825000D01*
X216405085Y-111737323D01*
X223333000Y-111737323D01*
X223333000Y-112262677D01*
X223435492Y-112777935D01*
X223636536Y-113263298D01*
X223928406Y-113700113D01*
X224299887Y-114071594D01*
X224736702Y-114363464D01*
X225222065Y-114564508D01*
X225737323Y-114667000D01*
X226262677Y-114667000D01*
X226777935Y-114564508D01*
X227263298Y-114363464D01*
X227700113Y-114071594D01*
X228071594Y-113700113D01*
X228363464Y-113263298D01*
X228564508Y-112777935D01*
X228667000Y-112262677D01*
X228667000Y-111737323D01*
X228564508Y-111222065D01*
X228363464Y-110736702D01*
X228071594Y-110299887D01*
X227700113Y-109928406D01*
X227263298Y-109636536D01*
X226777935Y-109435492D01*
X226262677Y-109333000D01*
X225737323Y-109333000D01*
X225222065Y-109435492D01*
X224736702Y-109636536D01*
X224299887Y-109928406D01*
X223928406Y-110299887D01*
X223636536Y-110736702D01*
X223435492Y-111222065D01*
X223333000Y-111737323D01*
X216405085Y-111737323D01*
X215129418Y-44127000D01*
X216847070Y-44127000D01*
X225232416Y-52512346D01*
X225256278Y-52541422D01*
X225327284Y-52599695D01*
X225372307Y-52636645D01*
X225412773Y-52658274D01*
X225486928Y-52697911D01*
X225486928Y-52875000D01*
X225499188Y-52999482D01*
X225535498Y-53119180D01*
X225594463Y-53229494D01*
X225673815Y-53326185D01*
X225770506Y-53405537D01*
X225880820Y-53464502D01*
X225895564Y-53468974D01*
X225827107Y-53537431D01*
X225661856Y-53784747D01*
X225548029Y-54059549D01*
X225490000Y-54351278D01*
X225490000Y-54648722D01*
X225548029Y-54940451D01*
X225661856Y-55215253D01*
X225827107Y-55462569D01*
X226037431Y-55672893D01*
X226152830Y-55750000D01*
X226037431Y-55827107D01*
X225827107Y-56037431D01*
X225661856Y-56284747D01*
X225548029Y-56559549D01*
X225490000Y-56851278D01*
X225490000Y-57148722D01*
X225548029Y-57440451D01*
X225661856Y-57715253D01*
X225827107Y-57962569D01*
X226037431Y-58172893D01*
X226152830Y-58250000D01*
X226037431Y-58327107D01*
X225827107Y-58537431D01*
X225661856Y-58784747D01*
X225548029Y-59059549D01*
X225490000Y-59351278D01*
X225490000Y-59648722D01*
X225548029Y-59940451D01*
X225661856Y-60215253D01*
X225827107Y-60462569D01*
X226037431Y-60672893D01*
X226152830Y-60750000D01*
X226037431Y-60827107D01*
X225827107Y-61037431D01*
X225661856Y-61284747D01*
X225548029Y-61559549D01*
X225490000Y-61851278D01*
X225490000Y-62148722D01*
X225548029Y-62440451D01*
X225661856Y-62715253D01*
X225827107Y-62962569D01*
X226037431Y-63172893D01*
X226152830Y-63250000D01*
X226037431Y-63327107D01*
X225827107Y-63537431D01*
X225661856Y-63784747D01*
X225548029Y-64059549D01*
X225490000Y-64351278D01*
X225490000Y-64648722D01*
X225548029Y-64940451D01*
X225661856Y-65215253D01*
X225827107Y-65462569D01*
X226037431Y-65672893D01*
X226152830Y-65750000D01*
X226037431Y-65827107D01*
X225827107Y-66037431D01*
X225661856Y-66284747D01*
X225548029Y-66559549D01*
X225490000Y-66851278D01*
X225490000Y-67148722D01*
X225548029Y-67440451D01*
X225661856Y-67715253D01*
X225827107Y-67962569D01*
X226037431Y-68172893D01*
X226152830Y-68250000D01*
X226037431Y-68327107D01*
X225827107Y-68537431D01*
X225661856Y-68784747D01*
X225548029Y-69059549D01*
X225490000Y-69351278D01*
X225490000Y-69648722D01*
X225548029Y-69940451D01*
X225661856Y-70215253D01*
X225827107Y-70462569D01*
X226037431Y-70672893D01*
X226152830Y-70750000D01*
X226037431Y-70827107D01*
X225827107Y-71037431D01*
X225661856Y-71284747D01*
X225548029Y-71559549D01*
X225490000Y-71851278D01*
X225490000Y-72148722D01*
X225548029Y-72440451D01*
X225661856Y-72715253D01*
X225827107Y-72962569D01*
X226037431Y-73172893D01*
X226152830Y-73250000D01*
X226037431Y-73327107D01*
X225827107Y-73537431D01*
X225661856Y-73784747D01*
X225548029Y-74059549D01*
X225490000Y-74351278D01*
X225490000Y-74648722D01*
X225548029Y-74940451D01*
X225661856Y-75215253D01*
X225827107Y-75462569D01*
X226037431Y-75672893D01*
X226152830Y-75750000D01*
X226037431Y-75827107D01*
X225827107Y-76037431D01*
X225661856Y-76284747D01*
X225548029Y-76559549D01*
X225490000Y-76851278D01*
X225490000Y-77148722D01*
X225548029Y-77440451D01*
X225661856Y-77715253D01*
X225827107Y-77962569D01*
X226037431Y-78172893D01*
X226152830Y-78250000D01*
X226037431Y-78327107D01*
X225827107Y-78537431D01*
X225661856Y-78784747D01*
X225548029Y-79059549D01*
X225490000Y-79351278D01*
X225490000Y-79648722D01*
X225548029Y-79940451D01*
X225661856Y-80215253D01*
X225827107Y-80462569D01*
X226037431Y-80672893D01*
X226152830Y-80750000D01*
X226037431Y-80827107D01*
X225827107Y-81037431D01*
X225661856Y-81284747D01*
X225548029Y-81559549D01*
X225490000Y-81851278D01*
X225490000Y-82148722D01*
X225548029Y-82440451D01*
X225661856Y-82715253D01*
X225827107Y-82962569D01*
X226037431Y-83172893D01*
X226152830Y-83250000D01*
X226037431Y-83327107D01*
X225827107Y-83537431D01*
X225661856Y-83784747D01*
X225548029Y-84059549D01*
X225490000Y-84351278D01*
X225490000Y-84648722D01*
X225548029Y-84940451D01*
X225661856Y-85215253D01*
X225827107Y-85462569D01*
X226037431Y-85672893D01*
X226152830Y-85750000D01*
X226037431Y-85827107D01*
X225827107Y-86037431D01*
X225661856Y-86284747D01*
X225548029Y-86559549D01*
X225490000Y-86851278D01*
X225490000Y-87148722D01*
X225548029Y-87440451D01*
X225661856Y-87715253D01*
X225827107Y-87962569D01*
X226037431Y-88172893D01*
X226152830Y-88250000D01*
X226037431Y-88327107D01*
X225827107Y-88537431D01*
X225661856Y-88784747D01*
X225548029Y-89059549D01*
X225490000Y-89351278D01*
X225490000Y-89648722D01*
X225548029Y-89940451D01*
X225661856Y-90215253D01*
X225827107Y-90462569D01*
X226037431Y-90672893D01*
X226284747Y-90838144D01*
X226559549Y-90951971D01*
X226851278Y-91010000D01*
X227148722Y-91010000D01*
X227440451Y-90951971D01*
X227715253Y-90838144D01*
X227962569Y-90672893D01*
X228172893Y-90462569D01*
X228338144Y-90215253D01*
X228451971Y-89940451D01*
X228510000Y-89648722D01*
X228510000Y-89351278D01*
X228451971Y-89059549D01*
X228338144Y-88784747D01*
X228172893Y-88537431D01*
X227962569Y-88327107D01*
X227847170Y-88250000D01*
X227962569Y-88172893D01*
X228172893Y-87962569D01*
X228338144Y-87715253D01*
X228451971Y-87440451D01*
X228510000Y-87148722D01*
X228510000Y-86851278D01*
X228451971Y-86559549D01*
X228338144Y-86284747D01*
X228172893Y-86037431D01*
X227962569Y-85827107D01*
X227847170Y-85750000D01*
X227962569Y-85672893D01*
X228172893Y-85462569D01*
X228338144Y-85215253D01*
X228451971Y-84940451D01*
X228510000Y-84648722D01*
X228510000Y-84351278D01*
X228451971Y-84059549D01*
X228338144Y-83784747D01*
X228172893Y-83537431D01*
X227962569Y-83327107D01*
X227847170Y-83250000D01*
X227962569Y-83172893D01*
X228172893Y-82962569D01*
X228338144Y-82715253D01*
X228451971Y-82440451D01*
X228510000Y-82148722D01*
X228510000Y-81851278D01*
X228451971Y-81559549D01*
X228338144Y-81284747D01*
X228172893Y-81037431D01*
X227962569Y-80827107D01*
X227847170Y-80750000D01*
X227962569Y-80672893D01*
X228172893Y-80462569D01*
X228338144Y-80215253D01*
X228451971Y-79940451D01*
X228510000Y-79648722D01*
X228510000Y-79351278D01*
X228451971Y-79059549D01*
X228338144Y-78784747D01*
X228172893Y-78537431D01*
X227962569Y-78327107D01*
X227847170Y-78250000D01*
X227962569Y-78172893D01*
X228172893Y-77962569D01*
X228338144Y-77715253D01*
X228451971Y-77440451D01*
X228510000Y-77148722D01*
X228510000Y-76851278D01*
X228451971Y-76559549D01*
X228338144Y-76284747D01*
X228172893Y-76037431D01*
X227962569Y-75827107D01*
X227847170Y-75750000D01*
X227962569Y-75672893D01*
X228172893Y-75462569D01*
X228338144Y-75215253D01*
X228451971Y-74940451D01*
X228510000Y-74648722D01*
X228510000Y-74351278D01*
X228451971Y-74059549D01*
X228338144Y-73784747D01*
X228172893Y-73537431D01*
X227962569Y-73327107D01*
X227847170Y-73250000D01*
X227962569Y-73172893D01*
X228172893Y-72962569D01*
X228338144Y-72715253D01*
X228451971Y-72440451D01*
X228510000Y-72148722D01*
X228510000Y-71851278D01*
X228451971Y-71559549D01*
X228338144Y-71284747D01*
X228172893Y-71037431D01*
X227962569Y-70827107D01*
X227847170Y-70750000D01*
X227962569Y-70672893D01*
X228172893Y-70462569D01*
X228338144Y-70215253D01*
X228451971Y-69940451D01*
X228510000Y-69648722D01*
X228510000Y-69351278D01*
X228451971Y-69059549D01*
X228338144Y-68784747D01*
X228172893Y-68537431D01*
X227962569Y-68327107D01*
X227847170Y-68250000D01*
X227962569Y-68172893D01*
X228172893Y-67962569D01*
X228338144Y-67715253D01*
X228451971Y-67440451D01*
X228510000Y-67148722D01*
X228510000Y-66851278D01*
X228451971Y-66559549D01*
X228338144Y-66284747D01*
X228172893Y-66037431D01*
X227962569Y-65827107D01*
X227847170Y-65750000D01*
X227962569Y-65672893D01*
X228172893Y-65462569D01*
X228338144Y-65215253D01*
X228451971Y-64940451D01*
X228510000Y-64648722D01*
X228510000Y-64351278D01*
X228451971Y-64059549D01*
X228338144Y-63784747D01*
X228172893Y-63537431D01*
X227962569Y-63327107D01*
X227847170Y-63250000D01*
X227962569Y-63172893D01*
X228172893Y-62962569D01*
X228338144Y-62715253D01*
X228451971Y-62440451D01*
X228510000Y-62148722D01*
X228510000Y-61851278D01*
X228451971Y-61559549D01*
X228338144Y-61284747D01*
X228172893Y-61037431D01*
X227962569Y-60827107D01*
X227847170Y-60750000D01*
X227962569Y-60672893D01*
X228172893Y-60462569D01*
X228338144Y-60215253D01*
X228451971Y-59940451D01*
X228510000Y-59648722D01*
X228510000Y-59351278D01*
X228451971Y-59059549D01*
X228338144Y-58784747D01*
X228172893Y-58537431D01*
X227962569Y-58327107D01*
X227847170Y-58250000D01*
X227962569Y-58172893D01*
X228172893Y-57962569D01*
X228338144Y-57715253D01*
X228451971Y-57440451D01*
X228510000Y-57148722D01*
X228510000Y-56851278D01*
X228451971Y-56559549D01*
X228338144Y-56284747D01*
X228172893Y-56037431D01*
X227962569Y-55827107D01*
X227847170Y-55750000D01*
X227962569Y-55672893D01*
X228172893Y-55462569D01*
X228338144Y-55215253D01*
X228451971Y-54940451D01*
X228510000Y-54648722D01*
X228510000Y-54351278D01*
X228451971Y-54059549D01*
X228338144Y-53784747D01*
X228172893Y-53537431D01*
X228104436Y-53468974D01*
X228119180Y-53464502D01*
X228229494Y-53405537D01*
X228326185Y-53326185D01*
X228405537Y-53229494D01*
X228464502Y-53119180D01*
X228500812Y-52999482D01*
X228513072Y-52875000D01*
X228513072Y-51125000D01*
X228500812Y-51000518D01*
X228464502Y-50880820D01*
X228405537Y-50770506D01*
X228326185Y-50673815D01*
X228229494Y-50594463D01*
X228119180Y-50535498D01*
X227999482Y-50499188D01*
X227875000Y-50486928D01*
X226125000Y-50486928D01*
X226000518Y-50499188D01*
X225880820Y-50535498D01*
X225770506Y-50594463D01*
X225673815Y-50673815D01*
X225617620Y-50742290D01*
X219002330Y-44127000D01*
X235873000Y-44127000D01*
X235873000Y-144873000D01*
X221000000Y-144873000D01*
X220975224Y-144875440D01*
X220951399Y-144882667D01*
X220929443Y-144894403D01*
X220910197Y-144910197D01*
X220894403Y-144929443D01*
X220882667Y-144951399D01*
X220875440Y-144975224D01*
X220873000Y-145000000D01*
X220873000Y-151552519D01*
X220865000Y-151592738D01*
X220865000Y-152407262D01*
X220873000Y-152447481D01*
X220873000Y-154872264D01*
X59651767Y-153940349D01*
X59824748Y-153623388D01*
X60067964Y-152846024D01*
X60154851Y-152036147D01*
X60082069Y-151224882D01*
X59852415Y-150443403D01*
X59474715Y-149721744D01*
X59434550Y-149661634D01*
X58914155Y-149265450D01*
X56179605Y-152000000D01*
X56193748Y-152014143D01*
X56014143Y-152193748D01*
X56000000Y-152179605D01*
X55985858Y-152193748D01*
X55806253Y-152014143D01*
X55820395Y-152000000D01*
X53085845Y-149265450D01*
X52565450Y-149661634D01*
X52175252Y-150376612D01*
X51932036Y-151153976D01*
X51845149Y-151963853D01*
X51917931Y-152775118D01*
X52147585Y-153556597D01*
X52326270Y-153898005D01*
X49695810Y-153882800D01*
X49976094Y-153206135D01*
X50135000Y-152407262D01*
X50135000Y-151592738D01*
X49976094Y-150793865D01*
X49664389Y-150041343D01*
X49211864Y-149364091D01*
X48933618Y-149085845D01*
X53265450Y-149085845D01*
X56000000Y-151820395D01*
X58734550Y-149085845D01*
X58338366Y-148565450D01*
X57623388Y-148175252D01*
X56846024Y-147932036D01*
X56036147Y-147845149D01*
X55224882Y-147917931D01*
X54443403Y-148147585D01*
X53721744Y-148525285D01*
X53661634Y-148565450D01*
X53265450Y-149085845D01*
X48933618Y-149085845D01*
X48635909Y-148788136D01*
X48127000Y-148448094D01*
X48127000Y-129921269D01*
X53258336Y-129921269D01*
X53317797Y-130155037D01*
X53556242Y-130265934D01*
X53811740Y-130328183D01*
X54074473Y-130339390D01*
X54334344Y-130299125D01*
X54581366Y-130208935D01*
X54682203Y-130155037D01*
X54741664Y-129921269D01*
X54000000Y-129179605D01*
X53258336Y-129921269D01*
X48127000Y-129921269D01*
X48127000Y-129074473D01*
X52660610Y-129074473D01*
X52700875Y-129334344D01*
X52791065Y-129581366D01*
X52844963Y-129682203D01*
X53078731Y-129741664D01*
X53820395Y-129000000D01*
X54179605Y-129000000D01*
X54921269Y-129741664D01*
X55155037Y-129682203D01*
X55265934Y-129443758D01*
X55328183Y-129188260D01*
X55339390Y-128925527D01*
X55330557Y-128868514D01*
X60285000Y-128868514D01*
X60285000Y-129131486D01*
X60336304Y-129389405D01*
X60436939Y-129632359D01*
X60583038Y-129851013D01*
X60768987Y-130036962D01*
X60987641Y-130183061D01*
X61230595Y-130283696D01*
X61488514Y-130335000D01*
X61751486Y-130335000D01*
X62009405Y-130283696D01*
X62252359Y-130183061D01*
X62471013Y-130036962D01*
X62656962Y-129851013D01*
X62803061Y-129632359D01*
X62903696Y-129389405D01*
X62955000Y-129131486D01*
X62955000Y-128868514D01*
X62903696Y-128610595D01*
X62803061Y-128367641D01*
X62656962Y-128148987D01*
X62471013Y-127963038D01*
X62252359Y-127816939D01*
X62009405Y-127716304D01*
X61751486Y-127665000D01*
X61488514Y-127665000D01*
X61230595Y-127716304D01*
X60987641Y-127816939D01*
X60768987Y-127963038D01*
X60583038Y-128148987D01*
X60436939Y-128367641D01*
X60336304Y-128610595D01*
X60285000Y-128868514D01*
X55330557Y-128868514D01*
X55299125Y-128665656D01*
X55208935Y-128418634D01*
X55155037Y-128317797D01*
X54921269Y-128258336D01*
X54179605Y-129000000D01*
X53820395Y-129000000D01*
X53078731Y-128258336D01*
X52844963Y-128317797D01*
X52734066Y-128556242D01*
X52671817Y-128811740D01*
X52660610Y-129074473D01*
X48127000Y-129074473D01*
X48127000Y-128078731D01*
X53258336Y-128078731D01*
X54000000Y-128820395D01*
X54741664Y-128078731D01*
X54682203Y-127844963D01*
X54443758Y-127734066D01*
X54188260Y-127671817D01*
X53925527Y-127660610D01*
X53665656Y-127700875D01*
X53418634Y-127791065D01*
X53317797Y-127844963D01*
X53258336Y-128078731D01*
X48127000Y-128078731D01*
X48127000Y-124921269D01*
X53258336Y-124921269D01*
X53317797Y-125155037D01*
X53556242Y-125265934D01*
X53811740Y-125328183D01*
X54074473Y-125339390D01*
X54334344Y-125299125D01*
X54581366Y-125208935D01*
X54682203Y-125155037D01*
X54741664Y-124921269D01*
X54000000Y-124179605D01*
X53258336Y-124921269D01*
X48127000Y-124921269D01*
X48127000Y-124074473D01*
X52660610Y-124074473D01*
X52700875Y-124334344D01*
X52791065Y-124581366D01*
X52844963Y-124682203D01*
X53078731Y-124741664D01*
X53820395Y-124000000D01*
X54179605Y-124000000D01*
X54921269Y-124741664D01*
X55155037Y-124682203D01*
X55265934Y-124443758D01*
X55328183Y-124188260D01*
X55339390Y-123925527D01*
X55299125Y-123665656D01*
X55208935Y-123418634D01*
X55155037Y-123317797D01*
X54921269Y-123258336D01*
X54179605Y-124000000D01*
X53820395Y-124000000D01*
X53078731Y-123258336D01*
X52844963Y-123317797D01*
X52734066Y-123556242D01*
X52671817Y-123811740D01*
X52660610Y-124074473D01*
X48127000Y-124074473D01*
X48127000Y-123078731D01*
X53258336Y-123078731D01*
X54000000Y-123820395D01*
X54741664Y-123078731D01*
X54682203Y-122844963D01*
X54443758Y-122734066D01*
X54188260Y-122671817D01*
X53925527Y-122660610D01*
X53665656Y-122700875D01*
X53418634Y-122791065D01*
X53317797Y-122844963D01*
X53258336Y-123078731D01*
X48127000Y-123078731D01*
X48127000Y-119921269D01*
X53258336Y-119921269D01*
X53317797Y-120155037D01*
X53556242Y-120265934D01*
X53811740Y-120328183D01*
X54074473Y-120339390D01*
X54334344Y-120299125D01*
X54581366Y-120208935D01*
X54682203Y-120155037D01*
X54741664Y-119921269D01*
X54000000Y-119179605D01*
X53258336Y-119921269D01*
X48127000Y-119921269D01*
X48127000Y-119074473D01*
X52660610Y-119074473D01*
X52700875Y-119334344D01*
X52791065Y-119581366D01*
X52844963Y-119682203D01*
X53078731Y-119741664D01*
X53820395Y-119000000D01*
X54179605Y-119000000D01*
X54921269Y-119741664D01*
X55155037Y-119682203D01*
X55265934Y-119443758D01*
X55328183Y-119188260D01*
X55339390Y-118925527D01*
X55299125Y-118665656D01*
X55208935Y-118418634D01*
X55155037Y-118317797D01*
X54921269Y-118258336D01*
X54179605Y-119000000D01*
X53820395Y-119000000D01*
X53078731Y-118258336D01*
X52844963Y-118317797D01*
X52734066Y-118556242D01*
X52671817Y-118811740D01*
X52660610Y-119074473D01*
X48127000Y-119074473D01*
X48127000Y-118078731D01*
X53258336Y-118078731D01*
X54000000Y-118820395D01*
X54741664Y-118078731D01*
X54682203Y-117844963D01*
X54443758Y-117734066D01*
X54188260Y-117671817D01*
X53925527Y-117660610D01*
X53665656Y-117700875D01*
X53418634Y-117791065D01*
X53317797Y-117844963D01*
X53258336Y-118078731D01*
X48127000Y-118078731D01*
X48127000Y-94125000D01*
X54486928Y-94125000D01*
X54486928Y-95875000D01*
X54499188Y-95999482D01*
X54535498Y-96119180D01*
X54594463Y-96229494D01*
X54673815Y-96326185D01*
X54770506Y-96405537D01*
X54880820Y-96464502D01*
X54895564Y-96468974D01*
X54827107Y-96537431D01*
X54661856Y-96784747D01*
X54548029Y-97059549D01*
X54490000Y-97351278D01*
X54490000Y-97648722D01*
X54548029Y-97940451D01*
X54661856Y-98215253D01*
X54827107Y-98462569D01*
X55037431Y-98672893D01*
X55152830Y-98750000D01*
X55037431Y-98827107D01*
X54827107Y-99037431D01*
X54661856Y-99284747D01*
X54548029Y-99559549D01*
X54490000Y-99851278D01*
X54490000Y-100148722D01*
X54548029Y-100440451D01*
X54661856Y-100715253D01*
X54827107Y-100962569D01*
X55037431Y-101172893D01*
X55152830Y-101250000D01*
X55037431Y-101327107D01*
X54827107Y-101537431D01*
X54661856Y-101784747D01*
X54548029Y-102059549D01*
X54490000Y-102351278D01*
X54490000Y-102648722D01*
X54548029Y-102940451D01*
X54661856Y-103215253D01*
X54827107Y-103462569D01*
X55037431Y-103672893D01*
X55284747Y-103838144D01*
X55559549Y-103951971D01*
X55851278Y-104010000D01*
X56148722Y-104010000D01*
X56440451Y-103951971D01*
X56715253Y-103838144D01*
X56962569Y-103672893D01*
X57172893Y-103462569D01*
X57338144Y-103215253D01*
X57451971Y-102940451D01*
X57510000Y-102648722D01*
X57510000Y-102587630D01*
X60858000Y-105935631D01*
X60858001Y-117903561D01*
X60768987Y-117963038D01*
X60583038Y-118148987D01*
X60436939Y-118367641D01*
X60336304Y-118610595D01*
X60285000Y-118868514D01*
X60285000Y-119131486D01*
X60336304Y-119389405D01*
X60436939Y-119632359D01*
X60583038Y-119851013D01*
X60768987Y-120036962D01*
X60987641Y-120183061D01*
X61230595Y-120283696D01*
X61488514Y-120335000D01*
X61751486Y-120335000D01*
X61907501Y-120303966D01*
X61907501Y-121607568D01*
X61107649Y-122407421D01*
X61078579Y-122431278D01*
X61054722Y-122460348D01*
X61054721Y-122460349D01*
X60983355Y-122547308D01*
X60912599Y-122679685D01*
X60869027Y-122823322D01*
X60861344Y-122901328D01*
X60768987Y-122963038D01*
X60583038Y-123148987D01*
X60436939Y-123367641D01*
X60336304Y-123610595D01*
X60285000Y-123868514D01*
X60285000Y-124131486D01*
X60336304Y-124389405D01*
X60436939Y-124632359D01*
X60583038Y-124851013D01*
X60768987Y-125036962D01*
X60987641Y-125183061D01*
X61230595Y-125283696D01*
X61488514Y-125335000D01*
X61751486Y-125335000D01*
X62009405Y-125283696D01*
X62252359Y-125183061D01*
X62471013Y-125036962D01*
X62656962Y-124851013D01*
X62803061Y-124632359D01*
X62903696Y-124389405D01*
X62955000Y-124131486D01*
X62955000Y-123868514D01*
X62903696Y-123610595D01*
X62803061Y-123367641D01*
X62656962Y-123148987D01*
X62589153Y-123081178D01*
X63181851Y-122488479D01*
X63210922Y-122464622D01*
X63306145Y-122348592D01*
X63376902Y-122216215D01*
X63420474Y-122072578D01*
X63431500Y-121960626D01*
X63431500Y-121960624D01*
X63435186Y-121923201D01*
X63431500Y-121885778D01*
X63431500Y-102458322D01*
X63435186Y-102420899D01*
X63430429Y-102372598D01*
X63420474Y-102271522D01*
X63376902Y-102127885D01*
X63306145Y-101995508D01*
X63210922Y-101879478D01*
X63181853Y-101855622D01*
X57457852Y-96131622D01*
X57464502Y-96119180D01*
X57500812Y-95999482D01*
X57513072Y-95875000D01*
X57513072Y-94125000D01*
X57500812Y-94000518D01*
X57464502Y-93880820D01*
X57405537Y-93770506D01*
X57326185Y-93673815D01*
X57229494Y-93594463D01*
X57119180Y-93535498D01*
X56999482Y-93499188D01*
X56875000Y-93486928D01*
X55125000Y-93486928D01*
X55000518Y-93499188D01*
X54880820Y-93535498D01*
X54770506Y-93594463D01*
X54673815Y-93673815D01*
X54594463Y-93770506D01*
X54535498Y-93880820D01*
X54499188Y-94000518D01*
X54486928Y-94125000D01*
X48127000Y-94125000D01*
X48127000Y-37127000D01*
X66876298Y-37127000D01*
X67366061Y-55738000D01*
G37*
%TD.AperFunction*%
%TD*%
M02*
