%TF.GenerationSoftware,KiCad,Pcbnew,(5.1.10)-1*%
%TF.CreationDate,2021-10-21T23:45:09+02:00*%
%TF.ProjectId,Program Counter,50726f67-7261-46d2-9043-6f756e746572,rev1.0*%
%TF.SameCoordinates,Original*%
%TF.FileFunction,Soldermask,Bot*%
%TF.FilePolarity,Negative*%
%FSLAX46Y46*%
G04 Gerber Fmt 4.6, Leading zero omitted, Abs format (unit mm)*
G04 Created by KiCad (PCBNEW (5.1.10)-1) date 2021-10-21 23:45:09*
%MOMM*%
%LPD*%
G01*
G04 APERTURE LIST*
%ADD10C,7.000000*%
%ADD11C,0.800000*%
%ADD12C,1.600000*%
%ADD13O,1.600000X1.600000*%
%ADD14R,1.600000X1.600000*%
%ADD15C,1.400000*%
%ADD16O,1.400000X1.400000*%
%ADD17C,2.340000*%
%ADD18R,3.000000X2.350000*%
%ADD19O,3.000000X2.350000*%
%ADD20C,4.064000*%
%ADD21R,1.750000X1.750000*%
%ADD22C,1.750000*%
G04 APERTURE END LIST*
D10*
%TO.C,H8*%
X56000000Y-152000000D03*
D11*
X58625000Y-152000000D03*
X57856155Y-153856155D03*
X56000000Y-154625000D03*
X54143845Y-153856155D03*
X53375000Y-152000000D03*
X54143845Y-150143845D03*
X56000000Y-149375000D03*
X57856155Y-150143845D03*
%TD*%
D10*
%TO.C,H7*%
X224000000Y-25000000D03*
D11*
X226625000Y-25000000D03*
X225856155Y-26856155D03*
X224000000Y-27625000D03*
X222143845Y-26856155D03*
X221375000Y-25000000D03*
X222143845Y-23143845D03*
X224000000Y-22375000D03*
X225856155Y-23143845D03*
%TD*%
D10*
%TO.C,H6*%
X56000000Y-25000000D03*
D11*
X58625000Y-25000000D03*
X57856155Y-26856155D03*
X56000000Y-27625000D03*
X54143845Y-26856155D03*
X53375000Y-25000000D03*
X54143845Y-23143845D03*
X56000000Y-22375000D03*
X57856155Y-23143845D03*
%TD*%
D10*
%TO.C,H5*%
X225000000Y-152000000D03*
D11*
X227625000Y-152000000D03*
X226856155Y-153856155D03*
X225000000Y-154625000D03*
X223143845Y-153856155D03*
X222375000Y-152000000D03*
X223143845Y-150143845D03*
X225000000Y-149375000D03*
X226856155Y-150143845D03*
%TD*%
D10*
%TO.C,H4*%
X234000000Y-25000000D03*
D11*
X236625000Y-25000000D03*
X235856155Y-26856155D03*
X234000000Y-27625000D03*
X232143845Y-26856155D03*
X231375000Y-25000000D03*
X232143845Y-23143845D03*
X234000000Y-22375000D03*
X235856155Y-23143845D03*
%TD*%
D10*
%TO.C,H3*%
X234000000Y-152000000D03*
D11*
X236625000Y-152000000D03*
X235856155Y-153856155D03*
X234000000Y-154625000D03*
X232143845Y-153856155D03*
X231375000Y-152000000D03*
X232143845Y-150143845D03*
X234000000Y-149375000D03*
X235856155Y-150143845D03*
%TD*%
D10*
%TO.C,H2*%
X46000000Y-152000000D03*
D11*
X48625000Y-152000000D03*
X47856155Y-153856155D03*
X46000000Y-154625000D03*
X44143845Y-153856155D03*
X43375000Y-152000000D03*
X44143845Y-150143845D03*
X46000000Y-149375000D03*
X47856155Y-150143845D03*
%TD*%
D10*
%TO.C,H1*%
X46000000Y-25000000D03*
D11*
X48625000Y-25000000D03*
X47856155Y-26856155D03*
X46000000Y-27625000D03*
X44143845Y-26856155D03*
X43375000Y-25000000D03*
X44143845Y-23143845D03*
X46000000Y-22375000D03*
X47856155Y-23143845D03*
%TD*%
D12*
%TO.C,C13*%
X152000000Y-87000000D03*
D13*
X159500000Y-87000000D03*
%TD*%
D12*
%TO.C,C12*%
X151500000Y-61000000D03*
D13*
X159000000Y-61000000D03*
%TD*%
D12*
%TO.C,C11*%
X101000000Y-145000000D03*
D13*
X93500000Y-145000000D03*
%TD*%
D12*
%TO.C,C10*%
X94000000Y-92000000D03*
D13*
X101500000Y-92000000D03*
%TD*%
D12*
%TO.C,C9*%
X94000000Y-81000000D03*
D13*
X101500000Y-81000000D03*
%TD*%
D12*
%TO.C,C8*%
X94000000Y-29000000D03*
D13*
X101500000Y-29000000D03*
%TD*%
D12*
%TO.C,C7*%
X202000000Y-131000000D03*
D13*
X202000000Y-123500000D03*
%TD*%
D12*
%TO.C,C6*%
X203000000Y-96000000D03*
D13*
X203000000Y-88500000D03*
%TD*%
D12*
%TO.C,C5*%
X202000000Y-66000000D03*
D13*
X202000000Y-58500000D03*
%TD*%
D12*
%TO.C,C4*%
X203000000Y-39000000D03*
D13*
X203000000Y-31500000D03*
%TD*%
D12*
%TO.C,C3*%
X171000000Y-143000000D03*
D13*
X178500000Y-143000000D03*
%TD*%
D12*
%TO.C,C2*%
X125000000Y-120000000D03*
D13*
X132500000Y-120000000D03*
%TD*%
D12*
%TO.C,C1*%
X125000000Y-66040000D03*
D13*
X132500000Y-66040000D03*
%TD*%
D14*
%TO.C,REG8.2*%
X125000000Y-88000000D03*
D13*
X132620000Y-115940000D03*
X125000000Y-90540000D03*
X132620000Y-113400000D03*
X125000000Y-93080000D03*
X132620000Y-110860000D03*
X125000000Y-95620000D03*
X132620000Y-108320000D03*
X125000000Y-98160000D03*
X132620000Y-105780000D03*
X125000000Y-100700000D03*
X132620000Y-103240000D03*
X125000000Y-103240000D03*
X132620000Y-100700000D03*
X125000000Y-105780000D03*
X132620000Y-98160000D03*
X125000000Y-108320000D03*
X132620000Y-95620000D03*
X125000000Y-110860000D03*
X132620000Y-93080000D03*
X125000000Y-113400000D03*
X132620000Y-90540000D03*
X125000000Y-115940000D03*
X132620000Y-88000000D03*
%TD*%
D14*
%TO.C,REG8.1*%
X125000000Y-33000000D03*
D13*
X132620000Y-60940000D03*
X125000000Y-35540000D03*
X132620000Y-58400000D03*
X125000000Y-38080000D03*
X132620000Y-55860000D03*
X125000000Y-40620000D03*
X132620000Y-53320000D03*
X125000000Y-43160000D03*
X132620000Y-50780000D03*
X125000000Y-45700000D03*
X132620000Y-48240000D03*
X125000000Y-48240000D03*
X132620000Y-45700000D03*
X125000000Y-50780000D03*
X132620000Y-43160000D03*
X125000000Y-53320000D03*
X132620000Y-40620000D03*
X125000000Y-55860000D03*
X132620000Y-38080000D03*
X125000000Y-58400000D03*
X132620000Y-35540000D03*
X125000000Y-60940000D03*
X132620000Y-33000000D03*
%TD*%
D15*
%TO.C,R14*%
X54000000Y-124000000D03*
D16*
X61620000Y-124000000D03*
%TD*%
D15*
%TO.C,R10*%
X131000000Y-137000000D03*
D16*
X123380000Y-137000000D03*
%TD*%
D15*
%TO.C,R6*%
X131000000Y-132000000D03*
D16*
X123380000Y-132000000D03*
%TD*%
D15*
%TO.C,R5*%
X54000000Y-119000000D03*
D16*
X61620000Y-119000000D03*
%TD*%
D15*
%TO.C,R4*%
X54000000Y-129000000D03*
D16*
X61620000Y-129000000D03*
%TD*%
D17*
%TO.C,POT1*%
X160000000Y-143000000D03*
X155000000Y-138000000D03*
X150000000Y-143000000D03*
%TD*%
D14*
%TO.C,MUXB2*%
X152000000Y-91000000D03*
D13*
X159620000Y-108780000D03*
X152000000Y-93540000D03*
X159620000Y-106240000D03*
X152000000Y-96080000D03*
X159620000Y-103700000D03*
X152000000Y-98620000D03*
X159620000Y-101160000D03*
X152000000Y-101160000D03*
X159620000Y-98620000D03*
X152000000Y-103700000D03*
X159620000Y-96080000D03*
X152000000Y-106240000D03*
X159620000Y-93540000D03*
X152000000Y-108780000D03*
X159620000Y-91000000D03*
%TD*%
D14*
%TO.C,MUXB1*%
X159000000Y-55000000D03*
D13*
X151380000Y-37220000D03*
X159000000Y-52460000D03*
X151380000Y-39760000D03*
X159000000Y-49920000D03*
X151380000Y-42300000D03*
X159000000Y-47380000D03*
X151380000Y-44840000D03*
X159000000Y-44840000D03*
X151380000Y-47380000D03*
X159000000Y-42300000D03*
X151380000Y-49920000D03*
X159000000Y-39760000D03*
X151380000Y-52460000D03*
X159000000Y-37220000D03*
X151380000Y-55000000D03*
%TD*%
D14*
%TO.C,MUXA4*%
X94000000Y-123000000D03*
D13*
X101620000Y-140780000D03*
X94000000Y-125540000D03*
X101620000Y-138240000D03*
X94000000Y-128080000D03*
X101620000Y-135700000D03*
X94000000Y-130620000D03*
X101620000Y-133160000D03*
X94000000Y-133160000D03*
X101620000Y-130620000D03*
X94000000Y-135700000D03*
X101620000Y-128080000D03*
X94000000Y-138240000D03*
X101620000Y-125540000D03*
X94000000Y-140780000D03*
X101620000Y-123000000D03*
%TD*%
D14*
%TO.C,MUXA3*%
X94000000Y-98000000D03*
D13*
X101620000Y-115780000D03*
X94000000Y-100540000D03*
X101620000Y-113240000D03*
X94000000Y-103080000D03*
X101620000Y-110700000D03*
X94000000Y-105620000D03*
X101620000Y-108160000D03*
X94000000Y-108160000D03*
X101620000Y-105620000D03*
X94000000Y-110700000D03*
X101620000Y-103080000D03*
X94000000Y-113240000D03*
X101620000Y-100540000D03*
X94000000Y-115780000D03*
X101620000Y-98000000D03*
%TD*%
D14*
%TO.C,MUXA2*%
X94000000Y-58000000D03*
D13*
X101620000Y-75780000D03*
X94000000Y-60540000D03*
X101620000Y-73240000D03*
X94000000Y-63080000D03*
X101620000Y-70700000D03*
X94000000Y-65620000D03*
X101620000Y-68160000D03*
X94000000Y-68160000D03*
X101620000Y-65620000D03*
X94000000Y-70700000D03*
X101620000Y-63080000D03*
X94000000Y-73240000D03*
X101620000Y-60540000D03*
X94000000Y-75780000D03*
X101620000Y-58000000D03*
%TD*%
D14*
%TO.C,MUXA1*%
X94000000Y-34000000D03*
D13*
X101620000Y-51780000D03*
X94000000Y-36540000D03*
X101620000Y-49240000D03*
X94000000Y-39080000D03*
X101620000Y-46700000D03*
X94000000Y-41620000D03*
X101620000Y-44160000D03*
X94000000Y-44160000D03*
X101620000Y-41620000D03*
X94000000Y-46700000D03*
X101620000Y-39080000D03*
X94000000Y-49240000D03*
X101620000Y-36540000D03*
X94000000Y-51780000D03*
X101620000Y-34000000D03*
%TD*%
D18*
%TO.C,J5*%
X229000000Y-123000000D03*
D19*
X229000000Y-128000000D03*
%TD*%
D20*
%TO.C,J4*%
X226000000Y-112000000D03*
%TD*%
D21*
%TO.C,J3*%
X56000000Y-95000000D03*
D22*
X56000000Y-97500000D03*
X56000000Y-100000000D03*
X56000000Y-102500000D03*
%TD*%
D21*
%TO.C,J2*%
X56000000Y-44000000D03*
D22*
X56000000Y-46500000D03*
X56000000Y-49000000D03*
X56000000Y-51500000D03*
X56000000Y-54000000D03*
X56000000Y-56500000D03*
X56000000Y-59000000D03*
X56000000Y-61500000D03*
X56000000Y-64000000D03*
X56000000Y-66500000D03*
X56000000Y-69000000D03*
X56000000Y-71500000D03*
X56000000Y-74000000D03*
X56000000Y-76500000D03*
X56000000Y-79000000D03*
X56000000Y-81500000D03*
%TD*%
D21*
%TO.C,J1*%
X227000000Y-52000000D03*
D22*
X227000000Y-54500000D03*
X227000000Y-57000000D03*
X227000000Y-59500000D03*
X227000000Y-62000000D03*
X227000000Y-64500000D03*
X227000000Y-67000000D03*
X227000000Y-69500000D03*
X227000000Y-72000000D03*
X227000000Y-74500000D03*
X227000000Y-77000000D03*
X227000000Y-79500000D03*
X227000000Y-82000000D03*
X227000000Y-84500000D03*
X227000000Y-87000000D03*
X227000000Y-89500000D03*
%TD*%
D14*
%TO.C,C_BOARD1*%
X228000000Y-136000000D03*
D12*
X228000000Y-138500000D03*
%TD*%
D14*
%TO.C,ADD4.2*%
X179000000Y-66000000D03*
D13*
X196780000Y-58380000D03*
X181540000Y-66000000D03*
X194240000Y-58380000D03*
X184080000Y-66000000D03*
X191700000Y-58380000D03*
X186620000Y-66000000D03*
X189160000Y-58380000D03*
X189160000Y-66000000D03*
X186620000Y-58380000D03*
X191700000Y-66000000D03*
X184080000Y-58380000D03*
X194240000Y-66000000D03*
X181540000Y-58380000D03*
X196780000Y-66000000D03*
X179000000Y-58380000D03*
%TD*%
D14*
%TO.C,ADD4.1*%
X180000000Y-39000000D03*
D13*
X197780000Y-31380000D03*
X182540000Y-39000000D03*
X195240000Y-31380000D03*
X185080000Y-39000000D03*
X192700000Y-31380000D03*
X187620000Y-39000000D03*
X190160000Y-31380000D03*
X190160000Y-39000000D03*
X187620000Y-31380000D03*
X192700000Y-39000000D03*
X185080000Y-31380000D03*
X195240000Y-39000000D03*
X182540000Y-31380000D03*
X197780000Y-39000000D03*
X180000000Y-31380000D03*
%TD*%
D14*
%TO.C,ADD4.3*%
X179000000Y-96000000D03*
D13*
X196780000Y-88380000D03*
X181540000Y-96000000D03*
X194240000Y-88380000D03*
X184080000Y-96000000D03*
X191700000Y-88380000D03*
X186620000Y-96000000D03*
X189160000Y-88380000D03*
X189160000Y-96000000D03*
X186620000Y-88380000D03*
X191700000Y-96000000D03*
X184080000Y-88380000D03*
X194240000Y-96000000D03*
X181540000Y-88380000D03*
X196780000Y-96000000D03*
X179000000Y-88380000D03*
%TD*%
D14*
%TO.C,ADD4.4*%
X179000000Y-131000000D03*
D13*
X196780000Y-123380000D03*
X181540000Y-131000000D03*
X194240000Y-123380000D03*
X184080000Y-131000000D03*
X191700000Y-123380000D03*
X186620000Y-131000000D03*
X189160000Y-123380000D03*
X189160000Y-131000000D03*
X186620000Y-123380000D03*
X191700000Y-131000000D03*
X184080000Y-123380000D03*
X194240000Y-131000000D03*
X181540000Y-123380000D03*
X196780000Y-131000000D03*
X179000000Y-123380000D03*
%TD*%
M02*
