%TF.GenerationSoftware,KiCad,Pcbnew,(5.1.10)-1*%
%TF.CreationDate,2021-10-21T23:45:09+02:00*%
%TF.ProjectId,Program Counter,50726f67-7261-46d2-9043-6f756e746572,rev1.0*%
%TF.SameCoordinates,Original*%
%TF.FileFunction,Other,User*%
%FSLAX46Y46*%
G04 Gerber Fmt 4.6, Leading zero omitted, Abs format (unit mm)*
G04 Created by KiCad (PCBNEW (5.1.10)-1) date 2021-10-21 23:45:09*
%MOMM*%
%LPD*%
G01*
G04 APERTURE LIST*
%ADD10C,0.050000*%
G04 APERTURE END LIST*
D10*
%TO.C,H8*%
X59750000Y-152000000D02*
G75*
G03*
X59750000Y-152000000I-3750000J0D01*
G01*
%TO.C,H7*%
X227750000Y-25000000D02*
G75*
G03*
X227750000Y-25000000I-3750000J0D01*
G01*
%TO.C,H6*%
X59750000Y-25000000D02*
G75*
G03*
X59750000Y-25000000I-3750000J0D01*
G01*
%TO.C,H5*%
X228750000Y-152000000D02*
G75*
G03*
X228750000Y-152000000I-3750000J0D01*
G01*
%TO.C,H4*%
X237750000Y-25000000D02*
G75*
G03*
X237750000Y-25000000I-3750000J0D01*
G01*
%TO.C,H3*%
X237750000Y-152000000D02*
G75*
G03*
X237750000Y-152000000I-3750000J0D01*
G01*
%TO.C,H2*%
X49750000Y-152000000D02*
G75*
G03*
X49750000Y-152000000I-3750000J0D01*
G01*
%TO.C,H1*%
X49750000Y-25000000D02*
G75*
G03*
X49750000Y-25000000I-3750000J0D01*
G01*
%TO.C,C13*%
X150950000Y-85100000D02*
X150950000Y-88900000D01*
X150950000Y-88900000D02*
X160550000Y-88900000D01*
X160550000Y-88900000D02*
X160550000Y-85100000D01*
X160550000Y-85100000D02*
X150950000Y-85100000D01*
%TO.C,C12*%
X150450000Y-59100000D02*
X150450000Y-62900000D01*
X150450000Y-62900000D02*
X160050000Y-62900000D01*
X160050000Y-62900000D02*
X160050000Y-59100000D01*
X160050000Y-59100000D02*
X150450000Y-59100000D01*
%TO.C,C11*%
X102050000Y-146900000D02*
X102050000Y-143100000D01*
X102050000Y-143100000D02*
X92450000Y-143100000D01*
X92450000Y-143100000D02*
X92450000Y-146900000D01*
X92450000Y-146900000D02*
X102050000Y-146900000D01*
%TO.C,C10*%
X92950000Y-90100000D02*
X92950000Y-93900000D01*
X92950000Y-93900000D02*
X102550000Y-93900000D01*
X102550000Y-93900000D02*
X102550000Y-90100000D01*
X102550000Y-90100000D02*
X92950000Y-90100000D01*
%TO.C,C9*%
X92950000Y-79100000D02*
X92950000Y-82900000D01*
X92950000Y-82900000D02*
X102550000Y-82900000D01*
X102550000Y-82900000D02*
X102550000Y-79100000D01*
X102550000Y-79100000D02*
X92950000Y-79100000D01*
%TO.C,C8*%
X92950000Y-27100000D02*
X92950000Y-30900000D01*
X92950000Y-30900000D02*
X102550000Y-30900000D01*
X102550000Y-30900000D02*
X102550000Y-27100000D01*
X102550000Y-27100000D02*
X92950000Y-27100000D01*
%TO.C,C7*%
X200100000Y-132050000D02*
X203900000Y-132050000D01*
X203900000Y-132050000D02*
X203900000Y-122450000D01*
X203900000Y-122450000D02*
X200100000Y-122450000D01*
X200100000Y-122450000D02*
X200100000Y-132050000D01*
%TO.C,C6*%
X201100000Y-97050000D02*
X204900000Y-97050000D01*
X204900000Y-97050000D02*
X204900000Y-87450000D01*
X204900000Y-87450000D02*
X201100000Y-87450000D01*
X201100000Y-87450000D02*
X201100000Y-97050000D01*
%TO.C,C5*%
X200100000Y-67050000D02*
X203900000Y-67050000D01*
X203900000Y-67050000D02*
X203900000Y-57450000D01*
X203900000Y-57450000D02*
X200100000Y-57450000D01*
X200100000Y-57450000D02*
X200100000Y-67050000D01*
%TO.C,C4*%
X201100000Y-40050000D02*
X204900000Y-40050000D01*
X204900000Y-40050000D02*
X204900000Y-30450000D01*
X204900000Y-30450000D02*
X201100000Y-30450000D01*
X201100000Y-30450000D02*
X201100000Y-40050000D01*
%TO.C,C3*%
X169950000Y-141100000D02*
X169950000Y-144900000D01*
X169950000Y-144900000D02*
X179550000Y-144900000D01*
X179550000Y-144900000D02*
X179550000Y-141100000D01*
X179550000Y-141100000D02*
X169950000Y-141100000D01*
%TO.C,C2*%
X123950000Y-118100000D02*
X123950000Y-121900000D01*
X123950000Y-121900000D02*
X133550000Y-121900000D01*
X133550000Y-121900000D02*
X133550000Y-118100000D01*
X133550000Y-118100000D02*
X123950000Y-118100000D01*
%TO.C,C1*%
X123950000Y-64140000D02*
X123950000Y-67940000D01*
X123950000Y-67940000D02*
X133550000Y-67940000D01*
X133550000Y-67940000D02*
X133550000Y-64140000D01*
X133550000Y-64140000D02*
X123950000Y-64140000D01*
%TO.C,REG8.2*%
X123900000Y-86450000D02*
X123900000Y-117500000D01*
X123900000Y-117500000D02*
X133700000Y-117500000D01*
X133700000Y-117500000D02*
X133700000Y-86450000D01*
X133700000Y-86450000D02*
X123900000Y-86450000D01*
%TO.C,REG8.1*%
X123900000Y-31450000D02*
X123900000Y-62500000D01*
X123900000Y-62500000D02*
X133700000Y-62500000D01*
X133700000Y-62500000D02*
X133700000Y-31450000D01*
X133700000Y-31450000D02*
X123900000Y-31450000D01*
%TO.C,R14*%
X53050000Y-122850000D02*
X53050000Y-125150000D01*
X53050000Y-125150000D02*
X62600000Y-125150000D01*
X62600000Y-125150000D02*
X62600000Y-122850000D01*
X62600000Y-122850000D02*
X53050000Y-122850000D01*
%TO.C,R10*%
X131950000Y-138150000D02*
X131950000Y-135850000D01*
X131950000Y-135850000D02*
X122400000Y-135850000D01*
X122400000Y-135850000D02*
X122400000Y-138150000D01*
X122400000Y-138150000D02*
X131950000Y-138150000D01*
%TO.C,R6*%
X131950000Y-133150000D02*
X131950000Y-130850000D01*
X131950000Y-130850000D02*
X122400000Y-130850000D01*
X122400000Y-130850000D02*
X122400000Y-133150000D01*
X122400000Y-133150000D02*
X131950000Y-133150000D01*
%TO.C,R5*%
X53050000Y-117850000D02*
X53050000Y-120150000D01*
X53050000Y-120150000D02*
X62600000Y-120150000D01*
X62600000Y-120150000D02*
X62600000Y-117850000D01*
X62600000Y-117850000D02*
X53050000Y-117850000D01*
%TO.C,R4*%
X53050000Y-127850000D02*
X53050000Y-130150000D01*
X53050000Y-130150000D02*
X62600000Y-130150000D01*
X62600000Y-130150000D02*
X62600000Y-127850000D01*
X62600000Y-127850000D02*
X53050000Y-127850000D01*
%TO.C,POT1*%
X147750000Y-144450000D02*
X162250000Y-144450000D01*
X162250000Y-144450000D02*
X162250000Y-136550000D01*
X162250000Y-136550000D02*
X147750000Y-136550000D01*
X147750000Y-136550000D02*
X147750000Y-144450000D01*
%TO.C,MUXB2*%
X150900000Y-89450000D02*
X150900000Y-110300000D01*
X150900000Y-110300000D02*
X160700000Y-110300000D01*
X160700000Y-110300000D02*
X160700000Y-89450000D01*
X160700000Y-89450000D02*
X150900000Y-89450000D01*
%TO.C,MUXB1*%
X160100000Y-56550000D02*
X160100000Y-35700000D01*
X160100000Y-35700000D02*
X150300000Y-35700000D01*
X150300000Y-35700000D02*
X150300000Y-56550000D01*
X150300000Y-56550000D02*
X160100000Y-56550000D01*
%TO.C,MUXA4*%
X92900000Y-121450000D02*
X92900000Y-142300000D01*
X92900000Y-142300000D02*
X102700000Y-142300000D01*
X102700000Y-142300000D02*
X102700000Y-121450000D01*
X102700000Y-121450000D02*
X92900000Y-121450000D01*
%TO.C,MUXA3*%
X92900000Y-96450000D02*
X92900000Y-117300000D01*
X92900000Y-117300000D02*
X102700000Y-117300000D01*
X102700000Y-117300000D02*
X102700000Y-96450000D01*
X102700000Y-96450000D02*
X92900000Y-96450000D01*
%TO.C,MUXA2*%
X92900000Y-56450000D02*
X92900000Y-77300000D01*
X92900000Y-77300000D02*
X102700000Y-77300000D01*
X102700000Y-77300000D02*
X102700000Y-56450000D01*
X102700000Y-56450000D02*
X92900000Y-56450000D01*
%TO.C,MUXA1*%
X92900000Y-32450000D02*
X92900000Y-53300000D01*
X92900000Y-53300000D02*
X102700000Y-53300000D01*
X102700000Y-53300000D02*
X102700000Y-32450000D01*
X102700000Y-32450000D02*
X92900000Y-32450000D01*
%TO.C,J5*%
X233200000Y-120000000D02*
X223700000Y-120000000D01*
X223700000Y-120000000D02*
X223700000Y-131000000D01*
X223700000Y-131000000D02*
X233200000Y-131000000D01*
X233200000Y-131000000D02*
X233200000Y-120000000D01*
%TO.C,J4*%
X228600000Y-112000000D02*
G75*
G03*
X228600000Y-112000000I-2600000J0D01*
G01*
%TO.C,J3*%
X58850000Y-92050000D02*
X52100000Y-92050000D01*
X52100000Y-92050000D02*
X52100000Y-105450000D01*
X52100000Y-105450000D02*
X58850000Y-105450000D01*
X58850000Y-105450000D02*
X58850000Y-92050000D01*
%TO.C,J2*%
X58850000Y-41050000D02*
X52100000Y-41050000D01*
X52100000Y-41050000D02*
X52100000Y-84450000D01*
X52100000Y-84450000D02*
X58850000Y-84450000D01*
X58850000Y-84450000D02*
X58850000Y-41050000D01*
%TO.C,J1*%
X229850000Y-49050000D02*
X223100000Y-49050000D01*
X223100000Y-49050000D02*
X223100000Y-92450000D01*
X223100000Y-92450000D02*
X229850000Y-92450000D01*
X229850000Y-92450000D02*
X229850000Y-49050000D01*
%TO.C,C_BOARD1*%
X232350000Y-132900000D02*
X223650000Y-132900000D01*
X223650000Y-132900000D02*
X223650000Y-141600000D01*
X223650000Y-141600000D02*
X232350000Y-141600000D01*
X232350000Y-141600000D02*
X232350000Y-132900000D01*
%TO.C,ADD4.2*%
X177450000Y-67100000D02*
X198300000Y-67100000D01*
X198300000Y-67100000D02*
X198300000Y-57300000D01*
X198300000Y-57300000D02*
X177450000Y-57300000D01*
X177450000Y-57300000D02*
X177450000Y-67100000D01*
%TO.C,ADD4.1*%
X178450000Y-40100000D02*
X199300000Y-40100000D01*
X199300000Y-40100000D02*
X199300000Y-30300000D01*
X199300000Y-30300000D02*
X178450000Y-30300000D01*
X178450000Y-30300000D02*
X178450000Y-40100000D01*
%TO.C,ADD4.3*%
X177450000Y-97100000D02*
X198300000Y-97100000D01*
X198300000Y-97100000D02*
X198300000Y-87300000D01*
X198300000Y-87300000D02*
X177450000Y-87300000D01*
X177450000Y-87300000D02*
X177450000Y-97100000D01*
%TO.C,ADD4.4*%
X177450000Y-132100000D02*
X198300000Y-132100000D01*
X198300000Y-132100000D02*
X198300000Y-122300000D01*
X198300000Y-122300000D02*
X177450000Y-122300000D01*
X177450000Y-122300000D02*
X177450000Y-132100000D01*
%TD*%
M02*
