%TF.GenerationSoftware,KiCad,Pcbnew,(5.1.10)-1*%
%TF.CreationDate,2021-10-27T19:24:49+02:00*%
%TF.ProjectId,Program Counter,50726f67-7261-46d2-9043-6f756e746572,rev1.0*%
%TF.SameCoordinates,Original*%
%TF.FileFunction,Copper,L2,Bot*%
%TF.FilePolarity,Positive*%
%FSLAX46Y46*%
G04 Gerber Fmt 4.6, Leading zero omitted, Abs format (unit mm)*
G04 Created by KiCad (PCBNEW (5.1.10)-1) date 2021-10-27 19:24:49*
%MOMM*%
%LPD*%
G01*
G04 APERTURE LIST*
%TA.AperFunction,ComponentPad*%
%ADD10O,1.750000X1.200000*%
%TD*%
%TA.AperFunction,ComponentPad*%
%ADD11C,2.000000*%
%TD*%
%TA.AperFunction,ComponentPad*%
%ADD12C,1.500000*%
%TD*%
%TA.AperFunction,ComponentPad*%
%ADD13R,1.500000X1.500000*%
%TD*%
%TA.AperFunction,ComponentPad*%
%ADD14C,1.650000*%
%TD*%
%TA.AperFunction,ComponentPad*%
%ADD15R,1.650000X1.650000*%
%TD*%
%TA.AperFunction,ComponentPad*%
%ADD16C,7.000000*%
%TD*%
%TA.AperFunction,ComponentPad*%
%ADD17C,0.800000*%
%TD*%
%TA.AperFunction,ComponentPad*%
%ADD18C,1.600000*%
%TD*%
%TA.AperFunction,ComponentPad*%
%ADD19O,1.600000X1.600000*%
%TD*%
%TA.AperFunction,ComponentPad*%
%ADD20R,1.600000X1.600000*%
%TD*%
%TA.AperFunction,ComponentPad*%
%ADD21C,1.400000*%
%TD*%
%TA.AperFunction,ComponentPad*%
%ADD22O,1.400000X1.400000*%
%TD*%
%TA.AperFunction,ComponentPad*%
%ADD23C,2.340000*%
%TD*%
%TA.AperFunction,ComponentPad*%
%ADD24R,1.750000X1.750000*%
%TD*%
%TA.AperFunction,ComponentPad*%
%ADD25C,1.750000*%
%TD*%
%TA.AperFunction,ViaPad*%
%ADD26C,0.800000*%
%TD*%
%TA.AperFunction,Conductor*%
%ADD27C,0.254000*%
%TD*%
%TA.AperFunction,Conductor*%
%ADD28C,0.508000*%
%TD*%
%TA.AperFunction,Conductor*%
%ADD29C,0.100000*%
%TD*%
G04 APERTURE END LIST*
D10*
%TO.P,J5,2*%
%TO.N,+5V*%
X229000000Y-125000000D03*
%TO.P,J5,1*%
%TO.N,GNDREF*%
%TA.AperFunction,ComponentPad*%
G36*
G01*
X228374999Y-122400000D02*
X229625001Y-122400000D01*
G75*
G02*
X229875000Y-122649999I0J-249999D01*
G01*
X229875000Y-123350001D01*
G75*
G02*
X229625001Y-123600000I-249999J0D01*
G01*
X228374999Y-123600000D01*
G75*
G02*
X228125000Y-123350001I0J249999D01*
G01*
X228125000Y-122649999D01*
G75*
G02*
X228374999Y-122400000I249999J0D01*
G01*
G37*
%TD.AperFunction*%
%TD*%
D11*
%TO.P,J4,1*%
%TO.N,CLK*%
X226000000Y-112000000D03*
%TD*%
D12*
%TO.P,J6,6*%
%TO.N,Net-(J6-Pad6)*%
X204080000Y-142000000D03*
%TO.P,J6,5*%
%TO.N,Net-(J6-Pad5)*%
X201540000Y-142000000D03*
%TO.P,J6,4*%
%TO.N,JMP_ABS*%
X199000000Y-142000000D03*
%TO.P,J6,3*%
%TO.N,~STALL*%
X204080000Y-144540000D03*
%TO.P,J6,2*%
%TO.N,REL_SIGN*%
X201540000Y-144540000D03*
D13*
%TO.P,J6,1*%
%TO.N,JMP_IN*%
X199000000Y-144540000D03*
%TD*%
D14*
%TO.P,J2,16*%
%TO.N,/OFF15*%
X58540000Y-61780000D03*
%TO.P,J2,15*%
%TO.N,/OFF14*%
X56000000Y-61780000D03*
%TO.P,J2,14*%
%TO.N,/OFF13*%
X58540000Y-59240000D03*
%TO.P,J2,13*%
%TO.N,/OFF12*%
X56000000Y-59240000D03*
%TO.P,J2,12*%
%TO.N,/OFF11*%
X58540000Y-56700000D03*
%TO.P,J2,11*%
%TO.N,/OFF10*%
X56000000Y-56700000D03*
%TO.P,J2,10*%
%TO.N,/OFF9*%
X58540000Y-54160000D03*
%TO.P,J2,9*%
%TO.N,/OFF8*%
X56000000Y-54160000D03*
%TO.P,J2,8*%
%TO.N,/OFF7*%
X58540000Y-51620000D03*
%TO.P,J2,7*%
%TO.N,/OFF6*%
X56000000Y-51620000D03*
%TO.P,J2,6*%
%TO.N,/OFF5*%
X58540000Y-49080000D03*
%TO.P,J2,5*%
%TO.N,/OFF4*%
X56000000Y-49080000D03*
%TO.P,J2,4*%
%TO.N,/OFF3*%
X58540000Y-46540000D03*
%TO.P,J2,3*%
%TO.N,/OFF2*%
X56000000Y-46540000D03*
%TO.P,J2,2*%
%TO.N,/OFF1*%
X58540000Y-44000000D03*
D15*
%TO.P,J2,1*%
%TO.N,/OFF0*%
X56000000Y-44000000D03*
%TD*%
D14*
%TO.P,J1,16*%
%TO.N,/O15*%
X229540000Y-69780000D03*
%TO.P,J1,15*%
%TO.N,/O14*%
X227000000Y-69780000D03*
%TO.P,J1,14*%
%TO.N,/O13*%
X229540000Y-67240000D03*
%TO.P,J1,13*%
%TO.N,/O12*%
X227000000Y-67240000D03*
%TO.P,J1,12*%
%TO.N,/O11*%
X229540000Y-64700000D03*
%TO.P,J1,11*%
%TO.N,/O10*%
X227000000Y-64700000D03*
%TO.P,J1,10*%
%TO.N,/O9*%
X229540000Y-62160000D03*
%TO.P,J1,9*%
%TO.N,/O8*%
X227000000Y-62160000D03*
%TO.P,J1,8*%
%TO.N,/O7*%
X229540000Y-59620000D03*
%TO.P,J1,7*%
%TO.N,/O6*%
X227000000Y-59620000D03*
%TO.P,J1,6*%
%TO.N,/O5*%
X229540000Y-57080000D03*
%TO.P,J1,5*%
%TO.N,/O4*%
X227000000Y-57080000D03*
%TO.P,J1,4*%
%TO.N,/O3*%
X229540000Y-54540000D03*
%TO.P,J1,3*%
%TO.N,/O2*%
X227000000Y-54540000D03*
%TO.P,J1,2*%
%TO.N,/O1*%
X229540000Y-52000000D03*
D15*
%TO.P,J1,1*%
%TO.N,/O0*%
X227000000Y-52000000D03*
%TD*%
D16*
%TO.P,H8,1*%
%TO.N,GNDREF*%
X56000000Y-152000000D03*
D17*
X58625000Y-152000000D03*
X57856155Y-153856155D03*
X56000000Y-154625000D03*
X54143845Y-153856155D03*
X53375000Y-152000000D03*
X54143845Y-150143845D03*
X56000000Y-149375000D03*
X57856155Y-150143845D03*
%TD*%
D16*
%TO.P,H7,1*%
%TO.N,GNDREF*%
X224000000Y-25000000D03*
D17*
X226625000Y-25000000D03*
X225856155Y-26856155D03*
X224000000Y-27625000D03*
X222143845Y-26856155D03*
X221375000Y-25000000D03*
X222143845Y-23143845D03*
X224000000Y-22375000D03*
X225856155Y-23143845D03*
%TD*%
D16*
%TO.P,H6,1*%
%TO.N,+5V*%
X56000000Y-25000000D03*
D17*
X58625000Y-25000000D03*
X57856155Y-26856155D03*
X56000000Y-27625000D03*
X54143845Y-26856155D03*
X53375000Y-25000000D03*
X54143845Y-23143845D03*
X56000000Y-22375000D03*
X57856155Y-23143845D03*
%TD*%
D16*
%TO.P,H5,1*%
%TO.N,+5V*%
X225000000Y-152000000D03*
D17*
X227625000Y-152000000D03*
X226856155Y-153856155D03*
X225000000Y-154625000D03*
X223143845Y-153856155D03*
X222375000Y-152000000D03*
X223143845Y-150143845D03*
X225000000Y-149375000D03*
X226856155Y-150143845D03*
%TD*%
D16*
%TO.P,H4,1*%
%TO.N,N/C*%
X234000000Y-25000000D03*
D17*
X236625000Y-25000000D03*
X235856155Y-26856155D03*
X234000000Y-27625000D03*
X232143845Y-26856155D03*
X231375000Y-25000000D03*
X232143845Y-23143845D03*
X234000000Y-22375000D03*
X235856155Y-23143845D03*
%TD*%
D16*
%TO.P,H3,1*%
%TO.N,N/C*%
X234000000Y-152000000D03*
D17*
X236625000Y-152000000D03*
X235856155Y-153856155D03*
X234000000Y-154625000D03*
X232143845Y-153856155D03*
X231375000Y-152000000D03*
X232143845Y-150143845D03*
X234000000Y-149375000D03*
X235856155Y-150143845D03*
%TD*%
D16*
%TO.P,H2,1*%
%TO.N,N/C*%
X46000000Y-152000000D03*
D17*
X48625000Y-152000000D03*
X47856155Y-153856155D03*
X46000000Y-154625000D03*
X44143845Y-153856155D03*
X43375000Y-152000000D03*
X44143845Y-150143845D03*
X46000000Y-149375000D03*
X47856155Y-150143845D03*
%TD*%
D16*
%TO.P,H1,1*%
%TO.N,N/C*%
X46000000Y-25000000D03*
D17*
X48625000Y-25000000D03*
X47856155Y-26856155D03*
X46000000Y-27625000D03*
X44143845Y-26856155D03*
X43375000Y-25000000D03*
X44143845Y-23143845D03*
X46000000Y-22375000D03*
X47856155Y-23143845D03*
%TD*%
D18*
%TO.P,C13,1*%
%TO.N,GNDREF*%
X152000000Y-87000000D03*
D19*
%TO.P,C13,2*%
%TO.N,+5V*%
X159500000Y-87000000D03*
%TD*%
D18*
%TO.P,C12,1*%
%TO.N,GNDREF*%
X151500000Y-61000000D03*
D19*
%TO.P,C12,2*%
%TO.N,+5V*%
X159000000Y-61000000D03*
%TD*%
D18*
%TO.P,C11,1*%
%TO.N,GNDREF*%
X101000000Y-145000000D03*
D19*
%TO.P,C11,2*%
%TO.N,+5V*%
X93500000Y-145000000D03*
%TD*%
D18*
%TO.P,C10,1*%
%TO.N,GNDREF*%
X94000000Y-92000000D03*
D19*
%TO.P,C10,2*%
%TO.N,+5V*%
X101500000Y-92000000D03*
%TD*%
D18*
%TO.P,C9,1*%
%TO.N,GNDREF*%
X94000000Y-81000000D03*
D19*
%TO.P,C9,2*%
%TO.N,+5V*%
X101500000Y-81000000D03*
%TD*%
D18*
%TO.P,C8,1*%
%TO.N,GNDREF*%
X94000000Y-29000000D03*
D19*
%TO.P,C8,2*%
%TO.N,+5V*%
X101500000Y-29000000D03*
%TD*%
D18*
%TO.P,C7,1*%
%TO.N,+5V*%
X202000000Y-131000000D03*
D19*
%TO.P,C7,2*%
%TO.N,GNDREF*%
X202000000Y-123500000D03*
%TD*%
D18*
%TO.P,C6,1*%
%TO.N,+5V*%
X203000000Y-96000000D03*
D19*
%TO.P,C6,2*%
%TO.N,GNDREF*%
X203000000Y-88500000D03*
%TD*%
D18*
%TO.P,C5,1*%
%TO.N,+5V*%
X202000000Y-66000000D03*
D19*
%TO.P,C5,2*%
%TO.N,GNDREF*%
X202000000Y-58500000D03*
%TD*%
D18*
%TO.P,C4,1*%
%TO.N,+5V*%
X203000000Y-39000000D03*
D19*
%TO.P,C4,2*%
%TO.N,GNDREF*%
X203000000Y-31500000D03*
%TD*%
D18*
%TO.P,C3,1*%
%TO.N,~PC_CLR*%
X171000000Y-143000000D03*
D19*
%TO.P,C3,2*%
%TO.N,GNDREF*%
X178500000Y-143000000D03*
%TD*%
D18*
%TO.P,C2,1*%
%TO.N,GNDREF*%
X125000000Y-120000000D03*
D19*
%TO.P,C2,2*%
%TO.N,+5V*%
X132500000Y-120000000D03*
%TD*%
D18*
%TO.P,C1,1*%
%TO.N,GNDREF*%
X125000000Y-66040000D03*
D19*
%TO.P,C1,2*%
%TO.N,+5V*%
X132500000Y-66040000D03*
%TD*%
D20*
%TO.P,REG8.2,1*%
%TO.N,GNDREF*%
X125000000Y-88000000D03*
D19*
%TO.P,REG8.2,13*%
%TO.N,CLK*%
X132620000Y-115940000D03*
%TO.P,REG8.2,2*%
%TO.N,GNDREF*%
X125000000Y-90540000D03*
%TO.P,REG8.2,14*%
%TO.N,~STALL*%
X132620000Y-113400000D03*
%TO.P,REG8.2,3*%
%TO.N,/N8*%
X125000000Y-93080000D03*
%TO.P,REG8.2,15*%
%TO.N,/O15*%
X132620000Y-110860000D03*
%TO.P,REG8.2,4*%
%TO.N,/N9*%
X125000000Y-95620000D03*
%TO.P,REG8.2,16*%
%TO.N,/O14*%
X132620000Y-108320000D03*
%TO.P,REG8.2,5*%
%TO.N,/N10*%
X125000000Y-98160000D03*
%TO.P,REG8.2,17*%
%TO.N,/O13*%
X132620000Y-105780000D03*
%TO.P,REG8.2,6*%
%TO.N,/N11*%
X125000000Y-100700000D03*
%TO.P,REG8.2,18*%
%TO.N,/O12*%
X132620000Y-103240000D03*
%TO.P,REG8.2,7*%
%TO.N,/N12*%
X125000000Y-103240000D03*
%TO.P,REG8.2,19*%
%TO.N,/O11*%
X132620000Y-100700000D03*
%TO.P,REG8.2,8*%
%TO.N,/N13*%
X125000000Y-105780000D03*
%TO.P,REG8.2,20*%
%TO.N,/O10*%
X132620000Y-98160000D03*
%TO.P,REG8.2,9*%
%TO.N,/N14*%
X125000000Y-108320000D03*
%TO.P,REG8.2,21*%
%TO.N,/O9*%
X132620000Y-95620000D03*
%TO.P,REG8.2,10*%
%TO.N,/N15*%
X125000000Y-110860000D03*
%TO.P,REG8.2,22*%
%TO.N,/O8*%
X132620000Y-93080000D03*
%TO.P,REG8.2,11*%
%TO.N,~PC_CLR*%
X125000000Y-113400000D03*
%TO.P,REG8.2,23*%
%TO.N,GNDREF*%
X132620000Y-90540000D03*
%TO.P,REG8.2,12*%
X125000000Y-115940000D03*
%TO.P,REG8.2,24*%
%TO.N,+5V*%
X132620000Y-88000000D03*
%TD*%
D20*
%TO.P,REG8.1,1*%
%TO.N,GNDREF*%
X125000000Y-33000000D03*
D19*
%TO.P,REG8.1,13*%
%TO.N,CLK*%
X132620000Y-60940000D03*
%TO.P,REG8.1,2*%
%TO.N,GNDREF*%
X125000000Y-35540000D03*
%TO.P,REG8.1,14*%
%TO.N,~STALL*%
X132620000Y-58400000D03*
%TO.P,REG8.1,3*%
%TO.N,/N0*%
X125000000Y-38080000D03*
%TO.P,REG8.1,15*%
%TO.N,/O7*%
X132620000Y-55860000D03*
%TO.P,REG8.1,4*%
%TO.N,/N1*%
X125000000Y-40620000D03*
%TO.P,REG8.1,16*%
%TO.N,/O6*%
X132620000Y-53320000D03*
%TO.P,REG8.1,5*%
%TO.N,/N2*%
X125000000Y-43160000D03*
%TO.P,REG8.1,17*%
%TO.N,/O5*%
X132620000Y-50780000D03*
%TO.P,REG8.1,6*%
%TO.N,/N3*%
X125000000Y-45700000D03*
%TO.P,REG8.1,18*%
%TO.N,/O4*%
X132620000Y-48240000D03*
%TO.P,REG8.1,7*%
%TO.N,/N4*%
X125000000Y-48240000D03*
%TO.P,REG8.1,19*%
%TO.N,/O3*%
X132620000Y-45700000D03*
%TO.P,REG8.1,8*%
%TO.N,/N5*%
X125000000Y-50780000D03*
%TO.P,REG8.1,20*%
%TO.N,/O2*%
X132620000Y-43160000D03*
%TO.P,REG8.1,9*%
%TO.N,/N6*%
X125000000Y-53320000D03*
%TO.P,REG8.1,21*%
%TO.N,/O1*%
X132620000Y-40620000D03*
%TO.P,REG8.1,10*%
%TO.N,/N7*%
X125000000Y-55860000D03*
%TO.P,REG8.1,22*%
%TO.N,/O0*%
X132620000Y-38080000D03*
%TO.P,REG8.1,11*%
%TO.N,~PC_CLR*%
X125000000Y-58400000D03*
%TO.P,REG8.1,23*%
%TO.N,GNDREF*%
X132620000Y-35540000D03*
%TO.P,REG8.1,12*%
X125000000Y-60940000D03*
%TO.P,REG8.1,24*%
%TO.N,+5V*%
X132620000Y-33000000D03*
%TD*%
D21*
%TO.P,R14,1*%
%TO.N,GNDREF*%
X54000000Y-124000000D03*
D22*
%TO.P,R14,2*%
%TO.N,JMP_IN*%
X61620000Y-124000000D03*
%TD*%
D21*
%TO.P,R10,1*%
%TO.N,GNDREF*%
X131000000Y-137000000D03*
D22*
%TO.P,R10,2*%
%TO.N,Net-(ADD4.4-Pad9)*%
X123380000Y-137000000D03*
%TD*%
D21*
%TO.P,R6,1*%
%TO.N,+5V*%
X131000000Y-132000000D03*
D22*
%TO.P,R6,2*%
%TO.N,Net-(POT1-Pad1)*%
X123380000Y-132000000D03*
%TD*%
D21*
%TO.P,R5,1*%
%TO.N,GNDREF*%
X54000000Y-119000000D03*
D22*
%TO.P,R5,2*%
%TO.N,~STALL*%
X61620000Y-119000000D03*
%TD*%
D21*
%TO.P,R4,1*%
%TO.N,GNDREF*%
X54000000Y-129000000D03*
D22*
%TO.P,R4,2*%
%TO.N,JMP_ABS*%
X61620000Y-129000000D03*
%TD*%
D23*
%TO.P,POT1,3*%
%TO.N,Net-(POT1-Pad3)*%
X160000000Y-143000000D03*
%TO.P,POT1,2*%
%TO.N,~PC_CLR*%
X155000000Y-138000000D03*
%TO.P,POT1,1*%
%TO.N,Net-(POT1-Pad1)*%
X150000000Y-143000000D03*
%TD*%
D20*
%TO.P,MUXB2,1*%
%TO.N,JMP_IN*%
X152000000Y-91000000D03*
D19*
%TO.P,MUXB2,9*%
%TO.N,/R6*%
X159620000Y-108780000D03*
%TO.P,MUXB2,2*%
%TO.N,GNDREF*%
X152000000Y-93540000D03*
%TO.P,MUXB2,10*%
%TO.N,/OFF6*%
X159620000Y-106240000D03*
%TO.P,MUXB2,3*%
%TO.N,/OFF4*%
X152000000Y-96080000D03*
%TO.P,MUXB2,11*%
%TO.N,GNDREF*%
X159620000Y-103700000D03*
%TO.P,MUXB2,4*%
%TO.N,/R4*%
X152000000Y-98620000D03*
%TO.P,MUXB2,12*%
%TO.N,/R7*%
X159620000Y-101160000D03*
%TO.P,MUXB2,5*%
%TO.N,GNDREF*%
X152000000Y-101160000D03*
%TO.P,MUXB2,13*%
%TO.N,/OFF7*%
X159620000Y-98620000D03*
%TO.P,MUXB2,6*%
%TO.N,/OFF5*%
X152000000Y-103700000D03*
%TO.P,MUXB2,14*%
%TO.N,GNDREF*%
X159620000Y-96080000D03*
%TO.P,MUXB2,7*%
%TO.N,/R5*%
X152000000Y-106240000D03*
%TO.P,MUXB2,15*%
%TO.N,GNDREF*%
X159620000Y-93540000D03*
%TO.P,MUXB2,8*%
X152000000Y-108780000D03*
%TO.P,MUXB2,16*%
%TO.N,+5V*%
X159620000Y-91000000D03*
%TD*%
D20*
%TO.P,MUXB1,1*%
%TO.N,JMP_IN*%
X159000000Y-55000000D03*
D19*
%TO.P,MUXB1,9*%
%TO.N,/R2*%
X151380000Y-37220000D03*
%TO.P,MUXB1,2*%
%TO.N,GNDREF*%
X159000000Y-52460000D03*
%TO.P,MUXB1,10*%
%TO.N,/OFF2*%
X151380000Y-39760000D03*
%TO.P,MUXB1,3*%
%TO.N,/OFF0*%
X159000000Y-49920000D03*
%TO.P,MUXB1,11*%
%TO.N,GNDREF*%
X151380000Y-42300000D03*
%TO.P,MUXB1,4*%
%TO.N,/R0*%
X159000000Y-47380000D03*
%TO.P,MUXB1,12*%
%TO.N,/R3*%
X151380000Y-44840000D03*
%TO.P,MUXB1,5*%
%TO.N,+5V*%
X159000000Y-44840000D03*
%TO.P,MUXB1,13*%
%TO.N,/OFF3*%
X151380000Y-47380000D03*
%TO.P,MUXB1,6*%
%TO.N,/OFF1*%
X159000000Y-42300000D03*
%TO.P,MUXB1,14*%
%TO.N,GNDREF*%
X151380000Y-49920000D03*
%TO.P,MUXB1,7*%
%TO.N,/R1*%
X159000000Y-39760000D03*
%TO.P,MUXB1,15*%
%TO.N,GNDREF*%
X151380000Y-52460000D03*
%TO.P,MUXB1,8*%
X159000000Y-37220000D03*
%TO.P,MUXB1,16*%
%TO.N,+5V*%
X151380000Y-55000000D03*
%TD*%
D20*
%TO.P,MUXA4,1*%
%TO.N,JMP_ABS*%
X94000000Y-123000000D03*
D19*
%TO.P,MUXA4,9*%
%TO.N,/N14*%
X101620000Y-140780000D03*
%TO.P,MUXA4,2*%
%TO.N,/S12*%
X94000000Y-125540000D03*
%TO.P,MUXA4,10*%
%TO.N,/OFF14*%
X101620000Y-138240000D03*
%TO.P,MUXA4,3*%
%TO.N,/OFF12*%
X94000000Y-128080000D03*
%TO.P,MUXA4,11*%
%TO.N,/S14*%
X101620000Y-135700000D03*
%TO.P,MUXA4,4*%
%TO.N,/N12*%
X94000000Y-130620000D03*
%TO.P,MUXA4,12*%
%TO.N,/N15*%
X101620000Y-133160000D03*
%TO.P,MUXA4,5*%
%TO.N,/S13*%
X94000000Y-133160000D03*
%TO.P,MUXA4,13*%
%TO.N,/OFF15*%
X101620000Y-130620000D03*
%TO.P,MUXA4,6*%
%TO.N,/OFF13*%
X94000000Y-135700000D03*
%TO.P,MUXA4,14*%
%TO.N,/S15*%
X101620000Y-128080000D03*
%TO.P,MUXA4,7*%
%TO.N,/N13*%
X94000000Y-138240000D03*
%TO.P,MUXA4,15*%
%TO.N,GNDREF*%
X101620000Y-125540000D03*
%TO.P,MUXA4,8*%
X94000000Y-140780000D03*
%TO.P,MUXA4,16*%
%TO.N,+5V*%
X101620000Y-123000000D03*
%TD*%
D20*
%TO.P,MUXA3,1*%
%TO.N,JMP_ABS*%
X94000000Y-98000000D03*
D19*
%TO.P,MUXA3,9*%
%TO.N,/N10*%
X101620000Y-115780000D03*
%TO.P,MUXA3,2*%
%TO.N,/S8*%
X94000000Y-100540000D03*
%TO.P,MUXA3,10*%
%TO.N,/OFF10*%
X101620000Y-113240000D03*
%TO.P,MUXA3,3*%
%TO.N,/OFF8*%
X94000000Y-103080000D03*
%TO.P,MUXA3,11*%
%TO.N,/S10*%
X101620000Y-110700000D03*
%TO.P,MUXA3,4*%
%TO.N,/N8*%
X94000000Y-105620000D03*
%TO.P,MUXA3,12*%
%TO.N,/N11*%
X101620000Y-108160000D03*
%TO.P,MUXA3,5*%
%TO.N,/S9*%
X94000000Y-108160000D03*
%TO.P,MUXA3,13*%
%TO.N,/OFF11*%
X101620000Y-105620000D03*
%TO.P,MUXA3,6*%
%TO.N,/OFF9*%
X94000000Y-110700000D03*
%TO.P,MUXA3,14*%
%TO.N,/S11*%
X101620000Y-103080000D03*
%TO.P,MUXA3,7*%
%TO.N,/N9*%
X94000000Y-113240000D03*
%TO.P,MUXA3,15*%
%TO.N,GNDREF*%
X101620000Y-100540000D03*
%TO.P,MUXA3,8*%
X94000000Y-115780000D03*
%TO.P,MUXA3,16*%
%TO.N,+5V*%
X101620000Y-98000000D03*
%TD*%
D20*
%TO.P,MUXA2,1*%
%TO.N,JMP_ABS*%
X94000000Y-58000000D03*
D19*
%TO.P,MUXA2,9*%
%TO.N,/N6*%
X101620000Y-75780000D03*
%TO.P,MUXA2,2*%
%TO.N,/S4*%
X94000000Y-60540000D03*
%TO.P,MUXA2,10*%
%TO.N,/OFF6*%
X101620000Y-73240000D03*
%TO.P,MUXA2,3*%
%TO.N,/OFF4*%
X94000000Y-63080000D03*
%TO.P,MUXA2,11*%
%TO.N,/S6*%
X101620000Y-70700000D03*
%TO.P,MUXA2,4*%
%TO.N,/N4*%
X94000000Y-65620000D03*
%TO.P,MUXA2,12*%
%TO.N,/N7*%
X101620000Y-68160000D03*
%TO.P,MUXA2,5*%
%TO.N,/S5*%
X94000000Y-68160000D03*
%TO.P,MUXA2,13*%
%TO.N,/OFF7*%
X101620000Y-65620000D03*
%TO.P,MUXA2,6*%
%TO.N,/OFF5*%
X94000000Y-70700000D03*
%TO.P,MUXA2,14*%
%TO.N,/S7*%
X101620000Y-63080000D03*
%TO.P,MUXA2,7*%
%TO.N,/N5*%
X94000000Y-73240000D03*
%TO.P,MUXA2,15*%
%TO.N,Net-(MUXA2-Pad15)*%
X101620000Y-60540000D03*
%TO.P,MUXA2,8*%
%TO.N,GNDREF*%
X94000000Y-75780000D03*
%TO.P,MUXA2,16*%
%TO.N,+5V*%
X101620000Y-58000000D03*
%TD*%
D20*
%TO.P,MUXA1,1*%
%TO.N,JMP_ABS*%
X94000000Y-34000000D03*
D19*
%TO.P,MUXA1,9*%
%TO.N,/N2*%
X101620000Y-51780000D03*
%TO.P,MUXA1,2*%
%TO.N,/S0*%
X94000000Y-36540000D03*
%TO.P,MUXA1,10*%
%TO.N,/OFF2*%
X101620000Y-49240000D03*
%TO.P,MUXA1,3*%
%TO.N,/OFF0*%
X94000000Y-39080000D03*
%TO.P,MUXA1,11*%
%TO.N,/S2*%
X101620000Y-46700000D03*
%TO.P,MUXA1,4*%
%TO.N,/N0*%
X94000000Y-41620000D03*
%TO.P,MUXA1,12*%
%TO.N,/N3*%
X101620000Y-44160000D03*
%TO.P,MUXA1,5*%
%TO.N,/S1*%
X94000000Y-44160000D03*
%TO.P,MUXA1,13*%
%TO.N,/OFF3*%
X101620000Y-41620000D03*
%TO.P,MUXA1,6*%
%TO.N,/OFF1*%
X94000000Y-46700000D03*
%TO.P,MUXA1,14*%
%TO.N,/S3*%
X101620000Y-39080000D03*
%TO.P,MUXA1,7*%
%TO.N,/N1*%
X94000000Y-49240000D03*
%TO.P,MUXA1,15*%
%TO.N,GNDREF*%
X101620000Y-36540000D03*
%TO.P,MUXA1,8*%
X94000000Y-51780000D03*
%TO.P,MUXA1,16*%
%TO.N,+5V*%
X101620000Y-34000000D03*
%TD*%
D24*
%TO.P,J3,1*%
%TO.N,JMP_IN*%
X56000000Y-95000000D03*
D25*
%TO.P,J3,2*%
%TO.N,REL_SIGN*%
X56000000Y-97500000D03*
%TO.P,J3,3*%
%TO.N,~STALL*%
X56000000Y-100000000D03*
%TO.P,J3,4*%
%TO.N,JMP_ABS*%
X56000000Y-102500000D03*
%TD*%
D20*
%TO.P,C_BOARD1,1*%
%TO.N,+5V*%
X228000000Y-136000000D03*
D18*
%TO.P,C_BOARD1,2*%
%TO.N,GNDREF*%
X228000000Y-138500000D03*
%TD*%
D20*
%TO.P,ADD4.2,1*%
%TO.N,/S5*%
X179000000Y-66000000D03*
D19*
%TO.P,ADD4.2,9*%
%TO.N,Net-(ADD4.2-Pad9)*%
X196780000Y-58380000D03*
%TO.P,ADD4.2,2*%
%TO.N,/OFF5*%
X181540000Y-66000000D03*
%TO.P,ADD4.2,10*%
%TO.N,/S7*%
X194240000Y-58380000D03*
%TO.P,ADD4.2,3*%
%TO.N,/R5*%
X184080000Y-66000000D03*
%TO.P,ADD4.2,11*%
%TO.N,/OFF7*%
X191700000Y-58380000D03*
%TO.P,ADD4.2,4*%
%TO.N,/S4*%
X186620000Y-66000000D03*
%TO.P,ADD4.2,12*%
%TO.N,/R7*%
X189160000Y-58380000D03*
%TO.P,ADD4.2,5*%
%TO.N,/R4*%
X189160000Y-66000000D03*
%TO.P,ADD4.2,13*%
%TO.N,/S6*%
X186620000Y-58380000D03*
%TO.P,ADD4.2,6*%
%TO.N,/OFF4*%
X191700000Y-66000000D03*
%TO.P,ADD4.2,14*%
%TO.N,/R6*%
X184080000Y-58380000D03*
%TO.P,ADD4.2,7*%
%TO.N,Net-(ADD4.1-Pad9)*%
X194240000Y-66000000D03*
%TO.P,ADD4.2,15*%
%TO.N,/OFF6*%
X181540000Y-58380000D03*
%TO.P,ADD4.2,8*%
%TO.N,GNDREF*%
X196780000Y-66000000D03*
%TO.P,ADD4.2,16*%
%TO.N,+5V*%
X179000000Y-58380000D03*
%TD*%
D20*
%TO.P,ADD4.1,1*%
%TO.N,/S1*%
X180000000Y-39000000D03*
D19*
%TO.P,ADD4.1,9*%
%TO.N,Net-(ADD4.1-Pad9)*%
X197780000Y-31380000D03*
%TO.P,ADD4.1,2*%
%TO.N,/OFF1*%
X182540000Y-39000000D03*
%TO.P,ADD4.1,10*%
%TO.N,/S3*%
X195240000Y-31380000D03*
%TO.P,ADD4.1,3*%
%TO.N,/R1*%
X185080000Y-39000000D03*
%TO.P,ADD4.1,11*%
%TO.N,/OFF3*%
X192700000Y-31380000D03*
%TO.P,ADD4.1,4*%
%TO.N,/S0*%
X187620000Y-39000000D03*
%TO.P,ADD4.1,12*%
%TO.N,/R3*%
X190160000Y-31380000D03*
%TO.P,ADD4.1,5*%
%TO.N,/R0*%
X190160000Y-39000000D03*
%TO.P,ADD4.1,13*%
%TO.N,/S2*%
X187620000Y-31380000D03*
%TO.P,ADD4.1,6*%
%TO.N,/OFF0*%
X192700000Y-39000000D03*
%TO.P,ADD4.1,14*%
%TO.N,/R2*%
X185080000Y-31380000D03*
%TO.P,ADD4.1,7*%
%TO.N,GNDREF*%
X195240000Y-39000000D03*
%TO.P,ADD4.1,15*%
%TO.N,/OFF2*%
X182540000Y-31380000D03*
%TO.P,ADD4.1,8*%
%TO.N,GNDREF*%
X197780000Y-39000000D03*
%TO.P,ADD4.1,16*%
%TO.N,+5V*%
X180000000Y-31380000D03*
%TD*%
D20*
%TO.P,ADD4.3,1*%
%TO.N,/S9*%
X179000000Y-96000000D03*
D19*
%TO.P,ADD4.3,9*%
%TO.N,Net-(ADD4.3-Pad9)*%
X196780000Y-88380000D03*
%TO.P,ADD4.3,2*%
%TO.N,/OFF9*%
X181540000Y-96000000D03*
%TO.P,ADD4.3,10*%
%TO.N,/S11*%
X194240000Y-88380000D03*
%TO.P,ADD4.3,3*%
%TO.N,REL_SIGN*%
X184080000Y-96000000D03*
%TO.P,ADD4.3,11*%
%TO.N,/OFF11*%
X191700000Y-88380000D03*
%TO.P,ADD4.3,4*%
%TO.N,/S8*%
X186620000Y-96000000D03*
%TO.P,ADD4.3,12*%
%TO.N,REL_SIGN*%
X189160000Y-88380000D03*
%TO.P,ADD4.3,5*%
X189160000Y-96000000D03*
%TO.P,ADD4.3,13*%
%TO.N,/S10*%
X186620000Y-88380000D03*
%TO.P,ADD4.3,6*%
%TO.N,/OFF8*%
X191700000Y-96000000D03*
%TO.P,ADD4.3,14*%
%TO.N,REL_SIGN*%
X184080000Y-88380000D03*
%TO.P,ADD4.3,7*%
%TO.N,Net-(ADD4.2-Pad9)*%
X194240000Y-96000000D03*
%TO.P,ADD4.3,15*%
%TO.N,/OFF10*%
X181540000Y-88380000D03*
%TO.P,ADD4.3,8*%
%TO.N,GNDREF*%
X196780000Y-96000000D03*
%TO.P,ADD4.3,16*%
%TO.N,+5V*%
X179000000Y-88380000D03*
%TD*%
D20*
%TO.P,ADD4.4,1*%
%TO.N,/S13*%
X179000000Y-131000000D03*
D19*
%TO.P,ADD4.4,9*%
%TO.N,Net-(ADD4.4-Pad9)*%
X196780000Y-123380000D03*
%TO.P,ADD4.4,2*%
%TO.N,/OFF13*%
X181540000Y-131000000D03*
%TO.P,ADD4.4,10*%
%TO.N,/S15*%
X194240000Y-123380000D03*
%TO.P,ADD4.4,3*%
%TO.N,REL_SIGN*%
X184080000Y-131000000D03*
%TO.P,ADD4.4,11*%
%TO.N,/OFF15*%
X191700000Y-123380000D03*
%TO.P,ADD4.4,4*%
%TO.N,/S12*%
X186620000Y-131000000D03*
%TO.P,ADD4.4,12*%
%TO.N,REL_SIGN*%
X189160000Y-123380000D03*
%TO.P,ADD4.4,5*%
X189160000Y-131000000D03*
%TO.P,ADD4.4,13*%
%TO.N,/S14*%
X186620000Y-123380000D03*
%TO.P,ADD4.4,6*%
%TO.N,/OFF12*%
X191700000Y-131000000D03*
%TO.P,ADD4.4,14*%
%TO.N,REL_SIGN*%
X184080000Y-123380000D03*
%TO.P,ADD4.4,7*%
%TO.N,Net-(ADD4.3-Pad9)*%
X194240000Y-131000000D03*
%TO.P,ADD4.4,15*%
%TO.N,/OFF14*%
X181540000Y-123380000D03*
%TO.P,ADD4.4,8*%
%TO.N,GNDREF*%
X196780000Y-131000000D03*
%TO.P,ADD4.4,16*%
%TO.N,+5V*%
X179000000Y-123380000D03*
%TD*%
D26*
%TO.N,/OFF15*%
X188434500Y-129143000D03*
%TO.N,/S14*%
X179026300Y-133070800D03*
%TO.N,+5V*%
X148674500Y-55000000D03*
%TO.N,/S9*%
X178646500Y-93577700D03*
%TO.N,/OFF11*%
X183728100Y-79280800D03*
%TO.N,/S8*%
X172504800Y-82771700D03*
%TO.N,/S10*%
X123384900Y-91810000D03*
X177449500Y-80055000D03*
%TO.N,/OFF8*%
X186195600Y-83775400D03*
%TO.N,/OFF10*%
X159935700Y-112063400D03*
%TO.N,/R3*%
X164180900Y-42370900D03*
%TO.N,/S2*%
X123585000Y-32272500D03*
%TO.N,/OFF5*%
X91602900Y-71293600D03*
%TO.N,/S7*%
X182744900Y-63772000D03*
%TO.N,/OFF7*%
X160869500Y-67932600D03*
%TO.N,/S6*%
X174196100Y-70039600D03*
%TO.N,/OFF4*%
X157489600Y-64855800D03*
%TO.N,/OFF6*%
X164219000Y-76926300D03*
%TO.N,JMP_IN*%
X138773000Y-117138700D03*
X160061100Y-85083000D03*
%TO.N,/N9*%
X105125300Y-114367400D03*
%TO.N,GNDREF*%
X213536000Y-57938500D03*
X131000000Y-139652000D03*
X204139700Y-124293800D03*
X157572800Y-107729000D03*
X151500000Y-67169600D03*
X181000000Y-143000000D03*
X201000000Y-137000000D03*
X69283900Y-52761500D03*
X74000000Y-51000000D03*
X72000000Y-35000000D03*
X62000000Y-35000000D03*
%TD*%
D27*
%TO.N,/OFF13*%
X94000000Y-135700000D02*
X94000000Y-134572700D01*
X94000000Y-134572700D02*
X93718200Y-134572700D01*
X93718200Y-134572700D02*
X89143200Y-129997700D01*
X89143200Y-129997700D02*
X89143200Y-89843200D01*
X89143200Y-89843200D02*
X58540000Y-59240000D01*
%TO.N,REL_SIGN*%
X187707200Y-129852500D02*
X186083200Y-129852500D01*
X186083200Y-129852500D02*
X185207300Y-130728400D01*
X185207300Y-130728400D02*
X185207300Y-131000000D01*
X189160000Y-129872700D02*
X187727400Y-129872700D01*
X187727400Y-129872700D02*
X187707200Y-129852500D01*
X188596400Y-123380000D02*
X187707200Y-124269200D01*
X187707200Y-124269200D02*
X187707200Y-129852500D01*
X189160000Y-131000000D02*
X189160000Y-129872700D01*
X184080000Y-131000000D02*
X185207300Y-131000000D01*
X188596400Y-123380000D02*
X188032700Y-123380000D01*
X189160000Y-123380000D02*
X188596400Y-123380000D01*
X189160000Y-96000000D02*
X188032700Y-96000000D01*
X184080000Y-96000000D02*
X185207300Y-96000000D01*
X187124400Y-97141900D02*
X186115600Y-97141900D01*
X186115600Y-97141900D02*
X185207300Y-96233600D01*
X185207300Y-96233600D02*
X185207300Y-96000000D01*
X188032700Y-96000000D02*
X188032700Y-96233600D01*
X188032700Y-96233600D02*
X187124400Y-97141900D01*
X187124400Y-122238100D02*
X187124400Y-97141900D01*
X187124400Y-122238100D02*
X186115600Y-122238100D01*
X186115600Y-122238100D02*
X185207300Y-123146400D01*
X185207300Y-123146400D02*
X185207300Y-123380000D01*
X188032700Y-123380000D02*
X188032700Y-123146400D01*
X188032700Y-123146400D02*
X187124400Y-122238100D01*
X184080000Y-123380000D02*
X185207300Y-123380000D01*
X189160000Y-131000000D02*
X190287300Y-131000000D01*
X190287300Y-131000000D02*
X190287300Y-131731400D01*
X190287300Y-131731400D02*
X200270000Y-141714100D01*
X200270000Y-141714100D02*
X200270000Y-143270000D01*
X200270000Y-143270000D02*
X201540000Y-144540000D01*
X189160000Y-94872700D02*
X189160000Y-88380000D01*
X189160000Y-96000000D02*
X189160000Y-94872700D01*
%TO.N,/OFF15*%
X191700000Y-123380000D02*
X191700000Y-125877500D01*
X191700000Y-125877500D02*
X188434500Y-129143000D01*
X96000000Y-136240000D02*
X96349900Y-135890100D01*
X96349900Y-135890100D02*
X101620000Y-130620000D01*
X96000000Y-139000000D02*
X96000000Y-136240000D01*
X95584000Y-139416000D02*
X96000000Y-139000000D01*
X93530900Y-139416000D02*
X95584000Y-139416000D01*
X88688800Y-91928800D02*
X88688800Y-134573900D01*
X88688800Y-134573900D02*
X93530900Y-139416000D01*
X58540000Y-61780000D02*
X88688800Y-91928800D01*
%TO.N,/S14*%
X186620000Y-124507300D02*
X186338200Y-124507300D01*
X186338200Y-124507300D02*
X180412600Y-130432900D01*
X180412600Y-130432900D02*
X180412600Y-131684500D01*
X180412600Y-131684500D02*
X179026300Y-133070800D01*
X186620000Y-123380000D02*
X186620000Y-124507300D01*
%TO.N,/OFF12*%
X56000000Y-59240000D02*
X57190600Y-58049400D01*
X57190600Y-58049400D02*
X58987400Y-58049400D01*
X58987400Y-58049400D02*
X90611700Y-89673700D01*
X90611700Y-89673700D02*
X90611700Y-123846300D01*
X90611700Y-123846300D02*
X93718100Y-126952700D01*
X93718100Y-126952700D02*
X94000000Y-126952700D01*
X94000000Y-128080000D02*
X94000000Y-126952700D01*
%TO.N,Net-(ADD4.3-Pad9)*%
X196780000Y-88380000D02*
X196780000Y-89507300D01*
X194240000Y-131000000D02*
X194240000Y-129872700D01*
X194240000Y-129872700D02*
X195367300Y-128745400D01*
X195367300Y-128745400D02*
X195367300Y-90920000D01*
X195367300Y-90920000D02*
X196780000Y-89507300D01*
%TO.N,/OFF14*%
X56000000Y-61780000D02*
X68596100Y-74376100D01*
X68596100Y-74376100D02*
X68596100Y-117019800D01*
X68596100Y-117019800D02*
X93487900Y-141911600D01*
X93487900Y-141911600D02*
X102137400Y-141911600D01*
X102137400Y-141911600D02*
X102747300Y-141301700D01*
X102747300Y-141301700D02*
X102747300Y-138240000D01*
X101620000Y-138240000D02*
X102747300Y-138240000D01*
D28*
%TO.N,+5V*%
X228000000Y-136000000D02*
X228000000Y-134745700D01*
X228000000Y-134745700D02*
X229000000Y-133745700D01*
X229000000Y-133745700D02*
X229000000Y-125000000D01*
X225000000Y-139000000D02*
X228000000Y-136000000D01*
X223143900Y-150143800D02*
X222375000Y-150912700D01*
X222375000Y-150912700D02*
X222375000Y-152000000D01*
X202000000Y-66000000D02*
X203257300Y-64742700D01*
X203257300Y-64742700D02*
X203257300Y-39257300D01*
X203257300Y-39257300D02*
X203000000Y-39000000D01*
X203000000Y-96000000D02*
X201728700Y-94728700D01*
X201728700Y-94728700D02*
X201728700Y-66271300D01*
X201728700Y-66271300D02*
X202000000Y-66000000D01*
X203285300Y-129776500D02*
X203285300Y-96285300D01*
X203285300Y-96285300D02*
X203000000Y-96000000D01*
X225000000Y-139000000D02*
X212508800Y-139000000D01*
X212508800Y-139000000D02*
X203285300Y-129776500D01*
X203285300Y-129776500D02*
X203223500Y-129776500D01*
X203223500Y-129776500D02*
X202000000Y-131000000D01*
X132500000Y-120000000D02*
X132500000Y-130500000D01*
X132500000Y-130500000D02*
X131000000Y-132000000D01*
X101620000Y-98000000D02*
X102912000Y-99292000D01*
X102912000Y-99292000D02*
X102912000Y-103612300D01*
X102912000Y-103612300D02*
X102174300Y-104350000D01*
X102174300Y-104350000D02*
X101043900Y-104350000D01*
X101043900Y-104350000D02*
X100365600Y-105028300D01*
X100365600Y-105028300D02*
X100365600Y-120491300D01*
X100365600Y-120491300D02*
X101620000Y-121745700D01*
X101500000Y-93254300D02*
X101620000Y-93374300D01*
X101620000Y-93374300D02*
X101620000Y-98000000D01*
X101620000Y-123000000D02*
X101620000Y-121745700D01*
X101500000Y-92000000D02*
X101500000Y-93254300D01*
X159000000Y-44840000D02*
X160254300Y-44840000D01*
X180000000Y-31380000D02*
X173714300Y-31380000D01*
X173714300Y-31380000D02*
X160254300Y-44840000D01*
X152634400Y-55000000D02*
X152634400Y-51940100D01*
X152634400Y-51940100D02*
X158480200Y-46094300D01*
X158480200Y-46094300D02*
X159000000Y-46094300D01*
X152457200Y-55000000D02*
X152634400Y-55000000D01*
X152634400Y-55000000D02*
X152634400Y-55888700D01*
X152634400Y-55888700D02*
X157745700Y-61000000D01*
X159000000Y-44840000D02*
X159000000Y-46094300D01*
X151380000Y-55000000D02*
X152457200Y-55000000D01*
X131349000Y-54590000D02*
X131349000Y-35004900D01*
X131349000Y-35004900D02*
X132099600Y-34254300D01*
X132099600Y-34254300D02*
X132620000Y-34254300D01*
X131349000Y-54590000D02*
X148264500Y-54590000D01*
X148264500Y-54590000D02*
X148674500Y-55000000D01*
X131349000Y-54590000D02*
X131245800Y-54693200D01*
X131245800Y-54693200D02*
X131245800Y-63531500D01*
X131245800Y-63531500D02*
X132500000Y-64785700D01*
X159500000Y-87000000D02*
X159500000Y-85745700D01*
X159500000Y-85745700D02*
X159000000Y-85245700D01*
X159000000Y-85245700D02*
X159000000Y-62254300D01*
X159620000Y-89745700D02*
X159500000Y-89625700D01*
X159500000Y-89625700D02*
X159500000Y-87000000D01*
X159000000Y-61000000D02*
X159000000Y-62254300D01*
X54143900Y-23143800D02*
X53375000Y-23912700D01*
X53375000Y-23912700D02*
X53375000Y-25000000D01*
X179000000Y-89634300D02*
X180254400Y-90888700D01*
X180254400Y-90888700D02*
X180254400Y-120871300D01*
X180254400Y-120871300D02*
X179000000Y-122125700D01*
X132500000Y-66040000D02*
X132500000Y-64785700D01*
X132620000Y-33000000D02*
X132620000Y-34254300D01*
X132500000Y-66040000D02*
X132500000Y-67294300D01*
X132500000Y-67294300D02*
X132620000Y-67414300D01*
X132620000Y-67414300D02*
X132620000Y-88000000D01*
X101500000Y-81000000D02*
X101500000Y-79745700D01*
X101500000Y-79745700D02*
X100351000Y-78596700D01*
X100351000Y-78596700D02*
X100351000Y-60003500D01*
X100351000Y-60003500D02*
X101100200Y-59254300D01*
X101100200Y-59254300D02*
X101620000Y-59254300D01*
X101620000Y-58000000D02*
X101620000Y-59254300D01*
X225000000Y-149375000D02*
X225000000Y-139000000D01*
X57856200Y-23143800D02*
X58625000Y-23912600D01*
X58625000Y-23912600D02*
X58625000Y-25000000D01*
X226856200Y-153856100D02*
X227625000Y-153087300D01*
X227625000Y-153087300D02*
X227625000Y-152000000D01*
X226856200Y-150143800D02*
X227625000Y-150912600D01*
X227625000Y-150912600D02*
X227625000Y-152000000D01*
X179000000Y-123380000D02*
X179000000Y-122125700D01*
X179000000Y-88380000D02*
X179000000Y-89634300D01*
X159000000Y-61000000D02*
X157745700Y-61000000D01*
X159620000Y-91000000D02*
X159620000Y-89745700D01*
X101620000Y-34000000D02*
X101620000Y-32745700D01*
X101620000Y-32745700D02*
X101500000Y-32625700D01*
X101500000Y-32625700D02*
X101500000Y-29000000D01*
D27*
%TO.N,/S9*%
X179000000Y-96000000D02*
X179000000Y-94872700D01*
X179000000Y-94872700D02*
X178646500Y-94519200D01*
X178646500Y-94519200D02*
X178646500Y-93577700D01*
%TO.N,/OFF9*%
X94000000Y-110700000D02*
X94000000Y-109572700D01*
X94000000Y-109572700D02*
X93718200Y-109572700D01*
X93718200Y-109572700D02*
X91505800Y-107360300D01*
X91505800Y-107360300D02*
X91505800Y-87125800D01*
X91505800Y-87125800D02*
X58540000Y-54160000D01*
%TO.N,/OFF11*%
X191700000Y-87252700D02*
X183728100Y-79280800D01*
X191700000Y-88380000D02*
X191700000Y-87252700D01*
%TO.N,/S8*%
X186620000Y-94872700D02*
X182810000Y-91062700D01*
X182810000Y-91062700D02*
X182810000Y-88038100D01*
X182810000Y-88038100D02*
X177543600Y-82771700D01*
X177543600Y-82771700D02*
X172504800Y-82771700D01*
X186620000Y-96000000D02*
X186620000Y-94872700D01*
%TO.N,/S10*%
X177449500Y-80055000D02*
X185492700Y-88098200D01*
X185492700Y-88098200D02*
X185492700Y-88380000D01*
X186620000Y-88380000D02*
X185492700Y-88380000D01*
X123384900Y-91810000D02*
X104494900Y-110700000D01*
X104494900Y-110700000D02*
X101620000Y-110700000D01*
%TO.N,/OFF8*%
X191700000Y-94872700D02*
X190572700Y-93745400D01*
X190572700Y-93745400D02*
X190572700Y-88152500D01*
X190572700Y-88152500D02*
X186195600Y-83775400D01*
X94000000Y-103080000D02*
X94000000Y-101952700D01*
X94000000Y-101952700D02*
X93718200Y-101952700D01*
X93718200Y-101952700D02*
X91960200Y-100194700D01*
X91960200Y-100194700D02*
X91960200Y-85936000D01*
X91960200Y-85936000D02*
X58993600Y-52969400D01*
X58993600Y-52969400D02*
X57190600Y-52969400D01*
X57190600Y-52969400D02*
X56000000Y-54160000D01*
X191700000Y-96000000D02*
X191700000Y-94872700D01*
%TO.N,Net-(ADD4.2-Pad9)*%
X196780000Y-59507300D02*
X193108200Y-63179100D01*
X193108200Y-63179100D02*
X193108200Y-93740900D01*
X193108200Y-93740900D02*
X194240000Y-94872700D01*
X196780000Y-58380000D02*
X196780000Y-59507300D01*
X194240000Y-96000000D02*
X194240000Y-94872700D01*
%TO.N,/OFF10*%
X180412700Y-88380000D02*
X180412700Y-88098200D01*
X180412700Y-88098200D02*
X179547900Y-87233400D01*
X179547900Y-87233400D02*
X178511800Y-87233400D01*
X178511800Y-87233400D02*
X177144300Y-88600900D01*
X177144300Y-88600900D02*
X177144300Y-94854800D01*
X177144300Y-94854800D02*
X159935700Y-112063400D01*
X181540000Y-88380000D02*
X180412700Y-88380000D01*
%TO.N,Net-(ADD4.1-Pad9)*%
X194240000Y-66000000D02*
X194240000Y-64872700D01*
X197780000Y-31380000D02*
X197780000Y-32507300D01*
X197780000Y-32507300D02*
X196651700Y-33635600D01*
X196651700Y-33635600D02*
X196651700Y-56177700D01*
X196651700Y-56177700D02*
X197933100Y-57459100D01*
X197933100Y-57459100D02*
X197933100Y-61179600D01*
X197933100Y-61179600D02*
X194240000Y-64872700D01*
%TO.N,/OFF1*%
X159000000Y-41172700D02*
X159281800Y-41172700D01*
X159281800Y-41172700D02*
X160145500Y-40309000D01*
X160145500Y-40309000D02*
X160145500Y-36727700D01*
X160145500Y-36727700D02*
X154824800Y-31407000D01*
X154824800Y-31407000D02*
X123422000Y-31407000D01*
X123422000Y-31407000D02*
X111939000Y-42890000D01*
X111939000Y-42890000D02*
X101291000Y-42890000D01*
X101291000Y-42890000D02*
X100002800Y-44178200D01*
X100002800Y-44178200D02*
X100002800Y-47445300D01*
X100002800Y-47445300D02*
X94508700Y-52939400D01*
X94508700Y-52939400D02*
X93509100Y-52939400D01*
X93509100Y-52939400D02*
X92870700Y-52301000D01*
X92870700Y-52301000D02*
X92870700Y-48723000D01*
X92870700Y-48723000D02*
X93766400Y-47827300D01*
X93766400Y-47827300D02*
X94000000Y-47827300D01*
X94000000Y-47263600D02*
X92872600Y-46136200D01*
X92872600Y-46136200D02*
X92872600Y-38609900D01*
X92872600Y-38609900D02*
X93672500Y-37810000D01*
X93672500Y-37810000D02*
X94400000Y-37810000D01*
X94400000Y-37810000D02*
X95127400Y-37082600D01*
X95127400Y-37082600D02*
X95127400Y-33041900D01*
X95127400Y-33041900D02*
X94958100Y-32872600D01*
X94958100Y-32872600D02*
X69667400Y-32872600D01*
X69667400Y-32872600D02*
X58540000Y-44000000D01*
X94000000Y-47263600D02*
X94000000Y-47827300D01*
X94000000Y-46700000D02*
X94000000Y-47263600D01*
X159000000Y-42300000D02*
X159000000Y-41172700D01*
%TO.N,/S3*%
X101620000Y-39080000D02*
X102747300Y-39080000D01*
X195240000Y-31380000D02*
X194112700Y-31380000D01*
X194112700Y-31380000D02*
X194112700Y-31098200D01*
X194112700Y-31098200D02*
X192746100Y-29731600D01*
X192746100Y-29731600D02*
X112095700Y-29731600D01*
X112095700Y-29731600D02*
X102747300Y-39080000D01*
%TO.N,/OFF3*%
X160625300Y-30941400D02*
X113425900Y-30941400D01*
X113425900Y-30941400D02*
X102747300Y-41620000D01*
X191642500Y-31380000D02*
X191642500Y-31243900D01*
X191642500Y-31243900D02*
X190624200Y-30225600D01*
X190624200Y-30225600D02*
X161341100Y-30225600D01*
X161341100Y-30225600D02*
X160625300Y-30941400D01*
X160625300Y-30941400D02*
X160625300Y-42272400D01*
X160625300Y-42272400D02*
X159243200Y-43654500D01*
X159243200Y-43654500D02*
X156232800Y-43654500D01*
X156232800Y-43654500D02*
X152507300Y-47380000D01*
X151380000Y-47380000D02*
X152507300Y-47380000D01*
X101620000Y-41620000D02*
X102747300Y-41620000D01*
X192700000Y-31380000D02*
X191642500Y-31380000D01*
%TO.N,/R3*%
X190160000Y-31380000D02*
X189032700Y-31380000D01*
X189032700Y-31380000D02*
X189032700Y-31661900D01*
X189032700Y-31661900D02*
X188187300Y-32507300D01*
X188187300Y-32507300D02*
X174044500Y-32507300D01*
X174044500Y-32507300D02*
X164180900Y-42370900D01*
%TO.N,/S2*%
X102747300Y-46700000D02*
X104387200Y-45060100D01*
X104387200Y-45060100D02*
X110797400Y-45060100D01*
X110797400Y-45060100D02*
X123585000Y-32272500D01*
X101620000Y-46700000D02*
X102747300Y-46700000D01*
%TO.N,/OFF0*%
X192700000Y-39000000D02*
X191572700Y-39000000D01*
X191572700Y-39000000D02*
X191572700Y-39281800D01*
X191572700Y-39281800D02*
X180934500Y-49920000D01*
X180934500Y-49920000D02*
X159000000Y-49920000D01*
%TO.N,/OFF2*%
X102747300Y-49240000D02*
X103389700Y-49240000D01*
X103389700Y-49240000D02*
X105659700Y-46970000D01*
X105659700Y-46970000D02*
X125343900Y-46970000D01*
X125343900Y-46970000D02*
X130767600Y-41546300D01*
X130767600Y-41546300D02*
X130767600Y-33245500D01*
X130767600Y-33245500D02*
X132151500Y-31861600D01*
X132151500Y-31861600D02*
X142354300Y-31861600D01*
X142354300Y-31861600D02*
X150252700Y-39760000D01*
X101620000Y-49240000D02*
X102747300Y-49240000D01*
X151380000Y-39760000D02*
X150252700Y-39760000D01*
%TO.N,/OFF5*%
X152000000Y-104827300D02*
X152357300Y-104827300D01*
X152357300Y-104827300D02*
X157899500Y-110369500D01*
X157899500Y-110369500D02*
X160344200Y-110369500D01*
X160344200Y-110369500D02*
X167388300Y-103325400D01*
X167388300Y-103325400D02*
X167388300Y-81279000D01*
X167388300Y-81279000D02*
X181540000Y-67127300D01*
X152000000Y-103700000D02*
X152000000Y-104827300D01*
X181540000Y-66000000D02*
X181540000Y-67127300D01*
X58540000Y-49080000D02*
X69389300Y-49080000D01*
X69389300Y-49080000D02*
X91602900Y-71293600D01*
%TO.N,/S7*%
X194240000Y-58380000D02*
X193112700Y-58380000D01*
X193112700Y-58380000D02*
X193112700Y-58661800D01*
X193112700Y-58661800D02*
X188002500Y-63772000D01*
X188002500Y-63772000D02*
X182744900Y-63772000D01*
%TO.N,/R5*%
X184080000Y-67127300D02*
X171704700Y-79502600D01*
X171704700Y-79502600D02*
X171704700Y-99651700D01*
X171704700Y-99651700D02*
X160532500Y-110823900D01*
X160532500Y-110823900D02*
X157711200Y-110823900D01*
X157711200Y-110823900D02*
X153127300Y-106240000D01*
X152000000Y-106240000D02*
X153127300Y-106240000D01*
X184080000Y-66000000D02*
X184080000Y-67127300D01*
%TO.N,/OFF7*%
X191700000Y-58380000D02*
X190572700Y-58380000D01*
X190572700Y-58380000D02*
X190572700Y-58098200D01*
X190572700Y-58098200D02*
X189259800Y-56785300D01*
X189259800Y-56785300D02*
X172016800Y-56785300D01*
X172016800Y-56785300D02*
X160869500Y-67932600D01*
X159620000Y-98620000D02*
X160869500Y-97370500D01*
X160869500Y-97370500D02*
X160869500Y-67932600D01*
%TO.N,/R7*%
X159620000Y-101160000D02*
X159620000Y-100032700D01*
X189160000Y-58380000D02*
X188032700Y-58380000D01*
X188032700Y-58380000D02*
X188032700Y-58098200D01*
X188032700Y-58098200D02*
X187174200Y-57239700D01*
X187174200Y-57239700D02*
X181051600Y-57239700D01*
X181051600Y-57239700D02*
X180270000Y-58021300D01*
X180270000Y-58021300D02*
X180270000Y-58764200D01*
X180270000Y-58764200D02*
X161891700Y-77142500D01*
X161891700Y-77142500D02*
X161891700Y-97994600D01*
X161891700Y-97994600D02*
X159853600Y-100032700D01*
X159853600Y-100032700D02*
X159620000Y-100032700D01*
%TO.N,/R4*%
X152000000Y-98620000D02*
X154227000Y-100847000D01*
X154227000Y-100847000D02*
X154227000Y-105434800D01*
X154227000Y-105434800D02*
X158707300Y-109915100D01*
X158707300Y-109915100D02*
X160127700Y-109915100D01*
X160127700Y-109915100D02*
X166667800Y-103375000D01*
X166667800Y-103375000D02*
X166667800Y-81118800D01*
X166667800Y-81118800D02*
X180127400Y-67659200D01*
X180127400Y-67659200D02*
X180127400Y-65814600D01*
X180127400Y-65814600D02*
X181075900Y-64866100D01*
X181075900Y-64866100D02*
X187180600Y-64866100D01*
X187180600Y-64866100D02*
X188032700Y-65718200D01*
X188032700Y-65718200D02*
X188032700Y-66000000D01*
X189160000Y-66000000D02*
X188032700Y-66000000D01*
%TO.N,/S6*%
X185492700Y-58380000D02*
X185492700Y-58591300D01*
X185492700Y-58591300D02*
X180806600Y-63277400D01*
X180806600Y-63277400D02*
X179605200Y-63277400D01*
X179605200Y-63277400D02*
X174196100Y-68686500D01*
X174196100Y-68686500D02*
X174196100Y-70039600D01*
X186620000Y-58380000D02*
X185492700Y-58380000D01*
%TO.N,/OFF4*%
X152000000Y-94952700D02*
X152281800Y-94952700D01*
X152281800Y-94952700D02*
X157489600Y-89744900D01*
X157489600Y-89744900D02*
X157489600Y-64855800D01*
X152000000Y-96080000D02*
X152000000Y-94952700D01*
%TO.N,/R6*%
X159620000Y-108780000D02*
X159620000Y-107652700D01*
X184080000Y-58380000D02*
X182952700Y-58380000D01*
X182952700Y-58380000D02*
X182952700Y-59284300D01*
X182952700Y-59284300D02*
X166213400Y-76023600D01*
X166213400Y-76023600D02*
X166213400Y-101292900D01*
X166213400Y-101292900D02*
X159853600Y-107652700D01*
X159853600Y-107652700D02*
X159620000Y-107652700D01*
%TO.N,/OFF6*%
X164219000Y-76926300D02*
X181540000Y-59605300D01*
X181540000Y-59605300D02*
X181540000Y-59507300D01*
X164219000Y-76926300D02*
X164219000Y-101641000D01*
X164219000Y-101641000D02*
X159620000Y-106240000D01*
X181540000Y-58380000D02*
X181540000Y-59507300D01*
%TO.N,~PC_CLR*%
X126312900Y-113214400D02*
X126312900Y-60558400D01*
X126312900Y-60558400D02*
X125281800Y-59527300D01*
X125281800Y-59527300D02*
X125000000Y-59527300D01*
X155000000Y-138000000D02*
X134809000Y-117809000D01*
X134809000Y-117809000D02*
X130907500Y-117809000D01*
X130907500Y-117809000D02*
X126312900Y-113214400D01*
X126312900Y-113214400D02*
X126127300Y-113400000D01*
X125000000Y-113400000D02*
X126127300Y-113400000D01*
X125000000Y-58400000D02*
X125000000Y-59527300D01*
%TO.N,JMP_IN*%
X159000000Y-56127300D02*
X160127300Y-57254600D01*
X160127300Y-57254600D02*
X160127300Y-85016800D01*
X160127300Y-85016800D02*
X160061100Y-85083000D01*
X150323900Y-106192400D02*
X151641500Y-107510000D01*
X151641500Y-107510000D02*
X152384400Y-107510000D01*
X152384400Y-107510000D02*
X183114300Y-138239900D01*
X183114300Y-138239900D02*
X191622600Y-138239900D01*
X191622600Y-138239900D02*
X197922700Y-144540000D01*
X152000000Y-91000000D02*
X150323900Y-92676100D01*
X150323900Y-92676100D02*
X150323900Y-106192400D01*
X138773000Y-117138700D02*
X149719300Y-106192400D01*
X149719300Y-106192400D02*
X150323900Y-106192400D01*
X199000000Y-144540000D02*
X197922700Y-144540000D01*
X159000000Y-55000000D02*
X159000000Y-56127300D01*
X61620000Y-124000000D02*
X61620000Y-122972700D01*
X56000000Y-95000000D02*
X56000000Y-96202300D01*
X56000000Y-96202300D02*
X56450900Y-96202300D01*
X56450900Y-96202300D02*
X62665900Y-102417300D01*
X62665900Y-102417300D02*
X62665900Y-121926800D01*
X62665900Y-121926800D02*
X61620000Y-122972700D01*
%TO.N,~STALL*%
X134408000Y-113400000D02*
X134408000Y-113802200D01*
X134408000Y-113802200D02*
X162178100Y-141572300D01*
X162178100Y-141572300D02*
X190673000Y-141572300D01*
X190673000Y-141572300D02*
X194753400Y-145652700D01*
X194753400Y-145652700D02*
X202967300Y-145652700D01*
X202967300Y-145652700D02*
X204080000Y-144540000D01*
X132620000Y-59527300D02*
X132970400Y-59527300D01*
X132970400Y-59527300D02*
X134408000Y-60964900D01*
X134408000Y-60964900D02*
X134408000Y-113400000D01*
X133683700Y-113400000D02*
X134408000Y-113400000D01*
X132620000Y-58400000D02*
X132620000Y-59527300D01*
X132620000Y-113400000D02*
X133683700Y-113400000D01*
X56000000Y-100000000D02*
X61620000Y-105620000D01*
X61620000Y-105620000D02*
X61620000Y-119000000D01*
%TO.N,JMP_ABS*%
X94000000Y-98000000D02*
X94000000Y-99127300D01*
X94000000Y-123000000D02*
X94000000Y-121872700D01*
X94000000Y-121872700D02*
X92872600Y-120745300D01*
X92872600Y-120745300D02*
X92872600Y-112769900D01*
X92872600Y-112769900D02*
X93672500Y-111970000D01*
X93672500Y-111970000D02*
X94399900Y-111970000D01*
X94399900Y-111970000D02*
X95127300Y-111242600D01*
X95127300Y-111242600D02*
X95127300Y-99972700D01*
X95127300Y-99972700D02*
X94281900Y-99127300D01*
X94281900Y-99127300D02*
X94000000Y-99127300D01*
X94000000Y-58000000D02*
X94000000Y-59127300D01*
X94000000Y-98000000D02*
X94000000Y-96872700D01*
X94000000Y-96872700D02*
X92414600Y-95287300D01*
X92414600Y-95287300D02*
X92414600Y-60430900D01*
X92414600Y-60430900D02*
X93718200Y-59127300D01*
X93718200Y-59127300D02*
X94000000Y-59127300D01*
X94000000Y-35127300D02*
X93718200Y-35127300D01*
X93718200Y-35127300D02*
X92416300Y-36429200D01*
X92416300Y-36429200D02*
X92416300Y-55289000D01*
X92416300Y-55289000D02*
X94000000Y-56872700D01*
X94000000Y-58000000D02*
X94000000Y-56872700D01*
X94000000Y-34000000D02*
X94000000Y-35127300D01*
X61620000Y-129000000D02*
X61620000Y-127972700D01*
X56000000Y-102500000D02*
X56000000Y-122352700D01*
X56000000Y-122352700D02*
X61620000Y-127972700D01*
%TO.N,CLK*%
X132620000Y-115940000D02*
X132620000Y-114712700D01*
X132620000Y-60940000D02*
X132620000Y-62167300D01*
X132620000Y-62167300D02*
X133847400Y-63394700D01*
X133847400Y-63394700D02*
X133847400Y-88554800D01*
X133847400Y-88554800D02*
X133132200Y-89270000D01*
X133132200Y-89270000D02*
X132153600Y-89270000D01*
X132153600Y-89270000D02*
X131360300Y-90063300D01*
X131360300Y-90063300D02*
X131360300Y-113961600D01*
X131360300Y-113961600D02*
X132111400Y-114712700D01*
X132111400Y-114712700D02*
X132620000Y-114712700D01*
%TO.N,/N3*%
X101620000Y-44160000D02*
X101620000Y-45287300D01*
X101620000Y-45287300D02*
X101338200Y-45287300D01*
X101338200Y-45287300D02*
X100474900Y-46150600D01*
X100474900Y-46150600D02*
X100474900Y-47199100D01*
X100474900Y-47199100D02*
X101132600Y-47856800D01*
X101132600Y-47856800D02*
X103809300Y-47856800D01*
X103809300Y-47856800D02*
X105966100Y-45700000D01*
X105966100Y-45700000D02*
X125000000Y-45700000D01*
%TO.N,/N6*%
X125000000Y-53320000D02*
X125000000Y-54447300D01*
X101620000Y-75780000D02*
X105819800Y-75780000D01*
X105819800Y-75780000D02*
X124469800Y-57130000D01*
X124469800Y-57130000D02*
X125363000Y-57130000D01*
X125363000Y-57130000D02*
X126150200Y-56342800D01*
X126150200Y-56342800D02*
X126150200Y-55363900D01*
X126150200Y-55363900D02*
X125233600Y-54447300D01*
X125233600Y-54447300D02*
X125000000Y-54447300D01*
%TO.N,/N4*%
X94000000Y-65620000D02*
X94000000Y-64492700D01*
X94000000Y-64492700D02*
X93718200Y-64492700D01*
X93718200Y-64492700D02*
X92868900Y-63643400D01*
X92868900Y-63643400D02*
X92868900Y-62604000D01*
X92868900Y-62604000D02*
X93662800Y-61810100D01*
X93662800Y-61810100D02*
X94348000Y-61810100D01*
X94348000Y-61810100D02*
X107918100Y-48240000D01*
X107918100Y-48240000D02*
X125000000Y-48240000D01*
%TO.N,/N7*%
X125000000Y-55860000D02*
X123872700Y-55860000D01*
X101620000Y-68160000D02*
X111572700Y-68160000D01*
X111572700Y-68160000D02*
X123872700Y-55860000D01*
%TO.N,/N5*%
X94000000Y-73240000D02*
X94000000Y-72112700D01*
X94000000Y-72112700D02*
X94281900Y-72112700D01*
X94281900Y-72112700D02*
X95127300Y-71267300D01*
X95127300Y-71267300D02*
X95127300Y-62890200D01*
X95127300Y-62890200D02*
X107237500Y-50780000D01*
X107237500Y-50780000D02*
X125000000Y-50780000D01*
%TO.N,/N10*%
X125000000Y-98160000D02*
X123872700Y-98160000D01*
X101620000Y-115780000D02*
X106252700Y-115780000D01*
X106252700Y-115780000D02*
X123872700Y-98160000D01*
%TO.N,/N9*%
X123872700Y-95620000D02*
X105125300Y-114367400D01*
X125000000Y-95620000D02*
X123872700Y-95620000D01*
%TO.N,/N14*%
X101620000Y-139652700D02*
X101338200Y-139652700D01*
X101338200Y-139652700D02*
X100488600Y-138803100D01*
X100488600Y-138803100D02*
X100488600Y-132696700D01*
X100488600Y-132696700D02*
X101368200Y-131817100D01*
X101368200Y-131817100D02*
X102434400Y-131817100D01*
X102434400Y-131817100D02*
X124804200Y-109447300D01*
X124804200Y-109447300D02*
X125000000Y-109447300D01*
X125000000Y-108320000D02*
X125000000Y-109447300D01*
X101620000Y-140780000D02*
X101620000Y-139652700D01*
%TO.N,/N12*%
X125000000Y-103240000D02*
X125000000Y-104367300D01*
X94000000Y-130620000D02*
X95127300Y-130620000D01*
X95127300Y-130620000D02*
X98937300Y-126810000D01*
X98937300Y-126810000D02*
X101980400Y-126810000D01*
X101980400Y-126810000D02*
X124423100Y-104367300D01*
X124423100Y-104367300D02*
X125000000Y-104367300D01*
%TO.N,/N15*%
X125000000Y-110860000D02*
X125000000Y-111987300D01*
X101620000Y-133160000D02*
X102747300Y-133160000D01*
X102747300Y-133160000D02*
X123920000Y-111987300D01*
X123920000Y-111987300D02*
X125000000Y-111987300D01*
%TO.N,/N13*%
X125000000Y-105780000D02*
X125000000Y-106907300D01*
X94000000Y-138240000D02*
X94000000Y-137112700D01*
X94000000Y-137112700D02*
X94242300Y-137112700D01*
X94242300Y-137112700D02*
X99681100Y-131673900D01*
X99681100Y-131673900D02*
X99681100Y-130962400D01*
X99681100Y-130962400D02*
X101312200Y-129331300D01*
X101312200Y-129331300D02*
X102029800Y-129331300D01*
X102029800Y-129331300D02*
X124453800Y-106907300D01*
X124453800Y-106907300D02*
X125000000Y-106907300D01*
%TO.N,Net-(POT1-Pad1)*%
X123380000Y-132000000D02*
X124407300Y-132000000D01*
X150000000Y-143000000D02*
X135407300Y-143000000D01*
X135407300Y-143000000D02*
X124407300Y-132000000D01*
%TO.N,GNDREF*%
X226625000Y-25000000D02*
X225856200Y-25768800D01*
X225856200Y-25768800D02*
X225856200Y-26856100D01*
X226625000Y-25000000D02*
X225856200Y-24231200D01*
X225856200Y-24231200D02*
X225856200Y-23143800D01*
X94000000Y-81000000D02*
X94000000Y-75780000D01*
X94000000Y-92000000D02*
X94000000Y-81000000D01*
X221375000Y-25000000D02*
X222143900Y-24231100D01*
X222143900Y-24231100D02*
X222143900Y-23143800D01*
X222143900Y-26856100D02*
X221375000Y-26087200D01*
X221375000Y-26087200D02*
X221375000Y-25000000D01*
X130872800Y-151488700D02*
X131000000Y-151361500D01*
X131000000Y-151361500D02*
X131000000Y-139652000D01*
X222143900Y-23143800D02*
X223231200Y-23143800D01*
X223231200Y-23143800D02*
X224000000Y-22375000D01*
X215539100Y-55935400D02*
X213536000Y-57938500D01*
X203000000Y-88500000D02*
X204127300Y-88500000D01*
X217394100Y-84850000D02*
X207777300Y-84850000D01*
X207777300Y-84850000D02*
X204127300Y-88500000D01*
X101000000Y-150980500D02*
X101000000Y-145000000D01*
X94000000Y-115780000D02*
X94000000Y-114652700D01*
X94000000Y-114652700D02*
X94281800Y-114652700D01*
X94281800Y-114652700D02*
X99207100Y-109727400D01*
X99207100Y-109727400D02*
X99207100Y-103846600D01*
X99207100Y-103846600D02*
X101386400Y-101667300D01*
X101386400Y-101667300D02*
X101620000Y-101667300D01*
X101620000Y-124412700D02*
X101338200Y-124412700D01*
X101338200Y-124412700D02*
X94000000Y-117074500D01*
X94000000Y-117074500D02*
X94000000Y-115780000D01*
X101620000Y-100540000D02*
X101620000Y-101667300D01*
X159620000Y-96080000D02*
X159620000Y-97207300D01*
X152000000Y-93540000D02*
X152000000Y-92412700D01*
X152000000Y-87000000D02*
X153127400Y-88127400D01*
X153127400Y-88127400D02*
X153127400Y-92000000D01*
X153127400Y-92000000D02*
X152714700Y-92412700D01*
X152714700Y-92412700D02*
X152000000Y-92412700D01*
X151500000Y-67169600D02*
X151500000Y-86500000D01*
X151500000Y-86500000D02*
X152000000Y-87000000D01*
X179647800Y-151322800D02*
X178500000Y-150175000D01*
X178500000Y-150175000D02*
X178500000Y-143000000D01*
X94000000Y-51780000D02*
X94000000Y-50652700D01*
X94000000Y-50652700D02*
X94281900Y-50652700D01*
X94281900Y-50652700D02*
X95127300Y-49807300D01*
X95127300Y-49807300D02*
X95127300Y-41905400D01*
X95127300Y-41905400D02*
X100492700Y-36540000D01*
X101620000Y-36540000D02*
X100492700Y-36540000D01*
X94000000Y-29000000D02*
X100492700Y-35492700D01*
X100492700Y-35492700D02*
X100492700Y-36540000D01*
X202000000Y-58500000D02*
X202000000Y-59627300D01*
X202000000Y-59627300D02*
X196780000Y-64847300D01*
X196780000Y-64847300D02*
X196780000Y-66000000D01*
X132620000Y-35540000D02*
X143492700Y-35540000D01*
X143492700Y-35540000D02*
X150252700Y-42300000D01*
X224000000Y-44808800D02*
X224000000Y-27625000D01*
X157572800Y-107729000D02*
X157572800Y-106592700D01*
X157572800Y-106592700D02*
X159338200Y-104827300D01*
X159338200Y-104827300D02*
X159620000Y-104827300D01*
X101620000Y-99412700D02*
X101412700Y-99412700D01*
X101412700Y-99412700D02*
X94000000Y-92000000D01*
X131000000Y-137000000D02*
X125000000Y-131000000D01*
X125000000Y-131000000D02*
X125000000Y-120000000D01*
X217757800Y-123402800D02*
X205030700Y-123402800D01*
X205030700Y-123402800D02*
X204139700Y-124293800D01*
X217038400Y-46305200D02*
X203360500Y-32627300D01*
X203360500Y-32627300D02*
X203000000Y-32627300D01*
X101620000Y-125540000D02*
X101620000Y-124412700D01*
X159620000Y-103700000D02*
X159620000Y-104827300D01*
X159620000Y-97207300D02*
X159338200Y-97207300D01*
X159338200Y-97207300D02*
X158492600Y-98052900D01*
X158492600Y-98052900D02*
X158492600Y-101678900D01*
X158492600Y-101678900D02*
X159386400Y-102572700D01*
X159386400Y-102572700D02*
X159620000Y-102572700D01*
X159620000Y-96080000D02*
X159620000Y-93540000D01*
X159620000Y-103700000D02*
X159620000Y-102572700D01*
X152000000Y-101160000D02*
X152000000Y-100032700D01*
X152000000Y-93540000D02*
X150832500Y-94707500D01*
X150832500Y-94707500D02*
X150832500Y-99098800D01*
X150832500Y-99098800D02*
X151766400Y-100032700D01*
X151766400Y-100032700D02*
X152000000Y-100032700D01*
X151380000Y-49920000D02*
X151380000Y-48792700D01*
X150252700Y-42300000D02*
X150252700Y-47899000D01*
X150252700Y-47899000D02*
X151146400Y-48792700D01*
X151146400Y-48792700D02*
X151380000Y-48792700D01*
X151380000Y-42300000D02*
X150252700Y-42300000D01*
X151500000Y-67169600D02*
X151500000Y-61000000D01*
X56000000Y-153178200D02*
X56000000Y-154625000D01*
X125000000Y-66040000D02*
X125000000Y-88000000D01*
X125000000Y-60940000D02*
X125000000Y-66040000D01*
X125000000Y-88000000D02*
X125000000Y-90540000D01*
X125000000Y-120000000D02*
X125000000Y-115940000D01*
X125000000Y-33000000D02*
X125000000Y-35540000D01*
X151380000Y-52460000D02*
X151380000Y-53587300D01*
X151500000Y-61000000D02*
X150240700Y-59740700D01*
X150240700Y-59740700D02*
X150240700Y-54493000D01*
X150240700Y-54493000D02*
X151146400Y-53587300D01*
X151146400Y-53587300D02*
X151380000Y-53587300D01*
X151380000Y-52460000D02*
X151380000Y-49920000D01*
X151380000Y-42300000D02*
X152507300Y-42300000D01*
X152507300Y-42300000D02*
X157587300Y-37220000D01*
X157587300Y-37220000D02*
X159000000Y-37220000D01*
X101620000Y-100540000D02*
X101620000Y-99412700D01*
X203000000Y-31500000D02*
X203000000Y-32627300D01*
X203000000Y-32627300D02*
X197780000Y-37847300D01*
X197780000Y-37847300D02*
X197780000Y-39000000D01*
X202000000Y-123500000D02*
X202000000Y-124627300D01*
X202000000Y-124627300D02*
X196780000Y-129847300D01*
X196780000Y-129847300D02*
X196780000Y-131000000D01*
X178500000Y-143000000D02*
X181000000Y-143000000D01*
X201000000Y-137000000D02*
X201000000Y-136000000D01*
X201000000Y-136000000D02*
X198000000Y-133000000D01*
X198000000Y-132220000D02*
X196780000Y-131000000D01*
X198000000Y-133000000D02*
X198000000Y-132220000D01*
X66620100Y-54025000D02*
X68020400Y-54025000D01*
X68020400Y-54025000D02*
X69283900Y-52761500D01*
X74000000Y-51000000D02*
X74000000Y-37000000D01*
X74000000Y-37000000D02*
X72000000Y-35000000D01*
X62000000Y-35000000D02*
X58000000Y-39000000D01*
%TD*%
%TO.N,GNDREF*%
X58882788Y-42579582D02*
X58683797Y-42540000D01*
X58396203Y-42540000D01*
X58114134Y-42596107D01*
X57848431Y-42706165D01*
X57609304Y-42865944D01*
X57444742Y-43030506D01*
X57414502Y-42930820D01*
X57355537Y-42820506D01*
X57276185Y-42723815D01*
X57179494Y-42644463D01*
X57069180Y-42585498D01*
X56949482Y-42549188D01*
X56825000Y-42536928D01*
X55175000Y-42536928D01*
X55050518Y-42549188D01*
X54930820Y-42585498D01*
X54820506Y-42644463D01*
X54723815Y-42723815D01*
X54644463Y-42820506D01*
X54585498Y-42930820D01*
X54549188Y-43050518D01*
X54536928Y-43175000D01*
X54536928Y-44825000D01*
X54549188Y-44949482D01*
X54585498Y-45069180D01*
X54644463Y-45179494D01*
X54723815Y-45276185D01*
X54820506Y-45355537D01*
X54930820Y-45414502D01*
X55030506Y-45444742D01*
X54865944Y-45609304D01*
X54706165Y-45848431D01*
X54596107Y-46114134D01*
X54540000Y-46396203D01*
X54540000Y-46683797D01*
X54596107Y-46965866D01*
X54706165Y-47231569D01*
X54865944Y-47470696D01*
X55069304Y-47674056D01*
X55272759Y-47810000D01*
X55069304Y-47945944D01*
X54865944Y-48149304D01*
X54706165Y-48388431D01*
X54596107Y-48654134D01*
X54540000Y-48936203D01*
X54540000Y-49223797D01*
X54596107Y-49505866D01*
X54706165Y-49771569D01*
X54865944Y-50010696D01*
X55069304Y-50214056D01*
X55272759Y-50350000D01*
X55069304Y-50485944D01*
X54865944Y-50689304D01*
X54706165Y-50928431D01*
X54596107Y-51194134D01*
X54540000Y-51476203D01*
X54540000Y-51763797D01*
X54596107Y-52045866D01*
X54706165Y-52311569D01*
X54865944Y-52550696D01*
X55069304Y-52754056D01*
X55272759Y-52890000D01*
X55069304Y-53025944D01*
X54865944Y-53229304D01*
X54706165Y-53468431D01*
X54596107Y-53734134D01*
X54540000Y-54016203D01*
X54540000Y-54303797D01*
X54596107Y-54585866D01*
X54706165Y-54851569D01*
X54865944Y-55090696D01*
X55069304Y-55294056D01*
X55272759Y-55430000D01*
X55069304Y-55565944D01*
X54865944Y-55769304D01*
X54706165Y-56008431D01*
X54596107Y-56274134D01*
X54540000Y-56556203D01*
X54540000Y-56843797D01*
X54596107Y-57125866D01*
X54706165Y-57391569D01*
X54865944Y-57630696D01*
X55069304Y-57834056D01*
X55272759Y-57970000D01*
X55069304Y-58105944D01*
X54865944Y-58309304D01*
X54706165Y-58548431D01*
X54596107Y-58814134D01*
X54540000Y-59096203D01*
X54540000Y-59383797D01*
X54596107Y-59665866D01*
X54706165Y-59931569D01*
X54865944Y-60170696D01*
X55069304Y-60374056D01*
X55272759Y-60510000D01*
X55069304Y-60645944D01*
X54865944Y-60849304D01*
X54706165Y-61088431D01*
X54596107Y-61354134D01*
X54540000Y-61636203D01*
X54540000Y-61923797D01*
X54596107Y-62205866D01*
X54706165Y-62471569D01*
X54865944Y-62710696D01*
X55069304Y-62914056D01*
X55308431Y-63073835D01*
X55574134Y-63183893D01*
X55856203Y-63240000D01*
X56143797Y-63240000D01*
X56342788Y-63200418D01*
X67834100Y-74691731D01*
X67834101Y-116982367D01*
X67830414Y-117019800D01*
X67845127Y-117169178D01*
X67888699Y-117312815D01*
X67959455Y-117445192D01*
X68017553Y-117515984D01*
X68054679Y-117561222D01*
X68083749Y-117585079D01*
X69018207Y-118519537D01*
X69873044Y-151003341D01*
X69876135Y-151028045D01*
X69883986Y-151051671D01*
X69896296Y-151073311D01*
X69912591Y-151092134D01*
X69932245Y-151107416D01*
X69954503Y-151118571D01*
X69978509Y-151125168D01*
X70000864Y-151126997D01*
X217000864Y-150126997D01*
X217025623Y-150124388D01*
X217049398Y-150116999D01*
X217071274Y-150105114D01*
X217090411Y-150089190D01*
X217106074Y-150069837D01*
X217117661Y-150047802D01*
X217124725Y-150023929D01*
X217126977Y-149997604D01*
X216936249Y-139889000D01*
X224111001Y-139889000D01*
X224111000Y-144873000D01*
X221000000Y-144873000D01*
X220975224Y-144875440D01*
X220951399Y-144882667D01*
X220929443Y-144894403D01*
X220910197Y-144910197D01*
X220894403Y-144929443D01*
X220882667Y-144951399D01*
X220875440Y-144975224D01*
X220873000Y-145000000D01*
X220873000Y-151552519D01*
X220865000Y-151592738D01*
X220865000Y-152407262D01*
X220873000Y-152447481D01*
X220873000Y-154872264D01*
X59651767Y-153940349D01*
X59824748Y-153623388D01*
X60067964Y-152846024D01*
X60154851Y-152036147D01*
X60082069Y-151224882D01*
X59852415Y-150443403D01*
X59474715Y-149721744D01*
X59434550Y-149661634D01*
X58914155Y-149265450D01*
X56179605Y-152000000D01*
X56193748Y-152014143D01*
X56014143Y-152193748D01*
X56000000Y-152179605D01*
X55985858Y-152193748D01*
X55806253Y-152014143D01*
X55820395Y-152000000D01*
X53085845Y-149265450D01*
X52565450Y-149661634D01*
X52175252Y-150376612D01*
X51932036Y-151153976D01*
X51845149Y-151963853D01*
X51917931Y-152775118D01*
X52147585Y-153556597D01*
X52326270Y-153898005D01*
X49695810Y-153882800D01*
X49976094Y-153206135D01*
X50135000Y-152407262D01*
X50135000Y-151592738D01*
X49976094Y-150793865D01*
X49664389Y-150041343D01*
X49211864Y-149364091D01*
X48933618Y-149085845D01*
X53265450Y-149085845D01*
X56000000Y-151820395D01*
X58734550Y-149085845D01*
X58338366Y-148565450D01*
X57623388Y-148175252D01*
X56846024Y-147932036D01*
X56036147Y-147845149D01*
X55224882Y-147917931D01*
X54443403Y-148147585D01*
X53721744Y-148525285D01*
X53661634Y-148565450D01*
X53265450Y-149085845D01*
X48933618Y-149085845D01*
X48635909Y-148788136D01*
X48127000Y-148448094D01*
X48127000Y-129921269D01*
X53258336Y-129921269D01*
X53317797Y-130155037D01*
X53556242Y-130265934D01*
X53811740Y-130328183D01*
X54074473Y-130339390D01*
X54334344Y-130299125D01*
X54581366Y-130208935D01*
X54682203Y-130155037D01*
X54741664Y-129921269D01*
X54000000Y-129179605D01*
X53258336Y-129921269D01*
X48127000Y-129921269D01*
X48127000Y-129074473D01*
X52660610Y-129074473D01*
X52700875Y-129334344D01*
X52791065Y-129581366D01*
X52844963Y-129682203D01*
X53078731Y-129741664D01*
X53820395Y-129000000D01*
X54179605Y-129000000D01*
X54921269Y-129741664D01*
X55155037Y-129682203D01*
X55265934Y-129443758D01*
X55328183Y-129188260D01*
X55339390Y-128925527D01*
X55299125Y-128665656D01*
X55208935Y-128418634D01*
X55155037Y-128317797D01*
X54921269Y-128258336D01*
X54179605Y-129000000D01*
X53820395Y-129000000D01*
X53078731Y-128258336D01*
X52844963Y-128317797D01*
X52734066Y-128556242D01*
X52671817Y-128811740D01*
X52660610Y-129074473D01*
X48127000Y-129074473D01*
X48127000Y-128078731D01*
X53258336Y-128078731D01*
X54000000Y-128820395D01*
X54741664Y-128078731D01*
X54682203Y-127844963D01*
X54443758Y-127734066D01*
X54188260Y-127671817D01*
X53925527Y-127660610D01*
X53665656Y-127700875D01*
X53418634Y-127791065D01*
X53317797Y-127844963D01*
X53258336Y-128078731D01*
X48127000Y-128078731D01*
X48127000Y-124921269D01*
X53258336Y-124921269D01*
X53317797Y-125155037D01*
X53556242Y-125265934D01*
X53811740Y-125328183D01*
X54074473Y-125339390D01*
X54334344Y-125299125D01*
X54581366Y-125208935D01*
X54682203Y-125155037D01*
X54741664Y-124921269D01*
X54000000Y-124179605D01*
X53258336Y-124921269D01*
X48127000Y-124921269D01*
X48127000Y-124074473D01*
X52660610Y-124074473D01*
X52700875Y-124334344D01*
X52791065Y-124581366D01*
X52844963Y-124682203D01*
X53078731Y-124741664D01*
X53820395Y-124000000D01*
X54179605Y-124000000D01*
X54921269Y-124741664D01*
X55155037Y-124682203D01*
X55265934Y-124443758D01*
X55328183Y-124188260D01*
X55339390Y-123925527D01*
X55299125Y-123665656D01*
X55208935Y-123418634D01*
X55155037Y-123317797D01*
X54921269Y-123258336D01*
X54179605Y-124000000D01*
X53820395Y-124000000D01*
X53078731Y-123258336D01*
X52844963Y-123317797D01*
X52734066Y-123556242D01*
X52671817Y-123811740D01*
X52660610Y-124074473D01*
X48127000Y-124074473D01*
X48127000Y-123078731D01*
X53258336Y-123078731D01*
X54000000Y-123820395D01*
X54741664Y-123078731D01*
X54682203Y-122844963D01*
X54443758Y-122734066D01*
X54188260Y-122671817D01*
X53925527Y-122660610D01*
X53665656Y-122700875D01*
X53418634Y-122791065D01*
X53317797Y-122844963D01*
X53258336Y-123078731D01*
X48127000Y-123078731D01*
X48127000Y-119921269D01*
X53258336Y-119921269D01*
X53317797Y-120155037D01*
X53556242Y-120265934D01*
X53811740Y-120328183D01*
X54074473Y-120339390D01*
X54334344Y-120299125D01*
X54581366Y-120208935D01*
X54682203Y-120155037D01*
X54741664Y-119921269D01*
X54000000Y-119179605D01*
X53258336Y-119921269D01*
X48127000Y-119921269D01*
X48127000Y-119074473D01*
X52660610Y-119074473D01*
X52700875Y-119334344D01*
X52791065Y-119581366D01*
X52844963Y-119682203D01*
X53078731Y-119741664D01*
X53820395Y-119000000D01*
X54179605Y-119000000D01*
X54921269Y-119741664D01*
X55155037Y-119682203D01*
X55238001Y-119503818D01*
X55238001Y-122315267D01*
X55234314Y-122352700D01*
X55249027Y-122502078D01*
X55292599Y-122645715D01*
X55363355Y-122778092D01*
X55400475Y-122823322D01*
X55458579Y-122894122D01*
X55487649Y-122917979D01*
X60650847Y-128081178D01*
X60583038Y-128148987D01*
X60436939Y-128367641D01*
X60336304Y-128610595D01*
X60285000Y-128868514D01*
X60285000Y-129131486D01*
X60336304Y-129389405D01*
X60436939Y-129632359D01*
X60583038Y-129851013D01*
X60768987Y-130036962D01*
X60987641Y-130183061D01*
X61230595Y-130283696D01*
X61488514Y-130335000D01*
X61751486Y-130335000D01*
X62009405Y-130283696D01*
X62252359Y-130183061D01*
X62471013Y-130036962D01*
X62656962Y-129851013D01*
X62803061Y-129632359D01*
X62903696Y-129389405D01*
X62955000Y-129131486D01*
X62955000Y-128868514D01*
X62903696Y-128610595D01*
X62803061Y-128367641D01*
X62656962Y-128148987D01*
X62471013Y-127963038D01*
X62378656Y-127901328D01*
X62373105Y-127844963D01*
X62370974Y-127823322D01*
X62327402Y-127679685D01*
X62323197Y-127671817D01*
X62279114Y-127589345D01*
X62256645Y-127547308D01*
X62161422Y-127431278D01*
X62132352Y-127407421D01*
X56762000Y-122037070D01*
X56762000Y-103806909D01*
X56962569Y-103672893D01*
X57172893Y-103462569D01*
X57338144Y-103215253D01*
X57451971Y-102940451D01*
X57510000Y-102648722D01*
X57510000Y-102587630D01*
X60858000Y-105935631D01*
X60858001Y-117903561D01*
X60768987Y-117963038D01*
X60583038Y-118148987D01*
X60436939Y-118367641D01*
X60336304Y-118610595D01*
X60285000Y-118868514D01*
X60285000Y-119131486D01*
X60336304Y-119389405D01*
X60436939Y-119632359D01*
X60583038Y-119851013D01*
X60768987Y-120036962D01*
X60987641Y-120183061D01*
X61230595Y-120283696D01*
X61488514Y-120335000D01*
X61751486Y-120335000D01*
X61903901Y-120304682D01*
X61903901Y-121611168D01*
X61107649Y-122407421D01*
X61078579Y-122431278D01*
X61054722Y-122460348D01*
X61054721Y-122460349D01*
X60983355Y-122547308D01*
X60912599Y-122679685D01*
X60869027Y-122823322D01*
X60861344Y-122901328D01*
X60768987Y-122963038D01*
X60583038Y-123148987D01*
X60436939Y-123367641D01*
X60336304Y-123610595D01*
X60285000Y-123868514D01*
X60285000Y-124131486D01*
X60336304Y-124389405D01*
X60436939Y-124632359D01*
X60583038Y-124851013D01*
X60768987Y-125036962D01*
X60987641Y-125183061D01*
X61230595Y-125283696D01*
X61488514Y-125335000D01*
X61751486Y-125335000D01*
X62009405Y-125283696D01*
X62252359Y-125183061D01*
X62471013Y-125036962D01*
X62656962Y-124851013D01*
X62803061Y-124632359D01*
X62903696Y-124389405D01*
X62955000Y-124131486D01*
X62955000Y-123868514D01*
X62903696Y-123610595D01*
X62803061Y-123367641D01*
X62656962Y-123148987D01*
X62589153Y-123081178D01*
X63178251Y-122492079D01*
X63207322Y-122468222D01*
X63237641Y-122431278D01*
X63302545Y-122352193D01*
X63348991Y-122265298D01*
X63373302Y-122219815D01*
X63416874Y-122076178D01*
X63427900Y-121964226D01*
X63427900Y-121964223D01*
X63431586Y-121926800D01*
X63427900Y-121889377D01*
X63427900Y-102454722D01*
X63431586Y-102417299D01*
X63427724Y-102378092D01*
X63416874Y-102267922D01*
X63373302Y-102124285D01*
X63372837Y-102123414D01*
X63361432Y-102102078D01*
X63302545Y-101991908D01*
X63207322Y-101875878D01*
X63178253Y-101852022D01*
X57457852Y-96131622D01*
X57464502Y-96119180D01*
X57500812Y-95999482D01*
X57513072Y-95875000D01*
X57513072Y-94125000D01*
X57500812Y-94000518D01*
X57464502Y-93880820D01*
X57405537Y-93770506D01*
X57326185Y-93673815D01*
X57229494Y-93594463D01*
X57119180Y-93535498D01*
X56999482Y-93499188D01*
X56875000Y-93486928D01*
X55125000Y-93486928D01*
X55000518Y-93499188D01*
X54880820Y-93535498D01*
X54770506Y-93594463D01*
X54673815Y-93673815D01*
X54594463Y-93770506D01*
X54535498Y-93880820D01*
X54499188Y-94000518D01*
X54486928Y-94125000D01*
X54486928Y-95875000D01*
X54499188Y-95999482D01*
X54535498Y-96119180D01*
X54594463Y-96229494D01*
X54673815Y-96326185D01*
X54770506Y-96405537D01*
X54880820Y-96464502D01*
X54895564Y-96468974D01*
X54827107Y-96537431D01*
X54661856Y-96784747D01*
X54548029Y-97059549D01*
X54490000Y-97351278D01*
X54490000Y-97648722D01*
X54548029Y-97940451D01*
X54661856Y-98215253D01*
X54827107Y-98462569D01*
X55037431Y-98672893D01*
X55152830Y-98750000D01*
X55037431Y-98827107D01*
X54827107Y-99037431D01*
X54661856Y-99284747D01*
X54548029Y-99559549D01*
X54490000Y-99851278D01*
X54490000Y-100148722D01*
X54548029Y-100440451D01*
X54661856Y-100715253D01*
X54827107Y-100962569D01*
X55037431Y-101172893D01*
X55152830Y-101250000D01*
X55037431Y-101327107D01*
X54827107Y-101537431D01*
X54661856Y-101784747D01*
X54548029Y-102059549D01*
X54490000Y-102351278D01*
X54490000Y-102648722D01*
X54548029Y-102940451D01*
X54661856Y-103215253D01*
X54827107Y-103462569D01*
X55037431Y-103672893D01*
X55238000Y-103806909D01*
X55238001Y-118498243D01*
X55208935Y-118418634D01*
X55155037Y-118317797D01*
X54921269Y-118258336D01*
X54179605Y-119000000D01*
X53820395Y-119000000D01*
X53078731Y-118258336D01*
X52844963Y-118317797D01*
X52734066Y-118556242D01*
X52671817Y-118811740D01*
X52660610Y-119074473D01*
X48127000Y-119074473D01*
X48127000Y-118078731D01*
X53258336Y-118078731D01*
X54000000Y-118820395D01*
X54741664Y-118078731D01*
X54682203Y-117844963D01*
X54443758Y-117734066D01*
X54188260Y-117671817D01*
X53925527Y-117660610D01*
X53665656Y-117700875D01*
X53418634Y-117791065D01*
X53317797Y-117844963D01*
X53258336Y-118078731D01*
X48127000Y-118078731D01*
X48127000Y-37127000D01*
X64335369Y-37127000D01*
X58882788Y-42579582D01*
%TA.AperFunction,Conductor*%
D29*
G36*
X58882788Y-42579582D02*
G01*
X58683797Y-42540000D01*
X58396203Y-42540000D01*
X58114134Y-42596107D01*
X57848431Y-42706165D01*
X57609304Y-42865944D01*
X57444742Y-43030506D01*
X57414502Y-42930820D01*
X57355537Y-42820506D01*
X57276185Y-42723815D01*
X57179494Y-42644463D01*
X57069180Y-42585498D01*
X56949482Y-42549188D01*
X56825000Y-42536928D01*
X55175000Y-42536928D01*
X55050518Y-42549188D01*
X54930820Y-42585498D01*
X54820506Y-42644463D01*
X54723815Y-42723815D01*
X54644463Y-42820506D01*
X54585498Y-42930820D01*
X54549188Y-43050518D01*
X54536928Y-43175000D01*
X54536928Y-44825000D01*
X54549188Y-44949482D01*
X54585498Y-45069180D01*
X54644463Y-45179494D01*
X54723815Y-45276185D01*
X54820506Y-45355537D01*
X54930820Y-45414502D01*
X55030506Y-45444742D01*
X54865944Y-45609304D01*
X54706165Y-45848431D01*
X54596107Y-46114134D01*
X54540000Y-46396203D01*
X54540000Y-46683797D01*
X54596107Y-46965866D01*
X54706165Y-47231569D01*
X54865944Y-47470696D01*
X55069304Y-47674056D01*
X55272759Y-47810000D01*
X55069304Y-47945944D01*
X54865944Y-48149304D01*
X54706165Y-48388431D01*
X54596107Y-48654134D01*
X54540000Y-48936203D01*
X54540000Y-49223797D01*
X54596107Y-49505866D01*
X54706165Y-49771569D01*
X54865944Y-50010696D01*
X55069304Y-50214056D01*
X55272759Y-50350000D01*
X55069304Y-50485944D01*
X54865944Y-50689304D01*
X54706165Y-50928431D01*
X54596107Y-51194134D01*
X54540000Y-51476203D01*
X54540000Y-51763797D01*
X54596107Y-52045866D01*
X54706165Y-52311569D01*
X54865944Y-52550696D01*
X55069304Y-52754056D01*
X55272759Y-52890000D01*
X55069304Y-53025944D01*
X54865944Y-53229304D01*
X54706165Y-53468431D01*
X54596107Y-53734134D01*
X54540000Y-54016203D01*
X54540000Y-54303797D01*
X54596107Y-54585866D01*
X54706165Y-54851569D01*
X54865944Y-55090696D01*
X55069304Y-55294056D01*
X55272759Y-55430000D01*
X55069304Y-55565944D01*
X54865944Y-55769304D01*
X54706165Y-56008431D01*
X54596107Y-56274134D01*
X54540000Y-56556203D01*
X54540000Y-56843797D01*
X54596107Y-57125866D01*
X54706165Y-57391569D01*
X54865944Y-57630696D01*
X55069304Y-57834056D01*
X55272759Y-57970000D01*
X55069304Y-58105944D01*
X54865944Y-58309304D01*
X54706165Y-58548431D01*
X54596107Y-58814134D01*
X54540000Y-59096203D01*
X54540000Y-59383797D01*
X54596107Y-59665866D01*
X54706165Y-59931569D01*
X54865944Y-60170696D01*
X55069304Y-60374056D01*
X55272759Y-60510000D01*
X55069304Y-60645944D01*
X54865944Y-60849304D01*
X54706165Y-61088431D01*
X54596107Y-61354134D01*
X54540000Y-61636203D01*
X54540000Y-61923797D01*
X54596107Y-62205866D01*
X54706165Y-62471569D01*
X54865944Y-62710696D01*
X55069304Y-62914056D01*
X55308431Y-63073835D01*
X55574134Y-63183893D01*
X55856203Y-63240000D01*
X56143797Y-63240000D01*
X56342788Y-63200418D01*
X67834100Y-74691731D01*
X67834101Y-116982367D01*
X67830414Y-117019800D01*
X67845127Y-117169178D01*
X67888699Y-117312815D01*
X67959455Y-117445192D01*
X68017553Y-117515984D01*
X68054679Y-117561222D01*
X68083749Y-117585079D01*
X69018207Y-118519537D01*
X69873044Y-151003341D01*
X69876135Y-151028045D01*
X69883986Y-151051671D01*
X69896296Y-151073311D01*
X69912591Y-151092134D01*
X69932245Y-151107416D01*
X69954503Y-151118571D01*
X69978509Y-151125168D01*
X70000864Y-151126997D01*
X217000864Y-150126997D01*
X217025623Y-150124388D01*
X217049398Y-150116999D01*
X217071274Y-150105114D01*
X217090411Y-150089190D01*
X217106074Y-150069837D01*
X217117661Y-150047802D01*
X217124725Y-150023929D01*
X217126977Y-149997604D01*
X216936249Y-139889000D01*
X224111001Y-139889000D01*
X224111000Y-144873000D01*
X221000000Y-144873000D01*
X220975224Y-144875440D01*
X220951399Y-144882667D01*
X220929443Y-144894403D01*
X220910197Y-144910197D01*
X220894403Y-144929443D01*
X220882667Y-144951399D01*
X220875440Y-144975224D01*
X220873000Y-145000000D01*
X220873000Y-151552519D01*
X220865000Y-151592738D01*
X220865000Y-152407262D01*
X220873000Y-152447481D01*
X220873000Y-154872264D01*
X59651767Y-153940349D01*
X59824748Y-153623388D01*
X60067964Y-152846024D01*
X60154851Y-152036147D01*
X60082069Y-151224882D01*
X59852415Y-150443403D01*
X59474715Y-149721744D01*
X59434550Y-149661634D01*
X58914155Y-149265450D01*
X56179605Y-152000000D01*
X56193748Y-152014143D01*
X56014143Y-152193748D01*
X56000000Y-152179605D01*
X55985858Y-152193748D01*
X55806253Y-152014143D01*
X55820395Y-152000000D01*
X53085845Y-149265450D01*
X52565450Y-149661634D01*
X52175252Y-150376612D01*
X51932036Y-151153976D01*
X51845149Y-151963853D01*
X51917931Y-152775118D01*
X52147585Y-153556597D01*
X52326270Y-153898005D01*
X49695810Y-153882800D01*
X49976094Y-153206135D01*
X50135000Y-152407262D01*
X50135000Y-151592738D01*
X49976094Y-150793865D01*
X49664389Y-150041343D01*
X49211864Y-149364091D01*
X48933618Y-149085845D01*
X53265450Y-149085845D01*
X56000000Y-151820395D01*
X58734550Y-149085845D01*
X58338366Y-148565450D01*
X57623388Y-148175252D01*
X56846024Y-147932036D01*
X56036147Y-147845149D01*
X55224882Y-147917931D01*
X54443403Y-148147585D01*
X53721744Y-148525285D01*
X53661634Y-148565450D01*
X53265450Y-149085845D01*
X48933618Y-149085845D01*
X48635909Y-148788136D01*
X48127000Y-148448094D01*
X48127000Y-129921269D01*
X53258336Y-129921269D01*
X53317797Y-130155037D01*
X53556242Y-130265934D01*
X53811740Y-130328183D01*
X54074473Y-130339390D01*
X54334344Y-130299125D01*
X54581366Y-130208935D01*
X54682203Y-130155037D01*
X54741664Y-129921269D01*
X54000000Y-129179605D01*
X53258336Y-129921269D01*
X48127000Y-129921269D01*
X48127000Y-129074473D01*
X52660610Y-129074473D01*
X52700875Y-129334344D01*
X52791065Y-129581366D01*
X52844963Y-129682203D01*
X53078731Y-129741664D01*
X53820395Y-129000000D01*
X54179605Y-129000000D01*
X54921269Y-129741664D01*
X55155037Y-129682203D01*
X55265934Y-129443758D01*
X55328183Y-129188260D01*
X55339390Y-128925527D01*
X55299125Y-128665656D01*
X55208935Y-128418634D01*
X55155037Y-128317797D01*
X54921269Y-128258336D01*
X54179605Y-129000000D01*
X53820395Y-129000000D01*
X53078731Y-128258336D01*
X52844963Y-128317797D01*
X52734066Y-128556242D01*
X52671817Y-128811740D01*
X52660610Y-129074473D01*
X48127000Y-129074473D01*
X48127000Y-128078731D01*
X53258336Y-128078731D01*
X54000000Y-128820395D01*
X54741664Y-128078731D01*
X54682203Y-127844963D01*
X54443758Y-127734066D01*
X54188260Y-127671817D01*
X53925527Y-127660610D01*
X53665656Y-127700875D01*
X53418634Y-127791065D01*
X53317797Y-127844963D01*
X53258336Y-128078731D01*
X48127000Y-128078731D01*
X48127000Y-124921269D01*
X53258336Y-124921269D01*
X53317797Y-125155037D01*
X53556242Y-125265934D01*
X53811740Y-125328183D01*
X54074473Y-125339390D01*
X54334344Y-125299125D01*
X54581366Y-125208935D01*
X54682203Y-125155037D01*
X54741664Y-124921269D01*
X54000000Y-124179605D01*
X53258336Y-124921269D01*
X48127000Y-124921269D01*
X48127000Y-124074473D01*
X52660610Y-124074473D01*
X52700875Y-124334344D01*
X52791065Y-124581366D01*
X52844963Y-124682203D01*
X53078731Y-124741664D01*
X53820395Y-124000000D01*
X54179605Y-124000000D01*
X54921269Y-124741664D01*
X55155037Y-124682203D01*
X55265934Y-124443758D01*
X55328183Y-124188260D01*
X55339390Y-123925527D01*
X55299125Y-123665656D01*
X55208935Y-123418634D01*
X55155037Y-123317797D01*
X54921269Y-123258336D01*
X54179605Y-124000000D01*
X53820395Y-124000000D01*
X53078731Y-123258336D01*
X52844963Y-123317797D01*
X52734066Y-123556242D01*
X52671817Y-123811740D01*
X52660610Y-124074473D01*
X48127000Y-124074473D01*
X48127000Y-123078731D01*
X53258336Y-123078731D01*
X54000000Y-123820395D01*
X54741664Y-123078731D01*
X54682203Y-122844963D01*
X54443758Y-122734066D01*
X54188260Y-122671817D01*
X53925527Y-122660610D01*
X53665656Y-122700875D01*
X53418634Y-122791065D01*
X53317797Y-122844963D01*
X53258336Y-123078731D01*
X48127000Y-123078731D01*
X48127000Y-119921269D01*
X53258336Y-119921269D01*
X53317797Y-120155037D01*
X53556242Y-120265934D01*
X53811740Y-120328183D01*
X54074473Y-120339390D01*
X54334344Y-120299125D01*
X54581366Y-120208935D01*
X54682203Y-120155037D01*
X54741664Y-119921269D01*
X54000000Y-119179605D01*
X53258336Y-119921269D01*
X48127000Y-119921269D01*
X48127000Y-119074473D01*
X52660610Y-119074473D01*
X52700875Y-119334344D01*
X52791065Y-119581366D01*
X52844963Y-119682203D01*
X53078731Y-119741664D01*
X53820395Y-119000000D01*
X54179605Y-119000000D01*
X54921269Y-119741664D01*
X55155037Y-119682203D01*
X55238001Y-119503818D01*
X55238001Y-122315267D01*
X55234314Y-122352700D01*
X55249027Y-122502078D01*
X55292599Y-122645715D01*
X55363355Y-122778092D01*
X55400475Y-122823322D01*
X55458579Y-122894122D01*
X55487649Y-122917979D01*
X60650847Y-128081178D01*
X60583038Y-128148987D01*
X60436939Y-128367641D01*
X60336304Y-128610595D01*
X60285000Y-128868514D01*
X60285000Y-129131486D01*
X60336304Y-129389405D01*
X60436939Y-129632359D01*
X60583038Y-129851013D01*
X60768987Y-130036962D01*
X60987641Y-130183061D01*
X61230595Y-130283696D01*
X61488514Y-130335000D01*
X61751486Y-130335000D01*
X62009405Y-130283696D01*
X62252359Y-130183061D01*
X62471013Y-130036962D01*
X62656962Y-129851013D01*
X62803061Y-129632359D01*
X62903696Y-129389405D01*
X62955000Y-129131486D01*
X62955000Y-128868514D01*
X62903696Y-128610595D01*
X62803061Y-128367641D01*
X62656962Y-128148987D01*
X62471013Y-127963038D01*
X62378656Y-127901328D01*
X62373105Y-127844963D01*
X62370974Y-127823322D01*
X62327402Y-127679685D01*
X62323197Y-127671817D01*
X62279114Y-127589345D01*
X62256645Y-127547308D01*
X62161422Y-127431278D01*
X62132352Y-127407421D01*
X56762000Y-122037070D01*
X56762000Y-103806909D01*
X56962569Y-103672893D01*
X57172893Y-103462569D01*
X57338144Y-103215253D01*
X57451971Y-102940451D01*
X57510000Y-102648722D01*
X57510000Y-102587630D01*
X60858000Y-105935631D01*
X60858001Y-117903561D01*
X60768987Y-117963038D01*
X60583038Y-118148987D01*
X60436939Y-118367641D01*
X60336304Y-118610595D01*
X60285000Y-118868514D01*
X60285000Y-119131486D01*
X60336304Y-119389405D01*
X60436939Y-119632359D01*
X60583038Y-119851013D01*
X60768987Y-120036962D01*
X60987641Y-120183061D01*
X61230595Y-120283696D01*
X61488514Y-120335000D01*
X61751486Y-120335000D01*
X61903901Y-120304682D01*
X61903901Y-121611168D01*
X61107649Y-122407421D01*
X61078579Y-122431278D01*
X61054722Y-122460348D01*
X61054721Y-122460349D01*
X60983355Y-122547308D01*
X60912599Y-122679685D01*
X60869027Y-122823322D01*
X60861344Y-122901328D01*
X60768987Y-122963038D01*
X60583038Y-123148987D01*
X60436939Y-123367641D01*
X60336304Y-123610595D01*
X60285000Y-123868514D01*
X60285000Y-124131486D01*
X60336304Y-124389405D01*
X60436939Y-124632359D01*
X60583038Y-124851013D01*
X60768987Y-125036962D01*
X60987641Y-125183061D01*
X61230595Y-125283696D01*
X61488514Y-125335000D01*
X61751486Y-125335000D01*
X62009405Y-125283696D01*
X62252359Y-125183061D01*
X62471013Y-125036962D01*
X62656962Y-124851013D01*
X62803061Y-124632359D01*
X62903696Y-124389405D01*
X62955000Y-124131486D01*
X62955000Y-123868514D01*
X62903696Y-123610595D01*
X62803061Y-123367641D01*
X62656962Y-123148987D01*
X62589153Y-123081178D01*
X63178251Y-122492079D01*
X63207322Y-122468222D01*
X63237641Y-122431278D01*
X63302545Y-122352193D01*
X63348991Y-122265298D01*
X63373302Y-122219815D01*
X63416874Y-122076178D01*
X63427900Y-121964226D01*
X63427900Y-121964223D01*
X63431586Y-121926800D01*
X63427900Y-121889377D01*
X63427900Y-102454722D01*
X63431586Y-102417299D01*
X63427724Y-102378092D01*
X63416874Y-102267922D01*
X63373302Y-102124285D01*
X63372837Y-102123414D01*
X63361432Y-102102078D01*
X63302545Y-101991908D01*
X63207322Y-101875878D01*
X63178253Y-101852022D01*
X57457852Y-96131622D01*
X57464502Y-96119180D01*
X57500812Y-95999482D01*
X57513072Y-95875000D01*
X57513072Y-94125000D01*
X57500812Y-94000518D01*
X57464502Y-93880820D01*
X57405537Y-93770506D01*
X57326185Y-93673815D01*
X57229494Y-93594463D01*
X57119180Y-93535498D01*
X56999482Y-93499188D01*
X56875000Y-93486928D01*
X55125000Y-93486928D01*
X55000518Y-93499188D01*
X54880820Y-93535498D01*
X54770506Y-93594463D01*
X54673815Y-93673815D01*
X54594463Y-93770506D01*
X54535498Y-93880820D01*
X54499188Y-94000518D01*
X54486928Y-94125000D01*
X54486928Y-95875000D01*
X54499188Y-95999482D01*
X54535498Y-96119180D01*
X54594463Y-96229494D01*
X54673815Y-96326185D01*
X54770506Y-96405537D01*
X54880820Y-96464502D01*
X54895564Y-96468974D01*
X54827107Y-96537431D01*
X54661856Y-96784747D01*
X54548029Y-97059549D01*
X54490000Y-97351278D01*
X54490000Y-97648722D01*
X54548029Y-97940451D01*
X54661856Y-98215253D01*
X54827107Y-98462569D01*
X55037431Y-98672893D01*
X55152830Y-98750000D01*
X55037431Y-98827107D01*
X54827107Y-99037431D01*
X54661856Y-99284747D01*
X54548029Y-99559549D01*
X54490000Y-99851278D01*
X54490000Y-100148722D01*
X54548029Y-100440451D01*
X54661856Y-100715253D01*
X54827107Y-100962569D01*
X55037431Y-101172893D01*
X55152830Y-101250000D01*
X55037431Y-101327107D01*
X54827107Y-101537431D01*
X54661856Y-101784747D01*
X54548029Y-102059549D01*
X54490000Y-102351278D01*
X54490000Y-102648722D01*
X54548029Y-102940451D01*
X54661856Y-103215253D01*
X54827107Y-103462569D01*
X55037431Y-103672893D01*
X55238000Y-103806909D01*
X55238001Y-118498243D01*
X55208935Y-118418634D01*
X55155037Y-118317797D01*
X54921269Y-118258336D01*
X54179605Y-119000000D01*
X53820395Y-119000000D01*
X53078731Y-118258336D01*
X52844963Y-118317797D01*
X52734066Y-118556242D01*
X52671817Y-118811740D01*
X52660610Y-119074473D01*
X48127000Y-119074473D01*
X48127000Y-118078731D01*
X53258336Y-118078731D01*
X54000000Y-118820395D01*
X54741664Y-118078731D01*
X54682203Y-117844963D01*
X54443758Y-117734066D01*
X54188260Y-117671817D01*
X53925527Y-117660610D01*
X53665656Y-117700875D01*
X53418634Y-117791065D01*
X53317797Y-117844963D01*
X53258336Y-118078731D01*
X48127000Y-118078731D01*
X48127000Y-37127000D01*
X64335369Y-37127000D01*
X58882788Y-42579582D01*
G37*
%TD.AperFunction*%
D27*
X235873000Y-144873000D02*
X225889000Y-144873000D01*
X225889000Y-139492702D01*
X227186903Y-139492702D01*
X227258486Y-139736671D01*
X227513996Y-139857571D01*
X227788184Y-139926300D01*
X228070512Y-139940217D01*
X228350130Y-139898787D01*
X228616292Y-139803603D01*
X228741514Y-139736671D01*
X228813097Y-139492702D01*
X228000000Y-138679605D01*
X227186903Y-139492702D01*
X225889000Y-139492702D01*
X225889000Y-139368235D01*
X226576164Y-138681071D01*
X226601213Y-138850130D01*
X226696397Y-139116292D01*
X226763329Y-139241514D01*
X227007298Y-139313097D01*
X227820395Y-138500000D01*
X228179605Y-138500000D01*
X228992702Y-139313097D01*
X229236671Y-139241514D01*
X229357571Y-138986004D01*
X229426300Y-138711816D01*
X229440217Y-138429488D01*
X229398787Y-138149870D01*
X229303603Y-137883708D01*
X229236671Y-137758486D01*
X228992702Y-137686903D01*
X228179605Y-138500000D01*
X227820395Y-138500000D01*
X227806253Y-138485858D01*
X227985858Y-138306253D01*
X228000000Y-138320395D01*
X228813097Y-137507298D01*
X228792785Y-137438072D01*
X228800000Y-137438072D01*
X228924482Y-137425812D01*
X229044180Y-137389502D01*
X229154494Y-137330537D01*
X229251185Y-137251185D01*
X229330537Y-137154494D01*
X229389502Y-137044180D01*
X229425812Y-136924482D01*
X229438072Y-136800000D01*
X229438072Y-135200000D01*
X229425812Y-135075518D01*
X229389502Y-134955820D01*
X229330537Y-134845506D01*
X229252508Y-134750427D01*
X229597743Y-134405193D01*
X229631659Y-134377359D01*
X229742753Y-134241991D01*
X229825303Y-134087551D01*
X229871258Y-133936055D01*
X229876136Y-133919975D01*
X229893301Y-133745700D01*
X229889000Y-133702032D01*
X229889000Y-126072161D01*
X229964449Y-126031833D01*
X230152502Y-125877502D01*
X230306833Y-125689449D01*
X230421511Y-125474901D01*
X230492130Y-125242102D01*
X230515975Y-125000000D01*
X230492130Y-124757898D01*
X230421511Y-124525099D01*
X230306833Y-124310551D01*
X230180564Y-124156691D01*
X230229494Y-124130537D01*
X230326185Y-124051185D01*
X230405537Y-123954494D01*
X230464502Y-123844180D01*
X230500812Y-123724482D01*
X230513072Y-123600000D01*
X230510000Y-123285750D01*
X230351250Y-123127000D01*
X229127000Y-123127000D01*
X229127000Y-123147000D01*
X228873000Y-123147000D01*
X228873000Y-123127000D01*
X227648750Y-123127000D01*
X227490000Y-123285750D01*
X227486928Y-123600000D01*
X227499188Y-123724482D01*
X227535498Y-123844180D01*
X227594463Y-123954494D01*
X227673815Y-124051185D01*
X227770506Y-124130537D01*
X227819436Y-124156691D01*
X227693167Y-124310551D01*
X227578489Y-124525099D01*
X227507870Y-124757898D01*
X227484025Y-125000000D01*
X227507870Y-125242102D01*
X227578489Y-125474901D01*
X227693167Y-125689449D01*
X227847498Y-125877502D01*
X228035551Y-126031833D01*
X228111001Y-126072162D01*
X228111000Y-133377464D01*
X227402259Y-134086206D01*
X227368342Y-134114041D01*
X227340507Y-134147958D01*
X227340505Y-134147960D01*
X227257248Y-134249409D01*
X227174698Y-134403848D01*
X227124489Y-134569365D01*
X227075518Y-134574188D01*
X226955820Y-134610498D01*
X226845506Y-134669463D01*
X226748815Y-134748815D01*
X226669463Y-134845506D01*
X226610498Y-134955820D01*
X226574188Y-135075518D01*
X226561928Y-135200000D01*
X226561928Y-136180836D01*
X224631765Y-138111000D01*
X216902701Y-138111000D01*
X216606268Y-122400000D01*
X227486928Y-122400000D01*
X227490000Y-122714250D01*
X227648750Y-122873000D01*
X228873000Y-122873000D01*
X228873000Y-121923750D01*
X229127000Y-121923750D01*
X229127000Y-122873000D01*
X230351250Y-122873000D01*
X230510000Y-122714250D01*
X230513072Y-122400000D01*
X230500812Y-122275518D01*
X230464502Y-122155820D01*
X230405537Y-122045506D01*
X230326185Y-121948815D01*
X230229494Y-121869463D01*
X230119180Y-121810498D01*
X229999482Y-121774188D01*
X229875000Y-121761928D01*
X229285750Y-121765000D01*
X229127000Y-121923750D01*
X228873000Y-121923750D01*
X228714250Y-121765000D01*
X228125000Y-121761928D01*
X228000518Y-121774188D01*
X227880820Y-121810498D01*
X227770506Y-121869463D01*
X227673815Y-121948815D01*
X227594463Y-122045506D01*
X227535498Y-122155820D01*
X227499188Y-122275518D01*
X227486928Y-122400000D01*
X216606268Y-122400000D01*
X216407003Y-111838967D01*
X224365000Y-111838967D01*
X224365000Y-112161033D01*
X224427832Y-112476912D01*
X224551082Y-112774463D01*
X224730013Y-113042252D01*
X224957748Y-113269987D01*
X225225537Y-113448918D01*
X225523088Y-113572168D01*
X225838967Y-113635000D01*
X226161033Y-113635000D01*
X226476912Y-113572168D01*
X226774463Y-113448918D01*
X227042252Y-113269987D01*
X227269987Y-113042252D01*
X227448918Y-112774463D01*
X227572168Y-112476912D01*
X227635000Y-112161033D01*
X227635000Y-111838967D01*
X227572168Y-111523088D01*
X227448918Y-111225537D01*
X227269987Y-110957748D01*
X227042252Y-110730013D01*
X226774463Y-110551082D01*
X226476912Y-110427832D01*
X226161033Y-110365000D01*
X225838967Y-110365000D01*
X225523088Y-110427832D01*
X225225537Y-110551082D01*
X224957748Y-110730013D01*
X224730013Y-110957748D01*
X224551082Y-111225537D01*
X224427832Y-111523088D01*
X224365000Y-111838967D01*
X216407003Y-111838967D01*
X215262400Y-51175000D01*
X225536928Y-51175000D01*
X225536928Y-52825000D01*
X225549188Y-52949482D01*
X225585498Y-53069180D01*
X225644463Y-53179494D01*
X225723815Y-53276185D01*
X225820506Y-53355537D01*
X225930820Y-53414502D01*
X226030506Y-53444742D01*
X225865944Y-53609304D01*
X225706165Y-53848431D01*
X225596107Y-54114134D01*
X225540000Y-54396203D01*
X225540000Y-54683797D01*
X225596107Y-54965866D01*
X225706165Y-55231569D01*
X225865944Y-55470696D01*
X226069304Y-55674056D01*
X226272759Y-55810000D01*
X226069304Y-55945944D01*
X225865944Y-56149304D01*
X225706165Y-56388431D01*
X225596107Y-56654134D01*
X225540000Y-56936203D01*
X225540000Y-57223797D01*
X225596107Y-57505866D01*
X225706165Y-57771569D01*
X225865944Y-58010696D01*
X226069304Y-58214056D01*
X226272759Y-58350000D01*
X226069304Y-58485944D01*
X225865944Y-58689304D01*
X225706165Y-58928431D01*
X225596107Y-59194134D01*
X225540000Y-59476203D01*
X225540000Y-59763797D01*
X225596107Y-60045866D01*
X225706165Y-60311569D01*
X225865944Y-60550696D01*
X226069304Y-60754056D01*
X226272759Y-60890000D01*
X226069304Y-61025944D01*
X225865944Y-61229304D01*
X225706165Y-61468431D01*
X225596107Y-61734134D01*
X225540000Y-62016203D01*
X225540000Y-62303797D01*
X225596107Y-62585866D01*
X225706165Y-62851569D01*
X225865944Y-63090696D01*
X226069304Y-63294056D01*
X226272759Y-63430000D01*
X226069304Y-63565944D01*
X225865944Y-63769304D01*
X225706165Y-64008431D01*
X225596107Y-64274134D01*
X225540000Y-64556203D01*
X225540000Y-64843797D01*
X225596107Y-65125866D01*
X225706165Y-65391569D01*
X225865944Y-65630696D01*
X226069304Y-65834056D01*
X226272759Y-65970000D01*
X226069304Y-66105944D01*
X225865944Y-66309304D01*
X225706165Y-66548431D01*
X225596107Y-66814134D01*
X225540000Y-67096203D01*
X225540000Y-67383797D01*
X225596107Y-67665866D01*
X225706165Y-67931569D01*
X225865944Y-68170696D01*
X226069304Y-68374056D01*
X226272759Y-68510000D01*
X226069304Y-68645944D01*
X225865944Y-68849304D01*
X225706165Y-69088431D01*
X225596107Y-69354134D01*
X225540000Y-69636203D01*
X225540000Y-69923797D01*
X225596107Y-70205866D01*
X225706165Y-70471569D01*
X225865944Y-70710696D01*
X226069304Y-70914056D01*
X226308431Y-71073835D01*
X226574134Y-71183893D01*
X226856203Y-71240000D01*
X227143797Y-71240000D01*
X227425866Y-71183893D01*
X227691569Y-71073835D01*
X227930696Y-70914056D01*
X228134056Y-70710696D01*
X228270000Y-70507241D01*
X228405944Y-70710696D01*
X228609304Y-70914056D01*
X228848431Y-71073835D01*
X229114134Y-71183893D01*
X229396203Y-71240000D01*
X229683797Y-71240000D01*
X229965866Y-71183893D01*
X230231569Y-71073835D01*
X230470696Y-70914056D01*
X230674056Y-70710696D01*
X230833835Y-70471569D01*
X230943893Y-70205866D01*
X231000000Y-69923797D01*
X231000000Y-69636203D01*
X230943893Y-69354134D01*
X230833835Y-69088431D01*
X230674056Y-68849304D01*
X230470696Y-68645944D01*
X230267241Y-68510000D01*
X230470696Y-68374056D01*
X230674056Y-68170696D01*
X230833835Y-67931569D01*
X230943893Y-67665866D01*
X231000000Y-67383797D01*
X231000000Y-67096203D01*
X230943893Y-66814134D01*
X230833835Y-66548431D01*
X230674056Y-66309304D01*
X230470696Y-66105944D01*
X230267241Y-65970000D01*
X230470696Y-65834056D01*
X230674056Y-65630696D01*
X230833835Y-65391569D01*
X230943893Y-65125866D01*
X231000000Y-64843797D01*
X231000000Y-64556203D01*
X230943893Y-64274134D01*
X230833835Y-64008431D01*
X230674056Y-63769304D01*
X230470696Y-63565944D01*
X230267241Y-63430000D01*
X230470696Y-63294056D01*
X230674056Y-63090696D01*
X230833835Y-62851569D01*
X230943893Y-62585866D01*
X231000000Y-62303797D01*
X231000000Y-62016203D01*
X230943893Y-61734134D01*
X230833835Y-61468431D01*
X230674056Y-61229304D01*
X230470696Y-61025944D01*
X230267241Y-60890000D01*
X230470696Y-60754056D01*
X230674056Y-60550696D01*
X230833835Y-60311569D01*
X230943893Y-60045866D01*
X231000000Y-59763797D01*
X231000000Y-59476203D01*
X230943893Y-59194134D01*
X230833835Y-58928431D01*
X230674056Y-58689304D01*
X230470696Y-58485944D01*
X230267241Y-58350000D01*
X230470696Y-58214056D01*
X230674056Y-58010696D01*
X230833835Y-57771569D01*
X230943893Y-57505866D01*
X231000000Y-57223797D01*
X231000000Y-56936203D01*
X230943893Y-56654134D01*
X230833835Y-56388431D01*
X230674056Y-56149304D01*
X230470696Y-55945944D01*
X230267241Y-55810000D01*
X230470696Y-55674056D01*
X230674056Y-55470696D01*
X230833835Y-55231569D01*
X230943893Y-54965866D01*
X231000000Y-54683797D01*
X231000000Y-54396203D01*
X230943893Y-54114134D01*
X230833835Y-53848431D01*
X230674056Y-53609304D01*
X230470696Y-53405944D01*
X230267241Y-53270000D01*
X230470696Y-53134056D01*
X230674056Y-52930696D01*
X230833835Y-52691569D01*
X230943893Y-52425866D01*
X231000000Y-52143797D01*
X231000000Y-51856203D01*
X230943893Y-51574134D01*
X230833835Y-51308431D01*
X230674056Y-51069304D01*
X230470696Y-50865944D01*
X230231569Y-50706165D01*
X229965866Y-50596107D01*
X229683797Y-50540000D01*
X229396203Y-50540000D01*
X229114134Y-50596107D01*
X228848431Y-50706165D01*
X228609304Y-50865944D01*
X228444742Y-51030506D01*
X228414502Y-50930820D01*
X228355537Y-50820506D01*
X228276185Y-50723815D01*
X228179494Y-50644463D01*
X228069180Y-50585498D01*
X227949482Y-50549188D01*
X227825000Y-50536928D01*
X226175000Y-50536928D01*
X226050518Y-50549188D01*
X225930820Y-50585498D01*
X225820506Y-50644463D01*
X225723815Y-50723815D01*
X225644463Y-50820506D01*
X225585498Y-50930820D01*
X225549188Y-51050518D01*
X225536928Y-51175000D01*
X215262400Y-51175000D01*
X215129418Y-44127000D01*
X235873000Y-44127000D01*
X235873000Y-144873000D01*
%TA.AperFunction,Conductor*%
D29*
G36*
X235873000Y-144873000D02*
G01*
X225889000Y-144873000D01*
X225889000Y-139492702D01*
X227186903Y-139492702D01*
X227258486Y-139736671D01*
X227513996Y-139857571D01*
X227788184Y-139926300D01*
X228070512Y-139940217D01*
X228350130Y-139898787D01*
X228616292Y-139803603D01*
X228741514Y-139736671D01*
X228813097Y-139492702D01*
X228000000Y-138679605D01*
X227186903Y-139492702D01*
X225889000Y-139492702D01*
X225889000Y-139368235D01*
X226576164Y-138681071D01*
X226601213Y-138850130D01*
X226696397Y-139116292D01*
X226763329Y-139241514D01*
X227007298Y-139313097D01*
X227820395Y-138500000D01*
X228179605Y-138500000D01*
X228992702Y-139313097D01*
X229236671Y-139241514D01*
X229357571Y-138986004D01*
X229426300Y-138711816D01*
X229440217Y-138429488D01*
X229398787Y-138149870D01*
X229303603Y-137883708D01*
X229236671Y-137758486D01*
X228992702Y-137686903D01*
X228179605Y-138500000D01*
X227820395Y-138500000D01*
X227806253Y-138485858D01*
X227985858Y-138306253D01*
X228000000Y-138320395D01*
X228813097Y-137507298D01*
X228792785Y-137438072D01*
X228800000Y-137438072D01*
X228924482Y-137425812D01*
X229044180Y-137389502D01*
X229154494Y-137330537D01*
X229251185Y-137251185D01*
X229330537Y-137154494D01*
X229389502Y-137044180D01*
X229425812Y-136924482D01*
X229438072Y-136800000D01*
X229438072Y-135200000D01*
X229425812Y-135075518D01*
X229389502Y-134955820D01*
X229330537Y-134845506D01*
X229252508Y-134750427D01*
X229597743Y-134405193D01*
X229631659Y-134377359D01*
X229742753Y-134241991D01*
X229825303Y-134087551D01*
X229871258Y-133936055D01*
X229876136Y-133919975D01*
X229893301Y-133745700D01*
X229889000Y-133702032D01*
X229889000Y-126072161D01*
X229964449Y-126031833D01*
X230152502Y-125877502D01*
X230306833Y-125689449D01*
X230421511Y-125474901D01*
X230492130Y-125242102D01*
X230515975Y-125000000D01*
X230492130Y-124757898D01*
X230421511Y-124525099D01*
X230306833Y-124310551D01*
X230180564Y-124156691D01*
X230229494Y-124130537D01*
X230326185Y-124051185D01*
X230405537Y-123954494D01*
X230464502Y-123844180D01*
X230500812Y-123724482D01*
X230513072Y-123600000D01*
X230510000Y-123285750D01*
X230351250Y-123127000D01*
X229127000Y-123127000D01*
X229127000Y-123147000D01*
X228873000Y-123147000D01*
X228873000Y-123127000D01*
X227648750Y-123127000D01*
X227490000Y-123285750D01*
X227486928Y-123600000D01*
X227499188Y-123724482D01*
X227535498Y-123844180D01*
X227594463Y-123954494D01*
X227673815Y-124051185D01*
X227770506Y-124130537D01*
X227819436Y-124156691D01*
X227693167Y-124310551D01*
X227578489Y-124525099D01*
X227507870Y-124757898D01*
X227484025Y-125000000D01*
X227507870Y-125242102D01*
X227578489Y-125474901D01*
X227693167Y-125689449D01*
X227847498Y-125877502D01*
X228035551Y-126031833D01*
X228111001Y-126072162D01*
X228111000Y-133377464D01*
X227402259Y-134086206D01*
X227368342Y-134114041D01*
X227340507Y-134147958D01*
X227340505Y-134147960D01*
X227257248Y-134249409D01*
X227174698Y-134403848D01*
X227124489Y-134569365D01*
X227075518Y-134574188D01*
X226955820Y-134610498D01*
X226845506Y-134669463D01*
X226748815Y-134748815D01*
X226669463Y-134845506D01*
X226610498Y-134955820D01*
X226574188Y-135075518D01*
X226561928Y-135200000D01*
X226561928Y-136180836D01*
X224631765Y-138111000D01*
X216902701Y-138111000D01*
X216606268Y-122400000D01*
X227486928Y-122400000D01*
X227490000Y-122714250D01*
X227648750Y-122873000D01*
X228873000Y-122873000D01*
X228873000Y-121923750D01*
X229127000Y-121923750D01*
X229127000Y-122873000D01*
X230351250Y-122873000D01*
X230510000Y-122714250D01*
X230513072Y-122400000D01*
X230500812Y-122275518D01*
X230464502Y-122155820D01*
X230405537Y-122045506D01*
X230326185Y-121948815D01*
X230229494Y-121869463D01*
X230119180Y-121810498D01*
X229999482Y-121774188D01*
X229875000Y-121761928D01*
X229285750Y-121765000D01*
X229127000Y-121923750D01*
X228873000Y-121923750D01*
X228714250Y-121765000D01*
X228125000Y-121761928D01*
X228000518Y-121774188D01*
X227880820Y-121810498D01*
X227770506Y-121869463D01*
X227673815Y-121948815D01*
X227594463Y-122045506D01*
X227535498Y-122155820D01*
X227499188Y-122275518D01*
X227486928Y-122400000D01*
X216606268Y-122400000D01*
X216407003Y-111838967D01*
X224365000Y-111838967D01*
X224365000Y-112161033D01*
X224427832Y-112476912D01*
X224551082Y-112774463D01*
X224730013Y-113042252D01*
X224957748Y-113269987D01*
X225225537Y-113448918D01*
X225523088Y-113572168D01*
X225838967Y-113635000D01*
X226161033Y-113635000D01*
X226476912Y-113572168D01*
X226774463Y-113448918D01*
X227042252Y-113269987D01*
X227269987Y-113042252D01*
X227448918Y-112774463D01*
X227572168Y-112476912D01*
X227635000Y-112161033D01*
X227635000Y-111838967D01*
X227572168Y-111523088D01*
X227448918Y-111225537D01*
X227269987Y-110957748D01*
X227042252Y-110730013D01*
X226774463Y-110551082D01*
X226476912Y-110427832D01*
X226161033Y-110365000D01*
X225838967Y-110365000D01*
X225523088Y-110427832D01*
X225225537Y-110551082D01*
X224957748Y-110730013D01*
X224730013Y-110957748D01*
X224551082Y-111225537D01*
X224427832Y-111523088D01*
X224365000Y-111838967D01*
X216407003Y-111838967D01*
X215262400Y-51175000D01*
X225536928Y-51175000D01*
X225536928Y-52825000D01*
X225549188Y-52949482D01*
X225585498Y-53069180D01*
X225644463Y-53179494D01*
X225723815Y-53276185D01*
X225820506Y-53355537D01*
X225930820Y-53414502D01*
X226030506Y-53444742D01*
X225865944Y-53609304D01*
X225706165Y-53848431D01*
X225596107Y-54114134D01*
X225540000Y-54396203D01*
X225540000Y-54683797D01*
X225596107Y-54965866D01*
X225706165Y-55231569D01*
X225865944Y-55470696D01*
X226069304Y-55674056D01*
X226272759Y-55810000D01*
X226069304Y-55945944D01*
X225865944Y-56149304D01*
X225706165Y-56388431D01*
X225596107Y-56654134D01*
X225540000Y-56936203D01*
X225540000Y-57223797D01*
X225596107Y-57505866D01*
X225706165Y-57771569D01*
X225865944Y-58010696D01*
X226069304Y-58214056D01*
X226272759Y-58350000D01*
X226069304Y-58485944D01*
X225865944Y-58689304D01*
X225706165Y-58928431D01*
X225596107Y-59194134D01*
X225540000Y-59476203D01*
X225540000Y-59763797D01*
X225596107Y-60045866D01*
X225706165Y-60311569D01*
X225865944Y-60550696D01*
X226069304Y-60754056D01*
X226272759Y-60890000D01*
X226069304Y-61025944D01*
X225865944Y-61229304D01*
X225706165Y-61468431D01*
X225596107Y-61734134D01*
X225540000Y-62016203D01*
X225540000Y-62303797D01*
X225596107Y-62585866D01*
X225706165Y-62851569D01*
X225865944Y-63090696D01*
X226069304Y-63294056D01*
X226272759Y-63430000D01*
X226069304Y-63565944D01*
X225865944Y-63769304D01*
X225706165Y-64008431D01*
X225596107Y-64274134D01*
X225540000Y-64556203D01*
X225540000Y-64843797D01*
X225596107Y-65125866D01*
X225706165Y-65391569D01*
X225865944Y-65630696D01*
X226069304Y-65834056D01*
X226272759Y-65970000D01*
X226069304Y-66105944D01*
X225865944Y-66309304D01*
X225706165Y-66548431D01*
X225596107Y-66814134D01*
X225540000Y-67096203D01*
X225540000Y-67383797D01*
X225596107Y-67665866D01*
X225706165Y-67931569D01*
X225865944Y-68170696D01*
X226069304Y-68374056D01*
X226272759Y-68510000D01*
X226069304Y-68645944D01*
X225865944Y-68849304D01*
X225706165Y-69088431D01*
X225596107Y-69354134D01*
X225540000Y-69636203D01*
X225540000Y-69923797D01*
X225596107Y-70205866D01*
X225706165Y-70471569D01*
X225865944Y-70710696D01*
X226069304Y-70914056D01*
X226308431Y-71073835D01*
X226574134Y-71183893D01*
X226856203Y-71240000D01*
X227143797Y-71240000D01*
X227425866Y-71183893D01*
X227691569Y-71073835D01*
X227930696Y-70914056D01*
X228134056Y-70710696D01*
X228270000Y-70507241D01*
X228405944Y-70710696D01*
X228609304Y-70914056D01*
X228848431Y-71073835D01*
X229114134Y-71183893D01*
X229396203Y-71240000D01*
X229683797Y-71240000D01*
X229965866Y-71183893D01*
X230231569Y-71073835D01*
X230470696Y-70914056D01*
X230674056Y-70710696D01*
X230833835Y-70471569D01*
X230943893Y-70205866D01*
X231000000Y-69923797D01*
X231000000Y-69636203D01*
X230943893Y-69354134D01*
X230833835Y-69088431D01*
X230674056Y-68849304D01*
X230470696Y-68645944D01*
X230267241Y-68510000D01*
X230470696Y-68374056D01*
X230674056Y-68170696D01*
X230833835Y-67931569D01*
X230943893Y-67665866D01*
X231000000Y-67383797D01*
X231000000Y-67096203D01*
X230943893Y-66814134D01*
X230833835Y-66548431D01*
X230674056Y-66309304D01*
X230470696Y-66105944D01*
X230267241Y-65970000D01*
X230470696Y-65834056D01*
X230674056Y-65630696D01*
X230833835Y-65391569D01*
X230943893Y-65125866D01*
X231000000Y-64843797D01*
X231000000Y-64556203D01*
X230943893Y-64274134D01*
X230833835Y-64008431D01*
X230674056Y-63769304D01*
X230470696Y-63565944D01*
X230267241Y-63430000D01*
X230470696Y-63294056D01*
X230674056Y-63090696D01*
X230833835Y-62851569D01*
X230943893Y-62585866D01*
X231000000Y-62303797D01*
X231000000Y-62016203D01*
X230943893Y-61734134D01*
X230833835Y-61468431D01*
X230674056Y-61229304D01*
X230470696Y-61025944D01*
X230267241Y-60890000D01*
X230470696Y-60754056D01*
X230674056Y-60550696D01*
X230833835Y-60311569D01*
X230943893Y-60045866D01*
X231000000Y-59763797D01*
X231000000Y-59476203D01*
X230943893Y-59194134D01*
X230833835Y-58928431D01*
X230674056Y-58689304D01*
X230470696Y-58485944D01*
X230267241Y-58350000D01*
X230470696Y-58214056D01*
X230674056Y-58010696D01*
X230833835Y-57771569D01*
X230943893Y-57505866D01*
X231000000Y-57223797D01*
X231000000Y-56936203D01*
X230943893Y-56654134D01*
X230833835Y-56388431D01*
X230674056Y-56149304D01*
X230470696Y-55945944D01*
X230267241Y-55810000D01*
X230470696Y-55674056D01*
X230674056Y-55470696D01*
X230833835Y-55231569D01*
X230943893Y-54965866D01*
X231000000Y-54683797D01*
X231000000Y-54396203D01*
X230943893Y-54114134D01*
X230833835Y-53848431D01*
X230674056Y-53609304D01*
X230470696Y-53405944D01*
X230267241Y-53270000D01*
X230470696Y-53134056D01*
X230674056Y-52930696D01*
X230833835Y-52691569D01*
X230943893Y-52425866D01*
X231000000Y-52143797D01*
X231000000Y-51856203D01*
X230943893Y-51574134D01*
X230833835Y-51308431D01*
X230674056Y-51069304D01*
X230470696Y-50865944D01*
X230231569Y-50706165D01*
X229965866Y-50596107D01*
X229683797Y-50540000D01*
X229396203Y-50540000D01*
X229114134Y-50596107D01*
X228848431Y-50706165D01*
X228609304Y-50865944D01*
X228444742Y-51030506D01*
X228414502Y-50930820D01*
X228355537Y-50820506D01*
X228276185Y-50723815D01*
X228179494Y-50644463D01*
X228069180Y-50585498D01*
X227949482Y-50549188D01*
X227825000Y-50536928D01*
X226175000Y-50536928D01*
X226050518Y-50549188D01*
X225930820Y-50585498D01*
X225820506Y-50644463D01*
X225723815Y-50723815D01*
X225644463Y-50820506D01*
X225585498Y-50930820D01*
X225549188Y-51050518D01*
X225536928Y-51175000D01*
X215262400Y-51175000D01*
X215129418Y-44127000D01*
X235873000Y-44127000D01*
X235873000Y-144873000D01*
G37*
%TD.AperFunction*%
D27*
X67488392Y-60386562D02*
X59663291Y-52561461D01*
X59674056Y-52550696D01*
X59833835Y-52311569D01*
X59943893Y-52045866D01*
X60000000Y-51763797D01*
X60000000Y-51476203D01*
X59943893Y-51194134D01*
X59833835Y-50928431D01*
X59674056Y-50689304D01*
X59470696Y-50485944D01*
X59267241Y-50350000D01*
X59470696Y-50214056D01*
X59674056Y-50010696D01*
X59786775Y-49842000D01*
X67210903Y-49842000D01*
X67488392Y-60386562D01*
%TA.AperFunction,Conductor*%
D29*
G36*
X67488392Y-60386562D02*
G01*
X59663291Y-52561461D01*
X59674056Y-52550696D01*
X59833835Y-52311569D01*
X59943893Y-52045866D01*
X60000000Y-51763797D01*
X60000000Y-51476203D01*
X59943893Y-51194134D01*
X59833835Y-50928431D01*
X59674056Y-50689304D01*
X59470696Y-50485944D01*
X59267241Y-50350000D01*
X59470696Y-50214056D01*
X59674056Y-50010696D01*
X59786775Y-49842000D01*
X67210903Y-49842000D01*
X67488392Y-60386562D01*
G37*
%TD.AperFunction*%
%TD*%
M02*
