M48
; DRILL file {KiCad (5.1.10)-1} date 10/27/21 19:25:11
; FORMAT={-:-/ absolute / inch / decimal}
; #@! TF.CreationDate,2021-10-27T19:25:11+02:00
; #@! TF.GenerationSoftware,Kicad,Pcbnew,(5.1.10)-1
; #@! TF.FileFunction,Plated,1,2,PTH
FMAT,2
INCH
T1C0.0157
T2C0.0197
T3C0.0276
T4C0.0295
T5C0.0315
T6C0.0394
T7C0.0433
T8C0.0512
T9C0.1378
%
G90
G05
T1
X2.4409Y-1.378
X2.7277Y-2.0772
X2.8346Y-1.378
X2.9134Y-2.0079
X3.6064Y-2.8068
X4.1388Y-4.5027
X4.8577Y-3.6146
X4.8656Y-1.2706
X5.1575Y-5.4981
X5.4635Y-4.6118
X5.8533Y-2.1654
X5.9646Y-2.6445
X6.2004Y-2.5534
X6.2037Y-4.2413
X6.2967Y-4.4119
X6.3016Y-3.3497
X6.3334Y-2.6745
X6.4638Y-1.6681
X6.4653Y-3.0286
X6.7915Y-3.2587
X6.8581Y-2.7575
X6.9862Y-3.1518
X7.0333Y-3.6842
X7.0483Y-5.239
X7.126Y-5.6299
X7.1947Y-2.5107
X7.2334Y-3.1213
X7.3305Y-3.2982
X7.4187Y-5.0844
X7.9134Y-5.3937
X8.037Y-4.8935
X8.4069Y-2.281
T2
X1.7077Y-0.9843
X1.7077Y-5.9843
X1.7379Y-0.9112
X1.7379Y-1.0573
X1.7379Y-5.9112
X1.7379Y-6.0573
X1.811Y-0.8809
X1.811Y-1.0876
X1.811Y-5.8809
X1.811Y-6.0876
X1.8841Y-0.9112
X1.8841Y-1.0573
X1.8841Y-5.9112
X1.8841Y-6.0573
X1.9144Y-0.9843
X1.9144Y-5.9843
X2.1014Y-0.9843
X2.1014Y-5.9843
X2.1316Y-0.9112
X2.1316Y-1.0573
X2.1316Y-5.9112
X2.1316Y-6.0573
X2.2047Y-0.8809
X2.2047Y-1.0876
X2.2047Y-5.8809
X2.2047Y-6.0876
X2.2778Y-0.9112
X2.2778Y-1.0573
X2.2778Y-5.9112
X2.2778Y-6.0573
X2.3081Y-0.9843
X2.3081Y-5.9843
X8.7156Y-0.9843
X8.7458Y-0.9112
X8.7458Y-1.0573
X8.7549Y-5.9843
X8.7852Y-5.9112
X8.7852Y-6.0573
X8.8189Y-0.8809
X8.8189Y-1.0876
X8.8583Y-5.8809
X8.8583Y-6.0876
X8.892Y-0.9112
X8.892Y-1.0573
X8.9222Y-0.9843
X8.9313Y-5.9112
X8.9313Y-6.0573
X8.9616Y-5.9843
X9.1093Y-0.9843
X9.1093Y-5.9843
X9.1395Y-0.9112
X9.1395Y-1.0573
X9.1395Y-5.9112
X9.1395Y-6.0573
X9.2126Y-0.8809
X9.2126Y-1.0876
X9.2126Y-5.8809
X9.2126Y-6.0876
X9.2857Y-0.9112
X9.2857Y-1.0573
X9.2857Y-5.9112
X9.2857Y-6.0573
X9.3159Y-0.9843
X9.3159Y-5.9843
T3
X2.126Y-4.685
X2.126Y-4.8819
X2.126Y-5.0787
X2.426Y-4.685
X2.426Y-4.8819
X2.426Y-5.0787
X4.8575Y-5.1969
X4.8575Y-5.3937
X5.1575Y-5.1969
X5.1575Y-5.3937
T4
X9.0157Y-4.8425
X9.0157Y-4.9213
T5
X3.6811Y-5.7087
X3.7008Y-1.1417
X3.7008Y-1.3386
X3.7008Y-1.4386
X3.7008Y-1.5386
X3.7008Y-1.6386
X3.7008Y-1.7386
X3.7008Y-1.8386
X3.7008Y-1.9386
X3.7008Y-2.0386
X3.7008Y-2.2835
X3.7008Y-2.3835
X3.7008Y-2.4835
X3.7008Y-2.5835
X3.7008Y-2.6835
X3.7008Y-2.7835
X3.7008Y-2.8835
X3.7008Y-2.9835
X3.7008Y-3.189
X3.7008Y-3.622
X3.7008Y-3.8583
X3.7008Y-3.9583
X3.7008Y-4.0583
X3.7008Y-4.1583
X3.7008Y-4.2583
X3.7008Y-4.3583
X3.7008Y-4.4583
X3.7008Y-4.5583
X3.7008Y-4.8425
X3.7008Y-4.9425
X3.7008Y-5.0425
X3.7008Y-5.1425
X3.7008Y-5.2425
X3.7008Y-5.3425
X3.7008Y-5.4425
X3.7008Y-5.5425
X3.9764Y-5.7087
X3.9961Y-1.1417
X3.9961Y-3.189
X3.9961Y-3.622
X4.0008Y-1.3386
X4.0008Y-1.4386
X4.0008Y-1.5386
X4.0008Y-1.6386
X4.0008Y-1.7386
X4.0008Y-1.8386
X4.0008Y-1.9386
X4.0008Y-2.0386
X4.0008Y-2.2835
X4.0008Y-2.3835
X4.0008Y-2.4835
X4.0008Y-2.5835
X4.0008Y-2.6835
X4.0008Y-2.7835
X4.0008Y-2.8835
X4.0008Y-2.9835
X4.0008Y-3.8583
X4.0008Y-3.9583
X4.0008Y-4.0583
X4.0008Y-4.1583
X4.0008Y-4.2583
X4.0008Y-4.3583
X4.0008Y-4.4583
X4.0008Y-4.5583
X4.0008Y-4.8425
X4.0008Y-4.9425
X4.0008Y-5.0425
X4.0008Y-5.1425
X4.0008Y-5.2425
X4.0008Y-5.3425
X4.0008Y-5.4425
X4.0008Y-5.5425
X4.9213Y-1.2992
X4.9213Y-1.3992
X4.9213Y-1.4992
X4.9213Y-1.5992
X4.9213Y-1.6992
X4.9213Y-1.7992
X4.9213Y-1.8992
X4.9213Y-1.9992
X4.9213Y-2.0992
X4.9213Y-2.1992
X4.9213Y-2.2992
X4.9213Y-2.3992
X4.9213Y-2.6
X4.9213Y-3.4646
X4.9213Y-3.5646
X4.9213Y-3.6646
X4.9213Y-3.7646
X4.9213Y-3.8646
X4.9213Y-3.9646
X4.9213Y-4.0646
X4.9213Y-4.1646
X4.9213Y-4.2646
X4.9213Y-4.3646
X4.9213Y-4.4646
X4.9213Y-4.5646
X4.9213Y-4.7244
X5.2165Y-2.6
X5.2165Y-4.7244
X5.2213Y-1.2992
X5.2213Y-1.3992
X5.2213Y-1.4992
X5.2213Y-1.5992
X5.2213Y-1.6992
X5.2213Y-1.7992
X5.2213Y-1.8992
X5.2213Y-1.9992
X5.2213Y-2.0992
X5.2213Y-2.1992
X5.2213Y-2.2992
X5.2213Y-2.3992
X5.2213Y-3.4646
X5.2213Y-3.5646
X5.2213Y-3.6646
X5.2213Y-3.7646
X5.2213Y-3.8646
X5.2213Y-3.9646
X5.2213Y-4.0646
X5.2213Y-4.1646
X5.2213Y-4.2646
X5.2213Y-4.3646
X5.2213Y-4.4646
X5.2213Y-4.5646
X5.9598Y-1.4654
X5.9598Y-1.5654
X5.9598Y-1.6654
X5.9598Y-1.7654
X5.9598Y-1.8654
X5.9598Y-1.9654
X5.9598Y-2.0654
X5.9598Y-2.1654
X5.9646Y-2.4016
X5.9843Y-3.4252
X5.9843Y-3.5827
X5.9843Y-3.6827
X5.9843Y-3.7827
X5.9843Y-3.8827
X5.9843Y-3.9827
X5.9843Y-4.0827
X5.9843Y-4.1827
X5.9843Y-4.2827
X6.2598Y-1.4654
X6.2598Y-1.5654
X6.2598Y-1.6654
X6.2598Y-1.7654
X6.2598Y-1.8654
X6.2598Y-1.9654
X6.2598Y-2.0654
X6.2598Y-2.1654
X6.2598Y-2.4016
X6.2795Y-3.4252
X6.2843Y-3.5827
X6.2843Y-3.6827
X6.2843Y-3.7827
X6.2843Y-3.8827
X6.2843Y-3.9827
X6.2843Y-4.0827
X6.2843Y-4.1827
X6.2843Y-4.2827
X6.7323Y-5.6299
X7.0276Y-5.6299
X7.0472Y-2.2984
X7.0472Y-2.5984
X7.0472Y-3.4795
X7.0472Y-3.7795
X7.0472Y-4.8575
X7.0472Y-5.1575
X7.0866Y-1.2354
X7.0866Y-1.5354
X7.1472Y-2.2984
X7.1472Y-2.5984
X7.1472Y-3.4795
X7.1472Y-3.7795
X7.1472Y-4.8575
X7.1472Y-5.1575
X7.1866Y-1.2354
X7.1866Y-1.5354
X7.2472Y-2.2984
X7.2472Y-2.5984
X7.2472Y-3.4795
X7.2472Y-3.7795
X7.2472Y-4.8575
X7.2472Y-5.1575
X7.2866Y-1.2354
X7.2866Y-1.5354
X7.3472Y-2.2984
X7.3472Y-2.5984
X7.3472Y-3.4795
X7.3472Y-3.7795
X7.3472Y-4.8575
X7.3472Y-5.1575
X7.3866Y-1.2354
X7.3866Y-1.5354
X7.4472Y-2.2984
X7.4472Y-2.5984
X7.4472Y-3.4795
X7.4472Y-3.7795
X7.4472Y-4.8575
X7.4472Y-5.1575
X7.4866Y-1.2354
X7.4866Y-1.5354
X7.5472Y-2.2984
X7.5472Y-2.5984
X7.5472Y-3.4795
X7.5472Y-3.7795
X7.5472Y-4.8575
X7.5472Y-5.1575
X7.5866Y-1.2354
X7.5866Y-1.5354
X7.6472Y-2.2984
X7.6472Y-2.5984
X7.6472Y-3.4795
X7.6472Y-3.7795
X7.6472Y-4.8575
X7.6472Y-5.1575
X7.6866Y-1.2354
X7.6866Y-1.5354
X7.7472Y-2.2984
X7.7472Y-2.5984
X7.7472Y-3.4795
X7.7472Y-3.7795
X7.7472Y-4.8575
X7.7472Y-5.1575
X7.7866Y-1.2354
X7.7866Y-1.5354
X7.9528Y-2.3031
X7.9528Y-2.5984
X7.9528Y-4.8622
X7.9528Y-5.1575
X7.9921Y-1.2402
X7.9921Y-1.5354
X7.9921Y-3.4843
X7.9921Y-3.7795
X8.9764Y-5.3543
X8.9764Y-5.4528
T6
X2.2047Y-3.7402
X2.2047Y-3.8386
X2.2047Y-3.937
X2.2047Y-4.0354
X7.8346Y-5.5906
X7.8346Y-5.6906
X7.9346Y-5.5906
X7.9346Y-5.6906
X8.0346Y-5.5906
X8.0346Y-5.6906
X8.8976Y-4.4094
T7
X2.2047Y-1.7323
X2.2047Y-1.8323
X2.2047Y-1.9323
X2.2047Y-2.0323
X2.2047Y-2.1323
X2.2047Y-2.2323
X2.2047Y-2.3323
X2.2047Y-2.4323
X2.3047Y-1.7323
X2.3047Y-1.8323
X2.3047Y-1.9323
X2.3047Y-2.0323
X2.3047Y-2.1323
X2.3047Y-2.2323
X2.3047Y-2.3323
X2.3047Y-2.4323
X8.937Y-2.0472
X8.937Y-2.1472
X8.937Y-2.2472
X8.937Y-2.3472
X8.937Y-2.4472
X8.937Y-2.5472
X8.937Y-2.6472
X8.937Y-2.7472
X9.037Y-2.0472
X9.037Y-2.1472
X9.037Y-2.2472
X9.037Y-2.3472
X9.037Y-2.4472
X9.037Y-2.5472
X9.037Y-2.6472
X9.037Y-2.7472
T8
X5.9055Y-5.6299
X6.1024Y-5.4331
X6.2992Y-5.6299
T9
X1.811Y-0.9843
X1.811Y-5.9843
X2.2047Y-0.9843
X2.2047Y-5.9843
X8.8189Y-0.9843
X8.8583Y-5.9843
X9.2126Y-0.9843
X9.2126Y-5.9843
T0
M30
