%TF.GenerationSoftware,KiCad,Pcbnew,(5.1.10)-1*%
%TF.CreationDate,2021-10-27T19:36:50+02:00*%
%TF.ProjectId,Program Counter,50726f67-7261-46d2-9043-6f756e746572,rev1.0*%
%TF.SameCoordinates,Original*%
%TF.FileFunction,Legend,Top*%
%TF.FilePolarity,Positive*%
%FSLAX46Y46*%
G04 Gerber Fmt 4.6, Leading zero omitted, Abs format (unit mm)*
G04 Created by KiCad (PCBNEW (5.1.10)-1) date 2021-10-27 19:36:50*
%MOMM*%
%LPD*%
G01*
G04 APERTURE LIST*
%ADD10C,0.150000*%
%ADD11C,0.250000*%
%ADD12C,0.300000*%
%ADD13C,0.240000*%
%ADD14C,0.120000*%
%ADD15C,0.050000*%
%ADD16C,0.100000*%
%ADD17C,0.200000*%
%ADD18C,0.254000*%
G04 APERTURE END LIST*
D10*
X91619047Y-85452380D02*
X92190476Y-85452380D01*
X91904761Y-86452380D02*
X91904761Y-85452380D01*
X92952380Y-86452380D02*
X92952380Y-85928571D01*
X92904761Y-85833333D01*
X92809523Y-85785714D01*
X92619047Y-85785714D01*
X92523809Y-85833333D01*
X92952380Y-86404761D02*
X92857142Y-86452380D01*
X92619047Y-86452380D01*
X92523809Y-86404761D01*
X92476190Y-86309523D01*
X92476190Y-86214285D01*
X92523809Y-86119047D01*
X92619047Y-86071428D01*
X92857142Y-86071428D01*
X92952380Y-86023809D01*
X93428571Y-86452380D02*
X93428571Y-85785714D01*
X93428571Y-85976190D02*
X93476190Y-85880952D01*
X93523809Y-85833333D01*
X93619047Y-85785714D01*
X93714285Y-85785714D01*
X94476190Y-85785714D02*
X94476190Y-86595238D01*
X94428571Y-86690476D01*
X94380952Y-86738095D01*
X94285714Y-86785714D01*
X94142857Y-86785714D01*
X94047619Y-86738095D01*
X94476190Y-86404761D02*
X94380952Y-86452380D01*
X94190476Y-86452380D01*
X94095238Y-86404761D01*
X94047619Y-86357142D01*
X94000000Y-86261904D01*
X94000000Y-85976190D01*
X94047619Y-85880952D01*
X94095238Y-85833333D01*
X94190476Y-85785714D01*
X94380952Y-85785714D01*
X94476190Y-85833333D01*
X95333333Y-86404761D02*
X95238095Y-86452380D01*
X95047619Y-86452380D01*
X94952380Y-86404761D01*
X94904761Y-86309523D01*
X94904761Y-85928571D01*
X94952380Y-85833333D01*
X95047619Y-85785714D01*
X95238095Y-85785714D01*
X95333333Y-85833333D01*
X95380952Y-85928571D01*
X95380952Y-86023809D01*
X94904761Y-86119047D01*
X95666666Y-85785714D02*
X96047619Y-85785714D01*
X95809523Y-85452380D02*
X95809523Y-86309523D01*
X95857142Y-86404761D01*
X95952380Y-86452380D01*
X96047619Y-86452380D01*
X97142857Y-86452380D02*
X97142857Y-85452380D01*
X97476190Y-86166666D01*
X97809523Y-85452380D01*
X97809523Y-86452380D01*
X98714285Y-85785714D02*
X98714285Y-86452380D01*
X98285714Y-85785714D02*
X98285714Y-86309523D01*
X98333333Y-86404761D01*
X98428571Y-86452380D01*
X98571428Y-86452380D01*
X98666666Y-86404761D01*
X98714285Y-86357142D01*
X99095238Y-86452380D02*
X99619047Y-85785714D01*
X99095238Y-85785714D02*
X99619047Y-86452380D01*
X101238095Y-86452380D02*
X100761904Y-86452380D01*
X100761904Y-85452380D01*
X101714285Y-86452380D02*
X101619047Y-86404761D01*
X101571428Y-86357142D01*
X101523809Y-86261904D01*
X101523809Y-85976190D01*
X101571428Y-85880952D01*
X101619047Y-85833333D01*
X101714285Y-85785714D01*
X101857142Y-85785714D01*
X101952380Y-85833333D01*
X102000000Y-85880952D01*
X102047619Y-85976190D01*
X102047619Y-86261904D01*
X102000000Y-86357142D01*
X101952380Y-86404761D01*
X101857142Y-86452380D01*
X101714285Y-86452380D01*
X102904761Y-85785714D02*
X102904761Y-86595238D01*
X102857142Y-86690476D01*
X102809523Y-86738095D01*
X102714285Y-86785714D01*
X102571428Y-86785714D01*
X102476190Y-86738095D01*
X102904761Y-86404761D02*
X102809523Y-86452380D01*
X102619047Y-86452380D01*
X102523809Y-86404761D01*
X102476190Y-86357142D01*
X102428571Y-86261904D01*
X102428571Y-85976190D01*
X102476190Y-85880952D01*
X102523809Y-85833333D01*
X102619047Y-85785714D01*
X102809523Y-85785714D01*
X102904761Y-85833333D01*
X103380952Y-86452380D02*
X103380952Y-85785714D01*
X103380952Y-85452380D02*
X103333333Y-85500000D01*
X103380952Y-85547619D01*
X103428571Y-85500000D01*
X103380952Y-85452380D01*
X103380952Y-85547619D01*
X104285714Y-86404761D02*
X104190476Y-86452380D01*
X104000000Y-86452380D01*
X103904761Y-86404761D01*
X103857142Y-86357142D01*
X103809523Y-86261904D01*
X103809523Y-85976190D01*
X103857142Y-85880952D01*
X103904761Y-85833333D01*
X104000000Y-85785714D01*
X104190476Y-85785714D01*
X104285714Y-85833333D01*
D11*
X149392857Y-70928571D02*
X149678571Y-70928571D01*
X149821428Y-71000000D01*
X149964285Y-71142857D01*
X150035714Y-71428571D01*
X150035714Y-71928571D01*
X149964285Y-72214285D01*
X149821428Y-72357142D01*
X149678571Y-72428571D01*
X149392857Y-72428571D01*
X149250000Y-72357142D01*
X149107142Y-72214285D01*
X149035714Y-71928571D01*
X149035714Y-71428571D01*
X149107142Y-71142857D01*
X149250000Y-71000000D01*
X149392857Y-70928571D01*
X150464285Y-71428571D02*
X151035714Y-71428571D01*
X150678571Y-72428571D02*
X150678571Y-71142857D01*
X150750000Y-71000000D01*
X150892857Y-70928571D01*
X151035714Y-70928571D01*
X151321428Y-71428571D02*
X151892857Y-71428571D01*
X151535714Y-72428571D02*
X151535714Y-71142857D01*
X151607142Y-71000000D01*
X151750000Y-70928571D01*
X151892857Y-70928571D01*
X152321428Y-72357142D02*
X152464285Y-72428571D01*
X152750000Y-72428571D01*
X152892857Y-72357142D01*
X152964285Y-72214285D01*
X152964285Y-72142857D01*
X152892857Y-72000000D01*
X152750000Y-71928571D01*
X152535714Y-71928571D01*
X152392857Y-71857142D01*
X152321428Y-71714285D01*
X152321428Y-71642857D01*
X152392857Y-71500000D01*
X152535714Y-71428571D01*
X152750000Y-71428571D01*
X152892857Y-71500000D01*
X154178571Y-72357142D02*
X154035714Y-72428571D01*
X153750000Y-72428571D01*
X153607142Y-72357142D01*
X153535714Y-72214285D01*
X153535714Y-71642857D01*
X153607142Y-71500000D01*
X153750000Y-71428571D01*
X154035714Y-71428571D01*
X154178571Y-71500000D01*
X154250000Y-71642857D01*
X154250000Y-71785714D01*
X153535714Y-71928571D01*
X154678571Y-71428571D02*
X155250000Y-71428571D01*
X154892857Y-70928571D02*
X154892857Y-72214285D01*
X154964285Y-72357142D01*
X155107142Y-72428571D01*
X155250000Y-72428571D01*
X156892857Y-72428571D02*
X156892857Y-70928571D01*
X157392857Y-72000000D01*
X157892857Y-70928571D01*
X157892857Y-72428571D01*
X158607142Y-70928571D02*
X158607142Y-72142857D01*
X158678571Y-72285714D01*
X158750000Y-72357142D01*
X158892857Y-72428571D01*
X159178571Y-72428571D01*
X159321428Y-72357142D01*
X159392857Y-72285714D01*
X159464285Y-72142857D01*
X159464285Y-70928571D01*
X160035714Y-70928571D02*
X161035714Y-72428571D01*
X161035714Y-70928571D02*
X160035714Y-72428571D01*
X153107142Y-74928571D02*
X152392857Y-74928571D01*
X152392857Y-73428571D01*
X153821428Y-74928571D02*
X153678571Y-74857142D01*
X153607142Y-74785714D01*
X153535714Y-74642857D01*
X153535714Y-74214285D01*
X153607142Y-74071428D01*
X153678571Y-74000000D01*
X153821428Y-73928571D01*
X154035714Y-73928571D01*
X154178571Y-74000000D01*
X154250000Y-74071428D01*
X154321428Y-74214285D01*
X154321428Y-74642857D01*
X154250000Y-74785714D01*
X154178571Y-74857142D01*
X154035714Y-74928571D01*
X153821428Y-74928571D01*
X155607142Y-73928571D02*
X155607142Y-75142857D01*
X155535714Y-75285714D01*
X155464285Y-75357142D01*
X155321428Y-75428571D01*
X155107142Y-75428571D01*
X154964285Y-75357142D01*
X155607142Y-74857142D02*
X155464285Y-74928571D01*
X155178571Y-74928571D01*
X155035714Y-74857142D01*
X154964285Y-74785714D01*
X154892857Y-74642857D01*
X154892857Y-74214285D01*
X154964285Y-74071428D01*
X155035714Y-74000000D01*
X155178571Y-73928571D01*
X155464285Y-73928571D01*
X155607142Y-74000000D01*
X156321428Y-74928571D02*
X156321428Y-73928571D01*
X156321428Y-73428571D02*
X156250000Y-73500000D01*
X156321428Y-73571428D01*
X156392857Y-73500000D01*
X156321428Y-73428571D01*
X156321428Y-73571428D01*
X157678571Y-74857142D02*
X157535714Y-74928571D01*
X157250000Y-74928571D01*
X157107142Y-74857142D01*
X157035714Y-74785714D01*
X156964285Y-74642857D01*
X156964285Y-74214285D01*
X157035714Y-74071428D01*
X157107142Y-74000000D01*
X157250000Y-73928571D01*
X157535714Y-73928571D01*
X157678571Y-74000000D01*
D12*
X123571428Y-83500000D02*
X123428571Y-83357142D01*
X123142857Y-82928571D01*
X123000000Y-82642857D01*
X122857142Y-82214285D01*
X122714285Y-81500000D01*
X122714285Y-80928571D01*
X122857142Y-80214285D01*
X123000000Y-79785714D01*
X123142857Y-79500000D01*
X123428571Y-79071428D01*
X123571428Y-78928571D01*
X124714285Y-82357142D02*
X124714285Y-79357142D01*
X125857142Y-79357142D01*
X126142857Y-79500000D01*
X126285714Y-79642857D01*
X126428571Y-79928571D01*
X126428571Y-80357142D01*
X126285714Y-80642857D01*
X126142857Y-80785714D01*
X125857142Y-80928571D01*
X124714285Y-80928571D01*
X129428571Y-82071428D02*
X129285714Y-82214285D01*
X128857142Y-82357142D01*
X128571428Y-82357142D01*
X128142857Y-82214285D01*
X127857142Y-81928571D01*
X127714285Y-81642857D01*
X127571428Y-81071428D01*
X127571428Y-80642857D01*
X127714285Y-80071428D01*
X127857142Y-79785714D01*
X128142857Y-79500000D01*
X128571428Y-79357142D01*
X128857142Y-79357142D01*
X129285714Y-79500000D01*
X129428571Y-79642857D01*
X130428571Y-83500000D02*
X130571428Y-83357142D01*
X130857142Y-82928571D01*
X131000000Y-82642857D01*
X131142857Y-82214285D01*
X131285714Y-81500000D01*
X131285714Y-80928571D01*
X131142857Y-80214285D01*
X131000000Y-79785714D01*
X130857142Y-79500000D01*
X130571428Y-79071428D01*
X130428571Y-78928571D01*
D13*
X114666666Y-77904761D02*
X114666666Y-75904761D01*
X115428571Y-75904761D01*
X115619047Y-76000000D01*
X115714285Y-76095238D01*
X115809523Y-76285714D01*
X115809523Y-76571428D01*
X115714285Y-76761904D01*
X115619047Y-76857142D01*
X115428571Y-76952380D01*
X114666666Y-76952380D01*
X116666666Y-77904761D02*
X116666666Y-76571428D01*
X116666666Y-76952380D02*
X116761904Y-76761904D01*
X116857142Y-76666666D01*
X117047619Y-76571428D01*
X117238095Y-76571428D01*
X118190476Y-77904761D02*
X118000000Y-77809523D01*
X117904761Y-77714285D01*
X117809523Y-77523809D01*
X117809523Y-76952380D01*
X117904761Y-76761904D01*
X118000000Y-76666666D01*
X118190476Y-76571428D01*
X118476190Y-76571428D01*
X118666666Y-76666666D01*
X118761904Y-76761904D01*
X118857142Y-76952380D01*
X118857142Y-77523809D01*
X118761904Y-77714285D01*
X118666666Y-77809523D01*
X118476190Y-77904761D01*
X118190476Y-77904761D01*
X120571428Y-76571428D02*
X120571428Y-78190476D01*
X120476190Y-78380952D01*
X120380952Y-78476190D01*
X120190476Y-78571428D01*
X119904761Y-78571428D01*
X119714285Y-78476190D01*
X120571428Y-77809523D02*
X120380952Y-77904761D01*
X120000000Y-77904761D01*
X119809523Y-77809523D01*
X119714285Y-77714285D01*
X119619047Y-77523809D01*
X119619047Y-76952380D01*
X119714285Y-76761904D01*
X119809523Y-76666666D01*
X120000000Y-76571428D01*
X120380952Y-76571428D01*
X120571428Y-76666666D01*
X121523809Y-77904761D02*
X121523809Y-76571428D01*
X121523809Y-76952380D02*
X121619047Y-76761904D01*
X121714285Y-76666666D01*
X121904761Y-76571428D01*
X122095238Y-76571428D01*
X123619047Y-77904761D02*
X123619047Y-76857142D01*
X123523809Y-76666666D01*
X123333333Y-76571428D01*
X122952380Y-76571428D01*
X122761904Y-76666666D01*
X123619047Y-77809523D02*
X123428571Y-77904761D01*
X122952380Y-77904761D01*
X122761904Y-77809523D01*
X122666666Y-77619047D01*
X122666666Y-77428571D01*
X122761904Y-77238095D01*
X122952380Y-77142857D01*
X123428571Y-77142857D01*
X123619047Y-77047619D01*
X124571428Y-77904761D02*
X124571428Y-76571428D01*
X124571428Y-76761904D02*
X124666666Y-76666666D01*
X124857142Y-76571428D01*
X125142857Y-76571428D01*
X125333333Y-76666666D01*
X125428571Y-76857142D01*
X125428571Y-77904761D01*
X125428571Y-76857142D02*
X125523809Y-76666666D01*
X125714285Y-76571428D01*
X126000000Y-76571428D01*
X126190476Y-76666666D01*
X126285714Y-76857142D01*
X126285714Y-77904761D01*
X129904761Y-77714285D02*
X129809523Y-77809523D01*
X129523809Y-77904761D01*
X129333333Y-77904761D01*
X129047619Y-77809523D01*
X128857142Y-77619047D01*
X128761904Y-77428571D01*
X128666666Y-77047619D01*
X128666666Y-76761904D01*
X128761904Y-76380952D01*
X128857142Y-76190476D01*
X129047619Y-76000000D01*
X129333333Y-75904761D01*
X129523809Y-75904761D01*
X129809523Y-76000000D01*
X129904761Y-76095238D01*
X131047619Y-77904761D02*
X130857142Y-77809523D01*
X130761904Y-77714285D01*
X130666666Y-77523809D01*
X130666666Y-76952380D01*
X130761904Y-76761904D01*
X130857142Y-76666666D01*
X131047619Y-76571428D01*
X131333333Y-76571428D01*
X131523809Y-76666666D01*
X131619047Y-76761904D01*
X131714285Y-76952380D01*
X131714285Y-77523809D01*
X131619047Y-77714285D01*
X131523809Y-77809523D01*
X131333333Y-77904761D01*
X131047619Y-77904761D01*
X133428571Y-76571428D02*
X133428571Y-77904761D01*
X132571428Y-76571428D02*
X132571428Y-77619047D01*
X132666666Y-77809523D01*
X132857142Y-77904761D01*
X133142857Y-77904761D01*
X133333333Y-77809523D01*
X133428571Y-77714285D01*
X134380952Y-76571428D02*
X134380952Y-77904761D01*
X134380952Y-76761904D02*
X134476190Y-76666666D01*
X134666666Y-76571428D01*
X134952380Y-76571428D01*
X135142857Y-76666666D01*
X135238095Y-76857142D01*
X135238095Y-77904761D01*
X135904761Y-76571428D02*
X136666666Y-76571428D01*
X136190476Y-75904761D02*
X136190476Y-77619047D01*
X136285714Y-77809523D01*
X136476190Y-77904761D01*
X136666666Y-77904761D01*
X138095238Y-77809523D02*
X137904761Y-77904761D01*
X137523809Y-77904761D01*
X137333333Y-77809523D01*
X137238095Y-77619047D01*
X137238095Y-76857142D01*
X137333333Y-76666666D01*
X137523809Y-76571428D01*
X137904761Y-76571428D01*
X138095238Y-76666666D01*
X138190476Y-76857142D01*
X138190476Y-77047619D01*
X137238095Y-77238095D01*
X139047619Y-77904761D02*
X139047619Y-76571428D01*
X139047619Y-76952380D02*
X139142857Y-76761904D01*
X139238095Y-76666666D01*
X139428571Y-76571428D01*
X139619047Y-76571428D01*
D11*
X184380952Y-75708333D02*
X185333333Y-75708333D01*
X184190476Y-76279761D02*
X184857142Y-74279761D01*
X185523809Y-76279761D01*
X187047619Y-76279761D02*
X187047619Y-74279761D01*
X187047619Y-76184523D02*
X186857142Y-76279761D01*
X186476190Y-76279761D01*
X186285714Y-76184523D01*
X186190476Y-76089285D01*
X186095238Y-75898809D01*
X186095238Y-75327380D01*
X186190476Y-75136904D01*
X186285714Y-75041666D01*
X186476190Y-74946428D01*
X186857142Y-74946428D01*
X187047619Y-75041666D01*
X188857142Y-76279761D02*
X188857142Y-74279761D01*
X188857142Y-76184523D02*
X188666666Y-76279761D01*
X188285714Y-76279761D01*
X188095238Y-76184523D01*
X188000000Y-76089285D01*
X187904761Y-75898809D01*
X187904761Y-75327380D01*
X188000000Y-75136904D01*
X188095238Y-75041666D01*
X188285714Y-74946428D01*
X188666666Y-74946428D01*
X188857142Y-75041666D01*
X189809523Y-76279761D02*
X189809523Y-74946428D01*
X189809523Y-74279761D02*
X189714285Y-74375000D01*
X189809523Y-74470238D01*
X189904761Y-74375000D01*
X189809523Y-74279761D01*
X189809523Y-74470238D01*
X190476190Y-74946428D02*
X191238095Y-74946428D01*
X190761904Y-74279761D02*
X190761904Y-75994047D01*
X190857142Y-76184523D01*
X191047619Y-76279761D01*
X191238095Y-76279761D01*
X191904761Y-76279761D02*
X191904761Y-74946428D01*
X191904761Y-74279761D02*
X191809523Y-74375000D01*
X191904761Y-74470238D01*
X192000000Y-74375000D01*
X191904761Y-74279761D01*
X191904761Y-74470238D01*
X193142857Y-76279761D02*
X192952380Y-76184523D01*
X192857142Y-76089285D01*
X192761904Y-75898809D01*
X192761904Y-75327380D01*
X192857142Y-75136904D01*
X192952380Y-75041666D01*
X193142857Y-74946428D01*
X193428571Y-74946428D01*
X193619047Y-75041666D01*
X193714285Y-75136904D01*
X193809523Y-75327380D01*
X193809523Y-75898809D01*
X193714285Y-76089285D01*
X193619047Y-76184523D01*
X193428571Y-76279761D01*
X193142857Y-76279761D01*
X194666666Y-74946428D02*
X194666666Y-76279761D01*
X194666666Y-75136904D02*
X194761904Y-75041666D01*
X194952380Y-74946428D01*
X195238095Y-74946428D01*
X195428571Y-75041666D01*
X195523809Y-75232142D01*
X195523809Y-76279761D01*
X187476190Y-79529761D02*
X186523809Y-79529761D01*
X186523809Y-77529761D01*
X188428571Y-79529761D02*
X188238095Y-79434523D01*
X188142857Y-79339285D01*
X188047619Y-79148809D01*
X188047619Y-78577380D01*
X188142857Y-78386904D01*
X188238095Y-78291666D01*
X188428571Y-78196428D01*
X188714285Y-78196428D01*
X188904761Y-78291666D01*
X189000000Y-78386904D01*
X189095238Y-78577380D01*
X189095238Y-79148809D01*
X189000000Y-79339285D01*
X188904761Y-79434523D01*
X188714285Y-79529761D01*
X188428571Y-79529761D01*
X190809523Y-78196428D02*
X190809523Y-79815476D01*
X190714285Y-80005952D01*
X190619047Y-80101190D01*
X190428571Y-80196428D01*
X190142857Y-80196428D01*
X189952380Y-80101190D01*
X190809523Y-79434523D02*
X190619047Y-79529761D01*
X190238095Y-79529761D01*
X190047619Y-79434523D01*
X189952380Y-79339285D01*
X189857142Y-79148809D01*
X189857142Y-78577380D01*
X189952380Y-78386904D01*
X190047619Y-78291666D01*
X190238095Y-78196428D01*
X190619047Y-78196428D01*
X190809523Y-78291666D01*
X191761904Y-79529761D02*
X191761904Y-78196428D01*
X191761904Y-77529761D02*
X191666666Y-77625000D01*
X191761904Y-77720238D01*
X191857142Y-77625000D01*
X191761904Y-77529761D01*
X191761904Y-77720238D01*
X193571428Y-79434523D02*
X193380952Y-79529761D01*
X193000000Y-79529761D01*
X192809523Y-79434523D01*
X192714285Y-79339285D01*
X192619047Y-79148809D01*
X192619047Y-78577380D01*
X192714285Y-78386904D01*
X192809523Y-78291666D01*
X193000000Y-78196428D01*
X193380952Y-78196428D01*
X193571428Y-78291666D01*
D14*
X146000000Y-31000000D02*
X146000000Y-117000000D01*
X147000000Y-31000000D02*
X146000000Y-31000000D01*
X165000000Y-31000000D02*
X147000000Y-31000000D01*
X165000000Y-117000000D02*
X165000000Y-31000000D01*
X146000000Y-117000000D02*
X165000000Y-117000000D01*
X114000000Y-24000000D02*
X114000000Y-126000000D01*
X115000000Y-24000000D02*
X114000000Y-24000000D01*
X140000000Y-24000000D02*
X115000000Y-24000000D01*
X140000000Y-126000000D02*
X140000000Y-24000000D01*
X114000000Y-126000000D02*
X140000000Y-126000000D01*
X87000000Y-29000000D02*
X91000000Y-24000000D01*
X86000000Y-149000000D02*
X87000000Y-29000000D01*
X107000000Y-24000000D02*
X91000000Y-24000000D01*
X110000000Y-27000000D02*
X107000000Y-24000000D01*
X110000000Y-150000000D02*
X110000000Y-27000000D01*
X105000000Y-153000000D02*
X110000000Y-150000000D01*
X91000000Y-153000000D02*
X105000000Y-153000000D01*
X86000000Y-149000000D02*
X91000000Y-153000000D01*
X170000000Y-131000000D02*
X170000000Y-35000000D01*
X175000000Y-136000000D02*
X170000000Y-131000000D01*
X206000000Y-136000000D02*
X175000000Y-136000000D01*
X212000000Y-131000000D02*
X206000000Y-136000000D01*
X213000000Y-35000000D02*
X212000000Y-131000000D01*
X207000000Y-27000000D02*
X213000000Y-35000000D01*
X177000000Y-27000000D02*
X207000000Y-27000000D01*
X170000000Y-35000000D02*
X177000000Y-27000000D01*
D10*
X62238095Y-151500000D02*
X62142857Y-151452380D01*
X62000000Y-151452380D01*
X61857142Y-151500000D01*
X61761904Y-151595238D01*
X61714285Y-151690476D01*
X61666666Y-151880952D01*
X61666666Y-152023809D01*
X61714285Y-152214285D01*
X61761904Y-152309523D01*
X61857142Y-152404761D01*
X62000000Y-152452380D01*
X62095238Y-152452380D01*
X62238095Y-152404761D01*
X62285714Y-152357142D01*
X62285714Y-152023809D01*
X62095238Y-152023809D01*
X62714285Y-152452380D02*
X62714285Y-151452380D01*
X63285714Y-152452380D01*
X63285714Y-151452380D01*
X63761904Y-152452380D02*
X63761904Y-151452380D01*
X64000000Y-151452380D01*
X64142857Y-151500000D01*
X64238095Y-151595238D01*
X64285714Y-151690476D01*
X64333333Y-151880952D01*
X64333333Y-152023809D01*
X64285714Y-152214285D01*
X64238095Y-152309523D01*
X64142857Y-152404761D01*
X64000000Y-152452380D01*
X63761904Y-152452380D01*
X217809523Y-151452380D02*
X217333333Y-151452380D01*
X217285714Y-151928571D01*
X217333333Y-151880952D01*
X217428571Y-151833333D01*
X217666666Y-151833333D01*
X217761904Y-151880952D01*
X217809523Y-151928571D01*
X217857142Y-152023809D01*
X217857142Y-152261904D01*
X217809523Y-152357142D01*
X217761904Y-152404761D01*
X217666666Y-152452380D01*
X217428571Y-152452380D01*
X217333333Y-152404761D01*
X217285714Y-152357142D01*
X218142857Y-151452380D02*
X218476190Y-152452380D01*
X218809523Y-151452380D01*
X216238095Y-24500000D02*
X216142857Y-24452380D01*
X216000000Y-24452380D01*
X215857142Y-24500000D01*
X215761904Y-24595238D01*
X215714285Y-24690476D01*
X215666666Y-24880952D01*
X215666666Y-25023809D01*
X215714285Y-25214285D01*
X215761904Y-25309523D01*
X215857142Y-25404761D01*
X216000000Y-25452380D01*
X216095238Y-25452380D01*
X216238095Y-25404761D01*
X216285714Y-25357142D01*
X216285714Y-25023809D01*
X216095238Y-25023809D01*
X216714285Y-25452380D02*
X216714285Y-24452380D01*
X217285714Y-25452380D01*
X217285714Y-24452380D01*
X217761904Y-25452380D02*
X217761904Y-24452380D01*
X218000000Y-24452380D01*
X218142857Y-24500000D01*
X218238095Y-24595238D01*
X218285714Y-24690476D01*
X218333333Y-24880952D01*
X218333333Y-25023809D01*
X218285714Y-25214285D01*
X218238095Y-25309523D01*
X218142857Y-25404761D01*
X218000000Y-25452380D01*
X217761904Y-25452380D01*
X61809523Y-24452380D02*
X61333333Y-24452380D01*
X61285714Y-24928571D01*
X61333333Y-24880952D01*
X61428571Y-24833333D01*
X61666666Y-24833333D01*
X61761904Y-24880952D01*
X61809523Y-24928571D01*
X61857142Y-25023809D01*
X61857142Y-25261904D01*
X61809523Y-25357142D01*
X61761904Y-25404761D01*
X61666666Y-25452380D01*
X61428571Y-25452380D01*
X61333333Y-25404761D01*
X61285714Y-25357142D01*
X62142857Y-24452380D02*
X62476190Y-25452380D01*
X62809523Y-24452380D01*
D11*
X190952380Y-152714285D02*
X190857142Y-152809523D01*
X190571428Y-152904761D01*
X190380952Y-152904761D01*
X190095238Y-152809523D01*
X189904761Y-152619047D01*
X189809523Y-152428571D01*
X189714285Y-152047619D01*
X189714285Y-151761904D01*
X189809523Y-151380952D01*
X189904761Y-151190476D01*
X190095238Y-151000000D01*
X190380952Y-150904761D01*
X190571428Y-150904761D01*
X190857142Y-151000000D01*
X190952380Y-151095238D01*
X192095238Y-152904761D02*
X191904761Y-152809523D01*
X191809523Y-152714285D01*
X191714285Y-152523809D01*
X191714285Y-151952380D01*
X191809523Y-151761904D01*
X191904761Y-151666666D01*
X192095238Y-151571428D01*
X192380952Y-151571428D01*
X192571428Y-151666666D01*
X192666666Y-151761904D01*
X192761904Y-151952380D01*
X192761904Y-152523809D01*
X192666666Y-152714285D01*
X192571428Y-152809523D01*
X192380952Y-152904761D01*
X192095238Y-152904761D01*
X193619047Y-151571428D02*
X193619047Y-152904761D01*
X193619047Y-151761904D02*
X193714285Y-151666666D01*
X193904761Y-151571428D01*
X194190476Y-151571428D01*
X194380952Y-151666666D01*
X194476190Y-151857142D01*
X194476190Y-152904761D01*
X195142857Y-151571428D02*
X195904761Y-151571428D01*
X195428571Y-150904761D02*
X195428571Y-152619047D01*
X195523809Y-152809523D01*
X195714285Y-152904761D01*
X195904761Y-152904761D01*
X196571428Y-152904761D02*
X196571428Y-151571428D01*
X196571428Y-151952380D02*
X196666666Y-151761904D01*
X196761904Y-151666666D01*
X196952380Y-151571428D01*
X197142857Y-151571428D01*
X198095238Y-152904761D02*
X197904761Y-152809523D01*
X197809523Y-152714285D01*
X197714285Y-152523809D01*
X197714285Y-151952380D01*
X197809523Y-151761904D01*
X197904761Y-151666666D01*
X198095238Y-151571428D01*
X198380952Y-151571428D01*
X198571428Y-151666666D01*
X198666666Y-151761904D01*
X198761904Y-151952380D01*
X198761904Y-152523809D01*
X198666666Y-152714285D01*
X198571428Y-152809523D01*
X198380952Y-152904761D01*
X198095238Y-152904761D01*
X199904761Y-152904761D02*
X199714285Y-152809523D01*
X199619047Y-152619047D01*
X199619047Y-150904761D01*
X202095238Y-152809523D02*
X202380952Y-152904761D01*
X202857142Y-152904761D01*
X203047619Y-152809523D01*
X203142857Y-152714285D01*
X203238095Y-152523809D01*
X203238095Y-152333333D01*
X203142857Y-152142857D01*
X203047619Y-152047619D01*
X202857142Y-151952380D01*
X202476190Y-151857142D01*
X202285714Y-151761904D01*
X202190476Y-151666666D01*
X202095238Y-151476190D01*
X202095238Y-151285714D01*
X202190476Y-151095238D01*
X202285714Y-151000000D01*
X202476190Y-150904761D01*
X202952380Y-150904761D01*
X203238095Y-151000000D01*
X204095238Y-152904761D02*
X204095238Y-151571428D01*
X204095238Y-150904761D02*
X204000000Y-151000000D01*
X204095238Y-151095238D01*
X204190476Y-151000000D01*
X204095238Y-150904761D01*
X204095238Y-151095238D01*
X205904761Y-151571428D02*
X205904761Y-153190476D01*
X205809523Y-153380952D01*
X205714285Y-153476190D01*
X205523809Y-153571428D01*
X205238095Y-153571428D01*
X205047619Y-153476190D01*
X205904761Y-152809523D02*
X205714285Y-152904761D01*
X205333333Y-152904761D01*
X205142857Y-152809523D01*
X205047619Y-152714285D01*
X204952380Y-152523809D01*
X204952380Y-151952380D01*
X205047619Y-151761904D01*
X205142857Y-151666666D01*
X205333333Y-151571428D01*
X205714285Y-151571428D01*
X205904761Y-151666666D01*
X206857142Y-151571428D02*
X206857142Y-152904761D01*
X206857142Y-151761904D02*
X206952380Y-151666666D01*
X207142857Y-151571428D01*
X207428571Y-151571428D01*
X207619047Y-151666666D01*
X207714285Y-151857142D01*
X207714285Y-152904761D01*
X209523809Y-152904761D02*
X209523809Y-151857142D01*
X209428571Y-151666666D01*
X209238095Y-151571428D01*
X208857142Y-151571428D01*
X208666666Y-151666666D01*
X209523809Y-152809523D02*
X209333333Y-152904761D01*
X208857142Y-152904761D01*
X208666666Y-152809523D01*
X208571428Y-152619047D01*
X208571428Y-152428571D01*
X208666666Y-152238095D01*
X208857142Y-152142857D01*
X209333333Y-152142857D01*
X209523809Y-152047619D01*
X210761904Y-152904761D02*
X210571428Y-152809523D01*
X210476190Y-152619047D01*
X210476190Y-150904761D01*
X211428571Y-152809523D02*
X211619047Y-152904761D01*
X212000000Y-152904761D01*
X212190476Y-152809523D01*
X212285714Y-152619047D01*
X212285714Y-152523809D01*
X212190476Y-152333333D01*
X212000000Y-152238095D01*
X211714285Y-152238095D01*
X211523809Y-152142857D01*
X211428571Y-151952380D01*
X211428571Y-151857142D01*
X211523809Y-151666666D01*
X211714285Y-151571428D01*
X212000000Y-151571428D01*
X212190476Y-151666666D01*
D10*
X143404761Y-151404761D02*
X143547619Y-151452380D01*
X143785714Y-151452380D01*
X143880952Y-151404761D01*
X143928571Y-151357142D01*
X143976190Y-151261904D01*
X143976190Y-151166666D01*
X143928571Y-151071428D01*
X143880952Y-151023809D01*
X143785714Y-150976190D01*
X143595238Y-150928571D01*
X143500000Y-150880952D01*
X143452380Y-150833333D01*
X143404761Y-150738095D01*
X143404761Y-150642857D01*
X143452380Y-150547619D01*
X143500000Y-150500000D01*
X143595238Y-150452380D01*
X143833333Y-150452380D01*
X143976190Y-150500000D01*
X144785714Y-151404761D02*
X144690476Y-151452380D01*
X144500000Y-151452380D01*
X144404761Y-151404761D01*
X144357142Y-151309523D01*
X144357142Y-150928571D01*
X144404761Y-150833333D01*
X144500000Y-150785714D01*
X144690476Y-150785714D01*
X144785714Y-150833333D01*
X144833333Y-150928571D01*
X144833333Y-151023809D01*
X144357142Y-151119047D01*
X145119047Y-150785714D02*
X145500000Y-150785714D01*
X145261904Y-150452380D02*
X145261904Y-151309523D01*
X145309523Y-151404761D01*
X145404761Y-151452380D01*
X145500000Y-151452380D01*
X146595238Y-150785714D02*
X146595238Y-151785714D01*
X146595238Y-150833333D02*
X146690476Y-150785714D01*
X146880952Y-150785714D01*
X146976190Y-150833333D01*
X147023809Y-150880952D01*
X147071428Y-150976190D01*
X147071428Y-151261904D01*
X147023809Y-151357142D01*
X146976190Y-151404761D01*
X146880952Y-151452380D01*
X146690476Y-151452380D01*
X146595238Y-151404761D01*
X147642857Y-151452380D02*
X147547619Y-151404761D01*
X147500000Y-151357142D01*
X147452380Y-151261904D01*
X147452380Y-150976190D01*
X147500000Y-150880952D01*
X147547619Y-150833333D01*
X147642857Y-150785714D01*
X147785714Y-150785714D01*
X147880952Y-150833333D01*
X147928571Y-150880952D01*
X147976190Y-150976190D01*
X147976190Y-151261904D01*
X147928571Y-151357142D01*
X147880952Y-151404761D01*
X147785714Y-151452380D01*
X147642857Y-151452380D01*
X148261904Y-150785714D02*
X148642857Y-150785714D01*
X148404761Y-150452380D02*
X148404761Y-151309523D01*
X148452380Y-151404761D01*
X148547619Y-151452380D01*
X148642857Y-151452380D01*
X149357142Y-151404761D02*
X149261904Y-151452380D01*
X149071428Y-151452380D01*
X148976190Y-151404761D01*
X148928571Y-151309523D01*
X148928571Y-150928571D01*
X148976190Y-150833333D01*
X149071428Y-150785714D01*
X149261904Y-150785714D01*
X149357142Y-150833333D01*
X149404761Y-150928571D01*
X149404761Y-151023809D01*
X148928571Y-151119047D01*
X149833333Y-150785714D02*
X149833333Y-151452380D01*
X149833333Y-150880952D02*
X149880952Y-150833333D01*
X149976190Y-150785714D01*
X150119047Y-150785714D01*
X150214285Y-150833333D01*
X150261904Y-150928571D01*
X150261904Y-151452380D01*
X150595238Y-150785714D02*
X150976190Y-150785714D01*
X150738095Y-150452380D02*
X150738095Y-151309523D01*
X150785714Y-151404761D01*
X150880952Y-151452380D01*
X150976190Y-151452380D01*
X151309523Y-151452380D02*
X151309523Y-150785714D01*
X151309523Y-150452380D02*
X151261904Y-150500000D01*
X151309523Y-150547619D01*
X151357142Y-150500000D01*
X151309523Y-150452380D01*
X151309523Y-150547619D01*
X151928571Y-151452380D02*
X151833333Y-151404761D01*
X151785714Y-151357142D01*
X151738095Y-151261904D01*
X151738095Y-150976190D01*
X151785714Y-150880952D01*
X151833333Y-150833333D01*
X151928571Y-150785714D01*
X152071428Y-150785714D01*
X152166666Y-150833333D01*
X152214285Y-150880952D01*
X152261904Y-150976190D01*
X152261904Y-151261904D01*
X152214285Y-151357142D01*
X152166666Y-151404761D01*
X152071428Y-151452380D01*
X151928571Y-151452380D01*
X152690476Y-151452380D02*
X152690476Y-150785714D01*
X152690476Y-150880952D02*
X152738095Y-150833333D01*
X152833333Y-150785714D01*
X152976190Y-150785714D01*
X153071428Y-150833333D01*
X153119047Y-150928571D01*
X153119047Y-151452380D01*
X153119047Y-150928571D02*
X153166666Y-150833333D01*
X153261904Y-150785714D01*
X153404761Y-150785714D01*
X153500000Y-150833333D01*
X153547619Y-150928571D01*
X153547619Y-151452380D01*
X154404761Y-151404761D02*
X154309523Y-151452380D01*
X154119047Y-151452380D01*
X154023809Y-151404761D01*
X153976190Y-151309523D01*
X153976190Y-150928571D01*
X154023809Y-150833333D01*
X154119047Y-150785714D01*
X154309523Y-150785714D01*
X154404761Y-150833333D01*
X154452380Y-150928571D01*
X154452380Y-151023809D01*
X153976190Y-151119047D01*
X154738095Y-150785714D02*
X155119047Y-150785714D01*
X154880952Y-150452380D02*
X154880952Y-151309523D01*
X154928571Y-151404761D01*
X155023809Y-151452380D01*
X155119047Y-151452380D01*
X155833333Y-151404761D02*
X155738095Y-151452380D01*
X155547619Y-151452380D01*
X155452380Y-151404761D01*
X155404761Y-151309523D01*
X155404761Y-150928571D01*
X155452380Y-150833333D01*
X155547619Y-150785714D01*
X155738095Y-150785714D01*
X155833333Y-150833333D01*
X155880952Y-150928571D01*
X155880952Y-151023809D01*
X155404761Y-151119047D01*
X156309523Y-151452380D02*
X156309523Y-150785714D01*
X156309523Y-150976190D02*
X156357142Y-150880952D01*
X156404761Y-150833333D01*
X156500000Y-150785714D01*
X156595238Y-150785714D01*
X157547619Y-150785714D02*
X157928571Y-150785714D01*
X157690476Y-150452380D02*
X157690476Y-151309523D01*
X157738095Y-151404761D01*
X157833333Y-151452380D01*
X157928571Y-151452380D01*
X158404761Y-151452380D02*
X158309523Y-151404761D01*
X158261904Y-151357142D01*
X158214285Y-151261904D01*
X158214285Y-150976190D01*
X158261904Y-150880952D01*
X158309523Y-150833333D01*
X158404761Y-150785714D01*
X158547619Y-150785714D01*
X158642857Y-150833333D01*
X158690476Y-150880952D01*
X158738095Y-150976190D01*
X158738095Y-151261904D01*
X158690476Y-151357142D01*
X158642857Y-151404761D01*
X158547619Y-151452380D01*
X158404761Y-151452380D01*
X159833333Y-150785714D02*
X160071428Y-151452380D01*
X160309523Y-150785714D01*
X161119047Y-151452380D02*
X161119047Y-150928571D01*
X161071428Y-150833333D01*
X160976190Y-150785714D01*
X160785714Y-150785714D01*
X160690476Y-150833333D01*
X161119047Y-151404761D02*
X161023809Y-151452380D01*
X160785714Y-151452380D01*
X160690476Y-151404761D01*
X160642857Y-151309523D01*
X160642857Y-151214285D01*
X160690476Y-151119047D01*
X160785714Y-151071428D01*
X161023809Y-151071428D01*
X161119047Y-151023809D01*
X161595238Y-151452380D02*
X161595238Y-150785714D01*
X161595238Y-150976190D02*
X161642857Y-150880952D01*
X161690476Y-150833333D01*
X161785714Y-150785714D01*
X161880952Y-150785714D01*
X162119047Y-150785714D02*
X162357142Y-151452380D01*
X162595238Y-150785714D02*
X162357142Y-151452380D01*
X162261904Y-151690476D01*
X162214285Y-151738095D01*
X162119047Y-151785714D01*
X163738095Y-151452380D02*
X163738095Y-150785714D01*
X163738095Y-150976190D02*
X163785714Y-150880952D01*
X163833333Y-150833333D01*
X163928571Y-150785714D01*
X164023809Y-150785714D01*
X164738095Y-151404761D02*
X164642857Y-151452380D01*
X164452380Y-151452380D01*
X164357142Y-151404761D01*
X164309523Y-151309523D01*
X164309523Y-150928571D01*
X164357142Y-150833333D01*
X164452380Y-150785714D01*
X164642857Y-150785714D01*
X164738095Y-150833333D01*
X164785714Y-150928571D01*
X164785714Y-151023809D01*
X164309523Y-151119047D01*
X165642857Y-150785714D02*
X165642857Y-151595238D01*
X165595238Y-151690476D01*
X165547619Y-151738095D01*
X165452380Y-151785714D01*
X165309523Y-151785714D01*
X165214285Y-151738095D01*
X165642857Y-151404761D02*
X165547619Y-151452380D01*
X165357142Y-151452380D01*
X165261904Y-151404761D01*
X165214285Y-151357142D01*
X165166666Y-151261904D01*
X165166666Y-150976190D01*
X165214285Y-150880952D01*
X165261904Y-150833333D01*
X165357142Y-150785714D01*
X165547619Y-150785714D01*
X165642857Y-150833333D01*
X166119047Y-151452380D02*
X166119047Y-150785714D01*
X166119047Y-150452380D02*
X166071428Y-150500000D01*
X166119047Y-150547619D01*
X166166666Y-150500000D01*
X166119047Y-150452380D01*
X166119047Y-150547619D01*
X166547619Y-151404761D02*
X166642857Y-151452380D01*
X166833333Y-151452380D01*
X166928571Y-151404761D01*
X166976190Y-151309523D01*
X166976190Y-151261904D01*
X166928571Y-151166666D01*
X166833333Y-151119047D01*
X166690476Y-151119047D01*
X166595238Y-151071428D01*
X166547619Y-150976190D01*
X166547619Y-150928571D01*
X166595238Y-150833333D01*
X166690476Y-150785714D01*
X166833333Y-150785714D01*
X166928571Y-150833333D01*
X167261904Y-150785714D02*
X167642857Y-150785714D01*
X167404761Y-150452380D02*
X167404761Y-151309523D01*
X167452380Y-151404761D01*
X167547619Y-151452380D01*
X167642857Y-151452380D01*
X168357142Y-151404761D02*
X168261904Y-151452380D01*
X168071428Y-151452380D01*
X167976190Y-151404761D01*
X167928571Y-151309523D01*
X167928571Y-150928571D01*
X167976190Y-150833333D01*
X168071428Y-150785714D01*
X168261904Y-150785714D01*
X168357142Y-150833333D01*
X168404761Y-150928571D01*
X168404761Y-151023809D01*
X167928571Y-151119047D01*
X168833333Y-151452380D02*
X168833333Y-150785714D01*
X168833333Y-150976190D02*
X168880952Y-150880952D01*
X168928571Y-150833333D01*
X169023809Y-150785714D01*
X169119047Y-150785714D01*
X170785714Y-151357142D02*
X170738095Y-151404761D01*
X170595238Y-151452380D01*
X170499999Y-151452380D01*
X170357142Y-151404761D01*
X170261904Y-151309523D01*
X170214285Y-151214285D01*
X170166666Y-151023809D01*
X170166666Y-150880952D01*
X170214285Y-150690476D01*
X170261904Y-150595238D01*
X170357142Y-150500000D01*
X170499999Y-150452380D01*
X170595238Y-150452380D01*
X170738095Y-150500000D01*
X170785714Y-150547619D01*
X171690476Y-151452380D02*
X171214285Y-151452380D01*
X171214285Y-150452380D01*
X172595238Y-151452380D02*
X172261904Y-150976190D01*
X172023809Y-151452380D02*
X172023809Y-150452380D01*
X172404761Y-150452380D01*
X172499999Y-150500000D01*
X172547619Y-150547619D01*
X172595238Y-150642857D01*
X172595238Y-150785714D01*
X172547619Y-150880952D01*
X172499999Y-150928571D01*
X172404761Y-150976190D01*
X172023809Y-150976190D01*
X173642857Y-150785714D02*
X174023809Y-150785714D01*
X173785714Y-150452380D02*
X173785714Y-151309523D01*
X173833333Y-151404761D01*
X173928571Y-151452380D01*
X174023809Y-151452380D01*
X174357142Y-151452380D02*
X174357142Y-150785714D01*
X174357142Y-150452380D02*
X174309523Y-150500000D01*
X174357142Y-150547619D01*
X174404761Y-150500000D01*
X174357142Y-150452380D01*
X174357142Y-150547619D01*
X174833333Y-151452380D02*
X174833333Y-150785714D01*
X174833333Y-150880952D02*
X174880952Y-150833333D01*
X174976190Y-150785714D01*
X175119047Y-150785714D01*
X175214285Y-150833333D01*
X175261904Y-150928571D01*
X175261904Y-151452380D01*
X175261904Y-150928571D02*
X175309523Y-150833333D01*
X175404761Y-150785714D01*
X175547619Y-150785714D01*
X175642857Y-150833333D01*
X175690476Y-150928571D01*
X175690476Y-151452380D01*
X176547619Y-151404761D02*
X176452380Y-151452380D01*
X176261904Y-151452380D01*
X176166666Y-151404761D01*
X176119047Y-151309523D01*
X176119047Y-150928571D01*
X176166666Y-150833333D01*
X176261904Y-150785714D01*
X176452380Y-150785714D01*
X176547619Y-150833333D01*
X176595238Y-150928571D01*
X176595238Y-151023809D01*
X176119047Y-151119047D01*
X220095238Y-44142857D02*
X222095238Y-44142857D01*
X222095238Y-44904761D01*
X222000000Y-45095238D01*
X221904761Y-45190476D01*
X221714285Y-45285714D01*
X221428571Y-45285714D01*
X221238095Y-45190476D01*
X221142857Y-45095238D01*
X221047619Y-44904761D01*
X221047619Y-44142857D01*
X220095238Y-46142857D02*
X221428571Y-46142857D01*
X221047619Y-46142857D02*
X221238095Y-46238095D01*
X221333333Y-46333333D01*
X221428571Y-46523809D01*
X221428571Y-46714285D01*
X220095238Y-47666666D02*
X220190476Y-47476190D01*
X220285714Y-47380952D01*
X220476190Y-47285714D01*
X221047619Y-47285714D01*
X221238095Y-47380952D01*
X221333333Y-47476190D01*
X221428571Y-47666666D01*
X221428571Y-47952380D01*
X221333333Y-48142857D01*
X221238095Y-48238095D01*
X221047619Y-48333333D01*
X220476190Y-48333333D01*
X220285714Y-48238095D01*
X220190476Y-48142857D01*
X220095238Y-47952380D01*
X220095238Y-47666666D01*
X221428571Y-50047619D02*
X219809523Y-50047619D01*
X219619047Y-49952380D01*
X219523809Y-49857142D01*
X219428571Y-49666666D01*
X219428571Y-49380952D01*
X219523809Y-49190476D01*
X220190476Y-50047619D02*
X220095238Y-49857142D01*
X220095238Y-49476190D01*
X220190476Y-49285714D01*
X220285714Y-49190476D01*
X220476190Y-49095238D01*
X221047619Y-49095238D01*
X221238095Y-49190476D01*
X221333333Y-49285714D01*
X221428571Y-49476190D01*
X221428571Y-49857142D01*
X221333333Y-50047619D01*
X220095238Y-51000000D02*
X221428571Y-51000000D01*
X221047619Y-51000000D02*
X221238095Y-51095238D01*
X221333333Y-51190476D01*
X221428571Y-51380952D01*
X221428571Y-51571428D01*
X220095238Y-53095238D02*
X221142857Y-53095238D01*
X221333333Y-53000000D01*
X221428571Y-52809523D01*
X221428571Y-52428571D01*
X221333333Y-52238095D01*
X220190476Y-53095238D02*
X220095238Y-52904761D01*
X220095238Y-52428571D01*
X220190476Y-52238095D01*
X220380952Y-52142857D01*
X220571428Y-52142857D01*
X220761904Y-52238095D01*
X220857142Y-52428571D01*
X220857142Y-52904761D01*
X220952380Y-53095238D01*
X220095238Y-54047619D02*
X221428571Y-54047619D01*
X221238095Y-54047619D02*
X221333333Y-54142857D01*
X221428571Y-54333333D01*
X221428571Y-54619047D01*
X221333333Y-54809523D01*
X221142857Y-54904761D01*
X220095238Y-54904761D01*
X221142857Y-54904761D02*
X221333333Y-55000000D01*
X221428571Y-55190476D01*
X221428571Y-55476190D01*
X221333333Y-55666666D01*
X221142857Y-55761904D01*
X220095238Y-55761904D01*
X220285714Y-59380952D02*
X220190476Y-59285714D01*
X220095238Y-59000000D01*
X220095238Y-58809523D01*
X220190476Y-58523809D01*
X220380952Y-58333333D01*
X220571428Y-58238095D01*
X220952380Y-58142857D01*
X221238095Y-58142857D01*
X221619047Y-58238095D01*
X221809523Y-58333333D01*
X222000000Y-58523809D01*
X222095238Y-58809523D01*
X222095238Y-59000000D01*
X222000000Y-59285714D01*
X221904761Y-59380952D01*
X220095238Y-60523809D02*
X220190476Y-60333333D01*
X220285714Y-60238095D01*
X220476190Y-60142857D01*
X221047619Y-60142857D01*
X221238095Y-60238095D01*
X221333333Y-60333333D01*
X221428571Y-60523809D01*
X221428571Y-60809523D01*
X221333333Y-61000000D01*
X221238095Y-61095238D01*
X221047619Y-61190476D01*
X220476190Y-61190476D01*
X220285714Y-61095238D01*
X220190476Y-61000000D01*
X220095238Y-60809523D01*
X220095238Y-60523809D01*
X221428571Y-62904761D02*
X220095238Y-62904761D01*
X221428571Y-62047619D02*
X220380952Y-62047619D01*
X220190476Y-62142857D01*
X220095238Y-62333333D01*
X220095238Y-62619047D01*
X220190476Y-62809523D01*
X220285714Y-62904761D01*
X221428571Y-63857142D02*
X220095238Y-63857142D01*
X221238095Y-63857142D02*
X221333333Y-63952380D01*
X221428571Y-64142857D01*
X221428571Y-64428571D01*
X221333333Y-64619047D01*
X221142857Y-64714285D01*
X220095238Y-64714285D01*
X221428571Y-65380952D02*
X221428571Y-66142857D01*
X222095238Y-65666666D02*
X220380952Y-65666666D01*
X220190476Y-65761904D01*
X220095238Y-65952380D01*
X220095238Y-66142857D01*
X220190476Y-67571428D02*
X220095238Y-67380952D01*
X220095238Y-67000000D01*
X220190476Y-66809523D01*
X220380952Y-66714285D01*
X221142857Y-66714285D01*
X221333333Y-66809523D01*
X221428571Y-67000000D01*
X221428571Y-67380952D01*
X221333333Y-67571428D01*
X221142857Y-67666666D01*
X220952380Y-67666666D01*
X220761904Y-66714285D01*
X220095238Y-68523809D02*
X221428571Y-68523809D01*
X221047619Y-68523809D02*
X221238095Y-68619047D01*
X221333333Y-68714285D01*
X221428571Y-68904761D01*
X221428571Y-69095238D01*
X220095238Y-71571428D02*
X220190476Y-71380952D01*
X220285714Y-71285714D01*
X220476190Y-71190476D01*
X221047619Y-71190476D01*
X221238095Y-71285714D01*
X221333333Y-71380952D01*
X221428571Y-71571428D01*
X221428571Y-71857142D01*
X221333333Y-72047619D01*
X221238095Y-72142857D01*
X221047619Y-72238095D01*
X220476190Y-72238095D01*
X220285714Y-72142857D01*
X220190476Y-72047619D01*
X220095238Y-71857142D01*
X220095238Y-71571428D01*
X221428571Y-73952380D02*
X220095238Y-73952380D01*
X221428571Y-73095238D02*
X220380952Y-73095238D01*
X220190476Y-73190476D01*
X220095238Y-73380952D01*
X220095238Y-73666666D01*
X220190476Y-73857142D01*
X220285714Y-73952380D01*
X221428571Y-74619047D02*
X221428571Y-75380952D01*
X222095238Y-74904761D02*
X220380952Y-74904761D01*
X220190476Y-75000000D01*
X220095238Y-75190476D01*
X220095238Y-75380952D01*
X221428571Y-76047619D02*
X219428571Y-76047619D01*
X221333333Y-76047619D02*
X221428571Y-76238095D01*
X221428571Y-76619047D01*
X221333333Y-76809523D01*
X221238095Y-76904761D01*
X221047619Y-77000000D01*
X220476190Y-77000000D01*
X220285714Y-76904761D01*
X220190476Y-76809523D01*
X220095238Y-76619047D01*
X220095238Y-76238095D01*
X220190476Y-76047619D01*
X221428571Y-78714285D02*
X220095238Y-78714285D01*
X221428571Y-77857142D02*
X220380952Y-77857142D01*
X220190476Y-77952380D01*
X220095238Y-78142857D01*
X220095238Y-78428571D01*
X220190476Y-78619047D01*
X220285714Y-78714285D01*
X221428571Y-79380952D02*
X221428571Y-80142857D01*
X222095238Y-79666666D02*
X220380952Y-79666666D01*
X220190476Y-79761904D01*
X220095238Y-79952380D01*
X220095238Y-80142857D01*
X217619047Y-127904761D02*
X216666666Y-127904761D01*
X216571428Y-128857142D01*
X216666666Y-128761904D01*
X216857142Y-128666666D01*
X217333333Y-128666666D01*
X217523809Y-128761904D01*
X217619047Y-128857142D01*
X217714285Y-129047619D01*
X217714285Y-129523809D01*
X217619047Y-129714285D01*
X217523809Y-129809523D01*
X217333333Y-129904761D01*
X216857142Y-129904761D01*
X216666666Y-129809523D01*
X216571428Y-129714285D01*
X218285714Y-127904761D02*
X218952380Y-129904761D01*
X219619047Y-127904761D01*
X220285714Y-129904761D02*
X220285714Y-127904761D01*
X220761904Y-127904761D01*
X221047619Y-128000000D01*
X221238095Y-128190476D01*
X221333333Y-128380952D01*
X221428571Y-128761904D01*
X221428571Y-129047619D01*
X221333333Y-129428571D01*
X221238095Y-129619047D01*
X221047619Y-129809523D01*
X220761904Y-129904761D01*
X220285714Y-129904761D01*
X223428571Y-129714285D02*
X223333333Y-129809523D01*
X223047619Y-129904761D01*
X222857142Y-129904761D01*
X222571428Y-129809523D01*
X222380952Y-129619047D01*
X222285714Y-129428571D01*
X222190476Y-129047619D01*
X222190476Y-128761904D01*
X222285714Y-128380952D01*
X222380952Y-128190476D01*
X222571428Y-128000000D01*
X222857142Y-127904761D01*
X223047619Y-127904761D01*
X223333333Y-128000000D01*
X223428571Y-128095238D01*
X218476190Y-122000000D02*
X218285714Y-121904761D01*
X218000000Y-121904761D01*
X217714285Y-122000000D01*
X217523809Y-122190476D01*
X217428571Y-122380952D01*
X217333333Y-122761904D01*
X217333333Y-123047619D01*
X217428571Y-123428571D01*
X217523809Y-123619047D01*
X217714285Y-123809523D01*
X218000000Y-123904761D01*
X218190476Y-123904761D01*
X218476190Y-123809523D01*
X218571428Y-123714285D01*
X218571428Y-123047619D01*
X218190476Y-123047619D01*
X219428571Y-123904761D02*
X219428571Y-121904761D01*
X220571428Y-123904761D01*
X220571428Y-121904761D01*
X221523809Y-123904761D02*
X221523809Y-121904761D01*
X222000000Y-121904761D01*
X222285714Y-122000000D01*
X222476190Y-122190476D01*
X222571428Y-122380952D01*
X222666666Y-122761904D01*
X222666666Y-123047619D01*
X222571428Y-123428571D01*
X222476190Y-123619047D01*
X222285714Y-123809523D01*
X222000000Y-123904761D01*
X221523809Y-123904761D01*
X230404761Y-112357142D02*
X230357142Y-112404761D01*
X230214285Y-112452380D01*
X230119047Y-112452380D01*
X229976190Y-112404761D01*
X229880952Y-112309523D01*
X229833333Y-112214285D01*
X229785714Y-112023809D01*
X229785714Y-111880952D01*
X229833333Y-111690476D01*
X229880952Y-111595238D01*
X229976190Y-111500000D01*
X230119047Y-111452380D01*
X230214285Y-111452380D01*
X230357142Y-111500000D01*
X230404761Y-111547619D01*
X231309523Y-112452380D02*
X230833333Y-112452380D01*
X230833333Y-111452380D01*
X231642857Y-112452380D02*
X231642857Y-111452380D01*
X232214285Y-112452380D02*
X231785714Y-111880952D01*
X232214285Y-111452380D02*
X231642857Y-112023809D01*
X221595238Y-143928571D02*
X221261904Y-143928571D01*
X221261904Y-144452380D02*
X221261904Y-143452380D01*
X221738095Y-143452380D01*
X222119047Y-144452380D02*
X222119047Y-143785714D01*
X222119047Y-143452380D02*
X222071428Y-143500000D01*
X222119047Y-143547619D01*
X222166666Y-143500000D01*
X222119047Y-143452380D01*
X222119047Y-143547619D01*
X222738095Y-144452380D02*
X222642857Y-144404761D01*
X222595238Y-144309523D01*
X222595238Y-143452380D01*
X222976190Y-143785714D02*
X223357142Y-143785714D01*
X223119047Y-143452380D02*
X223119047Y-144309523D01*
X223166666Y-144404761D01*
X223261904Y-144452380D01*
X223357142Y-144452380D01*
X224071428Y-144404761D02*
X223976190Y-144452380D01*
X223785714Y-144452380D01*
X223690476Y-144404761D01*
X223642857Y-144309523D01*
X223642857Y-143928571D01*
X223690476Y-143833333D01*
X223785714Y-143785714D01*
X223976190Y-143785714D01*
X224071428Y-143833333D01*
X224119047Y-143928571D01*
X224119047Y-144023809D01*
X223642857Y-144119047D01*
X224547619Y-144452380D02*
X224547619Y-143785714D01*
X224547619Y-143976190D02*
X224595238Y-143880952D01*
X224642857Y-143833333D01*
X224738095Y-143785714D01*
X224833333Y-143785714D01*
X225166666Y-144452380D02*
X225166666Y-143785714D01*
X225166666Y-143452380D02*
X225119047Y-143500000D01*
X225166666Y-143547619D01*
X225214285Y-143500000D01*
X225166666Y-143452380D01*
X225166666Y-143547619D01*
X225642857Y-143785714D02*
X225642857Y-144452380D01*
X225642857Y-143880952D02*
X225690476Y-143833333D01*
X225785714Y-143785714D01*
X225928571Y-143785714D01*
X226023809Y-143833333D01*
X226071428Y-143928571D01*
X226071428Y-144452380D01*
X226976190Y-143785714D02*
X226976190Y-144595238D01*
X226928571Y-144690476D01*
X226880952Y-144738095D01*
X226785714Y-144785714D01*
X226642857Y-144785714D01*
X226547619Y-144738095D01*
X226976190Y-144404761D02*
X226880952Y-144452380D01*
X226690476Y-144452380D01*
X226595238Y-144404761D01*
X226547619Y-144357142D01*
X226500000Y-144261904D01*
X226500000Y-143976190D01*
X226547619Y-143880952D01*
X226595238Y-143833333D01*
X226690476Y-143785714D01*
X226880952Y-143785714D01*
X226976190Y-143833333D01*
X228642857Y-144404761D02*
X228547619Y-144452380D01*
X228357142Y-144452380D01*
X228261904Y-144404761D01*
X228214285Y-144357142D01*
X228166666Y-144261904D01*
X228166666Y-143976190D01*
X228214285Y-143880952D01*
X228261904Y-143833333D01*
X228357142Y-143785714D01*
X228547619Y-143785714D01*
X228642857Y-143833333D01*
X229500000Y-144452380D02*
X229500000Y-143928571D01*
X229452380Y-143833333D01*
X229357142Y-143785714D01*
X229166666Y-143785714D01*
X229071428Y-143833333D01*
X229500000Y-144404761D02*
X229404761Y-144452380D01*
X229166666Y-144452380D01*
X229071428Y-144404761D01*
X229023809Y-144309523D01*
X229023809Y-144214285D01*
X229071428Y-144119047D01*
X229166666Y-144071428D01*
X229404761Y-144071428D01*
X229500000Y-144023809D01*
X229976190Y-143785714D02*
X229976190Y-144785714D01*
X229976190Y-143833333D02*
X230071428Y-143785714D01*
X230261904Y-143785714D01*
X230357142Y-143833333D01*
X230404761Y-143880952D01*
X230452380Y-143976190D01*
X230452380Y-144261904D01*
X230404761Y-144357142D01*
X230357142Y-144404761D01*
X230261904Y-144452380D01*
X230071428Y-144452380D01*
X229976190Y-144404761D01*
X231309523Y-144452380D02*
X231309523Y-143928571D01*
X231261904Y-143833333D01*
X231166666Y-143785714D01*
X230976190Y-143785714D01*
X230880952Y-143833333D01*
X231309523Y-144404761D02*
X231214285Y-144452380D01*
X230976190Y-144452380D01*
X230880952Y-144404761D01*
X230833333Y-144309523D01*
X230833333Y-144214285D01*
X230880952Y-144119047D01*
X230976190Y-144071428D01*
X231214285Y-144071428D01*
X231309523Y-144023809D01*
X232214285Y-144404761D02*
X232119047Y-144452380D01*
X231928571Y-144452380D01*
X231833333Y-144404761D01*
X231785714Y-144357142D01*
X231738095Y-144261904D01*
X231738095Y-143976190D01*
X231785714Y-143880952D01*
X231833333Y-143833333D01*
X231928571Y-143785714D01*
X232119047Y-143785714D01*
X232214285Y-143833333D01*
X232642857Y-144452380D02*
X232642857Y-143785714D01*
X232642857Y-143452380D02*
X232595238Y-143500000D01*
X232642857Y-143547619D01*
X232690476Y-143500000D01*
X232642857Y-143452380D01*
X232642857Y-143547619D01*
X232976190Y-143785714D02*
X233357142Y-143785714D01*
X233119047Y-143452380D02*
X233119047Y-144309523D01*
X233166666Y-144404761D01*
X233261904Y-144452380D01*
X233357142Y-144452380D01*
X233833333Y-144452380D02*
X233738095Y-144404761D01*
X233690476Y-144357142D01*
X233642857Y-144261904D01*
X233642857Y-143976190D01*
X233690476Y-143880952D01*
X233738095Y-143833333D01*
X233833333Y-143785714D01*
X233976190Y-143785714D01*
X234071428Y-143833333D01*
X234119047Y-143880952D01*
X234166666Y-143976190D01*
X234166666Y-144261904D01*
X234119047Y-144357142D01*
X234071428Y-144404761D01*
X233976190Y-144452380D01*
X233833333Y-144452380D01*
X234595238Y-144452380D02*
X234595238Y-143785714D01*
X234595238Y-143976190D02*
X234642857Y-143880952D01*
X234690476Y-143833333D01*
X234785714Y-143785714D01*
X234880952Y-143785714D01*
X60904761Y-100085000D02*
X61857142Y-100085000D01*
X61095238Y-101404761D02*
X61238095Y-101452380D01*
X61476190Y-101452380D01*
X61571428Y-101404761D01*
X61619047Y-101357142D01*
X61666666Y-101261904D01*
X61666666Y-101166666D01*
X61619047Y-101071428D01*
X61571428Y-101023809D01*
X61476190Y-100976190D01*
X61285714Y-100928571D01*
X61190476Y-100880952D01*
X61142857Y-100833333D01*
X61095238Y-100738095D01*
X61095238Y-100642857D01*
X61142857Y-100547619D01*
X61190476Y-100500000D01*
X61285714Y-100452380D01*
X61523809Y-100452380D01*
X61666666Y-100500000D01*
X61857142Y-100085000D02*
X62619047Y-100085000D01*
X61952380Y-100452380D02*
X62523809Y-100452380D01*
X62238095Y-101452380D02*
X62238095Y-100452380D01*
X62619047Y-100085000D02*
X63476190Y-100085000D01*
X62809523Y-101166666D02*
X63285714Y-101166666D01*
X62714285Y-101452380D02*
X63047619Y-100452380D01*
X63380952Y-101452380D01*
X63476190Y-100085000D02*
X64285714Y-100085000D01*
X64190476Y-101452380D02*
X63714285Y-101452380D01*
X63714285Y-100452380D01*
X64285714Y-100085000D02*
X65095238Y-100085000D01*
X65000000Y-101452380D02*
X64523809Y-101452380D01*
X64523809Y-100452380D01*
X61333333Y-98452380D02*
X61000000Y-97976190D01*
X60761904Y-98452380D02*
X60761904Y-97452380D01*
X61142857Y-97452380D01*
X61238095Y-97500000D01*
X61285714Y-97547619D01*
X61333333Y-97642857D01*
X61333333Y-97785714D01*
X61285714Y-97880952D01*
X61238095Y-97928571D01*
X61142857Y-97976190D01*
X60761904Y-97976190D01*
X61761904Y-97928571D02*
X62095238Y-97928571D01*
X62238095Y-98452380D02*
X61761904Y-98452380D01*
X61761904Y-97452380D01*
X62238095Y-97452380D01*
X63142857Y-98452380D02*
X62666666Y-98452380D01*
X62666666Y-97452380D01*
X63238095Y-98547619D02*
X64000000Y-98547619D01*
X64190476Y-98404761D02*
X64333333Y-98452380D01*
X64571428Y-98452380D01*
X64666666Y-98404761D01*
X64714285Y-98357142D01*
X64761904Y-98261904D01*
X64761904Y-98166666D01*
X64714285Y-98071428D01*
X64666666Y-98023809D01*
X64571428Y-97976190D01*
X64380952Y-97928571D01*
X64285714Y-97880952D01*
X64238095Y-97833333D01*
X64190476Y-97738095D01*
X64190476Y-97642857D01*
X64238095Y-97547619D01*
X64285714Y-97500000D01*
X64380952Y-97452380D01*
X64619047Y-97452380D01*
X64761904Y-97500000D01*
X65190476Y-98452380D02*
X65190476Y-97452380D01*
X66190476Y-97500000D02*
X66095238Y-97452380D01*
X65952380Y-97452380D01*
X65809523Y-97500000D01*
X65714285Y-97595238D01*
X65666666Y-97690476D01*
X65619047Y-97880952D01*
X65619047Y-98023809D01*
X65666666Y-98214285D01*
X65714285Y-98309523D01*
X65809523Y-98404761D01*
X65952380Y-98452380D01*
X66047619Y-98452380D01*
X66190476Y-98404761D01*
X66238095Y-98357142D01*
X66238095Y-98023809D01*
X66047619Y-98023809D01*
X66666666Y-98452380D02*
X66666666Y-97452380D01*
X67238095Y-98452380D01*
X67238095Y-97452380D01*
X61285714Y-102452380D02*
X61285714Y-103166666D01*
X61238095Y-103309523D01*
X61142857Y-103404761D01*
X61000000Y-103452380D01*
X60904761Y-103452380D01*
X61761904Y-103452380D02*
X61761904Y-102452380D01*
X62095238Y-103166666D01*
X62428571Y-102452380D01*
X62428571Y-103452380D01*
X62904761Y-103452380D02*
X62904761Y-102452380D01*
X63285714Y-102452380D01*
X63380952Y-102500000D01*
X63428571Y-102547619D01*
X63476190Y-102642857D01*
X63476190Y-102785714D01*
X63428571Y-102880952D01*
X63380952Y-102928571D01*
X63285714Y-102976190D01*
X62904761Y-102976190D01*
X63666666Y-103547619D02*
X64428571Y-103547619D01*
X64619047Y-103166666D02*
X65095238Y-103166666D01*
X64523809Y-103452380D02*
X64857142Y-102452380D01*
X65190476Y-103452380D01*
X65857142Y-102928571D02*
X66000000Y-102976190D01*
X66047619Y-103023809D01*
X66095238Y-103119047D01*
X66095238Y-103261904D01*
X66047619Y-103357142D01*
X66000000Y-103404761D01*
X65904761Y-103452380D01*
X65523809Y-103452380D01*
X65523809Y-102452380D01*
X65857142Y-102452380D01*
X65952380Y-102500000D01*
X66000000Y-102547619D01*
X66047619Y-102642857D01*
X66047619Y-102738095D01*
X66000000Y-102833333D01*
X65952380Y-102880952D01*
X65857142Y-102928571D01*
X65523809Y-102928571D01*
X66476190Y-103404761D02*
X66619047Y-103452380D01*
X66857142Y-103452380D01*
X66952380Y-103404761D01*
X67000000Y-103357142D01*
X67047619Y-103261904D01*
X67047619Y-103166666D01*
X67000000Y-103071428D01*
X66952380Y-103023809D01*
X66857142Y-102976190D01*
X66666666Y-102928571D01*
X66571428Y-102880952D01*
X66523809Y-102833333D01*
X66476190Y-102738095D01*
X66476190Y-102642857D01*
X66523809Y-102547619D01*
X66571428Y-102500000D01*
X66666666Y-102452380D01*
X66904761Y-102452380D01*
X67047619Y-102500000D01*
X60928571Y-94452380D02*
X60928571Y-95166666D01*
X60880952Y-95309523D01*
X60785714Y-95404761D01*
X60642857Y-95452380D01*
X60547619Y-95452380D01*
X61404761Y-95452380D02*
X61404761Y-94452380D01*
X61738095Y-95166666D01*
X62071428Y-94452380D01*
X62071428Y-95452380D01*
X62547619Y-95452380D02*
X62547619Y-94452380D01*
X62928571Y-94452380D01*
X63023809Y-94500000D01*
X63071428Y-94547619D01*
X63119047Y-94642857D01*
X63119047Y-94785714D01*
X63071428Y-94880952D01*
X63023809Y-94928571D01*
X62928571Y-94976190D01*
X62547619Y-94976190D01*
X63309523Y-95547619D02*
X64071428Y-95547619D01*
X64309523Y-95452380D02*
X64309523Y-94452380D01*
X64785714Y-95452380D02*
X64785714Y-94452380D01*
X65357142Y-95452380D01*
X65357142Y-94452380D01*
X46642857Y-94047619D02*
X46595238Y-94000000D01*
X46547619Y-93857142D01*
X46547619Y-93761904D01*
X46595238Y-93619047D01*
X46690476Y-93523809D01*
X46785714Y-93476190D01*
X46976190Y-93428571D01*
X47119047Y-93428571D01*
X47309523Y-93476190D01*
X47404761Y-93523809D01*
X47500000Y-93619047D01*
X47547619Y-93761904D01*
X47547619Y-93857142D01*
X47500000Y-94000000D01*
X47452380Y-94047619D01*
X46547619Y-94619047D02*
X46595238Y-94523809D01*
X46642857Y-94476190D01*
X46738095Y-94428571D01*
X47023809Y-94428571D01*
X47119047Y-94476190D01*
X47166666Y-94523809D01*
X47214285Y-94619047D01*
X47214285Y-94761904D01*
X47166666Y-94857142D01*
X47119047Y-94904761D01*
X47023809Y-94952380D01*
X46738095Y-94952380D01*
X46642857Y-94904761D01*
X46595238Y-94857142D01*
X46547619Y-94761904D01*
X46547619Y-94619047D01*
X47214285Y-95380952D02*
X46547619Y-95380952D01*
X47119047Y-95380952D02*
X47166666Y-95428571D01*
X47214285Y-95523809D01*
X47214285Y-95666666D01*
X47166666Y-95761904D01*
X47071428Y-95809523D01*
X46547619Y-95809523D01*
X47214285Y-96142857D02*
X47214285Y-96523809D01*
X47547619Y-96285714D02*
X46690476Y-96285714D01*
X46595238Y-96333333D01*
X46547619Y-96428571D01*
X46547619Y-96523809D01*
X46547619Y-96857142D02*
X47214285Y-96857142D01*
X47023809Y-96857142D02*
X47119047Y-96904761D01*
X47166666Y-96952380D01*
X47214285Y-97047619D01*
X47214285Y-97142857D01*
X46547619Y-97619047D02*
X46595238Y-97523809D01*
X46642857Y-97476190D01*
X46738095Y-97428571D01*
X47023809Y-97428571D01*
X47119047Y-97476190D01*
X47166666Y-97523809D01*
X47214285Y-97619047D01*
X47214285Y-97761904D01*
X47166666Y-97857142D01*
X47119047Y-97904761D01*
X47023809Y-97952380D01*
X46738095Y-97952380D01*
X46642857Y-97904761D01*
X46595238Y-97857142D01*
X46547619Y-97761904D01*
X46547619Y-97619047D01*
X46547619Y-98523809D02*
X46595238Y-98428571D01*
X46690476Y-98380952D01*
X47547619Y-98380952D01*
X46595238Y-99619047D02*
X46547619Y-99714285D01*
X46547619Y-99904761D01*
X46595238Y-100000000D01*
X46690476Y-100047619D01*
X46738095Y-100047619D01*
X46833333Y-100000000D01*
X46880952Y-99904761D01*
X46880952Y-99761904D01*
X46928571Y-99666666D01*
X47023809Y-99619047D01*
X47071428Y-99619047D01*
X47166666Y-99666666D01*
X47214285Y-99761904D01*
X47214285Y-99904761D01*
X47166666Y-100000000D01*
X46547619Y-100476190D02*
X47214285Y-100476190D01*
X47547619Y-100476190D02*
X47500000Y-100428571D01*
X47452380Y-100476190D01*
X47500000Y-100523809D01*
X47547619Y-100476190D01*
X47452380Y-100476190D01*
X47214285Y-101380952D02*
X46404761Y-101380952D01*
X46309523Y-101333333D01*
X46261904Y-101285714D01*
X46214285Y-101190476D01*
X46214285Y-101047619D01*
X46261904Y-100952380D01*
X46595238Y-101380952D02*
X46547619Y-101285714D01*
X46547619Y-101095238D01*
X46595238Y-101000000D01*
X46642857Y-100952380D01*
X46738095Y-100904761D01*
X47023809Y-100904761D01*
X47119047Y-100952380D01*
X47166666Y-101000000D01*
X47214285Y-101095238D01*
X47214285Y-101285714D01*
X47166666Y-101380952D01*
X47214285Y-101857142D02*
X46547619Y-101857142D01*
X47119047Y-101857142D02*
X47166666Y-101904761D01*
X47214285Y-102000000D01*
X47214285Y-102142857D01*
X47166666Y-102238095D01*
X47071428Y-102285714D01*
X46547619Y-102285714D01*
X46547619Y-103190476D02*
X47071428Y-103190476D01*
X47166666Y-103142857D01*
X47214285Y-103047619D01*
X47214285Y-102857142D01*
X47166666Y-102761904D01*
X46595238Y-103190476D02*
X46547619Y-103095238D01*
X46547619Y-102857142D01*
X46595238Y-102761904D01*
X46690476Y-102714285D01*
X46785714Y-102714285D01*
X46880952Y-102761904D01*
X46928571Y-102857142D01*
X46928571Y-103095238D01*
X46976190Y-103190476D01*
X46547619Y-103809523D02*
X46595238Y-103714285D01*
X46690476Y-103666666D01*
X47547619Y-103666666D01*
X46595238Y-104142857D02*
X46547619Y-104238095D01*
X46547619Y-104428571D01*
X46595238Y-104523809D01*
X46690476Y-104571428D01*
X46738095Y-104571428D01*
X46833333Y-104523809D01*
X46880952Y-104428571D01*
X46880952Y-104285714D01*
X46928571Y-104190476D01*
X47023809Y-104142857D01*
X47071428Y-104142857D01*
X47166666Y-104190476D01*
X47214285Y-104285714D01*
X47214285Y-104428571D01*
X47166666Y-104523809D01*
X48321428Y-37178571D02*
X49035714Y-36678571D01*
X48321428Y-36321428D02*
X49821428Y-36321428D01*
X49821428Y-36892857D01*
X49750000Y-37035714D01*
X49678571Y-37107142D01*
X49535714Y-37178571D01*
X49321428Y-37178571D01*
X49178571Y-37107142D01*
X49107142Y-37035714D01*
X49035714Y-36892857D01*
X49035714Y-36321428D01*
X48392857Y-38392857D02*
X48321428Y-38249999D01*
X48321428Y-37964285D01*
X48392857Y-37821428D01*
X48535714Y-37749999D01*
X49107142Y-37749999D01*
X49250000Y-37821428D01*
X49321428Y-37964285D01*
X49321428Y-38249999D01*
X49250000Y-38392857D01*
X49107142Y-38464285D01*
X48964285Y-38464285D01*
X48821428Y-37749999D01*
X48321428Y-39321428D02*
X48392857Y-39178571D01*
X48535714Y-39107142D01*
X49821428Y-39107142D01*
X48321428Y-40535714D02*
X49107142Y-40535714D01*
X49250000Y-40464285D01*
X49321428Y-40321428D01*
X49321428Y-40035714D01*
X49250000Y-39892857D01*
X48392857Y-40535714D02*
X48321428Y-40392857D01*
X48321428Y-40035714D01*
X48392857Y-39892857D01*
X48535714Y-39821428D01*
X48678571Y-39821428D01*
X48821428Y-39892857D01*
X48892857Y-40035714D01*
X48892857Y-40392857D01*
X48964285Y-40535714D01*
X49321428Y-41035714D02*
X49321428Y-41607142D01*
X49821428Y-41249999D02*
X48535714Y-41249999D01*
X48392857Y-41321428D01*
X48321428Y-41464285D01*
X48321428Y-41607142D01*
X48321428Y-42107142D02*
X49321428Y-42107142D01*
X49821428Y-42107142D02*
X49750000Y-42035714D01*
X49678571Y-42107142D01*
X49750000Y-42178571D01*
X49821428Y-42107142D01*
X49678571Y-42107142D01*
X49321428Y-42678571D02*
X48321428Y-43035714D01*
X49321428Y-43392857D01*
X48392857Y-44535714D02*
X48321428Y-44392857D01*
X48321428Y-44107142D01*
X48392857Y-43964285D01*
X48535714Y-43892857D01*
X49107142Y-43892857D01*
X49250000Y-43964285D01*
X49321428Y-44107142D01*
X49321428Y-44392857D01*
X49250000Y-44535714D01*
X49107142Y-44607142D01*
X48964285Y-44607142D01*
X48821428Y-43892857D01*
X49892857Y-47464285D02*
X47964285Y-46178571D01*
X48321428Y-49749999D02*
X49107142Y-49749999D01*
X49250000Y-49678571D01*
X49321428Y-49535714D01*
X49321428Y-49249999D01*
X49250000Y-49107142D01*
X48392857Y-49749999D02*
X48321428Y-49607142D01*
X48321428Y-49249999D01*
X48392857Y-49107142D01*
X48535714Y-49035714D01*
X48678571Y-49035714D01*
X48821428Y-49107142D01*
X48892857Y-49249999D01*
X48892857Y-49607142D01*
X48964285Y-49749999D01*
X48321428Y-50464285D02*
X49821428Y-50464285D01*
X49250000Y-50464285D02*
X49321428Y-50607142D01*
X49321428Y-50892857D01*
X49250000Y-51035714D01*
X49178571Y-51107142D01*
X49035714Y-51178571D01*
X48607142Y-51178571D01*
X48464285Y-51107142D01*
X48392857Y-51035714D01*
X48321428Y-50892857D01*
X48321428Y-50607142D01*
X48392857Y-50464285D01*
X48392857Y-51749999D02*
X48321428Y-51892857D01*
X48321428Y-52178571D01*
X48392857Y-52321428D01*
X48535714Y-52392857D01*
X48607142Y-52392857D01*
X48750000Y-52321428D01*
X48821428Y-52178571D01*
X48821428Y-51964285D01*
X48892857Y-51821428D01*
X49035714Y-51749999D01*
X49107142Y-51749999D01*
X49250000Y-51821428D01*
X49321428Y-51964285D01*
X49321428Y-52178571D01*
X49250000Y-52321428D01*
X48321428Y-53249999D02*
X48392857Y-53107142D01*
X48464285Y-53035714D01*
X48607142Y-52964285D01*
X49035714Y-52964285D01*
X49178571Y-53035714D01*
X49250000Y-53107142D01*
X49321428Y-53249999D01*
X49321428Y-53464285D01*
X49250000Y-53607142D01*
X49178571Y-53678571D01*
X49035714Y-53749999D01*
X48607142Y-53749999D01*
X48464285Y-53678571D01*
X48392857Y-53607142D01*
X48321428Y-53464285D01*
X48321428Y-53249999D01*
X48321428Y-54607142D02*
X48392857Y-54464285D01*
X48535714Y-54392857D01*
X49821428Y-54392857D01*
X49321428Y-55821428D02*
X48321428Y-55821428D01*
X49321428Y-55178571D02*
X48535714Y-55178571D01*
X48392857Y-55249999D01*
X48321428Y-55392857D01*
X48321428Y-55607142D01*
X48392857Y-55749999D01*
X48464285Y-55821428D01*
X49321428Y-56321428D02*
X49321428Y-56892857D01*
X49821428Y-56535714D02*
X48535714Y-56535714D01*
X48392857Y-56607142D01*
X48321428Y-56749999D01*
X48321428Y-56892857D01*
X48392857Y-57964285D02*
X48321428Y-57821428D01*
X48321428Y-57535714D01*
X48392857Y-57392857D01*
X48535714Y-57321428D01*
X49107142Y-57321428D01*
X49250000Y-57392857D01*
X49321428Y-57535714D01*
X49321428Y-57821428D01*
X49250000Y-57964285D01*
X49107142Y-58035714D01*
X48964285Y-58035714D01*
X48821428Y-57321428D01*
X48321428Y-59821428D02*
X49821428Y-59821428D01*
X49821428Y-60392857D01*
X49750000Y-60535714D01*
X49678571Y-60607142D01*
X49535714Y-60678571D01*
X49321428Y-60678571D01*
X49178571Y-60607142D01*
X49107142Y-60535714D01*
X49035714Y-60392857D01*
X49035714Y-59821428D01*
X48464285Y-62178571D02*
X48392857Y-62107142D01*
X48321428Y-61892857D01*
X48321428Y-61750000D01*
X48392857Y-61535714D01*
X48535714Y-61392857D01*
X48678571Y-61321428D01*
X48964285Y-61250000D01*
X49178571Y-61250000D01*
X49464285Y-61321428D01*
X49607142Y-61392857D01*
X49750000Y-61535714D01*
X49821428Y-61750000D01*
X49821428Y-61892857D01*
X49750000Y-62107142D01*
X49678571Y-62178571D01*
X48321428Y-64178571D02*
X48392857Y-64035714D01*
X48464285Y-63964285D01*
X48607142Y-63892857D01*
X49035714Y-63892857D01*
X49178571Y-63964285D01*
X49250000Y-64035714D01*
X49321428Y-64178571D01*
X49321428Y-64392857D01*
X49250000Y-64535714D01*
X49178571Y-64607142D01*
X49035714Y-64678571D01*
X48607142Y-64678571D01*
X48464285Y-64607142D01*
X48392857Y-64535714D01*
X48321428Y-64392857D01*
X48321428Y-64178571D01*
X49321428Y-65107142D02*
X49321428Y-65678571D01*
X48321428Y-65321428D02*
X49607142Y-65321428D01*
X49750000Y-65392857D01*
X49821428Y-65535714D01*
X49821428Y-65678571D01*
X49321428Y-65964285D02*
X49321428Y-66535714D01*
X48321428Y-66178571D02*
X49607142Y-66178571D01*
X49750000Y-66250000D01*
X49821428Y-66392857D01*
X49821428Y-66535714D01*
X48392857Y-66964285D02*
X48321428Y-67107142D01*
X48321428Y-67392857D01*
X48392857Y-67535714D01*
X48535714Y-67607142D01*
X48607142Y-67607142D01*
X48750000Y-67535714D01*
X48821428Y-67392857D01*
X48821428Y-67178571D01*
X48892857Y-67035714D01*
X49035714Y-66964285D01*
X49107142Y-66964285D01*
X49250000Y-67035714D01*
X49321428Y-67178571D01*
X49321428Y-67392857D01*
X49250000Y-67535714D01*
X48392857Y-68821428D02*
X48321428Y-68678571D01*
X48321428Y-68392857D01*
X48392857Y-68250000D01*
X48535714Y-68178571D01*
X49107142Y-68178571D01*
X49250000Y-68250000D01*
X49321428Y-68392857D01*
X49321428Y-68678571D01*
X49250000Y-68821428D01*
X49107142Y-68892857D01*
X48964285Y-68892857D01*
X48821428Y-68178571D01*
X49321428Y-69321428D02*
X49321428Y-69892857D01*
X49821428Y-69535714D02*
X48535714Y-69535714D01*
X48392857Y-69607142D01*
X48321428Y-69750000D01*
X48321428Y-69892857D01*
D14*
%TO.C,J5*%
X231110000Y-120640000D02*
X229860000Y-120640000D01*
X231110000Y-121890000D02*
X231110000Y-120640000D01*
X226700000Y-124000000D02*
X227200000Y-124000000D01*
X227200000Y-124100000D02*
X226700000Y-124100000D01*
X227200000Y-123900000D02*
X227200000Y-124100000D01*
X226700000Y-123900000D02*
X227200000Y-123900000D01*
X228200000Y-127060000D02*
X228200000Y-126450000D01*
X229500000Y-127060000D02*
X229500000Y-126450000D01*
X228200000Y-120940000D02*
X228200000Y-121550000D01*
X229500000Y-120940000D02*
X229500000Y-121550000D01*
X230200000Y-124500000D02*
X230810000Y-124500000D01*
X230200000Y-126450000D02*
X230200000Y-124500000D01*
X226700000Y-126450000D02*
X230200000Y-126450000D01*
X226700000Y-121550000D02*
X226700000Y-126450000D01*
X230200000Y-121550000D02*
X226700000Y-121550000D01*
X230200000Y-123500000D02*
X230200000Y-121550000D01*
X230810000Y-123500000D02*
X230200000Y-123500000D01*
X230910000Y-122700000D02*
X230910000Y-122400000D01*
X231010000Y-122400000D02*
X230810000Y-122400000D01*
X231010000Y-122700000D02*
X231010000Y-122400000D01*
X230810000Y-122700000D02*
X231010000Y-122700000D01*
X230810000Y-127060000D02*
X230810000Y-120940000D01*
X226090000Y-127060000D02*
X230810000Y-127060000D01*
X226090000Y-120940000D02*
X226090000Y-127060000D01*
X230810000Y-120940000D02*
X226090000Y-120940000D01*
%TO.C,J4*%
X227251000Y-112000000D02*
G75*
G03*
X227251000Y-112000000I-1251000J0D01*
G01*
D15*
%TO.C,J6*%
X186825000Y-144540000D02*
X186825000Y-144540000D01*
X186875000Y-144540000D02*
X186875000Y-144540000D01*
D16*
X187940000Y-139020000D02*
X215140000Y-139020000D01*
X215140000Y-147520000D02*
X187940000Y-147520000D01*
D15*
X186875000Y-144540000D02*
G75*
G02*
X186825000Y-144540000I-25000J0D01*
G01*
X186825000Y-144540000D02*
G75*
G02*
X186875000Y-144540000I25000J0D01*
G01*
D17*
%TO.C,J2*%
X62120000Y-38840000D02*
X56000000Y-38840000D01*
X62120000Y-66940000D02*
X62120000Y-38840000D01*
X52820000Y-66940000D02*
X62120000Y-66940000D01*
X52820000Y-44000000D02*
X52820000Y-66940000D01*
%TO.C,J1*%
X233120000Y-46840000D02*
X227000000Y-46840000D01*
X233120000Y-74940000D02*
X233120000Y-46840000D01*
X223820000Y-74940000D02*
X233120000Y-74940000D01*
X223820000Y-52000000D02*
X223820000Y-74940000D01*
D14*
%TO.C,C13*%
X158520000Y-87000000D02*
X158360000Y-87000000D01*
X152980000Y-87000000D02*
X153140000Y-87000000D01*
X158360000Y-85390000D02*
X153140000Y-85390000D01*
X158360000Y-88610000D02*
X158360000Y-85390000D01*
X153140000Y-88610000D02*
X158360000Y-88610000D01*
X153140000Y-85390000D02*
X153140000Y-88610000D01*
%TO.C,C12*%
X158020000Y-61000000D02*
X157860000Y-61000000D01*
X152480000Y-61000000D02*
X152640000Y-61000000D01*
X157860000Y-59390000D02*
X152640000Y-59390000D01*
X157860000Y-62610000D02*
X157860000Y-59390000D01*
X152640000Y-62610000D02*
X157860000Y-62610000D01*
X152640000Y-59390000D02*
X152640000Y-62610000D01*
%TO.C,C11*%
X94480000Y-145000000D02*
X94640000Y-145000000D01*
X100020000Y-145000000D02*
X99860000Y-145000000D01*
X94640000Y-146610000D02*
X99860000Y-146610000D01*
X94640000Y-143390000D02*
X94640000Y-146610000D01*
X99860000Y-143390000D02*
X94640000Y-143390000D01*
X99860000Y-146610000D02*
X99860000Y-143390000D01*
%TO.C,C10*%
X100520000Y-92000000D02*
X100360000Y-92000000D01*
X94980000Y-92000000D02*
X95140000Y-92000000D01*
X100360000Y-90390000D02*
X95140000Y-90390000D01*
X100360000Y-93610000D02*
X100360000Y-90390000D01*
X95140000Y-93610000D02*
X100360000Y-93610000D01*
X95140000Y-90390000D02*
X95140000Y-93610000D01*
%TO.C,C9*%
X100520000Y-81000000D02*
X100360000Y-81000000D01*
X94980000Y-81000000D02*
X95140000Y-81000000D01*
X100360000Y-79390000D02*
X95140000Y-79390000D01*
X100360000Y-82610000D02*
X100360000Y-79390000D01*
X95140000Y-82610000D02*
X100360000Y-82610000D01*
X95140000Y-79390000D02*
X95140000Y-82610000D01*
%TO.C,C8*%
X100520000Y-29000000D02*
X100360000Y-29000000D01*
X94980000Y-29000000D02*
X95140000Y-29000000D01*
X100360000Y-27390000D02*
X95140000Y-27390000D01*
X100360000Y-30610000D02*
X100360000Y-27390000D01*
X95140000Y-30610000D02*
X100360000Y-30610000D01*
X95140000Y-27390000D02*
X95140000Y-30610000D01*
%TO.C,C7*%
X202000000Y-124480000D02*
X202000000Y-124640000D01*
X202000000Y-130020000D02*
X202000000Y-129860000D01*
X200390000Y-124640000D02*
X200390000Y-129860000D01*
X203610000Y-124640000D02*
X200390000Y-124640000D01*
X203610000Y-129860000D02*
X203610000Y-124640000D01*
X200390000Y-129860000D02*
X203610000Y-129860000D01*
%TO.C,C6*%
X203000000Y-89480000D02*
X203000000Y-89640000D01*
X203000000Y-95020000D02*
X203000000Y-94860000D01*
X201390000Y-89640000D02*
X201390000Y-94860000D01*
X204610000Y-89640000D02*
X201390000Y-89640000D01*
X204610000Y-94860000D02*
X204610000Y-89640000D01*
X201390000Y-94860000D02*
X204610000Y-94860000D01*
%TO.C,C5*%
X202000000Y-59480000D02*
X202000000Y-59640000D01*
X202000000Y-65020000D02*
X202000000Y-64860000D01*
X200390000Y-59640000D02*
X200390000Y-64860000D01*
X203610000Y-59640000D02*
X200390000Y-59640000D01*
X203610000Y-64860000D02*
X203610000Y-59640000D01*
X200390000Y-64860000D02*
X203610000Y-64860000D01*
%TO.C,C4*%
X203000000Y-32480000D02*
X203000000Y-32640000D01*
X203000000Y-38020000D02*
X203000000Y-37860000D01*
X201390000Y-32640000D02*
X201390000Y-37860000D01*
X204610000Y-32640000D02*
X201390000Y-32640000D01*
X204610000Y-37860000D02*
X204610000Y-32640000D01*
X201390000Y-37860000D02*
X204610000Y-37860000D01*
%TO.C,C3*%
X177520000Y-143000000D02*
X177360000Y-143000000D01*
X171980000Y-143000000D02*
X172140000Y-143000000D01*
X177360000Y-141390000D02*
X172140000Y-141390000D01*
X177360000Y-144610000D02*
X177360000Y-141390000D01*
X172140000Y-144610000D02*
X177360000Y-144610000D01*
X172140000Y-141390000D02*
X172140000Y-144610000D01*
%TO.C,C2*%
X131520000Y-120000000D02*
X131360000Y-120000000D01*
X125980000Y-120000000D02*
X126140000Y-120000000D01*
X131360000Y-118390000D02*
X126140000Y-118390000D01*
X131360000Y-121610000D02*
X131360000Y-118390000D01*
X126140000Y-121610000D02*
X131360000Y-121610000D01*
X126140000Y-118390000D02*
X126140000Y-121610000D01*
%TO.C,C1*%
X131520000Y-66040000D02*
X131360000Y-66040000D01*
X125980000Y-66040000D02*
X126140000Y-66040000D01*
X131360000Y-64430000D02*
X126140000Y-64430000D01*
X131360000Y-67650000D02*
X131360000Y-64430000D01*
X126140000Y-67650000D02*
X131360000Y-67650000D01*
X126140000Y-64430000D02*
X126140000Y-67650000D01*
%TO.C,REG8.2*%
X131460000Y-86670000D02*
X129810000Y-86670000D01*
X131460000Y-117270000D02*
X131460000Y-86670000D01*
X126160000Y-117270000D02*
X131460000Y-117270000D01*
X126160000Y-86670000D02*
X126160000Y-117270000D01*
X127810000Y-86670000D02*
X126160000Y-86670000D01*
X129810000Y-86670000D02*
G75*
G02*
X127810000Y-86670000I-1000000J0D01*
G01*
%TO.C,REG8.1*%
X131460000Y-31670000D02*
X129810000Y-31670000D01*
X131460000Y-62270000D02*
X131460000Y-31670000D01*
X126160000Y-62270000D02*
X131460000Y-62270000D01*
X126160000Y-31670000D02*
X126160000Y-62270000D01*
X127810000Y-31670000D02*
X126160000Y-31670000D01*
X129810000Y-31670000D02*
G75*
G02*
X127810000Y-31670000I-1000000J0D01*
G01*
%TO.C,R14*%
X60740000Y-124000000D02*
X59670000Y-124000000D01*
X54880000Y-124000000D02*
X55950000Y-124000000D01*
X59670000Y-123140000D02*
X55950000Y-123140000D01*
X59670000Y-124860000D02*
X59670000Y-123140000D01*
X55950000Y-124860000D02*
X59670000Y-124860000D01*
X55950000Y-123140000D02*
X55950000Y-124860000D01*
%TO.C,R10*%
X124260000Y-137000000D02*
X125330000Y-137000000D01*
X130120000Y-137000000D02*
X129050000Y-137000000D01*
X125330000Y-137860000D02*
X129050000Y-137860000D01*
X125330000Y-136140000D02*
X125330000Y-137860000D01*
X129050000Y-136140000D02*
X125330000Y-136140000D01*
X129050000Y-137860000D02*
X129050000Y-136140000D01*
%TO.C,R6*%
X124260000Y-132000000D02*
X125330000Y-132000000D01*
X130120000Y-132000000D02*
X129050000Y-132000000D01*
X125330000Y-132860000D02*
X129050000Y-132860000D01*
X125330000Y-131140000D02*
X125330000Y-132860000D01*
X129050000Y-131140000D02*
X125330000Y-131140000D01*
X129050000Y-132860000D02*
X129050000Y-131140000D01*
%TO.C,R5*%
X60740000Y-119000000D02*
X59670000Y-119000000D01*
X54880000Y-119000000D02*
X55950000Y-119000000D01*
X59670000Y-118140000D02*
X55950000Y-118140000D01*
X59670000Y-119860000D02*
X59670000Y-118140000D01*
X55950000Y-119860000D02*
X59670000Y-119860000D01*
X55950000Y-118140000D02*
X55950000Y-119860000D01*
%TO.C,R4*%
X60740000Y-129000000D02*
X59670000Y-129000000D01*
X54880000Y-129000000D02*
X55950000Y-129000000D01*
X59670000Y-128140000D02*
X55950000Y-128140000D01*
X59670000Y-129860000D02*
X59670000Y-128140000D01*
X55950000Y-129860000D02*
X59670000Y-129860000D01*
X55950000Y-128140000D02*
X55950000Y-129860000D01*
%TO.C,POT1*%
X156365000Y-137940000D02*
X158060000Y-137940000D01*
X151940000Y-137940000D02*
X153635000Y-137940000D01*
X151940000Y-143061000D02*
X158060000Y-143061000D01*
X158060000Y-143061000D02*
X158060000Y-137940000D01*
X151940000Y-143061000D02*
X151940000Y-137940000D01*
X151365000Y-143061000D02*
X158635000Y-143061000D01*
X147940000Y-143061000D02*
X148635000Y-143061000D01*
X161365000Y-143061000D02*
X162060000Y-143061000D01*
X156365000Y-137940000D02*
X162060000Y-137940000D01*
X147940000Y-137940000D02*
X153635000Y-137940000D01*
X162060000Y-143061000D02*
X162060000Y-137940000D01*
X147940000Y-143061000D02*
X147940000Y-137940000D01*
%TO.C,MUXB2*%
X158460000Y-89670000D02*
X156810000Y-89670000D01*
X158460000Y-110110000D02*
X158460000Y-89670000D01*
X153160000Y-110110000D02*
X158460000Y-110110000D01*
X153160000Y-89670000D02*
X153160000Y-110110000D01*
X154810000Y-89670000D02*
X153160000Y-89670000D01*
X156810000Y-89670000D02*
G75*
G02*
X154810000Y-89670000I-1000000J0D01*
G01*
%TO.C,MUXB1*%
X152540000Y-56330000D02*
X154190000Y-56330000D01*
X152540000Y-35890000D02*
X152540000Y-56330000D01*
X157840000Y-35890000D02*
X152540000Y-35890000D01*
X157840000Y-56330000D02*
X157840000Y-35890000D01*
X156190000Y-56330000D02*
X157840000Y-56330000D01*
X154190000Y-56330000D02*
G75*
G02*
X156190000Y-56330000I1000000J0D01*
G01*
%TO.C,MUXA4*%
X100460000Y-121670000D02*
X98810000Y-121670000D01*
X100460000Y-142110000D02*
X100460000Y-121670000D01*
X95160000Y-142110000D02*
X100460000Y-142110000D01*
X95160000Y-121670000D02*
X95160000Y-142110000D01*
X96810000Y-121670000D02*
X95160000Y-121670000D01*
X98810000Y-121670000D02*
G75*
G02*
X96810000Y-121670000I-1000000J0D01*
G01*
%TO.C,MUXA3*%
X100460000Y-96670000D02*
X98810000Y-96670000D01*
X100460000Y-117110000D02*
X100460000Y-96670000D01*
X95160000Y-117110000D02*
X100460000Y-117110000D01*
X95160000Y-96670000D02*
X95160000Y-117110000D01*
X96810000Y-96670000D02*
X95160000Y-96670000D01*
X98810000Y-96670000D02*
G75*
G02*
X96810000Y-96670000I-1000000J0D01*
G01*
%TO.C,MUXA2*%
X100460000Y-56670000D02*
X98810000Y-56670000D01*
X100460000Y-77110000D02*
X100460000Y-56670000D01*
X95160000Y-77110000D02*
X100460000Y-77110000D01*
X95160000Y-56670000D02*
X95160000Y-77110000D01*
X96810000Y-56670000D02*
X95160000Y-56670000D01*
X98810000Y-56670000D02*
G75*
G02*
X96810000Y-56670000I-1000000J0D01*
G01*
%TO.C,MUXA1*%
X100460000Y-32670000D02*
X98810000Y-32670000D01*
X100460000Y-53110000D02*
X100460000Y-32670000D01*
X95160000Y-53110000D02*
X100460000Y-53110000D01*
X95160000Y-32670000D02*
X95160000Y-53110000D01*
X96810000Y-32670000D02*
X95160000Y-32670000D01*
X98810000Y-32670000D02*
G75*
G02*
X96810000Y-32670000I-1000000J0D01*
G01*
%TO.C,J3*%
X58750000Y-92150000D02*
X56250000Y-92150000D01*
X58750000Y-94650000D02*
X58750000Y-92150000D01*
X53250000Y-104300000D02*
X53250000Y-98750000D01*
X56200000Y-104300000D02*
X53250000Y-104300000D01*
X56200000Y-105050000D02*
X56200000Y-104300000D01*
X53250000Y-93200000D02*
X53250000Y-98750000D01*
X56200000Y-93200000D02*
X53250000Y-93200000D01*
X56200000Y-92450000D02*
X56200000Y-93200000D01*
X58450000Y-105050000D02*
X58450000Y-103250000D01*
X57700000Y-105050000D02*
X58450000Y-105050000D01*
X57700000Y-103250000D02*
X57700000Y-105050000D01*
X58450000Y-103250000D02*
X57700000Y-103250000D01*
X58450000Y-94250000D02*
X58450000Y-92450000D01*
X57700000Y-94250000D02*
X58450000Y-94250000D01*
X57700000Y-92450000D02*
X57700000Y-94250000D01*
X58450000Y-92450000D02*
X57700000Y-92450000D01*
X58450000Y-101750000D02*
X58450000Y-95750000D01*
X57700000Y-101750000D02*
X58450000Y-101750000D01*
X57700000Y-95750000D02*
X57700000Y-101750000D01*
X58450000Y-95750000D02*
X57700000Y-95750000D01*
X58450000Y-105050000D02*
X58450000Y-92450000D01*
X52500000Y-105050000D02*
X58450000Y-105050000D01*
X52500000Y-92450000D02*
X52500000Y-105050000D01*
X58450000Y-92450000D02*
X52500000Y-92450000D01*
%TO.C,C_BOARD1*%
X228650000Y-134400000D02*
X227350000Y-134400000D01*
X228000000Y-133800000D02*
X228000000Y-135000000D01*
X228246000Y-141331000D02*
X227754000Y-141331000D01*
X228598000Y-141291000D02*
X227402000Y-141291000D01*
X228814000Y-141251000D02*
X227186000Y-141251000D01*
X228983000Y-141211000D02*
X227017000Y-141211000D01*
X229127000Y-141171000D02*
X226873000Y-141171000D01*
X229254000Y-141131000D02*
X226746000Y-141131000D01*
X229369000Y-141091000D02*
X226631000Y-141091000D01*
X229473000Y-141051000D02*
X226527000Y-141051000D01*
X229570000Y-141011000D02*
X226430000Y-141011000D01*
X229660000Y-140971000D02*
X226340000Y-140971000D01*
X229745000Y-140931000D02*
X226255000Y-140931000D01*
X229826000Y-140891000D02*
X226174000Y-140891000D01*
X229902000Y-140851000D02*
X226098000Y-140851000D01*
X229974000Y-140811000D02*
X226026000Y-140811000D01*
X230043000Y-140771000D02*
X225957000Y-140771000D01*
X230109000Y-140731000D02*
X225891000Y-140731000D01*
X230173000Y-140691000D02*
X225827000Y-140691000D01*
X230234000Y-140651000D02*
X225766000Y-140651000D01*
X230293000Y-140611000D02*
X225707000Y-140611000D01*
X230349000Y-140571000D02*
X225651000Y-140571000D01*
X230404000Y-140531000D02*
X225596000Y-140531000D01*
X230457000Y-140491000D02*
X225543000Y-140491000D01*
X230508000Y-140451000D02*
X225492000Y-140451000D01*
X230557000Y-140411000D02*
X225443000Y-140411000D01*
X230605000Y-140371000D02*
X225395000Y-140371000D01*
X230652000Y-140331000D02*
X225348000Y-140331000D01*
X230697000Y-140291000D02*
X225303000Y-140291000D01*
X230740000Y-140251000D02*
X225260000Y-140251000D01*
X230783000Y-140211000D02*
X225217000Y-140211000D01*
X230824000Y-140171000D02*
X225176000Y-140171000D01*
X230865000Y-140131000D02*
X225135000Y-140131000D01*
X230904000Y-140091000D02*
X225096000Y-140091000D01*
X230942000Y-140051000D02*
X225058000Y-140051000D01*
X230979000Y-140011000D02*
X225021000Y-140011000D01*
X231015000Y-139971000D02*
X224985000Y-139971000D01*
X231050000Y-139931000D02*
X224950000Y-139931000D01*
X231084000Y-139891000D02*
X224916000Y-139891000D01*
X231118000Y-139851000D02*
X224882000Y-139851000D01*
X231150000Y-139811000D02*
X224850000Y-139811000D01*
X231182000Y-139771000D02*
X224818000Y-139771000D01*
X231213000Y-139731000D02*
X224787000Y-139731000D01*
X231243000Y-139691000D02*
X224757000Y-139691000D01*
X231272000Y-139651000D02*
X224728000Y-139651000D01*
X231301000Y-139611000D02*
X224699000Y-139611000D01*
X231329000Y-139571000D02*
X224671000Y-139571000D01*
X231356000Y-139531000D02*
X224644000Y-139531000D01*
X231383000Y-139491000D02*
X224617000Y-139491000D01*
X227020000Y-139451000D02*
X224592000Y-139451000D01*
X231408000Y-139451000D02*
X228980000Y-139451000D01*
X227020000Y-139411000D02*
X224566000Y-139411000D01*
X231434000Y-139411000D02*
X228980000Y-139411000D01*
X227020000Y-139371000D02*
X224542000Y-139371000D01*
X231458000Y-139371000D02*
X228980000Y-139371000D01*
X227020000Y-139331000D02*
X224518000Y-139331000D01*
X231482000Y-139331000D02*
X228980000Y-139331000D01*
X227020000Y-139291000D02*
X224495000Y-139291000D01*
X231505000Y-139291000D02*
X228980000Y-139291000D01*
X227020000Y-139251000D02*
X224472000Y-139251000D01*
X231528000Y-139251000D02*
X228980000Y-139251000D01*
X227020000Y-139211000D02*
X224450000Y-139211000D01*
X231550000Y-139211000D02*
X228980000Y-139211000D01*
X227020000Y-139171000D02*
X224428000Y-139171000D01*
X231572000Y-139171000D02*
X228980000Y-139171000D01*
X227020000Y-139131000D02*
X224407000Y-139131000D01*
X231593000Y-139131000D02*
X228980000Y-139131000D01*
X227020000Y-139091000D02*
X224387000Y-139091000D01*
X231613000Y-139091000D02*
X228980000Y-139091000D01*
X227020000Y-139051000D02*
X224367000Y-139051000D01*
X231633000Y-139051000D02*
X228980000Y-139051000D01*
X227020000Y-139011000D02*
X224348000Y-139011000D01*
X231652000Y-139011000D02*
X228980000Y-139011000D01*
X227020000Y-138971000D02*
X224329000Y-138971000D01*
X231671000Y-138971000D02*
X228980000Y-138971000D01*
X227020000Y-138931000D02*
X224310000Y-138931000D01*
X231690000Y-138931000D02*
X228980000Y-138931000D01*
X227020000Y-138891000D02*
X224293000Y-138891000D01*
X231707000Y-138891000D02*
X228980000Y-138891000D01*
X227020000Y-138851000D02*
X224275000Y-138851000D01*
X231725000Y-138851000D02*
X228980000Y-138851000D01*
X227020000Y-138811000D02*
X224259000Y-138811000D01*
X231741000Y-138811000D02*
X228980000Y-138811000D01*
X227020000Y-138771000D02*
X224242000Y-138771000D01*
X231758000Y-138771000D02*
X228980000Y-138771000D01*
X227020000Y-138731000D02*
X224227000Y-138731000D01*
X231773000Y-138731000D02*
X228980000Y-138731000D01*
X227020000Y-138691000D02*
X224211000Y-138691000D01*
X231789000Y-138691000D02*
X228980000Y-138691000D01*
X227020000Y-138651000D02*
X224197000Y-138651000D01*
X231803000Y-138651000D02*
X228980000Y-138651000D01*
X227020000Y-138611000D02*
X224182000Y-138611000D01*
X231818000Y-138611000D02*
X228980000Y-138611000D01*
X227020000Y-138571000D02*
X224168000Y-138571000D01*
X231832000Y-138571000D02*
X228980000Y-138571000D01*
X227020000Y-138531000D02*
X224155000Y-138531000D01*
X231845000Y-138531000D02*
X228980000Y-138531000D01*
X227020000Y-138491000D02*
X224142000Y-138491000D01*
X231858000Y-138491000D02*
X228980000Y-138491000D01*
X227020000Y-138451000D02*
X224130000Y-138451000D01*
X231870000Y-138451000D02*
X228980000Y-138451000D01*
X227020000Y-138411000D02*
X224117000Y-138411000D01*
X231883000Y-138411000D02*
X228980000Y-138411000D01*
X227020000Y-138371000D02*
X224106000Y-138371000D01*
X231894000Y-138371000D02*
X228980000Y-138371000D01*
X227020000Y-138331000D02*
X224095000Y-138331000D01*
X231905000Y-138331000D02*
X228980000Y-138331000D01*
X227020000Y-138291000D02*
X224084000Y-138291000D01*
X231916000Y-138291000D02*
X228980000Y-138291000D01*
X227020000Y-138251000D02*
X224074000Y-138251000D01*
X231926000Y-138251000D02*
X228980000Y-138251000D01*
X227020000Y-138211000D02*
X224064000Y-138211000D01*
X231936000Y-138211000D02*
X228980000Y-138211000D01*
X227020000Y-138171000D02*
X224054000Y-138171000D01*
X231946000Y-138171000D02*
X228980000Y-138171000D01*
X227020000Y-138131000D02*
X224045000Y-138131000D01*
X231955000Y-138131000D02*
X228980000Y-138131000D01*
X227020000Y-138091000D02*
X224037000Y-138091000D01*
X231963000Y-138091000D02*
X228980000Y-138091000D01*
X227020000Y-138051000D02*
X224029000Y-138051000D01*
X231971000Y-138051000D02*
X228980000Y-138051000D01*
X227020000Y-138011000D02*
X224021000Y-138011000D01*
X231979000Y-138011000D02*
X228980000Y-138011000D01*
X227020000Y-137971000D02*
X224013000Y-137971000D01*
X231987000Y-137971000D02*
X228980000Y-137971000D01*
X227020000Y-137930000D02*
X224006000Y-137930000D01*
X231994000Y-137930000D02*
X228980000Y-137930000D01*
X227020000Y-137890000D02*
X224000000Y-137890000D01*
X232000000Y-137890000D02*
X228980000Y-137890000D01*
X227020000Y-137850000D02*
X223994000Y-137850000D01*
X232006000Y-137850000D02*
X228980000Y-137850000D01*
X227020000Y-137810000D02*
X223988000Y-137810000D01*
X232012000Y-137810000D02*
X228980000Y-137810000D01*
X227020000Y-137770000D02*
X223983000Y-137770000D01*
X232017000Y-137770000D02*
X228980000Y-137770000D01*
X227020000Y-137730000D02*
X223978000Y-137730000D01*
X232022000Y-137730000D02*
X228980000Y-137730000D01*
X227020000Y-137690000D02*
X223973000Y-137690000D01*
X232027000Y-137690000D02*
X228980000Y-137690000D01*
X227020000Y-137650000D02*
X223969000Y-137650000D01*
X232031000Y-137650000D02*
X228980000Y-137650000D01*
X227020000Y-137610000D02*
X223965000Y-137610000D01*
X232035000Y-137610000D02*
X228980000Y-137610000D01*
X227020000Y-137570000D02*
X223962000Y-137570000D01*
X232038000Y-137570000D02*
X228980000Y-137570000D01*
X227020000Y-137530000D02*
X223959000Y-137530000D01*
X232041000Y-137530000D02*
X228980000Y-137530000D01*
X232043000Y-137490000D02*
X223957000Y-137490000D01*
X232046000Y-137450000D02*
X223954000Y-137450000D01*
X232047000Y-137410000D02*
X223953000Y-137410000D01*
X232049000Y-137370000D02*
X223951000Y-137370000D01*
X232050000Y-137330000D02*
X223950000Y-137330000D01*
X232050000Y-137290000D02*
X223950000Y-137290000D01*
X232050000Y-137250000D02*
X223950000Y-137250000D01*
X232090000Y-137250000D02*
G75*
G03*
X232090000Y-137250000I-4090000J0D01*
G01*
%TO.C,ADD4.2*%
X177670000Y-59540000D02*
X177670000Y-61190000D01*
X198110000Y-59540000D02*
X177670000Y-59540000D01*
X198110000Y-64840000D02*
X198110000Y-59540000D01*
X177670000Y-64840000D02*
X198110000Y-64840000D01*
X177670000Y-63190000D02*
X177670000Y-64840000D01*
X177670000Y-61190000D02*
G75*
G02*
X177670000Y-63190000I0J-1000000D01*
G01*
%TO.C,ADD4.1*%
X178670000Y-32540000D02*
X178670000Y-34190000D01*
X199110000Y-32540000D02*
X178670000Y-32540000D01*
X199110000Y-37840000D02*
X199110000Y-32540000D01*
X178670000Y-37840000D02*
X199110000Y-37840000D01*
X178670000Y-36190000D02*
X178670000Y-37840000D01*
X178670000Y-34190000D02*
G75*
G02*
X178670000Y-36190000I0J-1000000D01*
G01*
%TO.C,ADD4.3*%
X177670000Y-89540000D02*
X177670000Y-91190000D01*
X198110000Y-89540000D02*
X177670000Y-89540000D01*
X198110000Y-94840000D02*
X198110000Y-89540000D01*
X177670000Y-94840000D02*
X198110000Y-94840000D01*
X177670000Y-93190000D02*
X177670000Y-94840000D01*
X177670000Y-91190000D02*
G75*
G02*
X177670000Y-93190000I0J-1000000D01*
G01*
%TO.C,ADD4.4*%
X177670000Y-124540000D02*
X177670000Y-126190000D01*
X198110000Y-124540000D02*
X177670000Y-124540000D01*
X198110000Y-129840000D02*
X198110000Y-124540000D01*
X177670000Y-129840000D02*
X198110000Y-129840000D01*
X177670000Y-128190000D02*
X177670000Y-129840000D01*
X177670000Y-126190000D02*
G75*
G02*
X177670000Y-128190000I0J-1000000D01*
G01*
%TO.C,J5*%
D10*
X231352380Y-124333333D02*
X232066666Y-124333333D01*
X232209523Y-124380952D01*
X232304761Y-124476190D01*
X232352380Y-124619047D01*
X232352380Y-124714285D01*
X231352380Y-123380952D02*
X231352380Y-123857142D01*
X231828571Y-123904761D01*
X231780952Y-123857142D01*
X231733333Y-123761904D01*
X231733333Y-123523809D01*
X231780952Y-123428571D01*
X231828571Y-123380952D01*
X231923809Y-123333333D01*
X232161904Y-123333333D01*
X232257142Y-123380952D01*
X232304761Y-123428571D01*
X232352380Y-123523809D01*
X232352380Y-123761904D01*
X232304761Y-123857142D01*
X232257142Y-123904761D01*
%TO.C,J4*%
X225666666Y-113702380D02*
X225666666Y-114416666D01*
X225619047Y-114559523D01*
X225523809Y-114654761D01*
X225380952Y-114702380D01*
X225285714Y-114702380D01*
X226571428Y-114035714D02*
X226571428Y-114702380D01*
X226333333Y-113654761D02*
X226095238Y-114369047D01*
X226714285Y-114369047D01*
%TO.C,J6*%
D18*
X200621666Y-142574523D02*
X200621666Y-143481666D01*
X200561190Y-143663095D01*
X200440238Y-143784047D01*
X200258809Y-143844523D01*
X200137857Y-143844523D01*
X201770714Y-142574523D02*
X201528809Y-142574523D01*
X201407857Y-142635000D01*
X201347380Y-142695476D01*
X201226428Y-142876904D01*
X201165952Y-143118809D01*
X201165952Y-143602619D01*
X201226428Y-143723571D01*
X201286904Y-143784047D01*
X201407857Y-143844523D01*
X201649761Y-143844523D01*
X201770714Y-143784047D01*
X201831190Y-143723571D01*
X201891666Y-143602619D01*
X201891666Y-143300238D01*
X201831190Y-143179285D01*
X201770714Y-143118809D01*
X201649761Y-143058333D01*
X201407857Y-143058333D01*
X201286904Y-143118809D01*
X201226428Y-143179285D01*
X201165952Y-143300238D01*
%TO.C,J2*%
X55304523Y-44423333D02*
X56211666Y-44423333D01*
X56393095Y-44483809D01*
X56514047Y-44604761D01*
X56574523Y-44786190D01*
X56574523Y-44907142D01*
X55425476Y-43879047D02*
X55365000Y-43818571D01*
X55304523Y-43697619D01*
X55304523Y-43395238D01*
X55365000Y-43274285D01*
X55425476Y-43213809D01*
X55546428Y-43153333D01*
X55667380Y-43153333D01*
X55848809Y-43213809D01*
X56574523Y-43939523D01*
X56574523Y-43153333D01*
%TO.C,J1*%
X226304523Y-52423333D02*
X227211666Y-52423333D01*
X227393095Y-52483809D01*
X227514047Y-52604761D01*
X227574523Y-52786190D01*
X227574523Y-52907142D01*
X227574523Y-51153333D02*
X227574523Y-51879047D01*
X227574523Y-51516190D02*
X226304523Y-51516190D01*
X226485952Y-51637142D01*
X226606904Y-51758095D01*
X226667380Y-51879047D01*
%TO.C,H8*%
D10*
X55238095Y-147952380D02*
X55238095Y-146952380D01*
X55238095Y-147428571D02*
X55809523Y-147428571D01*
X55809523Y-147952380D02*
X55809523Y-146952380D01*
X56428571Y-147380952D02*
X56333333Y-147333333D01*
X56285714Y-147285714D01*
X56238095Y-147190476D01*
X56238095Y-147142857D01*
X56285714Y-147047619D01*
X56333333Y-147000000D01*
X56428571Y-146952380D01*
X56619047Y-146952380D01*
X56714285Y-147000000D01*
X56761904Y-147047619D01*
X56809523Y-147142857D01*
X56809523Y-147190476D01*
X56761904Y-147285714D01*
X56714285Y-147333333D01*
X56619047Y-147380952D01*
X56428571Y-147380952D01*
X56333333Y-147428571D01*
X56285714Y-147476190D01*
X56238095Y-147571428D01*
X56238095Y-147761904D01*
X56285714Y-147857142D01*
X56333333Y-147904761D01*
X56428571Y-147952380D01*
X56619047Y-147952380D01*
X56714285Y-147904761D01*
X56761904Y-147857142D01*
X56809523Y-147761904D01*
X56809523Y-147571428D01*
X56761904Y-147476190D01*
X56714285Y-147428571D01*
X56619047Y-147380952D01*
%TO.C,H7*%
X223238095Y-20952380D02*
X223238095Y-19952380D01*
X223238095Y-20428571D02*
X223809523Y-20428571D01*
X223809523Y-20952380D02*
X223809523Y-19952380D01*
X224190476Y-19952380D02*
X224857142Y-19952380D01*
X224428571Y-20952380D01*
%TO.C,H6*%
X55238095Y-20952380D02*
X55238095Y-19952380D01*
X55238095Y-20428571D02*
X55809523Y-20428571D01*
X55809523Y-20952380D02*
X55809523Y-19952380D01*
X56714285Y-19952380D02*
X56523809Y-19952380D01*
X56428571Y-20000000D01*
X56380952Y-20047619D01*
X56285714Y-20190476D01*
X56238095Y-20380952D01*
X56238095Y-20761904D01*
X56285714Y-20857142D01*
X56333333Y-20904761D01*
X56428571Y-20952380D01*
X56619047Y-20952380D01*
X56714285Y-20904761D01*
X56761904Y-20857142D01*
X56809523Y-20761904D01*
X56809523Y-20523809D01*
X56761904Y-20428571D01*
X56714285Y-20380952D01*
X56619047Y-20333333D01*
X56428571Y-20333333D01*
X56333333Y-20380952D01*
X56285714Y-20428571D01*
X56238095Y-20523809D01*
%TO.C,H5*%
X224238095Y-147952380D02*
X224238095Y-146952380D01*
X224238095Y-147428571D02*
X224809523Y-147428571D01*
X224809523Y-147952380D02*
X224809523Y-146952380D01*
X225761904Y-146952380D02*
X225285714Y-146952380D01*
X225238095Y-147428571D01*
X225285714Y-147380952D01*
X225380952Y-147333333D01*
X225619047Y-147333333D01*
X225714285Y-147380952D01*
X225761904Y-147428571D01*
X225809523Y-147523809D01*
X225809523Y-147761904D01*
X225761904Y-147857142D01*
X225714285Y-147904761D01*
X225619047Y-147952380D01*
X225380952Y-147952380D01*
X225285714Y-147904761D01*
X225238095Y-147857142D01*
%TO.C,H4*%
X233238095Y-20952380D02*
X233238095Y-19952380D01*
X233238095Y-20428571D02*
X233809523Y-20428571D01*
X233809523Y-20952380D02*
X233809523Y-19952380D01*
X234714285Y-20285714D02*
X234714285Y-20952380D01*
X234476190Y-19904761D02*
X234238095Y-20619047D01*
X234857142Y-20619047D01*
%TO.C,H3*%
X233238095Y-147952380D02*
X233238095Y-146952380D01*
X233238095Y-147428571D02*
X233809523Y-147428571D01*
X233809523Y-147952380D02*
X233809523Y-146952380D01*
X234190476Y-146952380D02*
X234809523Y-146952380D01*
X234476190Y-147333333D01*
X234619047Y-147333333D01*
X234714285Y-147380952D01*
X234761904Y-147428571D01*
X234809523Y-147523809D01*
X234809523Y-147761904D01*
X234761904Y-147857142D01*
X234714285Y-147904761D01*
X234619047Y-147952380D01*
X234333333Y-147952380D01*
X234238095Y-147904761D01*
X234190476Y-147857142D01*
%TO.C,H2*%
X45238095Y-147952380D02*
X45238095Y-146952380D01*
X45238095Y-147428571D02*
X45809523Y-147428571D01*
X45809523Y-147952380D02*
X45809523Y-146952380D01*
X46238095Y-147047619D02*
X46285714Y-147000000D01*
X46380952Y-146952380D01*
X46619047Y-146952380D01*
X46714285Y-147000000D01*
X46761904Y-147047619D01*
X46809523Y-147142857D01*
X46809523Y-147238095D01*
X46761904Y-147380952D01*
X46190476Y-147952380D01*
X46809523Y-147952380D01*
%TO.C,H1*%
X45238095Y-20952380D02*
X45238095Y-19952380D01*
X45238095Y-20428571D02*
X45809523Y-20428571D01*
X45809523Y-20952380D02*
X45809523Y-19952380D01*
X46809523Y-20952380D02*
X46238095Y-20952380D01*
X46523809Y-20952380D02*
X46523809Y-19952380D01*
X46428571Y-20095238D01*
X46333333Y-20190476D01*
X46238095Y-20238095D01*
%TO.C,C13*%
X155107142Y-84747142D02*
X155059523Y-84794761D01*
X154916666Y-84842380D01*
X154821428Y-84842380D01*
X154678571Y-84794761D01*
X154583333Y-84699523D01*
X154535714Y-84604285D01*
X154488095Y-84413809D01*
X154488095Y-84270952D01*
X154535714Y-84080476D01*
X154583333Y-83985238D01*
X154678571Y-83890000D01*
X154821428Y-83842380D01*
X154916666Y-83842380D01*
X155059523Y-83890000D01*
X155107142Y-83937619D01*
X156059523Y-84842380D02*
X155488095Y-84842380D01*
X155773809Y-84842380D02*
X155773809Y-83842380D01*
X155678571Y-83985238D01*
X155583333Y-84080476D01*
X155488095Y-84128095D01*
X156392857Y-83842380D02*
X157011904Y-83842380D01*
X156678571Y-84223333D01*
X156821428Y-84223333D01*
X156916666Y-84270952D01*
X156964285Y-84318571D01*
X157011904Y-84413809D01*
X157011904Y-84651904D01*
X156964285Y-84747142D01*
X156916666Y-84794761D01*
X156821428Y-84842380D01*
X156535714Y-84842380D01*
X156440476Y-84794761D01*
X156392857Y-84747142D01*
%TO.C,C12*%
X154607142Y-58747142D02*
X154559523Y-58794761D01*
X154416666Y-58842380D01*
X154321428Y-58842380D01*
X154178571Y-58794761D01*
X154083333Y-58699523D01*
X154035714Y-58604285D01*
X153988095Y-58413809D01*
X153988095Y-58270952D01*
X154035714Y-58080476D01*
X154083333Y-57985238D01*
X154178571Y-57890000D01*
X154321428Y-57842380D01*
X154416666Y-57842380D01*
X154559523Y-57890000D01*
X154607142Y-57937619D01*
X155559523Y-58842380D02*
X154988095Y-58842380D01*
X155273809Y-58842380D02*
X155273809Y-57842380D01*
X155178571Y-57985238D01*
X155083333Y-58080476D01*
X154988095Y-58128095D01*
X155940476Y-57937619D02*
X155988095Y-57890000D01*
X156083333Y-57842380D01*
X156321428Y-57842380D01*
X156416666Y-57890000D01*
X156464285Y-57937619D01*
X156511904Y-58032857D01*
X156511904Y-58128095D01*
X156464285Y-58270952D01*
X155892857Y-58842380D01*
X156511904Y-58842380D01*
%TO.C,C11*%
X96607142Y-147967142D02*
X96559523Y-148014761D01*
X96416666Y-148062380D01*
X96321428Y-148062380D01*
X96178571Y-148014761D01*
X96083333Y-147919523D01*
X96035714Y-147824285D01*
X95988095Y-147633809D01*
X95988095Y-147490952D01*
X96035714Y-147300476D01*
X96083333Y-147205238D01*
X96178571Y-147110000D01*
X96321428Y-147062380D01*
X96416666Y-147062380D01*
X96559523Y-147110000D01*
X96607142Y-147157619D01*
X97559523Y-148062380D02*
X96988095Y-148062380D01*
X97273809Y-148062380D02*
X97273809Y-147062380D01*
X97178571Y-147205238D01*
X97083333Y-147300476D01*
X96988095Y-147348095D01*
X98511904Y-148062380D02*
X97940476Y-148062380D01*
X98226190Y-148062380D02*
X98226190Y-147062380D01*
X98130952Y-147205238D01*
X98035714Y-147300476D01*
X97940476Y-147348095D01*
%TO.C,C10*%
X97107142Y-89747142D02*
X97059523Y-89794761D01*
X96916666Y-89842380D01*
X96821428Y-89842380D01*
X96678571Y-89794761D01*
X96583333Y-89699523D01*
X96535714Y-89604285D01*
X96488095Y-89413809D01*
X96488095Y-89270952D01*
X96535714Y-89080476D01*
X96583333Y-88985238D01*
X96678571Y-88890000D01*
X96821428Y-88842380D01*
X96916666Y-88842380D01*
X97059523Y-88890000D01*
X97107142Y-88937619D01*
X98059523Y-89842380D02*
X97488095Y-89842380D01*
X97773809Y-89842380D02*
X97773809Y-88842380D01*
X97678571Y-88985238D01*
X97583333Y-89080476D01*
X97488095Y-89128095D01*
X98678571Y-88842380D02*
X98773809Y-88842380D01*
X98869047Y-88890000D01*
X98916666Y-88937619D01*
X98964285Y-89032857D01*
X99011904Y-89223333D01*
X99011904Y-89461428D01*
X98964285Y-89651904D01*
X98916666Y-89747142D01*
X98869047Y-89794761D01*
X98773809Y-89842380D01*
X98678571Y-89842380D01*
X98583333Y-89794761D01*
X98535714Y-89747142D01*
X98488095Y-89651904D01*
X98440476Y-89461428D01*
X98440476Y-89223333D01*
X98488095Y-89032857D01*
X98535714Y-88937619D01*
X98583333Y-88890000D01*
X98678571Y-88842380D01*
%TO.C,C9*%
X97583333Y-78747142D02*
X97535714Y-78794761D01*
X97392857Y-78842380D01*
X97297619Y-78842380D01*
X97154761Y-78794761D01*
X97059523Y-78699523D01*
X97011904Y-78604285D01*
X96964285Y-78413809D01*
X96964285Y-78270952D01*
X97011904Y-78080476D01*
X97059523Y-77985238D01*
X97154761Y-77890000D01*
X97297619Y-77842380D01*
X97392857Y-77842380D01*
X97535714Y-77890000D01*
X97583333Y-77937619D01*
X98059523Y-78842380D02*
X98250000Y-78842380D01*
X98345238Y-78794761D01*
X98392857Y-78747142D01*
X98488095Y-78604285D01*
X98535714Y-78413809D01*
X98535714Y-78032857D01*
X98488095Y-77937619D01*
X98440476Y-77890000D01*
X98345238Y-77842380D01*
X98154761Y-77842380D01*
X98059523Y-77890000D01*
X98011904Y-77937619D01*
X97964285Y-78032857D01*
X97964285Y-78270952D01*
X98011904Y-78366190D01*
X98059523Y-78413809D01*
X98154761Y-78461428D01*
X98345238Y-78461428D01*
X98440476Y-78413809D01*
X98488095Y-78366190D01*
X98535714Y-78270952D01*
%TO.C,C8*%
X97583333Y-26747142D02*
X97535714Y-26794761D01*
X97392857Y-26842380D01*
X97297619Y-26842380D01*
X97154761Y-26794761D01*
X97059523Y-26699523D01*
X97011904Y-26604285D01*
X96964285Y-26413809D01*
X96964285Y-26270952D01*
X97011904Y-26080476D01*
X97059523Y-25985238D01*
X97154761Y-25890000D01*
X97297619Y-25842380D01*
X97392857Y-25842380D01*
X97535714Y-25890000D01*
X97583333Y-25937619D01*
X98154761Y-26270952D02*
X98059523Y-26223333D01*
X98011904Y-26175714D01*
X97964285Y-26080476D01*
X97964285Y-26032857D01*
X98011904Y-25937619D01*
X98059523Y-25890000D01*
X98154761Y-25842380D01*
X98345238Y-25842380D01*
X98440476Y-25890000D01*
X98488095Y-25937619D01*
X98535714Y-26032857D01*
X98535714Y-26080476D01*
X98488095Y-26175714D01*
X98440476Y-26223333D01*
X98345238Y-26270952D01*
X98154761Y-26270952D01*
X98059523Y-26318571D01*
X98011904Y-26366190D01*
X97964285Y-26461428D01*
X97964285Y-26651904D01*
X98011904Y-26747142D01*
X98059523Y-26794761D01*
X98154761Y-26842380D01*
X98345238Y-26842380D01*
X98440476Y-26794761D01*
X98488095Y-26747142D01*
X98535714Y-26651904D01*
X98535714Y-26461428D01*
X98488095Y-26366190D01*
X98440476Y-26318571D01*
X98345238Y-26270952D01*
%TO.C,C7*%
X199747142Y-127416666D02*
X199794761Y-127464285D01*
X199842380Y-127607142D01*
X199842380Y-127702380D01*
X199794761Y-127845238D01*
X199699523Y-127940476D01*
X199604285Y-127988095D01*
X199413809Y-128035714D01*
X199270952Y-128035714D01*
X199080476Y-127988095D01*
X198985238Y-127940476D01*
X198890000Y-127845238D01*
X198842380Y-127702380D01*
X198842380Y-127607142D01*
X198890000Y-127464285D01*
X198937619Y-127416666D01*
X198842380Y-127083333D02*
X198842380Y-126416666D01*
X199842380Y-126845238D01*
%TO.C,C6*%
X200747142Y-92416666D02*
X200794761Y-92464285D01*
X200842380Y-92607142D01*
X200842380Y-92702380D01*
X200794761Y-92845238D01*
X200699523Y-92940476D01*
X200604285Y-92988095D01*
X200413809Y-93035714D01*
X200270952Y-93035714D01*
X200080476Y-92988095D01*
X199985238Y-92940476D01*
X199890000Y-92845238D01*
X199842380Y-92702380D01*
X199842380Y-92607142D01*
X199890000Y-92464285D01*
X199937619Y-92416666D01*
X199842380Y-91559523D02*
X199842380Y-91750000D01*
X199890000Y-91845238D01*
X199937619Y-91892857D01*
X200080476Y-91988095D01*
X200270952Y-92035714D01*
X200651904Y-92035714D01*
X200747142Y-91988095D01*
X200794761Y-91940476D01*
X200842380Y-91845238D01*
X200842380Y-91654761D01*
X200794761Y-91559523D01*
X200747142Y-91511904D01*
X200651904Y-91464285D01*
X200413809Y-91464285D01*
X200318571Y-91511904D01*
X200270952Y-91559523D01*
X200223333Y-91654761D01*
X200223333Y-91845238D01*
X200270952Y-91940476D01*
X200318571Y-91988095D01*
X200413809Y-92035714D01*
%TO.C,C5*%
X199747142Y-62416666D02*
X199794761Y-62464285D01*
X199842380Y-62607142D01*
X199842380Y-62702380D01*
X199794761Y-62845238D01*
X199699523Y-62940476D01*
X199604285Y-62988095D01*
X199413809Y-63035714D01*
X199270952Y-63035714D01*
X199080476Y-62988095D01*
X198985238Y-62940476D01*
X198890000Y-62845238D01*
X198842380Y-62702380D01*
X198842380Y-62607142D01*
X198890000Y-62464285D01*
X198937619Y-62416666D01*
X198842380Y-61511904D02*
X198842380Y-61988095D01*
X199318571Y-62035714D01*
X199270952Y-61988095D01*
X199223333Y-61892857D01*
X199223333Y-61654761D01*
X199270952Y-61559523D01*
X199318571Y-61511904D01*
X199413809Y-61464285D01*
X199651904Y-61464285D01*
X199747142Y-61511904D01*
X199794761Y-61559523D01*
X199842380Y-61654761D01*
X199842380Y-61892857D01*
X199794761Y-61988095D01*
X199747142Y-62035714D01*
%TO.C,C4*%
X200747142Y-35416666D02*
X200794761Y-35464285D01*
X200842380Y-35607142D01*
X200842380Y-35702380D01*
X200794761Y-35845238D01*
X200699523Y-35940476D01*
X200604285Y-35988095D01*
X200413809Y-36035714D01*
X200270952Y-36035714D01*
X200080476Y-35988095D01*
X199985238Y-35940476D01*
X199890000Y-35845238D01*
X199842380Y-35702380D01*
X199842380Y-35607142D01*
X199890000Y-35464285D01*
X199937619Y-35416666D01*
X200175714Y-34559523D02*
X200842380Y-34559523D01*
X199794761Y-34797619D02*
X200509047Y-35035714D01*
X200509047Y-34416666D01*
%TO.C,C3*%
X174583333Y-140747142D02*
X174535714Y-140794761D01*
X174392857Y-140842380D01*
X174297619Y-140842380D01*
X174154761Y-140794761D01*
X174059523Y-140699523D01*
X174011904Y-140604285D01*
X173964285Y-140413809D01*
X173964285Y-140270952D01*
X174011904Y-140080476D01*
X174059523Y-139985238D01*
X174154761Y-139890000D01*
X174297619Y-139842380D01*
X174392857Y-139842380D01*
X174535714Y-139890000D01*
X174583333Y-139937619D01*
X174916666Y-139842380D02*
X175535714Y-139842380D01*
X175202380Y-140223333D01*
X175345238Y-140223333D01*
X175440476Y-140270952D01*
X175488095Y-140318571D01*
X175535714Y-140413809D01*
X175535714Y-140651904D01*
X175488095Y-140747142D01*
X175440476Y-140794761D01*
X175345238Y-140842380D01*
X175059523Y-140842380D01*
X174964285Y-140794761D01*
X174916666Y-140747142D01*
%TO.C,C2*%
X128583333Y-117747142D02*
X128535714Y-117794761D01*
X128392857Y-117842380D01*
X128297619Y-117842380D01*
X128154761Y-117794761D01*
X128059523Y-117699523D01*
X128011904Y-117604285D01*
X127964285Y-117413809D01*
X127964285Y-117270952D01*
X128011904Y-117080476D01*
X128059523Y-116985238D01*
X128154761Y-116890000D01*
X128297619Y-116842380D01*
X128392857Y-116842380D01*
X128535714Y-116890000D01*
X128583333Y-116937619D01*
X128964285Y-116937619D02*
X129011904Y-116890000D01*
X129107142Y-116842380D01*
X129345238Y-116842380D01*
X129440476Y-116890000D01*
X129488095Y-116937619D01*
X129535714Y-117032857D01*
X129535714Y-117128095D01*
X129488095Y-117270952D01*
X128916666Y-117842380D01*
X129535714Y-117842380D01*
%TO.C,C1*%
X128583333Y-63787142D02*
X128535714Y-63834761D01*
X128392857Y-63882380D01*
X128297619Y-63882380D01*
X128154761Y-63834761D01*
X128059523Y-63739523D01*
X128011904Y-63644285D01*
X127964285Y-63453809D01*
X127964285Y-63310952D01*
X128011904Y-63120476D01*
X128059523Y-63025238D01*
X128154761Y-62930000D01*
X128297619Y-62882380D01*
X128392857Y-62882380D01*
X128535714Y-62930000D01*
X128583333Y-62977619D01*
X129535714Y-63882380D02*
X128964285Y-63882380D01*
X129250000Y-63882380D02*
X129250000Y-62882380D01*
X129154761Y-63025238D01*
X129059523Y-63120476D01*
X128964285Y-63168095D01*
%TO.C,REG8.2*%
X126976666Y-86122380D02*
X126643333Y-85646190D01*
X126405238Y-86122380D02*
X126405238Y-85122380D01*
X126786190Y-85122380D01*
X126881428Y-85170000D01*
X126929047Y-85217619D01*
X126976666Y-85312857D01*
X126976666Y-85455714D01*
X126929047Y-85550952D01*
X126881428Y-85598571D01*
X126786190Y-85646190D01*
X126405238Y-85646190D01*
X127405238Y-85598571D02*
X127738571Y-85598571D01*
X127881428Y-86122380D02*
X127405238Y-86122380D01*
X127405238Y-85122380D01*
X127881428Y-85122380D01*
X128833809Y-85170000D02*
X128738571Y-85122380D01*
X128595714Y-85122380D01*
X128452857Y-85170000D01*
X128357619Y-85265238D01*
X128310000Y-85360476D01*
X128262380Y-85550952D01*
X128262380Y-85693809D01*
X128310000Y-85884285D01*
X128357619Y-85979523D01*
X128452857Y-86074761D01*
X128595714Y-86122380D01*
X128690952Y-86122380D01*
X128833809Y-86074761D01*
X128881428Y-86027142D01*
X128881428Y-85693809D01*
X128690952Y-85693809D01*
X129452857Y-85550952D02*
X129357619Y-85503333D01*
X129310000Y-85455714D01*
X129262380Y-85360476D01*
X129262380Y-85312857D01*
X129310000Y-85217619D01*
X129357619Y-85170000D01*
X129452857Y-85122380D01*
X129643333Y-85122380D01*
X129738571Y-85170000D01*
X129786190Y-85217619D01*
X129833809Y-85312857D01*
X129833809Y-85360476D01*
X129786190Y-85455714D01*
X129738571Y-85503333D01*
X129643333Y-85550952D01*
X129452857Y-85550952D01*
X129357619Y-85598571D01*
X129310000Y-85646190D01*
X129262380Y-85741428D01*
X129262380Y-85931904D01*
X129310000Y-86027142D01*
X129357619Y-86074761D01*
X129452857Y-86122380D01*
X129643333Y-86122380D01*
X129738571Y-86074761D01*
X129786190Y-86027142D01*
X129833809Y-85931904D01*
X129833809Y-85741428D01*
X129786190Y-85646190D01*
X129738571Y-85598571D01*
X129643333Y-85550952D01*
X130262380Y-86027142D02*
X130310000Y-86074761D01*
X130262380Y-86122380D01*
X130214761Y-86074761D01*
X130262380Y-86027142D01*
X130262380Y-86122380D01*
X130690952Y-85217619D02*
X130738571Y-85170000D01*
X130833809Y-85122380D01*
X131071904Y-85122380D01*
X131167142Y-85170000D01*
X131214761Y-85217619D01*
X131262380Y-85312857D01*
X131262380Y-85408095D01*
X131214761Y-85550952D01*
X130643333Y-86122380D01*
X131262380Y-86122380D01*
%TO.C,REG8.1*%
X126976666Y-31122380D02*
X126643333Y-30646190D01*
X126405238Y-31122380D02*
X126405238Y-30122380D01*
X126786190Y-30122380D01*
X126881428Y-30170000D01*
X126929047Y-30217619D01*
X126976666Y-30312857D01*
X126976666Y-30455714D01*
X126929047Y-30550952D01*
X126881428Y-30598571D01*
X126786190Y-30646190D01*
X126405238Y-30646190D01*
X127405238Y-30598571D02*
X127738571Y-30598571D01*
X127881428Y-31122380D02*
X127405238Y-31122380D01*
X127405238Y-30122380D01*
X127881428Y-30122380D01*
X128833809Y-30170000D02*
X128738571Y-30122380D01*
X128595714Y-30122380D01*
X128452857Y-30170000D01*
X128357619Y-30265238D01*
X128310000Y-30360476D01*
X128262380Y-30550952D01*
X128262380Y-30693809D01*
X128310000Y-30884285D01*
X128357619Y-30979523D01*
X128452857Y-31074761D01*
X128595714Y-31122380D01*
X128690952Y-31122380D01*
X128833809Y-31074761D01*
X128881428Y-31027142D01*
X128881428Y-30693809D01*
X128690952Y-30693809D01*
X129452857Y-30550952D02*
X129357619Y-30503333D01*
X129310000Y-30455714D01*
X129262380Y-30360476D01*
X129262380Y-30312857D01*
X129310000Y-30217619D01*
X129357619Y-30170000D01*
X129452857Y-30122380D01*
X129643333Y-30122380D01*
X129738571Y-30170000D01*
X129786190Y-30217619D01*
X129833809Y-30312857D01*
X129833809Y-30360476D01*
X129786190Y-30455714D01*
X129738571Y-30503333D01*
X129643333Y-30550952D01*
X129452857Y-30550952D01*
X129357619Y-30598571D01*
X129310000Y-30646190D01*
X129262380Y-30741428D01*
X129262380Y-30931904D01*
X129310000Y-31027142D01*
X129357619Y-31074761D01*
X129452857Y-31122380D01*
X129643333Y-31122380D01*
X129738571Y-31074761D01*
X129786190Y-31027142D01*
X129833809Y-30931904D01*
X129833809Y-30741428D01*
X129786190Y-30646190D01*
X129738571Y-30598571D01*
X129643333Y-30550952D01*
X130262380Y-31027142D02*
X130310000Y-31074761D01*
X130262380Y-31122380D01*
X130214761Y-31074761D01*
X130262380Y-31027142D01*
X130262380Y-31122380D01*
X131262380Y-31122380D02*
X130690952Y-31122380D01*
X130976666Y-31122380D02*
X130976666Y-30122380D01*
X130881428Y-30265238D01*
X130786190Y-30360476D01*
X130690952Y-30408095D01*
%TO.C,R14*%
X57167142Y-122592380D02*
X56833809Y-122116190D01*
X56595714Y-122592380D02*
X56595714Y-121592380D01*
X56976666Y-121592380D01*
X57071904Y-121640000D01*
X57119523Y-121687619D01*
X57167142Y-121782857D01*
X57167142Y-121925714D01*
X57119523Y-122020952D01*
X57071904Y-122068571D01*
X56976666Y-122116190D01*
X56595714Y-122116190D01*
X58119523Y-122592380D02*
X57548095Y-122592380D01*
X57833809Y-122592380D02*
X57833809Y-121592380D01*
X57738571Y-121735238D01*
X57643333Y-121830476D01*
X57548095Y-121878095D01*
X58976666Y-121925714D02*
X58976666Y-122592380D01*
X58738571Y-121544761D02*
X58500476Y-122259047D01*
X59119523Y-122259047D01*
%TO.C,R10*%
X126547142Y-139312380D02*
X126213809Y-138836190D01*
X125975714Y-139312380D02*
X125975714Y-138312380D01*
X126356666Y-138312380D01*
X126451904Y-138360000D01*
X126499523Y-138407619D01*
X126547142Y-138502857D01*
X126547142Y-138645714D01*
X126499523Y-138740952D01*
X126451904Y-138788571D01*
X126356666Y-138836190D01*
X125975714Y-138836190D01*
X127499523Y-139312380D02*
X126928095Y-139312380D01*
X127213809Y-139312380D02*
X127213809Y-138312380D01*
X127118571Y-138455238D01*
X127023333Y-138550476D01*
X126928095Y-138598095D01*
X128118571Y-138312380D02*
X128213809Y-138312380D01*
X128309047Y-138360000D01*
X128356666Y-138407619D01*
X128404285Y-138502857D01*
X128451904Y-138693333D01*
X128451904Y-138931428D01*
X128404285Y-139121904D01*
X128356666Y-139217142D01*
X128309047Y-139264761D01*
X128213809Y-139312380D01*
X128118571Y-139312380D01*
X128023333Y-139264761D01*
X127975714Y-139217142D01*
X127928095Y-139121904D01*
X127880476Y-138931428D01*
X127880476Y-138693333D01*
X127928095Y-138502857D01*
X127975714Y-138407619D01*
X128023333Y-138360000D01*
X128118571Y-138312380D01*
%TO.C,R6*%
X127023333Y-134312380D02*
X126690000Y-133836190D01*
X126451904Y-134312380D02*
X126451904Y-133312380D01*
X126832857Y-133312380D01*
X126928095Y-133360000D01*
X126975714Y-133407619D01*
X127023333Y-133502857D01*
X127023333Y-133645714D01*
X126975714Y-133740952D01*
X126928095Y-133788571D01*
X126832857Y-133836190D01*
X126451904Y-133836190D01*
X127880476Y-133312380D02*
X127690000Y-133312380D01*
X127594761Y-133360000D01*
X127547142Y-133407619D01*
X127451904Y-133550476D01*
X127404285Y-133740952D01*
X127404285Y-134121904D01*
X127451904Y-134217142D01*
X127499523Y-134264761D01*
X127594761Y-134312380D01*
X127785238Y-134312380D01*
X127880476Y-134264761D01*
X127928095Y-134217142D01*
X127975714Y-134121904D01*
X127975714Y-133883809D01*
X127928095Y-133788571D01*
X127880476Y-133740952D01*
X127785238Y-133693333D01*
X127594761Y-133693333D01*
X127499523Y-133740952D01*
X127451904Y-133788571D01*
X127404285Y-133883809D01*
%TO.C,R5*%
X57643333Y-117592380D02*
X57310000Y-117116190D01*
X57071904Y-117592380D02*
X57071904Y-116592380D01*
X57452857Y-116592380D01*
X57548095Y-116640000D01*
X57595714Y-116687619D01*
X57643333Y-116782857D01*
X57643333Y-116925714D01*
X57595714Y-117020952D01*
X57548095Y-117068571D01*
X57452857Y-117116190D01*
X57071904Y-117116190D01*
X58548095Y-116592380D02*
X58071904Y-116592380D01*
X58024285Y-117068571D01*
X58071904Y-117020952D01*
X58167142Y-116973333D01*
X58405238Y-116973333D01*
X58500476Y-117020952D01*
X58548095Y-117068571D01*
X58595714Y-117163809D01*
X58595714Y-117401904D01*
X58548095Y-117497142D01*
X58500476Y-117544761D01*
X58405238Y-117592380D01*
X58167142Y-117592380D01*
X58071904Y-117544761D01*
X58024285Y-117497142D01*
%TO.C,R4*%
X57643333Y-127592380D02*
X57310000Y-127116190D01*
X57071904Y-127592380D02*
X57071904Y-126592380D01*
X57452857Y-126592380D01*
X57548095Y-126640000D01*
X57595714Y-126687619D01*
X57643333Y-126782857D01*
X57643333Y-126925714D01*
X57595714Y-127020952D01*
X57548095Y-127068571D01*
X57452857Y-127116190D01*
X57071904Y-127116190D01*
X58500476Y-126925714D02*
X58500476Y-127592380D01*
X58262380Y-126544761D02*
X58024285Y-127259047D01*
X58643333Y-127259047D01*
%TO.C,POT1*%
X147202380Y-144642857D02*
X146202380Y-144642857D01*
X146202380Y-144261904D01*
X146250000Y-144166666D01*
X146297619Y-144119047D01*
X146392857Y-144071428D01*
X146535714Y-144071428D01*
X146630952Y-144119047D01*
X146678571Y-144166666D01*
X146726190Y-144261904D01*
X146726190Y-144642857D01*
X146202380Y-143452380D02*
X146202380Y-143261904D01*
X146250000Y-143166666D01*
X146345238Y-143071428D01*
X146535714Y-143023809D01*
X146869047Y-143023809D01*
X147059523Y-143071428D01*
X147154761Y-143166666D01*
X147202380Y-143261904D01*
X147202380Y-143452380D01*
X147154761Y-143547619D01*
X147059523Y-143642857D01*
X146869047Y-143690476D01*
X146535714Y-143690476D01*
X146345238Y-143642857D01*
X146250000Y-143547619D01*
X146202380Y-143452380D01*
X146202380Y-142738095D02*
X146202380Y-142166666D01*
X147202380Y-142452380D02*
X146202380Y-142452380D01*
X147202380Y-141309523D02*
X147202380Y-141880952D01*
X147202380Y-141595238D02*
X146202380Y-141595238D01*
X146345238Y-141690476D01*
X146440476Y-141785714D01*
X146488095Y-141880952D01*
%TO.C,MUXB2*%
X153500476Y-113452380D02*
X153500476Y-112452380D01*
X153833809Y-113166666D01*
X154167142Y-112452380D01*
X154167142Y-113452380D01*
X154643333Y-112452380D02*
X154643333Y-113261904D01*
X154690952Y-113357142D01*
X154738571Y-113404761D01*
X154833809Y-113452380D01*
X155024285Y-113452380D01*
X155119523Y-113404761D01*
X155167142Y-113357142D01*
X155214761Y-113261904D01*
X155214761Y-112452380D01*
X155595714Y-112452380D02*
X156262380Y-113452380D01*
X156262380Y-112452380D02*
X155595714Y-113452380D01*
X156976666Y-112928571D02*
X157119523Y-112976190D01*
X157167142Y-113023809D01*
X157214761Y-113119047D01*
X157214761Y-113261904D01*
X157167142Y-113357142D01*
X157119523Y-113404761D01*
X157024285Y-113452380D01*
X156643333Y-113452380D01*
X156643333Y-112452380D01*
X156976666Y-112452380D01*
X157071904Y-112500000D01*
X157119523Y-112547619D01*
X157167142Y-112642857D01*
X157167142Y-112738095D01*
X157119523Y-112833333D01*
X157071904Y-112880952D01*
X156976666Y-112928571D01*
X156643333Y-112928571D01*
X157595714Y-112547619D02*
X157643333Y-112500000D01*
X157738571Y-112452380D01*
X157976666Y-112452380D01*
X158071904Y-112500000D01*
X158119523Y-112547619D01*
X158167142Y-112642857D01*
X158167142Y-112738095D01*
X158119523Y-112880952D01*
X157548095Y-113452380D01*
X158167142Y-113452380D01*
%TO.C,MUXB1*%
X152880476Y-57782380D02*
X152880476Y-56782380D01*
X153213809Y-57496666D01*
X153547142Y-56782380D01*
X153547142Y-57782380D01*
X154023333Y-56782380D02*
X154023333Y-57591904D01*
X154070952Y-57687142D01*
X154118571Y-57734761D01*
X154213809Y-57782380D01*
X154404285Y-57782380D01*
X154499523Y-57734761D01*
X154547142Y-57687142D01*
X154594761Y-57591904D01*
X154594761Y-56782380D01*
X154975714Y-56782380D02*
X155642380Y-57782380D01*
X155642380Y-56782380D02*
X154975714Y-57782380D01*
X156356666Y-57258571D02*
X156499523Y-57306190D01*
X156547142Y-57353809D01*
X156594761Y-57449047D01*
X156594761Y-57591904D01*
X156547142Y-57687142D01*
X156499523Y-57734761D01*
X156404285Y-57782380D01*
X156023333Y-57782380D01*
X156023333Y-56782380D01*
X156356666Y-56782380D01*
X156451904Y-56830000D01*
X156499523Y-56877619D01*
X156547142Y-56972857D01*
X156547142Y-57068095D01*
X156499523Y-57163333D01*
X156451904Y-57210952D01*
X156356666Y-57258571D01*
X156023333Y-57258571D01*
X157547142Y-57782380D02*
X156975714Y-57782380D01*
X157261428Y-57782380D02*
X157261428Y-56782380D01*
X157166190Y-56925238D01*
X157070952Y-57020476D01*
X156975714Y-57068095D01*
%TO.C,MUXA4*%
X95571904Y-121122380D02*
X95571904Y-120122380D01*
X95905238Y-120836666D01*
X96238571Y-120122380D01*
X96238571Y-121122380D01*
X96714761Y-120122380D02*
X96714761Y-120931904D01*
X96762380Y-121027142D01*
X96810000Y-121074761D01*
X96905238Y-121122380D01*
X97095714Y-121122380D01*
X97190952Y-121074761D01*
X97238571Y-121027142D01*
X97286190Y-120931904D01*
X97286190Y-120122380D01*
X97667142Y-120122380D02*
X98333809Y-121122380D01*
X98333809Y-120122380D02*
X97667142Y-121122380D01*
X98667142Y-120836666D02*
X99143333Y-120836666D01*
X98571904Y-121122380D02*
X98905238Y-120122380D01*
X99238571Y-121122380D01*
X100000476Y-120455714D02*
X100000476Y-121122380D01*
X99762380Y-120074761D02*
X99524285Y-120789047D01*
X100143333Y-120789047D01*
%TO.C,MUXA3*%
X95571904Y-96122380D02*
X95571904Y-95122380D01*
X95905238Y-95836666D01*
X96238571Y-95122380D01*
X96238571Y-96122380D01*
X96714761Y-95122380D02*
X96714761Y-95931904D01*
X96762380Y-96027142D01*
X96810000Y-96074761D01*
X96905238Y-96122380D01*
X97095714Y-96122380D01*
X97190952Y-96074761D01*
X97238571Y-96027142D01*
X97286190Y-95931904D01*
X97286190Y-95122380D01*
X97667142Y-95122380D02*
X98333809Y-96122380D01*
X98333809Y-95122380D02*
X97667142Y-96122380D01*
X98667142Y-95836666D02*
X99143333Y-95836666D01*
X98571904Y-96122380D02*
X98905238Y-95122380D01*
X99238571Y-96122380D01*
X99476666Y-95122380D02*
X100095714Y-95122380D01*
X99762380Y-95503333D01*
X99905238Y-95503333D01*
X100000476Y-95550952D01*
X100048095Y-95598571D01*
X100095714Y-95693809D01*
X100095714Y-95931904D01*
X100048095Y-96027142D01*
X100000476Y-96074761D01*
X99905238Y-96122380D01*
X99619523Y-96122380D01*
X99524285Y-96074761D01*
X99476666Y-96027142D01*
%TO.C,MUXA2*%
X95571904Y-56122380D02*
X95571904Y-55122380D01*
X95905238Y-55836666D01*
X96238571Y-55122380D01*
X96238571Y-56122380D01*
X96714761Y-55122380D02*
X96714761Y-55931904D01*
X96762380Y-56027142D01*
X96810000Y-56074761D01*
X96905238Y-56122380D01*
X97095714Y-56122380D01*
X97190952Y-56074761D01*
X97238571Y-56027142D01*
X97286190Y-55931904D01*
X97286190Y-55122380D01*
X97667142Y-55122380D02*
X98333809Y-56122380D01*
X98333809Y-55122380D02*
X97667142Y-56122380D01*
X98667142Y-55836666D02*
X99143333Y-55836666D01*
X98571904Y-56122380D02*
X98905238Y-55122380D01*
X99238571Y-56122380D01*
X99524285Y-55217619D02*
X99571904Y-55170000D01*
X99667142Y-55122380D01*
X99905238Y-55122380D01*
X100000476Y-55170000D01*
X100048095Y-55217619D01*
X100095714Y-55312857D01*
X100095714Y-55408095D01*
X100048095Y-55550952D01*
X99476666Y-56122380D01*
X100095714Y-56122380D01*
%TO.C,MUXA1*%
X95571904Y-32122380D02*
X95571904Y-31122380D01*
X95905238Y-31836666D01*
X96238571Y-31122380D01*
X96238571Y-32122380D01*
X96714761Y-31122380D02*
X96714761Y-31931904D01*
X96762380Y-32027142D01*
X96810000Y-32074761D01*
X96905238Y-32122380D01*
X97095714Y-32122380D01*
X97190952Y-32074761D01*
X97238571Y-32027142D01*
X97286190Y-31931904D01*
X97286190Y-31122380D01*
X97667142Y-31122380D02*
X98333809Y-32122380D01*
X98333809Y-31122380D02*
X97667142Y-32122380D01*
X98667142Y-31836666D02*
X99143333Y-31836666D01*
X98571904Y-32122380D02*
X98905238Y-31122380D01*
X99238571Y-32122380D01*
X100095714Y-32122380D02*
X99524285Y-32122380D01*
X99810000Y-32122380D02*
X99810000Y-31122380D01*
X99714761Y-31265238D01*
X99619523Y-31360476D01*
X99524285Y-31408095D01*
%TO.C,J3*%
X58952380Y-99083333D02*
X59666666Y-99083333D01*
X59809523Y-99130952D01*
X59904761Y-99226190D01*
X59952380Y-99369047D01*
X59952380Y-99464285D01*
X58952380Y-98702380D02*
X58952380Y-98083333D01*
X59333333Y-98416666D01*
X59333333Y-98273809D01*
X59380952Y-98178571D01*
X59428571Y-98130952D01*
X59523809Y-98083333D01*
X59761904Y-98083333D01*
X59857142Y-98130952D01*
X59904761Y-98178571D01*
X59952380Y-98273809D01*
X59952380Y-98559523D01*
X59904761Y-98654761D01*
X59857142Y-98702380D01*
%TO.C,C_BOARD1*%
X233667142Y-140250000D02*
X233714761Y-140297619D01*
X233762380Y-140440476D01*
X233762380Y-140535714D01*
X233714761Y-140678571D01*
X233619523Y-140773809D01*
X233524285Y-140821428D01*
X233333809Y-140869047D01*
X233190952Y-140869047D01*
X233000476Y-140821428D01*
X232905238Y-140773809D01*
X232810000Y-140678571D01*
X232762380Y-140535714D01*
X232762380Y-140440476D01*
X232810000Y-140297619D01*
X232857619Y-140250000D01*
X233857619Y-140059523D02*
X233857619Y-139297619D01*
X233238571Y-138726190D02*
X233286190Y-138583333D01*
X233333809Y-138535714D01*
X233429047Y-138488095D01*
X233571904Y-138488095D01*
X233667142Y-138535714D01*
X233714761Y-138583333D01*
X233762380Y-138678571D01*
X233762380Y-139059523D01*
X232762380Y-139059523D01*
X232762380Y-138726190D01*
X232810000Y-138630952D01*
X232857619Y-138583333D01*
X232952857Y-138535714D01*
X233048095Y-138535714D01*
X233143333Y-138583333D01*
X233190952Y-138630952D01*
X233238571Y-138726190D01*
X233238571Y-139059523D01*
X232762380Y-137869047D02*
X232762380Y-137678571D01*
X232810000Y-137583333D01*
X232905238Y-137488095D01*
X233095714Y-137440476D01*
X233429047Y-137440476D01*
X233619523Y-137488095D01*
X233714761Y-137583333D01*
X233762380Y-137678571D01*
X233762380Y-137869047D01*
X233714761Y-137964285D01*
X233619523Y-138059523D01*
X233429047Y-138107142D01*
X233095714Y-138107142D01*
X232905238Y-138059523D01*
X232810000Y-137964285D01*
X232762380Y-137869047D01*
X233476666Y-137059523D02*
X233476666Y-136583333D01*
X233762380Y-137154761D02*
X232762380Y-136821428D01*
X233762380Y-136488095D01*
X233762380Y-135583333D02*
X233286190Y-135916666D01*
X233762380Y-136154761D02*
X232762380Y-136154761D01*
X232762380Y-135773809D01*
X232810000Y-135678571D01*
X232857619Y-135630952D01*
X232952857Y-135583333D01*
X233095714Y-135583333D01*
X233190952Y-135630952D01*
X233238571Y-135678571D01*
X233286190Y-135773809D01*
X233286190Y-136154761D01*
X233762380Y-135154761D02*
X232762380Y-135154761D01*
X232762380Y-134916666D01*
X232810000Y-134773809D01*
X232905238Y-134678571D01*
X233000476Y-134630952D01*
X233190952Y-134583333D01*
X233333809Y-134583333D01*
X233524285Y-134630952D01*
X233619523Y-134678571D01*
X233714761Y-134773809D01*
X233762380Y-134916666D01*
X233762380Y-135154761D01*
X233762380Y-133630952D02*
X233762380Y-134202380D01*
X233762380Y-133916666D02*
X232762380Y-133916666D01*
X232905238Y-134011904D01*
X233000476Y-134107142D01*
X233048095Y-134202380D01*
%TO.C,ADD4.2*%
X176836666Y-64618571D02*
X176836666Y-64142380D01*
X177122380Y-64713809D02*
X176122380Y-64380476D01*
X177122380Y-64047142D01*
X177122380Y-63713809D02*
X176122380Y-63713809D01*
X176122380Y-63475714D01*
X176170000Y-63332857D01*
X176265238Y-63237619D01*
X176360476Y-63190000D01*
X176550952Y-63142380D01*
X176693809Y-63142380D01*
X176884285Y-63190000D01*
X176979523Y-63237619D01*
X177074761Y-63332857D01*
X177122380Y-63475714D01*
X177122380Y-63713809D01*
X177122380Y-62713809D02*
X176122380Y-62713809D01*
X176122380Y-62475714D01*
X176170000Y-62332857D01*
X176265238Y-62237619D01*
X176360476Y-62190000D01*
X176550952Y-62142380D01*
X176693809Y-62142380D01*
X176884285Y-62190000D01*
X176979523Y-62237619D01*
X177074761Y-62332857D01*
X177122380Y-62475714D01*
X177122380Y-62713809D01*
X176455714Y-61285238D02*
X177122380Y-61285238D01*
X176074761Y-61523333D02*
X176789047Y-61761428D01*
X176789047Y-61142380D01*
X177027142Y-60761428D02*
X177074761Y-60713809D01*
X177122380Y-60761428D01*
X177074761Y-60809047D01*
X177027142Y-60761428D01*
X177122380Y-60761428D01*
X176217619Y-60332857D02*
X176170000Y-60285238D01*
X176122380Y-60190000D01*
X176122380Y-59951904D01*
X176170000Y-59856666D01*
X176217619Y-59809047D01*
X176312857Y-59761428D01*
X176408095Y-59761428D01*
X176550952Y-59809047D01*
X177122380Y-60380476D01*
X177122380Y-59761428D01*
%TO.C,ADD4.1*%
X184351428Y-29166666D02*
X184827619Y-29166666D01*
X184256190Y-29452380D02*
X184589523Y-28452380D01*
X184922857Y-29452380D01*
X185256190Y-29452380D02*
X185256190Y-28452380D01*
X185494285Y-28452380D01*
X185637142Y-28500000D01*
X185732380Y-28595238D01*
X185780000Y-28690476D01*
X185827619Y-28880952D01*
X185827619Y-29023809D01*
X185780000Y-29214285D01*
X185732380Y-29309523D01*
X185637142Y-29404761D01*
X185494285Y-29452380D01*
X185256190Y-29452380D01*
X186256190Y-29452380D02*
X186256190Y-28452380D01*
X186494285Y-28452380D01*
X186637142Y-28500000D01*
X186732380Y-28595238D01*
X186780000Y-28690476D01*
X186827619Y-28880952D01*
X186827619Y-29023809D01*
X186780000Y-29214285D01*
X186732380Y-29309523D01*
X186637142Y-29404761D01*
X186494285Y-29452380D01*
X186256190Y-29452380D01*
X187684761Y-28785714D02*
X187684761Y-29452380D01*
X187446666Y-28404761D02*
X187208571Y-29119047D01*
X187827619Y-29119047D01*
X188208571Y-29357142D02*
X188256190Y-29404761D01*
X188208571Y-29452380D01*
X188160952Y-29404761D01*
X188208571Y-29357142D01*
X188208571Y-29452380D01*
X189208571Y-29452380D02*
X188637142Y-29452380D01*
X188922857Y-29452380D02*
X188922857Y-28452380D01*
X188827619Y-28595238D01*
X188732380Y-28690476D01*
X188637142Y-28738095D01*
%TO.C,ADD4.3*%
X176836666Y-94618571D02*
X176836666Y-94142380D01*
X177122380Y-94713809D02*
X176122380Y-94380476D01*
X177122380Y-94047142D01*
X177122380Y-93713809D02*
X176122380Y-93713809D01*
X176122380Y-93475714D01*
X176170000Y-93332857D01*
X176265238Y-93237619D01*
X176360476Y-93190000D01*
X176550952Y-93142380D01*
X176693809Y-93142380D01*
X176884285Y-93190000D01*
X176979523Y-93237619D01*
X177074761Y-93332857D01*
X177122380Y-93475714D01*
X177122380Y-93713809D01*
X177122380Y-92713809D02*
X176122380Y-92713809D01*
X176122380Y-92475714D01*
X176170000Y-92332857D01*
X176265238Y-92237619D01*
X176360476Y-92190000D01*
X176550952Y-92142380D01*
X176693809Y-92142380D01*
X176884285Y-92190000D01*
X176979523Y-92237619D01*
X177074761Y-92332857D01*
X177122380Y-92475714D01*
X177122380Y-92713809D01*
X176455714Y-91285238D02*
X177122380Y-91285238D01*
X176074761Y-91523333D02*
X176789047Y-91761428D01*
X176789047Y-91142380D01*
X177027142Y-90761428D02*
X177074761Y-90713809D01*
X177122380Y-90761428D01*
X177074761Y-90809047D01*
X177027142Y-90761428D01*
X177122380Y-90761428D01*
X176122380Y-90380476D02*
X176122380Y-89761428D01*
X176503333Y-90094761D01*
X176503333Y-89951904D01*
X176550952Y-89856666D01*
X176598571Y-89809047D01*
X176693809Y-89761428D01*
X176931904Y-89761428D01*
X177027142Y-89809047D01*
X177074761Y-89856666D01*
X177122380Y-89951904D01*
X177122380Y-90237619D01*
X177074761Y-90332857D01*
X177027142Y-90380476D01*
%TO.C,ADD4.4*%
X176836666Y-129618571D02*
X176836666Y-129142380D01*
X177122380Y-129713809D02*
X176122380Y-129380476D01*
X177122380Y-129047142D01*
X177122380Y-128713809D02*
X176122380Y-128713809D01*
X176122380Y-128475714D01*
X176170000Y-128332857D01*
X176265238Y-128237619D01*
X176360476Y-128190000D01*
X176550952Y-128142380D01*
X176693809Y-128142380D01*
X176884285Y-128190000D01*
X176979523Y-128237619D01*
X177074761Y-128332857D01*
X177122380Y-128475714D01*
X177122380Y-128713809D01*
X177122380Y-127713809D02*
X176122380Y-127713809D01*
X176122380Y-127475714D01*
X176170000Y-127332857D01*
X176265238Y-127237619D01*
X176360476Y-127190000D01*
X176550952Y-127142380D01*
X176693809Y-127142380D01*
X176884285Y-127190000D01*
X176979523Y-127237619D01*
X177074761Y-127332857D01*
X177122380Y-127475714D01*
X177122380Y-127713809D01*
X176455714Y-126285238D02*
X177122380Y-126285238D01*
X176074761Y-126523333D02*
X176789047Y-126761428D01*
X176789047Y-126142380D01*
X177027142Y-125761428D02*
X177074761Y-125713809D01*
X177122380Y-125761428D01*
X177074761Y-125809047D01*
X177027142Y-125761428D01*
X177122380Y-125761428D01*
X176455714Y-124856666D02*
X177122380Y-124856666D01*
X176074761Y-125094761D02*
X176789047Y-125332857D01*
X176789047Y-124713809D01*
%TD*%
M02*
