%TF.GenerationSoftware,KiCad,Pcbnew,(5.1.10)-1*%
%TF.CreationDate,2021-10-21T23:45:09+02:00*%
%TF.ProjectId,Program Counter,50726f67-7261-46d2-9043-6f756e746572,rev1.0*%
%TF.SameCoordinates,Original*%
%TF.FileFunction,Legend,Top*%
%TF.FilePolarity,Positive*%
%FSLAX46Y46*%
G04 Gerber Fmt 4.6, Leading zero omitted, Abs format (unit mm)*
G04 Created by KiCad (PCBNEW (5.1.10)-1) date 2021-10-21 23:45:09*
%MOMM*%
%LPD*%
G01*
G04 APERTURE LIST*
%ADD10C,0.150000*%
%ADD11C,0.500000*%
%ADD12C,1.000000*%
%ADD13C,0.400000*%
%ADD14C,0.120000*%
G04 APERTURE END LIST*
D10*
X144404761Y-148404761D02*
X144547619Y-148452380D01*
X144785714Y-148452380D01*
X144880952Y-148404761D01*
X144928571Y-148357142D01*
X144976190Y-148261904D01*
X144976190Y-148166666D01*
X144928571Y-148071428D01*
X144880952Y-148023809D01*
X144785714Y-147976190D01*
X144595238Y-147928571D01*
X144500000Y-147880952D01*
X144452380Y-147833333D01*
X144404761Y-147738095D01*
X144404761Y-147642857D01*
X144452380Y-147547619D01*
X144500000Y-147500000D01*
X144595238Y-147452380D01*
X144833333Y-147452380D01*
X144976190Y-147500000D01*
X145785714Y-148404761D02*
X145690476Y-148452380D01*
X145500000Y-148452380D01*
X145404761Y-148404761D01*
X145357142Y-148309523D01*
X145357142Y-147928571D01*
X145404761Y-147833333D01*
X145500000Y-147785714D01*
X145690476Y-147785714D01*
X145785714Y-147833333D01*
X145833333Y-147928571D01*
X145833333Y-148023809D01*
X145357142Y-148119047D01*
X146119047Y-147785714D02*
X146500000Y-147785714D01*
X146261904Y-147452380D02*
X146261904Y-148309523D01*
X146309523Y-148404761D01*
X146404761Y-148452380D01*
X146500000Y-148452380D01*
X147595238Y-147785714D02*
X147595238Y-148785714D01*
X147595238Y-147833333D02*
X147690476Y-147785714D01*
X147880952Y-147785714D01*
X147976190Y-147833333D01*
X148023809Y-147880952D01*
X148071428Y-147976190D01*
X148071428Y-148261904D01*
X148023809Y-148357142D01*
X147976190Y-148404761D01*
X147880952Y-148452380D01*
X147690476Y-148452380D01*
X147595238Y-148404761D01*
X148642857Y-148452380D02*
X148547619Y-148404761D01*
X148500000Y-148357142D01*
X148452380Y-148261904D01*
X148452380Y-147976190D01*
X148500000Y-147880952D01*
X148547619Y-147833333D01*
X148642857Y-147785714D01*
X148785714Y-147785714D01*
X148880952Y-147833333D01*
X148928571Y-147880952D01*
X148976190Y-147976190D01*
X148976190Y-148261904D01*
X148928571Y-148357142D01*
X148880952Y-148404761D01*
X148785714Y-148452380D01*
X148642857Y-148452380D01*
X149261904Y-147785714D02*
X149642857Y-147785714D01*
X149404761Y-147452380D02*
X149404761Y-148309523D01*
X149452380Y-148404761D01*
X149547619Y-148452380D01*
X149642857Y-148452380D01*
X150357142Y-148404761D02*
X150261904Y-148452380D01*
X150071428Y-148452380D01*
X149976190Y-148404761D01*
X149928571Y-148309523D01*
X149928571Y-147928571D01*
X149976190Y-147833333D01*
X150071428Y-147785714D01*
X150261904Y-147785714D01*
X150357142Y-147833333D01*
X150404761Y-147928571D01*
X150404761Y-148023809D01*
X149928571Y-148119047D01*
X150833333Y-147785714D02*
X150833333Y-148452380D01*
X150833333Y-147880952D02*
X150880952Y-147833333D01*
X150976190Y-147785714D01*
X151119047Y-147785714D01*
X151214285Y-147833333D01*
X151261904Y-147928571D01*
X151261904Y-148452380D01*
X151595238Y-147785714D02*
X151976190Y-147785714D01*
X151738095Y-147452380D02*
X151738095Y-148309523D01*
X151785714Y-148404761D01*
X151880952Y-148452380D01*
X151976190Y-148452380D01*
X152309523Y-148452380D02*
X152309523Y-147785714D01*
X152309523Y-147452380D02*
X152261904Y-147500000D01*
X152309523Y-147547619D01*
X152357142Y-147500000D01*
X152309523Y-147452380D01*
X152309523Y-147547619D01*
X152928571Y-148452380D02*
X152833333Y-148404761D01*
X152785714Y-148357142D01*
X152738095Y-148261904D01*
X152738095Y-147976190D01*
X152785714Y-147880952D01*
X152833333Y-147833333D01*
X152928571Y-147785714D01*
X153071428Y-147785714D01*
X153166666Y-147833333D01*
X153214285Y-147880952D01*
X153261904Y-147976190D01*
X153261904Y-148261904D01*
X153214285Y-148357142D01*
X153166666Y-148404761D01*
X153071428Y-148452380D01*
X152928571Y-148452380D01*
X153690476Y-148452380D02*
X153690476Y-147785714D01*
X153690476Y-147880952D02*
X153738095Y-147833333D01*
X153833333Y-147785714D01*
X153976190Y-147785714D01*
X154071428Y-147833333D01*
X154119047Y-147928571D01*
X154119047Y-148452380D01*
X154119047Y-147928571D02*
X154166666Y-147833333D01*
X154261904Y-147785714D01*
X154404761Y-147785714D01*
X154500000Y-147833333D01*
X154547619Y-147928571D01*
X154547619Y-148452380D01*
X155404761Y-148404761D02*
X155309523Y-148452380D01*
X155119047Y-148452380D01*
X155023809Y-148404761D01*
X154976190Y-148309523D01*
X154976190Y-147928571D01*
X155023809Y-147833333D01*
X155119047Y-147785714D01*
X155309523Y-147785714D01*
X155404761Y-147833333D01*
X155452380Y-147928571D01*
X155452380Y-148023809D01*
X154976190Y-148119047D01*
X155738095Y-147785714D02*
X156119047Y-147785714D01*
X155880952Y-147452380D02*
X155880952Y-148309523D01*
X155928571Y-148404761D01*
X156023809Y-148452380D01*
X156119047Y-148452380D01*
X156833333Y-148404761D02*
X156738095Y-148452380D01*
X156547619Y-148452380D01*
X156452380Y-148404761D01*
X156404761Y-148309523D01*
X156404761Y-147928571D01*
X156452380Y-147833333D01*
X156547619Y-147785714D01*
X156738095Y-147785714D01*
X156833333Y-147833333D01*
X156880952Y-147928571D01*
X156880952Y-148023809D01*
X156404761Y-148119047D01*
X157309523Y-148452380D02*
X157309523Y-147785714D01*
X157309523Y-147976190D02*
X157357142Y-147880952D01*
X157404761Y-147833333D01*
X157500000Y-147785714D01*
X157595238Y-147785714D01*
X158547619Y-147785714D02*
X158928571Y-147785714D01*
X158690476Y-147452380D02*
X158690476Y-148309523D01*
X158738095Y-148404761D01*
X158833333Y-148452380D01*
X158928571Y-148452380D01*
X159404761Y-148452380D02*
X159309523Y-148404761D01*
X159261904Y-148357142D01*
X159214285Y-148261904D01*
X159214285Y-147976190D01*
X159261904Y-147880952D01*
X159309523Y-147833333D01*
X159404761Y-147785714D01*
X159547619Y-147785714D01*
X159642857Y-147833333D01*
X159690476Y-147880952D01*
X159738095Y-147976190D01*
X159738095Y-148261904D01*
X159690476Y-148357142D01*
X159642857Y-148404761D01*
X159547619Y-148452380D01*
X159404761Y-148452380D01*
X160833333Y-147785714D02*
X161071428Y-148452380D01*
X161309523Y-147785714D01*
X162119047Y-148452380D02*
X162119047Y-147928571D01*
X162071428Y-147833333D01*
X161976190Y-147785714D01*
X161785714Y-147785714D01*
X161690476Y-147833333D01*
X162119047Y-148404761D02*
X162023809Y-148452380D01*
X161785714Y-148452380D01*
X161690476Y-148404761D01*
X161642857Y-148309523D01*
X161642857Y-148214285D01*
X161690476Y-148119047D01*
X161785714Y-148071428D01*
X162023809Y-148071428D01*
X162119047Y-148023809D01*
X162595238Y-148452380D02*
X162595238Y-147785714D01*
X162595238Y-147976190D02*
X162642857Y-147880952D01*
X162690476Y-147833333D01*
X162785714Y-147785714D01*
X162880952Y-147785714D01*
X163119047Y-147785714D02*
X163357142Y-148452380D01*
X163595238Y-147785714D02*
X163357142Y-148452380D01*
X163261904Y-148690476D01*
X163214285Y-148738095D01*
X163119047Y-148785714D01*
X164738095Y-148452380D02*
X164738095Y-147785714D01*
X164738095Y-147976190D02*
X164785714Y-147880952D01*
X164833333Y-147833333D01*
X164928571Y-147785714D01*
X165023809Y-147785714D01*
X165738095Y-148404761D02*
X165642857Y-148452380D01*
X165452380Y-148452380D01*
X165357142Y-148404761D01*
X165309523Y-148309523D01*
X165309523Y-147928571D01*
X165357142Y-147833333D01*
X165452380Y-147785714D01*
X165642857Y-147785714D01*
X165738095Y-147833333D01*
X165785714Y-147928571D01*
X165785714Y-148023809D01*
X165309523Y-148119047D01*
X166642857Y-147785714D02*
X166642857Y-148595238D01*
X166595238Y-148690476D01*
X166547619Y-148738095D01*
X166452380Y-148785714D01*
X166309523Y-148785714D01*
X166214285Y-148738095D01*
X166642857Y-148404761D02*
X166547619Y-148452380D01*
X166357142Y-148452380D01*
X166261904Y-148404761D01*
X166214285Y-148357142D01*
X166166666Y-148261904D01*
X166166666Y-147976190D01*
X166214285Y-147880952D01*
X166261904Y-147833333D01*
X166357142Y-147785714D01*
X166547619Y-147785714D01*
X166642857Y-147833333D01*
X167119047Y-148452380D02*
X167119047Y-147785714D01*
X167119047Y-147452380D02*
X167071428Y-147500000D01*
X167119047Y-147547619D01*
X167166666Y-147500000D01*
X167119047Y-147452380D01*
X167119047Y-147547619D01*
X167547619Y-148404761D02*
X167642857Y-148452380D01*
X167833333Y-148452380D01*
X167928571Y-148404761D01*
X167976190Y-148309523D01*
X167976190Y-148261904D01*
X167928571Y-148166666D01*
X167833333Y-148119047D01*
X167690476Y-148119047D01*
X167595238Y-148071428D01*
X167547619Y-147976190D01*
X167547619Y-147928571D01*
X167595238Y-147833333D01*
X167690476Y-147785714D01*
X167833333Y-147785714D01*
X167928571Y-147833333D01*
X168261904Y-147785714D02*
X168642857Y-147785714D01*
X168404761Y-147452380D02*
X168404761Y-148309523D01*
X168452380Y-148404761D01*
X168547619Y-148452380D01*
X168642857Y-148452380D01*
X169357142Y-148404761D02*
X169261904Y-148452380D01*
X169071428Y-148452380D01*
X168976190Y-148404761D01*
X168928571Y-148309523D01*
X168928571Y-147928571D01*
X168976190Y-147833333D01*
X169071428Y-147785714D01*
X169261904Y-147785714D01*
X169357142Y-147833333D01*
X169404761Y-147928571D01*
X169404761Y-148023809D01*
X168928571Y-148119047D01*
X169833333Y-148452380D02*
X169833333Y-147785714D01*
X169833333Y-147976190D02*
X169880952Y-147880952D01*
X169928571Y-147833333D01*
X170023809Y-147785714D01*
X170119047Y-147785714D01*
X171785714Y-148357142D02*
X171738095Y-148404761D01*
X171595238Y-148452380D01*
X171499999Y-148452380D01*
X171357142Y-148404761D01*
X171261904Y-148309523D01*
X171214285Y-148214285D01*
X171166666Y-148023809D01*
X171166666Y-147880952D01*
X171214285Y-147690476D01*
X171261904Y-147595238D01*
X171357142Y-147500000D01*
X171499999Y-147452380D01*
X171595238Y-147452380D01*
X171738095Y-147500000D01*
X171785714Y-147547619D01*
X172690476Y-148452380D02*
X172214285Y-148452380D01*
X172214285Y-147452380D01*
X173595238Y-148452380D02*
X173261904Y-147976190D01*
X173023809Y-148452380D02*
X173023809Y-147452380D01*
X173404761Y-147452380D01*
X173499999Y-147500000D01*
X173547619Y-147547619D01*
X173595238Y-147642857D01*
X173595238Y-147785714D01*
X173547619Y-147880952D01*
X173499999Y-147928571D01*
X173404761Y-147976190D01*
X173023809Y-147976190D01*
X174642857Y-147785714D02*
X175023809Y-147785714D01*
X174785714Y-147452380D02*
X174785714Y-148309523D01*
X174833333Y-148404761D01*
X174928571Y-148452380D01*
X175023809Y-148452380D01*
X175357142Y-148452380D02*
X175357142Y-147785714D01*
X175357142Y-147452380D02*
X175309523Y-147500000D01*
X175357142Y-147547619D01*
X175404761Y-147500000D01*
X175357142Y-147452380D01*
X175357142Y-147547619D01*
X175833333Y-148452380D02*
X175833333Y-147785714D01*
X175833333Y-147880952D02*
X175880952Y-147833333D01*
X175976190Y-147785714D01*
X176119047Y-147785714D01*
X176214285Y-147833333D01*
X176261904Y-147928571D01*
X176261904Y-148452380D01*
X176261904Y-147928571D02*
X176309523Y-147833333D01*
X176404761Y-147785714D01*
X176547619Y-147785714D01*
X176642857Y-147833333D01*
X176690476Y-147928571D01*
X176690476Y-148452380D01*
X177547619Y-148404761D02*
X177452380Y-148452380D01*
X177261904Y-148452380D01*
X177166666Y-148404761D01*
X177119047Y-148309523D01*
X177119047Y-147928571D01*
X177166666Y-147833333D01*
X177261904Y-147785714D01*
X177452380Y-147785714D01*
X177547619Y-147833333D01*
X177595238Y-147928571D01*
X177595238Y-148023809D01*
X177119047Y-148119047D01*
X235904761Y-86857142D02*
X233904761Y-86857142D01*
X233904761Y-86095238D01*
X234000000Y-85904761D01*
X234095238Y-85809523D01*
X234285714Y-85714285D01*
X234571428Y-85714285D01*
X234761904Y-85809523D01*
X234857142Y-85904761D01*
X234952380Y-86095238D01*
X234952380Y-86857142D01*
X235904761Y-84857142D02*
X234571428Y-84857142D01*
X234952380Y-84857142D02*
X234761904Y-84761904D01*
X234666666Y-84666666D01*
X234571428Y-84476190D01*
X234571428Y-84285714D01*
X235904761Y-83333333D02*
X235809523Y-83523809D01*
X235714285Y-83619047D01*
X235523809Y-83714285D01*
X234952380Y-83714285D01*
X234761904Y-83619047D01*
X234666666Y-83523809D01*
X234571428Y-83333333D01*
X234571428Y-83047619D01*
X234666666Y-82857142D01*
X234761904Y-82761904D01*
X234952380Y-82666666D01*
X235523809Y-82666666D01*
X235714285Y-82761904D01*
X235809523Y-82857142D01*
X235904761Y-83047619D01*
X235904761Y-83333333D01*
X234571428Y-80952380D02*
X236190476Y-80952380D01*
X236380952Y-81047619D01*
X236476190Y-81142857D01*
X236571428Y-81333333D01*
X236571428Y-81619047D01*
X236476190Y-81809523D01*
X235809523Y-80952380D02*
X235904761Y-81142857D01*
X235904761Y-81523809D01*
X235809523Y-81714285D01*
X235714285Y-81809523D01*
X235523809Y-81904761D01*
X234952380Y-81904761D01*
X234761904Y-81809523D01*
X234666666Y-81714285D01*
X234571428Y-81523809D01*
X234571428Y-81142857D01*
X234666666Y-80952380D01*
X235904761Y-80000000D02*
X234571428Y-80000000D01*
X234952380Y-80000000D02*
X234761904Y-79904761D01*
X234666666Y-79809523D01*
X234571428Y-79619047D01*
X234571428Y-79428571D01*
X235904761Y-77904761D02*
X234857142Y-77904761D01*
X234666666Y-78000000D01*
X234571428Y-78190476D01*
X234571428Y-78571428D01*
X234666666Y-78761904D01*
X235809523Y-77904761D02*
X235904761Y-78095238D01*
X235904761Y-78571428D01*
X235809523Y-78761904D01*
X235619047Y-78857142D01*
X235428571Y-78857142D01*
X235238095Y-78761904D01*
X235142857Y-78571428D01*
X235142857Y-78095238D01*
X235047619Y-77904761D01*
X235904761Y-76952380D02*
X234571428Y-76952380D01*
X234761904Y-76952380D02*
X234666666Y-76857142D01*
X234571428Y-76666666D01*
X234571428Y-76380952D01*
X234666666Y-76190476D01*
X234857142Y-76095238D01*
X235904761Y-76095238D01*
X234857142Y-76095238D02*
X234666666Y-76000000D01*
X234571428Y-75809523D01*
X234571428Y-75523809D01*
X234666666Y-75333333D01*
X234857142Y-75238095D01*
X235904761Y-75238095D01*
X235714285Y-71619047D02*
X235809523Y-71714285D01*
X235904761Y-72000000D01*
X235904761Y-72190476D01*
X235809523Y-72476190D01*
X235619047Y-72666666D01*
X235428571Y-72761904D01*
X235047619Y-72857142D01*
X234761904Y-72857142D01*
X234380952Y-72761904D01*
X234190476Y-72666666D01*
X234000000Y-72476190D01*
X233904761Y-72190476D01*
X233904761Y-72000000D01*
X234000000Y-71714285D01*
X234095238Y-71619047D01*
X235904761Y-70476190D02*
X235809523Y-70666666D01*
X235714285Y-70761904D01*
X235523809Y-70857142D01*
X234952380Y-70857142D01*
X234761904Y-70761904D01*
X234666666Y-70666666D01*
X234571428Y-70476190D01*
X234571428Y-70190476D01*
X234666666Y-70000000D01*
X234761904Y-69904761D01*
X234952380Y-69809523D01*
X235523809Y-69809523D01*
X235714285Y-69904761D01*
X235809523Y-70000000D01*
X235904761Y-70190476D01*
X235904761Y-70476190D01*
X234571428Y-68095238D02*
X235904761Y-68095238D01*
X234571428Y-68952380D02*
X235619047Y-68952380D01*
X235809523Y-68857142D01*
X235904761Y-68666666D01*
X235904761Y-68380952D01*
X235809523Y-68190476D01*
X235714285Y-68095238D01*
X234571428Y-67142857D02*
X235904761Y-67142857D01*
X234761904Y-67142857D02*
X234666666Y-67047619D01*
X234571428Y-66857142D01*
X234571428Y-66571428D01*
X234666666Y-66380952D01*
X234857142Y-66285714D01*
X235904761Y-66285714D01*
X234571428Y-65619047D02*
X234571428Y-64857142D01*
X233904761Y-65333333D02*
X235619047Y-65333333D01*
X235809523Y-65238095D01*
X235904761Y-65047619D01*
X235904761Y-64857142D01*
X235809523Y-63428571D02*
X235904761Y-63619047D01*
X235904761Y-64000000D01*
X235809523Y-64190476D01*
X235619047Y-64285714D01*
X234857142Y-64285714D01*
X234666666Y-64190476D01*
X234571428Y-64000000D01*
X234571428Y-63619047D01*
X234666666Y-63428571D01*
X234857142Y-63333333D01*
X235047619Y-63333333D01*
X235238095Y-64285714D01*
X235904761Y-62476190D02*
X234571428Y-62476190D01*
X234952380Y-62476190D02*
X234761904Y-62380952D01*
X234666666Y-62285714D01*
X234571428Y-62095238D01*
X234571428Y-61904761D01*
X235904761Y-59428571D02*
X235809523Y-59619047D01*
X235714285Y-59714285D01*
X235523809Y-59809523D01*
X234952380Y-59809523D01*
X234761904Y-59714285D01*
X234666666Y-59619047D01*
X234571428Y-59428571D01*
X234571428Y-59142857D01*
X234666666Y-58952380D01*
X234761904Y-58857142D01*
X234952380Y-58761904D01*
X235523809Y-58761904D01*
X235714285Y-58857142D01*
X235809523Y-58952380D01*
X235904761Y-59142857D01*
X235904761Y-59428571D01*
X234571428Y-57047619D02*
X235904761Y-57047619D01*
X234571428Y-57904761D02*
X235619047Y-57904761D01*
X235809523Y-57809523D01*
X235904761Y-57619047D01*
X235904761Y-57333333D01*
X235809523Y-57142857D01*
X235714285Y-57047619D01*
X234571428Y-56380952D02*
X234571428Y-55619047D01*
X233904761Y-56095238D02*
X235619047Y-56095238D01*
X235809523Y-56000000D01*
X235904761Y-55809523D01*
X235904761Y-55619047D01*
X234571428Y-54952380D02*
X236571428Y-54952380D01*
X234666666Y-54952380D02*
X234571428Y-54761904D01*
X234571428Y-54380952D01*
X234666666Y-54190476D01*
X234761904Y-54095238D01*
X234952380Y-54000000D01*
X235523809Y-54000000D01*
X235714285Y-54095238D01*
X235809523Y-54190476D01*
X235904761Y-54380952D01*
X235904761Y-54761904D01*
X235809523Y-54952380D01*
X234571428Y-52285714D02*
X235904761Y-52285714D01*
X234571428Y-53142857D02*
X235619047Y-53142857D01*
X235809523Y-53047619D01*
X235904761Y-52857142D01*
X235904761Y-52571428D01*
X235809523Y-52380952D01*
X235714285Y-52285714D01*
X234571428Y-51619047D02*
X234571428Y-50857142D01*
X233904761Y-51333333D02*
X235619047Y-51333333D01*
X235809523Y-51238095D01*
X235904761Y-51047619D01*
X235904761Y-50857142D01*
X217619047Y-127904761D02*
X216666666Y-127904761D01*
X216571428Y-128857142D01*
X216666666Y-128761904D01*
X216857142Y-128666666D01*
X217333333Y-128666666D01*
X217523809Y-128761904D01*
X217619047Y-128857142D01*
X217714285Y-129047619D01*
X217714285Y-129523809D01*
X217619047Y-129714285D01*
X217523809Y-129809523D01*
X217333333Y-129904761D01*
X216857142Y-129904761D01*
X216666666Y-129809523D01*
X216571428Y-129714285D01*
X218285714Y-127904761D02*
X218952380Y-129904761D01*
X219619047Y-127904761D01*
X220285714Y-129904761D02*
X220285714Y-127904761D01*
X220761904Y-127904761D01*
X221047619Y-128000000D01*
X221238095Y-128190476D01*
X221333333Y-128380952D01*
X221428571Y-128761904D01*
X221428571Y-129047619D01*
X221333333Y-129428571D01*
X221238095Y-129619047D01*
X221047619Y-129809523D01*
X220761904Y-129904761D01*
X220285714Y-129904761D01*
X223428571Y-129714285D02*
X223333333Y-129809523D01*
X223047619Y-129904761D01*
X222857142Y-129904761D01*
X222571428Y-129809523D01*
X222380952Y-129619047D01*
X222285714Y-129428571D01*
X222190476Y-129047619D01*
X222190476Y-128761904D01*
X222285714Y-128380952D01*
X222380952Y-128190476D01*
X222571428Y-128000000D01*
X222857142Y-127904761D01*
X223047619Y-127904761D01*
X223333333Y-128000000D01*
X223428571Y-128095238D01*
X218476190Y-122000000D02*
X218285714Y-121904761D01*
X218000000Y-121904761D01*
X217714285Y-122000000D01*
X217523809Y-122190476D01*
X217428571Y-122380952D01*
X217333333Y-122761904D01*
X217333333Y-123047619D01*
X217428571Y-123428571D01*
X217523809Y-123619047D01*
X217714285Y-123809523D01*
X218000000Y-123904761D01*
X218190476Y-123904761D01*
X218476190Y-123809523D01*
X218571428Y-123714285D01*
X218571428Y-123047619D01*
X218190476Y-123047619D01*
X219428571Y-123904761D02*
X219428571Y-121904761D01*
X220571428Y-123904761D01*
X220571428Y-121904761D01*
X221523809Y-123904761D02*
X221523809Y-121904761D01*
X222000000Y-121904761D01*
X222285714Y-122000000D01*
X222476190Y-122190476D01*
X222571428Y-122380952D01*
X222666666Y-122761904D01*
X222666666Y-123047619D01*
X222571428Y-123428571D01*
X222476190Y-123619047D01*
X222285714Y-123809523D01*
X222000000Y-123904761D01*
X221523809Y-123904761D01*
X230404761Y-112357142D02*
X230357142Y-112404761D01*
X230214285Y-112452380D01*
X230119047Y-112452380D01*
X229976190Y-112404761D01*
X229880952Y-112309523D01*
X229833333Y-112214285D01*
X229785714Y-112023809D01*
X229785714Y-111880952D01*
X229833333Y-111690476D01*
X229880952Y-111595238D01*
X229976190Y-111500000D01*
X230119047Y-111452380D01*
X230214285Y-111452380D01*
X230357142Y-111500000D01*
X230404761Y-111547619D01*
X231309523Y-112452380D02*
X230833333Y-112452380D01*
X230833333Y-111452380D01*
X231642857Y-112452380D02*
X231642857Y-111452380D01*
X232214285Y-112452380D02*
X231785714Y-111880952D01*
X232214285Y-111452380D02*
X231642857Y-112023809D01*
X221595238Y-143928571D02*
X221261904Y-143928571D01*
X221261904Y-144452380D02*
X221261904Y-143452380D01*
X221738095Y-143452380D01*
X222119047Y-144452380D02*
X222119047Y-143785714D01*
X222119047Y-143452380D02*
X222071428Y-143500000D01*
X222119047Y-143547619D01*
X222166666Y-143500000D01*
X222119047Y-143452380D01*
X222119047Y-143547619D01*
X222738095Y-144452380D02*
X222642857Y-144404761D01*
X222595238Y-144309523D01*
X222595238Y-143452380D01*
X222976190Y-143785714D02*
X223357142Y-143785714D01*
X223119047Y-143452380D02*
X223119047Y-144309523D01*
X223166666Y-144404761D01*
X223261904Y-144452380D01*
X223357142Y-144452380D01*
X224071428Y-144404761D02*
X223976190Y-144452380D01*
X223785714Y-144452380D01*
X223690476Y-144404761D01*
X223642857Y-144309523D01*
X223642857Y-143928571D01*
X223690476Y-143833333D01*
X223785714Y-143785714D01*
X223976190Y-143785714D01*
X224071428Y-143833333D01*
X224119047Y-143928571D01*
X224119047Y-144023809D01*
X223642857Y-144119047D01*
X224547619Y-144452380D02*
X224547619Y-143785714D01*
X224547619Y-143976190D02*
X224595238Y-143880952D01*
X224642857Y-143833333D01*
X224738095Y-143785714D01*
X224833333Y-143785714D01*
X225166666Y-144452380D02*
X225166666Y-143785714D01*
X225166666Y-143452380D02*
X225119047Y-143500000D01*
X225166666Y-143547619D01*
X225214285Y-143500000D01*
X225166666Y-143452380D01*
X225166666Y-143547619D01*
X225642857Y-143785714D02*
X225642857Y-144452380D01*
X225642857Y-143880952D02*
X225690476Y-143833333D01*
X225785714Y-143785714D01*
X225928571Y-143785714D01*
X226023809Y-143833333D01*
X226071428Y-143928571D01*
X226071428Y-144452380D01*
X226976190Y-143785714D02*
X226976190Y-144595238D01*
X226928571Y-144690476D01*
X226880952Y-144738095D01*
X226785714Y-144785714D01*
X226642857Y-144785714D01*
X226547619Y-144738095D01*
X226976190Y-144404761D02*
X226880952Y-144452380D01*
X226690476Y-144452380D01*
X226595238Y-144404761D01*
X226547619Y-144357142D01*
X226500000Y-144261904D01*
X226500000Y-143976190D01*
X226547619Y-143880952D01*
X226595238Y-143833333D01*
X226690476Y-143785714D01*
X226880952Y-143785714D01*
X226976190Y-143833333D01*
X228642857Y-144404761D02*
X228547619Y-144452380D01*
X228357142Y-144452380D01*
X228261904Y-144404761D01*
X228214285Y-144357142D01*
X228166666Y-144261904D01*
X228166666Y-143976190D01*
X228214285Y-143880952D01*
X228261904Y-143833333D01*
X228357142Y-143785714D01*
X228547619Y-143785714D01*
X228642857Y-143833333D01*
X229500000Y-144452380D02*
X229500000Y-143928571D01*
X229452380Y-143833333D01*
X229357142Y-143785714D01*
X229166666Y-143785714D01*
X229071428Y-143833333D01*
X229500000Y-144404761D02*
X229404761Y-144452380D01*
X229166666Y-144452380D01*
X229071428Y-144404761D01*
X229023809Y-144309523D01*
X229023809Y-144214285D01*
X229071428Y-144119047D01*
X229166666Y-144071428D01*
X229404761Y-144071428D01*
X229500000Y-144023809D01*
X229976190Y-143785714D02*
X229976190Y-144785714D01*
X229976190Y-143833333D02*
X230071428Y-143785714D01*
X230261904Y-143785714D01*
X230357142Y-143833333D01*
X230404761Y-143880952D01*
X230452380Y-143976190D01*
X230452380Y-144261904D01*
X230404761Y-144357142D01*
X230357142Y-144404761D01*
X230261904Y-144452380D01*
X230071428Y-144452380D01*
X229976190Y-144404761D01*
X231309523Y-144452380D02*
X231309523Y-143928571D01*
X231261904Y-143833333D01*
X231166666Y-143785714D01*
X230976190Y-143785714D01*
X230880952Y-143833333D01*
X231309523Y-144404761D02*
X231214285Y-144452380D01*
X230976190Y-144452380D01*
X230880952Y-144404761D01*
X230833333Y-144309523D01*
X230833333Y-144214285D01*
X230880952Y-144119047D01*
X230976190Y-144071428D01*
X231214285Y-144071428D01*
X231309523Y-144023809D01*
X232214285Y-144404761D02*
X232119047Y-144452380D01*
X231928571Y-144452380D01*
X231833333Y-144404761D01*
X231785714Y-144357142D01*
X231738095Y-144261904D01*
X231738095Y-143976190D01*
X231785714Y-143880952D01*
X231833333Y-143833333D01*
X231928571Y-143785714D01*
X232119047Y-143785714D01*
X232214285Y-143833333D01*
X232642857Y-144452380D02*
X232642857Y-143785714D01*
X232642857Y-143452380D02*
X232595238Y-143500000D01*
X232642857Y-143547619D01*
X232690476Y-143500000D01*
X232642857Y-143452380D01*
X232642857Y-143547619D01*
X232976190Y-143785714D02*
X233357142Y-143785714D01*
X233119047Y-143452380D02*
X233119047Y-144309523D01*
X233166666Y-144404761D01*
X233261904Y-144452380D01*
X233357142Y-144452380D01*
X233833333Y-144452380D02*
X233738095Y-144404761D01*
X233690476Y-144357142D01*
X233642857Y-144261904D01*
X233642857Y-143976190D01*
X233690476Y-143880952D01*
X233738095Y-143833333D01*
X233833333Y-143785714D01*
X233976190Y-143785714D01*
X234071428Y-143833333D01*
X234119047Y-143880952D01*
X234166666Y-143976190D01*
X234166666Y-144261904D01*
X234119047Y-144357142D01*
X234071428Y-144404761D01*
X233976190Y-144452380D01*
X233833333Y-144452380D01*
X234595238Y-144452380D02*
X234595238Y-143785714D01*
X234595238Y-143976190D02*
X234642857Y-143880952D01*
X234690476Y-143833333D01*
X234785714Y-143785714D01*
X234880952Y-143785714D01*
X45904761Y-100085000D02*
X46857142Y-100085000D01*
X46095238Y-101404761D02*
X46238095Y-101452380D01*
X46476190Y-101452380D01*
X46571428Y-101404761D01*
X46619047Y-101357142D01*
X46666666Y-101261904D01*
X46666666Y-101166666D01*
X46619047Y-101071428D01*
X46571428Y-101023809D01*
X46476190Y-100976190D01*
X46285714Y-100928571D01*
X46190476Y-100880952D01*
X46142857Y-100833333D01*
X46095238Y-100738095D01*
X46095238Y-100642857D01*
X46142857Y-100547619D01*
X46190476Y-100500000D01*
X46285714Y-100452380D01*
X46523809Y-100452380D01*
X46666666Y-100500000D01*
X46857142Y-100085000D02*
X47619047Y-100085000D01*
X46952380Y-100452380D02*
X47523809Y-100452380D01*
X47238095Y-101452380D02*
X47238095Y-100452380D01*
X47619047Y-100085000D02*
X48476190Y-100085000D01*
X47809523Y-101166666D02*
X48285714Y-101166666D01*
X47714285Y-101452380D02*
X48047619Y-100452380D01*
X48380952Y-101452380D01*
X48476190Y-100085000D02*
X49285714Y-100085000D01*
X49190476Y-101452380D02*
X48714285Y-101452380D01*
X48714285Y-100452380D01*
X49285714Y-100085000D02*
X50095238Y-100085000D01*
X50000000Y-101452380D02*
X49523809Y-101452380D01*
X49523809Y-100452380D01*
X45333333Y-98452380D02*
X45000000Y-97976190D01*
X44761904Y-98452380D02*
X44761904Y-97452380D01*
X45142857Y-97452380D01*
X45238095Y-97500000D01*
X45285714Y-97547619D01*
X45333333Y-97642857D01*
X45333333Y-97785714D01*
X45285714Y-97880952D01*
X45238095Y-97928571D01*
X45142857Y-97976190D01*
X44761904Y-97976190D01*
X45761904Y-97928571D02*
X46095238Y-97928571D01*
X46238095Y-98452380D02*
X45761904Y-98452380D01*
X45761904Y-97452380D01*
X46238095Y-97452380D01*
X47142857Y-98452380D02*
X46666666Y-98452380D01*
X46666666Y-97452380D01*
X47238095Y-98547619D02*
X48000000Y-98547619D01*
X48190476Y-98404761D02*
X48333333Y-98452380D01*
X48571428Y-98452380D01*
X48666666Y-98404761D01*
X48714285Y-98357142D01*
X48761904Y-98261904D01*
X48761904Y-98166666D01*
X48714285Y-98071428D01*
X48666666Y-98023809D01*
X48571428Y-97976190D01*
X48380952Y-97928571D01*
X48285714Y-97880952D01*
X48238095Y-97833333D01*
X48190476Y-97738095D01*
X48190476Y-97642857D01*
X48238095Y-97547619D01*
X48285714Y-97500000D01*
X48380952Y-97452380D01*
X48619047Y-97452380D01*
X48761904Y-97500000D01*
X49190476Y-98452380D02*
X49190476Y-97452380D01*
X50190476Y-97500000D02*
X50095238Y-97452380D01*
X49952380Y-97452380D01*
X49809523Y-97500000D01*
X49714285Y-97595238D01*
X49666666Y-97690476D01*
X49619047Y-97880952D01*
X49619047Y-98023809D01*
X49666666Y-98214285D01*
X49714285Y-98309523D01*
X49809523Y-98404761D01*
X49952380Y-98452380D01*
X50047619Y-98452380D01*
X50190476Y-98404761D01*
X50238095Y-98357142D01*
X50238095Y-98023809D01*
X50047619Y-98023809D01*
X50666666Y-98452380D02*
X50666666Y-97452380D01*
X51238095Y-98452380D01*
X51238095Y-97452380D01*
X45285714Y-102452380D02*
X45285714Y-103166666D01*
X45238095Y-103309523D01*
X45142857Y-103404761D01*
X45000000Y-103452380D01*
X44904761Y-103452380D01*
X45761904Y-103452380D02*
X45761904Y-102452380D01*
X46095238Y-103166666D01*
X46428571Y-102452380D01*
X46428571Y-103452380D01*
X46904761Y-103452380D02*
X46904761Y-102452380D01*
X47285714Y-102452380D01*
X47380952Y-102500000D01*
X47428571Y-102547619D01*
X47476190Y-102642857D01*
X47476190Y-102785714D01*
X47428571Y-102880952D01*
X47380952Y-102928571D01*
X47285714Y-102976190D01*
X46904761Y-102976190D01*
X47666666Y-103547619D02*
X48428571Y-103547619D01*
X48619047Y-103166666D02*
X49095238Y-103166666D01*
X48523809Y-103452380D02*
X48857142Y-102452380D01*
X49190476Y-103452380D01*
X49857142Y-102928571D02*
X50000000Y-102976190D01*
X50047619Y-103023809D01*
X50095238Y-103119047D01*
X50095238Y-103261904D01*
X50047619Y-103357142D01*
X50000000Y-103404761D01*
X49904761Y-103452380D01*
X49523809Y-103452380D01*
X49523809Y-102452380D01*
X49857142Y-102452380D01*
X49952380Y-102500000D01*
X50000000Y-102547619D01*
X50047619Y-102642857D01*
X50047619Y-102738095D01*
X50000000Y-102833333D01*
X49952380Y-102880952D01*
X49857142Y-102928571D01*
X49523809Y-102928571D01*
X50476190Y-103404761D02*
X50619047Y-103452380D01*
X50857142Y-103452380D01*
X50952380Y-103404761D01*
X51000000Y-103357142D01*
X51047619Y-103261904D01*
X51047619Y-103166666D01*
X51000000Y-103071428D01*
X50952380Y-103023809D01*
X50857142Y-102976190D01*
X50666666Y-102928571D01*
X50571428Y-102880952D01*
X50523809Y-102833333D01*
X50476190Y-102738095D01*
X50476190Y-102642857D01*
X50523809Y-102547619D01*
X50571428Y-102500000D01*
X50666666Y-102452380D01*
X50904761Y-102452380D01*
X51047619Y-102500000D01*
X45928571Y-94452380D02*
X45928571Y-95166666D01*
X45880952Y-95309523D01*
X45785714Y-95404761D01*
X45642857Y-95452380D01*
X45547619Y-95452380D01*
X46404761Y-95452380D02*
X46404761Y-94452380D01*
X46738095Y-95166666D01*
X47071428Y-94452380D01*
X47071428Y-95452380D01*
X47547619Y-95452380D02*
X47547619Y-94452380D01*
X47928571Y-94452380D01*
X48023809Y-94500000D01*
X48071428Y-94547619D01*
X48119047Y-94642857D01*
X48119047Y-94785714D01*
X48071428Y-94880952D01*
X48023809Y-94928571D01*
X47928571Y-94976190D01*
X47547619Y-94976190D01*
X48309523Y-95547619D02*
X49071428Y-95547619D01*
X49309523Y-95452380D02*
X49309523Y-94452380D01*
X49785714Y-95452380D02*
X49785714Y-94452380D01*
X50357142Y-95452380D01*
X50357142Y-94452380D01*
X62357142Y-103952380D02*
X62404761Y-104000000D01*
X62452380Y-104142857D01*
X62452380Y-104238095D01*
X62404761Y-104380952D01*
X62309523Y-104476190D01*
X62214285Y-104523809D01*
X62023809Y-104571428D01*
X61880952Y-104571428D01*
X61690476Y-104523809D01*
X61595238Y-104476190D01*
X61500000Y-104380952D01*
X61452380Y-104238095D01*
X61452380Y-104142857D01*
X61500000Y-104000000D01*
X61547619Y-103952380D01*
X62452380Y-103380952D02*
X62404761Y-103476190D01*
X62357142Y-103523809D01*
X62261904Y-103571428D01*
X61976190Y-103571428D01*
X61880952Y-103523809D01*
X61833333Y-103476190D01*
X61785714Y-103380952D01*
X61785714Y-103238095D01*
X61833333Y-103142857D01*
X61880952Y-103095238D01*
X61976190Y-103047619D01*
X62261904Y-103047619D01*
X62357142Y-103095238D01*
X62404761Y-103142857D01*
X62452380Y-103238095D01*
X62452380Y-103380952D01*
X61785714Y-102619047D02*
X62452380Y-102619047D01*
X61880952Y-102619047D02*
X61833333Y-102571428D01*
X61785714Y-102476190D01*
X61785714Y-102333333D01*
X61833333Y-102238095D01*
X61928571Y-102190476D01*
X62452380Y-102190476D01*
X61785714Y-101857142D02*
X61785714Y-101476190D01*
X61452380Y-101714285D02*
X62309523Y-101714285D01*
X62404761Y-101666666D01*
X62452380Y-101571428D01*
X62452380Y-101476190D01*
X62452380Y-101142857D02*
X61785714Y-101142857D01*
X61976190Y-101142857D02*
X61880952Y-101095238D01*
X61833333Y-101047619D01*
X61785714Y-100952380D01*
X61785714Y-100857142D01*
X62452380Y-100380952D02*
X62404761Y-100476190D01*
X62357142Y-100523809D01*
X62261904Y-100571428D01*
X61976190Y-100571428D01*
X61880952Y-100523809D01*
X61833333Y-100476190D01*
X61785714Y-100380952D01*
X61785714Y-100238095D01*
X61833333Y-100142857D01*
X61880952Y-100095238D01*
X61976190Y-100047619D01*
X62261904Y-100047619D01*
X62357142Y-100095238D01*
X62404761Y-100142857D01*
X62452380Y-100238095D01*
X62452380Y-100380952D01*
X62452380Y-99476190D02*
X62404761Y-99571428D01*
X62309523Y-99619047D01*
X61452380Y-99619047D01*
X62404761Y-98380952D02*
X62452380Y-98285714D01*
X62452380Y-98095238D01*
X62404761Y-98000000D01*
X62309523Y-97952380D01*
X62261904Y-97952380D01*
X62166666Y-98000000D01*
X62119047Y-98095238D01*
X62119047Y-98238095D01*
X62071428Y-98333333D01*
X61976190Y-98380952D01*
X61928571Y-98380952D01*
X61833333Y-98333333D01*
X61785714Y-98238095D01*
X61785714Y-98095238D01*
X61833333Y-98000000D01*
X62452380Y-97523809D02*
X61785714Y-97523809D01*
X61452380Y-97523809D02*
X61500000Y-97571428D01*
X61547619Y-97523809D01*
X61500000Y-97476190D01*
X61452380Y-97523809D01*
X61547619Y-97523809D01*
X61785714Y-96619047D02*
X62595238Y-96619047D01*
X62690476Y-96666666D01*
X62738095Y-96714285D01*
X62785714Y-96809523D01*
X62785714Y-96952380D01*
X62738095Y-97047619D01*
X62404761Y-96619047D02*
X62452380Y-96714285D01*
X62452380Y-96904761D01*
X62404761Y-97000000D01*
X62357142Y-97047619D01*
X62261904Y-97095238D01*
X61976190Y-97095238D01*
X61880952Y-97047619D01*
X61833333Y-97000000D01*
X61785714Y-96904761D01*
X61785714Y-96714285D01*
X61833333Y-96619047D01*
X61785714Y-96142857D02*
X62452380Y-96142857D01*
X61880952Y-96142857D02*
X61833333Y-96095238D01*
X61785714Y-96000000D01*
X61785714Y-95857142D01*
X61833333Y-95761904D01*
X61928571Y-95714285D01*
X62452380Y-95714285D01*
X62452380Y-94809523D02*
X61928571Y-94809523D01*
X61833333Y-94857142D01*
X61785714Y-94952380D01*
X61785714Y-95142857D01*
X61833333Y-95238095D01*
X62404761Y-94809523D02*
X62452380Y-94904761D01*
X62452380Y-95142857D01*
X62404761Y-95238095D01*
X62309523Y-95285714D01*
X62214285Y-95285714D01*
X62119047Y-95238095D01*
X62071428Y-95142857D01*
X62071428Y-94904761D01*
X62023809Y-94809523D01*
X62452380Y-94190476D02*
X62404761Y-94285714D01*
X62309523Y-94333333D01*
X61452380Y-94333333D01*
X62404761Y-93857142D02*
X62452380Y-93761904D01*
X62452380Y-93571428D01*
X62404761Y-93476190D01*
X62309523Y-93428571D01*
X62261904Y-93428571D01*
X62166666Y-93476190D01*
X62119047Y-93571428D01*
X62119047Y-93714285D01*
X62071428Y-93809523D01*
X61976190Y-93857142D01*
X61928571Y-93857142D01*
X61833333Y-93809523D01*
X61785714Y-93714285D01*
X61785714Y-93571428D01*
X61833333Y-93476190D01*
X48904761Y-85095238D02*
X47952380Y-85761904D01*
X48904761Y-86238095D02*
X46904761Y-86238095D01*
X46904761Y-85476190D01*
X47000000Y-85285714D01*
X47095238Y-85190476D01*
X47285714Y-85095238D01*
X47571428Y-85095238D01*
X47761904Y-85190476D01*
X47857142Y-85285714D01*
X47952380Y-85476190D01*
X47952380Y-86238095D01*
X48809523Y-83476190D02*
X48904761Y-83666666D01*
X48904761Y-84047619D01*
X48809523Y-84238095D01*
X48619047Y-84333333D01*
X47857142Y-84333333D01*
X47666666Y-84238095D01*
X47571428Y-84047619D01*
X47571428Y-83666666D01*
X47666666Y-83476190D01*
X47857142Y-83380952D01*
X48047619Y-83380952D01*
X48238095Y-84333333D01*
X48904761Y-82238095D02*
X48809523Y-82428571D01*
X48619047Y-82523809D01*
X46904761Y-82523809D01*
X48904761Y-80619047D02*
X47857142Y-80619047D01*
X47666666Y-80714285D01*
X47571428Y-80904761D01*
X47571428Y-81285714D01*
X47666666Y-81476190D01*
X48809523Y-80619047D02*
X48904761Y-80809523D01*
X48904761Y-81285714D01*
X48809523Y-81476190D01*
X48619047Y-81571428D01*
X48428571Y-81571428D01*
X48238095Y-81476190D01*
X48142857Y-81285714D01*
X48142857Y-80809523D01*
X48047619Y-80619047D01*
X47571428Y-79952380D02*
X47571428Y-79190476D01*
X46904761Y-79666666D02*
X48619047Y-79666666D01*
X48809523Y-79571428D01*
X48904761Y-79380952D01*
X48904761Y-79190476D01*
X48904761Y-78523809D02*
X47571428Y-78523809D01*
X46904761Y-78523809D02*
X47000000Y-78619047D01*
X47095238Y-78523809D01*
X47000000Y-78428571D01*
X46904761Y-78523809D01*
X47095238Y-78523809D01*
X47571428Y-77761904D02*
X48904761Y-77285714D01*
X47571428Y-76809523D01*
X48809523Y-75285714D02*
X48904761Y-75476190D01*
X48904761Y-75857142D01*
X48809523Y-76047619D01*
X48619047Y-76142857D01*
X47857142Y-76142857D01*
X47666666Y-76047619D01*
X47571428Y-75857142D01*
X47571428Y-75476190D01*
X47666666Y-75285714D01*
X47857142Y-75190476D01*
X48047619Y-75190476D01*
X48238095Y-76142857D01*
X46809523Y-71380952D02*
X49380952Y-73095238D01*
X48904761Y-68333333D02*
X47857142Y-68333333D01*
X47666666Y-68428571D01*
X47571428Y-68619047D01*
X47571428Y-69000000D01*
X47666666Y-69190476D01*
X48809523Y-68333333D02*
X48904761Y-68523809D01*
X48904761Y-69000000D01*
X48809523Y-69190476D01*
X48619047Y-69285714D01*
X48428571Y-69285714D01*
X48238095Y-69190476D01*
X48142857Y-69000000D01*
X48142857Y-68523809D01*
X48047619Y-68333333D01*
X48904761Y-67380952D02*
X46904761Y-67380952D01*
X47666666Y-67380952D02*
X47571428Y-67190476D01*
X47571428Y-66809523D01*
X47666666Y-66619047D01*
X47761904Y-66523809D01*
X47952380Y-66428571D01*
X48523809Y-66428571D01*
X48714285Y-66523809D01*
X48809523Y-66619047D01*
X48904761Y-66809523D01*
X48904761Y-67190476D01*
X48809523Y-67380952D01*
X48809523Y-65666666D02*
X48904761Y-65476190D01*
X48904761Y-65095238D01*
X48809523Y-64904761D01*
X48619047Y-64809523D01*
X48523809Y-64809523D01*
X48333333Y-64904761D01*
X48238095Y-65095238D01*
X48238095Y-65380952D01*
X48142857Y-65571428D01*
X47952380Y-65666666D01*
X47857142Y-65666666D01*
X47666666Y-65571428D01*
X47571428Y-65380952D01*
X47571428Y-65095238D01*
X47666666Y-64904761D01*
X48904761Y-63666666D02*
X48809523Y-63857142D01*
X48714285Y-63952380D01*
X48523809Y-64047619D01*
X47952380Y-64047619D01*
X47761904Y-63952380D01*
X47666666Y-63857142D01*
X47571428Y-63666666D01*
X47571428Y-63380952D01*
X47666666Y-63190476D01*
X47761904Y-63095238D01*
X47952380Y-63000000D01*
X48523809Y-63000000D01*
X48714285Y-63095238D01*
X48809523Y-63190476D01*
X48904761Y-63380952D01*
X48904761Y-63666666D01*
X48904761Y-61857142D02*
X48809523Y-62047619D01*
X48619047Y-62142857D01*
X46904761Y-62142857D01*
X47571428Y-60238095D02*
X48904761Y-60238095D01*
X47571428Y-61095238D02*
X48619047Y-61095238D01*
X48809523Y-61000000D01*
X48904761Y-60809523D01*
X48904761Y-60523809D01*
X48809523Y-60333333D01*
X48714285Y-60238095D01*
X47571428Y-59571428D02*
X47571428Y-58809523D01*
X46904761Y-59285714D02*
X48619047Y-59285714D01*
X48809523Y-59190476D01*
X48904761Y-59000000D01*
X48904761Y-58809523D01*
X48809523Y-57380952D02*
X48904761Y-57571428D01*
X48904761Y-57952380D01*
X48809523Y-58142857D01*
X48619047Y-58238095D01*
X47857142Y-58238095D01*
X47666666Y-58142857D01*
X47571428Y-57952380D01*
X47571428Y-57571428D01*
X47666666Y-57380952D01*
X47857142Y-57285714D01*
X48047619Y-57285714D01*
X48238095Y-58238095D01*
X48904761Y-54904761D02*
X46904761Y-54904761D01*
X46904761Y-54142857D01*
X47000000Y-53952380D01*
X47095238Y-53857142D01*
X47285714Y-53761904D01*
X47571428Y-53761904D01*
X47761904Y-53857142D01*
X47857142Y-53952380D01*
X47952380Y-54142857D01*
X47952380Y-54904761D01*
X48714285Y-51761904D02*
X48809523Y-51857142D01*
X48904761Y-52142857D01*
X48904761Y-52333333D01*
X48809523Y-52619047D01*
X48619047Y-52809523D01*
X48428571Y-52904761D01*
X48047619Y-53000000D01*
X47761904Y-53000000D01*
X47380952Y-52904761D01*
X47190476Y-52809523D01*
X47000000Y-52619047D01*
X46904761Y-52333333D01*
X46904761Y-52142857D01*
X47000000Y-51857142D01*
X47095238Y-51761904D01*
X48904761Y-49095238D02*
X48809523Y-49285714D01*
X48714285Y-49380952D01*
X48523809Y-49476190D01*
X47952380Y-49476190D01*
X47761904Y-49380952D01*
X47666666Y-49285714D01*
X47571428Y-49095238D01*
X47571428Y-48809523D01*
X47666666Y-48619047D01*
X47761904Y-48523809D01*
X47952380Y-48428571D01*
X48523809Y-48428571D01*
X48714285Y-48523809D01*
X48809523Y-48619047D01*
X48904761Y-48809523D01*
X48904761Y-49095238D01*
X47571428Y-47857142D02*
X47571428Y-47095238D01*
X48904761Y-47571428D02*
X47190476Y-47571428D01*
X47000000Y-47476190D01*
X46904761Y-47285714D01*
X46904761Y-47095238D01*
X47571428Y-46714285D02*
X47571428Y-45952380D01*
X48904761Y-46428571D02*
X47190476Y-46428571D01*
X47000000Y-46333333D01*
X46904761Y-46142857D01*
X46904761Y-45952380D01*
X48809523Y-45380952D02*
X48904761Y-45190476D01*
X48904761Y-44809523D01*
X48809523Y-44619047D01*
X48619047Y-44523809D01*
X48523809Y-44523809D01*
X48333333Y-44619047D01*
X48238095Y-44809523D01*
X48238095Y-45095238D01*
X48142857Y-45285714D01*
X47952380Y-45380952D01*
X47857142Y-45380952D01*
X47666666Y-45285714D01*
X47571428Y-45095238D01*
X47571428Y-44809523D01*
X47666666Y-44619047D01*
X48809523Y-42904761D02*
X48904761Y-43095238D01*
X48904761Y-43476190D01*
X48809523Y-43666666D01*
X48619047Y-43761904D01*
X47857142Y-43761904D01*
X47666666Y-43666666D01*
X47571428Y-43476190D01*
X47571428Y-43095238D01*
X47666666Y-42904761D01*
X47857142Y-42809523D01*
X48047619Y-42809523D01*
X48238095Y-43761904D01*
X47571428Y-42238095D02*
X47571428Y-41476190D01*
X46904761Y-41952380D02*
X48619047Y-41952380D01*
X48809523Y-41857142D01*
X48904761Y-41666666D01*
X48904761Y-41476190D01*
D11*
X84357142Y-48928571D02*
X82928571Y-49928571D01*
X84357142Y-50642857D02*
X81357142Y-50642857D01*
X81357142Y-49500000D01*
X81500000Y-49214285D01*
X81642857Y-49071428D01*
X81928571Y-48928571D01*
X82357142Y-48928571D01*
X82642857Y-49071428D01*
X82785714Y-49214285D01*
X82928571Y-49500000D01*
X82928571Y-50642857D01*
X84214285Y-46500000D02*
X84357142Y-46785714D01*
X84357142Y-47357142D01*
X84214285Y-47642857D01*
X83928571Y-47785714D01*
X82785714Y-47785714D01*
X82500000Y-47642857D01*
X82357142Y-47357142D01*
X82357142Y-46785714D01*
X82500000Y-46500000D01*
X82785714Y-46357142D01*
X83071428Y-46357142D01*
X83357142Y-47785714D01*
X82357142Y-45357142D02*
X84357142Y-44642857D01*
X82357142Y-43928571D01*
X84071428Y-42785714D02*
X84214285Y-42642857D01*
X84357142Y-42785714D01*
X84214285Y-42928571D01*
X84071428Y-42785714D01*
X84357142Y-42785714D01*
X84357142Y-37500000D02*
X84357142Y-39214285D01*
X84357142Y-38357142D02*
X81357142Y-38357142D01*
X81785714Y-38642857D01*
X82071428Y-38928571D01*
X82214285Y-39214285D01*
X84071428Y-36214285D02*
X84214285Y-36071428D01*
X84357142Y-36214285D01*
X84214285Y-36357142D01*
X84071428Y-36214285D01*
X84357142Y-36214285D01*
X81357142Y-34214285D02*
X81357142Y-33928571D01*
X81500000Y-33642857D01*
X81642857Y-33500000D01*
X81928571Y-33357142D01*
X82500000Y-33214285D01*
X83214285Y-33214285D01*
X83785714Y-33357142D01*
X84071428Y-33500000D01*
X84214285Y-33642857D01*
X84357142Y-33928571D01*
X84357142Y-34214285D01*
X84214285Y-34500000D01*
X84071428Y-34642857D01*
X83785714Y-34785714D01*
X83214285Y-34928571D01*
X82500000Y-34928571D01*
X81928571Y-34785714D01*
X81642857Y-34642857D01*
X81500000Y-34500000D01*
X81357142Y-34214285D01*
D12*
X71261904Y-131285714D02*
X71261904Y-128428571D01*
X76261904Y-129857142D02*
X71261904Y-129857142D01*
X76261904Y-126761904D02*
X72928571Y-126761904D01*
X71261904Y-126761904D02*
X71500000Y-127000000D01*
X71738095Y-126761904D01*
X71500000Y-126523809D01*
X71261904Y-126761904D01*
X71738095Y-126761904D01*
X72928571Y-124380952D02*
X76261904Y-124380952D01*
X73404761Y-124380952D02*
X73166666Y-124142857D01*
X72928571Y-123666666D01*
X72928571Y-122952380D01*
X73166666Y-122476190D01*
X73642857Y-122238095D01*
X76261904Y-122238095D01*
X72928571Y-120333333D02*
X76261904Y-119142857D01*
X72928571Y-117952380D02*
X76261904Y-119142857D01*
X77452380Y-119619047D01*
X77690476Y-119857142D01*
X77928571Y-120333333D01*
X76261904Y-113190476D02*
X73880952Y-114857142D01*
X76261904Y-116047619D02*
X71261904Y-116047619D01*
X71261904Y-114142857D01*
X71500000Y-113666666D01*
X71738095Y-113428571D01*
X72214285Y-113190476D01*
X72928571Y-113190476D01*
X73404761Y-113428571D01*
X73642857Y-113666666D01*
X73880952Y-114142857D01*
X73880952Y-116047619D01*
X76261904Y-111047619D02*
X71261904Y-111047619D01*
X76023809Y-108904761D02*
X76261904Y-108190476D01*
X76261904Y-107000000D01*
X76023809Y-106523809D01*
X75785714Y-106285714D01*
X75309523Y-106047619D01*
X74833333Y-106047619D01*
X74357142Y-106285714D01*
X74119047Y-106523809D01*
X73880952Y-107000000D01*
X73642857Y-107952380D01*
X73404761Y-108428571D01*
X73166666Y-108666666D01*
X72690476Y-108904761D01*
X72214285Y-108904761D01*
X71738095Y-108666666D01*
X71500000Y-108428571D01*
X71261904Y-107952380D01*
X71261904Y-106761904D01*
X71500000Y-106047619D01*
X75785714Y-101047619D02*
X76023809Y-101285714D01*
X76261904Y-102000000D01*
X76261904Y-102476190D01*
X76023809Y-103190476D01*
X75547619Y-103666666D01*
X75071428Y-103904761D01*
X74119047Y-104142857D01*
X73404761Y-104142857D01*
X72452380Y-103904761D01*
X71976190Y-103666666D01*
X71500000Y-103190476D01*
X71261904Y-102476190D01*
X71261904Y-102000000D01*
X71500000Y-101285714D01*
X71738095Y-101047619D01*
X76261904Y-95095238D02*
X71261904Y-95095238D01*
X71261904Y-93190476D01*
X71500000Y-92714285D01*
X71738095Y-92476190D01*
X72214285Y-92238095D01*
X72928571Y-92238095D01*
X73404761Y-92476190D01*
X73642857Y-92714285D01*
X73880952Y-93190476D01*
X73880952Y-95095238D01*
X76261904Y-90095238D02*
X72928571Y-90095238D01*
X73880952Y-90095238D02*
X73404761Y-89857142D01*
X73166666Y-89619047D01*
X72928571Y-89142857D01*
X72928571Y-88666666D01*
X76261904Y-86285714D02*
X76023809Y-86761904D01*
X75785714Y-87000000D01*
X75309523Y-87238095D01*
X73880952Y-87238095D01*
X73404761Y-87000000D01*
X73166666Y-86761904D01*
X72928571Y-86285714D01*
X72928571Y-85571428D01*
X73166666Y-85095238D01*
X73404761Y-84857142D01*
X73880952Y-84619047D01*
X75309523Y-84619047D01*
X75785714Y-84857142D01*
X76023809Y-85095238D01*
X76261904Y-85571428D01*
X76261904Y-86285714D01*
X72928571Y-80333333D02*
X76976190Y-80333333D01*
X77452380Y-80571428D01*
X77690476Y-80809523D01*
X77928571Y-81285714D01*
X77928571Y-82000000D01*
X77690476Y-82476190D01*
X76023809Y-80333333D02*
X76261904Y-80809523D01*
X76261904Y-81761904D01*
X76023809Y-82238095D01*
X75785714Y-82476190D01*
X75309523Y-82714285D01*
X73880952Y-82714285D01*
X73404761Y-82476190D01*
X73166666Y-82238095D01*
X72928571Y-81761904D01*
X72928571Y-80809523D01*
X73166666Y-80333333D01*
X76261904Y-77952380D02*
X72928571Y-77952380D01*
X73880952Y-77952380D02*
X73404761Y-77714285D01*
X73166666Y-77476190D01*
X72928571Y-77000000D01*
X72928571Y-76523809D01*
X76261904Y-72714285D02*
X73642857Y-72714285D01*
X73166666Y-72952380D01*
X72928571Y-73428571D01*
X72928571Y-74380952D01*
X73166666Y-74857142D01*
X76023809Y-72714285D02*
X76261904Y-73190476D01*
X76261904Y-74380952D01*
X76023809Y-74857142D01*
X75547619Y-75095238D01*
X75071428Y-75095238D01*
X74595238Y-74857142D01*
X74357142Y-74380952D01*
X74357142Y-73190476D01*
X74119047Y-72714285D01*
X76261904Y-70333333D02*
X72928571Y-70333333D01*
X73404761Y-70333333D02*
X73166666Y-70095238D01*
X72928571Y-69619047D01*
X72928571Y-68904761D01*
X73166666Y-68428571D01*
X73642857Y-68190476D01*
X76261904Y-68190476D01*
X73642857Y-68190476D02*
X73166666Y-67952380D01*
X72928571Y-67476190D01*
X72928571Y-66761904D01*
X73166666Y-66285714D01*
X73642857Y-66047619D01*
X76261904Y-66047619D01*
X75785714Y-57000000D02*
X76023809Y-57238095D01*
X76261904Y-57952380D01*
X76261904Y-58428571D01*
X76023809Y-59142857D01*
X75547619Y-59619047D01*
X75071428Y-59857142D01*
X74119047Y-60095238D01*
X73404761Y-60095238D01*
X72452380Y-59857142D01*
X71976190Y-59619047D01*
X71500000Y-59142857D01*
X71261904Y-58428571D01*
X71261904Y-57952380D01*
X71500000Y-57238095D01*
X71738095Y-57000000D01*
X76261904Y-54142857D02*
X76023809Y-54619047D01*
X75785714Y-54857142D01*
X75309523Y-55095238D01*
X73880952Y-55095238D01*
X73404761Y-54857142D01*
X73166666Y-54619047D01*
X72928571Y-54142857D01*
X72928571Y-53428571D01*
X73166666Y-52952380D01*
X73404761Y-52714285D01*
X73880952Y-52476190D01*
X75309523Y-52476190D01*
X75785714Y-52714285D01*
X76023809Y-52952380D01*
X76261904Y-53428571D01*
X76261904Y-54142857D01*
X72928571Y-48190476D02*
X76261904Y-48190476D01*
X72928571Y-50333333D02*
X75547619Y-50333333D01*
X76023809Y-50095238D01*
X76261904Y-49619047D01*
X76261904Y-48904761D01*
X76023809Y-48428571D01*
X75785714Y-48190476D01*
X72928571Y-45809523D02*
X76261904Y-45809523D01*
X73404761Y-45809523D02*
X73166666Y-45571428D01*
X72928571Y-45095238D01*
X72928571Y-44380952D01*
X73166666Y-43904761D01*
X73642857Y-43666666D01*
X76261904Y-43666666D01*
X72928571Y-42000000D02*
X72928571Y-40095238D01*
X71261904Y-41285714D02*
X75547619Y-41285714D01*
X76023809Y-41047619D01*
X76261904Y-40571428D01*
X76261904Y-40095238D01*
X76023809Y-36523809D02*
X76261904Y-37000000D01*
X76261904Y-37952380D01*
X76023809Y-38428571D01*
X75547619Y-38666666D01*
X73642857Y-38666666D01*
X73166666Y-38428571D01*
X72928571Y-37952380D01*
X72928571Y-37000000D01*
X73166666Y-36523809D01*
X73642857Y-36285714D01*
X74119047Y-36285714D01*
X74595238Y-38666666D01*
X76261904Y-34142857D02*
X72928571Y-34142857D01*
X73880952Y-34142857D02*
X73404761Y-33904761D01*
X73166666Y-33666666D01*
X72928571Y-33190476D01*
X72928571Y-32714285D01*
D13*
X213621428Y-83214285D02*
X213764285Y-83357142D01*
X213907142Y-83785714D01*
X213907142Y-84071428D01*
X213764285Y-84500000D01*
X213478571Y-84785714D01*
X213192857Y-84928571D01*
X212621428Y-85071428D01*
X212192857Y-85071428D01*
X211621428Y-84928571D01*
X211335714Y-84785714D01*
X211050000Y-84500000D01*
X210907142Y-84071428D01*
X210907142Y-83785714D01*
X211050000Y-83357142D01*
X211192857Y-83214285D01*
X213907142Y-81928571D02*
X211907142Y-81928571D01*
X212478571Y-81928571D02*
X212192857Y-81785714D01*
X212050000Y-81642857D01*
X211907142Y-81357142D01*
X211907142Y-81071428D01*
X213764285Y-78928571D02*
X213907142Y-79214285D01*
X213907142Y-79785714D01*
X213764285Y-80071428D01*
X213478571Y-80214285D01*
X212335714Y-80214285D01*
X212050000Y-80071428D01*
X211907142Y-79785714D01*
X211907142Y-79214285D01*
X212050000Y-78928571D01*
X212335714Y-78785714D01*
X212621428Y-78785714D01*
X212907142Y-80214285D01*
X213907142Y-76214285D02*
X212335714Y-76214285D01*
X212050000Y-76357142D01*
X211907142Y-76642857D01*
X211907142Y-77214285D01*
X212050000Y-77500000D01*
X213764285Y-76214285D02*
X213907142Y-76500000D01*
X213907142Y-77214285D01*
X213764285Y-77500000D01*
X213478571Y-77642857D01*
X213192857Y-77642857D01*
X212907142Y-77500000D01*
X212764285Y-77214285D01*
X212764285Y-76500000D01*
X212621428Y-76214285D01*
X211907142Y-75214285D02*
X211907142Y-74071428D01*
X210907142Y-74785714D02*
X213478571Y-74785714D01*
X213764285Y-74642857D01*
X213907142Y-74357142D01*
X213907142Y-74071428D01*
X213907142Y-72642857D02*
X213764285Y-72928571D01*
X213621428Y-73071428D01*
X213335714Y-73214285D01*
X212478571Y-73214285D01*
X212192857Y-73071428D01*
X212050000Y-72928571D01*
X211907142Y-72642857D01*
X211907142Y-72214285D01*
X212050000Y-71928571D01*
X212192857Y-71785714D01*
X212478571Y-71642857D01*
X213335714Y-71642857D01*
X213621428Y-71785714D01*
X213764285Y-71928571D01*
X213907142Y-72214285D01*
X213907142Y-72642857D01*
X213907142Y-70357142D02*
X211907142Y-70357142D01*
X212478571Y-70357142D02*
X212192857Y-70214285D01*
X212050000Y-70071428D01*
X211907142Y-69785714D01*
X211907142Y-69500000D01*
X213621428Y-68500000D02*
X213764285Y-68357142D01*
X213907142Y-68500000D01*
X213764285Y-68642857D01*
X213621428Y-68500000D01*
X213907142Y-68500000D01*
X212050000Y-68500000D02*
X212192857Y-68357142D01*
X212335714Y-68500000D01*
X212192857Y-68642857D01*
X212050000Y-68500000D01*
X212335714Y-68500000D01*
X213907142Y-63357142D02*
X213907142Y-64785714D01*
X210907142Y-64785714D01*
X211907142Y-61071428D02*
X213907142Y-61071428D01*
X211907142Y-62357142D02*
X213478571Y-62357142D01*
X213764285Y-62214285D01*
X213907142Y-61928571D01*
X213907142Y-61500000D01*
X213764285Y-61214285D01*
X213621428Y-61071428D01*
X213764285Y-58357142D02*
X213907142Y-58642857D01*
X213907142Y-59214285D01*
X213764285Y-59500000D01*
X213621428Y-59642857D01*
X213335714Y-59785714D01*
X212478571Y-59785714D01*
X212192857Y-59642857D01*
X212050000Y-59500000D01*
X211907142Y-59214285D01*
X211907142Y-58642857D01*
X212050000Y-58357142D01*
X212335714Y-53785714D02*
X212478571Y-53357142D01*
X212621428Y-53214285D01*
X212907142Y-53071428D01*
X213335714Y-53071428D01*
X213621428Y-53214285D01*
X213764285Y-53357142D01*
X213907142Y-53642857D01*
X213907142Y-54785714D01*
X210907142Y-54785714D01*
X210907142Y-53785714D01*
X211050000Y-53500000D01*
X211192857Y-53357142D01*
X211478571Y-53214285D01*
X211764285Y-53214285D01*
X212050000Y-53357142D01*
X212192857Y-53500000D01*
X212335714Y-53785714D01*
X212335714Y-54785714D01*
X213907142Y-51357142D02*
X213764285Y-51642857D01*
X213621428Y-51785714D01*
X213335714Y-51928571D01*
X212478571Y-51928571D01*
X212192857Y-51785714D01*
X212050000Y-51642857D01*
X211907142Y-51357142D01*
X211907142Y-50928571D01*
X212050000Y-50642857D01*
X212192857Y-50500000D01*
X212478571Y-50357142D01*
X213335714Y-50357142D01*
X213621428Y-50500000D01*
X213764285Y-50642857D01*
X213907142Y-50928571D01*
X213907142Y-51357142D01*
X211907142Y-47785714D02*
X213907142Y-47785714D01*
X211907142Y-49071428D02*
X213478571Y-49071428D01*
X213764285Y-48928571D01*
X213907142Y-48642857D01*
X213907142Y-48214285D01*
X213764285Y-47928571D01*
X213621428Y-47785714D01*
X213907142Y-45928571D02*
X213764285Y-46214285D01*
X213478571Y-46357142D01*
X210907142Y-46357142D01*
X213764285Y-43642857D02*
X213907142Y-43928571D01*
X213907142Y-44500000D01*
X213764285Y-44785714D01*
X213478571Y-44928571D01*
X212335714Y-44928571D01*
X212050000Y-44785714D01*
X211907142Y-44500000D01*
X211907142Y-43928571D01*
X212050000Y-43642857D01*
X212335714Y-43500000D01*
X212621428Y-43500000D01*
X212907142Y-44928571D01*
X213764285Y-42357142D02*
X213907142Y-42071428D01*
X213907142Y-41500000D01*
X213764285Y-41214285D01*
X213478571Y-41071428D01*
X213335714Y-41071428D01*
X213050000Y-41214285D01*
X212907142Y-41500000D01*
X212907142Y-41928571D01*
X212764285Y-42214285D01*
X212478571Y-42357142D01*
X212335714Y-42357142D01*
X212050000Y-42214285D01*
X211907142Y-41928571D01*
X211907142Y-41500000D01*
X212050000Y-41214285D01*
X211907142Y-40214285D02*
X211907142Y-39071428D01*
X210907142Y-39785714D02*
X213478571Y-39785714D01*
X213764285Y-39642857D01*
X213907142Y-39357142D01*
X213907142Y-39071428D01*
X213764285Y-36928571D02*
X213907142Y-37214285D01*
X213907142Y-37785714D01*
X213764285Y-38071428D01*
X213478571Y-38214285D01*
X212335714Y-38214285D01*
X212050000Y-38071428D01*
X211907142Y-37785714D01*
X211907142Y-37214285D01*
X212050000Y-36928571D01*
X212335714Y-36785714D01*
X212621428Y-36785714D01*
X212907142Y-38214285D01*
X213907142Y-35499999D02*
X211907142Y-35499999D01*
X210907142Y-35499999D02*
X211050000Y-35642857D01*
X211192857Y-35499999D01*
X211050000Y-35357142D01*
X210907142Y-35499999D01*
X211192857Y-35499999D01*
X213907142Y-34357142D02*
X211907142Y-32785714D01*
X211907142Y-34357142D02*
X213907142Y-32785714D01*
X215807142Y-68285714D02*
X215807142Y-67714285D01*
X215950000Y-67428571D01*
X216235714Y-67142857D01*
X216807142Y-67000000D01*
X217807142Y-67000000D01*
X218378571Y-67142857D01*
X218664285Y-67428571D01*
X218807142Y-67714285D01*
X218807142Y-68285714D01*
X218664285Y-68571428D01*
X218378571Y-68857142D01*
X217807142Y-69000000D01*
X216807142Y-69000000D01*
X216235714Y-68857142D01*
X215950000Y-68571428D01*
X215807142Y-68285714D01*
X218664285Y-64428571D02*
X218807142Y-64714285D01*
X218807142Y-65285714D01*
X218664285Y-65571428D01*
X218521428Y-65714285D01*
X218235714Y-65857142D01*
X217378571Y-65857142D01*
X217092857Y-65714285D01*
X216950000Y-65571428D01*
X216807142Y-65285714D01*
X216807142Y-64714285D01*
X216950000Y-64428571D01*
X216807142Y-63571428D02*
X216807142Y-62428571D01*
X215807142Y-63142857D02*
X218378571Y-63142857D01*
X218664285Y-63000000D01*
X218807142Y-62714285D01*
X218807142Y-62428571D01*
X216092857Y-59285714D02*
X215950000Y-59142857D01*
X215807142Y-58857142D01*
X215807142Y-58142857D01*
X215950000Y-57857142D01*
X216092857Y-57714285D01*
X216378571Y-57571428D01*
X216664285Y-57571428D01*
X217092857Y-57714285D01*
X218807142Y-59428571D01*
X218807142Y-57571428D01*
X215807142Y-55714285D02*
X215807142Y-55428571D01*
X215950000Y-55142857D01*
X216092857Y-55000000D01*
X216378571Y-54857142D01*
X216950000Y-54714285D01*
X217664285Y-54714285D01*
X218235714Y-54857142D01*
X218521428Y-55000000D01*
X218664285Y-55142857D01*
X218807142Y-55428571D01*
X218807142Y-55714285D01*
X218664285Y-56000000D01*
X218521428Y-56142857D01*
X218235714Y-56285714D01*
X217664285Y-56428571D01*
X216950000Y-56428571D01*
X216378571Y-56285714D01*
X216092857Y-56142857D01*
X215950000Y-56000000D01*
X215807142Y-55714285D01*
X216092857Y-53571428D02*
X215950000Y-53428571D01*
X215807142Y-53142857D01*
X215807142Y-52428571D01*
X215950000Y-52142857D01*
X216092857Y-52000000D01*
X216378571Y-51857142D01*
X216664285Y-51857142D01*
X217092857Y-52000000D01*
X218807142Y-53714285D01*
X218807142Y-51857142D01*
X218807142Y-49000000D02*
X218807142Y-50714285D01*
X218807142Y-49857142D02*
X215807142Y-49857142D01*
X216235714Y-50142857D01*
X216521428Y-50428571D01*
X216664285Y-50714285D01*
D14*
%TO.C,C13*%
X153140000Y-85390000D02*
X153140000Y-88610000D01*
X153140000Y-88610000D02*
X158360000Y-88610000D01*
X158360000Y-88610000D02*
X158360000Y-85390000D01*
X158360000Y-85390000D02*
X153140000Y-85390000D01*
X152980000Y-87000000D02*
X153140000Y-87000000D01*
X158520000Y-87000000D02*
X158360000Y-87000000D01*
%TO.C,C12*%
X152640000Y-59390000D02*
X152640000Y-62610000D01*
X152640000Y-62610000D02*
X157860000Y-62610000D01*
X157860000Y-62610000D02*
X157860000Y-59390000D01*
X157860000Y-59390000D02*
X152640000Y-59390000D01*
X152480000Y-61000000D02*
X152640000Y-61000000D01*
X158020000Y-61000000D02*
X157860000Y-61000000D01*
%TO.C,C11*%
X99860000Y-146610000D02*
X99860000Y-143390000D01*
X99860000Y-143390000D02*
X94640000Y-143390000D01*
X94640000Y-143390000D02*
X94640000Y-146610000D01*
X94640000Y-146610000D02*
X99860000Y-146610000D01*
X100020000Y-145000000D02*
X99860000Y-145000000D01*
X94480000Y-145000000D02*
X94640000Y-145000000D01*
%TO.C,C10*%
X95140000Y-90390000D02*
X95140000Y-93610000D01*
X95140000Y-93610000D02*
X100360000Y-93610000D01*
X100360000Y-93610000D02*
X100360000Y-90390000D01*
X100360000Y-90390000D02*
X95140000Y-90390000D01*
X94980000Y-92000000D02*
X95140000Y-92000000D01*
X100520000Y-92000000D02*
X100360000Y-92000000D01*
%TO.C,C9*%
X95140000Y-79390000D02*
X95140000Y-82610000D01*
X95140000Y-82610000D02*
X100360000Y-82610000D01*
X100360000Y-82610000D02*
X100360000Y-79390000D01*
X100360000Y-79390000D02*
X95140000Y-79390000D01*
X94980000Y-81000000D02*
X95140000Y-81000000D01*
X100520000Y-81000000D02*
X100360000Y-81000000D01*
%TO.C,C8*%
X95140000Y-27390000D02*
X95140000Y-30610000D01*
X95140000Y-30610000D02*
X100360000Y-30610000D01*
X100360000Y-30610000D02*
X100360000Y-27390000D01*
X100360000Y-27390000D02*
X95140000Y-27390000D01*
X94980000Y-29000000D02*
X95140000Y-29000000D01*
X100520000Y-29000000D02*
X100360000Y-29000000D01*
%TO.C,C7*%
X200390000Y-129860000D02*
X203610000Y-129860000D01*
X203610000Y-129860000D02*
X203610000Y-124640000D01*
X203610000Y-124640000D02*
X200390000Y-124640000D01*
X200390000Y-124640000D02*
X200390000Y-129860000D01*
X202000000Y-130020000D02*
X202000000Y-129860000D01*
X202000000Y-124480000D02*
X202000000Y-124640000D01*
%TO.C,C6*%
X201390000Y-94860000D02*
X204610000Y-94860000D01*
X204610000Y-94860000D02*
X204610000Y-89640000D01*
X204610000Y-89640000D02*
X201390000Y-89640000D01*
X201390000Y-89640000D02*
X201390000Y-94860000D01*
X203000000Y-95020000D02*
X203000000Y-94860000D01*
X203000000Y-89480000D02*
X203000000Y-89640000D01*
%TO.C,C5*%
X200390000Y-64860000D02*
X203610000Y-64860000D01*
X203610000Y-64860000D02*
X203610000Y-59640000D01*
X203610000Y-59640000D02*
X200390000Y-59640000D01*
X200390000Y-59640000D02*
X200390000Y-64860000D01*
X202000000Y-65020000D02*
X202000000Y-64860000D01*
X202000000Y-59480000D02*
X202000000Y-59640000D01*
%TO.C,C4*%
X201390000Y-37860000D02*
X204610000Y-37860000D01*
X204610000Y-37860000D02*
X204610000Y-32640000D01*
X204610000Y-32640000D02*
X201390000Y-32640000D01*
X201390000Y-32640000D02*
X201390000Y-37860000D01*
X203000000Y-38020000D02*
X203000000Y-37860000D01*
X203000000Y-32480000D02*
X203000000Y-32640000D01*
%TO.C,C3*%
X172140000Y-141390000D02*
X172140000Y-144610000D01*
X172140000Y-144610000D02*
X177360000Y-144610000D01*
X177360000Y-144610000D02*
X177360000Y-141390000D01*
X177360000Y-141390000D02*
X172140000Y-141390000D01*
X171980000Y-143000000D02*
X172140000Y-143000000D01*
X177520000Y-143000000D02*
X177360000Y-143000000D01*
%TO.C,C2*%
X126140000Y-118390000D02*
X126140000Y-121610000D01*
X126140000Y-121610000D02*
X131360000Y-121610000D01*
X131360000Y-121610000D02*
X131360000Y-118390000D01*
X131360000Y-118390000D02*
X126140000Y-118390000D01*
X125980000Y-120000000D02*
X126140000Y-120000000D01*
X131520000Y-120000000D02*
X131360000Y-120000000D01*
%TO.C,C1*%
X126140000Y-64430000D02*
X126140000Y-67650000D01*
X126140000Y-67650000D02*
X131360000Y-67650000D01*
X131360000Y-67650000D02*
X131360000Y-64430000D01*
X131360000Y-64430000D02*
X126140000Y-64430000D01*
X125980000Y-66040000D02*
X126140000Y-66040000D01*
X131520000Y-66040000D02*
X131360000Y-66040000D01*
%TO.C,REG8.2*%
X127810000Y-86670000D02*
X126160000Y-86670000D01*
X126160000Y-86670000D02*
X126160000Y-117270000D01*
X126160000Y-117270000D02*
X131460000Y-117270000D01*
X131460000Y-117270000D02*
X131460000Y-86670000D01*
X131460000Y-86670000D02*
X129810000Y-86670000D01*
X129810000Y-86670000D02*
G75*
G02*
X127810000Y-86670000I-1000000J0D01*
G01*
%TO.C,REG8.1*%
X127810000Y-31670000D02*
X126160000Y-31670000D01*
X126160000Y-31670000D02*
X126160000Y-62270000D01*
X126160000Y-62270000D02*
X131460000Y-62270000D01*
X131460000Y-62270000D02*
X131460000Y-31670000D01*
X131460000Y-31670000D02*
X129810000Y-31670000D01*
X129810000Y-31670000D02*
G75*
G02*
X127810000Y-31670000I-1000000J0D01*
G01*
%TO.C,R14*%
X55950000Y-123140000D02*
X55950000Y-124860000D01*
X55950000Y-124860000D02*
X59670000Y-124860000D01*
X59670000Y-124860000D02*
X59670000Y-123140000D01*
X59670000Y-123140000D02*
X55950000Y-123140000D01*
X54880000Y-124000000D02*
X55950000Y-124000000D01*
X60740000Y-124000000D02*
X59670000Y-124000000D01*
%TO.C,R10*%
X129050000Y-137860000D02*
X129050000Y-136140000D01*
X129050000Y-136140000D02*
X125330000Y-136140000D01*
X125330000Y-136140000D02*
X125330000Y-137860000D01*
X125330000Y-137860000D02*
X129050000Y-137860000D01*
X130120000Y-137000000D02*
X129050000Y-137000000D01*
X124260000Y-137000000D02*
X125330000Y-137000000D01*
%TO.C,R6*%
X129050000Y-132860000D02*
X129050000Y-131140000D01*
X129050000Y-131140000D02*
X125330000Y-131140000D01*
X125330000Y-131140000D02*
X125330000Y-132860000D01*
X125330000Y-132860000D02*
X129050000Y-132860000D01*
X130120000Y-132000000D02*
X129050000Y-132000000D01*
X124260000Y-132000000D02*
X125330000Y-132000000D01*
%TO.C,R5*%
X55950000Y-118140000D02*
X55950000Y-119860000D01*
X55950000Y-119860000D02*
X59670000Y-119860000D01*
X59670000Y-119860000D02*
X59670000Y-118140000D01*
X59670000Y-118140000D02*
X55950000Y-118140000D01*
X54880000Y-119000000D02*
X55950000Y-119000000D01*
X60740000Y-119000000D02*
X59670000Y-119000000D01*
%TO.C,R4*%
X55950000Y-128140000D02*
X55950000Y-129860000D01*
X55950000Y-129860000D02*
X59670000Y-129860000D01*
X59670000Y-129860000D02*
X59670000Y-128140000D01*
X59670000Y-128140000D02*
X55950000Y-128140000D01*
X54880000Y-129000000D02*
X55950000Y-129000000D01*
X60740000Y-129000000D02*
X59670000Y-129000000D01*
%TO.C,POT1*%
X147940000Y-143061000D02*
X147940000Y-137940000D01*
X162060000Y-143061000D02*
X162060000Y-137940000D01*
X147940000Y-137940000D02*
X153635000Y-137940000D01*
X156365000Y-137940000D02*
X162060000Y-137940000D01*
X161365000Y-143061000D02*
X162060000Y-143061000D01*
X147940000Y-143061000D02*
X148635000Y-143061000D01*
X151365000Y-143061000D02*
X158635000Y-143061000D01*
X151940000Y-143061000D02*
X151940000Y-137940000D01*
X158060000Y-143061000D02*
X158060000Y-137940000D01*
X151940000Y-143061000D02*
X158060000Y-143061000D01*
X151940000Y-137940000D02*
X153635000Y-137940000D01*
X156365000Y-137940000D02*
X158060000Y-137940000D01*
%TO.C,MUXB2*%
X154810000Y-89670000D02*
X153160000Y-89670000D01*
X153160000Y-89670000D02*
X153160000Y-110110000D01*
X153160000Y-110110000D02*
X158460000Y-110110000D01*
X158460000Y-110110000D02*
X158460000Y-89670000D01*
X158460000Y-89670000D02*
X156810000Y-89670000D01*
X156810000Y-89670000D02*
G75*
G02*
X154810000Y-89670000I-1000000J0D01*
G01*
%TO.C,MUXB1*%
X156190000Y-56330000D02*
X157840000Y-56330000D01*
X157840000Y-56330000D02*
X157840000Y-35890000D01*
X157840000Y-35890000D02*
X152540000Y-35890000D01*
X152540000Y-35890000D02*
X152540000Y-56330000D01*
X152540000Y-56330000D02*
X154190000Y-56330000D01*
X154190000Y-56330000D02*
G75*
G02*
X156190000Y-56330000I1000000J0D01*
G01*
%TO.C,MUXA4*%
X96810000Y-121670000D02*
X95160000Y-121670000D01*
X95160000Y-121670000D02*
X95160000Y-142110000D01*
X95160000Y-142110000D02*
X100460000Y-142110000D01*
X100460000Y-142110000D02*
X100460000Y-121670000D01*
X100460000Y-121670000D02*
X98810000Y-121670000D01*
X98810000Y-121670000D02*
G75*
G02*
X96810000Y-121670000I-1000000J0D01*
G01*
%TO.C,MUXA3*%
X96810000Y-96670000D02*
X95160000Y-96670000D01*
X95160000Y-96670000D02*
X95160000Y-117110000D01*
X95160000Y-117110000D02*
X100460000Y-117110000D01*
X100460000Y-117110000D02*
X100460000Y-96670000D01*
X100460000Y-96670000D02*
X98810000Y-96670000D01*
X98810000Y-96670000D02*
G75*
G02*
X96810000Y-96670000I-1000000J0D01*
G01*
%TO.C,MUXA2*%
X96810000Y-56670000D02*
X95160000Y-56670000D01*
X95160000Y-56670000D02*
X95160000Y-77110000D01*
X95160000Y-77110000D02*
X100460000Y-77110000D01*
X100460000Y-77110000D02*
X100460000Y-56670000D01*
X100460000Y-56670000D02*
X98810000Y-56670000D01*
X98810000Y-56670000D02*
G75*
G02*
X96810000Y-56670000I-1000000J0D01*
G01*
%TO.C,MUXA1*%
X96810000Y-32670000D02*
X95160000Y-32670000D01*
X95160000Y-32670000D02*
X95160000Y-53110000D01*
X95160000Y-53110000D02*
X100460000Y-53110000D01*
X100460000Y-53110000D02*
X100460000Y-32670000D01*
X100460000Y-32670000D02*
X98810000Y-32670000D01*
X98810000Y-32670000D02*
G75*
G02*
X96810000Y-32670000I-1000000J0D01*
G01*
%TO.C,J5*%
X232820000Y-120380000D02*
X224080000Y-120380000D01*
X224080000Y-120380000D02*
X224080000Y-130620000D01*
X224080000Y-130620000D02*
X232820000Y-130620000D01*
X232820000Y-130620000D02*
X232820000Y-120380000D01*
X229000000Y-120180000D02*
X228700000Y-119580000D01*
X228700000Y-119580000D02*
X229300000Y-119580000D01*
X229300000Y-119580000D02*
X229000000Y-120180000D01*
%TO.C,J4*%
X228286000Y-112000000D02*
G75*
G03*
X228286000Y-112000000I-2286000J0D01*
G01*
%TO.C,J3*%
X58450000Y-92450000D02*
X52500000Y-92450000D01*
X52500000Y-92450000D02*
X52500000Y-105050000D01*
X52500000Y-105050000D02*
X58450000Y-105050000D01*
X58450000Y-105050000D02*
X58450000Y-92450000D01*
X58450000Y-95750000D02*
X57700000Y-95750000D01*
X57700000Y-95750000D02*
X57700000Y-101750000D01*
X57700000Y-101750000D02*
X58450000Y-101750000D01*
X58450000Y-101750000D02*
X58450000Y-95750000D01*
X58450000Y-92450000D02*
X57700000Y-92450000D01*
X57700000Y-92450000D02*
X57700000Y-94250000D01*
X57700000Y-94250000D02*
X58450000Y-94250000D01*
X58450000Y-94250000D02*
X58450000Y-92450000D01*
X58450000Y-103250000D02*
X57700000Y-103250000D01*
X57700000Y-103250000D02*
X57700000Y-105050000D01*
X57700000Y-105050000D02*
X58450000Y-105050000D01*
X58450000Y-105050000D02*
X58450000Y-103250000D01*
X56200000Y-92450000D02*
X56200000Y-93200000D01*
X56200000Y-93200000D02*
X53250000Y-93200000D01*
X53250000Y-93200000D02*
X53250000Y-98750000D01*
X56200000Y-105050000D02*
X56200000Y-104300000D01*
X56200000Y-104300000D02*
X53250000Y-104300000D01*
X53250000Y-104300000D02*
X53250000Y-98750000D01*
X58750000Y-94650000D02*
X58750000Y-92150000D01*
X58750000Y-92150000D02*
X56250000Y-92150000D01*
%TO.C,J2*%
X58450000Y-41450000D02*
X52500000Y-41450000D01*
X52500000Y-41450000D02*
X52500000Y-84050000D01*
X52500000Y-84050000D02*
X58450000Y-84050000D01*
X58450000Y-84050000D02*
X58450000Y-41450000D01*
X58450000Y-44750000D02*
X57700000Y-44750000D01*
X57700000Y-44750000D02*
X57700000Y-80750000D01*
X57700000Y-80750000D02*
X58450000Y-80750000D01*
X58450000Y-80750000D02*
X58450000Y-44750000D01*
X58450000Y-41450000D02*
X57700000Y-41450000D01*
X57700000Y-41450000D02*
X57700000Y-43250000D01*
X57700000Y-43250000D02*
X58450000Y-43250000D01*
X58450000Y-43250000D02*
X58450000Y-41450000D01*
X58450000Y-82250000D02*
X57700000Y-82250000D01*
X57700000Y-82250000D02*
X57700000Y-84050000D01*
X57700000Y-84050000D02*
X58450000Y-84050000D01*
X58450000Y-84050000D02*
X58450000Y-82250000D01*
X56200000Y-41450000D02*
X56200000Y-42200000D01*
X56200000Y-42200000D02*
X53250000Y-42200000D01*
X53250000Y-42200000D02*
X53250000Y-62750000D01*
X56200000Y-84050000D02*
X56200000Y-83300000D01*
X56200000Y-83300000D02*
X53250000Y-83300000D01*
X53250000Y-83300000D02*
X53250000Y-62750000D01*
X58750000Y-43650000D02*
X58750000Y-41150000D01*
X58750000Y-41150000D02*
X56250000Y-41150000D01*
%TO.C,J1*%
X229450000Y-49450000D02*
X223500000Y-49450000D01*
X223500000Y-49450000D02*
X223500000Y-92050000D01*
X223500000Y-92050000D02*
X229450000Y-92050000D01*
X229450000Y-92050000D02*
X229450000Y-49450000D01*
X229450000Y-52750000D02*
X228700000Y-52750000D01*
X228700000Y-52750000D02*
X228700000Y-88750000D01*
X228700000Y-88750000D02*
X229450000Y-88750000D01*
X229450000Y-88750000D02*
X229450000Y-52750000D01*
X229450000Y-49450000D02*
X228700000Y-49450000D01*
X228700000Y-49450000D02*
X228700000Y-51250000D01*
X228700000Y-51250000D02*
X229450000Y-51250000D01*
X229450000Y-51250000D02*
X229450000Y-49450000D01*
X229450000Y-90250000D02*
X228700000Y-90250000D01*
X228700000Y-90250000D02*
X228700000Y-92050000D01*
X228700000Y-92050000D02*
X229450000Y-92050000D01*
X229450000Y-92050000D02*
X229450000Y-90250000D01*
X227200000Y-49450000D02*
X227200000Y-50200000D01*
X227200000Y-50200000D02*
X224250000Y-50200000D01*
X224250000Y-50200000D02*
X224250000Y-70750000D01*
X227200000Y-92050000D02*
X227200000Y-91300000D01*
X227200000Y-91300000D02*
X224250000Y-91300000D01*
X224250000Y-91300000D02*
X224250000Y-70750000D01*
X229750000Y-51650000D02*
X229750000Y-49150000D01*
X229750000Y-49150000D02*
X227250000Y-49150000D01*
%TO.C,C_BOARD1*%
X232090000Y-137250000D02*
G75*
G03*
X232090000Y-137250000I-4090000J0D01*
G01*
X232050000Y-137250000D02*
X223950000Y-137250000D01*
X232050000Y-137290000D02*
X223950000Y-137290000D01*
X232050000Y-137330000D02*
X223950000Y-137330000D01*
X232049000Y-137370000D02*
X223951000Y-137370000D01*
X232047000Y-137410000D02*
X223953000Y-137410000D01*
X232046000Y-137450000D02*
X223954000Y-137450000D01*
X232043000Y-137490000D02*
X223957000Y-137490000D01*
X232041000Y-137530000D02*
X228980000Y-137530000D01*
X227020000Y-137530000D02*
X223959000Y-137530000D01*
X232038000Y-137570000D02*
X228980000Y-137570000D01*
X227020000Y-137570000D02*
X223962000Y-137570000D01*
X232035000Y-137610000D02*
X228980000Y-137610000D01*
X227020000Y-137610000D02*
X223965000Y-137610000D01*
X232031000Y-137650000D02*
X228980000Y-137650000D01*
X227020000Y-137650000D02*
X223969000Y-137650000D01*
X232027000Y-137690000D02*
X228980000Y-137690000D01*
X227020000Y-137690000D02*
X223973000Y-137690000D01*
X232022000Y-137730000D02*
X228980000Y-137730000D01*
X227020000Y-137730000D02*
X223978000Y-137730000D01*
X232017000Y-137770000D02*
X228980000Y-137770000D01*
X227020000Y-137770000D02*
X223983000Y-137770000D01*
X232012000Y-137810000D02*
X228980000Y-137810000D01*
X227020000Y-137810000D02*
X223988000Y-137810000D01*
X232006000Y-137850000D02*
X228980000Y-137850000D01*
X227020000Y-137850000D02*
X223994000Y-137850000D01*
X232000000Y-137890000D02*
X228980000Y-137890000D01*
X227020000Y-137890000D02*
X224000000Y-137890000D01*
X231994000Y-137930000D02*
X228980000Y-137930000D01*
X227020000Y-137930000D02*
X224006000Y-137930000D01*
X231987000Y-137971000D02*
X228980000Y-137971000D01*
X227020000Y-137971000D02*
X224013000Y-137971000D01*
X231979000Y-138011000D02*
X228980000Y-138011000D01*
X227020000Y-138011000D02*
X224021000Y-138011000D01*
X231971000Y-138051000D02*
X228980000Y-138051000D01*
X227020000Y-138051000D02*
X224029000Y-138051000D01*
X231963000Y-138091000D02*
X228980000Y-138091000D01*
X227020000Y-138091000D02*
X224037000Y-138091000D01*
X231955000Y-138131000D02*
X228980000Y-138131000D01*
X227020000Y-138131000D02*
X224045000Y-138131000D01*
X231946000Y-138171000D02*
X228980000Y-138171000D01*
X227020000Y-138171000D02*
X224054000Y-138171000D01*
X231936000Y-138211000D02*
X228980000Y-138211000D01*
X227020000Y-138211000D02*
X224064000Y-138211000D01*
X231926000Y-138251000D02*
X228980000Y-138251000D01*
X227020000Y-138251000D02*
X224074000Y-138251000D01*
X231916000Y-138291000D02*
X228980000Y-138291000D01*
X227020000Y-138291000D02*
X224084000Y-138291000D01*
X231905000Y-138331000D02*
X228980000Y-138331000D01*
X227020000Y-138331000D02*
X224095000Y-138331000D01*
X231894000Y-138371000D02*
X228980000Y-138371000D01*
X227020000Y-138371000D02*
X224106000Y-138371000D01*
X231883000Y-138411000D02*
X228980000Y-138411000D01*
X227020000Y-138411000D02*
X224117000Y-138411000D01*
X231870000Y-138451000D02*
X228980000Y-138451000D01*
X227020000Y-138451000D02*
X224130000Y-138451000D01*
X231858000Y-138491000D02*
X228980000Y-138491000D01*
X227020000Y-138491000D02*
X224142000Y-138491000D01*
X231845000Y-138531000D02*
X228980000Y-138531000D01*
X227020000Y-138531000D02*
X224155000Y-138531000D01*
X231832000Y-138571000D02*
X228980000Y-138571000D01*
X227020000Y-138571000D02*
X224168000Y-138571000D01*
X231818000Y-138611000D02*
X228980000Y-138611000D01*
X227020000Y-138611000D02*
X224182000Y-138611000D01*
X231803000Y-138651000D02*
X228980000Y-138651000D01*
X227020000Y-138651000D02*
X224197000Y-138651000D01*
X231789000Y-138691000D02*
X228980000Y-138691000D01*
X227020000Y-138691000D02*
X224211000Y-138691000D01*
X231773000Y-138731000D02*
X228980000Y-138731000D01*
X227020000Y-138731000D02*
X224227000Y-138731000D01*
X231758000Y-138771000D02*
X228980000Y-138771000D01*
X227020000Y-138771000D02*
X224242000Y-138771000D01*
X231741000Y-138811000D02*
X228980000Y-138811000D01*
X227020000Y-138811000D02*
X224259000Y-138811000D01*
X231725000Y-138851000D02*
X228980000Y-138851000D01*
X227020000Y-138851000D02*
X224275000Y-138851000D01*
X231707000Y-138891000D02*
X228980000Y-138891000D01*
X227020000Y-138891000D02*
X224293000Y-138891000D01*
X231690000Y-138931000D02*
X228980000Y-138931000D01*
X227020000Y-138931000D02*
X224310000Y-138931000D01*
X231671000Y-138971000D02*
X228980000Y-138971000D01*
X227020000Y-138971000D02*
X224329000Y-138971000D01*
X231652000Y-139011000D02*
X228980000Y-139011000D01*
X227020000Y-139011000D02*
X224348000Y-139011000D01*
X231633000Y-139051000D02*
X228980000Y-139051000D01*
X227020000Y-139051000D02*
X224367000Y-139051000D01*
X231613000Y-139091000D02*
X228980000Y-139091000D01*
X227020000Y-139091000D02*
X224387000Y-139091000D01*
X231593000Y-139131000D02*
X228980000Y-139131000D01*
X227020000Y-139131000D02*
X224407000Y-139131000D01*
X231572000Y-139171000D02*
X228980000Y-139171000D01*
X227020000Y-139171000D02*
X224428000Y-139171000D01*
X231550000Y-139211000D02*
X228980000Y-139211000D01*
X227020000Y-139211000D02*
X224450000Y-139211000D01*
X231528000Y-139251000D02*
X228980000Y-139251000D01*
X227020000Y-139251000D02*
X224472000Y-139251000D01*
X231505000Y-139291000D02*
X228980000Y-139291000D01*
X227020000Y-139291000D02*
X224495000Y-139291000D01*
X231482000Y-139331000D02*
X228980000Y-139331000D01*
X227020000Y-139331000D02*
X224518000Y-139331000D01*
X231458000Y-139371000D02*
X228980000Y-139371000D01*
X227020000Y-139371000D02*
X224542000Y-139371000D01*
X231434000Y-139411000D02*
X228980000Y-139411000D01*
X227020000Y-139411000D02*
X224566000Y-139411000D01*
X231408000Y-139451000D02*
X228980000Y-139451000D01*
X227020000Y-139451000D02*
X224592000Y-139451000D01*
X231383000Y-139491000D02*
X224617000Y-139491000D01*
X231356000Y-139531000D02*
X224644000Y-139531000D01*
X231329000Y-139571000D02*
X224671000Y-139571000D01*
X231301000Y-139611000D02*
X224699000Y-139611000D01*
X231272000Y-139651000D02*
X224728000Y-139651000D01*
X231243000Y-139691000D02*
X224757000Y-139691000D01*
X231213000Y-139731000D02*
X224787000Y-139731000D01*
X231182000Y-139771000D02*
X224818000Y-139771000D01*
X231150000Y-139811000D02*
X224850000Y-139811000D01*
X231118000Y-139851000D02*
X224882000Y-139851000D01*
X231084000Y-139891000D02*
X224916000Y-139891000D01*
X231050000Y-139931000D02*
X224950000Y-139931000D01*
X231015000Y-139971000D02*
X224985000Y-139971000D01*
X230979000Y-140011000D02*
X225021000Y-140011000D01*
X230942000Y-140051000D02*
X225058000Y-140051000D01*
X230904000Y-140091000D02*
X225096000Y-140091000D01*
X230865000Y-140131000D02*
X225135000Y-140131000D01*
X230824000Y-140171000D02*
X225176000Y-140171000D01*
X230783000Y-140211000D02*
X225217000Y-140211000D01*
X230740000Y-140251000D02*
X225260000Y-140251000D01*
X230697000Y-140291000D02*
X225303000Y-140291000D01*
X230652000Y-140331000D02*
X225348000Y-140331000D01*
X230605000Y-140371000D02*
X225395000Y-140371000D01*
X230557000Y-140411000D02*
X225443000Y-140411000D01*
X230508000Y-140451000D02*
X225492000Y-140451000D01*
X230457000Y-140491000D02*
X225543000Y-140491000D01*
X230404000Y-140531000D02*
X225596000Y-140531000D01*
X230349000Y-140571000D02*
X225651000Y-140571000D01*
X230293000Y-140611000D02*
X225707000Y-140611000D01*
X230234000Y-140651000D02*
X225766000Y-140651000D01*
X230173000Y-140691000D02*
X225827000Y-140691000D01*
X230109000Y-140731000D02*
X225891000Y-140731000D01*
X230043000Y-140771000D02*
X225957000Y-140771000D01*
X229974000Y-140811000D02*
X226026000Y-140811000D01*
X229902000Y-140851000D02*
X226098000Y-140851000D01*
X229826000Y-140891000D02*
X226174000Y-140891000D01*
X229745000Y-140931000D02*
X226255000Y-140931000D01*
X229660000Y-140971000D02*
X226340000Y-140971000D01*
X229570000Y-141011000D02*
X226430000Y-141011000D01*
X229473000Y-141051000D02*
X226527000Y-141051000D01*
X229369000Y-141091000D02*
X226631000Y-141091000D01*
X229254000Y-141131000D02*
X226746000Y-141131000D01*
X229127000Y-141171000D02*
X226873000Y-141171000D01*
X228983000Y-141211000D02*
X227017000Y-141211000D01*
X228814000Y-141251000D02*
X227186000Y-141251000D01*
X228598000Y-141291000D02*
X227402000Y-141291000D01*
X228246000Y-141331000D02*
X227754000Y-141331000D01*
X228000000Y-133800000D02*
X228000000Y-135000000D01*
X228650000Y-134400000D02*
X227350000Y-134400000D01*
%TO.C,ADD4.2*%
X177670000Y-63190000D02*
X177670000Y-64840000D01*
X177670000Y-64840000D02*
X198110000Y-64840000D01*
X198110000Y-64840000D02*
X198110000Y-59540000D01*
X198110000Y-59540000D02*
X177670000Y-59540000D01*
X177670000Y-59540000D02*
X177670000Y-61190000D01*
X177670000Y-61190000D02*
G75*
G02*
X177670000Y-63190000I0J-1000000D01*
G01*
%TO.C,ADD4.1*%
X178670000Y-36190000D02*
X178670000Y-37840000D01*
X178670000Y-37840000D02*
X199110000Y-37840000D01*
X199110000Y-37840000D02*
X199110000Y-32540000D01*
X199110000Y-32540000D02*
X178670000Y-32540000D01*
X178670000Y-32540000D02*
X178670000Y-34190000D01*
X178670000Y-34190000D02*
G75*
G02*
X178670000Y-36190000I0J-1000000D01*
G01*
%TO.C,ADD4.3*%
X177670000Y-93190000D02*
X177670000Y-94840000D01*
X177670000Y-94840000D02*
X198110000Y-94840000D01*
X198110000Y-94840000D02*
X198110000Y-89540000D01*
X198110000Y-89540000D02*
X177670000Y-89540000D01*
X177670000Y-89540000D02*
X177670000Y-91190000D01*
X177670000Y-91190000D02*
G75*
G02*
X177670000Y-93190000I0J-1000000D01*
G01*
%TO.C,ADD4.4*%
X177670000Y-128190000D02*
X177670000Y-129840000D01*
X177670000Y-129840000D02*
X198110000Y-129840000D01*
X198110000Y-129840000D02*
X198110000Y-124540000D01*
X198110000Y-124540000D02*
X177670000Y-124540000D01*
X177670000Y-124540000D02*
X177670000Y-126190000D01*
X177670000Y-126190000D02*
G75*
G02*
X177670000Y-128190000I0J-1000000D01*
G01*
%TO.C,H8*%
D10*
X55238095Y-147952380D02*
X55238095Y-146952380D01*
X55238095Y-147428571D02*
X55809523Y-147428571D01*
X55809523Y-147952380D02*
X55809523Y-146952380D01*
X56428571Y-147380952D02*
X56333333Y-147333333D01*
X56285714Y-147285714D01*
X56238095Y-147190476D01*
X56238095Y-147142857D01*
X56285714Y-147047619D01*
X56333333Y-147000000D01*
X56428571Y-146952380D01*
X56619047Y-146952380D01*
X56714285Y-147000000D01*
X56761904Y-147047619D01*
X56809523Y-147142857D01*
X56809523Y-147190476D01*
X56761904Y-147285714D01*
X56714285Y-147333333D01*
X56619047Y-147380952D01*
X56428571Y-147380952D01*
X56333333Y-147428571D01*
X56285714Y-147476190D01*
X56238095Y-147571428D01*
X56238095Y-147761904D01*
X56285714Y-147857142D01*
X56333333Y-147904761D01*
X56428571Y-147952380D01*
X56619047Y-147952380D01*
X56714285Y-147904761D01*
X56761904Y-147857142D01*
X56809523Y-147761904D01*
X56809523Y-147571428D01*
X56761904Y-147476190D01*
X56714285Y-147428571D01*
X56619047Y-147380952D01*
%TO.C,H7*%
X223238095Y-20952380D02*
X223238095Y-19952380D01*
X223238095Y-20428571D02*
X223809523Y-20428571D01*
X223809523Y-20952380D02*
X223809523Y-19952380D01*
X224190476Y-19952380D02*
X224857142Y-19952380D01*
X224428571Y-20952380D01*
%TO.C,H6*%
X55238095Y-20952380D02*
X55238095Y-19952380D01*
X55238095Y-20428571D02*
X55809523Y-20428571D01*
X55809523Y-20952380D02*
X55809523Y-19952380D01*
X56714285Y-19952380D02*
X56523809Y-19952380D01*
X56428571Y-20000000D01*
X56380952Y-20047619D01*
X56285714Y-20190476D01*
X56238095Y-20380952D01*
X56238095Y-20761904D01*
X56285714Y-20857142D01*
X56333333Y-20904761D01*
X56428571Y-20952380D01*
X56619047Y-20952380D01*
X56714285Y-20904761D01*
X56761904Y-20857142D01*
X56809523Y-20761904D01*
X56809523Y-20523809D01*
X56761904Y-20428571D01*
X56714285Y-20380952D01*
X56619047Y-20333333D01*
X56428571Y-20333333D01*
X56333333Y-20380952D01*
X56285714Y-20428571D01*
X56238095Y-20523809D01*
%TO.C,H5*%
X224238095Y-147952380D02*
X224238095Y-146952380D01*
X224238095Y-147428571D02*
X224809523Y-147428571D01*
X224809523Y-147952380D02*
X224809523Y-146952380D01*
X225761904Y-146952380D02*
X225285714Y-146952380D01*
X225238095Y-147428571D01*
X225285714Y-147380952D01*
X225380952Y-147333333D01*
X225619047Y-147333333D01*
X225714285Y-147380952D01*
X225761904Y-147428571D01*
X225809523Y-147523809D01*
X225809523Y-147761904D01*
X225761904Y-147857142D01*
X225714285Y-147904761D01*
X225619047Y-147952380D01*
X225380952Y-147952380D01*
X225285714Y-147904761D01*
X225238095Y-147857142D01*
%TO.C,H4*%
X233238095Y-20952380D02*
X233238095Y-19952380D01*
X233238095Y-20428571D02*
X233809523Y-20428571D01*
X233809523Y-20952380D02*
X233809523Y-19952380D01*
X234714285Y-20285714D02*
X234714285Y-20952380D01*
X234476190Y-19904761D02*
X234238095Y-20619047D01*
X234857142Y-20619047D01*
%TO.C,H3*%
X233238095Y-147952380D02*
X233238095Y-146952380D01*
X233238095Y-147428571D02*
X233809523Y-147428571D01*
X233809523Y-147952380D02*
X233809523Y-146952380D01*
X234190476Y-146952380D02*
X234809523Y-146952380D01*
X234476190Y-147333333D01*
X234619047Y-147333333D01*
X234714285Y-147380952D01*
X234761904Y-147428571D01*
X234809523Y-147523809D01*
X234809523Y-147761904D01*
X234761904Y-147857142D01*
X234714285Y-147904761D01*
X234619047Y-147952380D01*
X234333333Y-147952380D01*
X234238095Y-147904761D01*
X234190476Y-147857142D01*
%TO.C,H2*%
X45238095Y-147952380D02*
X45238095Y-146952380D01*
X45238095Y-147428571D02*
X45809523Y-147428571D01*
X45809523Y-147952380D02*
X45809523Y-146952380D01*
X46238095Y-147047619D02*
X46285714Y-147000000D01*
X46380952Y-146952380D01*
X46619047Y-146952380D01*
X46714285Y-147000000D01*
X46761904Y-147047619D01*
X46809523Y-147142857D01*
X46809523Y-147238095D01*
X46761904Y-147380952D01*
X46190476Y-147952380D01*
X46809523Y-147952380D01*
%TO.C,H1*%
X45238095Y-20952380D02*
X45238095Y-19952380D01*
X45238095Y-20428571D02*
X45809523Y-20428571D01*
X45809523Y-20952380D02*
X45809523Y-19952380D01*
X46809523Y-20952380D02*
X46238095Y-20952380D01*
X46523809Y-20952380D02*
X46523809Y-19952380D01*
X46428571Y-20095238D01*
X46333333Y-20190476D01*
X46238095Y-20238095D01*
%TO.C,C13*%
X155107142Y-84747142D02*
X155059523Y-84794761D01*
X154916666Y-84842380D01*
X154821428Y-84842380D01*
X154678571Y-84794761D01*
X154583333Y-84699523D01*
X154535714Y-84604285D01*
X154488095Y-84413809D01*
X154488095Y-84270952D01*
X154535714Y-84080476D01*
X154583333Y-83985238D01*
X154678571Y-83890000D01*
X154821428Y-83842380D01*
X154916666Y-83842380D01*
X155059523Y-83890000D01*
X155107142Y-83937619D01*
X156059523Y-84842380D02*
X155488095Y-84842380D01*
X155773809Y-84842380D02*
X155773809Y-83842380D01*
X155678571Y-83985238D01*
X155583333Y-84080476D01*
X155488095Y-84128095D01*
X156392857Y-83842380D02*
X157011904Y-83842380D01*
X156678571Y-84223333D01*
X156821428Y-84223333D01*
X156916666Y-84270952D01*
X156964285Y-84318571D01*
X157011904Y-84413809D01*
X157011904Y-84651904D01*
X156964285Y-84747142D01*
X156916666Y-84794761D01*
X156821428Y-84842380D01*
X156535714Y-84842380D01*
X156440476Y-84794761D01*
X156392857Y-84747142D01*
%TO.C,C12*%
X154607142Y-58747142D02*
X154559523Y-58794761D01*
X154416666Y-58842380D01*
X154321428Y-58842380D01*
X154178571Y-58794761D01*
X154083333Y-58699523D01*
X154035714Y-58604285D01*
X153988095Y-58413809D01*
X153988095Y-58270952D01*
X154035714Y-58080476D01*
X154083333Y-57985238D01*
X154178571Y-57890000D01*
X154321428Y-57842380D01*
X154416666Y-57842380D01*
X154559523Y-57890000D01*
X154607142Y-57937619D01*
X155559523Y-58842380D02*
X154988095Y-58842380D01*
X155273809Y-58842380D02*
X155273809Y-57842380D01*
X155178571Y-57985238D01*
X155083333Y-58080476D01*
X154988095Y-58128095D01*
X155940476Y-57937619D02*
X155988095Y-57890000D01*
X156083333Y-57842380D01*
X156321428Y-57842380D01*
X156416666Y-57890000D01*
X156464285Y-57937619D01*
X156511904Y-58032857D01*
X156511904Y-58128095D01*
X156464285Y-58270952D01*
X155892857Y-58842380D01*
X156511904Y-58842380D01*
%TO.C,C11*%
X96607142Y-147967142D02*
X96559523Y-148014761D01*
X96416666Y-148062380D01*
X96321428Y-148062380D01*
X96178571Y-148014761D01*
X96083333Y-147919523D01*
X96035714Y-147824285D01*
X95988095Y-147633809D01*
X95988095Y-147490952D01*
X96035714Y-147300476D01*
X96083333Y-147205238D01*
X96178571Y-147110000D01*
X96321428Y-147062380D01*
X96416666Y-147062380D01*
X96559523Y-147110000D01*
X96607142Y-147157619D01*
X97559523Y-148062380D02*
X96988095Y-148062380D01*
X97273809Y-148062380D02*
X97273809Y-147062380D01*
X97178571Y-147205238D01*
X97083333Y-147300476D01*
X96988095Y-147348095D01*
X98511904Y-148062380D02*
X97940476Y-148062380D01*
X98226190Y-148062380D02*
X98226190Y-147062380D01*
X98130952Y-147205238D01*
X98035714Y-147300476D01*
X97940476Y-147348095D01*
%TO.C,C10*%
X97107142Y-89747142D02*
X97059523Y-89794761D01*
X96916666Y-89842380D01*
X96821428Y-89842380D01*
X96678571Y-89794761D01*
X96583333Y-89699523D01*
X96535714Y-89604285D01*
X96488095Y-89413809D01*
X96488095Y-89270952D01*
X96535714Y-89080476D01*
X96583333Y-88985238D01*
X96678571Y-88890000D01*
X96821428Y-88842380D01*
X96916666Y-88842380D01*
X97059523Y-88890000D01*
X97107142Y-88937619D01*
X98059523Y-89842380D02*
X97488095Y-89842380D01*
X97773809Y-89842380D02*
X97773809Y-88842380D01*
X97678571Y-88985238D01*
X97583333Y-89080476D01*
X97488095Y-89128095D01*
X98678571Y-88842380D02*
X98773809Y-88842380D01*
X98869047Y-88890000D01*
X98916666Y-88937619D01*
X98964285Y-89032857D01*
X99011904Y-89223333D01*
X99011904Y-89461428D01*
X98964285Y-89651904D01*
X98916666Y-89747142D01*
X98869047Y-89794761D01*
X98773809Y-89842380D01*
X98678571Y-89842380D01*
X98583333Y-89794761D01*
X98535714Y-89747142D01*
X98488095Y-89651904D01*
X98440476Y-89461428D01*
X98440476Y-89223333D01*
X98488095Y-89032857D01*
X98535714Y-88937619D01*
X98583333Y-88890000D01*
X98678571Y-88842380D01*
%TO.C,C9*%
X97583333Y-78747142D02*
X97535714Y-78794761D01*
X97392857Y-78842380D01*
X97297619Y-78842380D01*
X97154761Y-78794761D01*
X97059523Y-78699523D01*
X97011904Y-78604285D01*
X96964285Y-78413809D01*
X96964285Y-78270952D01*
X97011904Y-78080476D01*
X97059523Y-77985238D01*
X97154761Y-77890000D01*
X97297619Y-77842380D01*
X97392857Y-77842380D01*
X97535714Y-77890000D01*
X97583333Y-77937619D01*
X98059523Y-78842380D02*
X98250000Y-78842380D01*
X98345238Y-78794761D01*
X98392857Y-78747142D01*
X98488095Y-78604285D01*
X98535714Y-78413809D01*
X98535714Y-78032857D01*
X98488095Y-77937619D01*
X98440476Y-77890000D01*
X98345238Y-77842380D01*
X98154761Y-77842380D01*
X98059523Y-77890000D01*
X98011904Y-77937619D01*
X97964285Y-78032857D01*
X97964285Y-78270952D01*
X98011904Y-78366190D01*
X98059523Y-78413809D01*
X98154761Y-78461428D01*
X98345238Y-78461428D01*
X98440476Y-78413809D01*
X98488095Y-78366190D01*
X98535714Y-78270952D01*
%TO.C,C8*%
X97583333Y-26747142D02*
X97535714Y-26794761D01*
X97392857Y-26842380D01*
X97297619Y-26842380D01*
X97154761Y-26794761D01*
X97059523Y-26699523D01*
X97011904Y-26604285D01*
X96964285Y-26413809D01*
X96964285Y-26270952D01*
X97011904Y-26080476D01*
X97059523Y-25985238D01*
X97154761Y-25890000D01*
X97297619Y-25842380D01*
X97392857Y-25842380D01*
X97535714Y-25890000D01*
X97583333Y-25937619D01*
X98154761Y-26270952D02*
X98059523Y-26223333D01*
X98011904Y-26175714D01*
X97964285Y-26080476D01*
X97964285Y-26032857D01*
X98011904Y-25937619D01*
X98059523Y-25890000D01*
X98154761Y-25842380D01*
X98345238Y-25842380D01*
X98440476Y-25890000D01*
X98488095Y-25937619D01*
X98535714Y-26032857D01*
X98535714Y-26080476D01*
X98488095Y-26175714D01*
X98440476Y-26223333D01*
X98345238Y-26270952D01*
X98154761Y-26270952D01*
X98059523Y-26318571D01*
X98011904Y-26366190D01*
X97964285Y-26461428D01*
X97964285Y-26651904D01*
X98011904Y-26747142D01*
X98059523Y-26794761D01*
X98154761Y-26842380D01*
X98345238Y-26842380D01*
X98440476Y-26794761D01*
X98488095Y-26747142D01*
X98535714Y-26651904D01*
X98535714Y-26461428D01*
X98488095Y-26366190D01*
X98440476Y-26318571D01*
X98345238Y-26270952D01*
%TO.C,C7*%
X199747142Y-127416666D02*
X199794761Y-127464285D01*
X199842380Y-127607142D01*
X199842380Y-127702380D01*
X199794761Y-127845238D01*
X199699523Y-127940476D01*
X199604285Y-127988095D01*
X199413809Y-128035714D01*
X199270952Y-128035714D01*
X199080476Y-127988095D01*
X198985238Y-127940476D01*
X198890000Y-127845238D01*
X198842380Y-127702380D01*
X198842380Y-127607142D01*
X198890000Y-127464285D01*
X198937619Y-127416666D01*
X198842380Y-127083333D02*
X198842380Y-126416666D01*
X199842380Y-126845238D01*
%TO.C,C6*%
X200747142Y-92416666D02*
X200794761Y-92464285D01*
X200842380Y-92607142D01*
X200842380Y-92702380D01*
X200794761Y-92845238D01*
X200699523Y-92940476D01*
X200604285Y-92988095D01*
X200413809Y-93035714D01*
X200270952Y-93035714D01*
X200080476Y-92988095D01*
X199985238Y-92940476D01*
X199890000Y-92845238D01*
X199842380Y-92702380D01*
X199842380Y-92607142D01*
X199890000Y-92464285D01*
X199937619Y-92416666D01*
X199842380Y-91559523D02*
X199842380Y-91750000D01*
X199890000Y-91845238D01*
X199937619Y-91892857D01*
X200080476Y-91988095D01*
X200270952Y-92035714D01*
X200651904Y-92035714D01*
X200747142Y-91988095D01*
X200794761Y-91940476D01*
X200842380Y-91845238D01*
X200842380Y-91654761D01*
X200794761Y-91559523D01*
X200747142Y-91511904D01*
X200651904Y-91464285D01*
X200413809Y-91464285D01*
X200318571Y-91511904D01*
X200270952Y-91559523D01*
X200223333Y-91654761D01*
X200223333Y-91845238D01*
X200270952Y-91940476D01*
X200318571Y-91988095D01*
X200413809Y-92035714D01*
%TO.C,C5*%
X199747142Y-62416666D02*
X199794761Y-62464285D01*
X199842380Y-62607142D01*
X199842380Y-62702380D01*
X199794761Y-62845238D01*
X199699523Y-62940476D01*
X199604285Y-62988095D01*
X199413809Y-63035714D01*
X199270952Y-63035714D01*
X199080476Y-62988095D01*
X198985238Y-62940476D01*
X198890000Y-62845238D01*
X198842380Y-62702380D01*
X198842380Y-62607142D01*
X198890000Y-62464285D01*
X198937619Y-62416666D01*
X198842380Y-61511904D02*
X198842380Y-61988095D01*
X199318571Y-62035714D01*
X199270952Y-61988095D01*
X199223333Y-61892857D01*
X199223333Y-61654761D01*
X199270952Y-61559523D01*
X199318571Y-61511904D01*
X199413809Y-61464285D01*
X199651904Y-61464285D01*
X199747142Y-61511904D01*
X199794761Y-61559523D01*
X199842380Y-61654761D01*
X199842380Y-61892857D01*
X199794761Y-61988095D01*
X199747142Y-62035714D01*
%TO.C,C4*%
X200747142Y-35416666D02*
X200794761Y-35464285D01*
X200842380Y-35607142D01*
X200842380Y-35702380D01*
X200794761Y-35845238D01*
X200699523Y-35940476D01*
X200604285Y-35988095D01*
X200413809Y-36035714D01*
X200270952Y-36035714D01*
X200080476Y-35988095D01*
X199985238Y-35940476D01*
X199890000Y-35845238D01*
X199842380Y-35702380D01*
X199842380Y-35607142D01*
X199890000Y-35464285D01*
X199937619Y-35416666D01*
X200175714Y-34559523D02*
X200842380Y-34559523D01*
X199794761Y-34797619D02*
X200509047Y-35035714D01*
X200509047Y-34416666D01*
%TO.C,C3*%
X174583333Y-140747142D02*
X174535714Y-140794761D01*
X174392857Y-140842380D01*
X174297619Y-140842380D01*
X174154761Y-140794761D01*
X174059523Y-140699523D01*
X174011904Y-140604285D01*
X173964285Y-140413809D01*
X173964285Y-140270952D01*
X174011904Y-140080476D01*
X174059523Y-139985238D01*
X174154761Y-139890000D01*
X174297619Y-139842380D01*
X174392857Y-139842380D01*
X174535714Y-139890000D01*
X174583333Y-139937619D01*
X174916666Y-139842380D02*
X175535714Y-139842380D01*
X175202380Y-140223333D01*
X175345238Y-140223333D01*
X175440476Y-140270952D01*
X175488095Y-140318571D01*
X175535714Y-140413809D01*
X175535714Y-140651904D01*
X175488095Y-140747142D01*
X175440476Y-140794761D01*
X175345238Y-140842380D01*
X175059523Y-140842380D01*
X174964285Y-140794761D01*
X174916666Y-140747142D01*
%TO.C,C2*%
X128583333Y-117747142D02*
X128535714Y-117794761D01*
X128392857Y-117842380D01*
X128297619Y-117842380D01*
X128154761Y-117794761D01*
X128059523Y-117699523D01*
X128011904Y-117604285D01*
X127964285Y-117413809D01*
X127964285Y-117270952D01*
X128011904Y-117080476D01*
X128059523Y-116985238D01*
X128154761Y-116890000D01*
X128297619Y-116842380D01*
X128392857Y-116842380D01*
X128535714Y-116890000D01*
X128583333Y-116937619D01*
X128964285Y-116937619D02*
X129011904Y-116890000D01*
X129107142Y-116842380D01*
X129345238Y-116842380D01*
X129440476Y-116890000D01*
X129488095Y-116937619D01*
X129535714Y-117032857D01*
X129535714Y-117128095D01*
X129488095Y-117270952D01*
X128916666Y-117842380D01*
X129535714Y-117842380D01*
%TO.C,C1*%
X128583333Y-63787142D02*
X128535714Y-63834761D01*
X128392857Y-63882380D01*
X128297619Y-63882380D01*
X128154761Y-63834761D01*
X128059523Y-63739523D01*
X128011904Y-63644285D01*
X127964285Y-63453809D01*
X127964285Y-63310952D01*
X128011904Y-63120476D01*
X128059523Y-63025238D01*
X128154761Y-62930000D01*
X128297619Y-62882380D01*
X128392857Y-62882380D01*
X128535714Y-62930000D01*
X128583333Y-62977619D01*
X129535714Y-63882380D02*
X128964285Y-63882380D01*
X129250000Y-63882380D02*
X129250000Y-62882380D01*
X129154761Y-63025238D01*
X129059523Y-63120476D01*
X128964285Y-63168095D01*
%TO.C,REG8.2*%
X126976666Y-86122380D02*
X126643333Y-85646190D01*
X126405238Y-86122380D02*
X126405238Y-85122380D01*
X126786190Y-85122380D01*
X126881428Y-85170000D01*
X126929047Y-85217619D01*
X126976666Y-85312857D01*
X126976666Y-85455714D01*
X126929047Y-85550952D01*
X126881428Y-85598571D01*
X126786190Y-85646190D01*
X126405238Y-85646190D01*
X127405238Y-85598571D02*
X127738571Y-85598571D01*
X127881428Y-86122380D02*
X127405238Y-86122380D01*
X127405238Y-85122380D01*
X127881428Y-85122380D01*
X128833809Y-85170000D02*
X128738571Y-85122380D01*
X128595714Y-85122380D01*
X128452857Y-85170000D01*
X128357619Y-85265238D01*
X128310000Y-85360476D01*
X128262380Y-85550952D01*
X128262380Y-85693809D01*
X128310000Y-85884285D01*
X128357619Y-85979523D01*
X128452857Y-86074761D01*
X128595714Y-86122380D01*
X128690952Y-86122380D01*
X128833809Y-86074761D01*
X128881428Y-86027142D01*
X128881428Y-85693809D01*
X128690952Y-85693809D01*
X129452857Y-85550952D02*
X129357619Y-85503333D01*
X129310000Y-85455714D01*
X129262380Y-85360476D01*
X129262380Y-85312857D01*
X129310000Y-85217619D01*
X129357619Y-85170000D01*
X129452857Y-85122380D01*
X129643333Y-85122380D01*
X129738571Y-85170000D01*
X129786190Y-85217619D01*
X129833809Y-85312857D01*
X129833809Y-85360476D01*
X129786190Y-85455714D01*
X129738571Y-85503333D01*
X129643333Y-85550952D01*
X129452857Y-85550952D01*
X129357619Y-85598571D01*
X129310000Y-85646190D01*
X129262380Y-85741428D01*
X129262380Y-85931904D01*
X129310000Y-86027142D01*
X129357619Y-86074761D01*
X129452857Y-86122380D01*
X129643333Y-86122380D01*
X129738571Y-86074761D01*
X129786190Y-86027142D01*
X129833809Y-85931904D01*
X129833809Y-85741428D01*
X129786190Y-85646190D01*
X129738571Y-85598571D01*
X129643333Y-85550952D01*
X130262380Y-86027142D02*
X130310000Y-86074761D01*
X130262380Y-86122380D01*
X130214761Y-86074761D01*
X130262380Y-86027142D01*
X130262380Y-86122380D01*
X130690952Y-85217619D02*
X130738571Y-85170000D01*
X130833809Y-85122380D01*
X131071904Y-85122380D01*
X131167142Y-85170000D01*
X131214761Y-85217619D01*
X131262380Y-85312857D01*
X131262380Y-85408095D01*
X131214761Y-85550952D01*
X130643333Y-86122380D01*
X131262380Y-86122380D01*
%TO.C,REG8.1*%
X126976666Y-31122380D02*
X126643333Y-30646190D01*
X126405238Y-31122380D02*
X126405238Y-30122380D01*
X126786190Y-30122380D01*
X126881428Y-30170000D01*
X126929047Y-30217619D01*
X126976666Y-30312857D01*
X126976666Y-30455714D01*
X126929047Y-30550952D01*
X126881428Y-30598571D01*
X126786190Y-30646190D01*
X126405238Y-30646190D01*
X127405238Y-30598571D02*
X127738571Y-30598571D01*
X127881428Y-31122380D02*
X127405238Y-31122380D01*
X127405238Y-30122380D01*
X127881428Y-30122380D01*
X128833809Y-30170000D02*
X128738571Y-30122380D01*
X128595714Y-30122380D01*
X128452857Y-30170000D01*
X128357619Y-30265238D01*
X128310000Y-30360476D01*
X128262380Y-30550952D01*
X128262380Y-30693809D01*
X128310000Y-30884285D01*
X128357619Y-30979523D01*
X128452857Y-31074761D01*
X128595714Y-31122380D01*
X128690952Y-31122380D01*
X128833809Y-31074761D01*
X128881428Y-31027142D01*
X128881428Y-30693809D01*
X128690952Y-30693809D01*
X129452857Y-30550952D02*
X129357619Y-30503333D01*
X129310000Y-30455714D01*
X129262380Y-30360476D01*
X129262380Y-30312857D01*
X129310000Y-30217619D01*
X129357619Y-30170000D01*
X129452857Y-30122380D01*
X129643333Y-30122380D01*
X129738571Y-30170000D01*
X129786190Y-30217619D01*
X129833809Y-30312857D01*
X129833809Y-30360476D01*
X129786190Y-30455714D01*
X129738571Y-30503333D01*
X129643333Y-30550952D01*
X129452857Y-30550952D01*
X129357619Y-30598571D01*
X129310000Y-30646190D01*
X129262380Y-30741428D01*
X129262380Y-30931904D01*
X129310000Y-31027142D01*
X129357619Y-31074761D01*
X129452857Y-31122380D01*
X129643333Y-31122380D01*
X129738571Y-31074761D01*
X129786190Y-31027142D01*
X129833809Y-30931904D01*
X129833809Y-30741428D01*
X129786190Y-30646190D01*
X129738571Y-30598571D01*
X129643333Y-30550952D01*
X130262380Y-31027142D02*
X130310000Y-31074761D01*
X130262380Y-31122380D01*
X130214761Y-31074761D01*
X130262380Y-31027142D01*
X130262380Y-31122380D01*
X131262380Y-31122380D02*
X130690952Y-31122380D01*
X130976666Y-31122380D02*
X130976666Y-30122380D01*
X130881428Y-30265238D01*
X130786190Y-30360476D01*
X130690952Y-30408095D01*
%TO.C,R14*%
X57167142Y-122592380D02*
X56833809Y-122116190D01*
X56595714Y-122592380D02*
X56595714Y-121592380D01*
X56976666Y-121592380D01*
X57071904Y-121640000D01*
X57119523Y-121687619D01*
X57167142Y-121782857D01*
X57167142Y-121925714D01*
X57119523Y-122020952D01*
X57071904Y-122068571D01*
X56976666Y-122116190D01*
X56595714Y-122116190D01*
X58119523Y-122592380D02*
X57548095Y-122592380D01*
X57833809Y-122592380D02*
X57833809Y-121592380D01*
X57738571Y-121735238D01*
X57643333Y-121830476D01*
X57548095Y-121878095D01*
X58976666Y-121925714D02*
X58976666Y-122592380D01*
X58738571Y-121544761D02*
X58500476Y-122259047D01*
X59119523Y-122259047D01*
%TO.C,R10*%
X126547142Y-139312380D02*
X126213809Y-138836190D01*
X125975714Y-139312380D02*
X125975714Y-138312380D01*
X126356666Y-138312380D01*
X126451904Y-138360000D01*
X126499523Y-138407619D01*
X126547142Y-138502857D01*
X126547142Y-138645714D01*
X126499523Y-138740952D01*
X126451904Y-138788571D01*
X126356666Y-138836190D01*
X125975714Y-138836190D01*
X127499523Y-139312380D02*
X126928095Y-139312380D01*
X127213809Y-139312380D02*
X127213809Y-138312380D01*
X127118571Y-138455238D01*
X127023333Y-138550476D01*
X126928095Y-138598095D01*
X128118571Y-138312380D02*
X128213809Y-138312380D01*
X128309047Y-138360000D01*
X128356666Y-138407619D01*
X128404285Y-138502857D01*
X128451904Y-138693333D01*
X128451904Y-138931428D01*
X128404285Y-139121904D01*
X128356666Y-139217142D01*
X128309047Y-139264761D01*
X128213809Y-139312380D01*
X128118571Y-139312380D01*
X128023333Y-139264761D01*
X127975714Y-139217142D01*
X127928095Y-139121904D01*
X127880476Y-138931428D01*
X127880476Y-138693333D01*
X127928095Y-138502857D01*
X127975714Y-138407619D01*
X128023333Y-138360000D01*
X128118571Y-138312380D01*
%TO.C,R6*%
X127023333Y-134312380D02*
X126690000Y-133836190D01*
X126451904Y-134312380D02*
X126451904Y-133312380D01*
X126832857Y-133312380D01*
X126928095Y-133360000D01*
X126975714Y-133407619D01*
X127023333Y-133502857D01*
X127023333Y-133645714D01*
X126975714Y-133740952D01*
X126928095Y-133788571D01*
X126832857Y-133836190D01*
X126451904Y-133836190D01*
X127880476Y-133312380D02*
X127690000Y-133312380D01*
X127594761Y-133360000D01*
X127547142Y-133407619D01*
X127451904Y-133550476D01*
X127404285Y-133740952D01*
X127404285Y-134121904D01*
X127451904Y-134217142D01*
X127499523Y-134264761D01*
X127594761Y-134312380D01*
X127785238Y-134312380D01*
X127880476Y-134264761D01*
X127928095Y-134217142D01*
X127975714Y-134121904D01*
X127975714Y-133883809D01*
X127928095Y-133788571D01*
X127880476Y-133740952D01*
X127785238Y-133693333D01*
X127594761Y-133693333D01*
X127499523Y-133740952D01*
X127451904Y-133788571D01*
X127404285Y-133883809D01*
%TO.C,R5*%
X57643333Y-117592380D02*
X57310000Y-117116190D01*
X57071904Y-117592380D02*
X57071904Y-116592380D01*
X57452857Y-116592380D01*
X57548095Y-116640000D01*
X57595714Y-116687619D01*
X57643333Y-116782857D01*
X57643333Y-116925714D01*
X57595714Y-117020952D01*
X57548095Y-117068571D01*
X57452857Y-117116190D01*
X57071904Y-117116190D01*
X58548095Y-116592380D02*
X58071904Y-116592380D01*
X58024285Y-117068571D01*
X58071904Y-117020952D01*
X58167142Y-116973333D01*
X58405238Y-116973333D01*
X58500476Y-117020952D01*
X58548095Y-117068571D01*
X58595714Y-117163809D01*
X58595714Y-117401904D01*
X58548095Y-117497142D01*
X58500476Y-117544761D01*
X58405238Y-117592380D01*
X58167142Y-117592380D01*
X58071904Y-117544761D01*
X58024285Y-117497142D01*
%TO.C,R4*%
X57643333Y-127592380D02*
X57310000Y-127116190D01*
X57071904Y-127592380D02*
X57071904Y-126592380D01*
X57452857Y-126592380D01*
X57548095Y-126640000D01*
X57595714Y-126687619D01*
X57643333Y-126782857D01*
X57643333Y-126925714D01*
X57595714Y-127020952D01*
X57548095Y-127068571D01*
X57452857Y-127116190D01*
X57071904Y-127116190D01*
X58500476Y-126925714D02*
X58500476Y-127592380D01*
X58262380Y-126544761D02*
X58024285Y-127259047D01*
X58643333Y-127259047D01*
%TO.C,POT1*%
X147202380Y-144642857D02*
X146202380Y-144642857D01*
X146202380Y-144261904D01*
X146250000Y-144166666D01*
X146297619Y-144119047D01*
X146392857Y-144071428D01*
X146535714Y-144071428D01*
X146630952Y-144119047D01*
X146678571Y-144166666D01*
X146726190Y-144261904D01*
X146726190Y-144642857D01*
X146202380Y-143452380D02*
X146202380Y-143261904D01*
X146250000Y-143166666D01*
X146345238Y-143071428D01*
X146535714Y-143023809D01*
X146869047Y-143023809D01*
X147059523Y-143071428D01*
X147154761Y-143166666D01*
X147202380Y-143261904D01*
X147202380Y-143452380D01*
X147154761Y-143547619D01*
X147059523Y-143642857D01*
X146869047Y-143690476D01*
X146535714Y-143690476D01*
X146345238Y-143642857D01*
X146250000Y-143547619D01*
X146202380Y-143452380D01*
X146202380Y-142738095D02*
X146202380Y-142166666D01*
X147202380Y-142452380D02*
X146202380Y-142452380D01*
X147202380Y-141309523D02*
X147202380Y-141880952D01*
X147202380Y-141595238D02*
X146202380Y-141595238D01*
X146345238Y-141690476D01*
X146440476Y-141785714D01*
X146488095Y-141880952D01*
%TO.C,MUXB2*%
X153500476Y-113452380D02*
X153500476Y-112452380D01*
X153833809Y-113166666D01*
X154167142Y-112452380D01*
X154167142Y-113452380D01*
X154643333Y-112452380D02*
X154643333Y-113261904D01*
X154690952Y-113357142D01*
X154738571Y-113404761D01*
X154833809Y-113452380D01*
X155024285Y-113452380D01*
X155119523Y-113404761D01*
X155167142Y-113357142D01*
X155214761Y-113261904D01*
X155214761Y-112452380D01*
X155595714Y-112452380D02*
X156262380Y-113452380D01*
X156262380Y-112452380D02*
X155595714Y-113452380D01*
X156976666Y-112928571D02*
X157119523Y-112976190D01*
X157167142Y-113023809D01*
X157214761Y-113119047D01*
X157214761Y-113261904D01*
X157167142Y-113357142D01*
X157119523Y-113404761D01*
X157024285Y-113452380D01*
X156643333Y-113452380D01*
X156643333Y-112452380D01*
X156976666Y-112452380D01*
X157071904Y-112500000D01*
X157119523Y-112547619D01*
X157167142Y-112642857D01*
X157167142Y-112738095D01*
X157119523Y-112833333D01*
X157071904Y-112880952D01*
X156976666Y-112928571D01*
X156643333Y-112928571D01*
X157595714Y-112547619D02*
X157643333Y-112500000D01*
X157738571Y-112452380D01*
X157976666Y-112452380D01*
X158071904Y-112500000D01*
X158119523Y-112547619D01*
X158167142Y-112642857D01*
X158167142Y-112738095D01*
X158119523Y-112880952D01*
X157548095Y-113452380D01*
X158167142Y-113452380D01*
%TO.C,MUXB1*%
X152880476Y-57782380D02*
X152880476Y-56782380D01*
X153213809Y-57496666D01*
X153547142Y-56782380D01*
X153547142Y-57782380D01*
X154023333Y-56782380D02*
X154023333Y-57591904D01*
X154070952Y-57687142D01*
X154118571Y-57734761D01*
X154213809Y-57782380D01*
X154404285Y-57782380D01*
X154499523Y-57734761D01*
X154547142Y-57687142D01*
X154594761Y-57591904D01*
X154594761Y-56782380D01*
X154975714Y-56782380D02*
X155642380Y-57782380D01*
X155642380Y-56782380D02*
X154975714Y-57782380D01*
X156356666Y-57258571D02*
X156499523Y-57306190D01*
X156547142Y-57353809D01*
X156594761Y-57449047D01*
X156594761Y-57591904D01*
X156547142Y-57687142D01*
X156499523Y-57734761D01*
X156404285Y-57782380D01*
X156023333Y-57782380D01*
X156023333Y-56782380D01*
X156356666Y-56782380D01*
X156451904Y-56830000D01*
X156499523Y-56877619D01*
X156547142Y-56972857D01*
X156547142Y-57068095D01*
X156499523Y-57163333D01*
X156451904Y-57210952D01*
X156356666Y-57258571D01*
X156023333Y-57258571D01*
X157547142Y-57782380D02*
X156975714Y-57782380D01*
X157261428Y-57782380D02*
X157261428Y-56782380D01*
X157166190Y-56925238D01*
X157070952Y-57020476D01*
X156975714Y-57068095D01*
%TO.C,MUXA4*%
X95571904Y-121122380D02*
X95571904Y-120122380D01*
X95905238Y-120836666D01*
X96238571Y-120122380D01*
X96238571Y-121122380D01*
X96714761Y-120122380D02*
X96714761Y-120931904D01*
X96762380Y-121027142D01*
X96810000Y-121074761D01*
X96905238Y-121122380D01*
X97095714Y-121122380D01*
X97190952Y-121074761D01*
X97238571Y-121027142D01*
X97286190Y-120931904D01*
X97286190Y-120122380D01*
X97667142Y-120122380D02*
X98333809Y-121122380D01*
X98333809Y-120122380D02*
X97667142Y-121122380D01*
X98667142Y-120836666D02*
X99143333Y-120836666D01*
X98571904Y-121122380D02*
X98905238Y-120122380D01*
X99238571Y-121122380D01*
X100000476Y-120455714D02*
X100000476Y-121122380D01*
X99762380Y-120074761D02*
X99524285Y-120789047D01*
X100143333Y-120789047D01*
%TO.C,MUXA3*%
X95571904Y-96122380D02*
X95571904Y-95122380D01*
X95905238Y-95836666D01*
X96238571Y-95122380D01*
X96238571Y-96122380D01*
X96714761Y-95122380D02*
X96714761Y-95931904D01*
X96762380Y-96027142D01*
X96810000Y-96074761D01*
X96905238Y-96122380D01*
X97095714Y-96122380D01*
X97190952Y-96074761D01*
X97238571Y-96027142D01*
X97286190Y-95931904D01*
X97286190Y-95122380D01*
X97667142Y-95122380D02*
X98333809Y-96122380D01*
X98333809Y-95122380D02*
X97667142Y-96122380D01*
X98667142Y-95836666D02*
X99143333Y-95836666D01*
X98571904Y-96122380D02*
X98905238Y-95122380D01*
X99238571Y-96122380D01*
X99476666Y-95122380D02*
X100095714Y-95122380D01*
X99762380Y-95503333D01*
X99905238Y-95503333D01*
X100000476Y-95550952D01*
X100048095Y-95598571D01*
X100095714Y-95693809D01*
X100095714Y-95931904D01*
X100048095Y-96027142D01*
X100000476Y-96074761D01*
X99905238Y-96122380D01*
X99619523Y-96122380D01*
X99524285Y-96074761D01*
X99476666Y-96027142D01*
%TO.C,MUXA2*%
X95571904Y-56122380D02*
X95571904Y-55122380D01*
X95905238Y-55836666D01*
X96238571Y-55122380D01*
X96238571Y-56122380D01*
X96714761Y-55122380D02*
X96714761Y-55931904D01*
X96762380Y-56027142D01*
X96810000Y-56074761D01*
X96905238Y-56122380D01*
X97095714Y-56122380D01*
X97190952Y-56074761D01*
X97238571Y-56027142D01*
X97286190Y-55931904D01*
X97286190Y-55122380D01*
X97667142Y-55122380D02*
X98333809Y-56122380D01*
X98333809Y-55122380D02*
X97667142Y-56122380D01*
X98667142Y-55836666D02*
X99143333Y-55836666D01*
X98571904Y-56122380D02*
X98905238Y-55122380D01*
X99238571Y-56122380D01*
X99524285Y-55217619D02*
X99571904Y-55170000D01*
X99667142Y-55122380D01*
X99905238Y-55122380D01*
X100000476Y-55170000D01*
X100048095Y-55217619D01*
X100095714Y-55312857D01*
X100095714Y-55408095D01*
X100048095Y-55550952D01*
X99476666Y-56122380D01*
X100095714Y-56122380D01*
%TO.C,MUXA1*%
X95571904Y-32122380D02*
X95571904Y-31122380D01*
X95905238Y-31836666D01*
X96238571Y-31122380D01*
X96238571Y-32122380D01*
X96714761Y-31122380D02*
X96714761Y-31931904D01*
X96762380Y-32027142D01*
X96810000Y-32074761D01*
X96905238Y-32122380D01*
X97095714Y-32122380D01*
X97190952Y-32074761D01*
X97238571Y-32027142D01*
X97286190Y-31931904D01*
X97286190Y-31122380D01*
X97667142Y-31122380D02*
X98333809Y-32122380D01*
X98333809Y-31122380D02*
X97667142Y-32122380D01*
X98667142Y-31836666D02*
X99143333Y-31836666D01*
X98571904Y-32122380D02*
X98905238Y-31122380D01*
X99238571Y-32122380D01*
X100095714Y-32122380D02*
X99524285Y-32122380D01*
X99810000Y-32122380D02*
X99810000Y-31122380D01*
X99714761Y-31265238D01*
X99619523Y-31360476D01*
X99524285Y-31408095D01*
%TO.C,J5*%
X233252380Y-125833333D02*
X233966666Y-125833333D01*
X234109523Y-125880952D01*
X234204761Y-125976190D01*
X234252380Y-126119047D01*
X234252380Y-126214285D01*
X233252380Y-124880952D02*
X233252380Y-125357142D01*
X233728571Y-125404761D01*
X233680952Y-125357142D01*
X233633333Y-125261904D01*
X233633333Y-125023809D01*
X233680952Y-124928571D01*
X233728571Y-124880952D01*
X233823809Y-124833333D01*
X234061904Y-124833333D01*
X234157142Y-124880952D01*
X234204761Y-124928571D01*
X234252380Y-125023809D01*
X234252380Y-125261904D01*
X234204761Y-125357142D01*
X234157142Y-125404761D01*
%TO.C,J4*%
X225666666Y-108404380D02*
X225666666Y-109118666D01*
X225619047Y-109261523D01*
X225523809Y-109356761D01*
X225380952Y-109404380D01*
X225285714Y-109404380D01*
X226571428Y-108737714D02*
X226571428Y-109404380D01*
X226333333Y-108356761D02*
X226095238Y-109071047D01*
X226714285Y-109071047D01*
%TO.C,J3*%
X58952380Y-99083333D02*
X59666666Y-99083333D01*
X59809523Y-99130952D01*
X59904761Y-99226190D01*
X59952380Y-99369047D01*
X59952380Y-99464285D01*
X58952380Y-98702380D02*
X58952380Y-98083333D01*
X59333333Y-98416666D01*
X59333333Y-98273809D01*
X59380952Y-98178571D01*
X59428571Y-98130952D01*
X59523809Y-98083333D01*
X59761904Y-98083333D01*
X59857142Y-98130952D01*
X59904761Y-98178571D01*
X59952380Y-98273809D01*
X59952380Y-98559523D01*
X59904761Y-98654761D01*
X59857142Y-98702380D01*
%TO.C,J2*%
X58952380Y-63083333D02*
X59666666Y-63083333D01*
X59809523Y-63130952D01*
X59904761Y-63226190D01*
X59952380Y-63369047D01*
X59952380Y-63464285D01*
X59047619Y-62654761D02*
X59000000Y-62607142D01*
X58952380Y-62511904D01*
X58952380Y-62273809D01*
X59000000Y-62178571D01*
X59047619Y-62130952D01*
X59142857Y-62083333D01*
X59238095Y-62083333D01*
X59380952Y-62130952D01*
X59952380Y-62702380D01*
X59952380Y-62083333D01*
%TO.C,J1*%
X229952380Y-71083333D02*
X230666666Y-71083333D01*
X230809523Y-71130952D01*
X230904761Y-71226190D01*
X230952380Y-71369047D01*
X230952380Y-71464285D01*
X230952380Y-70083333D02*
X230952380Y-70654761D01*
X230952380Y-70369047D02*
X229952380Y-70369047D01*
X230095238Y-70464285D01*
X230190476Y-70559523D01*
X230238095Y-70654761D01*
%TO.C,C_BOARD1*%
X233667142Y-140250000D02*
X233714761Y-140297619D01*
X233762380Y-140440476D01*
X233762380Y-140535714D01*
X233714761Y-140678571D01*
X233619523Y-140773809D01*
X233524285Y-140821428D01*
X233333809Y-140869047D01*
X233190952Y-140869047D01*
X233000476Y-140821428D01*
X232905238Y-140773809D01*
X232810000Y-140678571D01*
X232762380Y-140535714D01*
X232762380Y-140440476D01*
X232810000Y-140297619D01*
X232857619Y-140250000D01*
X233857619Y-140059523D02*
X233857619Y-139297619D01*
X233238571Y-138726190D02*
X233286190Y-138583333D01*
X233333809Y-138535714D01*
X233429047Y-138488095D01*
X233571904Y-138488095D01*
X233667142Y-138535714D01*
X233714761Y-138583333D01*
X233762380Y-138678571D01*
X233762380Y-139059523D01*
X232762380Y-139059523D01*
X232762380Y-138726190D01*
X232810000Y-138630952D01*
X232857619Y-138583333D01*
X232952857Y-138535714D01*
X233048095Y-138535714D01*
X233143333Y-138583333D01*
X233190952Y-138630952D01*
X233238571Y-138726190D01*
X233238571Y-139059523D01*
X232762380Y-137869047D02*
X232762380Y-137678571D01*
X232810000Y-137583333D01*
X232905238Y-137488095D01*
X233095714Y-137440476D01*
X233429047Y-137440476D01*
X233619523Y-137488095D01*
X233714761Y-137583333D01*
X233762380Y-137678571D01*
X233762380Y-137869047D01*
X233714761Y-137964285D01*
X233619523Y-138059523D01*
X233429047Y-138107142D01*
X233095714Y-138107142D01*
X232905238Y-138059523D01*
X232810000Y-137964285D01*
X232762380Y-137869047D01*
X233476666Y-137059523D02*
X233476666Y-136583333D01*
X233762380Y-137154761D02*
X232762380Y-136821428D01*
X233762380Y-136488095D01*
X233762380Y-135583333D02*
X233286190Y-135916666D01*
X233762380Y-136154761D02*
X232762380Y-136154761D01*
X232762380Y-135773809D01*
X232810000Y-135678571D01*
X232857619Y-135630952D01*
X232952857Y-135583333D01*
X233095714Y-135583333D01*
X233190952Y-135630952D01*
X233238571Y-135678571D01*
X233286190Y-135773809D01*
X233286190Y-136154761D01*
X233762380Y-135154761D02*
X232762380Y-135154761D01*
X232762380Y-134916666D01*
X232810000Y-134773809D01*
X232905238Y-134678571D01*
X233000476Y-134630952D01*
X233190952Y-134583333D01*
X233333809Y-134583333D01*
X233524285Y-134630952D01*
X233619523Y-134678571D01*
X233714761Y-134773809D01*
X233762380Y-134916666D01*
X233762380Y-135154761D01*
X233762380Y-133630952D02*
X233762380Y-134202380D01*
X233762380Y-133916666D02*
X232762380Y-133916666D01*
X232905238Y-134011904D01*
X233000476Y-134107142D01*
X233048095Y-134202380D01*
%TO.C,ADD4.2*%
X176836666Y-64618571D02*
X176836666Y-64142380D01*
X177122380Y-64713809D02*
X176122380Y-64380476D01*
X177122380Y-64047142D01*
X177122380Y-63713809D02*
X176122380Y-63713809D01*
X176122380Y-63475714D01*
X176170000Y-63332857D01*
X176265238Y-63237619D01*
X176360476Y-63190000D01*
X176550952Y-63142380D01*
X176693809Y-63142380D01*
X176884285Y-63190000D01*
X176979523Y-63237619D01*
X177074761Y-63332857D01*
X177122380Y-63475714D01*
X177122380Y-63713809D01*
X177122380Y-62713809D02*
X176122380Y-62713809D01*
X176122380Y-62475714D01*
X176170000Y-62332857D01*
X176265238Y-62237619D01*
X176360476Y-62190000D01*
X176550952Y-62142380D01*
X176693809Y-62142380D01*
X176884285Y-62190000D01*
X176979523Y-62237619D01*
X177074761Y-62332857D01*
X177122380Y-62475714D01*
X177122380Y-62713809D01*
X176455714Y-61285238D02*
X177122380Y-61285238D01*
X176074761Y-61523333D02*
X176789047Y-61761428D01*
X176789047Y-61142380D01*
X177027142Y-60761428D02*
X177074761Y-60713809D01*
X177122380Y-60761428D01*
X177074761Y-60809047D01*
X177027142Y-60761428D01*
X177122380Y-60761428D01*
X176217619Y-60332857D02*
X176170000Y-60285238D01*
X176122380Y-60190000D01*
X176122380Y-59951904D01*
X176170000Y-59856666D01*
X176217619Y-59809047D01*
X176312857Y-59761428D01*
X176408095Y-59761428D01*
X176550952Y-59809047D01*
X177122380Y-60380476D01*
X177122380Y-59761428D01*
%TO.C,ADD4.1*%
X184351428Y-29166666D02*
X184827619Y-29166666D01*
X184256190Y-29452380D02*
X184589523Y-28452380D01*
X184922857Y-29452380D01*
X185256190Y-29452380D02*
X185256190Y-28452380D01*
X185494285Y-28452380D01*
X185637142Y-28500000D01*
X185732380Y-28595238D01*
X185780000Y-28690476D01*
X185827619Y-28880952D01*
X185827619Y-29023809D01*
X185780000Y-29214285D01*
X185732380Y-29309523D01*
X185637142Y-29404761D01*
X185494285Y-29452380D01*
X185256190Y-29452380D01*
X186256190Y-29452380D02*
X186256190Y-28452380D01*
X186494285Y-28452380D01*
X186637142Y-28500000D01*
X186732380Y-28595238D01*
X186780000Y-28690476D01*
X186827619Y-28880952D01*
X186827619Y-29023809D01*
X186780000Y-29214285D01*
X186732380Y-29309523D01*
X186637142Y-29404761D01*
X186494285Y-29452380D01*
X186256190Y-29452380D01*
X187684761Y-28785714D02*
X187684761Y-29452380D01*
X187446666Y-28404761D02*
X187208571Y-29119047D01*
X187827619Y-29119047D01*
X188208571Y-29357142D02*
X188256190Y-29404761D01*
X188208571Y-29452380D01*
X188160952Y-29404761D01*
X188208571Y-29357142D01*
X188208571Y-29452380D01*
X189208571Y-29452380D02*
X188637142Y-29452380D01*
X188922857Y-29452380D02*
X188922857Y-28452380D01*
X188827619Y-28595238D01*
X188732380Y-28690476D01*
X188637142Y-28738095D01*
%TO.C,ADD4.3*%
X176836666Y-94618571D02*
X176836666Y-94142380D01*
X177122380Y-94713809D02*
X176122380Y-94380476D01*
X177122380Y-94047142D01*
X177122380Y-93713809D02*
X176122380Y-93713809D01*
X176122380Y-93475714D01*
X176170000Y-93332857D01*
X176265238Y-93237619D01*
X176360476Y-93190000D01*
X176550952Y-93142380D01*
X176693809Y-93142380D01*
X176884285Y-93190000D01*
X176979523Y-93237619D01*
X177074761Y-93332857D01*
X177122380Y-93475714D01*
X177122380Y-93713809D01*
X177122380Y-92713809D02*
X176122380Y-92713809D01*
X176122380Y-92475714D01*
X176170000Y-92332857D01*
X176265238Y-92237619D01*
X176360476Y-92190000D01*
X176550952Y-92142380D01*
X176693809Y-92142380D01*
X176884285Y-92190000D01*
X176979523Y-92237619D01*
X177074761Y-92332857D01*
X177122380Y-92475714D01*
X177122380Y-92713809D01*
X176455714Y-91285238D02*
X177122380Y-91285238D01*
X176074761Y-91523333D02*
X176789047Y-91761428D01*
X176789047Y-91142380D01*
X177027142Y-90761428D02*
X177074761Y-90713809D01*
X177122380Y-90761428D01*
X177074761Y-90809047D01*
X177027142Y-90761428D01*
X177122380Y-90761428D01*
X176122380Y-90380476D02*
X176122380Y-89761428D01*
X176503333Y-90094761D01*
X176503333Y-89951904D01*
X176550952Y-89856666D01*
X176598571Y-89809047D01*
X176693809Y-89761428D01*
X176931904Y-89761428D01*
X177027142Y-89809047D01*
X177074761Y-89856666D01*
X177122380Y-89951904D01*
X177122380Y-90237619D01*
X177074761Y-90332857D01*
X177027142Y-90380476D01*
%TO.C,ADD4.4*%
X176836666Y-129618571D02*
X176836666Y-129142380D01*
X177122380Y-129713809D02*
X176122380Y-129380476D01*
X177122380Y-129047142D01*
X177122380Y-128713809D02*
X176122380Y-128713809D01*
X176122380Y-128475714D01*
X176170000Y-128332857D01*
X176265238Y-128237619D01*
X176360476Y-128190000D01*
X176550952Y-128142380D01*
X176693809Y-128142380D01*
X176884285Y-128190000D01*
X176979523Y-128237619D01*
X177074761Y-128332857D01*
X177122380Y-128475714D01*
X177122380Y-128713809D01*
X177122380Y-127713809D02*
X176122380Y-127713809D01*
X176122380Y-127475714D01*
X176170000Y-127332857D01*
X176265238Y-127237619D01*
X176360476Y-127190000D01*
X176550952Y-127142380D01*
X176693809Y-127142380D01*
X176884285Y-127190000D01*
X176979523Y-127237619D01*
X177074761Y-127332857D01*
X177122380Y-127475714D01*
X177122380Y-127713809D01*
X176455714Y-126285238D02*
X177122380Y-126285238D01*
X176074761Y-126523333D02*
X176789047Y-126761428D01*
X176789047Y-126142380D01*
X177027142Y-125761428D02*
X177074761Y-125713809D01*
X177122380Y-125761428D01*
X177074761Y-125809047D01*
X177027142Y-125761428D01*
X177122380Y-125761428D01*
X176455714Y-124856666D02*
X177122380Y-124856666D01*
X176074761Y-125094761D02*
X176789047Y-125332857D01*
X176789047Y-124713809D01*
%TD*%
M02*
