%TF.GenerationSoftware,KiCad,Pcbnew,(5.1.10)-1*%
%TF.CreationDate,2021-10-27T19:24:49+02:00*%
%TF.ProjectId,Program Counter,50726f67-7261-46d2-9043-6f756e746572,rev1.0*%
%TF.SameCoordinates,Original*%
%TF.FileFunction,Copper,L1,Top*%
%TF.FilePolarity,Positive*%
%FSLAX46Y46*%
G04 Gerber Fmt 4.6, Leading zero omitted, Abs format (unit mm)*
G04 Created by KiCad (PCBNEW (5.1.10)-1) date 2021-10-27 19:24:49*
%MOMM*%
%LPD*%
G01*
G04 APERTURE LIST*
%TA.AperFunction,ComponentPad*%
%ADD10O,1.750000X1.200000*%
%TD*%
%TA.AperFunction,ComponentPad*%
%ADD11C,2.000000*%
%TD*%
%TA.AperFunction,ComponentPad*%
%ADD12C,1.500000*%
%TD*%
%TA.AperFunction,ComponentPad*%
%ADD13R,1.500000X1.500000*%
%TD*%
%TA.AperFunction,ComponentPad*%
%ADD14C,1.650000*%
%TD*%
%TA.AperFunction,ComponentPad*%
%ADD15R,1.650000X1.650000*%
%TD*%
%TA.AperFunction,ComponentPad*%
%ADD16C,7.000000*%
%TD*%
%TA.AperFunction,ComponentPad*%
%ADD17C,0.800000*%
%TD*%
%TA.AperFunction,ComponentPad*%
%ADD18C,1.600000*%
%TD*%
%TA.AperFunction,ComponentPad*%
%ADD19O,1.600000X1.600000*%
%TD*%
%TA.AperFunction,ComponentPad*%
%ADD20R,1.600000X1.600000*%
%TD*%
%TA.AperFunction,ComponentPad*%
%ADD21C,1.400000*%
%TD*%
%TA.AperFunction,ComponentPad*%
%ADD22O,1.400000X1.400000*%
%TD*%
%TA.AperFunction,ComponentPad*%
%ADD23C,2.340000*%
%TD*%
%TA.AperFunction,ComponentPad*%
%ADD24R,1.750000X1.750000*%
%TD*%
%TA.AperFunction,ComponentPad*%
%ADD25C,1.750000*%
%TD*%
%TA.AperFunction,ViaPad*%
%ADD26C,0.800000*%
%TD*%
%TA.AperFunction,Conductor*%
%ADD27C,0.254000*%
%TD*%
%TA.AperFunction,Conductor*%
%ADD28C,0.508000*%
%TD*%
G04 APERTURE END LIST*
D10*
%TO.P,J5,2*%
%TO.N,+5V*%
X229000000Y-125000000D03*
%TO.P,J5,1*%
%TO.N,GNDREF*%
%TA.AperFunction,ComponentPad*%
G36*
G01*
X228374999Y-122400000D02*
X229625001Y-122400000D01*
G75*
G02*
X229875000Y-122649999I0J-249999D01*
G01*
X229875000Y-123350001D01*
G75*
G02*
X229625001Y-123600000I-249999J0D01*
G01*
X228374999Y-123600000D01*
G75*
G02*
X228125000Y-123350001I0J249999D01*
G01*
X228125000Y-122649999D01*
G75*
G02*
X228374999Y-122400000I249999J0D01*
G01*
G37*
%TD.AperFunction*%
%TD*%
D11*
%TO.P,J4,1*%
%TO.N,CLK*%
X226000000Y-112000000D03*
%TD*%
D12*
%TO.P,J6,6*%
%TO.N,Net-(J6-Pad6)*%
X204080000Y-142000000D03*
%TO.P,J6,5*%
%TO.N,Net-(J6-Pad5)*%
X201540000Y-142000000D03*
%TO.P,J6,4*%
%TO.N,JMP_ABS*%
X199000000Y-142000000D03*
%TO.P,J6,3*%
%TO.N,~STALL*%
X204080000Y-144540000D03*
%TO.P,J6,2*%
%TO.N,REL_SIGN*%
X201540000Y-144540000D03*
D13*
%TO.P,J6,1*%
%TO.N,JMP_IN*%
X199000000Y-144540000D03*
%TD*%
D14*
%TO.P,J2,16*%
%TO.N,/OFF15*%
X58540000Y-61780000D03*
%TO.P,J2,15*%
%TO.N,/OFF14*%
X56000000Y-61780000D03*
%TO.P,J2,14*%
%TO.N,/OFF13*%
X58540000Y-59240000D03*
%TO.P,J2,13*%
%TO.N,/OFF12*%
X56000000Y-59240000D03*
%TO.P,J2,12*%
%TO.N,/OFF11*%
X58540000Y-56700000D03*
%TO.P,J2,11*%
%TO.N,/OFF10*%
X56000000Y-56700000D03*
%TO.P,J2,10*%
%TO.N,/OFF9*%
X58540000Y-54160000D03*
%TO.P,J2,9*%
%TO.N,/OFF8*%
X56000000Y-54160000D03*
%TO.P,J2,8*%
%TO.N,/OFF7*%
X58540000Y-51620000D03*
%TO.P,J2,7*%
%TO.N,/OFF6*%
X56000000Y-51620000D03*
%TO.P,J2,6*%
%TO.N,/OFF5*%
X58540000Y-49080000D03*
%TO.P,J2,5*%
%TO.N,/OFF4*%
X56000000Y-49080000D03*
%TO.P,J2,4*%
%TO.N,/OFF3*%
X58540000Y-46540000D03*
%TO.P,J2,3*%
%TO.N,/OFF2*%
X56000000Y-46540000D03*
%TO.P,J2,2*%
%TO.N,/OFF1*%
X58540000Y-44000000D03*
D15*
%TO.P,J2,1*%
%TO.N,/OFF0*%
X56000000Y-44000000D03*
%TD*%
D14*
%TO.P,J1,16*%
%TO.N,/O15*%
X229540000Y-69780000D03*
%TO.P,J1,15*%
%TO.N,/O14*%
X227000000Y-69780000D03*
%TO.P,J1,14*%
%TO.N,/O13*%
X229540000Y-67240000D03*
%TO.P,J1,13*%
%TO.N,/O12*%
X227000000Y-67240000D03*
%TO.P,J1,12*%
%TO.N,/O11*%
X229540000Y-64700000D03*
%TO.P,J1,11*%
%TO.N,/O10*%
X227000000Y-64700000D03*
%TO.P,J1,10*%
%TO.N,/O9*%
X229540000Y-62160000D03*
%TO.P,J1,9*%
%TO.N,/O8*%
X227000000Y-62160000D03*
%TO.P,J1,8*%
%TO.N,/O7*%
X229540000Y-59620000D03*
%TO.P,J1,7*%
%TO.N,/O6*%
X227000000Y-59620000D03*
%TO.P,J1,6*%
%TO.N,/O5*%
X229540000Y-57080000D03*
%TO.P,J1,5*%
%TO.N,/O4*%
X227000000Y-57080000D03*
%TO.P,J1,4*%
%TO.N,/O3*%
X229540000Y-54540000D03*
%TO.P,J1,3*%
%TO.N,/O2*%
X227000000Y-54540000D03*
%TO.P,J1,2*%
%TO.N,/O1*%
X229540000Y-52000000D03*
D15*
%TO.P,J1,1*%
%TO.N,/O0*%
X227000000Y-52000000D03*
%TD*%
D16*
%TO.P,H8,1*%
%TO.N,GNDREF*%
X56000000Y-152000000D03*
D17*
X58625000Y-152000000D03*
X57856155Y-153856155D03*
X56000000Y-154625000D03*
X54143845Y-153856155D03*
X53375000Y-152000000D03*
X54143845Y-150143845D03*
X56000000Y-149375000D03*
X57856155Y-150143845D03*
%TD*%
D16*
%TO.P,H7,1*%
%TO.N,GNDREF*%
X224000000Y-25000000D03*
D17*
X226625000Y-25000000D03*
X225856155Y-26856155D03*
X224000000Y-27625000D03*
X222143845Y-26856155D03*
X221375000Y-25000000D03*
X222143845Y-23143845D03*
X224000000Y-22375000D03*
X225856155Y-23143845D03*
%TD*%
D16*
%TO.P,H6,1*%
%TO.N,+5V*%
X56000000Y-25000000D03*
D17*
X58625000Y-25000000D03*
X57856155Y-26856155D03*
X56000000Y-27625000D03*
X54143845Y-26856155D03*
X53375000Y-25000000D03*
X54143845Y-23143845D03*
X56000000Y-22375000D03*
X57856155Y-23143845D03*
%TD*%
D16*
%TO.P,H5,1*%
%TO.N,+5V*%
X225000000Y-152000000D03*
D17*
X227625000Y-152000000D03*
X226856155Y-153856155D03*
X225000000Y-154625000D03*
X223143845Y-153856155D03*
X222375000Y-152000000D03*
X223143845Y-150143845D03*
X225000000Y-149375000D03*
X226856155Y-150143845D03*
%TD*%
D16*
%TO.P,H4,1*%
%TO.N,N/C*%
X234000000Y-25000000D03*
D17*
X236625000Y-25000000D03*
X235856155Y-26856155D03*
X234000000Y-27625000D03*
X232143845Y-26856155D03*
X231375000Y-25000000D03*
X232143845Y-23143845D03*
X234000000Y-22375000D03*
X235856155Y-23143845D03*
%TD*%
D16*
%TO.P,H3,1*%
%TO.N,N/C*%
X234000000Y-152000000D03*
D17*
X236625000Y-152000000D03*
X235856155Y-153856155D03*
X234000000Y-154625000D03*
X232143845Y-153856155D03*
X231375000Y-152000000D03*
X232143845Y-150143845D03*
X234000000Y-149375000D03*
X235856155Y-150143845D03*
%TD*%
D16*
%TO.P,H2,1*%
%TO.N,N/C*%
X46000000Y-152000000D03*
D17*
X48625000Y-152000000D03*
X47856155Y-153856155D03*
X46000000Y-154625000D03*
X44143845Y-153856155D03*
X43375000Y-152000000D03*
X44143845Y-150143845D03*
X46000000Y-149375000D03*
X47856155Y-150143845D03*
%TD*%
D16*
%TO.P,H1,1*%
%TO.N,N/C*%
X46000000Y-25000000D03*
D17*
X48625000Y-25000000D03*
X47856155Y-26856155D03*
X46000000Y-27625000D03*
X44143845Y-26856155D03*
X43375000Y-25000000D03*
X44143845Y-23143845D03*
X46000000Y-22375000D03*
X47856155Y-23143845D03*
%TD*%
D18*
%TO.P,C13,1*%
%TO.N,GNDREF*%
X152000000Y-87000000D03*
D19*
%TO.P,C13,2*%
%TO.N,+5V*%
X159500000Y-87000000D03*
%TD*%
D18*
%TO.P,C12,1*%
%TO.N,GNDREF*%
X151500000Y-61000000D03*
D19*
%TO.P,C12,2*%
%TO.N,+5V*%
X159000000Y-61000000D03*
%TD*%
D18*
%TO.P,C11,1*%
%TO.N,GNDREF*%
X101000000Y-145000000D03*
D19*
%TO.P,C11,2*%
%TO.N,+5V*%
X93500000Y-145000000D03*
%TD*%
D18*
%TO.P,C10,1*%
%TO.N,GNDREF*%
X94000000Y-92000000D03*
D19*
%TO.P,C10,2*%
%TO.N,+5V*%
X101500000Y-92000000D03*
%TD*%
D18*
%TO.P,C9,1*%
%TO.N,GNDREF*%
X94000000Y-81000000D03*
D19*
%TO.P,C9,2*%
%TO.N,+5V*%
X101500000Y-81000000D03*
%TD*%
D18*
%TO.P,C8,1*%
%TO.N,GNDREF*%
X94000000Y-29000000D03*
D19*
%TO.P,C8,2*%
%TO.N,+5V*%
X101500000Y-29000000D03*
%TD*%
D18*
%TO.P,C7,1*%
%TO.N,+5V*%
X202000000Y-131000000D03*
D19*
%TO.P,C7,2*%
%TO.N,GNDREF*%
X202000000Y-123500000D03*
%TD*%
D18*
%TO.P,C6,1*%
%TO.N,+5V*%
X203000000Y-96000000D03*
D19*
%TO.P,C6,2*%
%TO.N,GNDREF*%
X203000000Y-88500000D03*
%TD*%
D18*
%TO.P,C5,1*%
%TO.N,+5V*%
X202000000Y-66000000D03*
D19*
%TO.P,C5,2*%
%TO.N,GNDREF*%
X202000000Y-58500000D03*
%TD*%
D18*
%TO.P,C4,1*%
%TO.N,+5V*%
X203000000Y-39000000D03*
D19*
%TO.P,C4,2*%
%TO.N,GNDREF*%
X203000000Y-31500000D03*
%TD*%
D18*
%TO.P,C3,1*%
%TO.N,~PC_CLR*%
X171000000Y-143000000D03*
D19*
%TO.P,C3,2*%
%TO.N,GNDREF*%
X178500000Y-143000000D03*
%TD*%
D18*
%TO.P,C2,1*%
%TO.N,GNDREF*%
X125000000Y-120000000D03*
D19*
%TO.P,C2,2*%
%TO.N,+5V*%
X132500000Y-120000000D03*
%TD*%
D18*
%TO.P,C1,1*%
%TO.N,GNDREF*%
X125000000Y-66040000D03*
D19*
%TO.P,C1,2*%
%TO.N,+5V*%
X132500000Y-66040000D03*
%TD*%
D20*
%TO.P,REG8.2,1*%
%TO.N,GNDREF*%
X125000000Y-88000000D03*
D19*
%TO.P,REG8.2,13*%
%TO.N,CLK*%
X132620000Y-115940000D03*
%TO.P,REG8.2,2*%
%TO.N,GNDREF*%
X125000000Y-90540000D03*
%TO.P,REG8.2,14*%
%TO.N,~STALL*%
X132620000Y-113400000D03*
%TO.P,REG8.2,3*%
%TO.N,/N8*%
X125000000Y-93080000D03*
%TO.P,REG8.2,15*%
%TO.N,/O15*%
X132620000Y-110860000D03*
%TO.P,REG8.2,4*%
%TO.N,/N9*%
X125000000Y-95620000D03*
%TO.P,REG8.2,16*%
%TO.N,/O14*%
X132620000Y-108320000D03*
%TO.P,REG8.2,5*%
%TO.N,/N10*%
X125000000Y-98160000D03*
%TO.P,REG8.2,17*%
%TO.N,/O13*%
X132620000Y-105780000D03*
%TO.P,REG8.2,6*%
%TO.N,/N11*%
X125000000Y-100700000D03*
%TO.P,REG8.2,18*%
%TO.N,/O12*%
X132620000Y-103240000D03*
%TO.P,REG8.2,7*%
%TO.N,/N12*%
X125000000Y-103240000D03*
%TO.P,REG8.2,19*%
%TO.N,/O11*%
X132620000Y-100700000D03*
%TO.P,REG8.2,8*%
%TO.N,/N13*%
X125000000Y-105780000D03*
%TO.P,REG8.2,20*%
%TO.N,/O10*%
X132620000Y-98160000D03*
%TO.P,REG8.2,9*%
%TO.N,/N14*%
X125000000Y-108320000D03*
%TO.P,REG8.2,21*%
%TO.N,/O9*%
X132620000Y-95620000D03*
%TO.P,REG8.2,10*%
%TO.N,/N15*%
X125000000Y-110860000D03*
%TO.P,REG8.2,22*%
%TO.N,/O8*%
X132620000Y-93080000D03*
%TO.P,REG8.2,11*%
%TO.N,~PC_CLR*%
X125000000Y-113400000D03*
%TO.P,REG8.2,23*%
%TO.N,GNDREF*%
X132620000Y-90540000D03*
%TO.P,REG8.2,12*%
X125000000Y-115940000D03*
%TO.P,REG8.2,24*%
%TO.N,+5V*%
X132620000Y-88000000D03*
%TD*%
D20*
%TO.P,REG8.1,1*%
%TO.N,GNDREF*%
X125000000Y-33000000D03*
D19*
%TO.P,REG8.1,13*%
%TO.N,CLK*%
X132620000Y-60940000D03*
%TO.P,REG8.1,2*%
%TO.N,GNDREF*%
X125000000Y-35540000D03*
%TO.P,REG8.1,14*%
%TO.N,~STALL*%
X132620000Y-58400000D03*
%TO.P,REG8.1,3*%
%TO.N,/N0*%
X125000000Y-38080000D03*
%TO.P,REG8.1,15*%
%TO.N,/O7*%
X132620000Y-55860000D03*
%TO.P,REG8.1,4*%
%TO.N,/N1*%
X125000000Y-40620000D03*
%TO.P,REG8.1,16*%
%TO.N,/O6*%
X132620000Y-53320000D03*
%TO.P,REG8.1,5*%
%TO.N,/N2*%
X125000000Y-43160000D03*
%TO.P,REG8.1,17*%
%TO.N,/O5*%
X132620000Y-50780000D03*
%TO.P,REG8.1,6*%
%TO.N,/N3*%
X125000000Y-45700000D03*
%TO.P,REG8.1,18*%
%TO.N,/O4*%
X132620000Y-48240000D03*
%TO.P,REG8.1,7*%
%TO.N,/N4*%
X125000000Y-48240000D03*
%TO.P,REG8.1,19*%
%TO.N,/O3*%
X132620000Y-45700000D03*
%TO.P,REG8.1,8*%
%TO.N,/N5*%
X125000000Y-50780000D03*
%TO.P,REG8.1,20*%
%TO.N,/O2*%
X132620000Y-43160000D03*
%TO.P,REG8.1,9*%
%TO.N,/N6*%
X125000000Y-53320000D03*
%TO.P,REG8.1,21*%
%TO.N,/O1*%
X132620000Y-40620000D03*
%TO.P,REG8.1,10*%
%TO.N,/N7*%
X125000000Y-55860000D03*
%TO.P,REG8.1,22*%
%TO.N,/O0*%
X132620000Y-38080000D03*
%TO.P,REG8.1,11*%
%TO.N,~PC_CLR*%
X125000000Y-58400000D03*
%TO.P,REG8.1,23*%
%TO.N,GNDREF*%
X132620000Y-35540000D03*
%TO.P,REG8.1,12*%
X125000000Y-60940000D03*
%TO.P,REG8.1,24*%
%TO.N,+5V*%
X132620000Y-33000000D03*
%TD*%
D21*
%TO.P,R14,1*%
%TO.N,GNDREF*%
X54000000Y-124000000D03*
D22*
%TO.P,R14,2*%
%TO.N,JMP_IN*%
X61620000Y-124000000D03*
%TD*%
D21*
%TO.P,R10,1*%
%TO.N,GNDREF*%
X131000000Y-137000000D03*
D22*
%TO.P,R10,2*%
%TO.N,Net-(ADD4.4-Pad9)*%
X123380000Y-137000000D03*
%TD*%
D21*
%TO.P,R6,1*%
%TO.N,+5V*%
X131000000Y-132000000D03*
D22*
%TO.P,R6,2*%
%TO.N,Net-(POT1-Pad1)*%
X123380000Y-132000000D03*
%TD*%
D21*
%TO.P,R5,1*%
%TO.N,GNDREF*%
X54000000Y-119000000D03*
D22*
%TO.P,R5,2*%
%TO.N,~STALL*%
X61620000Y-119000000D03*
%TD*%
D21*
%TO.P,R4,1*%
%TO.N,GNDREF*%
X54000000Y-129000000D03*
D22*
%TO.P,R4,2*%
%TO.N,JMP_ABS*%
X61620000Y-129000000D03*
%TD*%
D23*
%TO.P,POT1,3*%
%TO.N,Net-(POT1-Pad3)*%
X160000000Y-143000000D03*
%TO.P,POT1,2*%
%TO.N,~PC_CLR*%
X155000000Y-138000000D03*
%TO.P,POT1,1*%
%TO.N,Net-(POT1-Pad1)*%
X150000000Y-143000000D03*
%TD*%
D20*
%TO.P,MUXB2,1*%
%TO.N,JMP_IN*%
X152000000Y-91000000D03*
D19*
%TO.P,MUXB2,9*%
%TO.N,/R6*%
X159620000Y-108780000D03*
%TO.P,MUXB2,2*%
%TO.N,GNDREF*%
X152000000Y-93540000D03*
%TO.P,MUXB2,10*%
%TO.N,/OFF6*%
X159620000Y-106240000D03*
%TO.P,MUXB2,3*%
%TO.N,/OFF4*%
X152000000Y-96080000D03*
%TO.P,MUXB2,11*%
%TO.N,GNDREF*%
X159620000Y-103700000D03*
%TO.P,MUXB2,4*%
%TO.N,/R4*%
X152000000Y-98620000D03*
%TO.P,MUXB2,12*%
%TO.N,/R7*%
X159620000Y-101160000D03*
%TO.P,MUXB2,5*%
%TO.N,GNDREF*%
X152000000Y-101160000D03*
%TO.P,MUXB2,13*%
%TO.N,/OFF7*%
X159620000Y-98620000D03*
%TO.P,MUXB2,6*%
%TO.N,/OFF5*%
X152000000Y-103700000D03*
%TO.P,MUXB2,14*%
%TO.N,GNDREF*%
X159620000Y-96080000D03*
%TO.P,MUXB2,7*%
%TO.N,/R5*%
X152000000Y-106240000D03*
%TO.P,MUXB2,15*%
%TO.N,GNDREF*%
X159620000Y-93540000D03*
%TO.P,MUXB2,8*%
X152000000Y-108780000D03*
%TO.P,MUXB2,16*%
%TO.N,+5V*%
X159620000Y-91000000D03*
%TD*%
D20*
%TO.P,MUXB1,1*%
%TO.N,JMP_IN*%
X159000000Y-55000000D03*
D19*
%TO.P,MUXB1,9*%
%TO.N,/R2*%
X151380000Y-37220000D03*
%TO.P,MUXB1,2*%
%TO.N,GNDREF*%
X159000000Y-52460000D03*
%TO.P,MUXB1,10*%
%TO.N,/OFF2*%
X151380000Y-39760000D03*
%TO.P,MUXB1,3*%
%TO.N,/OFF0*%
X159000000Y-49920000D03*
%TO.P,MUXB1,11*%
%TO.N,GNDREF*%
X151380000Y-42300000D03*
%TO.P,MUXB1,4*%
%TO.N,/R0*%
X159000000Y-47380000D03*
%TO.P,MUXB1,12*%
%TO.N,/R3*%
X151380000Y-44840000D03*
%TO.P,MUXB1,5*%
%TO.N,+5V*%
X159000000Y-44840000D03*
%TO.P,MUXB1,13*%
%TO.N,/OFF3*%
X151380000Y-47380000D03*
%TO.P,MUXB1,6*%
%TO.N,/OFF1*%
X159000000Y-42300000D03*
%TO.P,MUXB1,14*%
%TO.N,GNDREF*%
X151380000Y-49920000D03*
%TO.P,MUXB1,7*%
%TO.N,/R1*%
X159000000Y-39760000D03*
%TO.P,MUXB1,15*%
%TO.N,GNDREF*%
X151380000Y-52460000D03*
%TO.P,MUXB1,8*%
X159000000Y-37220000D03*
%TO.P,MUXB1,16*%
%TO.N,+5V*%
X151380000Y-55000000D03*
%TD*%
D20*
%TO.P,MUXA4,1*%
%TO.N,JMP_ABS*%
X94000000Y-123000000D03*
D19*
%TO.P,MUXA4,9*%
%TO.N,/N14*%
X101620000Y-140780000D03*
%TO.P,MUXA4,2*%
%TO.N,/S12*%
X94000000Y-125540000D03*
%TO.P,MUXA4,10*%
%TO.N,/OFF14*%
X101620000Y-138240000D03*
%TO.P,MUXA4,3*%
%TO.N,/OFF12*%
X94000000Y-128080000D03*
%TO.P,MUXA4,11*%
%TO.N,/S14*%
X101620000Y-135700000D03*
%TO.P,MUXA4,4*%
%TO.N,/N12*%
X94000000Y-130620000D03*
%TO.P,MUXA4,12*%
%TO.N,/N15*%
X101620000Y-133160000D03*
%TO.P,MUXA4,5*%
%TO.N,/S13*%
X94000000Y-133160000D03*
%TO.P,MUXA4,13*%
%TO.N,/OFF15*%
X101620000Y-130620000D03*
%TO.P,MUXA4,6*%
%TO.N,/OFF13*%
X94000000Y-135700000D03*
%TO.P,MUXA4,14*%
%TO.N,/S15*%
X101620000Y-128080000D03*
%TO.P,MUXA4,7*%
%TO.N,/N13*%
X94000000Y-138240000D03*
%TO.P,MUXA4,15*%
%TO.N,GNDREF*%
X101620000Y-125540000D03*
%TO.P,MUXA4,8*%
X94000000Y-140780000D03*
%TO.P,MUXA4,16*%
%TO.N,+5V*%
X101620000Y-123000000D03*
%TD*%
D20*
%TO.P,MUXA3,1*%
%TO.N,JMP_ABS*%
X94000000Y-98000000D03*
D19*
%TO.P,MUXA3,9*%
%TO.N,/N10*%
X101620000Y-115780000D03*
%TO.P,MUXA3,2*%
%TO.N,/S8*%
X94000000Y-100540000D03*
%TO.P,MUXA3,10*%
%TO.N,/OFF10*%
X101620000Y-113240000D03*
%TO.P,MUXA3,3*%
%TO.N,/OFF8*%
X94000000Y-103080000D03*
%TO.P,MUXA3,11*%
%TO.N,/S10*%
X101620000Y-110700000D03*
%TO.P,MUXA3,4*%
%TO.N,/N8*%
X94000000Y-105620000D03*
%TO.P,MUXA3,12*%
%TO.N,/N11*%
X101620000Y-108160000D03*
%TO.P,MUXA3,5*%
%TO.N,/S9*%
X94000000Y-108160000D03*
%TO.P,MUXA3,13*%
%TO.N,/OFF11*%
X101620000Y-105620000D03*
%TO.P,MUXA3,6*%
%TO.N,/OFF9*%
X94000000Y-110700000D03*
%TO.P,MUXA3,14*%
%TO.N,/S11*%
X101620000Y-103080000D03*
%TO.P,MUXA3,7*%
%TO.N,/N9*%
X94000000Y-113240000D03*
%TO.P,MUXA3,15*%
%TO.N,GNDREF*%
X101620000Y-100540000D03*
%TO.P,MUXA3,8*%
X94000000Y-115780000D03*
%TO.P,MUXA3,16*%
%TO.N,+5V*%
X101620000Y-98000000D03*
%TD*%
D20*
%TO.P,MUXA2,1*%
%TO.N,JMP_ABS*%
X94000000Y-58000000D03*
D19*
%TO.P,MUXA2,9*%
%TO.N,/N6*%
X101620000Y-75780000D03*
%TO.P,MUXA2,2*%
%TO.N,/S4*%
X94000000Y-60540000D03*
%TO.P,MUXA2,10*%
%TO.N,/OFF6*%
X101620000Y-73240000D03*
%TO.P,MUXA2,3*%
%TO.N,/OFF4*%
X94000000Y-63080000D03*
%TO.P,MUXA2,11*%
%TO.N,/S6*%
X101620000Y-70700000D03*
%TO.P,MUXA2,4*%
%TO.N,/N4*%
X94000000Y-65620000D03*
%TO.P,MUXA2,12*%
%TO.N,/N7*%
X101620000Y-68160000D03*
%TO.P,MUXA2,5*%
%TO.N,/S5*%
X94000000Y-68160000D03*
%TO.P,MUXA2,13*%
%TO.N,/OFF7*%
X101620000Y-65620000D03*
%TO.P,MUXA2,6*%
%TO.N,/OFF5*%
X94000000Y-70700000D03*
%TO.P,MUXA2,14*%
%TO.N,/S7*%
X101620000Y-63080000D03*
%TO.P,MUXA2,7*%
%TO.N,/N5*%
X94000000Y-73240000D03*
%TO.P,MUXA2,15*%
%TO.N,Net-(MUXA2-Pad15)*%
X101620000Y-60540000D03*
%TO.P,MUXA2,8*%
%TO.N,GNDREF*%
X94000000Y-75780000D03*
%TO.P,MUXA2,16*%
%TO.N,+5V*%
X101620000Y-58000000D03*
%TD*%
D20*
%TO.P,MUXA1,1*%
%TO.N,JMP_ABS*%
X94000000Y-34000000D03*
D19*
%TO.P,MUXA1,9*%
%TO.N,/N2*%
X101620000Y-51780000D03*
%TO.P,MUXA1,2*%
%TO.N,/S0*%
X94000000Y-36540000D03*
%TO.P,MUXA1,10*%
%TO.N,/OFF2*%
X101620000Y-49240000D03*
%TO.P,MUXA1,3*%
%TO.N,/OFF0*%
X94000000Y-39080000D03*
%TO.P,MUXA1,11*%
%TO.N,/S2*%
X101620000Y-46700000D03*
%TO.P,MUXA1,4*%
%TO.N,/N0*%
X94000000Y-41620000D03*
%TO.P,MUXA1,12*%
%TO.N,/N3*%
X101620000Y-44160000D03*
%TO.P,MUXA1,5*%
%TO.N,/S1*%
X94000000Y-44160000D03*
%TO.P,MUXA1,13*%
%TO.N,/OFF3*%
X101620000Y-41620000D03*
%TO.P,MUXA1,6*%
%TO.N,/OFF1*%
X94000000Y-46700000D03*
%TO.P,MUXA1,14*%
%TO.N,/S3*%
X101620000Y-39080000D03*
%TO.P,MUXA1,7*%
%TO.N,/N1*%
X94000000Y-49240000D03*
%TO.P,MUXA1,15*%
%TO.N,GNDREF*%
X101620000Y-36540000D03*
%TO.P,MUXA1,8*%
X94000000Y-51780000D03*
%TO.P,MUXA1,16*%
%TO.N,+5V*%
X101620000Y-34000000D03*
%TD*%
D24*
%TO.P,J3,1*%
%TO.N,JMP_IN*%
X56000000Y-95000000D03*
D25*
%TO.P,J3,2*%
%TO.N,REL_SIGN*%
X56000000Y-97500000D03*
%TO.P,J3,3*%
%TO.N,~STALL*%
X56000000Y-100000000D03*
%TO.P,J3,4*%
%TO.N,JMP_ABS*%
X56000000Y-102500000D03*
%TD*%
D20*
%TO.P,C_BOARD1,1*%
%TO.N,+5V*%
X228000000Y-136000000D03*
D18*
%TO.P,C_BOARD1,2*%
%TO.N,GNDREF*%
X228000000Y-138500000D03*
%TD*%
D20*
%TO.P,ADD4.2,1*%
%TO.N,/S5*%
X179000000Y-66000000D03*
D19*
%TO.P,ADD4.2,9*%
%TO.N,Net-(ADD4.2-Pad9)*%
X196780000Y-58380000D03*
%TO.P,ADD4.2,2*%
%TO.N,/OFF5*%
X181540000Y-66000000D03*
%TO.P,ADD4.2,10*%
%TO.N,/S7*%
X194240000Y-58380000D03*
%TO.P,ADD4.2,3*%
%TO.N,/R5*%
X184080000Y-66000000D03*
%TO.P,ADD4.2,11*%
%TO.N,/OFF7*%
X191700000Y-58380000D03*
%TO.P,ADD4.2,4*%
%TO.N,/S4*%
X186620000Y-66000000D03*
%TO.P,ADD4.2,12*%
%TO.N,/R7*%
X189160000Y-58380000D03*
%TO.P,ADD4.2,5*%
%TO.N,/R4*%
X189160000Y-66000000D03*
%TO.P,ADD4.2,13*%
%TO.N,/S6*%
X186620000Y-58380000D03*
%TO.P,ADD4.2,6*%
%TO.N,/OFF4*%
X191700000Y-66000000D03*
%TO.P,ADD4.2,14*%
%TO.N,/R6*%
X184080000Y-58380000D03*
%TO.P,ADD4.2,7*%
%TO.N,Net-(ADD4.1-Pad9)*%
X194240000Y-66000000D03*
%TO.P,ADD4.2,15*%
%TO.N,/OFF6*%
X181540000Y-58380000D03*
%TO.P,ADD4.2,8*%
%TO.N,GNDREF*%
X196780000Y-66000000D03*
%TO.P,ADD4.2,16*%
%TO.N,+5V*%
X179000000Y-58380000D03*
%TD*%
D20*
%TO.P,ADD4.1,1*%
%TO.N,/S1*%
X180000000Y-39000000D03*
D19*
%TO.P,ADD4.1,9*%
%TO.N,Net-(ADD4.1-Pad9)*%
X197780000Y-31380000D03*
%TO.P,ADD4.1,2*%
%TO.N,/OFF1*%
X182540000Y-39000000D03*
%TO.P,ADD4.1,10*%
%TO.N,/S3*%
X195240000Y-31380000D03*
%TO.P,ADD4.1,3*%
%TO.N,/R1*%
X185080000Y-39000000D03*
%TO.P,ADD4.1,11*%
%TO.N,/OFF3*%
X192700000Y-31380000D03*
%TO.P,ADD4.1,4*%
%TO.N,/S0*%
X187620000Y-39000000D03*
%TO.P,ADD4.1,12*%
%TO.N,/R3*%
X190160000Y-31380000D03*
%TO.P,ADD4.1,5*%
%TO.N,/R0*%
X190160000Y-39000000D03*
%TO.P,ADD4.1,13*%
%TO.N,/S2*%
X187620000Y-31380000D03*
%TO.P,ADD4.1,6*%
%TO.N,/OFF0*%
X192700000Y-39000000D03*
%TO.P,ADD4.1,14*%
%TO.N,/R2*%
X185080000Y-31380000D03*
%TO.P,ADD4.1,7*%
%TO.N,GNDREF*%
X195240000Y-39000000D03*
%TO.P,ADD4.1,15*%
%TO.N,/OFF2*%
X182540000Y-31380000D03*
%TO.P,ADD4.1,8*%
%TO.N,GNDREF*%
X197780000Y-39000000D03*
%TO.P,ADD4.1,16*%
%TO.N,+5V*%
X180000000Y-31380000D03*
%TD*%
D20*
%TO.P,ADD4.3,1*%
%TO.N,/S9*%
X179000000Y-96000000D03*
D19*
%TO.P,ADD4.3,9*%
%TO.N,Net-(ADD4.3-Pad9)*%
X196780000Y-88380000D03*
%TO.P,ADD4.3,2*%
%TO.N,/OFF9*%
X181540000Y-96000000D03*
%TO.P,ADD4.3,10*%
%TO.N,/S11*%
X194240000Y-88380000D03*
%TO.P,ADD4.3,3*%
%TO.N,REL_SIGN*%
X184080000Y-96000000D03*
%TO.P,ADD4.3,11*%
%TO.N,/OFF11*%
X191700000Y-88380000D03*
%TO.P,ADD4.3,4*%
%TO.N,/S8*%
X186620000Y-96000000D03*
%TO.P,ADD4.3,12*%
%TO.N,REL_SIGN*%
X189160000Y-88380000D03*
%TO.P,ADD4.3,5*%
X189160000Y-96000000D03*
%TO.P,ADD4.3,13*%
%TO.N,/S10*%
X186620000Y-88380000D03*
%TO.P,ADD4.3,6*%
%TO.N,/OFF8*%
X191700000Y-96000000D03*
%TO.P,ADD4.3,14*%
%TO.N,REL_SIGN*%
X184080000Y-88380000D03*
%TO.P,ADD4.3,7*%
%TO.N,Net-(ADD4.2-Pad9)*%
X194240000Y-96000000D03*
%TO.P,ADD4.3,15*%
%TO.N,/OFF10*%
X181540000Y-88380000D03*
%TO.P,ADD4.3,8*%
%TO.N,GNDREF*%
X196780000Y-96000000D03*
%TO.P,ADD4.3,16*%
%TO.N,+5V*%
X179000000Y-88380000D03*
%TD*%
D20*
%TO.P,ADD4.4,1*%
%TO.N,/S13*%
X179000000Y-131000000D03*
D19*
%TO.P,ADD4.4,9*%
%TO.N,Net-(ADD4.4-Pad9)*%
X196780000Y-123380000D03*
%TO.P,ADD4.4,2*%
%TO.N,/OFF13*%
X181540000Y-131000000D03*
%TO.P,ADD4.4,10*%
%TO.N,/S15*%
X194240000Y-123380000D03*
%TO.P,ADD4.4,3*%
%TO.N,REL_SIGN*%
X184080000Y-131000000D03*
%TO.P,ADD4.4,11*%
%TO.N,/OFF15*%
X191700000Y-123380000D03*
%TO.P,ADD4.4,4*%
%TO.N,/S12*%
X186620000Y-131000000D03*
%TO.P,ADD4.4,12*%
%TO.N,REL_SIGN*%
X189160000Y-123380000D03*
%TO.P,ADD4.4,5*%
X189160000Y-131000000D03*
%TO.P,ADD4.4,13*%
%TO.N,/S14*%
X186620000Y-123380000D03*
%TO.P,ADD4.4,6*%
%TO.N,/OFF12*%
X191700000Y-131000000D03*
%TO.P,ADD4.4,14*%
%TO.N,REL_SIGN*%
X184080000Y-123380000D03*
%TO.P,ADD4.4,7*%
%TO.N,Net-(ADD4.3-Pad9)*%
X194240000Y-131000000D03*
%TO.P,ADD4.4,15*%
%TO.N,/OFF14*%
X181540000Y-123380000D03*
%TO.P,ADD4.4,8*%
%TO.N,GNDREF*%
X196780000Y-131000000D03*
%TO.P,ADD4.4,16*%
%TO.N,+5V*%
X179000000Y-123380000D03*
%TD*%
D26*
%TO.N,/OFF15*%
X188434500Y-129143000D03*
%TO.N,/S14*%
X179026300Y-133070800D03*
%TO.N,+5V*%
X148674500Y-55000000D03*
%TO.N,/S9*%
X178646500Y-93577700D03*
%TO.N,/OFF11*%
X183728100Y-79280800D03*
%TO.N,/S8*%
X172504800Y-82771700D03*
%TO.N,/S10*%
X123384900Y-91810000D03*
X177449500Y-80055000D03*
%TO.N,/OFF8*%
X186195600Y-83775400D03*
%TO.N,/OFF10*%
X159935700Y-112063400D03*
%TO.N,/R3*%
X164180900Y-42370900D03*
%TO.N,/S2*%
X123585000Y-32272500D03*
%TO.N,/OFF5*%
X91602900Y-71293600D03*
%TO.N,/S7*%
X182744900Y-63772000D03*
%TO.N,/OFF7*%
X160869500Y-67932600D03*
%TO.N,/S6*%
X174196100Y-70039600D03*
%TO.N,/OFF4*%
X157489600Y-64855800D03*
%TO.N,/OFF6*%
X164219000Y-76926300D03*
%TO.N,JMP_IN*%
X138773000Y-117138700D03*
X160061100Y-85083000D03*
%TO.N,/N9*%
X105125300Y-114367400D03*
%TO.N,GNDREF*%
X213536000Y-57938500D03*
X131000000Y-139652000D03*
X204139700Y-124293800D03*
X157572800Y-107729000D03*
X151500000Y-67169600D03*
X181000000Y-143000000D03*
X201000000Y-137000000D03*
X69283900Y-52761500D03*
X74000000Y-51000000D03*
X72000000Y-35000000D03*
X62000000Y-35000000D03*
%TD*%
D27*
%TO.N,/S13*%
X94000000Y-133160000D02*
X95127300Y-133160000D01*
X179000000Y-131000000D02*
X177872700Y-131000000D01*
X177872700Y-131000000D02*
X177808000Y-130935300D01*
X177808000Y-130935300D02*
X113117100Y-130935300D01*
X113117100Y-130935300D02*
X112305000Y-131747400D01*
X112305000Y-131747400D02*
X96539900Y-131747400D01*
X96539900Y-131747400D02*
X95127300Y-133160000D01*
%TO.N,Net-(ADD4.4-Pad9)*%
X124407300Y-137000000D02*
X125661800Y-135745500D01*
X125661800Y-135745500D02*
X198859300Y-135745500D01*
X198859300Y-135745500D02*
X203131400Y-131473400D01*
X203131400Y-131473400D02*
X203131400Y-130508300D01*
X203131400Y-130508300D02*
X197130400Y-124507300D01*
X197130400Y-124507300D02*
X196780000Y-124507300D01*
X196780000Y-123380000D02*
X196780000Y-124507300D01*
X123380000Y-137000000D02*
X124407300Y-137000000D01*
%TO.N,/OFF13*%
X94000000Y-135700000D02*
X95127300Y-135700000D01*
X181540000Y-131000000D02*
X180412700Y-131000000D01*
X180412700Y-131000000D02*
X180412700Y-131704600D01*
X180412700Y-131704600D02*
X179990000Y-132127300D01*
X179990000Y-132127300D02*
X155836900Y-132127300D01*
X155836900Y-132127300D02*
X154936800Y-133027400D01*
X154936800Y-133027400D02*
X105817600Y-133027400D01*
X105817600Y-133027400D02*
X104415000Y-134430000D01*
X104415000Y-134430000D02*
X96397300Y-134430000D01*
X96397300Y-134430000D02*
X95127300Y-135700000D01*
%TO.N,/S15*%
X101620000Y-128080000D02*
X102747300Y-128080000D01*
X194240000Y-123380000D02*
X193112700Y-123380000D01*
X193112700Y-123380000D02*
X193112700Y-123661800D01*
X193112700Y-123661800D02*
X192267100Y-124507400D01*
X192267100Y-124507400D02*
X183609900Y-124507400D01*
X183609900Y-124507400D02*
X182810000Y-123707500D01*
X182810000Y-123707500D02*
X182810000Y-122979700D01*
X182810000Y-122979700D02*
X181620900Y-121790600D01*
X181620900Y-121790600D02*
X109036700Y-121790600D01*
X109036700Y-121790600D02*
X102747300Y-128080000D01*
%TO.N,REL_SIGN*%
X184080000Y-123380000D02*
X177111400Y-116411400D01*
X177111400Y-116411400D02*
X134160000Y-116411400D01*
X134160000Y-116411400D02*
X132977400Y-117594000D01*
X132977400Y-117594000D02*
X66501200Y-117594000D01*
X66501200Y-117594000D02*
X64028300Y-120066900D01*
X64028300Y-120066900D02*
X61199800Y-120066900D01*
X61199800Y-120066900D02*
X59546200Y-118413300D01*
X59546200Y-118413300D02*
X59546200Y-101046200D01*
X59546200Y-101046200D02*
X56000000Y-97500000D01*
X189160000Y-88380000D02*
X188032700Y-88380000D01*
X184080000Y-88380000D02*
X185207300Y-88380000D01*
X185207300Y-88380000D02*
X185207300Y-88098200D01*
X185207300Y-88098200D02*
X186053400Y-87252100D01*
X186053400Y-87252100D02*
X187138400Y-87252100D01*
X187138400Y-87252100D02*
X188032700Y-88146400D01*
X188032700Y-88146400D02*
X188032700Y-88380000D01*
%TO.N,/OFF15*%
X101620000Y-130620000D02*
X102747300Y-130620000D01*
X188434500Y-129143000D02*
X104224300Y-129143000D01*
X104224300Y-129143000D02*
X102747300Y-130620000D01*
%TO.N,/S12*%
X92872700Y-125540000D02*
X92112400Y-126300300D01*
X92112400Y-126300300D02*
X92112400Y-145273900D01*
X92112400Y-145273900D02*
X93019000Y-146180500D01*
X93019000Y-146180500D02*
X101444000Y-146180500D01*
X101444000Y-146180500D02*
X102156100Y-145468400D01*
X102156100Y-145468400D02*
X102156100Y-144044000D01*
X102156100Y-144044000D02*
X100492600Y-142380500D01*
X100492600Y-142380500D02*
X100492600Y-137766900D01*
X100492600Y-137766900D02*
X101432100Y-136827400D01*
X101432100Y-136827400D02*
X103945300Y-136827400D01*
X103945300Y-136827400D02*
X106107700Y-134665000D01*
X106107700Y-134665000D02*
X182109500Y-134665000D01*
X182109500Y-134665000D02*
X185492700Y-131281800D01*
X185492700Y-131281800D02*
X185492700Y-131000000D01*
X94000000Y-125540000D02*
X92872700Y-125540000D01*
X186620000Y-131000000D02*
X185492700Y-131000000D01*
%TO.N,/S14*%
X101620000Y-135700000D02*
X102747300Y-135700000D01*
X102747300Y-135700000D02*
X104430200Y-135700000D01*
X104430200Y-135700000D02*
X105958500Y-134171700D01*
X105958500Y-134171700D02*
X177925400Y-134171700D01*
X177925400Y-134171700D02*
X179026300Y-133070800D01*
%TO.N,/OFF12*%
X190572700Y-131000000D02*
X190572700Y-130244800D01*
X190572700Y-130244800D02*
X188720400Y-128392500D01*
X188720400Y-128392500D02*
X104332100Y-128392500D01*
X104332100Y-128392500D02*
X103503000Y-129221600D01*
X103503000Y-129221600D02*
X96268900Y-129221600D01*
X96268900Y-129221600D02*
X95127300Y-128080000D01*
X94000000Y-128080000D02*
X95127300Y-128080000D01*
X191700000Y-131000000D02*
X190572700Y-131000000D01*
%TO.N,/OFF14*%
X102747300Y-138240000D02*
X103175200Y-138240000D01*
X103175200Y-138240000D02*
X106182300Y-135232900D01*
X106182300Y-135232900D02*
X189091500Y-135232900D01*
X189091500Y-135232900D02*
X192873400Y-131451000D01*
X192873400Y-131451000D02*
X192873400Y-130507900D01*
X192873400Y-130507900D02*
X189307300Y-126941800D01*
X189307300Y-126941800D02*
X180959200Y-126941800D01*
X180959200Y-126941800D02*
X177829700Y-123812300D01*
X177829700Y-123812300D02*
X177829700Y-122940600D01*
X177829700Y-122940600D02*
X178525300Y-122245000D01*
X178525300Y-122245000D02*
X180405000Y-122245000D01*
X180405000Y-122245000D02*
X181540000Y-123380000D01*
X101620000Y-138240000D02*
X102747300Y-138240000D01*
D28*
%TO.N,+5V*%
X223143900Y-152768900D02*
X223143900Y-153856100D01*
X222375000Y-152000000D02*
X223143900Y-152768900D01*
X225000000Y-152000000D02*
X223912800Y-152000000D01*
X223912800Y-152000000D02*
X223143900Y-152768900D01*
X101620000Y-34000000D02*
X102874300Y-34000000D01*
X132620000Y-33000000D02*
X131365700Y-33000000D01*
X131365700Y-33000000D02*
X130111300Y-34254400D01*
X130111300Y-34254400D02*
X103128700Y-34254400D01*
X103128700Y-34254400D02*
X102874300Y-34000000D01*
X179000000Y-58380000D02*
X177745700Y-58380000D01*
X159000000Y-61000000D02*
X175125700Y-61000000D01*
X175125700Y-61000000D02*
X177745700Y-58380000D01*
X101500000Y-81000000D02*
X101500000Y-82254300D01*
X105500000Y-89254300D02*
X102754300Y-92000000D01*
X131365700Y-88000000D02*
X130111400Y-89254300D01*
X130111400Y-89254300D02*
X105500000Y-89254300D01*
X101500000Y-82254300D02*
X105500000Y-86254300D01*
X105500000Y-86254300D02*
X105500000Y-89254300D01*
X101500000Y-92000000D02*
X102754300Y-92000000D01*
X132620000Y-88000000D02*
X131365700Y-88000000D01*
X93500000Y-145000000D02*
X93500000Y-143745700D01*
X101620000Y-123000000D02*
X100365700Y-123000000D01*
X100365700Y-123000000D02*
X96555700Y-126810000D01*
X96555700Y-126810000D02*
X93457800Y-126810000D01*
X93457800Y-126810000D02*
X92726900Y-127540900D01*
X92726900Y-127540900D02*
X92726900Y-142972600D01*
X92726900Y-142972600D02*
X93500000Y-143745700D01*
X102247200Y-123000000D02*
X101620000Y-123000000D01*
X102874300Y-123000000D02*
X107134400Y-118739900D01*
X107134400Y-118739900D02*
X129985600Y-118739900D01*
X129985600Y-118739900D02*
X131245700Y-120000000D01*
X102247200Y-123000000D02*
X102874300Y-123000000D01*
X159500000Y-87000000D02*
X160754300Y-87000000D01*
X179000000Y-88380000D02*
X162134300Y-88380000D01*
X162134300Y-88380000D02*
X160754300Y-87000000D01*
X132500000Y-120000000D02*
X131245700Y-120000000D01*
X151380000Y-55000000D02*
X148674500Y-55000000D01*
X59168700Y-25543600D02*
X57856200Y-26856100D01*
X100245700Y-29000000D02*
X96789300Y-25543600D01*
X96789300Y-25543600D02*
X59168700Y-25543600D01*
X58625000Y-25000000D02*
X59168700Y-25543600D01*
X54143900Y-25768900D02*
X54143900Y-26856100D01*
X53375000Y-25000000D02*
X54143900Y-25768900D01*
X56000000Y-25000000D02*
X54912800Y-25000000D01*
X54912800Y-25000000D02*
X54143900Y-25768900D01*
X179000000Y-123380000D02*
X180254300Y-123380000D01*
X202000000Y-131000000D02*
X196827900Y-125827900D01*
X196827900Y-125827900D02*
X182182400Y-125827900D01*
X182182400Y-125827900D02*
X180254300Y-123899800D01*
X180254300Y-123899800D02*
X180254300Y-123380000D01*
X101500000Y-29000000D02*
X100245700Y-29000000D01*
X56000000Y-27625000D02*
X54912800Y-27625000D01*
X54912800Y-27625000D02*
X54143900Y-26856100D01*
X56000000Y-22375000D02*
X57087400Y-22375000D01*
X57087400Y-22375000D02*
X57856200Y-23143800D01*
X54143900Y-23143800D02*
X54912700Y-22375000D01*
X54912700Y-22375000D02*
X56000000Y-22375000D01*
X225000000Y-154625000D02*
X223912800Y-154625000D01*
X223912800Y-154625000D02*
X223143900Y-153856100D01*
X225000000Y-149375000D02*
X226087400Y-149375000D01*
X226087400Y-149375000D02*
X226856200Y-150143800D01*
X223143900Y-150143800D02*
X223912700Y-149375000D01*
X223912700Y-149375000D02*
X225000000Y-149375000D01*
D27*
%TO.N,/S9*%
X95127300Y-108160000D02*
X96317900Y-109350600D01*
X96317900Y-109350600D02*
X102841700Y-109350600D01*
X102841700Y-109350600D02*
X110222300Y-101970000D01*
X110222300Y-101970000D02*
X135017000Y-101970000D01*
X135017000Y-101970000D02*
X139527000Y-97460000D01*
X139527000Y-97460000D02*
X172102200Y-97460000D01*
X172102200Y-97460000D02*
X175984500Y-93577700D01*
X175984500Y-93577700D02*
X178646500Y-93577700D01*
X94000000Y-108160000D02*
X95127300Y-108160000D01*
%TO.N,/OFF9*%
X180412700Y-96000000D02*
X180412700Y-96704600D01*
X180412700Y-96704600D02*
X172147300Y-104970000D01*
X172147300Y-104970000D02*
X136454600Y-104970000D01*
X136454600Y-104970000D02*
X134374600Y-107050000D01*
X134374600Y-107050000D02*
X107671100Y-107050000D01*
X107671100Y-107050000D02*
X102887500Y-111833600D01*
X102887500Y-111833600D02*
X100667900Y-111833600D01*
X100667900Y-111833600D02*
X99534300Y-110700000D01*
X99534300Y-110700000D02*
X94000000Y-110700000D01*
X181540000Y-96000000D02*
X180412700Y-96000000D01*
%TO.N,/S11*%
X101620000Y-103080000D02*
X102747300Y-103080000D01*
X193112700Y-88380000D02*
X193112700Y-88661800D01*
X193112700Y-88661800D02*
X189647100Y-92127400D01*
X189647100Y-92127400D02*
X141189500Y-92127400D01*
X141189500Y-92127400D02*
X133886900Y-99430000D01*
X133886900Y-99430000D02*
X106397300Y-99430000D01*
X106397300Y-99430000D02*
X102747300Y-103080000D01*
X194240000Y-88380000D02*
X193112700Y-88380000D01*
%TO.N,/OFF11*%
X92350300Y-88452200D02*
X92350300Y-105564800D01*
X92350300Y-105564800D02*
X93596100Y-106810600D01*
X93596100Y-106810600D02*
X99302100Y-106810600D01*
X99302100Y-106810600D02*
X100492700Y-105620000D01*
X58540000Y-56700000D02*
X90292200Y-88452200D01*
X90292200Y-88452200D02*
X92350300Y-88452200D01*
X183728100Y-79280800D02*
X101521700Y-79280800D01*
X101521700Y-79280800D02*
X92350300Y-88452200D01*
X101620000Y-105620000D02*
X100492700Y-105620000D01*
%TO.N,/S8*%
X94000000Y-100540000D02*
X97024600Y-100540000D01*
X97024600Y-100540000D02*
X103214600Y-94350000D01*
X103214600Y-94350000D02*
X134752300Y-94350000D01*
X134752300Y-94350000D02*
X146330600Y-82771700D01*
X146330600Y-82771700D02*
X172504800Y-82771700D01*
%TO.N,/S10*%
X123384900Y-91810000D02*
X133886900Y-91810000D01*
X133886900Y-91810000D02*
X145641900Y-80055000D01*
X145641900Y-80055000D02*
X177449500Y-80055000D01*
%TO.N,/OFF8*%
X95127300Y-103080000D02*
X96397300Y-101810000D01*
X96397300Y-101810000D02*
X102886900Y-101810000D01*
X102886900Y-101810000D02*
X107806900Y-96890000D01*
X107806900Y-96890000D02*
X135017300Y-96890000D01*
X135017300Y-96890000D02*
X148042300Y-83865000D01*
X148042300Y-83865000D02*
X171757800Y-83865000D01*
X171757800Y-83865000D02*
X171850200Y-83957400D01*
X171850200Y-83957400D02*
X186013600Y-83957400D01*
X186013600Y-83957400D02*
X186195600Y-83775400D01*
X94000000Y-103080000D02*
X95127300Y-103080000D01*
%TO.N,/OFF10*%
X159935700Y-112063400D02*
X103923900Y-112063400D01*
X103923900Y-112063400D02*
X102747300Y-113240000D01*
X101620000Y-113240000D02*
X100492700Y-113240000D01*
X100492700Y-113240000D02*
X99365400Y-112112700D01*
X99365400Y-112112700D02*
X93813100Y-112112700D01*
X93813100Y-112112700D02*
X61326500Y-79626100D01*
X61326500Y-79626100D02*
X61326500Y-60360300D01*
X61326500Y-60360300D02*
X58936200Y-57970000D01*
X58936200Y-57970000D02*
X57270000Y-57970000D01*
X57270000Y-57970000D02*
X56000000Y-56700000D01*
X102183700Y-113240000D02*
X101620000Y-113240000D01*
X102183700Y-113240000D02*
X102747300Y-113240000D01*
%TO.N,/S1*%
X178872700Y-39000000D02*
X176969600Y-40903100D01*
X176969600Y-40903100D02*
X150125700Y-40903100D01*
X150125700Y-40903100D02*
X146121100Y-36898500D01*
X146121100Y-36898500D02*
X129514000Y-36898500D01*
X129514000Y-36898500D02*
X127205100Y-39207400D01*
X127205100Y-39207400D02*
X124642600Y-39207400D01*
X124642600Y-39207400D02*
X120960000Y-42890000D01*
X120960000Y-42890000D02*
X100804300Y-42890000D01*
X100804300Y-42890000D02*
X99534300Y-44160000D01*
X99534300Y-44160000D02*
X94000000Y-44160000D01*
X180000000Y-39000000D02*
X178872700Y-39000000D01*
%TO.N,/OFF1*%
X159000000Y-42300000D02*
X160127300Y-42300000D01*
X182540000Y-39000000D02*
X181412700Y-39000000D01*
X181412700Y-39000000D02*
X181412700Y-39704600D01*
X181412700Y-39704600D02*
X179759800Y-41357500D01*
X179759800Y-41357500D02*
X161069800Y-41357500D01*
X161069800Y-41357500D02*
X160127300Y-42300000D01*
%TO.N,/R1*%
X159000000Y-39760000D02*
X160127300Y-39760000D01*
X185080000Y-39000000D02*
X183952700Y-39000000D01*
X183952700Y-39000000D02*
X183952700Y-38718200D01*
X183952700Y-38718200D02*
X183107100Y-37872600D01*
X183107100Y-37872600D02*
X162014700Y-37872600D01*
X162014700Y-37872600D02*
X160127300Y-39760000D01*
%TO.N,/OFF3*%
X101620000Y-41620000D02*
X100492700Y-41620000D01*
X100492700Y-41620000D02*
X99365400Y-42747300D01*
X99365400Y-42747300D02*
X62332700Y-42747300D01*
X62332700Y-42747300D02*
X58540000Y-46540000D01*
%TO.N,/S0*%
X187620000Y-37872700D02*
X188747400Y-36745300D01*
X188747400Y-36745300D02*
X188747400Y-30901900D01*
X188747400Y-30901900D02*
X187178600Y-29333100D01*
X187178600Y-29333100D02*
X103884100Y-29333100D01*
X103884100Y-29333100D02*
X96677200Y-36540000D01*
X96677200Y-36540000D02*
X94000000Y-36540000D01*
X187620000Y-39000000D02*
X187620000Y-37872700D01*
%TO.N,/R3*%
X151380000Y-44840000D02*
X152507300Y-44840000D01*
X164180900Y-42370900D02*
X162981800Y-43570000D01*
X162981800Y-43570000D02*
X153777300Y-43570000D01*
X153777300Y-43570000D02*
X152507300Y-44840000D01*
%TO.N,/R0*%
X190160000Y-39000000D02*
X189032700Y-39000000D01*
X189032700Y-39000000D02*
X189032700Y-39281800D01*
X189032700Y-39281800D02*
X180934500Y-47380000D01*
X180934500Y-47380000D02*
X159000000Y-47380000D01*
%TO.N,/S2*%
X186492700Y-31380000D02*
X186492700Y-31098200D01*
X186492700Y-31098200D02*
X185182000Y-29787500D01*
X185182000Y-29787500D02*
X126070000Y-29787500D01*
X126070000Y-29787500D02*
X123585000Y-32272500D01*
X187620000Y-31380000D02*
X186492700Y-31380000D01*
%TO.N,/OFF0*%
X192700000Y-37872700D02*
X191572700Y-36745400D01*
X191572700Y-36745400D02*
X191572700Y-31127400D01*
X191572700Y-31127400D02*
X189292100Y-28846800D01*
X189292100Y-28846800D02*
X103406800Y-28846800D01*
X103406800Y-28846800D02*
X97126200Y-35127400D01*
X97126200Y-35127400D02*
X93818300Y-35127400D01*
X93818300Y-35127400D02*
X92818200Y-36127500D01*
X92818200Y-36127500D02*
X92818200Y-37004500D01*
X92818200Y-37004500D02*
X93766400Y-37952700D01*
X93766400Y-37952700D02*
X94000000Y-37952700D01*
X92818200Y-37004500D02*
X63859700Y-37004500D01*
X63859700Y-37004500D02*
X57152300Y-43711900D01*
X57152300Y-43711900D02*
X57152300Y-44000000D01*
X56000000Y-44000000D02*
X57152300Y-44000000D01*
X94000000Y-39080000D02*
X94000000Y-37952700D01*
X192700000Y-39000000D02*
X192700000Y-37872700D01*
%TO.N,/R2*%
X151380000Y-37220000D02*
X152507300Y-37220000D01*
X185080000Y-31380000D02*
X183952700Y-31380000D01*
X183952700Y-31380000D02*
X183952700Y-31098200D01*
X183952700Y-31098200D02*
X183102800Y-30248300D01*
X183102800Y-30248300D02*
X159479000Y-30248300D01*
X159479000Y-30248300D02*
X152507300Y-37220000D01*
%TO.N,/OFF2*%
X101620000Y-49240000D02*
X100492700Y-49240000D01*
X100492700Y-49240000D02*
X99180300Y-47927600D01*
X99180300Y-47927600D02*
X57387600Y-47927600D01*
X57387600Y-47927600D02*
X56000000Y-46540000D01*
X151380000Y-39760000D02*
X152507300Y-39760000D01*
X182540000Y-31380000D02*
X181412700Y-31380000D01*
X181412700Y-31380000D02*
X181412700Y-31661900D01*
X181412700Y-31661900D02*
X180567300Y-32507300D01*
X180567300Y-32507300D02*
X159760000Y-32507300D01*
X159760000Y-32507300D02*
X152507300Y-39760000D01*
%TO.N,/S5*%
X94000000Y-68160000D02*
X95127300Y-68160000D01*
X179000000Y-66000000D02*
X177872700Y-66000000D01*
X177872700Y-66000000D02*
X174585300Y-69287400D01*
X174585300Y-69287400D02*
X96254700Y-69287400D01*
X96254700Y-69287400D02*
X95127300Y-68160000D01*
%TO.N,/OFF5*%
X94000000Y-70700000D02*
X95127300Y-70700000D01*
X181540000Y-66000000D02*
X180412700Y-66000000D01*
X180412700Y-66000000D02*
X180412700Y-66704600D01*
X180412700Y-66704600D02*
X175288500Y-71828800D01*
X175288500Y-71828800D02*
X96256100Y-71828800D01*
X96256100Y-71828800D02*
X95127300Y-70700000D01*
X94000000Y-70700000D02*
X92872700Y-70700000D01*
X91602900Y-71293600D02*
X92279100Y-71293600D01*
X92279100Y-71293600D02*
X92872700Y-70700000D01*
%TO.N,/S7*%
X182744900Y-63772000D02*
X103439300Y-63772000D01*
X103439300Y-63772000D02*
X102747300Y-63080000D01*
X101620000Y-63080000D02*
X102747300Y-63080000D01*
%TO.N,/OFF7*%
X102747300Y-65620000D02*
X105059900Y-67932600D01*
X105059900Y-67932600D02*
X160869500Y-67932600D01*
X101620000Y-65620000D02*
X100492700Y-65620000D01*
X101620000Y-65620000D02*
X102747300Y-65620000D01*
X58540000Y-51620000D02*
X71127400Y-64207400D01*
X71127400Y-64207400D02*
X99080100Y-64207400D01*
X99080100Y-64207400D02*
X100492700Y-65620000D01*
%TO.N,/S4*%
X185492700Y-66000000D02*
X185492700Y-65491200D01*
X185492700Y-65491200D02*
X183037800Y-63036300D01*
X183037800Y-63036300D02*
X125501800Y-63036300D01*
X125501800Y-63036300D02*
X124275500Y-61810000D01*
X124275500Y-61810000D02*
X96397300Y-61810000D01*
X96397300Y-61810000D02*
X95127300Y-60540000D01*
X94000000Y-60540000D02*
X95127300Y-60540000D01*
X186620000Y-66000000D02*
X185492700Y-66000000D01*
%TO.N,/S6*%
X101620000Y-70700000D02*
X102747300Y-70700000D01*
X174196100Y-70039600D02*
X103407700Y-70039600D01*
X103407700Y-70039600D02*
X102747300Y-70700000D01*
%TO.N,/OFF4*%
X157489600Y-64855800D02*
X157126400Y-64492600D01*
X157126400Y-64492600D02*
X101232200Y-64492600D01*
X101232200Y-64492600D02*
X99819600Y-63080000D01*
X99819600Y-63080000D02*
X94000000Y-63080000D01*
X190572700Y-66000000D02*
X190572700Y-66281900D01*
X190572700Y-66281900D02*
X189727300Y-67127300D01*
X189727300Y-67127300D02*
X183518600Y-67127300D01*
X183518600Y-67127300D02*
X182696000Y-66304700D01*
X182696000Y-66304700D02*
X182696000Y-65481900D01*
X182696000Y-65481900D02*
X182069900Y-64855800D01*
X182069900Y-64855800D02*
X157489600Y-64855800D01*
X56000000Y-49080000D02*
X57152400Y-50232400D01*
X57152400Y-50232400D02*
X60574400Y-50232400D01*
X60574400Y-50232400D02*
X73422000Y-63080000D01*
X73422000Y-63080000D02*
X94000000Y-63080000D01*
X191700000Y-66000000D02*
X190572700Y-66000000D01*
%TO.N,/OFF6*%
X164219000Y-76926300D02*
X106433600Y-76926300D01*
X106433600Y-76926300D02*
X102747300Y-73240000D01*
X101620000Y-73240000D02*
X102747300Y-73240000D01*
X56000000Y-51620000D02*
X57270000Y-52890000D01*
X57270000Y-52890000D02*
X59167300Y-52890000D01*
X59167300Y-52890000D02*
X78378900Y-72101600D01*
X78378900Y-72101600D02*
X94661800Y-72101600D01*
X94661800Y-72101600D02*
X95800200Y-73240000D01*
X95800200Y-73240000D02*
X101620000Y-73240000D01*
%TO.N,~PC_CLR*%
X155000000Y-138000000D02*
X166000000Y-138000000D01*
X166000000Y-138000000D02*
X171000000Y-143000000D01*
%TO.N,/O0*%
X227000000Y-52000000D02*
X225847700Y-52000000D01*
X132620000Y-38080000D02*
X133747300Y-38080000D01*
X133747300Y-38080000D02*
X144434000Y-48766700D01*
X144434000Y-48766700D02*
X222614400Y-48766700D01*
X222614400Y-48766700D02*
X225847700Y-52000000D01*
%TO.N,/O1*%
X132620000Y-40620000D02*
X133747300Y-40620000D01*
X133747300Y-40620000D02*
X144317300Y-51190000D01*
X144317300Y-51190000D02*
X160127400Y-51190000D01*
X160127400Y-51190000D02*
X162089800Y-53152400D01*
X162089800Y-53152400D02*
X228387600Y-53152400D01*
X228387600Y-53152400D02*
X229540000Y-52000000D01*
%TO.N,/O2*%
X132620000Y-43160000D02*
X133747300Y-43160000D01*
X133747300Y-43160000D02*
X144459900Y-53872600D01*
X144459900Y-53872600D02*
X226332600Y-53872600D01*
X226332600Y-53872600D02*
X227000000Y-54540000D01*
%TO.N,/O3*%
X229540000Y-54540000D02*
X228270000Y-55810000D01*
X228270000Y-55810000D02*
X193344200Y-55810000D01*
X193344200Y-55810000D02*
X193026800Y-56127400D01*
X193026800Y-56127400D02*
X144174700Y-56127400D01*
X144174700Y-56127400D02*
X133747300Y-45700000D01*
X132620000Y-45700000D02*
X133747300Y-45700000D01*
%TO.N,/O4*%
X132620000Y-48240000D02*
X133747300Y-48240000D01*
X133747300Y-48240000D02*
X142132800Y-56625500D01*
X142132800Y-56625500D02*
X226545500Y-56625500D01*
X226545500Y-56625500D02*
X227000000Y-57080000D01*
%TO.N,/O5*%
X132620000Y-50780000D02*
X133747300Y-50780000D01*
X133747300Y-50780000D02*
X140047300Y-57080000D01*
X140047300Y-57080000D02*
X214502600Y-57080000D01*
X214502600Y-57080000D02*
X215693200Y-58270600D01*
X215693200Y-58270600D02*
X228349400Y-58270600D01*
X228349400Y-58270600D02*
X229540000Y-57080000D01*
%TO.N,/O6*%
X227000000Y-59620000D02*
X224492600Y-62127400D01*
X224492600Y-62127400D02*
X142554700Y-62127400D01*
X142554700Y-62127400D02*
X133747300Y-53320000D01*
X132620000Y-53320000D02*
X133747300Y-53320000D01*
%TO.N,/O7*%
X132620000Y-55860000D02*
X133747300Y-55860000D01*
X133747300Y-55860000D02*
X140469100Y-62581800D01*
X140469100Y-62581800D02*
X224680900Y-62581800D01*
X224680900Y-62581800D02*
X226372700Y-60890000D01*
X226372700Y-60890000D02*
X228270000Y-60890000D01*
X228270000Y-60890000D02*
X229540000Y-59620000D01*
%TO.N,/O8*%
X227000000Y-62160000D02*
X208377700Y-80782300D01*
X208377700Y-80782300D02*
X146045000Y-80782300D01*
X146045000Y-80782300D02*
X133747300Y-93080000D01*
X132620000Y-93080000D02*
X133747300Y-93080000D01*
%TO.N,/O9*%
X132620000Y-95620000D02*
X135478100Y-95620000D01*
X135478100Y-95620000D02*
X147687400Y-83410700D01*
X147687400Y-83410700D02*
X171946000Y-83410700D01*
X171946000Y-83410700D02*
X172038400Y-83503100D01*
X172038400Y-83503100D02*
X172825700Y-83503100D01*
X172825700Y-83503100D02*
X173780600Y-82548200D01*
X173780600Y-82548200D02*
X207254500Y-82548200D01*
X207254500Y-82548200D02*
X226372700Y-63430000D01*
X226372700Y-63430000D02*
X228270000Y-63430000D01*
X228270000Y-63430000D02*
X229540000Y-62160000D01*
%TO.N,/O10*%
X133747300Y-98160000D02*
X134389800Y-98160000D01*
X134389800Y-98160000D02*
X148230500Y-84319300D01*
X148230500Y-84319300D02*
X171569600Y-84319300D01*
X171569600Y-84319300D02*
X171754400Y-84504100D01*
X171754400Y-84504100D02*
X207195900Y-84504100D01*
X207195900Y-84504100D02*
X227000000Y-64700000D01*
X132620000Y-98160000D02*
X133747300Y-98160000D01*
%TO.N,/O11*%
X132620000Y-100700000D02*
X133747300Y-100700000D01*
X133747300Y-100700000D02*
X139637300Y-94810000D01*
X139637300Y-94810000D02*
X171886200Y-94810000D01*
X171886200Y-94810000D02*
X174114400Y-92581800D01*
X174114400Y-92581800D02*
X194198700Y-92581800D01*
X194198700Y-92581800D02*
X200363200Y-86417300D01*
X200363200Y-86417300D02*
X205925400Y-86417300D01*
X205925400Y-86417300D02*
X226372700Y-65970000D01*
X226372700Y-65970000D02*
X228270000Y-65970000D01*
X228270000Y-65970000D02*
X229540000Y-64700000D01*
%TO.N,/O12*%
X227000000Y-67240000D02*
X207368300Y-86871700D01*
X207368300Y-86871700D02*
X201690200Y-86871700D01*
X201690200Y-86871700D02*
X194256900Y-94305000D01*
X194256900Y-94305000D02*
X175899700Y-94305000D01*
X175899700Y-94305000D02*
X170314700Y-99890000D01*
X170314700Y-99890000D02*
X137739700Y-99890000D01*
X137739700Y-99890000D02*
X134389700Y-103240000D01*
X134389700Y-103240000D02*
X133747300Y-103240000D01*
X132620000Y-103240000D02*
X133747300Y-103240000D01*
%TO.N,/O13*%
X132620000Y-105780000D02*
X133747300Y-105780000D01*
X133747300Y-105780000D02*
X137097300Y-102430000D01*
X137097300Y-102430000D02*
X169205600Y-102430000D01*
X169205600Y-102430000D02*
X176763000Y-94872600D01*
X176763000Y-94872600D02*
X194493900Y-94872600D01*
X194493900Y-94872600D02*
X201993900Y-87372600D01*
X201993900Y-87372600D02*
X207510100Y-87372600D01*
X207510100Y-87372600D02*
X226372700Y-68510000D01*
X226372700Y-68510000D02*
X228270000Y-68510000D01*
X228270000Y-68510000D02*
X229540000Y-67240000D01*
%TO.N,/O14*%
X132620000Y-108320000D02*
X133747300Y-108320000D01*
X133747300Y-108320000D02*
X134512900Y-107554400D01*
X134512900Y-107554400D02*
X156021800Y-107554400D01*
X156021800Y-107554400D02*
X156583000Y-106993200D01*
X156583000Y-106993200D02*
X158238000Y-106993200D01*
X158238000Y-106993200D02*
X158625600Y-107380800D01*
X158625600Y-107380800D02*
X189399200Y-107380800D01*
X189399200Y-107380800D02*
X227000000Y-69780000D01*
%TO.N,/O15*%
X229540000Y-69780000D02*
X229540000Y-71054700D01*
X229540000Y-71054700D02*
X189734700Y-110860000D01*
X189734700Y-110860000D02*
X133747300Y-110860000D01*
X132620000Y-110860000D02*
X133747300Y-110860000D01*
%TO.N,JMP_IN*%
X153127300Y-91000000D02*
X159044300Y-85083000D01*
X159044300Y-85083000D02*
X160061100Y-85083000D01*
X61620000Y-124000000D02*
X62647300Y-124000000D01*
X62647300Y-124000000D02*
X68493600Y-118153700D01*
X68493600Y-118153700D02*
X137758000Y-118153700D01*
X137758000Y-118153700D02*
X138773000Y-117138700D01*
X152000000Y-91000000D02*
X153127300Y-91000000D01*
%TO.N,~STALL*%
X131492700Y-113400000D02*
X130222700Y-114670000D01*
X130222700Y-114670000D02*
X107762800Y-114670000D01*
X107762800Y-114670000D02*
X105476400Y-116956400D01*
X105476400Y-116956400D02*
X64690900Y-116956400D01*
X64690900Y-116956400D02*
X62647300Y-119000000D01*
X132620000Y-113400000D02*
X131492700Y-113400000D01*
X61620000Y-119000000D02*
X62647300Y-119000000D01*
%TO.N,JMP_ABS*%
X94000000Y-123000000D02*
X94000000Y-124127300D01*
X91618000Y-129000000D02*
X91618000Y-145535700D01*
X91618000Y-145535700D02*
X92723700Y-146641400D01*
X92723700Y-146641400D02*
X194358600Y-146641400D01*
X194358600Y-146641400D02*
X199000000Y-142000000D01*
X94000000Y-124127300D02*
X93577300Y-124127300D01*
X93577300Y-124127300D02*
X91618000Y-126086600D01*
X91618000Y-126086600D02*
X91618000Y-129000000D01*
X62647300Y-129000000D02*
X91618000Y-129000000D01*
X61620000Y-129000000D02*
X62647300Y-129000000D01*
%TO.N,CLK*%
X226000000Y-112000000D02*
X222142900Y-115857100D01*
X222142900Y-115857100D02*
X133930200Y-115857100D01*
X133930200Y-115857100D02*
X133847300Y-115940000D01*
X132620000Y-115940000D02*
X133847300Y-115940000D01*
%TO.N,/N2*%
X125000000Y-43160000D02*
X123872700Y-43160000D01*
X101620000Y-51780000D02*
X115252700Y-51780000D01*
X115252700Y-51780000D02*
X123872700Y-43160000D01*
%TO.N,/N0*%
X125000000Y-38080000D02*
X123872700Y-38080000D01*
X94000000Y-41620000D02*
X95127300Y-41620000D01*
X95127300Y-41620000D02*
X96254600Y-40492700D01*
X96254600Y-40492700D02*
X121460000Y-40492700D01*
X121460000Y-40492700D02*
X123872700Y-38080000D01*
%TO.N,/N1*%
X125000000Y-40620000D02*
X123872700Y-40620000D01*
X94000000Y-49240000D02*
X95127300Y-49240000D01*
X95127300Y-49240000D02*
X96317900Y-50430600D01*
X96317900Y-50430600D02*
X114062100Y-50430600D01*
X114062100Y-50430600D02*
X123872700Y-40620000D01*
%TO.N,/N8*%
X125000000Y-93080000D02*
X123872700Y-93080000D01*
X94000000Y-105620000D02*
X94000000Y-104492700D01*
X94000000Y-104492700D02*
X93718200Y-104492700D01*
X93718200Y-104492700D02*
X92872600Y-103647100D01*
X92872600Y-103647100D02*
X92872600Y-100072600D01*
X92872600Y-100072600D02*
X93817800Y-99127400D01*
X93817800Y-99127400D02*
X95127400Y-99127400D01*
X95127400Y-99127400D02*
X100707700Y-93547100D01*
X100707700Y-93547100D02*
X123405600Y-93547100D01*
X123405600Y-93547100D02*
X123872700Y-93080000D01*
%TO.N,/N11*%
X102747300Y-108160000D02*
X110207300Y-100700000D01*
X110207300Y-100700000D02*
X125000000Y-100700000D01*
X101620000Y-108160000D02*
X102747300Y-108160000D01*
%TO.N,/N9*%
X95127300Y-113240000D02*
X96254700Y-114367400D01*
X96254700Y-114367400D02*
X105125300Y-114367400D01*
X94000000Y-113240000D02*
X95127300Y-113240000D01*
%TO.N,GNDREF*%
X101620000Y-36540000D02*
X102747300Y-36540000D01*
X102747300Y-36540000D02*
X103747300Y-35540000D01*
X103747300Y-35540000D02*
X125000000Y-35540000D01*
X101620000Y-125540000D02*
X102747300Y-125540000D01*
X125000000Y-120000000D02*
X108287300Y-120000000D01*
X108287300Y-120000000D02*
X102747300Y-125540000D01*
X224000000Y-22375000D02*
X225087400Y-22375000D01*
X225087400Y-22375000D02*
X225856200Y-23143800D01*
X131000000Y-139652000D02*
X131000000Y-137000000D01*
X202000000Y-58500000D02*
X203127300Y-58500000D01*
X213536000Y-57938500D02*
X203688800Y-57938500D01*
X203688800Y-57938500D02*
X203127300Y-58500000D01*
X196780000Y-96000000D02*
X196780000Y-94872700D01*
X203000000Y-88500000D02*
X203000000Y-89627300D01*
X203000000Y-89627300D02*
X197754600Y-94872700D01*
X197754600Y-94872700D02*
X196780000Y-94872700D01*
X153127300Y-108780000D02*
X156521800Y-108780000D01*
X156521800Y-108780000D02*
X157572800Y-107729000D01*
X94000000Y-140780000D02*
X95127300Y-140780000D01*
X101000000Y-145000000D02*
X99347300Y-145000000D01*
X99347300Y-145000000D02*
X95127300Y-140780000D01*
X126127300Y-35540000D02*
X131492700Y-35540000D01*
X223231100Y-26856100D02*
X224000000Y-27625000D01*
X222143900Y-26856100D02*
X223231100Y-26856100D01*
X223231100Y-26856100D02*
X223231100Y-25768900D01*
X223231100Y-25768900D02*
X224000000Y-25000000D01*
X202000000Y-123500000D02*
X203127300Y-123500000D01*
X204139700Y-124293800D02*
X203921100Y-124293800D01*
X203921100Y-124293800D02*
X203127300Y-123500000D01*
X132620000Y-35540000D02*
X131492700Y-35540000D01*
X125000000Y-35540000D02*
X126127300Y-35540000D01*
X152000000Y-108780000D02*
X153127300Y-108780000D01*
X125000000Y-90540000D02*
X132620000Y-90540000D01*
X125000000Y-66040000D02*
X126129600Y-67169600D01*
X126129600Y-67169600D02*
X151500000Y-67169600D01*
X159620000Y-93540000D02*
X152000000Y-93540000D01*
X159000000Y-52460000D02*
X151380000Y-52460000D01*
X195240000Y-39000000D02*
X197780000Y-39000000D01*
X181000000Y-143000000D02*
X185000000Y-143000000D01*
X185000000Y-143000000D02*
X190000000Y-138000000D01*
X190000000Y-138000000D02*
X200000000Y-138000000D01*
X200000000Y-138000000D02*
X201000000Y-137000000D01*
X94000000Y-51780000D02*
X92872700Y-51780000D01*
X91891200Y-52761500D02*
X92872700Y-51780000D01*
X78761500Y-52761500D02*
X75761500Y-52761500D01*
X69283900Y-52761500D02*
X78761500Y-52761500D01*
X78761500Y-52761500D02*
X91891200Y-52761500D01*
X75761500Y-52761500D02*
X74000000Y-51000000D01*
X72000000Y-35000000D02*
X62000000Y-35000000D01*
%TD*%
M02*
