%TF.GenerationSoftware,KiCad,Pcbnew,(5.1.10)-1*%
%TF.CreationDate,2021-10-27T21:26:05+02:00*%
%TF.ProjectId,General Purpose RF,47656e65-7261-46c2-9050-7572706f7365,rev1.0*%
%TF.SameCoordinates,Original*%
%TF.FileFunction,Copper,L2,Bot*%
%TF.FilePolarity,Positive*%
%FSLAX46Y46*%
G04 Gerber Fmt 4.6, Leading zero omitted, Abs format (unit mm)*
G04 Created by KiCad (PCBNEW (5.1.10)-1) date 2021-10-27 21:26:05*
%MOMM*%
%LPD*%
G01*
G04 APERTURE LIST*
%TA.AperFunction,ComponentPad*%
%ADD10C,2.000000*%
%TD*%
%TA.AperFunction,ComponentPad*%
%ADD11R,2.000000X2.000000*%
%TD*%
%TA.AperFunction,ComponentPad*%
%ADD12C,1.650000*%
%TD*%
%TA.AperFunction,ComponentPad*%
%ADD13R,1.650000X1.650000*%
%TD*%
%TA.AperFunction,ComponentPad*%
%ADD14C,1.500000*%
%TD*%
%TA.AperFunction,ComponentPad*%
%ADD15R,1.500000X1.500000*%
%TD*%
%TA.AperFunction,ComponentPad*%
%ADD16O,1.600000X1.600000*%
%TD*%
%TA.AperFunction,ComponentPad*%
%ADD17R,1.600000X1.600000*%
%TD*%
%TA.AperFunction,ComponentPad*%
%ADD18C,0.800000*%
%TD*%
%TA.AperFunction,ComponentPad*%
%ADD19C,7.000000*%
%TD*%
%TA.AperFunction,ComponentPad*%
%ADD20C,1.600000*%
%TD*%
%TA.AperFunction,ComponentPad*%
%ADD21O,1.700000X2.000000*%
%TD*%
%TA.AperFunction,ViaPad*%
%ADD22C,0.800000*%
%TD*%
%TA.AperFunction,Conductor*%
%ADD23C,0.400000*%
%TD*%
%TA.AperFunction,Conductor*%
%ADD24C,0.250000*%
%TD*%
%TA.AperFunction,Conductor*%
%ADD25C,0.254000*%
%TD*%
%TA.AperFunction,Conductor*%
%ADD26C,0.100000*%
%TD*%
G04 APERTURE END LIST*
D10*
%TO.P,C_BOARD1,2*%
%TO.N,+5V*%
X122000000Y-42000000D03*
D11*
%TO.P,C_BOARD1,1*%
%TO.N,GNDREF*%
X117000000Y-42000000D03*
%TD*%
D10*
%TO.P,~R2OE7,1*%
%TO.N,~BEO7*%
X214000000Y-37000000D03*
%TD*%
%TO.P,~R1OE7,1*%
%TO.N,~AEO7*%
X175000000Y-37000000D03*
%TD*%
D12*
%TO.P,Write1,16*%
%TO.N,N/C*%
X153780000Y-34460000D03*
%TO.P,Write1,15*%
X153780000Y-37000000D03*
%TO.P,Write1,14*%
X151240000Y-34460000D03*
%TO.P,Write1,13*%
X151240000Y-37000000D03*
%TO.P,Write1,12*%
X148700000Y-34460000D03*
%TO.P,Write1,11*%
X148700000Y-37000000D03*
%TO.P,Write1,10*%
X146160000Y-34460000D03*
%TO.P,Write1,9*%
X146160000Y-37000000D03*
%TO.P,Write1,8*%
%TO.N,/W7*%
X143620000Y-34460000D03*
%TO.P,Write1,7*%
%TO.N,/W6*%
X143620000Y-37000000D03*
%TO.P,Write1,6*%
%TO.N,/W5*%
X141080000Y-34460000D03*
%TO.P,Write1,5*%
%TO.N,/W4*%
X141080000Y-37000000D03*
%TO.P,Write1,4*%
%TO.N,/W3*%
X138540000Y-34460000D03*
%TO.P,Write1,3*%
%TO.N,/W2*%
X138540000Y-37000000D03*
%TO.P,Write1,2*%
%TO.N,/W1*%
X136000000Y-34460000D03*
D13*
%TO.P,Write1,1*%
%TO.N,/W0*%
X136000000Y-37000000D03*
%TD*%
D14*
%TO.P,W1,6*%
%TO.N,Net-(DECWrite1-Pad6)*%
X79080000Y-38460000D03*
%TO.P,W1,5*%
%TO.N,Net-(W1-Pad5)*%
X76540000Y-38460000D03*
%TO.P,W1,4*%
%TO.N,Net-(W1-Pad4)*%
X74000000Y-38460000D03*
%TO.P,W1,3*%
%TO.N,/W2*%
X79080000Y-41000000D03*
%TO.P,W1,2*%
%TO.N,/W1*%
X76540000Y-41000000D03*
D15*
%TO.P,W1,1*%
%TO.N,/W0*%
X74000000Y-41000000D03*
%TD*%
D12*
%TO.P,Read2,16*%
%TO.N,N/C*%
X239780000Y-36460000D03*
%TO.P,Read2,15*%
X239780000Y-39000000D03*
%TO.P,Read2,14*%
X237240000Y-36460000D03*
%TO.P,Read2,13*%
X237240000Y-39000000D03*
%TO.P,Read2,12*%
X234700000Y-36460000D03*
%TO.P,Read2,11*%
X234700000Y-39000000D03*
%TO.P,Read2,10*%
X232160000Y-36460000D03*
%TO.P,Read2,9*%
X232160000Y-39000000D03*
%TO.P,Read2,8*%
%TO.N,/B7*%
X229620000Y-36460000D03*
%TO.P,Read2,7*%
%TO.N,/B6*%
X229620000Y-39000000D03*
%TO.P,Read2,6*%
%TO.N,/B5*%
X227080000Y-36460000D03*
%TO.P,Read2,5*%
%TO.N,/B4*%
X227080000Y-39000000D03*
%TO.P,Read2,4*%
%TO.N,/B3*%
X224540000Y-36460000D03*
%TO.P,Read2,3*%
%TO.N,/B2*%
X224540000Y-39000000D03*
%TO.P,Read2,2*%
%TO.N,/B1*%
X222000000Y-36460000D03*
D13*
%TO.P,Read2,1*%
%TO.N,/B0*%
X222000000Y-39000000D03*
%TD*%
D12*
%TO.P,Read1,16*%
%TO.N,N/C*%
X203780000Y-36460000D03*
%TO.P,Read1,15*%
X203780000Y-39000000D03*
%TO.P,Read1,14*%
X201240000Y-36460000D03*
%TO.P,Read1,13*%
X201240000Y-39000000D03*
%TO.P,Read1,12*%
X198700000Y-36460000D03*
%TO.P,Read1,11*%
X198700000Y-39000000D03*
%TO.P,Read1,10*%
X196160000Y-36460000D03*
%TO.P,Read1,9*%
X196160000Y-39000000D03*
%TO.P,Read1,8*%
%TO.N,/A7*%
X193620000Y-36460000D03*
%TO.P,Read1,7*%
%TO.N,/A6*%
X193620000Y-39000000D03*
%TO.P,Read1,6*%
%TO.N,/A5*%
X191080000Y-36460000D03*
%TO.P,Read1,5*%
%TO.N,/A4*%
X191080000Y-39000000D03*
%TO.P,Read1,4*%
%TO.N,/A3*%
X188540000Y-36460000D03*
%TO.P,Read1,3*%
%TO.N,/A2*%
X188540000Y-39000000D03*
%TO.P,Read1,2*%
%TO.N,/A1*%
X186000000Y-36460000D03*
D13*
%TO.P,Read1,1*%
%TO.N,/A0*%
X186000000Y-39000000D03*
%TD*%
D14*
%TO.P,Read 2 ID,6*%
%TO.N,Net-(DECRead2-Pad6)*%
X58460000Y-71920000D03*
%TO.P,Read 2 ID,5*%
%TO.N,Net-(R2-Pad5)*%
X58460000Y-74460000D03*
%TO.P,Read 2 ID,4*%
%TO.N,Net-(R2-Pad4)*%
X58460000Y-77000000D03*
%TO.P,Read 2 ID,3*%
%TO.N,/Y2*%
X61000000Y-71920000D03*
%TO.P,Read 2 ID,2*%
%TO.N,/Y1*%
X61000000Y-74460000D03*
D15*
%TO.P,Read 2 ID,1*%
%TO.N,/Y0*%
X61000000Y-77000000D03*
%TD*%
D16*
%TO.P,Latch8B6,20*%
%TO.N,+5V*%
X254620000Y-59000000D03*
%TO.P,Latch8B6,10*%
%TO.N,GNDREF*%
X247000000Y-81860000D03*
%TO.P,Latch8B6,19*%
%TO.N,/B0*%
X254620000Y-61540000D03*
%TO.P,Latch8B6,9*%
%TO.N,/W7*%
X247000000Y-79320000D03*
%TO.P,Latch8B6,18*%
%TO.N,/B1*%
X254620000Y-64080000D03*
%TO.P,Latch8B6,8*%
%TO.N,/W6*%
X247000000Y-76780000D03*
%TO.P,Latch8B6,17*%
%TO.N,/B2*%
X254620000Y-66620000D03*
%TO.P,Latch8B6,7*%
%TO.N,/W5*%
X247000000Y-74240000D03*
%TO.P,Latch8B6,16*%
%TO.N,/B3*%
X254620000Y-69160000D03*
%TO.P,Latch8B6,6*%
%TO.N,/W4*%
X247000000Y-71700000D03*
%TO.P,Latch8B6,15*%
%TO.N,/B4*%
X254620000Y-71700000D03*
%TO.P,Latch8B6,5*%
%TO.N,/W3*%
X247000000Y-69160000D03*
%TO.P,Latch8B6,14*%
%TO.N,/B5*%
X254620000Y-74240000D03*
%TO.P,Latch8B6,4*%
%TO.N,/W2*%
X247000000Y-66620000D03*
%TO.P,Latch8B6,13*%
%TO.N,/B6*%
X254620000Y-76780000D03*
%TO.P,Latch8B6,3*%
%TO.N,/W1*%
X247000000Y-64080000D03*
%TO.P,Latch8B6,12*%
%TO.N,/B7*%
X254620000Y-79320000D03*
%TO.P,Latch8B6,2*%
%TO.N,/W0*%
X247000000Y-61540000D03*
%TO.P,Latch8B6,11*%
%TO.N,LE6*%
X254620000Y-81860000D03*
D17*
%TO.P,Latch8B6,1*%
%TO.N,~BEO6*%
X247000000Y-59000000D03*
%TD*%
D16*
%TO.P,Latch8B5,20*%
%TO.N,+5V*%
X234620000Y-59000000D03*
%TO.P,Latch8B5,10*%
%TO.N,GNDREF*%
X227000000Y-81860000D03*
%TO.P,Latch8B5,19*%
%TO.N,/B0*%
X234620000Y-61540000D03*
%TO.P,Latch8B5,9*%
%TO.N,/W7*%
X227000000Y-79320000D03*
%TO.P,Latch8B5,18*%
%TO.N,/B1*%
X234620000Y-64080000D03*
%TO.P,Latch8B5,8*%
%TO.N,/W6*%
X227000000Y-76780000D03*
%TO.P,Latch8B5,17*%
%TO.N,/B2*%
X234620000Y-66620000D03*
%TO.P,Latch8B5,7*%
%TO.N,/W5*%
X227000000Y-74240000D03*
%TO.P,Latch8B5,16*%
%TO.N,/B3*%
X234620000Y-69160000D03*
%TO.P,Latch8B5,6*%
%TO.N,/W4*%
X227000000Y-71700000D03*
%TO.P,Latch8B5,15*%
%TO.N,/B4*%
X234620000Y-71700000D03*
%TO.P,Latch8B5,5*%
%TO.N,/W3*%
X227000000Y-69160000D03*
%TO.P,Latch8B5,14*%
%TO.N,/B5*%
X234620000Y-74240000D03*
%TO.P,Latch8B5,4*%
%TO.N,/W2*%
X227000000Y-66620000D03*
%TO.P,Latch8B5,13*%
%TO.N,/B6*%
X234620000Y-76780000D03*
%TO.P,Latch8B5,3*%
%TO.N,/W1*%
X227000000Y-64080000D03*
%TO.P,Latch8B5,12*%
%TO.N,/B7*%
X234620000Y-79320000D03*
%TO.P,Latch8B5,2*%
%TO.N,/W0*%
X227000000Y-61540000D03*
%TO.P,Latch8B5,11*%
%TO.N,LE5*%
X234620000Y-81860000D03*
D17*
%TO.P,Latch8B5,1*%
%TO.N,~BEO5*%
X227000000Y-59000000D03*
%TD*%
D16*
%TO.P,Latch8B4,20*%
%TO.N,+5V*%
X214620000Y-59000000D03*
%TO.P,Latch8B4,10*%
%TO.N,GNDREF*%
X207000000Y-81860000D03*
%TO.P,Latch8B4,19*%
%TO.N,/B0*%
X214620000Y-61540000D03*
%TO.P,Latch8B4,9*%
%TO.N,/W7*%
X207000000Y-79320000D03*
%TO.P,Latch8B4,18*%
%TO.N,/B1*%
X214620000Y-64080000D03*
%TO.P,Latch8B4,8*%
%TO.N,/W6*%
X207000000Y-76780000D03*
%TO.P,Latch8B4,17*%
%TO.N,/B2*%
X214620000Y-66620000D03*
%TO.P,Latch8B4,7*%
%TO.N,/W5*%
X207000000Y-74240000D03*
%TO.P,Latch8B4,16*%
%TO.N,/B3*%
X214620000Y-69160000D03*
%TO.P,Latch8B4,6*%
%TO.N,/W4*%
X207000000Y-71700000D03*
%TO.P,Latch8B4,15*%
%TO.N,/B4*%
X214620000Y-71700000D03*
%TO.P,Latch8B4,5*%
%TO.N,/W3*%
X207000000Y-69160000D03*
%TO.P,Latch8B4,14*%
%TO.N,/B5*%
X214620000Y-74240000D03*
%TO.P,Latch8B4,4*%
%TO.N,/W2*%
X207000000Y-66620000D03*
%TO.P,Latch8B4,13*%
%TO.N,/B6*%
X214620000Y-76780000D03*
%TO.P,Latch8B4,3*%
%TO.N,/W1*%
X207000000Y-64080000D03*
%TO.P,Latch8B4,12*%
%TO.N,/B7*%
X214620000Y-79320000D03*
%TO.P,Latch8B4,2*%
%TO.N,/W0*%
X207000000Y-61540000D03*
%TO.P,Latch8B4,11*%
%TO.N,LE4*%
X214620000Y-81860000D03*
D17*
%TO.P,Latch8B4,1*%
%TO.N,~BEO4*%
X207000000Y-59000000D03*
%TD*%
D16*
%TO.P,Latch8B3,20*%
%TO.N,+5V*%
X194620000Y-59000000D03*
%TO.P,Latch8B3,10*%
%TO.N,GNDREF*%
X187000000Y-81860000D03*
%TO.P,Latch8B3,19*%
%TO.N,/B0*%
X194620000Y-61540000D03*
%TO.P,Latch8B3,9*%
%TO.N,/W7*%
X187000000Y-79320000D03*
%TO.P,Latch8B3,18*%
%TO.N,/B1*%
X194620000Y-64080000D03*
%TO.P,Latch8B3,8*%
%TO.N,/W6*%
X187000000Y-76780000D03*
%TO.P,Latch8B3,17*%
%TO.N,/B2*%
X194620000Y-66620000D03*
%TO.P,Latch8B3,7*%
%TO.N,/W5*%
X187000000Y-74240000D03*
%TO.P,Latch8B3,16*%
%TO.N,/B3*%
X194620000Y-69160000D03*
%TO.P,Latch8B3,6*%
%TO.N,/W4*%
X187000000Y-71700000D03*
%TO.P,Latch8B3,15*%
%TO.N,/B4*%
X194620000Y-71700000D03*
%TO.P,Latch8B3,5*%
%TO.N,/W3*%
X187000000Y-69160000D03*
%TO.P,Latch8B3,14*%
%TO.N,/B5*%
X194620000Y-74240000D03*
%TO.P,Latch8B3,4*%
%TO.N,/W2*%
X187000000Y-66620000D03*
%TO.P,Latch8B3,13*%
%TO.N,/B6*%
X194620000Y-76780000D03*
%TO.P,Latch8B3,3*%
%TO.N,/W1*%
X187000000Y-64080000D03*
%TO.P,Latch8B3,12*%
%TO.N,/B7*%
X194620000Y-79320000D03*
%TO.P,Latch8B3,2*%
%TO.N,/W0*%
X187000000Y-61540000D03*
%TO.P,Latch8B3,11*%
%TO.N,LE3*%
X194620000Y-81860000D03*
D17*
%TO.P,Latch8B3,1*%
%TO.N,~BEO3*%
X187000000Y-59000000D03*
%TD*%
D16*
%TO.P,Latch8B2,20*%
%TO.N,+5V*%
X174620000Y-59000000D03*
%TO.P,Latch8B2,10*%
%TO.N,GNDREF*%
X167000000Y-81860000D03*
%TO.P,Latch8B2,19*%
%TO.N,/B0*%
X174620000Y-61540000D03*
%TO.P,Latch8B2,9*%
%TO.N,/W7*%
X167000000Y-79320000D03*
%TO.P,Latch8B2,18*%
%TO.N,/B1*%
X174620000Y-64080000D03*
%TO.P,Latch8B2,8*%
%TO.N,/W6*%
X167000000Y-76780000D03*
%TO.P,Latch8B2,17*%
%TO.N,/B2*%
X174620000Y-66620000D03*
%TO.P,Latch8B2,7*%
%TO.N,/W5*%
X167000000Y-74240000D03*
%TO.P,Latch8B2,16*%
%TO.N,/B3*%
X174620000Y-69160000D03*
%TO.P,Latch8B2,6*%
%TO.N,/W4*%
X167000000Y-71700000D03*
%TO.P,Latch8B2,15*%
%TO.N,/B4*%
X174620000Y-71700000D03*
%TO.P,Latch8B2,5*%
%TO.N,/W3*%
X167000000Y-69160000D03*
%TO.P,Latch8B2,14*%
%TO.N,/B5*%
X174620000Y-74240000D03*
%TO.P,Latch8B2,4*%
%TO.N,/W2*%
X167000000Y-66620000D03*
%TO.P,Latch8B2,13*%
%TO.N,/B6*%
X174620000Y-76780000D03*
%TO.P,Latch8B2,3*%
%TO.N,/W1*%
X167000000Y-64080000D03*
%TO.P,Latch8B2,12*%
%TO.N,/B7*%
X174620000Y-79320000D03*
%TO.P,Latch8B2,2*%
%TO.N,/W0*%
X167000000Y-61540000D03*
%TO.P,Latch8B2,11*%
%TO.N,LE2*%
X174620000Y-81860000D03*
D17*
%TO.P,Latch8B2,1*%
%TO.N,~BEO2*%
X167000000Y-59000000D03*
%TD*%
D16*
%TO.P,Latch8B1,20*%
%TO.N,+5V*%
X154620000Y-59000000D03*
%TO.P,Latch8B1,10*%
%TO.N,GNDREF*%
X147000000Y-81860000D03*
%TO.P,Latch8B1,19*%
%TO.N,/B0*%
X154620000Y-61540000D03*
%TO.P,Latch8B1,9*%
%TO.N,/W7*%
X147000000Y-79320000D03*
%TO.P,Latch8B1,18*%
%TO.N,/B1*%
X154620000Y-64080000D03*
%TO.P,Latch8B1,8*%
%TO.N,/W6*%
X147000000Y-76780000D03*
%TO.P,Latch8B1,17*%
%TO.N,/B2*%
X154620000Y-66620000D03*
%TO.P,Latch8B1,7*%
%TO.N,/W5*%
X147000000Y-74240000D03*
%TO.P,Latch8B1,16*%
%TO.N,/B3*%
X154620000Y-69160000D03*
%TO.P,Latch8B1,6*%
%TO.N,/W4*%
X147000000Y-71700000D03*
%TO.P,Latch8B1,15*%
%TO.N,/B4*%
X154620000Y-71700000D03*
%TO.P,Latch8B1,5*%
%TO.N,/W3*%
X147000000Y-69160000D03*
%TO.P,Latch8B1,14*%
%TO.N,/B5*%
X154620000Y-74240000D03*
%TO.P,Latch8B1,4*%
%TO.N,/W2*%
X147000000Y-66620000D03*
%TO.P,Latch8B1,13*%
%TO.N,/B6*%
X154620000Y-76780000D03*
%TO.P,Latch8B1,3*%
%TO.N,/W1*%
X147000000Y-64080000D03*
%TO.P,Latch8B1,12*%
%TO.N,/B7*%
X154620000Y-79320000D03*
%TO.P,Latch8B1,2*%
%TO.N,/W0*%
X147000000Y-61540000D03*
%TO.P,Latch8B1,11*%
%TO.N,LE1*%
X154620000Y-81860000D03*
D17*
%TO.P,Latch8B1,1*%
%TO.N,~BEO1*%
X147000000Y-59000000D03*
%TD*%
D16*
%TO.P,Latch8B0,20*%
%TO.N,+5V*%
X133620000Y-59000000D03*
%TO.P,Latch8B0,10*%
%TO.N,GNDREF*%
X126000000Y-81860000D03*
%TO.P,Latch8B0,19*%
%TO.N,/B0*%
X133620000Y-61540000D03*
%TO.P,Latch8B0,9*%
%TO.N,/W7*%
X126000000Y-79320000D03*
%TO.P,Latch8B0,18*%
%TO.N,/B1*%
X133620000Y-64080000D03*
%TO.P,Latch8B0,8*%
%TO.N,/W6*%
X126000000Y-76780000D03*
%TO.P,Latch8B0,17*%
%TO.N,/B2*%
X133620000Y-66620000D03*
%TO.P,Latch8B0,7*%
%TO.N,/W5*%
X126000000Y-74240000D03*
%TO.P,Latch8B0,16*%
%TO.N,/B3*%
X133620000Y-69160000D03*
%TO.P,Latch8B0,6*%
%TO.N,/W4*%
X126000000Y-71700000D03*
%TO.P,Latch8B0,15*%
%TO.N,/B4*%
X133620000Y-71700000D03*
%TO.P,Latch8B0,5*%
%TO.N,/W3*%
X126000000Y-69160000D03*
%TO.P,Latch8B0,14*%
%TO.N,/B5*%
X133620000Y-74240000D03*
%TO.P,Latch8B0,4*%
%TO.N,/W2*%
X126000000Y-66620000D03*
%TO.P,Latch8B0,13*%
%TO.N,/B6*%
X133620000Y-76780000D03*
%TO.P,Latch8B0,3*%
%TO.N,/W1*%
X126000000Y-64080000D03*
%TO.P,Latch8B0,12*%
%TO.N,/B7*%
X133620000Y-79320000D03*
%TO.P,Latch8B0,2*%
%TO.N,/W0*%
X126000000Y-61540000D03*
%TO.P,Latch8B0,11*%
%TO.N,LE0*%
X133620000Y-81860000D03*
D17*
%TO.P,Latch8B0,1*%
%TO.N,~BEO0*%
X126000000Y-59000000D03*
%TD*%
D16*
%TO.P,Latch8A6,20*%
%TO.N,+5V*%
X248380000Y-123000000D03*
%TO.P,Latch8A6,10*%
%TO.N,GNDREF*%
X256000000Y-100140000D03*
%TO.P,Latch8A6,19*%
%TO.N,/A0*%
X248380000Y-120460000D03*
%TO.P,Latch8A6,9*%
%TO.N,/W7*%
X256000000Y-102680000D03*
%TO.P,Latch8A6,18*%
%TO.N,/A1*%
X248380000Y-117920000D03*
%TO.P,Latch8A6,8*%
%TO.N,/W6*%
X256000000Y-105220000D03*
%TO.P,Latch8A6,17*%
%TO.N,/A2*%
X248380000Y-115380000D03*
%TO.P,Latch8A6,7*%
%TO.N,/W5*%
X256000000Y-107760000D03*
%TO.P,Latch8A6,16*%
%TO.N,/A3*%
X248380000Y-112840000D03*
%TO.P,Latch8A6,6*%
%TO.N,/W4*%
X256000000Y-110300000D03*
%TO.P,Latch8A6,15*%
%TO.N,/A4*%
X248380000Y-110300000D03*
%TO.P,Latch8A6,5*%
%TO.N,/W3*%
X256000000Y-112840000D03*
%TO.P,Latch8A6,14*%
%TO.N,/A5*%
X248380000Y-107760000D03*
%TO.P,Latch8A6,4*%
%TO.N,/W2*%
X256000000Y-115380000D03*
%TO.P,Latch8A6,13*%
%TO.N,/A6*%
X248380000Y-105220000D03*
%TO.P,Latch8A6,3*%
%TO.N,/W1*%
X256000000Y-117920000D03*
%TO.P,Latch8A6,12*%
%TO.N,/A7*%
X248380000Y-102680000D03*
%TO.P,Latch8A6,2*%
%TO.N,/W0*%
X256000000Y-120460000D03*
%TO.P,Latch8A6,11*%
%TO.N,LE6*%
X248380000Y-100140000D03*
D17*
%TO.P,Latch8A6,1*%
%TO.N,~AEO6*%
X256000000Y-123000000D03*
%TD*%
D16*
%TO.P,Latch8A5,20*%
%TO.N,+5V*%
X236620000Y-100000000D03*
%TO.P,Latch8A5,10*%
%TO.N,GNDREF*%
X229000000Y-122860000D03*
%TO.P,Latch8A5,19*%
%TO.N,/A0*%
X236620000Y-102540000D03*
%TO.P,Latch8A5,9*%
%TO.N,/W7*%
X229000000Y-120320000D03*
%TO.P,Latch8A5,18*%
%TO.N,/A1*%
X236620000Y-105080000D03*
%TO.P,Latch8A5,8*%
%TO.N,/W6*%
X229000000Y-117780000D03*
%TO.P,Latch8A5,17*%
%TO.N,/A2*%
X236620000Y-107620000D03*
%TO.P,Latch8A5,7*%
%TO.N,/W5*%
X229000000Y-115240000D03*
%TO.P,Latch8A5,16*%
%TO.N,/A3*%
X236620000Y-110160000D03*
%TO.P,Latch8A5,6*%
%TO.N,/W4*%
X229000000Y-112700000D03*
%TO.P,Latch8A5,15*%
%TO.N,/A4*%
X236620000Y-112700000D03*
%TO.P,Latch8A5,5*%
%TO.N,/W3*%
X229000000Y-110160000D03*
%TO.P,Latch8A5,14*%
%TO.N,/A5*%
X236620000Y-115240000D03*
%TO.P,Latch8A5,4*%
%TO.N,/W2*%
X229000000Y-107620000D03*
%TO.P,Latch8A5,13*%
%TO.N,/A6*%
X236620000Y-117780000D03*
%TO.P,Latch8A5,3*%
%TO.N,/W1*%
X229000000Y-105080000D03*
%TO.P,Latch8A5,12*%
%TO.N,/A7*%
X236620000Y-120320000D03*
%TO.P,Latch8A5,2*%
%TO.N,/W0*%
X229000000Y-102540000D03*
%TO.P,Latch8A5,11*%
%TO.N,LE5*%
X236620000Y-122860000D03*
D17*
%TO.P,Latch8A5,1*%
%TO.N,~AEO5*%
X229000000Y-100000000D03*
%TD*%
D16*
%TO.P,Latch8A4,20*%
%TO.N,+5V*%
X214620000Y-99000000D03*
%TO.P,Latch8A4,10*%
%TO.N,GNDREF*%
X207000000Y-121860000D03*
%TO.P,Latch8A4,19*%
%TO.N,/A0*%
X214620000Y-101540000D03*
%TO.P,Latch8A4,9*%
%TO.N,/W7*%
X207000000Y-119320000D03*
%TO.P,Latch8A4,18*%
%TO.N,/A1*%
X214620000Y-104080000D03*
%TO.P,Latch8A4,8*%
%TO.N,/W6*%
X207000000Y-116780000D03*
%TO.P,Latch8A4,17*%
%TO.N,/A2*%
X214620000Y-106620000D03*
%TO.P,Latch8A4,7*%
%TO.N,/W5*%
X207000000Y-114240000D03*
%TO.P,Latch8A4,16*%
%TO.N,/A3*%
X214620000Y-109160000D03*
%TO.P,Latch8A4,6*%
%TO.N,/W4*%
X207000000Y-111700000D03*
%TO.P,Latch8A4,15*%
%TO.N,/A4*%
X214620000Y-111700000D03*
%TO.P,Latch8A4,5*%
%TO.N,/W3*%
X207000000Y-109160000D03*
%TO.P,Latch8A4,14*%
%TO.N,/A5*%
X214620000Y-114240000D03*
%TO.P,Latch8A4,4*%
%TO.N,/W2*%
X207000000Y-106620000D03*
%TO.P,Latch8A4,13*%
%TO.N,/A6*%
X214620000Y-116780000D03*
%TO.P,Latch8A4,3*%
%TO.N,/W1*%
X207000000Y-104080000D03*
%TO.P,Latch8A4,12*%
%TO.N,/A7*%
X214620000Y-119320000D03*
%TO.P,Latch8A4,2*%
%TO.N,/W0*%
X207000000Y-101540000D03*
%TO.P,Latch8A4,11*%
%TO.N,LE4*%
X214620000Y-121860000D03*
D17*
%TO.P,Latch8A4,1*%
%TO.N,~AEO4*%
X207000000Y-99000000D03*
%TD*%
D16*
%TO.P,Latch8A3,20*%
%TO.N,+5V*%
X194620000Y-99000000D03*
%TO.P,Latch8A3,10*%
%TO.N,GNDREF*%
X187000000Y-121860000D03*
%TO.P,Latch8A3,19*%
%TO.N,/A0*%
X194620000Y-101540000D03*
%TO.P,Latch8A3,9*%
%TO.N,/W7*%
X187000000Y-119320000D03*
%TO.P,Latch8A3,18*%
%TO.N,/A1*%
X194620000Y-104080000D03*
%TO.P,Latch8A3,8*%
%TO.N,/W6*%
X187000000Y-116780000D03*
%TO.P,Latch8A3,17*%
%TO.N,/A2*%
X194620000Y-106620000D03*
%TO.P,Latch8A3,7*%
%TO.N,/W5*%
X187000000Y-114240000D03*
%TO.P,Latch8A3,16*%
%TO.N,/A3*%
X194620000Y-109160000D03*
%TO.P,Latch8A3,6*%
%TO.N,/W4*%
X187000000Y-111700000D03*
%TO.P,Latch8A3,15*%
%TO.N,/A4*%
X194620000Y-111700000D03*
%TO.P,Latch8A3,5*%
%TO.N,/W3*%
X187000000Y-109160000D03*
%TO.P,Latch8A3,14*%
%TO.N,/A5*%
X194620000Y-114240000D03*
%TO.P,Latch8A3,4*%
%TO.N,/W2*%
X187000000Y-106620000D03*
%TO.P,Latch8A3,13*%
%TO.N,/A6*%
X194620000Y-116780000D03*
%TO.P,Latch8A3,3*%
%TO.N,/W1*%
X187000000Y-104080000D03*
%TO.P,Latch8A3,12*%
%TO.N,/A7*%
X194620000Y-119320000D03*
%TO.P,Latch8A3,2*%
%TO.N,/W0*%
X187000000Y-101540000D03*
%TO.P,Latch8A3,11*%
%TO.N,LE3*%
X194620000Y-121860000D03*
D17*
%TO.P,Latch8A3,1*%
%TO.N,~AEO3*%
X187000000Y-99000000D03*
%TD*%
D16*
%TO.P,Latch8A2,20*%
%TO.N,+5V*%
X174620000Y-99000000D03*
%TO.P,Latch8A2,10*%
%TO.N,GNDREF*%
X167000000Y-121860000D03*
%TO.P,Latch8A2,19*%
%TO.N,/A0*%
X174620000Y-101540000D03*
%TO.P,Latch8A2,9*%
%TO.N,/W7*%
X167000000Y-119320000D03*
%TO.P,Latch8A2,18*%
%TO.N,/A1*%
X174620000Y-104080000D03*
%TO.P,Latch8A2,8*%
%TO.N,/W6*%
X167000000Y-116780000D03*
%TO.P,Latch8A2,17*%
%TO.N,/A2*%
X174620000Y-106620000D03*
%TO.P,Latch8A2,7*%
%TO.N,/W5*%
X167000000Y-114240000D03*
%TO.P,Latch8A2,16*%
%TO.N,/A3*%
X174620000Y-109160000D03*
%TO.P,Latch8A2,6*%
%TO.N,/W4*%
X167000000Y-111700000D03*
%TO.P,Latch8A2,15*%
%TO.N,/A4*%
X174620000Y-111700000D03*
%TO.P,Latch8A2,5*%
%TO.N,/W3*%
X167000000Y-109160000D03*
%TO.P,Latch8A2,14*%
%TO.N,/A5*%
X174620000Y-114240000D03*
%TO.P,Latch8A2,4*%
%TO.N,/W2*%
X167000000Y-106620000D03*
%TO.P,Latch8A2,13*%
%TO.N,/A6*%
X174620000Y-116780000D03*
%TO.P,Latch8A2,3*%
%TO.N,/W1*%
X167000000Y-104080000D03*
%TO.P,Latch8A2,12*%
%TO.N,/A7*%
X174620000Y-119320000D03*
%TO.P,Latch8A2,2*%
%TO.N,/W0*%
X167000000Y-101540000D03*
%TO.P,Latch8A2,11*%
%TO.N,LE2*%
X174620000Y-121860000D03*
D17*
%TO.P,Latch8A2,1*%
%TO.N,~AEO2*%
X167000000Y-99000000D03*
%TD*%
D16*
%TO.P,Latch8A1,20*%
%TO.N,+5V*%
X153620000Y-99000000D03*
%TO.P,Latch8A1,10*%
%TO.N,GNDREF*%
X146000000Y-121860000D03*
%TO.P,Latch8A1,19*%
%TO.N,/A0*%
X153620000Y-101540000D03*
%TO.P,Latch8A1,9*%
%TO.N,/W7*%
X146000000Y-119320000D03*
%TO.P,Latch8A1,18*%
%TO.N,/A1*%
X153620000Y-104080000D03*
%TO.P,Latch8A1,8*%
%TO.N,/W6*%
X146000000Y-116780000D03*
%TO.P,Latch8A1,17*%
%TO.N,/A2*%
X153620000Y-106620000D03*
%TO.P,Latch8A1,7*%
%TO.N,/W5*%
X146000000Y-114240000D03*
%TO.P,Latch8A1,16*%
%TO.N,/A3*%
X153620000Y-109160000D03*
%TO.P,Latch8A1,6*%
%TO.N,/W4*%
X146000000Y-111700000D03*
%TO.P,Latch8A1,15*%
%TO.N,/A4*%
X153620000Y-111700000D03*
%TO.P,Latch8A1,5*%
%TO.N,/W3*%
X146000000Y-109160000D03*
%TO.P,Latch8A1,14*%
%TO.N,/A5*%
X153620000Y-114240000D03*
%TO.P,Latch8A1,4*%
%TO.N,/W2*%
X146000000Y-106620000D03*
%TO.P,Latch8A1,13*%
%TO.N,/A6*%
X153620000Y-116780000D03*
%TO.P,Latch8A1,3*%
%TO.N,/W1*%
X146000000Y-104080000D03*
%TO.P,Latch8A1,12*%
%TO.N,/A7*%
X153620000Y-119320000D03*
%TO.P,Latch8A1,2*%
%TO.N,/W0*%
X146000000Y-101540000D03*
%TO.P,Latch8A1,11*%
%TO.N,LE1*%
X153620000Y-121860000D03*
D17*
%TO.P,Latch8A1,1*%
%TO.N,~AEO1*%
X146000000Y-99000000D03*
%TD*%
D16*
%TO.P,Latch8A0,20*%
%TO.N,+5V*%
X133620000Y-99000000D03*
%TO.P,Latch8A0,10*%
%TO.N,GNDREF*%
X126000000Y-121860000D03*
%TO.P,Latch8A0,19*%
%TO.N,/A0*%
X133620000Y-101540000D03*
%TO.P,Latch8A0,9*%
%TO.N,/W7*%
X126000000Y-119320000D03*
%TO.P,Latch8A0,18*%
%TO.N,/A1*%
X133620000Y-104080000D03*
%TO.P,Latch8A0,8*%
%TO.N,/W6*%
X126000000Y-116780000D03*
%TO.P,Latch8A0,17*%
%TO.N,/A2*%
X133620000Y-106620000D03*
%TO.P,Latch8A0,7*%
%TO.N,/W5*%
X126000000Y-114240000D03*
%TO.P,Latch8A0,16*%
%TO.N,/A3*%
X133620000Y-109160000D03*
%TO.P,Latch8A0,6*%
%TO.N,/W4*%
X126000000Y-111700000D03*
%TO.P,Latch8A0,15*%
%TO.N,/A4*%
X133620000Y-111700000D03*
%TO.P,Latch8A0,5*%
%TO.N,/W3*%
X126000000Y-109160000D03*
%TO.P,Latch8A0,14*%
%TO.N,/A5*%
X133620000Y-114240000D03*
%TO.P,Latch8A0,4*%
%TO.N,/W2*%
X126000000Y-106620000D03*
%TO.P,Latch8A0,13*%
%TO.N,/A6*%
X133620000Y-116780000D03*
%TO.P,Latch8A0,3*%
%TO.N,/W1*%
X126000000Y-104080000D03*
%TO.P,Latch8A0,12*%
%TO.N,/A7*%
X133620000Y-119320000D03*
%TO.P,Latch8A0,2*%
%TO.N,/W0*%
X126000000Y-101540000D03*
%TO.P,Latch8A0,11*%
%TO.N,LE0*%
X133620000Y-121860000D03*
D17*
%TO.P,Latch8A0,1*%
%TO.N,~AEO0*%
X126000000Y-99000000D03*
%TD*%
D14*
%TO.P,Read 1 ID,6*%
%TO.N,Net-(DECRead1-Pad6)*%
X58460000Y-108920000D03*
%TO.P,Read 1 ID,5*%
%TO.N,Net-(JR1-Pad5)*%
X58460000Y-111460000D03*
%TO.P,Read 1 ID,4*%
%TO.N,Net-(JR1-Pad4)*%
X58460000Y-114000000D03*
%TO.P,Read 1 ID,3*%
%TO.N,/X2*%
X61000000Y-108920000D03*
%TO.P,Read 1 ID,2*%
%TO.N,/X1*%
X61000000Y-111460000D03*
D15*
%TO.P,Read 1 ID,1*%
%TO.N,/X0*%
X61000000Y-114000000D03*
%TD*%
D16*
%TO.P,INV2,14*%
%TO.N,+5V*%
X98000000Y-82380000D03*
%TO.P,INV2,7*%
%TO.N,GNDREF*%
X113240000Y-90000000D03*
%TO.P,INV2,13*%
%TO.N,Net-(INV2-Pad13)*%
X100540000Y-82380000D03*
%TO.P,INV2,6*%
%TO.N,LE6*%
X110700000Y-90000000D03*
%TO.P,INV2,12*%
%TO.N,Net-(INV2-Pad12)*%
X103080000Y-82380000D03*
%TO.P,INV2,5*%
%TO.N,Net-(DECWrite1-Pad9)*%
X108160000Y-90000000D03*
%TO.P,INV2,11*%
%TO.N,Net-(INV2-Pad11)*%
X105620000Y-82380000D03*
%TO.P,INV2,4*%
%TO.N,LE5*%
X105620000Y-90000000D03*
%TO.P,INV2,10*%
%TO.N,Net-(INV2-Pad10)*%
X108160000Y-82380000D03*
%TO.P,INV2,3*%
%TO.N,Net-(DECWrite1-Pad10)*%
X103080000Y-90000000D03*
%TO.P,INV2,9*%
%TO.N,Net-(DECWrite1-Pad7)*%
X110700000Y-82380000D03*
%TO.P,INV2,2*%
%TO.N,LE4*%
X100540000Y-90000000D03*
%TO.P,INV2,8*%
%TO.N,LE7*%
X113240000Y-82380000D03*
D17*
%TO.P,INV2,1*%
%TO.N,Net-(DECWrite1-Pad11)*%
X98000000Y-90000000D03*
%TD*%
D16*
%TO.P,INV1,14*%
%TO.N,+5V*%
X98000000Y-64380000D03*
%TO.P,INV1,7*%
%TO.N,GNDREF*%
X113240000Y-72000000D03*
%TO.P,INV1,13*%
%TO.N,Net-(INV1-Pad13)*%
X100540000Y-64380000D03*
%TO.P,INV1,6*%
%TO.N,LE2*%
X110700000Y-72000000D03*
%TO.P,INV1,12*%
%TO.N,Net-(INV1-Pad12)*%
X103080000Y-64380000D03*
%TO.P,INV1,5*%
%TO.N,Net-(DECWrite1-Pad13)*%
X108160000Y-72000000D03*
%TO.P,INV1,11*%
%TO.N,Net-(INV1-Pad11)*%
X105620000Y-64380000D03*
%TO.P,INV1,4*%
%TO.N,LE1*%
X105620000Y-72000000D03*
%TO.P,INV1,10*%
%TO.N,Net-(INV1-Pad10)*%
X108160000Y-64380000D03*
%TO.P,INV1,3*%
%TO.N,Net-(DECWrite1-Pad14)*%
X103080000Y-72000000D03*
%TO.P,INV1,9*%
%TO.N,Net-(DECWrite1-Pad12)*%
X110700000Y-64380000D03*
%TO.P,INV1,2*%
%TO.N,LE0*%
X100540000Y-72000000D03*
%TO.P,INV1,8*%
%TO.N,LE3*%
X113240000Y-64380000D03*
D17*
%TO.P,INV1,1*%
%TO.N,Net-(DECWrite1-Pad15)*%
X98000000Y-72000000D03*
%TD*%
D18*
%TO.P,H8,1*%
%TO.N,+5V*%
X246856155Y-26143845D03*
X245000000Y-25375000D03*
X243143845Y-26143845D03*
X242375000Y-28000000D03*
X243143845Y-29856155D03*
X245000000Y-30625000D03*
X246856155Y-29856155D03*
X247625000Y-28000000D03*
D19*
X245000000Y-28000000D03*
%TD*%
D18*
%TO.P,H7,1*%
%TO.N,+5V*%
X66856155Y-133143845D03*
X65000000Y-132375000D03*
X63143845Y-133143845D03*
X62375000Y-135000000D03*
X63143845Y-136856155D03*
X65000000Y-137625000D03*
X66856155Y-136856155D03*
X67625000Y-135000000D03*
D19*
X65000000Y-135000000D03*
%TD*%
D18*
%TO.P,H6,1*%
%TO.N,GNDREF*%
X66856155Y-26143845D03*
X65000000Y-25375000D03*
X63143845Y-26143845D03*
X62375000Y-28000000D03*
X63143845Y-29856155D03*
X65000000Y-30625000D03*
X66856155Y-29856155D03*
X67625000Y-28000000D03*
D19*
X65000000Y-28000000D03*
%TD*%
D18*
%TO.P,H5,1*%
%TO.N,N/C*%
X56856155Y-26143845D03*
X55000000Y-25375000D03*
X53143845Y-26143845D03*
X52375000Y-28000000D03*
X53143845Y-29856155D03*
X55000000Y-30625000D03*
X56856155Y-29856155D03*
X57625000Y-28000000D03*
D19*
X55000000Y-28000000D03*
%TD*%
D18*
%TO.P,H4,1*%
%TO.N,N/C*%
X56856155Y-133143845D03*
X55000000Y-132375000D03*
X53143845Y-133143845D03*
X52375000Y-135000000D03*
X53143845Y-136856155D03*
X55000000Y-137625000D03*
X56856155Y-136856155D03*
X57625000Y-135000000D03*
D19*
X55000000Y-135000000D03*
%TD*%
D18*
%TO.P,H3,1*%
%TO.N,GNDREF*%
X246856155Y-133143845D03*
X245000000Y-132375000D03*
X243143845Y-133143845D03*
X242375000Y-135000000D03*
X243143845Y-136856155D03*
X245000000Y-137625000D03*
X246856155Y-136856155D03*
X247625000Y-135000000D03*
D19*
X245000000Y-135000000D03*
%TD*%
D18*
%TO.P,H2,1*%
%TO.N,N/C*%
X256856155Y-26143845D03*
X255000000Y-25375000D03*
X253143845Y-26143845D03*
X252375000Y-28000000D03*
X253143845Y-29856155D03*
X255000000Y-30625000D03*
X256856155Y-29856155D03*
X257625000Y-28000000D03*
D19*
X255000000Y-28000000D03*
%TD*%
D18*
%TO.P,H1,1*%
%TO.N,N/C*%
X256856155Y-133143845D03*
X255000000Y-132375000D03*
X253143845Y-133143845D03*
X252375000Y-135000000D03*
X253143845Y-136856155D03*
X255000000Y-137625000D03*
X256856155Y-136856155D03*
X257625000Y-135000000D03*
D19*
X255000000Y-135000000D03*
%TD*%
D16*
%TO.P,DECRead2,20*%
%TO.N,N/C*%
X107620000Y-101000000D03*
%TO.P,DECRead2,10*%
%TO.N,~BEO5*%
X100000000Y-123860000D03*
%TO.P,DECRead2,19*%
%TO.N,N/C*%
X107620000Y-103540000D03*
%TO.P,DECRead2,9*%
%TO.N,~BEO6*%
X100000000Y-121320000D03*
%TO.P,DECRead2,18*%
%TO.N,N/C*%
X107620000Y-106080000D03*
%TO.P,DECRead2,8*%
%TO.N,GNDREF*%
X100000000Y-118780000D03*
%TO.P,DECRead2,17*%
%TO.N,N/C*%
X107620000Y-108620000D03*
%TO.P,DECRead2,7*%
%TO.N,~BEO7*%
X100000000Y-116240000D03*
%TO.P,DECRead2,16*%
%TO.N,+5V*%
X107620000Y-111160000D03*
%TO.P,DECRead2,6*%
%TO.N,Net-(DECRead2-Pad6)*%
X100000000Y-113700000D03*
%TO.P,DECRead2,15*%
%TO.N,~BEO0*%
X107620000Y-113700000D03*
%TO.P,DECRead2,5*%
%TO.N,GNDREF*%
X100000000Y-111160000D03*
%TO.P,DECRead2,14*%
%TO.N,~BEO1*%
X107620000Y-116240000D03*
%TO.P,DECRead2,4*%
%TO.N,GNDREF*%
X100000000Y-108620000D03*
%TO.P,DECRead2,13*%
%TO.N,~BEO2*%
X107620000Y-118780000D03*
%TO.P,DECRead2,3*%
%TO.N,/Y2*%
X100000000Y-106080000D03*
%TO.P,DECRead2,12*%
%TO.N,~BEO3*%
X107620000Y-121320000D03*
%TO.P,DECRead2,2*%
%TO.N,/Y1*%
X100000000Y-103540000D03*
%TO.P,DECRead2,11*%
%TO.N,~BEO4*%
X107620000Y-123860000D03*
D17*
%TO.P,DECRead2,1*%
%TO.N,/Y0*%
X100000000Y-101000000D03*
%TD*%
D16*
%TO.P,DECRead1,20*%
%TO.N,N/C*%
X81620000Y-100000000D03*
%TO.P,DECRead1,10*%
%TO.N,~AEO5*%
X74000000Y-122860000D03*
%TO.P,DECRead1,19*%
%TO.N,N/C*%
X81620000Y-102540000D03*
%TO.P,DECRead1,9*%
%TO.N,~AEO6*%
X74000000Y-120320000D03*
%TO.P,DECRead1,18*%
%TO.N,N/C*%
X81620000Y-105080000D03*
%TO.P,DECRead1,8*%
%TO.N,GNDREF*%
X74000000Y-117780000D03*
%TO.P,DECRead1,17*%
%TO.N,N/C*%
X81620000Y-107620000D03*
%TO.P,DECRead1,7*%
%TO.N,~AEO7*%
X74000000Y-115240000D03*
%TO.P,DECRead1,16*%
%TO.N,+5V*%
X81620000Y-110160000D03*
%TO.P,DECRead1,6*%
%TO.N,Net-(DECRead1-Pad6)*%
X74000000Y-112700000D03*
%TO.P,DECRead1,15*%
%TO.N,~AEO0*%
X81620000Y-112700000D03*
%TO.P,DECRead1,5*%
%TO.N,GNDREF*%
X74000000Y-110160000D03*
%TO.P,DECRead1,14*%
%TO.N,~AEO1*%
X81620000Y-115240000D03*
%TO.P,DECRead1,4*%
%TO.N,GNDREF*%
X74000000Y-107620000D03*
%TO.P,DECRead1,13*%
%TO.N,~AEO2*%
X81620000Y-117780000D03*
%TO.P,DECRead1,3*%
%TO.N,/X2*%
X74000000Y-105080000D03*
%TO.P,DECRead1,12*%
%TO.N,~AEO3*%
X81620000Y-120320000D03*
%TO.P,DECRead1,2*%
%TO.N,/X1*%
X74000000Y-102540000D03*
%TO.P,DECRead1,11*%
%TO.N,~AEO4*%
X81620000Y-122860000D03*
D17*
%TO.P,DECRead1,1*%
%TO.N,/X0*%
X74000000Y-100000000D03*
%TD*%
D16*
%TO.P,DECWrite1,20*%
%TO.N,N/C*%
X80620000Y-64000000D03*
%TO.P,DECWrite1,10*%
%TO.N,Net-(DECWrite1-Pad10)*%
X73000000Y-86860000D03*
%TO.P,DECWrite1,19*%
%TO.N,N/C*%
X80620000Y-66540000D03*
%TO.P,DECWrite1,9*%
%TO.N,Net-(DECWrite1-Pad9)*%
X73000000Y-84320000D03*
%TO.P,DECWrite1,18*%
%TO.N,N/C*%
X80620000Y-69080000D03*
%TO.P,DECWrite1,8*%
%TO.N,GNDREF*%
X73000000Y-81780000D03*
%TO.P,DECWrite1,17*%
%TO.N,N/C*%
X80620000Y-71620000D03*
%TO.P,DECWrite1,7*%
%TO.N,Net-(DECWrite1-Pad7)*%
X73000000Y-79240000D03*
%TO.P,DECWrite1,16*%
%TO.N,+5V*%
X80620000Y-74160000D03*
%TO.P,DECWrite1,6*%
%TO.N,Net-(DECWrite1-Pad6)*%
X73000000Y-76700000D03*
%TO.P,DECWrite1,15*%
%TO.N,Net-(DECWrite1-Pad15)*%
X80620000Y-76700000D03*
%TO.P,DECWrite1,5*%
%TO.N,GNDREF*%
X73000000Y-74160000D03*
%TO.P,DECWrite1,14*%
%TO.N,Net-(DECWrite1-Pad14)*%
X80620000Y-79240000D03*
%TO.P,DECWrite1,4*%
%TO.N,GNDREF*%
X73000000Y-71620000D03*
%TO.P,DECWrite1,13*%
%TO.N,Net-(DECWrite1-Pad13)*%
X80620000Y-81780000D03*
%TO.P,DECWrite1,3*%
%TO.N,/W2*%
X73000000Y-69080000D03*
%TO.P,DECWrite1,12*%
%TO.N,Net-(DECWrite1-Pad12)*%
X80620000Y-84320000D03*
%TO.P,DECWrite1,2*%
%TO.N,/W1*%
X73000000Y-66540000D03*
%TO.P,DECWrite1,11*%
%TO.N,Net-(DECWrite1-Pad11)*%
X80620000Y-86860000D03*
D17*
%TO.P,DECWrite1,1*%
%TO.N,/W0*%
X73000000Y-64000000D03*
%TD*%
D16*
%TO.P,CB6,2*%
%TO.N,GNDREF*%
X254500000Y-55000000D03*
D20*
%TO.P,CB6,1*%
%TO.N,+5V*%
X247000000Y-55000000D03*
%TD*%
D16*
%TO.P,CB5,2*%
%TO.N,GNDREF*%
X234500000Y-55000000D03*
D20*
%TO.P,CB5,1*%
%TO.N,+5V*%
X227000000Y-55000000D03*
%TD*%
D16*
%TO.P,CB4,2*%
%TO.N,GNDREF*%
X214500000Y-55000000D03*
D20*
%TO.P,CB4,1*%
%TO.N,+5V*%
X207000000Y-55000000D03*
%TD*%
D16*
%TO.P,CB3,2*%
%TO.N,GNDREF*%
X194500000Y-55000000D03*
D20*
%TO.P,CB3,1*%
%TO.N,+5V*%
X187000000Y-55000000D03*
%TD*%
D16*
%TO.P,CB2,2*%
%TO.N,GNDREF*%
X174500000Y-55000000D03*
D20*
%TO.P,CB2,1*%
%TO.N,+5V*%
X167000000Y-55000000D03*
%TD*%
D16*
%TO.P,CB1,2*%
%TO.N,GNDREF*%
X154500000Y-55000000D03*
D20*
%TO.P,CB1,1*%
%TO.N,+5V*%
X147000000Y-55000000D03*
%TD*%
D16*
%TO.P,CB0,2*%
%TO.N,GNDREF*%
X133500000Y-55000000D03*
D20*
%TO.P,CB0,1*%
%TO.N,+5V*%
X126000000Y-55000000D03*
%TD*%
D16*
%TO.P,CA11,2*%
%TO.N,GNDREF*%
X94000000Y-82500000D03*
D20*
%TO.P,CA11,1*%
%TO.N,+5V*%
X94000000Y-90000000D03*
%TD*%
D16*
%TO.P,CA10,2*%
%TO.N,GNDREF*%
X94000000Y-64500000D03*
D20*
%TO.P,CA10,1*%
%TO.N,+5V*%
X94000000Y-72000000D03*
%TD*%
D16*
%TO.P,CA9,2*%
%TO.N,GNDREF*%
X107500000Y-128000000D03*
D20*
%TO.P,CA9,1*%
%TO.N,+5V*%
X100000000Y-128000000D03*
%TD*%
D16*
%TO.P,CA8,2*%
%TO.N,GNDREF*%
X81500000Y-127000000D03*
D20*
%TO.P,CA8,1*%
%TO.N,+5V*%
X74000000Y-127000000D03*
%TD*%
D16*
%TO.P,CA7,2*%
%TO.N,GNDREF*%
X80500000Y-60000000D03*
D20*
%TO.P,CA7,1*%
%TO.N,+5V*%
X73000000Y-60000000D03*
%TD*%
D16*
%TO.P,CA6,2*%
%TO.N,GNDREF*%
X248500000Y-127000000D03*
D20*
%TO.P,CA6,1*%
%TO.N,+5V*%
X256000000Y-127000000D03*
%TD*%
D16*
%TO.P,CA5,2*%
%TO.N,GNDREF*%
X236500000Y-127000000D03*
D20*
%TO.P,CA5,1*%
%TO.N,+5V*%
X229000000Y-127000000D03*
%TD*%
D16*
%TO.P,CA4,2*%
%TO.N,GNDREF*%
X214500000Y-126000000D03*
D20*
%TO.P,CA4,1*%
%TO.N,+5V*%
X207000000Y-126000000D03*
%TD*%
D16*
%TO.P,CA3,2*%
%TO.N,GNDREF*%
X187000000Y-126000000D03*
D20*
%TO.P,CA3,1*%
%TO.N,+5V*%
X194500000Y-126000000D03*
%TD*%
D16*
%TO.P,CA2,2*%
%TO.N,GNDREF*%
X174500000Y-126000000D03*
D20*
%TO.P,CA2,1*%
%TO.N,+5V*%
X167000000Y-126000000D03*
%TD*%
D16*
%TO.P,CA1,2*%
%TO.N,GNDREF*%
X153500000Y-126000000D03*
D20*
%TO.P,CA1,1*%
%TO.N,+5V*%
X146000000Y-126000000D03*
%TD*%
D16*
%TO.P,CA0,2*%
%TO.N,GNDREF*%
X133500000Y-126000000D03*
D20*
%TO.P,CA0,1*%
%TO.N,+5V*%
X126000000Y-126000000D03*
%TD*%
D10*
%TO.P,7WE1,1*%
%TO.N,LE7*%
X95000000Y-40000000D03*
%TD*%
D21*
%TO.P,5V/GND1,2*%
%TO.N,GNDREF*%
X106500000Y-39000000D03*
%TO.P,5V/GND1,1*%
%TO.N,+5V*%
%TA.AperFunction,ComponentPad*%
G36*
G01*
X103150000Y-39750000D02*
X103150000Y-38250000D01*
G75*
G02*
X103400000Y-38000000I250000J0D01*
G01*
X104600000Y-38000000D01*
G75*
G02*
X104850000Y-38250000I0J-250000D01*
G01*
X104850000Y-39750000D01*
G75*
G02*
X104600000Y-40000000I-250000J0D01*
G01*
X103400000Y-40000000D01*
G75*
G02*
X103150000Y-39750000I0J250000D01*
G01*
G37*
%TD.AperFunction*%
%TD*%
D22*
%TO.N,GNDREF*%
X249738900Y-87183600D03*
X230090900Y-83429000D03*
X84007500Y-123729100D03*
X119884400Y-82312900D03*
X104788500Y-122976200D03*
X172379800Y-83582100D03*
X209448300Y-83251300D03*
X70202200Y-71724900D03*
X193006100Y-83522100D03*
X91190500Y-64062000D03*
X155702400Y-121911300D03*
X110000000Y-49000000D03*
X101000000Y-49000000D03*
X147000000Y-50000000D03*
X136000000Y-50000000D03*
X191000000Y-49000000D03*
X182000000Y-49000000D03*
X219000000Y-49000000D03*
X227000000Y-49000000D03*
X234000000Y-50000000D03*
X239000000Y-54000000D03*
X244000000Y-50000000D03*
X250000000Y-50000000D03*
X130000000Y-44000000D03*
X126000000Y-41000000D03*
%TO.N,~BEO5*%
X128209500Y-56918100D03*
%TO.N,~BEO6*%
X214493200Y-123566600D03*
%TO.N,~BEO7*%
X127927300Y-55906500D03*
%TO.N,~BEO2*%
X142496600Y-59684300D03*
%TO.N,~BEO4*%
X188982700Y-123235800D03*
%TO.N,LE1*%
X154339400Y-84969300D03*
X111244100Y-77171900D03*
%TO.N,/W6*%
X151983900Y-115598400D03*
%TO.N,/B4*%
X137444200Y-74398900D03*
%TO.N,/B5*%
X149190600Y-74516600D03*
X140520800Y-73670600D03*
%TD*%
D23*
%TO.N,GNDREF*%
X249738900Y-87183600D02*
X256000000Y-93444700D01*
X256000000Y-93444700D02*
X256000000Y-100140000D01*
X227000000Y-81860000D02*
X228521900Y-81860000D01*
X228521900Y-81860000D02*
X230090900Y-83429000D01*
X107500000Y-126355700D02*
X120204000Y-126355700D01*
X120204000Y-126355700D02*
X124699700Y-121860000D01*
X104788500Y-122976200D02*
X104788500Y-123644200D01*
X104788500Y-123644200D02*
X107500000Y-126355700D01*
X107500000Y-126699700D02*
X107500000Y-126355700D01*
X126000000Y-121860000D02*
X124699700Y-121860000D01*
X81500000Y-124866100D02*
X82870500Y-124866100D01*
X82870500Y-124866100D02*
X84007500Y-123729100D01*
X75300300Y-117780000D02*
X75300300Y-118666400D01*
X75300300Y-118666400D02*
X81500000Y-124866100D01*
X81500000Y-124866100D02*
X81500000Y-125699700D01*
X242375000Y-135000000D02*
X243143900Y-135768900D01*
X243143900Y-135768900D02*
X243143900Y-136856100D01*
X117284500Y-82312900D02*
X117284500Y-77344800D01*
X117284500Y-77344800D02*
X113240000Y-73300300D01*
X113240000Y-88699700D02*
X117284500Y-84655200D01*
X117284500Y-84655200D02*
X117284500Y-82312900D01*
X117284500Y-82312900D02*
X119884400Y-82312900D01*
X208300300Y-121860000D02*
X212440300Y-126000000D01*
X212440300Y-126000000D02*
X214500000Y-126000000D01*
X107500000Y-128000000D02*
X107500000Y-126699700D01*
X74000000Y-117780000D02*
X75300300Y-117780000D01*
X72643200Y-114063000D02*
X72643200Y-116423200D01*
X72643200Y-116423200D02*
X74000000Y-117780000D01*
X81500000Y-127000000D02*
X81500000Y-125699700D01*
X167000000Y-81860000D02*
X168300300Y-81860000D01*
X168300300Y-81860000D02*
X170022400Y-83582100D01*
X170022400Y-83582100D02*
X172379800Y-83582100D01*
X207000000Y-81860000D02*
X208300300Y-81860000D01*
X208300300Y-81860000D02*
X208300300Y-82103300D01*
X208300300Y-82103300D02*
X209448300Y-83251300D01*
X246856200Y-133143800D02*
X247625000Y-133912600D01*
X247625000Y-133912600D02*
X247625000Y-135000000D01*
X246087400Y-132375000D02*
X246856200Y-133143800D01*
X207000000Y-121860000D02*
X208300300Y-121860000D01*
X100000000Y-118780000D02*
X101319200Y-117460800D01*
X101319200Y-117460800D02*
X101319200Y-112479200D01*
X101319200Y-112479200D02*
X100000000Y-111160000D01*
X66543800Y-69434200D02*
X67911500Y-69434200D01*
X67911500Y-69434200D02*
X70202200Y-71724900D01*
X187000000Y-81860000D02*
X188300300Y-81860000D01*
X188300300Y-81860000D02*
X189962400Y-83522100D01*
X189962400Y-83522100D02*
X193006100Y-83522100D01*
X72643200Y-114063000D02*
X72643200Y-111516800D01*
X72643200Y-111516800D02*
X74000000Y-110160000D01*
X65129100Y-114063000D02*
X72643200Y-114063000D01*
X248500000Y-127000000D02*
X248500000Y-128300300D01*
X245000000Y-132375000D02*
X246087400Y-132375000D01*
X246087400Y-132375000D02*
X246087400Y-130712900D01*
X246087400Y-130712900D02*
X248500000Y-128300300D01*
X234500000Y-55000000D02*
X234500000Y-53699700D01*
X230174800Y-42979200D02*
X230174800Y-49374500D01*
X230174800Y-49374500D02*
X234500000Y-53699700D01*
X229000000Y-122860000D02*
X230300300Y-122860000D01*
X230300300Y-122860000D02*
X234440300Y-127000000D01*
X234440300Y-127000000D02*
X236500000Y-127000000D01*
X174500000Y-41618300D02*
X174500000Y-55000000D01*
X167000000Y-121860000D02*
X168300300Y-121860000D01*
X168300300Y-121860000D02*
X172440300Y-126000000D01*
X172440300Y-126000000D02*
X174500000Y-126000000D01*
X154500000Y-55000000D02*
X154500000Y-53699700D01*
X145621700Y-41289500D02*
X145621700Y-44821400D01*
X146000000Y-121860000D02*
X144699700Y-121860000D01*
X133500000Y-126000000D02*
X140559700Y-126000000D01*
X140559700Y-126000000D02*
X144699700Y-121860000D01*
X127300300Y-121860000D02*
X131440300Y-126000000D01*
X131440300Y-126000000D02*
X133500000Y-126000000D01*
X146000000Y-121860000D02*
X147300300Y-121860000D01*
X153500000Y-124113700D02*
X155702400Y-121911300D01*
X153500000Y-126000000D02*
X153500000Y-124113700D01*
X147300300Y-121860000D02*
X149554000Y-124113700D01*
X149554000Y-124113700D02*
X153500000Y-124113700D01*
X126000000Y-121860000D02*
X127300300Y-121860000D01*
X87128500Y-60000000D02*
X91190500Y-64062000D01*
X80500000Y-60000000D02*
X87128500Y-60000000D01*
X89209800Y-44940400D02*
X87128500Y-47021700D01*
X87128500Y-47021700D02*
X87128500Y-60000000D01*
X73000000Y-81780000D02*
X71699700Y-81780000D01*
X66052700Y-81335400D02*
X71255100Y-81335400D01*
X71255100Y-81335400D02*
X71699700Y-81780000D01*
X246856200Y-136856100D02*
X247625000Y-136087300D01*
X247625000Y-136087300D02*
X247625000Y-135000000D01*
X113240000Y-72000000D02*
X113240000Y-73300300D01*
X113240000Y-72000000D02*
X113240000Y-70699700D01*
X114540400Y-50759300D02*
X114540400Y-69399300D01*
X114540400Y-69399300D02*
X113240000Y-70699700D01*
X117000000Y-42000000D02*
X115499700Y-42000000D01*
X111421800Y-39134700D02*
X112634400Y-39134700D01*
X112634400Y-39134700D02*
X115499700Y-42000000D01*
X100000000Y-111160000D02*
X100000000Y-108620000D01*
X74000000Y-110160000D02*
X74000000Y-107620000D01*
X73000000Y-74160000D02*
X73000000Y-71620000D01*
X113240000Y-90000000D02*
X113240000Y-88699700D01*
X237800300Y-127000000D02*
X237800300Y-127800200D01*
X237800300Y-127800200D02*
X243143900Y-133143800D01*
X236500000Y-127000000D02*
X237800300Y-127000000D01*
X251173500Y-39483400D02*
X254500000Y-42809900D01*
X254500000Y-42809900D02*
X254500000Y-55000000D01*
X213000900Y-41562600D02*
X214500000Y-43061700D01*
X214500000Y-43061700D02*
X214500000Y-55000000D01*
X94000000Y-82500000D02*
X94000000Y-81199700D01*
X94000000Y-64500000D02*
X94000000Y-65800300D01*
X94000000Y-65800300D02*
X92696900Y-67103400D01*
X92696900Y-67103400D02*
X92696900Y-79896600D01*
X92696900Y-79896600D02*
X94000000Y-81199700D01*
X187000000Y-121860000D02*
X187000000Y-126000000D01*
X117000000Y-45000000D02*
X112890550Y-49109450D01*
X117000000Y-42000000D02*
X117000000Y-45000000D01*
X112890550Y-49109450D02*
X114540400Y-50759300D01*
X107463400Y-43682300D02*
X112890550Y-49109450D01*
X110109450Y-49109450D02*
X110000000Y-49000000D01*
X112890550Y-49109450D02*
X110109450Y-49109450D01*
X101000000Y-49000000D02*
X100000000Y-49000000D01*
X100000000Y-49000000D02*
X96000000Y-45000000D01*
X150900150Y-50099850D02*
X147099850Y-50099850D01*
X145621700Y-44821400D02*
X150900150Y-50099850D01*
X150900150Y-50099850D02*
X154500000Y-53699700D01*
X147099850Y-50099850D02*
X147000000Y-50000000D01*
X136000000Y-50000000D02*
X133500000Y-52500000D01*
X133500000Y-52500000D02*
X133500000Y-55000000D01*
X194500000Y-55000000D02*
X194500000Y-52500000D01*
X194500000Y-52500000D02*
X191000000Y-49000000D01*
X180500000Y-49000000D02*
X174500000Y-55000000D01*
X182000000Y-49000000D02*
X180500000Y-49000000D01*
X214500000Y-55000000D02*
X214500000Y-52500000D01*
X214500000Y-52500000D02*
X218000000Y-49000000D01*
X218000000Y-49000000D02*
X219000000Y-49000000D01*
X227000000Y-49000000D02*
X230000000Y-49000000D01*
X230000000Y-49000000D02*
X232000000Y-49000000D01*
X232000000Y-49000000D02*
X233000000Y-49000000D01*
X233000000Y-49000000D02*
X234000000Y-50000000D01*
X239000000Y-54000000D02*
X243000000Y-50000000D01*
X243000000Y-50000000D02*
X244000000Y-50000000D01*
X254500000Y-54500000D02*
X254500000Y-55000000D01*
X250000000Y-50000000D02*
X254500000Y-54500000D01*
X133500000Y-47500000D02*
X130000000Y-44000000D01*
X133500000Y-41893400D02*
X133500000Y-47500000D01*
X133500000Y-47500000D02*
X133500000Y-52500000D01*
X126000000Y-41000000D02*
X124000000Y-39000000D01*
X120000000Y-39000000D02*
X117000000Y-42000000D01*
X124000000Y-39000000D02*
X120000000Y-39000000D01*
%TO.N,+5V*%
X133620000Y-59000000D02*
X132319700Y-59000000D01*
X126000000Y-55000000D02*
X128319700Y-55000000D01*
X128319700Y-55000000D02*
X132319700Y-59000000D01*
X247000000Y-55000000D02*
X249319700Y-55000000D01*
X249319700Y-55000000D02*
X253319700Y-59000000D01*
X245543700Y-31168600D02*
X247000000Y-32625000D01*
X247000000Y-32625000D02*
X247000000Y-55000000D01*
X254620000Y-59000000D02*
X253319700Y-59000000D01*
X250599400Y-123000000D02*
X252000000Y-123000000D01*
X252000000Y-123000000D02*
X256000000Y-127000000D01*
X248380000Y-123000000D02*
X250599400Y-123000000D01*
X250599400Y-123000000D02*
X250599400Y-100458500D01*
X250599400Y-100458500D02*
X248972300Y-98831400D01*
X248972300Y-98831400D02*
X239088900Y-98831400D01*
X239088900Y-98831400D02*
X237920300Y-100000000D01*
X236620000Y-100000000D02*
X237920300Y-100000000D01*
X194620000Y-59000000D02*
X193319700Y-59000000D01*
X187000000Y-55000000D02*
X189319700Y-55000000D01*
X189319700Y-55000000D02*
X193319700Y-59000000D01*
X154620000Y-59000000D02*
X153319700Y-59000000D01*
X147000000Y-55000000D02*
X149319700Y-55000000D01*
X149319700Y-55000000D02*
X153319700Y-59000000D01*
X100000000Y-128000000D02*
X100000000Y-126456300D01*
X100000000Y-126456300D02*
X105450100Y-121006200D01*
X105450100Y-121006200D02*
X105450100Y-113329900D01*
X105450100Y-113329900D02*
X107620000Y-111160000D01*
X73000000Y-60000000D02*
X76810000Y-63810000D01*
X76810000Y-63810000D02*
X76810000Y-70350000D01*
X76810000Y-70350000D02*
X80620000Y-74160000D01*
X104000000Y-39000000D02*
X103499600Y-38499600D01*
X103499600Y-38499600D02*
X94349000Y-38499600D01*
X94349000Y-38499600D02*
X73000000Y-59848600D01*
X73000000Y-59848600D02*
X73000000Y-60000000D01*
X67625000Y-135000000D02*
X66856200Y-135768800D01*
X66856200Y-135768800D02*
X66856200Y-136856100D01*
X67625000Y-133143800D02*
X67625000Y-135000000D01*
X65384400Y-136856100D02*
X65000000Y-137240500D01*
X66856200Y-136856100D02*
X65384400Y-136856100D01*
X65000000Y-135000000D02*
X65384400Y-135384400D01*
X65384400Y-135384400D02*
X65384400Y-136856100D01*
X65000000Y-137240500D02*
X63528300Y-137240500D01*
X63528300Y-137240500D02*
X63143900Y-136856100D01*
X65000000Y-137625000D02*
X65000000Y-137240500D01*
X244231100Y-29856100D02*
X245000000Y-30625000D01*
X243143900Y-29856100D02*
X244231100Y-29856100D01*
X245000000Y-28000000D02*
X244231100Y-28768900D01*
X244231100Y-28768900D02*
X244231100Y-29856100D01*
X152319700Y-99000000D02*
X150996100Y-97676400D01*
X150996100Y-97676400D02*
X136243900Y-97676400D01*
X136243900Y-97676400D02*
X134920300Y-99000000D01*
X133620000Y-99000000D02*
X134920300Y-99000000D01*
X153620000Y-99000000D02*
X152319700Y-99000000D01*
X98000000Y-82380000D02*
X98000000Y-81079700D01*
X98000000Y-81079700D02*
X94000000Y-77079700D01*
X94000000Y-77079700D02*
X94000000Y-72000000D01*
X98000000Y-82380000D02*
X98000000Y-86000000D01*
X98000000Y-86000000D02*
X94000000Y-90000000D01*
X62375000Y-135000000D02*
X63143900Y-135768900D01*
X63143900Y-135768900D02*
X63143900Y-136856100D01*
X245000000Y-30625000D02*
X245543700Y-31168600D01*
X245543700Y-31168600D02*
X246856200Y-29856100D01*
X81620000Y-110160000D02*
X94000000Y-97780000D01*
X94000000Y-97780000D02*
X94000000Y-90000000D01*
X247625000Y-28000000D02*
X246856200Y-27231200D01*
X246856200Y-27231200D02*
X246856200Y-26143800D01*
X247625000Y-28000000D02*
X246856200Y-28768800D01*
X246856200Y-28768800D02*
X246856200Y-29856100D01*
X67625000Y-133143800D02*
X66856200Y-133143800D01*
X74000000Y-127000000D02*
X67856200Y-133143800D01*
X67856200Y-133143800D02*
X67625000Y-133143800D01*
X234620000Y-59000000D02*
X233319700Y-59000000D01*
X227000000Y-55000000D02*
X229319700Y-55000000D01*
X229319700Y-55000000D02*
X233319700Y-59000000D01*
X214620000Y-59000000D02*
X213319700Y-59000000D01*
X207000000Y-55000000D02*
X209319700Y-55000000D01*
X209319700Y-55000000D02*
X213319700Y-59000000D01*
X174620000Y-59000000D02*
X173319700Y-59000000D01*
X167000000Y-55000000D02*
X169319700Y-55000000D01*
X169319700Y-55000000D02*
X173319700Y-59000000D01*
D24*
%TO.N,LE7*%
X113240000Y-82380000D02*
X113240000Y-81254700D01*
X113240000Y-81254700D02*
X111970000Y-79984700D01*
X111970000Y-79984700D02*
X111970000Y-56970000D01*
X111970000Y-56970000D02*
X95000000Y-40000000D01*
%TO.N,Net-(DECWrite1-Pad6)*%
X73000000Y-75574700D02*
X72578000Y-75574700D01*
X72578000Y-75574700D02*
X71027500Y-74024200D01*
X71027500Y-74024200D02*
X71027500Y-71383000D01*
X71027500Y-71383000D02*
X70798800Y-71154300D01*
X70798800Y-71154300D02*
X70798800Y-42228900D01*
X70798800Y-42228900D02*
X73297700Y-39730000D01*
X73297700Y-39730000D02*
X77810000Y-39730000D01*
X77810000Y-39730000D02*
X79080000Y-38460000D01*
X73000000Y-76700000D02*
X73000000Y-75574700D01*
%TO.N,/W2*%
X207000000Y-106620000D02*
X207000000Y-105494700D01*
X207000000Y-66620000D02*
X207000000Y-67745300D01*
X207000000Y-67745300D02*
X206718700Y-67745300D01*
X206718700Y-67745300D02*
X205311800Y-69152200D01*
X205311800Y-69152200D02*
X205311800Y-92949000D01*
X205311800Y-92949000D02*
X208125300Y-95762500D01*
X208125300Y-95762500D02*
X208125300Y-104650800D01*
X208125300Y-104650800D02*
X207281400Y-105494700D01*
X207281400Y-105494700D02*
X207000000Y-105494700D01*
X73000000Y-69080000D02*
X73000000Y-67954700D01*
X73000000Y-67954700D02*
X73281300Y-67954700D01*
X73281300Y-67954700D02*
X74125800Y-67110200D01*
X74125800Y-67110200D02*
X74125800Y-63007100D01*
X74125800Y-63007100D02*
X71725800Y-60607100D01*
X71725800Y-60607100D02*
X71725800Y-48354200D01*
X71725800Y-48354200D02*
X79080000Y-41000000D01*
%TO.N,Net-(DECWrite1-Pad12)*%
X110700000Y-64380000D02*
X109574700Y-64380000D01*
X80620000Y-84320000D02*
X80620000Y-83194700D01*
X80620000Y-83194700D02*
X80901400Y-83194700D01*
X80901400Y-83194700D02*
X81745300Y-82350800D01*
X81745300Y-82350800D02*
X81745300Y-75002900D01*
X81745300Y-75002900D02*
X93598000Y-63150200D01*
X93598000Y-63150200D02*
X108558500Y-63150200D01*
X108558500Y-63150200D02*
X109574700Y-64166400D01*
X109574700Y-64166400D02*
X109574700Y-64380000D01*
%TO.N,/W1*%
X147000000Y-64080000D02*
X147000000Y-62954700D01*
X147000000Y-62954700D02*
X146718600Y-62954700D01*
X146718600Y-62954700D02*
X145874700Y-62110800D01*
X145874700Y-62110800D02*
X145874700Y-60407400D01*
X145874700Y-60407400D02*
X137150400Y-51683100D01*
X137150400Y-51683100D02*
X137150400Y-35610400D01*
X137150400Y-35610400D02*
X136000000Y-34460000D01*
X126000000Y-104080000D02*
X126000000Y-102954700D01*
X126000000Y-64080000D02*
X126000000Y-65205300D01*
X126000000Y-65205300D02*
X125718700Y-65205300D01*
X125718700Y-65205300D02*
X124774700Y-66149300D01*
X124774700Y-66149300D02*
X124774700Y-102010700D01*
X124774700Y-102010700D02*
X125718700Y-102954700D01*
X125718700Y-102954700D02*
X126000000Y-102954700D01*
X73000000Y-65414700D02*
X72296700Y-65414700D01*
X72296700Y-65414700D02*
X71275500Y-64393500D01*
X71275500Y-64393500D02*
X71275500Y-46264500D01*
X71275500Y-46264500D02*
X76540000Y-41000000D01*
X73000000Y-66540000D02*
X73000000Y-65414700D01*
%TO.N,/W0*%
X126000000Y-61540000D02*
X126000000Y-62665300D01*
X126000000Y-101540000D02*
X126000000Y-100414700D01*
X126000000Y-100414700D02*
X126703300Y-100414700D01*
X126703300Y-100414700D02*
X127237800Y-99880200D01*
X127237800Y-99880200D02*
X127237800Y-63621800D01*
X127237800Y-63621800D02*
X126281300Y-62665300D01*
X126281300Y-62665300D02*
X126000000Y-62665300D01*
%TO.N,~AEO5*%
X229000000Y-101125300D02*
X228718600Y-101125300D01*
X228718600Y-101125300D02*
X226974100Y-102869800D01*
X226974100Y-102869800D02*
X226974100Y-115313800D01*
X226974100Y-115313800D02*
X211650900Y-130637000D01*
X211650900Y-130637000D02*
X82902300Y-130637000D01*
X82902300Y-130637000D02*
X75125300Y-122860000D01*
X229000000Y-100000000D02*
X229000000Y-101125300D01*
X74000000Y-122860000D02*
X75125300Y-122860000D01*
%TO.N,~AEO7*%
X74000000Y-115240000D02*
X75125300Y-115240000D01*
X75125300Y-115240000D02*
X78864600Y-111500700D01*
X78864600Y-111500700D02*
X82999300Y-111500700D01*
X82999300Y-111500700D02*
X102385900Y-92114100D01*
X102385900Y-92114100D02*
X112858900Y-92114100D01*
X112858900Y-92114100D02*
X121144900Y-83828100D01*
X121144900Y-83828100D02*
X121144900Y-47670200D01*
X121144900Y-47670200D02*
X135526700Y-33288400D01*
X135526700Y-33288400D02*
X171288400Y-33288400D01*
X171288400Y-33288400D02*
X175000000Y-37000000D01*
%TO.N,~AEO2*%
X167000000Y-100125300D02*
X166718600Y-100125300D01*
X166718600Y-100125300D02*
X165874700Y-100969200D01*
X165874700Y-100969200D02*
X165874700Y-115417600D01*
X165874700Y-115417600D02*
X152032800Y-129259500D01*
X152032800Y-129259500D02*
X98742600Y-129259500D01*
X98742600Y-129259500D02*
X87263100Y-117780000D01*
X87263100Y-117780000D02*
X81620000Y-117780000D01*
X167000000Y-99000000D02*
X167000000Y-100125300D01*
%TO.N,~AEO3*%
X187000000Y-100125300D02*
X186718600Y-100125300D01*
X186718600Y-100125300D02*
X185874700Y-100969200D01*
X185874700Y-100969200D02*
X185874700Y-112245600D01*
X185874700Y-112245600D02*
X175082900Y-123037400D01*
X175082900Y-123037400D02*
X173270400Y-123037400D01*
X173270400Y-123037400D02*
X170851700Y-120618700D01*
X170851700Y-120618700D02*
X162375400Y-120618700D01*
X162375400Y-120618700D02*
X153284200Y-129709900D01*
X153284200Y-129709900D02*
X97937100Y-129709900D01*
X97937100Y-129709900D02*
X88547200Y-120320000D01*
X88547200Y-120320000D02*
X81620000Y-120320000D01*
X187000000Y-99000000D02*
X187000000Y-100125300D01*
%TO.N,/X1*%
X74000000Y-102540000D02*
X72874700Y-102540000D01*
X72874700Y-102540000D02*
X63954700Y-111460000D01*
X63954700Y-111460000D02*
X61000000Y-111460000D01*
%TO.N,~AEO4*%
X207000000Y-99000000D02*
X207000000Y-100125300D01*
X81620000Y-122860000D02*
X89451400Y-122860000D01*
X89451400Y-122860000D02*
X96778100Y-130186700D01*
X96778100Y-130186700D02*
X185001900Y-130186700D01*
X185001900Y-130186700D02*
X190798900Y-124389700D01*
X190798900Y-124389700D02*
X194424100Y-124389700D01*
X194424100Y-124389700D02*
X205874700Y-112939100D01*
X205874700Y-112939100D02*
X205874700Y-100969200D01*
X205874700Y-100969200D02*
X206718600Y-100125300D01*
X206718600Y-100125300D02*
X207000000Y-100125300D01*
%TO.N,/X0*%
X61000000Y-114000000D02*
X61000000Y-112924700D01*
X74000000Y-100000000D02*
X72874700Y-100000000D01*
X72874700Y-100000000D02*
X62490100Y-110384600D01*
X62490100Y-110384600D02*
X60546100Y-110384600D01*
X60546100Y-110384600D02*
X59924700Y-111006000D01*
X59924700Y-111006000D02*
X59924700Y-111983900D01*
X59924700Y-111983900D02*
X60865500Y-112924700D01*
X60865500Y-112924700D02*
X61000000Y-112924700D01*
%TO.N,~BEO5*%
X100000000Y-122734700D02*
X100281300Y-122734700D01*
X100281300Y-122734700D02*
X103343000Y-119673000D01*
X103343000Y-119673000D02*
X103343000Y-113697700D01*
X103343000Y-113697700D02*
X107221400Y-109819300D01*
X107221400Y-109819300D02*
X108033500Y-109819300D01*
X108033500Y-109819300D02*
X123446600Y-94406200D01*
X123446600Y-94406200D02*
X123446600Y-59470200D01*
X123446600Y-59470200D02*
X125699100Y-57217700D01*
X125699100Y-57217700D02*
X127909900Y-57217700D01*
X127909900Y-57217700D02*
X128209500Y-56918100D01*
X100000000Y-123860000D02*
X100000000Y-122734700D01*
%TO.N,~BEO6*%
X247000000Y-59000000D02*
X247000000Y-60125300D01*
X214493200Y-123566600D02*
X214603700Y-123566600D01*
X214603700Y-123566600D02*
X224019100Y-114151200D01*
X224019100Y-114151200D02*
X224019100Y-90792500D01*
X224019100Y-90792500D02*
X234221600Y-80590000D01*
X234221600Y-80590000D02*
X234954200Y-80590000D01*
X234954200Y-80590000D02*
X244662100Y-70882100D01*
X244662100Y-70882100D02*
X244662100Y-62181900D01*
X244662100Y-62181900D02*
X246718700Y-60125300D01*
X246718700Y-60125300D02*
X247000000Y-60125300D01*
%TO.N,~BEO7*%
X100000000Y-115114700D02*
X99718700Y-115114700D01*
X99718700Y-115114700D02*
X98769000Y-114165000D01*
X98769000Y-114165000D02*
X98769000Y-108065700D01*
X98769000Y-108065700D02*
X99555400Y-107279300D01*
X99555400Y-107279300D02*
X100464300Y-107279300D01*
X100464300Y-107279300D02*
X105735300Y-102008300D01*
X105735300Y-102008300D02*
X105735300Y-101278800D01*
X105735300Y-101278800D02*
X121595300Y-85418800D01*
X121595300Y-85418800D02*
X121595300Y-60621600D01*
X121595300Y-60621600D02*
X125449600Y-56767300D01*
X125449600Y-56767300D02*
X127066500Y-56767300D01*
X127066500Y-56767300D02*
X127927300Y-55906500D01*
X100000000Y-116240000D02*
X100000000Y-115114700D01*
%TO.N,~BEO0*%
X107620000Y-112574700D02*
X108042000Y-112574700D01*
X108042000Y-112574700D02*
X124261200Y-96355500D01*
X124261200Y-96355500D02*
X124261200Y-61582800D01*
X124261200Y-61582800D02*
X125718700Y-60125300D01*
X125718700Y-60125300D02*
X126000000Y-60125300D01*
X126000000Y-59000000D02*
X126000000Y-60125300D01*
X107620000Y-113700000D02*
X107620000Y-112574700D01*
%TO.N,~BEO1*%
X147000000Y-60125300D02*
X147192800Y-60125300D01*
X147192800Y-60125300D02*
X148125400Y-61057900D01*
X148125400Y-61057900D02*
X148125400Y-64606500D01*
X148125400Y-64606500D02*
X147381900Y-65350000D01*
X147381900Y-65350000D02*
X146650000Y-65350000D01*
X146650000Y-65350000D02*
X145819800Y-66180200D01*
X145819800Y-66180200D02*
X145819800Y-67052900D01*
X145819800Y-67052900D02*
X134749100Y-78123600D01*
X134749100Y-78123600D02*
X133208800Y-78123600D01*
X133208800Y-78123600D02*
X129763000Y-81569400D01*
X129763000Y-81569400D02*
X129763000Y-104465200D01*
X129763000Y-104465200D02*
X126338200Y-107890000D01*
X126338200Y-107890000D02*
X124064900Y-107890000D01*
X124064900Y-107890000D02*
X115714900Y-116240000D01*
X115714900Y-116240000D02*
X107620000Y-116240000D01*
X147000000Y-59000000D02*
X147000000Y-60125300D01*
%TO.N,~BEO2*%
X107620000Y-117654700D02*
X107338700Y-117654700D01*
X107338700Y-117654700D02*
X106487200Y-116803200D01*
X106487200Y-116803200D02*
X106487200Y-115751500D01*
X106487200Y-115751500D02*
X107268700Y-114970000D01*
X107268700Y-114970000D02*
X113934100Y-114970000D01*
X113934100Y-114970000D02*
X123554100Y-105350000D01*
X123554100Y-105350000D02*
X126337700Y-105350000D01*
X126337700Y-105350000D02*
X127688200Y-103999500D01*
X127688200Y-103999500D02*
X127688200Y-73474200D01*
X127688200Y-73474200D02*
X133272400Y-67890000D01*
X133272400Y-67890000D02*
X134290900Y-67890000D01*
X134290900Y-67890000D02*
X142496600Y-59684300D01*
X107620000Y-118780000D02*
X107620000Y-117654700D01*
%TO.N,~BEO3*%
X107620000Y-121320000D02*
X112843200Y-121320000D01*
X112843200Y-121320000D02*
X123733200Y-110430000D01*
X123733200Y-110430000D02*
X126355100Y-110430000D01*
X126355100Y-110430000D02*
X131537100Y-105248000D01*
X131537100Y-105248000D02*
X131537100Y-82266100D01*
X131537100Y-82266100D02*
X133283900Y-80519300D01*
X133283900Y-80519300D02*
X147474500Y-80519300D01*
X147474500Y-80519300D02*
X153180100Y-74813700D01*
X153180100Y-74813700D02*
X153180100Y-68971800D01*
X153180100Y-68971800D02*
X154261900Y-67890000D01*
X154261900Y-67890000D02*
X174950300Y-67890000D01*
X174950300Y-67890000D02*
X183840300Y-59000000D01*
X183840300Y-59000000D02*
X187000000Y-59000000D01*
%TO.N,~BEO4*%
X207000000Y-60125300D02*
X206718700Y-60125300D01*
X206718700Y-60125300D02*
X202590300Y-64253700D01*
X202590300Y-64253700D02*
X202590300Y-115509600D01*
X202590300Y-115509600D02*
X194864100Y-123235800D01*
X194864100Y-123235800D02*
X188982700Y-123235800D01*
X207000000Y-59000000D02*
X207000000Y-60125300D01*
%TO.N,LE2*%
X174620000Y-121860000D02*
X174620000Y-120734700D01*
X174620000Y-81860000D02*
X174620000Y-82985300D01*
X174620000Y-82985300D02*
X173382200Y-84223100D01*
X173382200Y-84223100D02*
X173382200Y-119778200D01*
X173382200Y-119778200D02*
X174338700Y-120734700D01*
X174338700Y-120734700D02*
X174620000Y-120734700D01*
%TO.N,LE1*%
X106745300Y-72000000D02*
X106745300Y-72673100D01*
X106745300Y-72673100D02*
X111244100Y-77171900D01*
X153620000Y-120734700D02*
X153901300Y-120734700D01*
X153901300Y-120734700D02*
X154867900Y-119768100D01*
X154867900Y-119768100D02*
X154867900Y-85497800D01*
X154867900Y-85497800D02*
X154339400Y-84969300D01*
X105620000Y-72000000D02*
X106745300Y-72000000D01*
X153620000Y-121860000D02*
X153620000Y-120734700D01*
X154620000Y-81860000D02*
X154620000Y-84688700D01*
X154620000Y-84688700D02*
X154339400Y-84969300D01*
%TO.N,LE0*%
X133620000Y-121860000D02*
X133620000Y-120734700D01*
X133620000Y-81860000D02*
X133620000Y-82985300D01*
X133620000Y-82985300D02*
X132382200Y-84223100D01*
X132382200Y-84223100D02*
X132382200Y-119778200D01*
X132382200Y-119778200D02*
X133338700Y-120734700D01*
X133338700Y-120734700D02*
X133620000Y-120734700D01*
%TO.N,LE3*%
X194620000Y-82985300D02*
X194620000Y-93878000D01*
X194620000Y-93878000D02*
X193342100Y-95155900D01*
X193342100Y-95155900D02*
X193342100Y-119738100D01*
X193342100Y-119738100D02*
X194338700Y-120734700D01*
X194338700Y-120734700D02*
X194620000Y-120734700D01*
X194620000Y-81860000D02*
X194620000Y-82985300D01*
X194620000Y-121860000D02*
X194620000Y-120734700D01*
%TO.N,LE5*%
X236620000Y-122860000D02*
X236620000Y-121734700D01*
X234620000Y-81860000D02*
X234620000Y-98514900D01*
X234620000Y-98514900D02*
X229324900Y-103810000D01*
X229324900Y-103810000D02*
X228635800Y-103810000D01*
X228635800Y-103810000D02*
X227874700Y-104571100D01*
X227874700Y-104571100D02*
X227874700Y-113194800D01*
X227874700Y-113194800D02*
X228649900Y-113970000D01*
X228649900Y-113970000D02*
X229401900Y-113970000D01*
X229401900Y-113970000D02*
X235494700Y-120062800D01*
X235494700Y-120062800D02*
X235494700Y-120890800D01*
X235494700Y-120890800D02*
X236338600Y-121734700D01*
X236338600Y-121734700D02*
X236620000Y-121734700D01*
%TO.N,LE4*%
X214620000Y-121860000D02*
X214620000Y-120734700D01*
X214620000Y-81860000D02*
X214620000Y-82985300D01*
X214620000Y-82985300D02*
X215857800Y-84223100D01*
X215857800Y-84223100D02*
X215857800Y-119778200D01*
X215857800Y-119778200D02*
X214901300Y-120734700D01*
X214901300Y-120734700D02*
X214620000Y-120734700D01*
%TO.N,/A0*%
X194620000Y-101540000D02*
X194620000Y-100414700D01*
X194620000Y-100414700D02*
X195042000Y-100414700D01*
X195042000Y-100414700D02*
X195851800Y-99604900D01*
X195851800Y-99604900D02*
X195851800Y-58133700D01*
X195851800Y-58133700D02*
X186000000Y-48281900D01*
X186000000Y-48281900D02*
X186000000Y-39000000D01*
X153620000Y-101540000D02*
X152494700Y-101540000D01*
X133620000Y-101540000D02*
X134745300Y-101540000D01*
X134745300Y-101540000D02*
X135870600Y-102665300D01*
X135870600Y-102665300D02*
X151369400Y-102665300D01*
X151369400Y-102665300D02*
X152494700Y-101540000D01*
X248380000Y-120460000D02*
X248380000Y-119334700D01*
X236620000Y-102540000D02*
X236620000Y-103665300D01*
X236620000Y-103665300D02*
X237575200Y-103665300D01*
X237575200Y-103665300D02*
X248019900Y-114110000D01*
X248019900Y-114110000D02*
X248762700Y-114110000D01*
X248762700Y-114110000D02*
X249505300Y-114852600D01*
X249505300Y-114852600D02*
X249505300Y-118490800D01*
X249505300Y-118490800D02*
X248661400Y-119334700D01*
X248661400Y-119334700D02*
X248380000Y-119334700D01*
%TO.N,/W7*%
X167000000Y-79320000D02*
X167000000Y-80445300D01*
X167000000Y-119320000D02*
X167000000Y-118194700D01*
X167000000Y-118194700D02*
X167281300Y-118194700D01*
X167281300Y-118194700D02*
X168605400Y-116870600D01*
X168605400Y-116870600D02*
X168605400Y-86445900D01*
X168605400Y-86445900D02*
X165763900Y-83604400D01*
X165763900Y-83604400D02*
X165763900Y-81325300D01*
X165763900Y-81325300D02*
X166643900Y-80445300D01*
X166643900Y-80445300D02*
X167000000Y-80445300D01*
X147000000Y-79320000D02*
X147000000Y-78194700D01*
X147000000Y-78194700D02*
X147237400Y-78194700D01*
X147237400Y-78194700D02*
X152444600Y-72987500D01*
X152444600Y-72987500D02*
X152444600Y-62078700D01*
X152444600Y-62078700D02*
X154182600Y-60340700D01*
X154182600Y-60340700D02*
X155085100Y-60340700D01*
X155085100Y-60340700D02*
X155880600Y-59545200D01*
X155880600Y-59545200D02*
X155880600Y-50117800D01*
X155880600Y-50117800D02*
X144890000Y-39127200D01*
X144890000Y-39127200D02*
X144890000Y-35730000D01*
X144890000Y-35730000D02*
X143620000Y-34460000D01*
X256000000Y-102680000D02*
X256000000Y-101554700D01*
X247000000Y-79320000D02*
X247000000Y-80445300D01*
X247000000Y-80445300D02*
X247422000Y-80445300D01*
X247422000Y-80445300D02*
X248227900Y-81251200D01*
X248227900Y-81251200D02*
X248227900Y-94114400D01*
X248227900Y-94114400D02*
X255668200Y-101554700D01*
X255668200Y-101554700D02*
X256000000Y-101554700D01*
X167000000Y-79320000D02*
X168125300Y-79320000D01*
X187000000Y-79320000D02*
X185874700Y-79320000D01*
X185874700Y-79320000D02*
X184749400Y-80445300D01*
X184749400Y-80445300D02*
X169250600Y-80445300D01*
X169250600Y-80445300D02*
X168125300Y-79320000D01*
%TO.N,/A1*%
X194620000Y-104080000D02*
X194620000Y-102954700D01*
X194620000Y-102954700D02*
X194901400Y-102954700D01*
X194901400Y-102954700D02*
X196356200Y-101499900D01*
X196356200Y-101499900D02*
X196356200Y-50577900D01*
X196356200Y-50577900D02*
X187150400Y-41372100D01*
X187150400Y-41372100D02*
X187150400Y-37610400D01*
X187150400Y-37610400D02*
X186000000Y-36460000D01*
X248380000Y-117920000D02*
X247254700Y-117920000D01*
X236620000Y-105080000D02*
X236620000Y-106205300D01*
X247254700Y-117920000D02*
X238224700Y-108890000D01*
X238224700Y-108890000D02*
X236239500Y-108890000D01*
X236239500Y-108890000D02*
X235494700Y-108145200D01*
X235494700Y-108145200D02*
X235494700Y-107049200D01*
X235494700Y-107049200D02*
X236338600Y-106205300D01*
X236338600Y-106205300D02*
X236620000Y-106205300D01*
X152494700Y-104080000D02*
X153620000Y-104080000D01*
X148920000Y-104080000D02*
X152494700Y-104080000D01*
X147794999Y-105205001D02*
X148920000Y-104080000D01*
X137205001Y-105205001D02*
X147794999Y-105205001D01*
X136080000Y-104080000D02*
X137205001Y-105205001D01*
X133620000Y-104080000D02*
X136080000Y-104080000D01*
%TO.N,/W6*%
X167000000Y-76780000D02*
X167000000Y-77905300D01*
X167000000Y-116780000D02*
X167000000Y-115654700D01*
X167000000Y-115654700D02*
X167281300Y-115654700D01*
X167281300Y-115654700D02*
X168125400Y-114810600D01*
X168125400Y-114810600D02*
X168125400Y-90720800D01*
X168125400Y-90720800D02*
X165312400Y-87907800D01*
X165312400Y-87907800D02*
X165312400Y-79311600D01*
X165312400Y-79311600D02*
X166718700Y-77905300D01*
X166718700Y-77905300D02*
X167000000Y-77905300D01*
X147000000Y-76780000D02*
X147993700Y-76780000D01*
X147993700Y-76780000D02*
X149940000Y-74833700D01*
X149940000Y-74833700D02*
X149940000Y-57969100D01*
X149940000Y-57969100D02*
X148363400Y-56392500D01*
X148363400Y-56392500D02*
X146619600Y-56392500D01*
X146619600Y-56392500D02*
X143620000Y-53392900D01*
X143620000Y-53392900D02*
X143620000Y-37000000D01*
X247000000Y-77905300D02*
X247281300Y-77905300D01*
X247281300Y-77905300D02*
X250435000Y-81059000D01*
X250435000Y-81059000D02*
X250435000Y-85449300D01*
X250435000Y-85449300D02*
X257255700Y-92270000D01*
X257255700Y-92270000D02*
X257255700Y-103015800D01*
X257255700Y-103015800D02*
X256176800Y-104094700D01*
X256176800Y-104094700D02*
X256000000Y-104094700D01*
X187000000Y-76780000D02*
X185874700Y-76780000D01*
X167000000Y-76780000D02*
X168125300Y-76780000D01*
X168125300Y-76780000D02*
X169250600Y-77905300D01*
X169250600Y-77905300D02*
X184749400Y-77905300D01*
X184749400Y-77905300D02*
X185874700Y-76780000D01*
X247000000Y-76780000D02*
X247000000Y-77905300D01*
X256000000Y-105220000D02*
X256000000Y-104094700D01*
X127125300Y-116780000D02*
X127125300Y-116993400D01*
X127125300Y-116993400D02*
X133154100Y-123022200D01*
X133154100Y-123022200D02*
X138632500Y-123022200D01*
X138632500Y-123022200D02*
X144874700Y-116780000D01*
X146000000Y-116780000D02*
X144874700Y-116780000D01*
X126000000Y-116780000D02*
X127125300Y-116780000D01*
X146000000Y-116780000D02*
X150802300Y-116780000D01*
X150802300Y-116780000D02*
X151983900Y-115598400D01*
%TO.N,/A2*%
X194620000Y-105494700D02*
X194901400Y-105494700D01*
X194901400Y-105494700D02*
X196806500Y-103589600D01*
X196806500Y-103589600D02*
X196806500Y-49399100D01*
X196806500Y-49399100D02*
X188540000Y-41132600D01*
X188540000Y-41132600D02*
X188540000Y-39000000D01*
X194620000Y-106620000D02*
X194620000Y-105494700D01*
X248380000Y-115380000D02*
X247254700Y-115380000D01*
X236620000Y-107620000D02*
X239494700Y-107620000D01*
X239494700Y-107620000D02*
X247254700Y-115380000D01*
X153620000Y-106620000D02*
X152494700Y-106620000D01*
X133620000Y-106620000D02*
X134745300Y-106620000D01*
X134745300Y-106620000D02*
X135870600Y-107745300D01*
X135870600Y-107745300D02*
X151369400Y-107745300D01*
X151369400Y-107745300D02*
X152494700Y-106620000D01*
%TO.N,/W5*%
X147000000Y-73114700D02*
X147281300Y-73114700D01*
X147281300Y-73114700D02*
X149476300Y-70919700D01*
X149476300Y-70919700D02*
X149476300Y-58142300D01*
X149476300Y-58142300D02*
X148308000Y-56974000D01*
X148308000Y-56974000D02*
X146556300Y-56974000D01*
X146556300Y-56974000D02*
X142350000Y-52767700D01*
X142350000Y-52767700D02*
X142350000Y-35730000D01*
X142350000Y-35730000D02*
X141080000Y-34460000D01*
X147000000Y-74240000D02*
X147000000Y-73114700D01*
X247000000Y-75365300D02*
X247281300Y-75365300D01*
X247281300Y-75365300D02*
X251642500Y-79726500D01*
X251642500Y-79726500D02*
X251642500Y-86019800D01*
X251642500Y-86019800D02*
X257706000Y-92083300D01*
X257706000Y-92083300D02*
X257706000Y-105210000D01*
X257706000Y-105210000D02*
X256281300Y-106634700D01*
X256281300Y-106634700D02*
X256000000Y-106634700D01*
X210278100Y-78362100D02*
X207281300Y-75365300D01*
X207281300Y-75365300D02*
X207000000Y-75365300D01*
X207000000Y-113114700D02*
X207281300Y-113114700D01*
X207281300Y-113114700D02*
X210278100Y-110117900D01*
X210278100Y-110117900D02*
X210278100Y-78362100D01*
X227000000Y-74240000D02*
X217155300Y-74240000D01*
X217155300Y-74240000D02*
X215929900Y-75465400D01*
X215929900Y-75465400D02*
X213174800Y-75465400D01*
X213174800Y-75465400D02*
X210278100Y-78362100D01*
X207000000Y-74240000D02*
X207000000Y-75365300D01*
X207000000Y-114240000D02*
X207000000Y-113114700D01*
X256000000Y-107760000D02*
X256000000Y-106634700D01*
X247000000Y-74240000D02*
X247000000Y-75365300D01*
%TO.N,/A3*%
X194620000Y-108034700D02*
X194901300Y-108034700D01*
X194901300Y-108034700D02*
X197256800Y-105679200D01*
X197256800Y-105679200D02*
X197256800Y-48569200D01*
X197256800Y-48569200D02*
X189810000Y-41122400D01*
X189810000Y-41122400D02*
X189810000Y-37730000D01*
X189810000Y-37730000D02*
X188540000Y-36460000D01*
X194620000Y-109160000D02*
X194620000Y-108034700D01*
X153620000Y-109160000D02*
X152494700Y-109160000D01*
X133620000Y-109160000D02*
X134745300Y-109160000D01*
X134745300Y-109160000D02*
X135870600Y-110285300D01*
X135870600Y-110285300D02*
X151369400Y-110285300D01*
X151369400Y-110285300D02*
X152494700Y-109160000D01*
%TO.N,/W4*%
X229000000Y-112700000D02*
X229000000Y-111574700D01*
X245774600Y-92451800D02*
X254874700Y-101551900D01*
X254874700Y-101551900D02*
X254874700Y-108242200D01*
X254874700Y-108242200D02*
X255807200Y-109174700D01*
X255807200Y-109174700D02*
X256000000Y-109174700D01*
X247000000Y-72825300D02*
X246823200Y-72825300D01*
X246823200Y-72825300D02*
X245774600Y-73873900D01*
X245774600Y-73873900D02*
X245774600Y-92451800D01*
X229000000Y-111574700D02*
X229281400Y-111574700D01*
X229281400Y-111574700D02*
X230125300Y-110730800D01*
X230125300Y-110730800D02*
X230125300Y-104732800D01*
X230125300Y-104732800D02*
X242406300Y-92451800D01*
X242406300Y-92451800D02*
X245774600Y-92451800D01*
X147000000Y-70574700D02*
X147224900Y-70574700D01*
X147224900Y-70574700D02*
X149026000Y-68773600D01*
X149026000Y-68773600D02*
X149026000Y-58329000D01*
X149026000Y-58329000D02*
X148121300Y-57424300D01*
X148121300Y-57424300D02*
X146355300Y-57424300D01*
X146355300Y-57424300D02*
X141080000Y-52149000D01*
X141080000Y-52149000D02*
X141080000Y-37000000D01*
X147000000Y-71700000D02*
X147000000Y-70574700D01*
X256000000Y-110300000D02*
X256000000Y-109174700D01*
X247000000Y-71700000D02*
X247000000Y-72825300D01*
%TO.N,/A4*%
X191080000Y-39000000D02*
X197707100Y-45627100D01*
X197707100Y-45627100D02*
X197707100Y-107768900D01*
X197707100Y-107768900D02*
X194901300Y-110574700D01*
X194901300Y-110574700D02*
X194620000Y-110574700D01*
X194620000Y-111700000D02*
X194620000Y-110574700D01*
X153620000Y-111700000D02*
X152494700Y-111700000D01*
X133620000Y-111700000D02*
X134745300Y-111700000D01*
X134745300Y-111700000D02*
X135870600Y-112825300D01*
X135870600Y-112825300D02*
X151369400Y-112825300D01*
X151369400Y-112825300D02*
X152494700Y-111700000D01*
%TO.N,/W3*%
X207000000Y-108034700D02*
X207281300Y-108034700D01*
X207281300Y-108034700D02*
X208639000Y-106677000D01*
X208639000Y-106677000D02*
X208639000Y-86872900D01*
X208639000Y-86872900D02*
X205762200Y-83996100D01*
X205762200Y-83996100D02*
X205762200Y-71241800D01*
X205762200Y-71241800D02*
X206718700Y-70285300D01*
X206718700Y-70285300D02*
X207000000Y-70285300D01*
X207000000Y-69160000D02*
X207000000Y-70285300D01*
X207000000Y-109160000D02*
X207000000Y-108034700D01*
X147000000Y-69160000D02*
X147000000Y-68034700D01*
X147000000Y-68034700D02*
X147281300Y-68034700D01*
X147281300Y-68034700D02*
X148575700Y-66740300D01*
X148575700Y-66740300D02*
X148575700Y-58515600D01*
X148575700Y-58515600D02*
X147934700Y-57874600D01*
X147934700Y-57874600D02*
X146135300Y-57874600D01*
X146135300Y-57874600D02*
X139810000Y-51549300D01*
X139810000Y-51549300D02*
X139810000Y-35730000D01*
X139810000Y-35730000D02*
X138540000Y-34460000D01*
X256000000Y-112840000D02*
X256000000Y-111714700D01*
X247000000Y-69160000D02*
X247000000Y-70285300D01*
X247000000Y-70285300D02*
X247281300Y-70285300D01*
X247281300Y-70285300D02*
X253057400Y-76061400D01*
X253057400Y-76061400D02*
X253057400Y-82985400D01*
X253057400Y-82985400D02*
X258184300Y-88112300D01*
X258184300Y-88112300D02*
X258184300Y-109811700D01*
X258184300Y-109811700D02*
X256281300Y-111714700D01*
X256281300Y-111714700D02*
X256000000Y-111714700D01*
%TO.N,/A5*%
X191080000Y-36460000D02*
X192350000Y-37730000D01*
X192350000Y-37730000D02*
X192350000Y-39633100D01*
X192350000Y-39633100D02*
X198157400Y-45440500D01*
X198157400Y-45440500D02*
X198157400Y-109858600D01*
X198157400Y-109858600D02*
X194901300Y-113114700D01*
X194901300Y-113114700D02*
X194620000Y-113114700D01*
X194620000Y-114240000D02*
X194620000Y-113114700D01*
X152494700Y-114240000D02*
X152316600Y-114240000D01*
X152316600Y-114240000D02*
X151191300Y-115365300D01*
X151191300Y-115365300D02*
X135870600Y-115365300D01*
X135870600Y-115365300D02*
X134745300Y-114240000D01*
X133620000Y-114240000D02*
X134745300Y-114240000D01*
X153620000Y-114240000D02*
X152494700Y-114240000D01*
%TO.N,/A6*%
X194620000Y-116780000D02*
X194620000Y-115654700D01*
X194620000Y-115654700D02*
X194901300Y-115654700D01*
X194901300Y-115654700D02*
X198609400Y-111946600D01*
X198609400Y-111946600D02*
X198609400Y-43989400D01*
X198609400Y-43989400D02*
X193620000Y-39000000D01*
X248380000Y-105220000D02*
X248380000Y-106345300D01*
X236620000Y-117780000D02*
X237745300Y-117780000D01*
X237745300Y-117780000D02*
X241553000Y-121587700D01*
X241553000Y-121587700D02*
X248882500Y-121587700D01*
X248882500Y-121587700D02*
X249969300Y-120500900D01*
X249969300Y-120500900D02*
X249969300Y-107653300D01*
X249969300Y-107653300D02*
X248661300Y-106345300D01*
X248661300Y-106345300D02*
X248380000Y-106345300D01*
%TO.N,/A7*%
X194620000Y-118194700D02*
X194849600Y-118194700D01*
X194849600Y-118194700D02*
X199059700Y-113984600D01*
X199059700Y-113984600D02*
X199059700Y-43802800D01*
X199059700Y-43802800D02*
X194890000Y-39633100D01*
X194890000Y-39633100D02*
X194890000Y-37730000D01*
X194890000Y-37730000D02*
X193620000Y-36460000D01*
X248380000Y-102680000D02*
X247254700Y-102680000D01*
X236620000Y-120320000D02*
X236620000Y-119194700D01*
X236620000Y-119194700D02*
X236338700Y-119194700D01*
X236338700Y-119194700D02*
X235042400Y-117898400D01*
X235042400Y-117898400D02*
X235042400Y-102451200D01*
X235042400Y-102451200D02*
X236080000Y-101413600D01*
X236080000Y-101413600D02*
X245988300Y-101413600D01*
X245988300Y-101413600D02*
X247254700Y-102680000D01*
X194620000Y-119320000D02*
X194620000Y-118194700D01*
%TO.N,/B0*%
X174620000Y-61540000D02*
X173494700Y-61540000D01*
X154620000Y-61540000D02*
X155745300Y-61540000D01*
X155745300Y-61540000D02*
X156870600Y-60414700D01*
X156870600Y-60414700D02*
X172369400Y-60414700D01*
X172369400Y-60414700D02*
X173494700Y-61540000D01*
X222000000Y-39000000D02*
X222000000Y-53379700D01*
X222000000Y-53379700D02*
X214965000Y-60414700D01*
X214965000Y-60414700D02*
X214620000Y-60414700D01*
X214620000Y-61540000D02*
X214620000Y-60414700D01*
%TO.N,/B1*%
X174620000Y-64080000D02*
X173494700Y-64080000D01*
X154620000Y-64080000D02*
X155745300Y-64080000D01*
X155745300Y-64080000D02*
X156870600Y-62954700D01*
X156870600Y-62954700D02*
X172369400Y-62954700D01*
X172369400Y-62954700D02*
X173494700Y-64080000D01*
X222000000Y-36460000D02*
X223150400Y-37610400D01*
X223150400Y-37610400D02*
X223150400Y-54705600D01*
X223150400Y-54705600D02*
X214901300Y-62954700D01*
X214901300Y-62954700D02*
X214620000Y-62954700D01*
X214620000Y-64080000D02*
X214620000Y-62954700D01*
%TO.N,/B2*%
X174620000Y-66620000D02*
X173494700Y-66620000D01*
X154620000Y-66620000D02*
X155745300Y-66620000D01*
X155745300Y-66620000D02*
X156870600Y-65494700D01*
X156870600Y-65494700D02*
X172369400Y-65494700D01*
X172369400Y-65494700D02*
X173494700Y-66620000D01*
X214620000Y-66620000D02*
X214620000Y-65494700D01*
X214620000Y-65494700D02*
X214901300Y-65494700D01*
X214901300Y-65494700D02*
X224540000Y-55856000D01*
X224540000Y-55856000D02*
X224540000Y-39000000D01*
%TO.N,/B3*%
X174620000Y-69160000D02*
X173494700Y-69160000D01*
X154620000Y-69160000D02*
X155745300Y-69160000D01*
X155745300Y-69160000D02*
X156870600Y-70285300D01*
X156870600Y-70285300D02*
X172369400Y-70285300D01*
X172369400Y-70285300D02*
X173494700Y-69160000D01*
X225703100Y-68034700D02*
X232369400Y-68034700D01*
X232369400Y-68034700D02*
X233494700Y-69160000D01*
X215745300Y-69160000D02*
X216870600Y-68034700D01*
X216870600Y-68034700D02*
X225703100Y-68034700D01*
X225703100Y-68034700D02*
X225703100Y-37623100D01*
X225703100Y-37623100D02*
X224540000Y-36460000D01*
X234620000Y-69160000D02*
X233494700Y-69160000D01*
X214620000Y-69160000D02*
X215745300Y-69160000D01*
X194620000Y-69160000D02*
X193494700Y-69160000D01*
X174620000Y-69160000D02*
X175745300Y-69160000D01*
X175745300Y-69160000D02*
X176870600Y-68034700D01*
X176870600Y-68034700D02*
X192369400Y-68034700D01*
X192369400Y-68034700D02*
X193494700Y-69160000D01*
%TO.N,/B4*%
X194620000Y-71700000D02*
X193494700Y-71700000D01*
X174620000Y-71700000D02*
X175745300Y-71700000D01*
X175745300Y-71700000D02*
X176870600Y-70574700D01*
X176870600Y-70574700D02*
X192369400Y-70574700D01*
X192369400Y-70574700D02*
X193494700Y-71700000D01*
X134745300Y-71700000D02*
X137444200Y-74398900D01*
X227080000Y-39000000D02*
X235857800Y-47777800D01*
X235857800Y-47777800D02*
X235857800Y-69618200D01*
X235857800Y-69618200D02*
X234901300Y-70574700D01*
X234901300Y-70574700D02*
X234620000Y-70574700D01*
X133620000Y-71700000D02*
X134745300Y-71700000D01*
X234620000Y-71700000D02*
X233494700Y-71700000D01*
X214620000Y-71700000D02*
X215745300Y-71700000D01*
X215745300Y-71700000D02*
X216870600Y-70574700D01*
X216870600Y-70574700D02*
X232369400Y-70574700D01*
X232369400Y-70574700D02*
X233494700Y-71700000D01*
X234620000Y-71700000D02*
X234620000Y-70574700D01*
%TO.N,/B5*%
X149190600Y-74516600D02*
X148334400Y-75372800D01*
X148334400Y-75372800D02*
X142223000Y-75372800D01*
X142223000Y-75372800D02*
X140520800Y-73670600D01*
X234620000Y-74240000D02*
X234620000Y-73114700D01*
X234620000Y-73114700D02*
X234901300Y-73114700D01*
X234901300Y-73114700D02*
X236352100Y-71663900D01*
X236352100Y-71663900D02*
X236352100Y-47635200D01*
X236352100Y-47635200D02*
X228350000Y-39633100D01*
X228350000Y-39633100D02*
X228350000Y-37730000D01*
X228350000Y-37730000D02*
X227080000Y-36460000D01*
X174620000Y-74240000D02*
X173494700Y-74240000D01*
X154620000Y-74240000D02*
X155745300Y-74240000D01*
X155745300Y-74240000D02*
X156870600Y-73114700D01*
X156870600Y-73114700D02*
X172369400Y-73114700D01*
X172369400Y-73114700D02*
X173494700Y-74240000D01*
%TO.N,/B6*%
X234620000Y-76780000D02*
X233494700Y-76780000D01*
X214620000Y-76780000D02*
X215745300Y-76780000D01*
X215745300Y-76780000D02*
X216870600Y-75654700D01*
X216870600Y-75654700D02*
X232369400Y-75654700D01*
X232369400Y-75654700D02*
X233494700Y-76780000D01*
X174620000Y-76780000D02*
X173494700Y-76780000D01*
X154620000Y-76780000D02*
X155745300Y-76780000D01*
X155745300Y-76780000D02*
X156870600Y-75654700D01*
X156870600Y-75654700D02*
X172369400Y-75654700D01*
X172369400Y-75654700D02*
X173494700Y-76780000D01*
X229620000Y-39000000D02*
X236802500Y-46182500D01*
X236802500Y-46182500D02*
X236802500Y-73753500D01*
X236802500Y-73753500D02*
X234901300Y-75654700D01*
X234901300Y-75654700D02*
X234620000Y-75654700D01*
X234620000Y-76780000D02*
X234620000Y-75654700D01*
%TO.N,/B7*%
X234620000Y-79320000D02*
X234620000Y-78194700D01*
X229620000Y-36460000D02*
X230890000Y-37730000D01*
X230890000Y-37730000D02*
X230890000Y-39633100D01*
X230890000Y-39633100D02*
X237252900Y-45996000D01*
X237252900Y-45996000D02*
X237252900Y-75843100D01*
X237252900Y-75843100D02*
X234901300Y-78194700D01*
X234901300Y-78194700D02*
X234620000Y-78194700D01*
%TD*%
D25*
%TO.N,GNDREF*%
X63443403Y-24147585D02*
X62721744Y-24525285D01*
X62661634Y-24565450D01*
X62265450Y-25085845D01*
X65000000Y-27820395D01*
X67734550Y-25085845D01*
X67338366Y-24565450D01*
X66623388Y-24175252D01*
X66469166Y-24127000D01*
X243544974Y-24127000D01*
X243041343Y-24335611D01*
X242364091Y-24788136D01*
X241788136Y-25364091D01*
X241335611Y-26041343D01*
X241023906Y-26793865D01*
X240865000Y-27592738D01*
X240865000Y-28407262D01*
X241023906Y-29206135D01*
X241335611Y-29958657D01*
X241788136Y-30635909D01*
X242364091Y-31211864D01*
X243041343Y-31664389D01*
X243793865Y-31976094D01*
X244592738Y-32135000D01*
X245329206Y-32135000D01*
X246165000Y-32970851D01*
X246165000Y-42873000D01*
X235204702Y-42873000D01*
X232691740Y-40360039D01*
X232851569Y-40293835D01*
X233090696Y-40134056D01*
X233294056Y-39930696D01*
X233430000Y-39727241D01*
X233565944Y-39930696D01*
X233769304Y-40134056D01*
X234008431Y-40293835D01*
X234274134Y-40403893D01*
X234556203Y-40460000D01*
X234843797Y-40460000D01*
X235125866Y-40403893D01*
X235391569Y-40293835D01*
X235630696Y-40134056D01*
X235834056Y-39930696D01*
X235970000Y-39727241D01*
X236105944Y-39930696D01*
X236309304Y-40134056D01*
X236548431Y-40293835D01*
X236814134Y-40403893D01*
X237096203Y-40460000D01*
X237383797Y-40460000D01*
X237665866Y-40403893D01*
X237931569Y-40293835D01*
X238170696Y-40134056D01*
X238374056Y-39930696D01*
X238510000Y-39727241D01*
X238645944Y-39930696D01*
X238849304Y-40134056D01*
X239088431Y-40293835D01*
X239354134Y-40403893D01*
X239636203Y-40460000D01*
X239923797Y-40460000D01*
X240205866Y-40403893D01*
X240471569Y-40293835D01*
X240710696Y-40134056D01*
X240914056Y-39930696D01*
X241073835Y-39691569D01*
X241183893Y-39425866D01*
X241240000Y-39143797D01*
X241240000Y-38856203D01*
X241183893Y-38574134D01*
X241073835Y-38308431D01*
X240914056Y-38069304D01*
X240710696Y-37865944D01*
X240507241Y-37730000D01*
X240710696Y-37594056D01*
X240914056Y-37390696D01*
X241073835Y-37151569D01*
X241183893Y-36885866D01*
X241240000Y-36603797D01*
X241240000Y-36316203D01*
X241183893Y-36034134D01*
X241073835Y-35768431D01*
X240914056Y-35529304D01*
X240710696Y-35325944D01*
X240471569Y-35166165D01*
X240205866Y-35056107D01*
X239923797Y-35000000D01*
X239636203Y-35000000D01*
X239354134Y-35056107D01*
X239088431Y-35166165D01*
X238849304Y-35325944D01*
X238645944Y-35529304D01*
X238510000Y-35732759D01*
X238374056Y-35529304D01*
X238170696Y-35325944D01*
X237931569Y-35166165D01*
X237665866Y-35056107D01*
X237383797Y-35000000D01*
X237096203Y-35000000D01*
X236814134Y-35056107D01*
X236548431Y-35166165D01*
X236309304Y-35325944D01*
X236105944Y-35529304D01*
X235970000Y-35732759D01*
X235834056Y-35529304D01*
X235630696Y-35325944D01*
X235391569Y-35166165D01*
X235125866Y-35056107D01*
X234843797Y-35000000D01*
X234556203Y-35000000D01*
X234274134Y-35056107D01*
X234008431Y-35166165D01*
X233769304Y-35325944D01*
X233565944Y-35529304D01*
X233430000Y-35732759D01*
X233294056Y-35529304D01*
X233090696Y-35325944D01*
X232851569Y-35166165D01*
X232585866Y-35056107D01*
X232303797Y-35000000D01*
X232016203Y-35000000D01*
X231734134Y-35056107D01*
X231468431Y-35166165D01*
X231229304Y-35325944D01*
X231025944Y-35529304D01*
X230890000Y-35732759D01*
X230754056Y-35529304D01*
X230550696Y-35325944D01*
X230311569Y-35166165D01*
X230045866Y-35056107D01*
X229763797Y-35000000D01*
X229476203Y-35000000D01*
X229194134Y-35056107D01*
X228928431Y-35166165D01*
X228689304Y-35325944D01*
X228485944Y-35529304D01*
X228350000Y-35732759D01*
X228214056Y-35529304D01*
X228010696Y-35325944D01*
X227771569Y-35166165D01*
X227505866Y-35056107D01*
X227223797Y-35000000D01*
X226936203Y-35000000D01*
X226654134Y-35056107D01*
X226388431Y-35166165D01*
X226149304Y-35325944D01*
X225945944Y-35529304D01*
X225810000Y-35732759D01*
X225674056Y-35529304D01*
X225470696Y-35325944D01*
X225231569Y-35166165D01*
X224965866Y-35056107D01*
X224683797Y-35000000D01*
X224396203Y-35000000D01*
X224114134Y-35056107D01*
X223848431Y-35166165D01*
X223609304Y-35325944D01*
X223405944Y-35529304D01*
X223270000Y-35732759D01*
X223134056Y-35529304D01*
X222930696Y-35325944D01*
X222691569Y-35166165D01*
X222425866Y-35056107D01*
X222143797Y-35000000D01*
X221856203Y-35000000D01*
X221574134Y-35056107D01*
X221308431Y-35166165D01*
X221069304Y-35325944D01*
X220865944Y-35529304D01*
X220706165Y-35768431D01*
X220596107Y-36034134D01*
X220540000Y-36316203D01*
X220540000Y-36603797D01*
X220596107Y-36885866D01*
X220706165Y-37151569D01*
X220865944Y-37390696D01*
X221030506Y-37555258D01*
X220930820Y-37585498D01*
X220820506Y-37644463D01*
X220723815Y-37723815D01*
X220644463Y-37820506D01*
X220585498Y-37930820D01*
X220549188Y-38050518D01*
X220536928Y-38175000D01*
X220536928Y-39825000D01*
X220549188Y-39949482D01*
X220585498Y-40069180D01*
X220644463Y-40179494D01*
X220723815Y-40276185D01*
X220820506Y-40355537D01*
X220930820Y-40414502D01*
X221050518Y-40450812D01*
X221175000Y-40463072D01*
X221240000Y-40463072D01*
X221240000Y-42873000D01*
X199204702Y-42873000D01*
X196691740Y-40360039D01*
X196851569Y-40293835D01*
X197090696Y-40134056D01*
X197294056Y-39930696D01*
X197430000Y-39727241D01*
X197565944Y-39930696D01*
X197769304Y-40134056D01*
X198008431Y-40293835D01*
X198274134Y-40403893D01*
X198556203Y-40460000D01*
X198843797Y-40460000D01*
X199125866Y-40403893D01*
X199391569Y-40293835D01*
X199630696Y-40134056D01*
X199834056Y-39930696D01*
X199970000Y-39727241D01*
X200105944Y-39930696D01*
X200309304Y-40134056D01*
X200548431Y-40293835D01*
X200814134Y-40403893D01*
X201096203Y-40460000D01*
X201383797Y-40460000D01*
X201665866Y-40403893D01*
X201931569Y-40293835D01*
X202170696Y-40134056D01*
X202374056Y-39930696D01*
X202510000Y-39727241D01*
X202645944Y-39930696D01*
X202849304Y-40134056D01*
X203088431Y-40293835D01*
X203354134Y-40403893D01*
X203636203Y-40460000D01*
X203923797Y-40460000D01*
X204205866Y-40403893D01*
X204471569Y-40293835D01*
X204710696Y-40134056D01*
X204914056Y-39930696D01*
X205073835Y-39691569D01*
X205183893Y-39425866D01*
X205240000Y-39143797D01*
X205240000Y-38856203D01*
X205183893Y-38574134D01*
X205073835Y-38308431D01*
X204914056Y-38069304D01*
X204710696Y-37865944D01*
X204507241Y-37730000D01*
X204710696Y-37594056D01*
X204914056Y-37390696D01*
X205073835Y-37151569D01*
X205183893Y-36885866D01*
X205193221Y-36838967D01*
X212365000Y-36838967D01*
X212365000Y-37161033D01*
X212427832Y-37476912D01*
X212551082Y-37774463D01*
X212730013Y-38042252D01*
X212957748Y-38269987D01*
X213225537Y-38448918D01*
X213523088Y-38572168D01*
X213838967Y-38635000D01*
X214161033Y-38635000D01*
X214476912Y-38572168D01*
X214774463Y-38448918D01*
X215042252Y-38269987D01*
X215269987Y-38042252D01*
X215448918Y-37774463D01*
X215572168Y-37476912D01*
X215635000Y-37161033D01*
X215635000Y-36838967D01*
X215572168Y-36523088D01*
X215448918Y-36225537D01*
X215269987Y-35957748D01*
X215042252Y-35730013D01*
X214774463Y-35551082D01*
X214476912Y-35427832D01*
X214161033Y-35365000D01*
X213838967Y-35365000D01*
X213523088Y-35427832D01*
X213225537Y-35551082D01*
X212957748Y-35730013D01*
X212730013Y-35957748D01*
X212551082Y-36225537D01*
X212427832Y-36523088D01*
X212365000Y-36838967D01*
X205193221Y-36838967D01*
X205240000Y-36603797D01*
X205240000Y-36316203D01*
X205183893Y-36034134D01*
X205073835Y-35768431D01*
X204914056Y-35529304D01*
X204710696Y-35325944D01*
X204471569Y-35166165D01*
X204205866Y-35056107D01*
X203923797Y-35000000D01*
X203636203Y-35000000D01*
X203354134Y-35056107D01*
X203088431Y-35166165D01*
X202849304Y-35325944D01*
X202645944Y-35529304D01*
X202510000Y-35732759D01*
X202374056Y-35529304D01*
X202170696Y-35325944D01*
X201931569Y-35166165D01*
X201665866Y-35056107D01*
X201383797Y-35000000D01*
X201096203Y-35000000D01*
X200814134Y-35056107D01*
X200548431Y-35166165D01*
X200309304Y-35325944D01*
X200105944Y-35529304D01*
X199970000Y-35732759D01*
X199834056Y-35529304D01*
X199630696Y-35325944D01*
X199391569Y-35166165D01*
X199125866Y-35056107D01*
X198843797Y-35000000D01*
X198556203Y-35000000D01*
X198274134Y-35056107D01*
X198008431Y-35166165D01*
X197769304Y-35325944D01*
X197565944Y-35529304D01*
X197430000Y-35732759D01*
X197294056Y-35529304D01*
X197090696Y-35325944D01*
X196851569Y-35166165D01*
X196585866Y-35056107D01*
X196303797Y-35000000D01*
X196016203Y-35000000D01*
X195734134Y-35056107D01*
X195468431Y-35166165D01*
X195229304Y-35325944D01*
X195025944Y-35529304D01*
X194890000Y-35732759D01*
X194754056Y-35529304D01*
X194550696Y-35325944D01*
X194311569Y-35166165D01*
X194045866Y-35056107D01*
X193763797Y-35000000D01*
X193476203Y-35000000D01*
X193194134Y-35056107D01*
X192928431Y-35166165D01*
X192689304Y-35325944D01*
X192485944Y-35529304D01*
X192350000Y-35732759D01*
X192214056Y-35529304D01*
X192010696Y-35325944D01*
X191771569Y-35166165D01*
X191505866Y-35056107D01*
X191223797Y-35000000D01*
X190936203Y-35000000D01*
X190654134Y-35056107D01*
X190388431Y-35166165D01*
X190149304Y-35325944D01*
X189945944Y-35529304D01*
X189810000Y-35732759D01*
X189674056Y-35529304D01*
X189470696Y-35325944D01*
X189231569Y-35166165D01*
X188965866Y-35056107D01*
X188683797Y-35000000D01*
X188396203Y-35000000D01*
X188114134Y-35056107D01*
X187848431Y-35166165D01*
X187609304Y-35325944D01*
X187405944Y-35529304D01*
X187270000Y-35732759D01*
X187134056Y-35529304D01*
X186930696Y-35325944D01*
X186691569Y-35166165D01*
X186425866Y-35056107D01*
X186143797Y-35000000D01*
X185856203Y-35000000D01*
X185574134Y-35056107D01*
X185308431Y-35166165D01*
X185069304Y-35325944D01*
X184865944Y-35529304D01*
X184706165Y-35768431D01*
X184596107Y-36034134D01*
X184540000Y-36316203D01*
X184540000Y-36603797D01*
X184596107Y-36885866D01*
X184706165Y-37151569D01*
X184865944Y-37390696D01*
X185030506Y-37555258D01*
X184930820Y-37585498D01*
X184820506Y-37644463D01*
X184723815Y-37723815D01*
X184644463Y-37820506D01*
X184585498Y-37930820D01*
X184549188Y-38050518D01*
X184536928Y-38175000D01*
X184536928Y-39825000D01*
X184549188Y-39949482D01*
X184585498Y-40069180D01*
X184644463Y-40179494D01*
X184723815Y-40276185D01*
X184820506Y-40355537D01*
X184930820Y-40414502D01*
X185050518Y-40450812D01*
X185175000Y-40463072D01*
X185240001Y-40463072D01*
X185240001Y-42873000D01*
X173075392Y-42873000D01*
X168261973Y-34048400D01*
X170973599Y-34048400D01*
X173433823Y-36508625D01*
X173427832Y-36523088D01*
X173365000Y-36838967D01*
X173365000Y-37161033D01*
X173427832Y-37476912D01*
X173551082Y-37774463D01*
X173730013Y-38042252D01*
X173957748Y-38269987D01*
X174225537Y-38448918D01*
X174523088Y-38572168D01*
X174838967Y-38635000D01*
X175161033Y-38635000D01*
X175476912Y-38572168D01*
X175774463Y-38448918D01*
X176042252Y-38269987D01*
X176269987Y-38042252D01*
X176448918Y-37774463D01*
X176572168Y-37476912D01*
X176635000Y-37161033D01*
X176635000Y-36838967D01*
X176572168Y-36523088D01*
X176448918Y-36225537D01*
X176269987Y-35957748D01*
X176042252Y-35730013D01*
X175774463Y-35551082D01*
X175476912Y-35427832D01*
X175161033Y-35365000D01*
X174838967Y-35365000D01*
X174523088Y-35427832D01*
X174508625Y-35433823D01*
X171852204Y-32777403D01*
X171828401Y-32748399D01*
X171712676Y-32653426D01*
X171580647Y-32582854D01*
X171437386Y-32539397D01*
X171325733Y-32528400D01*
X171325722Y-32528400D01*
X171288400Y-32524724D01*
X171251078Y-32528400D01*
X167432882Y-32528400D01*
X167111493Y-31939186D01*
X167097486Y-31918603D01*
X167079733Y-31901149D01*
X167058916Y-31887493D01*
X167035835Y-31878161D01*
X167011377Y-31873511D01*
X166986481Y-31873722D01*
X166962105Y-31878785D01*
X166939186Y-31888507D01*
X166918603Y-31902514D01*
X166901149Y-31920267D01*
X166886408Y-31943204D01*
X166593810Y-32528400D01*
X135564033Y-32528400D01*
X135526700Y-32524723D01*
X135489367Y-32528400D01*
X135377714Y-32539397D01*
X135234453Y-32582854D01*
X135102424Y-32653426D01*
X134986699Y-32748399D01*
X134962901Y-32777397D01*
X128936908Y-38803391D01*
X127118914Y-33955407D01*
X127107929Y-33933065D01*
X127092797Y-33913295D01*
X127074099Y-33896858D01*
X127052553Y-33884383D01*
X127028988Y-33876352D01*
X127000000Y-33873000D01*
X115000000Y-33873000D01*
X114975224Y-33875440D01*
X114951399Y-33882667D01*
X114929443Y-33894403D01*
X114910197Y-33910197D01*
X114890300Y-33936008D01*
X107927055Y-45873000D01*
X101947801Y-45873000D01*
X96566177Y-40491376D01*
X96572168Y-40476912D01*
X96635000Y-40161033D01*
X96635000Y-39838967D01*
X96572168Y-39523088D01*
X96494093Y-39334600D01*
X102511928Y-39334600D01*
X102511928Y-39750000D01*
X102513405Y-39765000D01*
X102278363Y-39765000D01*
X102039764Y-39812460D01*
X101815008Y-39905557D01*
X101612733Y-40040713D01*
X101440713Y-40212733D01*
X101305557Y-40415008D01*
X101212460Y-40639764D01*
X101165000Y-40878363D01*
X101165000Y-41121637D01*
X101212460Y-41360236D01*
X101305557Y-41584992D01*
X101440713Y-41787267D01*
X101612733Y-41959287D01*
X101815008Y-42094443D01*
X102039764Y-42187540D01*
X102278363Y-42235000D01*
X102521637Y-42235000D01*
X102760236Y-42187540D01*
X102984992Y-42094443D01*
X103187267Y-41959287D01*
X103359287Y-41787267D01*
X103494443Y-41584992D01*
X103587540Y-41360236D01*
X103635000Y-41121637D01*
X103635000Y-40878363D01*
X103587540Y-40639764D01*
X103586839Y-40638072D01*
X104600000Y-40638072D01*
X104773254Y-40621008D01*
X104939850Y-40570472D01*
X105093386Y-40488405D01*
X105227962Y-40377962D01*
X105338405Y-40243386D01*
X105392914Y-40141407D01*
X105393198Y-40141795D01*
X105607954Y-40338664D01*
X105856991Y-40489854D01*
X106130739Y-40589554D01*
X106143110Y-40591476D01*
X106373000Y-40470155D01*
X106373000Y-39127000D01*
X106627000Y-39127000D01*
X106627000Y-40470155D01*
X106856890Y-40591476D01*
X106869261Y-40589554D01*
X107143009Y-40489854D01*
X107392046Y-40338664D01*
X107606802Y-40141795D01*
X107779025Y-39906812D01*
X107902096Y-39642745D01*
X107971285Y-39359742D01*
X107827232Y-39127000D01*
X106627000Y-39127000D01*
X106373000Y-39127000D01*
X106353000Y-39127000D01*
X106353000Y-38873000D01*
X106373000Y-38873000D01*
X106373000Y-37529845D01*
X106627000Y-37529845D01*
X106627000Y-38873000D01*
X107827232Y-38873000D01*
X107971285Y-38640258D01*
X107902096Y-38357255D01*
X107779025Y-38093188D01*
X107606802Y-37858205D01*
X107392046Y-37661336D01*
X107143009Y-37510146D01*
X106869261Y-37410446D01*
X106856890Y-37408524D01*
X106627000Y-37529845D01*
X106373000Y-37529845D01*
X106143110Y-37408524D01*
X106130739Y-37410446D01*
X105856991Y-37510146D01*
X105607954Y-37661336D01*
X105393198Y-37858205D01*
X105392914Y-37858593D01*
X105338405Y-37756614D01*
X105227962Y-37622038D01*
X105093386Y-37511595D01*
X104939850Y-37429528D01*
X104773254Y-37378992D01*
X104600000Y-37361928D01*
X103400000Y-37361928D01*
X103226746Y-37378992D01*
X103060150Y-37429528D01*
X102906614Y-37511595D01*
X102772038Y-37622038D01*
X102737108Y-37664600D01*
X94390007Y-37664600D01*
X94348999Y-37660561D01*
X94307991Y-37664600D01*
X94307981Y-37664600D01*
X94185311Y-37676682D01*
X94027913Y-37724428D01*
X93882854Y-37801964D01*
X93755709Y-37906309D01*
X93729559Y-37938173D01*
X85794732Y-45873000D01*
X75281802Y-45873000D01*
X78798636Y-42356167D01*
X78943589Y-42385000D01*
X79216411Y-42385000D01*
X79483989Y-42331775D01*
X79736043Y-42227371D01*
X79962886Y-42075799D01*
X80155799Y-41882886D01*
X80307371Y-41656043D01*
X80411775Y-41403989D01*
X80465000Y-41136411D01*
X80465000Y-40863589D01*
X80411775Y-40596011D01*
X80307371Y-40343957D01*
X80155799Y-40117114D01*
X79962886Y-39924201D01*
X79746431Y-39779570D01*
X85935000Y-39779570D01*
X85935000Y-40180430D01*
X86013204Y-40573587D01*
X86166607Y-40943934D01*
X86389313Y-41277237D01*
X86672763Y-41560687D01*
X87006066Y-41783393D01*
X87376413Y-41936796D01*
X87769570Y-42015000D01*
X88170430Y-42015000D01*
X88563587Y-41936796D01*
X88933934Y-41783393D01*
X89267237Y-41560687D01*
X89550687Y-41277237D01*
X89773393Y-40943934D01*
X89926796Y-40573587D01*
X90005000Y-40180430D01*
X90005000Y-39779570D01*
X89926796Y-39386413D01*
X89773393Y-39016066D01*
X89550687Y-38682763D01*
X89267237Y-38399313D01*
X88933934Y-38176607D01*
X88563587Y-38023204D01*
X88170430Y-37945000D01*
X87769570Y-37945000D01*
X87376413Y-38023204D01*
X87006066Y-38176607D01*
X86672763Y-38399313D01*
X86389313Y-38682763D01*
X86166607Y-39016066D01*
X86013204Y-39386413D01*
X85935000Y-39779570D01*
X79746431Y-39779570D01*
X79736043Y-39772629D01*
X79633127Y-39730000D01*
X79736043Y-39687371D01*
X79962886Y-39535799D01*
X80155799Y-39342886D01*
X80307371Y-39116043D01*
X80411775Y-38863989D01*
X80465000Y-38596411D01*
X80465000Y-38323589D01*
X80411775Y-38056011D01*
X80307371Y-37803957D01*
X80155799Y-37577114D01*
X79962886Y-37384201D01*
X79736043Y-37232629D01*
X79483989Y-37128225D01*
X79216411Y-37075000D01*
X78943589Y-37075000D01*
X78676011Y-37128225D01*
X78423957Y-37232629D01*
X78197114Y-37384201D01*
X78004201Y-37577114D01*
X77852629Y-37803957D01*
X77810000Y-37906873D01*
X77767371Y-37803957D01*
X77615799Y-37577114D01*
X77422886Y-37384201D01*
X77196043Y-37232629D01*
X76943989Y-37128225D01*
X76676411Y-37075000D01*
X76403589Y-37075000D01*
X76136011Y-37128225D01*
X75883957Y-37232629D01*
X75657114Y-37384201D01*
X75464201Y-37577114D01*
X75312629Y-37803957D01*
X75270000Y-37906873D01*
X75227371Y-37803957D01*
X75075799Y-37577114D01*
X74882886Y-37384201D01*
X74656043Y-37232629D01*
X74403989Y-37128225D01*
X74136411Y-37075000D01*
X73863589Y-37075000D01*
X73596011Y-37128225D01*
X73343957Y-37232629D01*
X73117114Y-37384201D01*
X72924201Y-37577114D01*
X72772629Y-37803957D01*
X72668225Y-38056011D01*
X72615000Y-38323589D01*
X72615000Y-38596411D01*
X72668225Y-38863989D01*
X72772629Y-39116043D01*
X72799256Y-39155894D01*
X72757699Y-39189999D01*
X72733901Y-39218997D01*
X70287798Y-41665101D01*
X70258800Y-41688899D01*
X70235002Y-41717897D01*
X70235001Y-41717898D01*
X70163826Y-41804624D01*
X70093254Y-41936654D01*
X70071893Y-42007074D01*
X70051047Y-42075799D01*
X70049798Y-42079915D01*
X70035124Y-42228900D01*
X70038801Y-42266233D01*
X70038801Y-45873000D01*
X55000000Y-45873000D01*
X54975224Y-45875440D01*
X54951399Y-45882667D01*
X54929443Y-45894403D01*
X54910197Y-45910197D01*
X54894403Y-45929443D01*
X54882667Y-45951399D01*
X54875440Y-45975224D01*
X54873000Y-46000000D01*
X54873000Y-55000000D01*
X54875440Y-55024776D01*
X54882667Y-55048601D01*
X54894403Y-55070557D01*
X54910197Y-55089803D01*
X54929443Y-55105597D01*
X54959839Y-55120483D01*
X66871705Y-59091105D01*
X66216889Y-105583009D01*
X62229856Y-109570042D01*
X62331775Y-109323989D01*
X62385000Y-109056411D01*
X62385000Y-108783589D01*
X62331775Y-108516011D01*
X62227371Y-108263957D01*
X62075799Y-108037114D01*
X61882886Y-107844201D01*
X61656043Y-107692629D01*
X61403989Y-107588225D01*
X61136411Y-107535000D01*
X60863589Y-107535000D01*
X60596011Y-107588225D01*
X60343957Y-107692629D01*
X60117114Y-107844201D01*
X59924201Y-108037114D01*
X59772629Y-108263957D01*
X59730000Y-108366873D01*
X59687371Y-108263957D01*
X59535799Y-108037114D01*
X59342886Y-107844201D01*
X59116043Y-107692629D01*
X58863989Y-107588225D01*
X58596411Y-107535000D01*
X58323589Y-107535000D01*
X58056011Y-107588225D01*
X57803957Y-107692629D01*
X57577114Y-107844201D01*
X57384201Y-108037114D01*
X57232629Y-108263957D01*
X57128225Y-108516011D01*
X57075000Y-108783589D01*
X57075000Y-109056411D01*
X57128225Y-109323989D01*
X57232629Y-109576043D01*
X57384201Y-109802886D01*
X57577114Y-109995799D01*
X57803957Y-110147371D01*
X57906873Y-110190000D01*
X57803957Y-110232629D01*
X57577114Y-110384201D01*
X57384201Y-110577114D01*
X57232629Y-110803957D01*
X57128225Y-111056011D01*
X57075000Y-111323589D01*
X57075000Y-111596411D01*
X57128225Y-111863989D01*
X57232629Y-112116043D01*
X57384201Y-112342886D01*
X57577114Y-112535799D01*
X57803957Y-112687371D01*
X57906873Y-112730000D01*
X57803957Y-112772629D01*
X57577114Y-112924201D01*
X57384201Y-113117114D01*
X57232629Y-113343957D01*
X57128225Y-113596011D01*
X57075000Y-113863589D01*
X57075000Y-114136411D01*
X57128225Y-114403989D01*
X57232629Y-114656043D01*
X57384201Y-114882886D01*
X57577114Y-115075799D01*
X57803957Y-115227371D01*
X58056011Y-115331775D01*
X58323589Y-115385000D01*
X58596411Y-115385000D01*
X58863989Y-115331775D01*
X59116043Y-115227371D01*
X59342886Y-115075799D01*
X59535799Y-114882886D01*
X59613555Y-114766517D01*
X59624188Y-114874482D01*
X59660498Y-114994180D01*
X59719463Y-115104494D01*
X59798815Y-115201185D01*
X59895506Y-115280537D01*
X60005820Y-115339502D01*
X60125518Y-115375812D01*
X60250000Y-115388072D01*
X61750000Y-115388072D01*
X61874482Y-115375812D01*
X61994180Y-115339502D01*
X62104494Y-115280537D01*
X62201185Y-115201185D01*
X62280537Y-115104494D01*
X62339502Y-114994180D01*
X62375812Y-114874482D01*
X62388072Y-114750000D01*
X62388072Y-113250000D01*
X62375812Y-113125518D01*
X62339502Y-113005820D01*
X62280537Y-112895506D01*
X62201185Y-112798815D01*
X62104494Y-112719463D01*
X61994180Y-112660498D01*
X61874482Y-112624188D01*
X61766517Y-112613555D01*
X61882886Y-112535799D01*
X62075799Y-112342886D01*
X62157909Y-112220000D01*
X63917378Y-112220000D01*
X63954700Y-112223676D01*
X63992022Y-112220000D01*
X63992033Y-112220000D01*
X64103686Y-112209003D01*
X64246947Y-112165546D01*
X64378976Y-112094974D01*
X64494701Y-112000001D01*
X64518504Y-111970997D01*
X66149895Y-110339606D01*
X65873013Y-129998211D01*
X65875104Y-130023020D01*
X65881994Y-130046944D01*
X65893420Y-130069063D01*
X65908942Y-130088529D01*
X65927962Y-130104593D01*
X65949752Y-130116637D01*
X65969198Y-130123208D01*
X68950579Y-130868554D01*
X67833453Y-131985680D01*
X67635909Y-131788136D01*
X66958657Y-131335611D01*
X66206135Y-131023906D01*
X65407262Y-130865000D01*
X64592738Y-130865000D01*
X63793865Y-131023906D01*
X63041343Y-131335611D01*
X62364091Y-131788136D01*
X61788136Y-132364091D01*
X61335611Y-133041343D01*
X61023906Y-133793865D01*
X60865000Y-134592738D01*
X60865000Y-135407262D01*
X61023906Y-136206135D01*
X61335611Y-136958657D01*
X61788136Y-137635909D01*
X62364091Y-138211864D01*
X63041343Y-138664389D01*
X63793865Y-138976094D01*
X64592738Y-139135000D01*
X65407262Y-139135000D01*
X66206135Y-138976094D01*
X66958657Y-138664389D01*
X67635909Y-138211864D01*
X68211864Y-137635909D01*
X68664389Y-136958657D01*
X68976094Y-136206135D01*
X69135000Y-135407262D01*
X69135000Y-134592738D01*
X68976094Y-133793865D01*
X68803553Y-133377314D01*
X69873000Y-132307867D01*
X69873000Y-139340000D01*
X59876334Y-139340000D01*
X55527377Y-139111108D01*
X56206135Y-138976094D01*
X56958657Y-138664389D01*
X57635909Y-138211864D01*
X58211864Y-137635909D01*
X58664389Y-136958657D01*
X58976094Y-136206135D01*
X59135000Y-135407262D01*
X59135000Y-134592738D01*
X58976094Y-133793865D01*
X58664389Y-133041343D01*
X58211864Y-132364091D01*
X57635909Y-131788136D01*
X56958657Y-131335611D01*
X56206135Y-131023906D01*
X55407262Y-130865000D01*
X54592738Y-130865000D01*
X53793865Y-131023906D01*
X53041343Y-131335611D01*
X52364091Y-131788136D01*
X51788136Y-132364091D01*
X51335611Y-133041343D01*
X51127000Y-133544974D01*
X51127000Y-122689570D01*
X57945000Y-122689570D01*
X57945000Y-123090430D01*
X58023204Y-123483587D01*
X58176607Y-123853934D01*
X58399313Y-124187237D01*
X58682763Y-124470687D01*
X59016066Y-124693393D01*
X59386413Y-124846796D01*
X59779570Y-124925000D01*
X60180430Y-124925000D01*
X60573587Y-124846796D01*
X60943934Y-124693393D01*
X61277237Y-124470687D01*
X61560687Y-124187237D01*
X61783393Y-123853934D01*
X61936796Y-123483587D01*
X62015000Y-123090430D01*
X62015000Y-122689570D01*
X61936796Y-122296413D01*
X61783393Y-121926066D01*
X61560687Y-121592763D01*
X61277237Y-121309313D01*
X60943934Y-121086607D01*
X60573587Y-120933204D01*
X60180430Y-120855000D01*
X59779570Y-120855000D01*
X59386413Y-120933204D01*
X59016066Y-121086607D01*
X58682763Y-121309313D01*
X58399313Y-121592763D01*
X58176607Y-121926066D01*
X58023204Y-122296413D01*
X57945000Y-122689570D01*
X51127000Y-122689570D01*
X51127000Y-99829570D01*
X57945000Y-99829570D01*
X57945000Y-100230430D01*
X58023204Y-100623587D01*
X58176607Y-100993934D01*
X58399313Y-101327237D01*
X58682763Y-101610687D01*
X59016066Y-101833393D01*
X59386413Y-101986796D01*
X59779570Y-102065000D01*
X60180430Y-102065000D01*
X60573587Y-101986796D01*
X60943934Y-101833393D01*
X61277237Y-101610687D01*
X61560687Y-101327237D01*
X61783393Y-100993934D01*
X61936796Y-100623587D01*
X62015000Y-100230430D01*
X62015000Y-99829570D01*
X61936796Y-99436413D01*
X61783393Y-99066066D01*
X61560687Y-98732763D01*
X61277237Y-98449313D01*
X60943934Y-98226607D01*
X60573587Y-98073204D01*
X60180430Y-97995000D01*
X59779570Y-97995000D01*
X59386413Y-98073204D01*
X59016066Y-98226607D01*
X58682763Y-98449313D01*
X58399313Y-98732763D01*
X58176607Y-99066066D01*
X58023204Y-99436413D01*
X57945000Y-99829570D01*
X51127000Y-99829570D01*
X51127000Y-85689570D01*
X57945000Y-85689570D01*
X57945000Y-86090430D01*
X58023204Y-86483587D01*
X58176607Y-86853934D01*
X58399313Y-87187237D01*
X58682763Y-87470687D01*
X59016066Y-87693393D01*
X59386413Y-87846796D01*
X59779570Y-87925000D01*
X60180430Y-87925000D01*
X60573587Y-87846796D01*
X60943934Y-87693393D01*
X61277237Y-87470687D01*
X61560687Y-87187237D01*
X61783393Y-86853934D01*
X61936796Y-86483587D01*
X62015000Y-86090430D01*
X62015000Y-85689570D01*
X61936796Y-85296413D01*
X61783393Y-84926066D01*
X61560687Y-84592763D01*
X61277237Y-84309313D01*
X60943934Y-84086607D01*
X60573587Y-83933204D01*
X60180430Y-83855000D01*
X59779570Y-83855000D01*
X59386413Y-83933204D01*
X59016066Y-84086607D01*
X58682763Y-84309313D01*
X58399313Y-84592763D01*
X58176607Y-84926066D01*
X58023204Y-85296413D01*
X57945000Y-85689570D01*
X51127000Y-85689570D01*
X51127000Y-71783589D01*
X57075000Y-71783589D01*
X57075000Y-72056411D01*
X57128225Y-72323989D01*
X57232629Y-72576043D01*
X57384201Y-72802886D01*
X57577114Y-72995799D01*
X57803957Y-73147371D01*
X57906873Y-73190000D01*
X57803957Y-73232629D01*
X57577114Y-73384201D01*
X57384201Y-73577114D01*
X57232629Y-73803957D01*
X57128225Y-74056011D01*
X57075000Y-74323589D01*
X57075000Y-74596411D01*
X57128225Y-74863989D01*
X57232629Y-75116043D01*
X57384201Y-75342886D01*
X57577114Y-75535799D01*
X57803957Y-75687371D01*
X57906873Y-75730000D01*
X57803957Y-75772629D01*
X57577114Y-75924201D01*
X57384201Y-76117114D01*
X57232629Y-76343957D01*
X57128225Y-76596011D01*
X57075000Y-76863589D01*
X57075000Y-77136411D01*
X57128225Y-77403989D01*
X57232629Y-77656043D01*
X57384201Y-77882886D01*
X57577114Y-78075799D01*
X57803957Y-78227371D01*
X58056011Y-78331775D01*
X58323589Y-78385000D01*
X58596411Y-78385000D01*
X58863989Y-78331775D01*
X59116043Y-78227371D01*
X59342886Y-78075799D01*
X59535799Y-77882886D01*
X59613555Y-77766517D01*
X59624188Y-77874482D01*
X59660498Y-77994180D01*
X59719463Y-78104494D01*
X59798815Y-78201185D01*
X59895506Y-78280537D01*
X60005820Y-78339502D01*
X60125518Y-78375812D01*
X60250000Y-78388072D01*
X61750000Y-78388072D01*
X61874482Y-78375812D01*
X61994180Y-78339502D01*
X62104494Y-78280537D01*
X62201185Y-78201185D01*
X62280537Y-78104494D01*
X62339502Y-77994180D01*
X62375812Y-77874482D01*
X62388072Y-77750000D01*
X62388072Y-76250000D01*
X62375812Y-76125518D01*
X62339502Y-76005820D01*
X62280537Y-75895506D01*
X62201185Y-75798815D01*
X62104494Y-75719463D01*
X61994180Y-75660498D01*
X61874482Y-75624188D01*
X61766517Y-75613555D01*
X61882886Y-75535799D01*
X62075799Y-75342886D01*
X62227371Y-75116043D01*
X62331775Y-74863989D01*
X62385000Y-74596411D01*
X62385000Y-74323589D01*
X62331775Y-74056011D01*
X62227371Y-73803957D01*
X62075799Y-73577114D01*
X61882886Y-73384201D01*
X61656043Y-73232629D01*
X61553127Y-73190000D01*
X61656043Y-73147371D01*
X61882886Y-72995799D01*
X62075799Y-72802886D01*
X62227371Y-72576043D01*
X62331775Y-72323989D01*
X62385000Y-72056411D01*
X62385000Y-71783589D01*
X62331775Y-71516011D01*
X62227371Y-71263957D01*
X62075799Y-71037114D01*
X61882886Y-70844201D01*
X61656043Y-70692629D01*
X61403989Y-70588225D01*
X61136411Y-70535000D01*
X60863589Y-70535000D01*
X60596011Y-70588225D01*
X60343957Y-70692629D01*
X60117114Y-70844201D01*
X59924201Y-71037114D01*
X59772629Y-71263957D01*
X59730000Y-71366873D01*
X59687371Y-71263957D01*
X59535799Y-71037114D01*
X59342886Y-70844201D01*
X59116043Y-70692629D01*
X58863989Y-70588225D01*
X58596411Y-70535000D01*
X58323589Y-70535000D01*
X58056011Y-70588225D01*
X57803957Y-70692629D01*
X57577114Y-70844201D01*
X57384201Y-71037114D01*
X57232629Y-71263957D01*
X57128225Y-71516011D01*
X57075000Y-71783589D01*
X51127000Y-71783589D01*
X51127000Y-62829570D01*
X57945000Y-62829570D01*
X57945000Y-63230430D01*
X58023204Y-63623587D01*
X58176607Y-63993934D01*
X58399313Y-64327237D01*
X58682763Y-64610687D01*
X59016066Y-64833393D01*
X59386413Y-64986796D01*
X59779570Y-65065000D01*
X60180430Y-65065000D01*
X60573587Y-64986796D01*
X60943934Y-64833393D01*
X61277237Y-64610687D01*
X61560687Y-64327237D01*
X61783393Y-63993934D01*
X61936796Y-63623587D01*
X62015000Y-63230430D01*
X62015000Y-62829570D01*
X61936796Y-62436413D01*
X61783393Y-62066066D01*
X61560687Y-61732763D01*
X61277237Y-61449313D01*
X60943934Y-61226607D01*
X60573587Y-61073204D01*
X60180430Y-60995000D01*
X59779570Y-60995000D01*
X59386413Y-61073204D01*
X59016066Y-61226607D01*
X58682763Y-61449313D01*
X58399313Y-61732763D01*
X58176607Y-62066066D01*
X58023204Y-62436413D01*
X57945000Y-62829570D01*
X51127000Y-62829570D01*
X51127000Y-39779570D01*
X63075000Y-39779570D01*
X63075000Y-40180430D01*
X63153204Y-40573587D01*
X63306607Y-40943934D01*
X63529313Y-41277237D01*
X63812763Y-41560687D01*
X64146066Y-41783393D01*
X64516413Y-41936796D01*
X64909570Y-42015000D01*
X65310430Y-42015000D01*
X65703587Y-41936796D01*
X66073934Y-41783393D01*
X66407237Y-41560687D01*
X66690687Y-41277237D01*
X66913393Y-40943934D01*
X67066796Y-40573587D01*
X67145000Y-40180430D01*
X67145000Y-39779570D01*
X67066796Y-39386413D01*
X66913393Y-39016066D01*
X66690687Y-38682763D01*
X66407237Y-38399313D01*
X66073934Y-38176607D01*
X65703587Y-38023204D01*
X65310430Y-37945000D01*
X64909570Y-37945000D01*
X64516413Y-38023204D01*
X64146066Y-38176607D01*
X63812763Y-38399313D01*
X63529313Y-38682763D01*
X63306607Y-39016066D01*
X63153204Y-39386413D01*
X63075000Y-39779570D01*
X51127000Y-39779570D01*
X51127000Y-29455026D01*
X51335611Y-29958657D01*
X51788136Y-30635909D01*
X52364091Y-31211864D01*
X53041343Y-31664389D01*
X53793865Y-31976094D01*
X54592738Y-32135000D01*
X55407262Y-32135000D01*
X56206135Y-31976094D01*
X56958657Y-31664389D01*
X57635909Y-31211864D01*
X57933618Y-30914155D01*
X62265450Y-30914155D01*
X62661634Y-31434550D01*
X63376612Y-31824748D01*
X64153976Y-32067964D01*
X64963853Y-32154851D01*
X65775118Y-32082069D01*
X66556597Y-31852415D01*
X67278256Y-31474715D01*
X67338366Y-31434550D01*
X67734550Y-30914155D01*
X65000000Y-28179605D01*
X62265450Y-30914155D01*
X57933618Y-30914155D01*
X58211864Y-30635909D01*
X58664389Y-29958657D01*
X58976094Y-29206135D01*
X59135000Y-28407262D01*
X59135000Y-27963853D01*
X60845149Y-27963853D01*
X60917931Y-28775118D01*
X61147585Y-29556597D01*
X61525285Y-30278256D01*
X61565450Y-30338366D01*
X62085845Y-30734550D01*
X64820395Y-28000000D01*
X65179605Y-28000000D01*
X67914155Y-30734550D01*
X68434550Y-30338366D01*
X68824748Y-29623388D01*
X69067964Y-28846024D01*
X69154851Y-28036147D01*
X69082069Y-27224882D01*
X68852415Y-26443403D01*
X68474715Y-25721744D01*
X68434550Y-25661634D01*
X67914155Y-25265450D01*
X65179605Y-28000000D01*
X64820395Y-28000000D01*
X62085845Y-25265450D01*
X61565450Y-25661634D01*
X61175252Y-26376612D01*
X60932036Y-27153976D01*
X60845149Y-27963853D01*
X59135000Y-27963853D01*
X59135000Y-27592738D01*
X58976094Y-26793865D01*
X58664389Y-26041343D01*
X58211864Y-25364091D01*
X57635909Y-24788136D01*
X56958657Y-24335611D01*
X56455026Y-24127000D01*
X63513451Y-24127000D01*
X63443403Y-24147585D01*
%TA.AperFunction,Conductor*%
D26*
G36*
X63443403Y-24147585D02*
G01*
X62721744Y-24525285D01*
X62661634Y-24565450D01*
X62265450Y-25085845D01*
X65000000Y-27820395D01*
X67734550Y-25085845D01*
X67338366Y-24565450D01*
X66623388Y-24175252D01*
X66469166Y-24127000D01*
X243544974Y-24127000D01*
X243041343Y-24335611D01*
X242364091Y-24788136D01*
X241788136Y-25364091D01*
X241335611Y-26041343D01*
X241023906Y-26793865D01*
X240865000Y-27592738D01*
X240865000Y-28407262D01*
X241023906Y-29206135D01*
X241335611Y-29958657D01*
X241788136Y-30635909D01*
X242364091Y-31211864D01*
X243041343Y-31664389D01*
X243793865Y-31976094D01*
X244592738Y-32135000D01*
X245329206Y-32135000D01*
X246165000Y-32970851D01*
X246165000Y-42873000D01*
X235204702Y-42873000D01*
X232691740Y-40360039D01*
X232851569Y-40293835D01*
X233090696Y-40134056D01*
X233294056Y-39930696D01*
X233430000Y-39727241D01*
X233565944Y-39930696D01*
X233769304Y-40134056D01*
X234008431Y-40293835D01*
X234274134Y-40403893D01*
X234556203Y-40460000D01*
X234843797Y-40460000D01*
X235125866Y-40403893D01*
X235391569Y-40293835D01*
X235630696Y-40134056D01*
X235834056Y-39930696D01*
X235970000Y-39727241D01*
X236105944Y-39930696D01*
X236309304Y-40134056D01*
X236548431Y-40293835D01*
X236814134Y-40403893D01*
X237096203Y-40460000D01*
X237383797Y-40460000D01*
X237665866Y-40403893D01*
X237931569Y-40293835D01*
X238170696Y-40134056D01*
X238374056Y-39930696D01*
X238510000Y-39727241D01*
X238645944Y-39930696D01*
X238849304Y-40134056D01*
X239088431Y-40293835D01*
X239354134Y-40403893D01*
X239636203Y-40460000D01*
X239923797Y-40460000D01*
X240205866Y-40403893D01*
X240471569Y-40293835D01*
X240710696Y-40134056D01*
X240914056Y-39930696D01*
X241073835Y-39691569D01*
X241183893Y-39425866D01*
X241240000Y-39143797D01*
X241240000Y-38856203D01*
X241183893Y-38574134D01*
X241073835Y-38308431D01*
X240914056Y-38069304D01*
X240710696Y-37865944D01*
X240507241Y-37730000D01*
X240710696Y-37594056D01*
X240914056Y-37390696D01*
X241073835Y-37151569D01*
X241183893Y-36885866D01*
X241240000Y-36603797D01*
X241240000Y-36316203D01*
X241183893Y-36034134D01*
X241073835Y-35768431D01*
X240914056Y-35529304D01*
X240710696Y-35325944D01*
X240471569Y-35166165D01*
X240205866Y-35056107D01*
X239923797Y-35000000D01*
X239636203Y-35000000D01*
X239354134Y-35056107D01*
X239088431Y-35166165D01*
X238849304Y-35325944D01*
X238645944Y-35529304D01*
X238510000Y-35732759D01*
X238374056Y-35529304D01*
X238170696Y-35325944D01*
X237931569Y-35166165D01*
X237665866Y-35056107D01*
X237383797Y-35000000D01*
X237096203Y-35000000D01*
X236814134Y-35056107D01*
X236548431Y-35166165D01*
X236309304Y-35325944D01*
X236105944Y-35529304D01*
X235970000Y-35732759D01*
X235834056Y-35529304D01*
X235630696Y-35325944D01*
X235391569Y-35166165D01*
X235125866Y-35056107D01*
X234843797Y-35000000D01*
X234556203Y-35000000D01*
X234274134Y-35056107D01*
X234008431Y-35166165D01*
X233769304Y-35325944D01*
X233565944Y-35529304D01*
X233430000Y-35732759D01*
X233294056Y-35529304D01*
X233090696Y-35325944D01*
X232851569Y-35166165D01*
X232585866Y-35056107D01*
X232303797Y-35000000D01*
X232016203Y-35000000D01*
X231734134Y-35056107D01*
X231468431Y-35166165D01*
X231229304Y-35325944D01*
X231025944Y-35529304D01*
X230890000Y-35732759D01*
X230754056Y-35529304D01*
X230550696Y-35325944D01*
X230311569Y-35166165D01*
X230045866Y-35056107D01*
X229763797Y-35000000D01*
X229476203Y-35000000D01*
X229194134Y-35056107D01*
X228928431Y-35166165D01*
X228689304Y-35325944D01*
X228485944Y-35529304D01*
X228350000Y-35732759D01*
X228214056Y-35529304D01*
X228010696Y-35325944D01*
X227771569Y-35166165D01*
X227505866Y-35056107D01*
X227223797Y-35000000D01*
X226936203Y-35000000D01*
X226654134Y-35056107D01*
X226388431Y-35166165D01*
X226149304Y-35325944D01*
X225945944Y-35529304D01*
X225810000Y-35732759D01*
X225674056Y-35529304D01*
X225470696Y-35325944D01*
X225231569Y-35166165D01*
X224965866Y-35056107D01*
X224683797Y-35000000D01*
X224396203Y-35000000D01*
X224114134Y-35056107D01*
X223848431Y-35166165D01*
X223609304Y-35325944D01*
X223405944Y-35529304D01*
X223270000Y-35732759D01*
X223134056Y-35529304D01*
X222930696Y-35325944D01*
X222691569Y-35166165D01*
X222425866Y-35056107D01*
X222143797Y-35000000D01*
X221856203Y-35000000D01*
X221574134Y-35056107D01*
X221308431Y-35166165D01*
X221069304Y-35325944D01*
X220865944Y-35529304D01*
X220706165Y-35768431D01*
X220596107Y-36034134D01*
X220540000Y-36316203D01*
X220540000Y-36603797D01*
X220596107Y-36885866D01*
X220706165Y-37151569D01*
X220865944Y-37390696D01*
X221030506Y-37555258D01*
X220930820Y-37585498D01*
X220820506Y-37644463D01*
X220723815Y-37723815D01*
X220644463Y-37820506D01*
X220585498Y-37930820D01*
X220549188Y-38050518D01*
X220536928Y-38175000D01*
X220536928Y-39825000D01*
X220549188Y-39949482D01*
X220585498Y-40069180D01*
X220644463Y-40179494D01*
X220723815Y-40276185D01*
X220820506Y-40355537D01*
X220930820Y-40414502D01*
X221050518Y-40450812D01*
X221175000Y-40463072D01*
X221240000Y-40463072D01*
X221240000Y-42873000D01*
X199204702Y-42873000D01*
X196691740Y-40360039D01*
X196851569Y-40293835D01*
X197090696Y-40134056D01*
X197294056Y-39930696D01*
X197430000Y-39727241D01*
X197565944Y-39930696D01*
X197769304Y-40134056D01*
X198008431Y-40293835D01*
X198274134Y-40403893D01*
X198556203Y-40460000D01*
X198843797Y-40460000D01*
X199125866Y-40403893D01*
X199391569Y-40293835D01*
X199630696Y-40134056D01*
X199834056Y-39930696D01*
X199970000Y-39727241D01*
X200105944Y-39930696D01*
X200309304Y-40134056D01*
X200548431Y-40293835D01*
X200814134Y-40403893D01*
X201096203Y-40460000D01*
X201383797Y-40460000D01*
X201665866Y-40403893D01*
X201931569Y-40293835D01*
X202170696Y-40134056D01*
X202374056Y-39930696D01*
X202510000Y-39727241D01*
X202645944Y-39930696D01*
X202849304Y-40134056D01*
X203088431Y-40293835D01*
X203354134Y-40403893D01*
X203636203Y-40460000D01*
X203923797Y-40460000D01*
X204205866Y-40403893D01*
X204471569Y-40293835D01*
X204710696Y-40134056D01*
X204914056Y-39930696D01*
X205073835Y-39691569D01*
X205183893Y-39425866D01*
X205240000Y-39143797D01*
X205240000Y-38856203D01*
X205183893Y-38574134D01*
X205073835Y-38308431D01*
X204914056Y-38069304D01*
X204710696Y-37865944D01*
X204507241Y-37730000D01*
X204710696Y-37594056D01*
X204914056Y-37390696D01*
X205073835Y-37151569D01*
X205183893Y-36885866D01*
X205193221Y-36838967D01*
X212365000Y-36838967D01*
X212365000Y-37161033D01*
X212427832Y-37476912D01*
X212551082Y-37774463D01*
X212730013Y-38042252D01*
X212957748Y-38269987D01*
X213225537Y-38448918D01*
X213523088Y-38572168D01*
X213838967Y-38635000D01*
X214161033Y-38635000D01*
X214476912Y-38572168D01*
X214774463Y-38448918D01*
X215042252Y-38269987D01*
X215269987Y-38042252D01*
X215448918Y-37774463D01*
X215572168Y-37476912D01*
X215635000Y-37161033D01*
X215635000Y-36838967D01*
X215572168Y-36523088D01*
X215448918Y-36225537D01*
X215269987Y-35957748D01*
X215042252Y-35730013D01*
X214774463Y-35551082D01*
X214476912Y-35427832D01*
X214161033Y-35365000D01*
X213838967Y-35365000D01*
X213523088Y-35427832D01*
X213225537Y-35551082D01*
X212957748Y-35730013D01*
X212730013Y-35957748D01*
X212551082Y-36225537D01*
X212427832Y-36523088D01*
X212365000Y-36838967D01*
X205193221Y-36838967D01*
X205240000Y-36603797D01*
X205240000Y-36316203D01*
X205183893Y-36034134D01*
X205073835Y-35768431D01*
X204914056Y-35529304D01*
X204710696Y-35325944D01*
X204471569Y-35166165D01*
X204205866Y-35056107D01*
X203923797Y-35000000D01*
X203636203Y-35000000D01*
X203354134Y-35056107D01*
X203088431Y-35166165D01*
X202849304Y-35325944D01*
X202645944Y-35529304D01*
X202510000Y-35732759D01*
X202374056Y-35529304D01*
X202170696Y-35325944D01*
X201931569Y-35166165D01*
X201665866Y-35056107D01*
X201383797Y-35000000D01*
X201096203Y-35000000D01*
X200814134Y-35056107D01*
X200548431Y-35166165D01*
X200309304Y-35325944D01*
X200105944Y-35529304D01*
X199970000Y-35732759D01*
X199834056Y-35529304D01*
X199630696Y-35325944D01*
X199391569Y-35166165D01*
X199125866Y-35056107D01*
X198843797Y-35000000D01*
X198556203Y-35000000D01*
X198274134Y-35056107D01*
X198008431Y-35166165D01*
X197769304Y-35325944D01*
X197565944Y-35529304D01*
X197430000Y-35732759D01*
X197294056Y-35529304D01*
X197090696Y-35325944D01*
X196851569Y-35166165D01*
X196585866Y-35056107D01*
X196303797Y-35000000D01*
X196016203Y-35000000D01*
X195734134Y-35056107D01*
X195468431Y-35166165D01*
X195229304Y-35325944D01*
X195025944Y-35529304D01*
X194890000Y-35732759D01*
X194754056Y-35529304D01*
X194550696Y-35325944D01*
X194311569Y-35166165D01*
X194045866Y-35056107D01*
X193763797Y-35000000D01*
X193476203Y-35000000D01*
X193194134Y-35056107D01*
X192928431Y-35166165D01*
X192689304Y-35325944D01*
X192485944Y-35529304D01*
X192350000Y-35732759D01*
X192214056Y-35529304D01*
X192010696Y-35325944D01*
X191771569Y-35166165D01*
X191505866Y-35056107D01*
X191223797Y-35000000D01*
X190936203Y-35000000D01*
X190654134Y-35056107D01*
X190388431Y-35166165D01*
X190149304Y-35325944D01*
X189945944Y-35529304D01*
X189810000Y-35732759D01*
X189674056Y-35529304D01*
X189470696Y-35325944D01*
X189231569Y-35166165D01*
X188965866Y-35056107D01*
X188683797Y-35000000D01*
X188396203Y-35000000D01*
X188114134Y-35056107D01*
X187848431Y-35166165D01*
X187609304Y-35325944D01*
X187405944Y-35529304D01*
X187270000Y-35732759D01*
X187134056Y-35529304D01*
X186930696Y-35325944D01*
X186691569Y-35166165D01*
X186425866Y-35056107D01*
X186143797Y-35000000D01*
X185856203Y-35000000D01*
X185574134Y-35056107D01*
X185308431Y-35166165D01*
X185069304Y-35325944D01*
X184865944Y-35529304D01*
X184706165Y-35768431D01*
X184596107Y-36034134D01*
X184540000Y-36316203D01*
X184540000Y-36603797D01*
X184596107Y-36885866D01*
X184706165Y-37151569D01*
X184865944Y-37390696D01*
X185030506Y-37555258D01*
X184930820Y-37585498D01*
X184820506Y-37644463D01*
X184723815Y-37723815D01*
X184644463Y-37820506D01*
X184585498Y-37930820D01*
X184549188Y-38050518D01*
X184536928Y-38175000D01*
X184536928Y-39825000D01*
X184549188Y-39949482D01*
X184585498Y-40069180D01*
X184644463Y-40179494D01*
X184723815Y-40276185D01*
X184820506Y-40355537D01*
X184930820Y-40414502D01*
X185050518Y-40450812D01*
X185175000Y-40463072D01*
X185240001Y-40463072D01*
X185240001Y-42873000D01*
X173075392Y-42873000D01*
X168261973Y-34048400D01*
X170973599Y-34048400D01*
X173433823Y-36508625D01*
X173427832Y-36523088D01*
X173365000Y-36838967D01*
X173365000Y-37161033D01*
X173427832Y-37476912D01*
X173551082Y-37774463D01*
X173730013Y-38042252D01*
X173957748Y-38269987D01*
X174225537Y-38448918D01*
X174523088Y-38572168D01*
X174838967Y-38635000D01*
X175161033Y-38635000D01*
X175476912Y-38572168D01*
X175774463Y-38448918D01*
X176042252Y-38269987D01*
X176269987Y-38042252D01*
X176448918Y-37774463D01*
X176572168Y-37476912D01*
X176635000Y-37161033D01*
X176635000Y-36838967D01*
X176572168Y-36523088D01*
X176448918Y-36225537D01*
X176269987Y-35957748D01*
X176042252Y-35730013D01*
X175774463Y-35551082D01*
X175476912Y-35427832D01*
X175161033Y-35365000D01*
X174838967Y-35365000D01*
X174523088Y-35427832D01*
X174508625Y-35433823D01*
X171852204Y-32777403D01*
X171828401Y-32748399D01*
X171712676Y-32653426D01*
X171580647Y-32582854D01*
X171437386Y-32539397D01*
X171325733Y-32528400D01*
X171325722Y-32528400D01*
X171288400Y-32524724D01*
X171251078Y-32528400D01*
X167432882Y-32528400D01*
X167111493Y-31939186D01*
X167097486Y-31918603D01*
X167079733Y-31901149D01*
X167058916Y-31887493D01*
X167035835Y-31878161D01*
X167011377Y-31873511D01*
X166986481Y-31873722D01*
X166962105Y-31878785D01*
X166939186Y-31888507D01*
X166918603Y-31902514D01*
X166901149Y-31920267D01*
X166886408Y-31943204D01*
X166593810Y-32528400D01*
X135564033Y-32528400D01*
X135526700Y-32524723D01*
X135489367Y-32528400D01*
X135377714Y-32539397D01*
X135234453Y-32582854D01*
X135102424Y-32653426D01*
X134986699Y-32748399D01*
X134962901Y-32777397D01*
X128936908Y-38803391D01*
X127118914Y-33955407D01*
X127107929Y-33933065D01*
X127092797Y-33913295D01*
X127074099Y-33896858D01*
X127052553Y-33884383D01*
X127028988Y-33876352D01*
X127000000Y-33873000D01*
X115000000Y-33873000D01*
X114975224Y-33875440D01*
X114951399Y-33882667D01*
X114929443Y-33894403D01*
X114910197Y-33910197D01*
X114890300Y-33936008D01*
X107927055Y-45873000D01*
X101947801Y-45873000D01*
X96566177Y-40491376D01*
X96572168Y-40476912D01*
X96635000Y-40161033D01*
X96635000Y-39838967D01*
X96572168Y-39523088D01*
X96494093Y-39334600D01*
X102511928Y-39334600D01*
X102511928Y-39750000D01*
X102513405Y-39765000D01*
X102278363Y-39765000D01*
X102039764Y-39812460D01*
X101815008Y-39905557D01*
X101612733Y-40040713D01*
X101440713Y-40212733D01*
X101305557Y-40415008D01*
X101212460Y-40639764D01*
X101165000Y-40878363D01*
X101165000Y-41121637D01*
X101212460Y-41360236D01*
X101305557Y-41584992D01*
X101440713Y-41787267D01*
X101612733Y-41959287D01*
X101815008Y-42094443D01*
X102039764Y-42187540D01*
X102278363Y-42235000D01*
X102521637Y-42235000D01*
X102760236Y-42187540D01*
X102984992Y-42094443D01*
X103187267Y-41959287D01*
X103359287Y-41787267D01*
X103494443Y-41584992D01*
X103587540Y-41360236D01*
X103635000Y-41121637D01*
X103635000Y-40878363D01*
X103587540Y-40639764D01*
X103586839Y-40638072D01*
X104600000Y-40638072D01*
X104773254Y-40621008D01*
X104939850Y-40570472D01*
X105093386Y-40488405D01*
X105227962Y-40377962D01*
X105338405Y-40243386D01*
X105392914Y-40141407D01*
X105393198Y-40141795D01*
X105607954Y-40338664D01*
X105856991Y-40489854D01*
X106130739Y-40589554D01*
X106143110Y-40591476D01*
X106373000Y-40470155D01*
X106373000Y-39127000D01*
X106627000Y-39127000D01*
X106627000Y-40470155D01*
X106856890Y-40591476D01*
X106869261Y-40589554D01*
X107143009Y-40489854D01*
X107392046Y-40338664D01*
X107606802Y-40141795D01*
X107779025Y-39906812D01*
X107902096Y-39642745D01*
X107971285Y-39359742D01*
X107827232Y-39127000D01*
X106627000Y-39127000D01*
X106373000Y-39127000D01*
X106353000Y-39127000D01*
X106353000Y-38873000D01*
X106373000Y-38873000D01*
X106373000Y-37529845D01*
X106627000Y-37529845D01*
X106627000Y-38873000D01*
X107827232Y-38873000D01*
X107971285Y-38640258D01*
X107902096Y-38357255D01*
X107779025Y-38093188D01*
X107606802Y-37858205D01*
X107392046Y-37661336D01*
X107143009Y-37510146D01*
X106869261Y-37410446D01*
X106856890Y-37408524D01*
X106627000Y-37529845D01*
X106373000Y-37529845D01*
X106143110Y-37408524D01*
X106130739Y-37410446D01*
X105856991Y-37510146D01*
X105607954Y-37661336D01*
X105393198Y-37858205D01*
X105392914Y-37858593D01*
X105338405Y-37756614D01*
X105227962Y-37622038D01*
X105093386Y-37511595D01*
X104939850Y-37429528D01*
X104773254Y-37378992D01*
X104600000Y-37361928D01*
X103400000Y-37361928D01*
X103226746Y-37378992D01*
X103060150Y-37429528D01*
X102906614Y-37511595D01*
X102772038Y-37622038D01*
X102737108Y-37664600D01*
X94390007Y-37664600D01*
X94348999Y-37660561D01*
X94307991Y-37664600D01*
X94307981Y-37664600D01*
X94185311Y-37676682D01*
X94027913Y-37724428D01*
X93882854Y-37801964D01*
X93755709Y-37906309D01*
X93729559Y-37938173D01*
X85794732Y-45873000D01*
X75281802Y-45873000D01*
X78798636Y-42356167D01*
X78943589Y-42385000D01*
X79216411Y-42385000D01*
X79483989Y-42331775D01*
X79736043Y-42227371D01*
X79962886Y-42075799D01*
X80155799Y-41882886D01*
X80307371Y-41656043D01*
X80411775Y-41403989D01*
X80465000Y-41136411D01*
X80465000Y-40863589D01*
X80411775Y-40596011D01*
X80307371Y-40343957D01*
X80155799Y-40117114D01*
X79962886Y-39924201D01*
X79746431Y-39779570D01*
X85935000Y-39779570D01*
X85935000Y-40180430D01*
X86013204Y-40573587D01*
X86166607Y-40943934D01*
X86389313Y-41277237D01*
X86672763Y-41560687D01*
X87006066Y-41783393D01*
X87376413Y-41936796D01*
X87769570Y-42015000D01*
X88170430Y-42015000D01*
X88563587Y-41936796D01*
X88933934Y-41783393D01*
X89267237Y-41560687D01*
X89550687Y-41277237D01*
X89773393Y-40943934D01*
X89926796Y-40573587D01*
X90005000Y-40180430D01*
X90005000Y-39779570D01*
X89926796Y-39386413D01*
X89773393Y-39016066D01*
X89550687Y-38682763D01*
X89267237Y-38399313D01*
X88933934Y-38176607D01*
X88563587Y-38023204D01*
X88170430Y-37945000D01*
X87769570Y-37945000D01*
X87376413Y-38023204D01*
X87006066Y-38176607D01*
X86672763Y-38399313D01*
X86389313Y-38682763D01*
X86166607Y-39016066D01*
X86013204Y-39386413D01*
X85935000Y-39779570D01*
X79746431Y-39779570D01*
X79736043Y-39772629D01*
X79633127Y-39730000D01*
X79736043Y-39687371D01*
X79962886Y-39535799D01*
X80155799Y-39342886D01*
X80307371Y-39116043D01*
X80411775Y-38863989D01*
X80465000Y-38596411D01*
X80465000Y-38323589D01*
X80411775Y-38056011D01*
X80307371Y-37803957D01*
X80155799Y-37577114D01*
X79962886Y-37384201D01*
X79736043Y-37232629D01*
X79483989Y-37128225D01*
X79216411Y-37075000D01*
X78943589Y-37075000D01*
X78676011Y-37128225D01*
X78423957Y-37232629D01*
X78197114Y-37384201D01*
X78004201Y-37577114D01*
X77852629Y-37803957D01*
X77810000Y-37906873D01*
X77767371Y-37803957D01*
X77615799Y-37577114D01*
X77422886Y-37384201D01*
X77196043Y-37232629D01*
X76943989Y-37128225D01*
X76676411Y-37075000D01*
X76403589Y-37075000D01*
X76136011Y-37128225D01*
X75883957Y-37232629D01*
X75657114Y-37384201D01*
X75464201Y-37577114D01*
X75312629Y-37803957D01*
X75270000Y-37906873D01*
X75227371Y-37803957D01*
X75075799Y-37577114D01*
X74882886Y-37384201D01*
X74656043Y-37232629D01*
X74403989Y-37128225D01*
X74136411Y-37075000D01*
X73863589Y-37075000D01*
X73596011Y-37128225D01*
X73343957Y-37232629D01*
X73117114Y-37384201D01*
X72924201Y-37577114D01*
X72772629Y-37803957D01*
X72668225Y-38056011D01*
X72615000Y-38323589D01*
X72615000Y-38596411D01*
X72668225Y-38863989D01*
X72772629Y-39116043D01*
X72799256Y-39155894D01*
X72757699Y-39189999D01*
X72733901Y-39218997D01*
X70287798Y-41665101D01*
X70258800Y-41688899D01*
X70235002Y-41717897D01*
X70235001Y-41717898D01*
X70163826Y-41804624D01*
X70093254Y-41936654D01*
X70071893Y-42007074D01*
X70051047Y-42075799D01*
X70049798Y-42079915D01*
X70035124Y-42228900D01*
X70038801Y-42266233D01*
X70038801Y-45873000D01*
X55000000Y-45873000D01*
X54975224Y-45875440D01*
X54951399Y-45882667D01*
X54929443Y-45894403D01*
X54910197Y-45910197D01*
X54894403Y-45929443D01*
X54882667Y-45951399D01*
X54875440Y-45975224D01*
X54873000Y-46000000D01*
X54873000Y-55000000D01*
X54875440Y-55024776D01*
X54882667Y-55048601D01*
X54894403Y-55070557D01*
X54910197Y-55089803D01*
X54929443Y-55105597D01*
X54959839Y-55120483D01*
X66871705Y-59091105D01*
X66216889Y-105583009D01*
X62229856Y-109570042D01*
X62331775Y-109323989D01*
X62385000Y-109056411D01*
X62385000Y-108783589D01*
X62331775Y-108516011D01*
X62227371Y-108263957D01*
X62075799Y-108037114D01*
X61882886Y-107844201D01*
X61656043Y-107692629D01*
X61403989Y-107588225D01*
X61136411Y-107535000D01*
X60863589Y-107535000D01*
X60596011Y-107588225D01*
X60343957Y-107692629D01*
X60117114Y-107844201D01*
X59924201Y-108037114D01*
X59772629Y-108263957D01*
X59730000Y-108366873D01*
X59687371Y-108263957D01*
X59535799Y-108037114D01*
X59342886Y-107844201D01*
X59116043Y-107692629D01*
X58863989Y-107588225D01*
X58596411Y-107535000D01*
X58323589Y-107535000D01*
X58056011Y-107588225D01*
X57803957Y-107692629D01*
X57577114Y-107844201D01*
X57384201Y-108037114D01*
X57232629Y-108263957D01*
X57128225Y-108516011D01*
X57075000Y-108783589D01*
X57075000Y-109056411D01*
X57128225Y-109323989D01*
X57232629Y-109576043D01*
X57384201Y-109802886D01*
X57577114Y-109995799D01*
X57803957Y-110147371D01*
X57906873Y-110190000D01*
X57803957Y-110232629D01*
X57577114Y-110384201D01*
X57384201Y-110577114D01*
X57232629Y-110803957D01*
X57128225Y-111056011D01*
X57075000Y-111323589D01*
X57075000Y-111596411D01*
X57128225Y-111863989D01*
X57232629Y-112116043D01*
X57384201Y-112342886D01*
X57577114Y-112535799D01*
X57803957Y-112687371D01*
X57906873Y-112730000D01*
X57803957Y-112772629D01*
X57577114Y-112924201D01*
X57384201Y-113117114D01*
X57232629Y-113343957D01*
X57128225Y-113596011D01*
X57075000Y-113863589D01*
X57075000Y-114136411D01*
X57128225Y-114403989D01*
X57232629Y-114656043D01*
X57384201Y-114882886D01*
X57577114Y-115075799D01*
X57803957Y-115227371D01*
X58056011Y-115331775D01*
X58323589Y-115385000D01*
X58596411Y-115385000D01*
X58863989Y-115331775D01*
X59116043Y-115227371D01*
X59342886Y-115075799D01*
X59535799Y-114882886D01*
X59613555Y-114766517D01*
X59624188Y-114874482D01*
X59660498Y-114994180D01*
X59719463Y-115104494D01*
X59798815Y-115201185D01*
X59895506Y-115280537D01*
X60005820Y-115339502D01*
X60125518Y-115375812D01*
X60250000Y-115388072D01*
X61750000Y-115388072D01*
X61874482Y-115375812D01*
X61994180Y-115339502D01*
X62104494Y-115280537D01*
X62201185Y-115201185D01*
X62280537Y-115104494D01*
X62339502Y-114994180D01*
X62375812Y-114874482D01*
X62388072Y-114750000D01*
X62388072Y-113250000D01*
X62375812Y-113125518D01*
X62339502Y-113005820D01*
X62280537Y-112895506D01*
X62201185Y-112798815D01*
X62104494Y-112719463D01*
X61994180Y-112660498D01*
X61874482Y-112624188D01*
X61766517Y-112613555D01*
X61882886Y-112535799D01*
X62075799Y-112342886D01*
X62157909Y-112220000D01*
X63917378Y-112220000D01*
X63954700Y-112223676D01*
X63992022Y-112220000D01*
X63992033Y-112220000D01*
X64103686Y-112209003D01*
X64246947Y-112165546D01*
X64378976Y-112094974D01*
X64494701Y-112000001D01*
X64518504Y-111970997D01*
X66149895Y-110339606D01*
X65873013Y-129998211D01*
X65875104Y-130023020D01*
X65881994Y-130046944D01*
X65893420Y-130069063D01*
X65908942Y-130088529D01*
X65927962Y-130104593D01*
X65949752Y-130116637D01*
X65969198Y-130123208D01*
X68950579Y-130868554D01*
X67833453Y-131985680D01*
X67635909Y-131788136D01*
X66958657Y-131335611D01*
X66206135Y-131023906D01*
X65407262Y-130865000D01*
X64592738Y-130865000D01*
X63793865Y-131023906D01*
X63041343Y-131335611D01*
X62364091Y-131788136D01*
X61788136Y-132364091D01*
X61335611Y-133041343D01*
X61023906Y-133793865D01*
X60865000Y-134592738D01*
X60865000Y-135407262D01*
X61023906Y-136206135D01*
X61335611Y-136958657D01*
X61788136Y-137635909D01*
X62364091Y-138211864D01*
X63041343Y-138664389D01*
X63793865Y-138976094D01*
X64592738Y-139135000D01*
X65407262Y-139135000D01*
X66206135Y-138976094D01*
X66958657Y-138664389D01*
X67635909Y-138211864D01*
X68211864Y-137635909D01*
X68664389Y-136958657D01*
X68976094Y-136206135D01*
X69135000Y-135407262D01*
X69135000Y-134592738D01*
X68976094Y-133793865D01*
X68803553Y-133377314D01*
X69873000Y-132307867D01*
X69873000Y-139340000D01*
X59876334Y-139340000D01*
X55527377Y-139111108D01*
X56206135Y-138976094D01*
X56958657Y-138664389D01*
X57635909Y-138211864D01*
X58211864Y-137635909D01*
X58664389Y-136958657D01*
X58976094Y-136206135D01*
X59135000Y-135407262D01*
X59135000Y-134592738D01*
X58976094Y-133793865D01*
X58664389Y-133041343D01*
X58211864Y-132364091D01*
X57635909Y-131788136D01*
X56958657Y-131335611D01*
X56206135Y-131023906D01*
X55407262Y-130865000D01*
X54592738Y-130865000D01*
X53793865Y-131023906D01*
X53041343Y-131335611D01*
X52364091Y-131788136D01*
X51788136Y-132364091D01*
X51335611Y-133041343D01*
X51127000Y-133544974D01*
X51127000Y-122689570D01*
X57945000Y-122689570D01*
X57945000Y-123090430D01*
X58023204Y-123483587D01*
X58176607Y-123853934D01*
X58399313Y-124187237D01*
X58682763Y-124470687D01*
X59016066Y-124693393D01*
X59386413Y-124846796D01*
X59779570Y-124925000D01*
X60180430Y-124925000D01*
X60573587Y-124846796D01*
X60943934Y-124693393D01*
X61277237Y-124470687D01*
X61560687Y-124187237D01*
X61783393Y-123853934D01*
X61936796Y-123483587D01*
X62015000Y-123090430D01*
X62015000Y-122689570D01*
X61936796Y-122296413D01*
X61783393Y-121926066D01*
X61560687Y-121592763D01*
X61277237Y-121309313D01*
X60943934Y-121086607D01*
X60573587Y-120933204D01*
X60180430Y-120855000D01*
X59779570Y-120855000D01*
X59386413Y-120933204D01*
X59016066Y-121086607D01*
X58682763Y-121309313D01*
X58399313Y-121592763D01*
X58176607Y-121926066D01*
X58023204Y-122296413D01*
X57945000Y-122689570D01*
X51127000Y-122689570D01*
X51127000Y-99829570D01*
X57945000Y-99829570D01*
X57945000Y-100230430D01*
X58023204Y-100623587D01*
X58176607Y-100993934D01*
X58399313Y-101327237D01*
X58682763Y-101610687D01*
X59016066Y-101833393D01*
X59386413Y-101986796D01*
X59779570Y-102065000D01*
X60180430Y-102065000D01*
X60573587Y-101986796D01*
X60943934Y-101833393D01*
X61277237Y-101610687D01*
X61560687Y-101327237D01*
X61783393Y-100993934D01*
X61936796Y-100623587D01*
X62015000Y-100230430D01*
X62015000Y-99829570D01*
X61936796Y-99436413D01*
X61783393Y-99066066D01*
X61560687Y-98732763D01*
X61277237Y-98449313D01*
X60943934Y-98226607D01*
X60573587Y-98073204D01*
X60180430Y-97995000D01*
X59779570Y-97995000D01*
X59386413Y-98073204D01*
X59016066Y-98226607D01*
X58682763Y-98449313D01*
X58399313Y-98732763D01*
X58176607Y-99066066D01*
X58023204Y-99436413D01*
X57945000Y-99829570D01*
X51127000Y-99829570D01*
X51127000Y-85689570D01*
X57945000Y-85689570D01*
X57945000Y-86090430D01*
X58023204Y-86483587D01*
X58176607Y-86853934D01*
X58399313Y-87187237D01*
X58682763Y-87470687D01*
X59016066Y-87693393D01*
X59386413Y-87846796D01*
X59779570Y-87925000D01*
X60180430Y-87925000D01*
X60573587Y-87846796D01*
X60943934Y-87693393D01*
X61277237Y-87470687D01*
X61560687Y-87187237D01*
X61783393Y-86853934D01*
X61936796Y-86483587D01*
X62015000Y-86090430D01*
X62015000Y-85689570D01*
X61936796Y-85296413D01*
X61783393Y-84926066D01*
X61560687Y-84592763D01*
X61277237Y-84309313D01*
X60943934Y-84086607D01*
X60573587Y-83933204D01*
X60180430Y-83855000D01*
X59779570Y-83855000D01*
X59386413Y-83933204D01*
X59016066Y-84086607D01*
X58682763Y-84309313D01*
X58399313Y-84592763D01*
X58176607Y-84926066D01*
X58023204Y-85296413D01*
X57945000Y-85689570D01*
X51127000Y-85689570D01*
X51127000Y-71783589D01*
X57075000Y-71783589D01*
X57075000Y-72056411D01*
X57128225Y-72323989D01*
X57232629Y-72576043D01*
X57384201Y-72802886D01*
X57577114Y-72995799D01*
X57803957Y-73147371D01*
X57906873Y-73190000D01*
X57803957Y-73232629D01*
X57577114Y-73384201D01*
X57384201Y-73577114D01*
X57232629Y-73803957D01*
X57128225Y-74056011D01*
X57075000Y-74323589D01*
X57075000Y-74596411D01*
X57128225Y-74863989D01*
X57232629Y-75116043D01*
X57384201Y-75342886D01*
X57577114Y-75535799D01*
X57803957Y-75687371D01*
X57906873Y-75730000D01*
X57803957Y-75772629D01*
X57577114Y-75924201D01*
X57384201Y-76117114D01*
X57232629Y-76343957D01*
X57128225Y-76596011D01*
X57075000Y-76863589D01*
X57075000Y-77136411D01*
X57128225Y-77403989D01*
X57232629Y-77656043D01*
X57384201Y-77882886D01*
X57577114Y-78075799D01*
X57803957Y-78227371D01*
X58056011Y-78331775D01*
X58323589Y-78385000D01*
X58596411Y-78385000D01*
X58863989Y-78331775D01*
X59116043Y-78227371D01*
X59342886Y-78075799D01*
X59535799Y-77882886D01*
X59613555Y-77766517D01*
X59624188Y-77874482D01*
X59660498Y-77994180D01*
X59719463Y-78104494D01*
X59798815Y-78201185D01*
X59895506Y-78280537D01*
X60005820Y-78339502D01*
X60125518Y-78375812D01*
X60250000Y-78388072D01*
X61750000Y-78388072D01*
X61874482Y-78375812D01*
X61994180Y-78339502D01*
X62104494Y-78280537D01*
X62201185Y-78201185D01*
X62280537Y-78104494D01*
X62339502Y-77994180D01*
X62375812Y-77874482D01*
X62388072Y-77750000D01*
X62388072Y-76250000D01*
X62375812Y-76125518D01*
X62339502Y-76005820D01*
X62280537Y-75895506D01*
X62201185Y-75798815D01*
X62104494Y-75719463D01*
X61994180Y-75660498D01*
X61874482Y-75624188D01*
X61766517Y-75613555D01*
X61882886Y-75535799D01*
X62075799Y-75342886D01*
X62227371Y-75116043D01*
X62331775Y-74863989D01*
X62385000Y-74596411D01*
X62385000Y-74323589D01*
X62331775Y-74056011D01*
X62227371Y-73803957D01*
X62075799Y-73577114D01*
X61882886Y-73384201D01*
X61656043Y-73232629D01*
X61553127Y-73190000D01*
X61656043Y-73147371D01*
X61882886Y-72995799D01*
X62075799Y-72802886D01*
X62227371Y-72576043D01*
X62331775Y-72323989D01*
X62385000Y-72056411D01*
X62385000Y-71783589D01*
X62331775Y-71516011D01*
X62227371Y-71263957D01*
X62075799Y-71037114D01*
X61882886Y-70844201D01*
X61656043Y-70692629D01*
X61403989Y-70588225D01*
X61136411Y-70535000D01*
X60863589Y-70535000D01*
X60596011Y-70588225D01*
X60343957Y-70692629D01*
X60117114Y-70844201D01*
X59924201Y-71037114D01*
X59772629Y-71263957D01*
X59730000Y-71366873D01*
X59687371Y-71263957D01*
X59535799Y-71037114D01*
X59342886Y-70844201D01*
X59116043Y-70692629D01*
X58863989Y-70588225D01*
X58596411Y-70535000D01*
X58323589Y-70535000D01*
X58056011Y-70588225D01*
X57803957Y-70692629D01*
X57577114Y-70844201D01*
X57384201Y-71037114D01*
X57232629Y-71263957D01*
X57128225Y-71516011D01*
X57075000Y-71783589D01*
X51127000Y-71783589D01*
X51127000Y-62829570D01*
X57945000Y-62829570D01*
X57945000Y-63230430D01*
X58023204Y-63623587D01*
X58176607Y-63993934D01*
X58399313Y-64327237D01*
X58682763Y-64610687D01*
X59016066Y-64833393D01*
X59386413Y-64986796D01*
X59779570Y-65065000D01*
X60180430Y-65065000D01*
X60573587Y-64986796D01*
X60943934Y-64833393D01*
X61277237Y-64610687D01*
X61560687Y-64327237D01*
X61783393Y-63993934D01*
X61936796Y-63623587D01*
X62015000Y-63230430D01*
X62015000Y-62829570D01*
X61936796Y-62436413D01*
X61783393Y-62066066D01*
X61560687Y-61732763D01*
X61277237Y-61449313D01*
X60943934Y-61226607D01*
X60573587Y-61073204D01*
X60180430Y-60995000D01*
X59779570Y-60995000D01*
X59386413Y-61073204D01*
X59016066Y-61226607D01*
X58682763Y-61449313D01*
X58399313Y-61732763D01*
X58176607Y-62066066D01*
X58023204Y-62436413D01*
X57945000Y-62829570D01*
X51127000Y-62829570D01*
X51127000Y-39779570D01*
X63075000Y-39779570D01*
X63075000Y-40180430D01*
X63153204Y-40573587D01*
X63306607Y-40943934D01*
X63529313Y-41277237D01*
X63812763Y-41560687D01*
X64146066Y-41783393D01*
X64516413Y-41936796D01*
X64909570Y-42015000D01*
X65310430Y-42015000D01*
X65703587Y-41936796D01*
X66073934Y-41783393D01*
X66407237Y-41560687D01*
X66690687Y-41277237D01*
X66913393Y-40943934D01*
X67066796Y-40573587D01*
X67145000Y-40180430D01*
X67145000Y-39779570D01*
X67066796Y-39386413D01*
X66913393Y-39016066D01*
X66690687Y-38682763D01*
X66407237Y-38399313D01*
X66073934Y-38176607D01*
X65703587Y-38023204D01*
X65310430Y-37945000D01*
X64909570Y-37945000D01*
X64516413Y-38023204D01*
X64146066Y-38176607D01*
X63812763Y-38399313D01*
X63529313Y-38682763D01*
X63306607Y-39016066D01*
X63153204Y-39386413D01*
X63075000Y-39779570D01*
X51127000Y-39779570D01*
X51127000Y-29455026D01*
X51335611Y-29958657D01*
X51788136Y-30635909D01*
X52364091Y-31211864D01*
X53041343Y-31664389D01*
X53793865Y-31976094D01*
X54592738Y-32135000D01*
X55407262Y-32135000D01*
X56206135Y-31976094D01*
X56958657Y-31664389D01*
X57635909Y-31211864D01*
X57933618Y-30914155D01*
X62265450Y-30914155D01*
X62661634Y-31434550D01*
X63376612Y-31824748D01*
X64153976Y-32067964D01*
X64963853Y-32154851D01*
X65775118Y-32082069D01*
X66556597Y-31852415D01*
X67278256Y-31474715D01*
X67338366Y-31434550D01*
X67734550Y-30914155D01*
X65000000Y-28179605D01*
X62265450Y-30914155D01*
X57933618Y-30914155D01*
X58211864Y-30635909D01*
X58664389Y-29958657D01*
X58976094Y-29206135D01*
X59135000Y-28407262D01*
X59135000Y-27963853D01*
X60845149Y-27963853D01*
X60917931Y-28775118D01*
X61147585Y-29556597D01*
X61525285Y-30278256D01*
X61565450Y-30338366D01*
X62085845Y-30734550D01*
X64820395Y-28000000D01*
X65179605Y-28000000D01*
X67914155Y-30734550D01*
X68434550Y-30338366D01*
X68824748Y-29623388D01*
X69067964Y-28846024D01*
X69154851Y-28036147D01*
X69082069Y-27224882D01*
X68852415Y-26443403D01*
X68474715Y-25721744D01*
X68434550Y-25661634D01*
X67914155Y-25265450D01*
X65179605Y-28000000D01*
X64820395Y-28000000D01*
X62085845Y-25265450D01*
X61565450Y-25661634D01*
X61175252Y-26376612D01*
X60932036Y-27153976D01*
X60845149Y-27963853D01*
X59135000Y-27963853D01*
X59135000Y-27592738D01*
X58976094Y-26793865D01*
X58664389Y-26041343D01*
X58211864Y-25364091D01*
X57635909Y-24788136D01*
X56958657Y-24335611D01*
X56455026Y-24127000D01*
X63513451Y-24127000D01*
X63443403Y-24147585D01*
G37*
%TD.AperFunction*%
D25*
X93551082Y-40774463D02*
X93730013Y-41042252D01*
X93957748Y-41269987D01*
X94225537Y-41448918D01*
X94523088Y-41572168D01*
X94838967Y-41635000D01*
X95161033Y-41635000D01*
X95476912Y-41572168D01*
X95491376Y-41566177D01*
X99798199Y-45873000D01*
X88156468Y-45873000D01*
X93464363Y-40565105D01*
X93551082Y-40774463D01*
%TA.AperFunction,Conductor*%
D26*
G36*
X93551082Y-40774463D02*
G01*
X93730013Y-41042252D01*
X93957748Y-41269987D01*
X94225537Y-41448918D01*
X94523088Y-41572168D01*
X94838967Y-41635000D01*
X95161033Y-41635000D01*
X95476912Y-41572168D01*
X95491376Y-41566177D01*
X99798199Y-45873000D01*
X88156468Y-45873000D01*
X93464363Y-40565105D01*
X93551082Y-40774463D01*
G37*
%TD.AperFunction*%
D25*
X253041343Y-24335611D02*
X252364091Y-24788136D01*
X251788136Y-25364091D01*
X251335611Y-26041343D01*
X251023906Y-26793865D01*
X250865000Y-27592738D01*
X250865000Y-28407262D01*
X251023906Y-29206135D01*
X251335611Y-29958657D01*
X251788136Y-30635909D01*
X252364091Y-31211864D01*
X253041343Y-31664389D01*
X253793865Y-31976094D01*
X254592738Y-32135000D01*
X255407262Y-32135000D01*
X256206135Y-31976094D01*
X256958657Y-31664389D01*
X257635909Y-31211864D01*
X258211864Y-30635909D01*
X258278243Y-30536565D01*
X257878735Y-34931158D01*
X247835000Y-42235692D01*
X247835000Y-32666031D01*
X247839040Y-32625028D01*
X247835000Y-32583997D01*
X247835000Y-32583981D01*
X247829164Y-32524723D01*
X247822923Y-32461340D01*
X247822920Y-32461330D01*
X247822918Y-32461311D01*
X247795486Y-32370878D01*
X247775183Y-32303940D01*
X247775177Y-32303928D01*
X247775172Y-32303913D01*
X247734890Y-32228551D01*
X247697652Y-32158878D01*
X247697643Y-32158867D01*
X247697636Y-32158854D01*
X247648384Y-32098840D01*
X247619458Y-32063591D01*
X247619446Y-32063579D01*
X247593291Y-32031709D01*
X247561444Y-32005573D01*
X247115495Y-31559594D01*
X247635909Y-31211864D01*
X248211864Y-30635909D01*
X248664389Y-29958657D01*
X248976094Y-29206135D01*
X249135000Y-28407262D01*
X249135000Y-27592738D01*
X248976094Y-26793865D01*
X248664389Y-26041343D01*
X248211864Y-25364091D01*
X247635909Y-24788136D01*
X246958657Y-24335611D01*
X246455026Y-24127000D01*
X253544974Y-24127000D01*
X253041343Y-24335611D01*
%TA.AperFunction,Conductor*%
D26*
G36*
X253041343Y-24335611D02*
G01*
X252364091Y-24788136D01*
X251788136Y-25364091D01*
X251335611Y-26041343D01*
X251023906Y-26793865D01*
X250865000Y-27592738D01*
X250865000Y-28407262D01*
X251023906Y-29206135D01*
X251335611Y-29958657D01*
X251788136Y-30635909D01*
X252364091Y-31211864D01*
X253041343Y-31664389D01*
X253793865Y-31976094D01*
X254592738Y-32135000D01*
X255407262Y-32135000D01*
X256206135Y-31976094D01*
X256958657Y-31664389D01*
X257635909Y-31211864D01*
X258211864Y-30635909D01*
X258278243Y-30536565D01*
X257878735Y-34931158D01*
X247835000Y-42235692D01*
X247835000Y-32666031D01*
X247839040Y-32625028D01*
X247835000Y-32583997D01*
X247835000Y-32583981D01*
X247829164Y-32524723D01*
X247822923Y-32461340D01*
X247822920Y-32461330D01*
X247822918Y-32461311D01*
X247795486Y-32370878D01*
X247775183Y-32303940D01*
X247775177Y-32303928D01*
X247775172Y-32303913D01*
X247734890Y-32228551D01*
X247697652Y-32158878D01*
X247697643Y-32158867D01*
X247697636Y-32158854D01*
X247648384Y-32098840D01*
X247619458Y-32063591D01*
X247619446Y-32063579D01*
X247593291Y-32031709D01*
X247561444Y-32005573D01*
X247115495Y-31559594D01*
X247635909Y-31211864D01*
X248211864Y-30635909D01*
X248664389Y-29958657D01*
X248976094Y-29206135D01*
X249135000Y-28407262D01*
X249135000Y-27592738D01*
X248976094Y-26793865D01*
X248664389Y-26041343D01*
X248211864Y-25364091D01*
X247635909Y-24788136D01*
X246958657Y-24335611D01*
X246455026Y-24127000D01*
X253544974Y-24127000D01*
X253041343Y-24335611D01*
G37*
%TD.AperFunction*%
D25*
X146560999Y-41873000D02*
X144380000Y-41873000D01*
X144380000Y-39692001D01*
X146560999Y-41873000D01*
%TA.AperFunction,Conductor*%
D26*
G36*
X146560999Y-41873000D02*
G01*
X144380000Y-41873000D01*
X144380000Y-39692001D01*
X146560999Y-41873000D01*
G37*
%TD.AperFunction*%
%TD*%
M02*
