%TF.GenerationSoftware,KiCad,Pcbnew,(5.1.10)-1*%
%TF.CreationDate,2021-10-27T21:26:06+02:00*%
%TF.ProjectId,General Purpose RF,47656e65-7261-46c2-9050-7572706f7365,rev1.0*%
%TF.SameCoordinates,Original*%
%TF.FileFunction,Soldermask,Bot*%
%TF.FilePolarity,Negative*%
%FSLAX46Y46*%
G04 Gerber Fmt 4.6, Leading zero omitted, Abs format (unit mm)*
G04 Created by KiCad (PCBNEW (5.1.10)-1) date 2021-10-27 21:26:06*
%MOMM*%
%LPD*%
G01*
G04 APERTURE LIST*
%ADD10C,2.000000*%
%ADD11R,2.000000X2.000000*%
%ADD12C,1.650000*%
%ADD13R,1.650000X1.650000*%
%ADD14C,1.500000*%
%ADD15R,1.500000X1.500000*%
%ADD16O,1.600000X1.600000*%
%ADD17R,1.600000X1.600000*%
%ADD18C,0.800000*%
%ADD19C,7.000000*%
%ADD20C,1.600000*%
%ADD21C,1.200000*%
%ADD22O,1.700000X2.000000*%
G04 APERTURE END LIST*
D10*
%TO.C,C_BOARD1*%
X122000000Y-42000000D03*
D11*
X117000000Y-42000000D03*
%TD*%
D10*
%TO.C,~R2OE7*%
X214000000Y-37000000D03*
%TD*%
%TO.C,~R1OE7*%
X175000000Y-37000000D03*
%TD*%
D12*
%TO.C,Write1*%
X153780000Y-34460000D03*
X153780000Y-37000000D03*
X151240000Y-34460000D03*
X151240000Y-37000000D03*
X148700000Y-34460000D03*
X148700000Y-37000000D03*
X146160000Y-34460000D03*
X146160000Y-37000000D03*
X143620000Y-34460000D03*
X143620000Y-37000000D03*
X141080000Y-34460000D03*
X141080000Y-37000000D03*
X138540000Y-34460000D03*
X138540000Y-37000000D03*
X136000000Y-34460000D03*
D13*
X136000000Y-37000000D03*
%TD*%
D14*
%TO.C,W1*%
X79080000Y-38460000D03*
X76540000Y-38460000D03*
X74000000Y-38460000D03*
X79080000Y-41000000D03*
X76540000Y-41000000D03*
D15*
X74000000Y-41000000D03*
%TD*%
D12*
%TO.C,Read2*%
X239780000Y-36460000D03*
X239780000Y-39000000D03*
X237240000Y-36460000D03*
X237240000Y-39000000D03*
X234700000Y-36460000D03*
X234700000Y-39000000D03*
X232160000Y-36460000D03*
X232160000Y-39000000D03*
X229620000Y-36460000D03*
X229620000Y-39000000D03*
X227080000Y-36460000D03*
X227080000Y-39000000D03*
X224540000Y-36460000D03*
X224540000Y-39000000D03*
X222000000Y-36460000D03*
D13*
X222000000Y-39000000D03*
%TD*%
D12*
%TO.C,Read1*%
X203780000Y-36460000D03*
X203780000Y-39000000D03*
X201240000Y-36460000D03*
X201240000Y-39000000D03*
X198700000Y-36460000D03*
X198700000Y-39000000D03*
X196160000Y-36460000D03*
X196160000Y-39000000D03*
X193620000Y-36460000D03*
X193620000Y-39000000D03*
X191080000Y-36460000D03*
X191080000Y-39000000D03*
X188540000Y-36460000D03*
X188540000Y-39000000D03*
X186000000Y-36460000D03*
D13*
X186000000Y-39000000D03*
%TD*%
D14*
%TO.C,Read 2 ID*%
X58460000Y-71920000D03*
X58460000Y-74460000D03*
X58460000Y-77000000D03*
X61000000Y-71920000D03*
X61000000Y-74460000D03*
D15*
X61000000Y-77000000D03*
%TD*%
D16*
%TO.C,Latch8B6*%
X254620000Y-59000000D03*
X247000000Y-81860000D03*
X254620000Y-61540000D03*
X247000000Y-79320000D03*
X254620000Y-64080000D03*
X247000000Y-76780000D03*
X254620000Y-66620000D03*
X247000000Y-74240000D03*
X254620000Y-69160000D03*
X247000000Y-71700000D03*
X254620000Y-71700000D03*
X247000000Y-69160000D03*
X254620000Y-74240000D03*
X247000000Y-66620000D03*
X254620000Y-76780000D03*
X247000000Y-64080000D03*
X254620000Y-79320000D03*
X247000000Y-61540000D03*
X254620000Y-81860000D03*
D17*
X247000000Y-59000000D03*
%TD*%
D16*
%TO.C,Latch8B5*%
X234620000Y-59000000D03*
X227000000Y-81860000D03*
X234620000Y-61540000D03*
X227000000Y-79320000D03*
X234620000Y-64080000D03*
X227000000Y-76780000D03*
X234620000Y-66620000D03*
X227000000Y-74240000D03*
X234620000Y-69160000D03*
X227000000Y-71700000D03*
X234620000Y-71700000D03*
X227000000Y-69160000D03*
X234620000Y-74240000D03*
X227000000Y-66620000D03*
X234620000Y-76780000D03*
X227000000Y-64080000D03*
X234620000Y-79320000D03*
X227000000Y-61540000D03*
X234620000Y-81860000D03*
D17*
X227000000Y-59000000D03*
%TD*%
D16*
%TO.C,Latch8B4*%
X214620000Y-59000000D03*
X207000000Y-81860000D03*
X214620000Y-61540000D03*
X207000000Y-79320000D03*
X214620000Y-64080000D03*
X207000000Y-76780000D03*
X214620000Y-66620000D03*
X207000000Y-74240000D03*
X214620000Y-69160000D03*
X207000000Y-71700000D03*
X214620000Y-71700000D03*
X207000000Y-69160000D03*
X214620000Y-74240000D03*
X207000000Y-66620000D03*
X214620000Y-76780000D03*
X207000000Y-64080000D03*
X214620000Y-79320000D03*
X207000000Y-61540000D03*
X214620000Y-81860000D03*
D17*
X207000000Y-59000000D03*
%TD*%
D16*
%TO.C,Latch8B3*%
X194620000Y-59000000D03*
X187000000Y-81860000D03*
X194620000Y-61540000D03*
X187000000Y-79320000D03*
X194620000Y-64080000D03*
X187000000Y-76780000D03*
X194620000Y-66620000D03*
X187000000Y-74240000D03*
X194620000Y-69160000D03*
X187000000Y-71700000D03*
X194620000Y-71700000D03*
X187000000Y-69160000D03*
X194620000Y-74240000D03*
X187000000Y-66620000D03*
X194620000Y-76780000D03*
X187000000Y-64080000D03*
X194620000Y-79320000D03*
X187000000Y-61540000D03*
X194620000Y-81860000D03*
D17*
X187000000Y-59000000D03*
%TD*%
D16*
%TO.C,Latch8B2*%
X174620000Y-59000000D03*
X167000000Y-81860000D03*
X174620000Y-61540000D03*
X167000000Y-79320000D03*
X174620000Y-64080000D03*
X167000000Y-76780000D03*
X174620000Y-66620000D03*
X167000000Y-74240000D03*
X174620000Y-69160000D03*
X167000000Y-71700000D03*
X174620000Y-71700000D03*
X167000000Y-69160000D03*
X174620000Y-74240000D03*
X167000000Y-66620000D03*
X174620000Y-76780000D03*
X167000000Y-64080000D03*
X174620000Y-79320000D03*
X167000000Y-61540000D03*
X174620000Y-81860000D03*
D17*
X167000000Y-59000000D03*
%TD*%
D16*
%TO.C,Latch8B1*%
X154620000Y-59000000D03*
X147000000Y-81860000D03*
X154620000Y-61540000D03*
X147000000Y-79320000D03*
X154620000Y-64080000D03*
X147000000Y-76780000D03*
X154620000Y-66620000D03*
X147000000Y-74240000D03*
X154620000Y-69160000D03*
X147000000Y-71700000D03*
X154620000Y-71700000D03*
X147000000Y-69160000D03*
X154620000Y-74240000D03*
X147000000Y-66620000D03*
X154620000Y-76780000D03*
X147000000Y-64080000D03*
X154620000Y-79320000D03*
X147000000Y-61540000D03*
X154620000Y-81860000D03*
D17*
X147000000Y-59000000D03*
%TD*%
D16*
%TO.C,Latch8B0*%
X133620000Y-59000000D03*
X126000000Y-81860000D03*
X133620000Y-61540000D03*
X126000000Y-79320000D03*
X133620000Y-64080000D03*
X126000000Y-76780000D03*
X133620000Y-66620000D03*
X126000000Y-74240000D03*
X133620000Y-69160000D03*
X126000000Y-71700000D03*
X133620000Y-71700000D03*
X126000000Y-69160000D03*
X133620000Y-74240000D03*
X126000000Y-66620000D03*
X133620000Y-76780000D03*
X126000000Y-64080000D03*
X133620000Y-79320000D03*
X126000000Y-61540000D03*
X133620000Y-81860000D03*
D17*
X126000000Y-59000000D03*
%TD*%
D16*
%TO.C,Latch8A6*%
X248380000Y-123000000D03*
X256000000Y-100140000D03*
X248380000Y-120460000D03*
X256000000Y-102680000D03*
X248380000Y-117920000D03*
X256000000Y-105220000D03*
X248380000Y-115380000D03*
X256000000Y-107760000D03*
X248380000Y-112840000D03*
X256000000Y-110300000D03*
X248380000Y-110300000D03*
X256000000Y-112840000D03*
X248380000Y-107760000D03*
X256000000Y-115380000D03*
X248380000Y-105220000D03*
X256000000Y-117920000D03*
X248380000Y-102680000D03*
X256000000Y-120460000D03*
X248380000Y-100140000D03*
D17*
X256000000Y-123000000D03*
%TD*%
D16*
%TO.C,Latch8A5*%
X236620000Y-100000000D03*
X229000000Y-122860000D03*
X236620000Y-102540000D03*
X229000000Y-120320000D03*
X236620000Y-105080000D03*
X229000000Y-117780000D03*
X236620000Y-107620000D03*
X229000000Y-115240000D03*
X236620000Y-110160000D03*
X229000000Y-112700000D03*
X236620000Y-112700000D03*
X229000000Y-110160000D03*
X236620000Y-115240000D03*
X229000000Y-107620000D03*
X236620000Y-117780000D03*
X229000000Y-105080000D03*
X236620000Y-120320000D03*
X229000000Y-102540000D03*
X236620000Y-122860000D03*
D17*
X229000000Y-100000000D03*
%TD*%
D16*
%TO.C,Latch8A4*%
X214620000Y-99000000D03*
X207000000Y-121860000D03*
X214620000Y-101540000D03*
X207000000Y-119320000D03*
X214620000Y-104080000D03*
X207000000Y-116780000D03*
X214620000Y-106620000D03*
X207000000Y-114240000D03*
X214620000Y-109160000D03*
X207000000Y-111700000D03*
X214620000Y-111700000D03*
X207000000Y-109160000D03*
X214620000Y-114240000D03*
X207000000Y-106620000D03*
X214620000Y-116780000D03*
X207000000Y-104080000D03*
X214620000Y-119320000D03*
X207000000Y-101540000D03*
X214620000Y-121860000D03*
D17*
X207000000Y-99000000D03*
%TD*%
D16*
%TO.C,Latch8A3*%
X194620000Y-99000000D03*
X187000000Y-121860000D03*
X194620000Y-101540000D03*
X187000000Y-119320000D03*
X194620000Y-104080000D03*
X187000000Y-116780000D03*
X194620000Y-106620000D03*
X187000000Y-114240000D03*
X194620000Y-109160000D03*
X187000000Y-111700000D03*
X194620000Y-111700000D03*
X187000000Y-109160000D03*
X194620000Y-114240000D03*
X187000000Y-106620000D03*
X194620000Y-116780000D03*
X187000000Y-104080000D03*
X194620000Y-119320000D03*
X187000000Y-101540000D03*
X194620000Y-121860000D03*
D17*
X187000000Y-99000000D03*
%TD*%
D16*
%TO.C,Latch8A2*%
X174620000Y-99000000D03*
X167000000Y-121860000D03*
X174620000Y-101540000D03*
X167000000Y-119320000D03*
X174620000Y-104080000D03*
X167000000Y-116780000D03*
X174620000Y-106620000D03*
X167000000Y-114240000D03*
X174620000Y-109160000D03*
X167000000Y-111700000D03*
X174620000Y-111700000D03*
X167000000Y-109160000D03*
X174620000Y-114240000D03*
X167000000Y-106620000D03*
X174620000Y-116780000D03*
X167000000Y-104080000D03*
X174620000Y-119320000D03*
X167000000Y-101540000D03*
X174620000Y-121860000D03*
D17*
X167000000Y-99000000D03*
%TD*%
D16*
%TO.C,Latch8A1*%
X153620000Y-99000000D03*
X146000000Y-121860000D03*
X153620000Y-101540000D03*
X146000000Y-119320000D03*
X153620000Y-104080000D03*
X146000000Y-116780000D03*
X153620000Y-106620000D03*
X146000000Y-114240000D03*
X153620000Y-109160000D03*
X146000000Y-111700000D03*
X153620000Y-111700000D03*
X146000000Y-109160000D03*
X153620000Y-114240000D03*
X146000000Y-106620000D03*
X153620000Y-116780000D03*
X146000000Y-104080000D03*
X153620000Y-119320000D03*
X146000000Y-101540000D03*
X153620000Y-121860000D03*
D17*
X146000000Y-99000000D03*
%TD*%
D16*
%TO.C,Latch8A0*%
X133620000Y-99000000D03*
X126000000Y-121860000D03*
X133620000Y-101540000D03*
X126000000Y-119320000D03*
X133620000Y-104080000D03*
X126000000Y-116780000D03*
X133620000Y-106620000D03*
X126000000Y-114240000D03*
X133620000Y-109160000D03*
X126000000Y-111700000D03*
X133620000Y-111700000D03*
X126000000Y-109160000D03*
X133620000Y-114240000D03*
X126000000Y-106620000D03*
X133620000Y-116780000D03*
X126000000Y-104080000D03*
X133620000Y-119320000D03*
X126000000Y-101540000D03*
X133620000Y-121860000D03*
D17*
X126000000Y-99000000D03*
%TD*%
D14*
%TO.C,Read 1 ID*%
X58460000Y-108920000D03*
X58460000Y-111460000D03*
X58460000Y-114000000D03*
X61000000Y-108920000D03*
X61000000Y-111460000D03*
D15*
X61000000Y-114000000D03*
%TD*%
D16*
%TO.C,INV2*%
X98000000Y-82380000D03*
X113240000Y-90000000D03*
X100540000Y-82380000D03*
X110700000Y-90000000D03*
X103080000Y-82380000D03*
X108160000Y-90000000D03*
X105620000Y-82380000D03*
X105620000Y-90000000D03*
X108160000Y-82380000D03*
X103080000Y-90000000D03*
X110700000Y-82380000D03*
X100540000Y-90000000D03*
X113240000Y-82380000D03*
D17*
X98000000Y-90000000D03*
%TD*%
D16*
%TO.C,INV1*%
X98000000Y-64380000D03*
X113240000Y-72000000D03*
X100540000Y-64380000D03*
X110700000Y-72000000D03*
X103080000Y-64380000D03*
X108160000Y-72000000D03*
X105620000Y-64380000D03*
X105620000Y-72000000D03*
X108160000Y-64380000D03*
X103080000Y-72000000D03*
X110700000Y-64380000D03*
X100540000Y-72000000D03*
X113240000Y-64380000D03*
D17*
X98000000Y-72000000D03*
%TD*%
D18*
%TO.C,H8*%
X246856155Y-26143845D03*
X245000000Y-25375000D03*
X243143845Y-26143845D03*
X242375000Y-28000000D03*
X243143845Y-29856155D03*
X245000000Y-30625000D03*
X246856155Y-29856155D03*
X247625000Y-28000000D03*
D19*
X245000000Y-28000000D03*
%TD*%
D18*
%TO.C,H7*%
X66856155Y-133143845D03*
X65000000Y-132375000D03*
X63143845Y-133143845D03*
X62375000Y-135000000D03*
X63143845Y-136856155D03*
X65000000Y-137625000D03*
X66856155Y-136856155D03*
X67625000Y-135000000D03*
D19*
X65000000Y-135000000D03*
%TD*%
D18*
%TO.C,H6*%
X66856155Y-26143845D03*
X65000000Y-25375000D03*
X63143845Y-26143845D03*
X62375000Y-28000000D03*
X63143845Y-29856155D03*
X65000000Y-30625000D03*
X66856155Y-29856155D03*
X67625000Y-28000000D03*
D19*
X65000000Y-28000000D03*
%TD*%
D18*
%TO.C,H5*%
X56856155Y-26143845D03*
X55000000Y-25375000D03*
X53143845Y-26143845D03*
X52375000Y-28000000D03*
X53143845Y-29856155D03*
X55000000Y-30625000D03*
X56856155Y-29856155D03*
X57625000Y-28000000D03*
D19*
X55000000Y-28000000D03*
%TD*%
D18*
%TO.C,H4*%
X56856155Y-133143845D03*
X55000000Y-132375000D03*
X53143845Y-133143845D03*
X52375000Y-135000000D03*
X53143845Y-136856155D03*
X55000000Y-137625000D03*
X56856155Y-136856155D03*
X57625000Y-135000000D03*
D19*
X55000000Y-135000000D03*
%TD*%
D18*
%TO.C,H3*%
X246856155Y-133143845D03*
X245000000Y-132375000D03*
X243143845Y-133143845D03*
X242375000Y-135000000D03*
X243143845Y-136856155D03*
X245000000Y-137625000D03*
X246856155Y-136856155D03*
X247625000Y-135000000D03*
D19*
X245000000Y-135000000D03*
%TD*%
D18*
%TO.C,H2*%
X256856155Y-26143845D03*
X255000000Y-25375000D03*
X253143845Y-26143845D03*
X252375000Y-28000000D03*
X253143845Y-29856155D03*
X255000000Y-30625000D03*
X256856155Y-29856155D03*
X257625000Y-28000000D03*
D19*
X255000000Y-28000000D03*
%TD*%
D18*
%TO.C,H1*%
X256856155Y-133143845D03*
X255000000Y-132375000D03*
X253143845Y-133143845D03*
X252375000Y-135000000D03*
X253143845Y-136856155D03*
X255000000Y-137625000D03*
X256856155Y-136856155D03*
X257625000Y-135000000D03*
D19*
X255000000Y-135000000D03*
%TD*%
D16*
%TO.C,DECRead2*%
X107620000Y-101000000D03*
X100000000Y-123860000D03*
X107620000Y-103540000D03*
X100000000Y-121320000D03*
X107620000Y-106080000D03*
X100000000Y-118780000D03*
X107620000Y-108620000D03*
X100000000Y-116240000D03*
X107620000Y-111160000D03*
X100000000Y-113700000D03*
X107620000Y-113700000D03*
X100000000Y-111160000D03*
X107620000Y-116240000D03*
X100000000Y-108620000D03*
X107620000Y-118780000D03*
X100000000Y-106080000D03*
X107620000Y-121320000D03*
X100000000Y-103540000D03*
X107620000Y-123860000D03*
D17*
X100000000Y-101000000D03*
%TD*%
D16*
%TO.C,DECRead1*%
X81620000Y-100000000D03*
X74000000Y-122860000D03*
X81620000Y-102540000D03*
X74000000Y-120320000D03*
X81620000Y-105080000D03*
X74000000Y-117780000D03*
X81620000Y-107620000D03*
X74000000Y-115240000D03*
X81620000Y-110160000D03*
X74000000Y-112700000D03*
X81620000Y-112700000D03*
X74000000Y-110160000D03*
X81620000Y-115240000D03*
X74000000Y-107620000D03*
X81620000Y-117780000D03*
X74000000Y-105080000D03*
X81620000Y-120320000D03*
X74000000Y-102540000D03*
X81620000Y-122860000D03*
D17*
X74000000Y-100000000D03*
%TD*%
D16*
%TO.C,DECWrite1*%
X80620000Y-64000000D03*
X73000000Y-86860000D03*
X80620000Y-66540000D03*
X73000000Y-84320000D03*
X80620000Y-69080000D03*
X73000000Y-81780000D03*
X80620000Y-71620000D03*
X73000000Y-79240000D03*
X80620000Y-74160000D03*
X73000000Y-76700000D03*
X80620000Y-76700000D03*
X73000000Y-74160000D03*
X80620000Y-79240000D03*
X73000000Y-71620000D03*
X80620000Y-81780000D03*
X73000000Y-69080000D03*
X80620000Y-84320000D03*
X73000000Y-66540000D03*
X80620000Y-86860000D03*
D17*
X73000000Y-64000000D03*
%TD*%
D16*
%TO.C,CB6*%
X254500000Y-55000000D03*
D20*
X247000000Y-55000000D03*
%TD*%
D16*
%TO.C,CB5*%
X234500000Y-55000000D03*
D20*
X227000000Y-55000000D03*
%TD*%
D16*
%TO.C,CB4*%
X214500000Y-55000000D03*
D20*
X207000000Y-55000000D03*
%TD*%
D16*
%TO.C,CB3*%
X194500000Y-55000000D03*
D20*
X187000000Y-55000000D03*
%TD*%
D16*
%TO.C,CB2*%
X174500000Y-55000000D03*
D20*
X167000000Y-55000000D03*
%TD*%
D16*
%TO.C,CB1*%
X154500000Y-55000000D03*
D20*
X147000000Y-55000000D03*
%TD*%
D16*
%TO.C,CB0*%
X133500000Y-55000000D03*
D20*
X126000000Y-55000000D03*
%TD*%
D16*
%TO.C,CA11*%
X94000000Y-82500000D03*
D20*
X94000000Y-90000000D03*
%TD*%
D16*
%TO.C,CA10*%
X94000000Y-64500000D03*
D20*
X94000000Y-72000000D03*
%TD*%
D16*
%TO.C,CA9*%
X107500000Y-128000000D03*
D20*
X100000000Y-128000000D03*
%TD*%
D16*
%TO.C,CA8*%
X81500000Y-127000000D03*
D20*
X74000000Y-127000000D03*
%TD*%
D16*
%TO.C,CA7*%
X80500000Y-60000000D03*
D20*
X73000000Y-60000000D03*
%TD*%
D16*
%TO.C,CA6*%
X248500000Y-127000000D03*
D20*
X256000000Y-127000000D03*
%TD*%
D16*
%TO.C,CA5*%
X236500000Y-127000000D03*
D20*
X229000000Y-127000000D03*
%TD*%
D16*
%TO.C,CA4*%
X214500000Y-126000000D03*
D20*
X207000000Y-126000000D03*
%TD*%
D16*
%TO.C,CA3*%
X187000000Y-126000000D03*
D20*
X194500000Y-126000000D03*
%TD*%
D16*
%TO.C,CA2*%
X174500000Y-126000000D03*
D20*
X167000000Y-126000000D03*
%TD*%
D16*
%TO.C,CA1*%
X153500000Y-126000000D03*
D20*
X146000000Y-126000000D03*
%TD*%
D16*
%TO.C,CA0*%
X133500000Y-126000000D03*
D20*
X126000000Y-126000000D03*
%TD*%
D10*
%TO.C,7WE1*%
X95000000Y-40000000D03*
%TD*%
D21*
%TO.C,5V/GND1*%
X102400000Y-41000000D03*
D22*
X106500000Y-39000000D03*
G36*
G01*
X103150000Y-39750000D02*
X103150000Y-38250000D01*
G75*
G02*
X103400000Y-38000000I250000J0D01*
G01*
X104600000Y-38000000D01*
G75*
G02*
X104850000Y-38250000I0J-250000D01*
G01*
X104850000Y-39750000D01*
G75*
G02*
X104600000Y-40000000I-250000J0D01*
G01*
X103400000Y-40000000D01*
G75*
G02*
X103150000Y-39750000I0J250000D01*
G01*
G37*
%TD*%
M02*
