%TF.GenerationSoftware,KiCad,Pcbnew,(5.1.10)-1*%
%TF.CreationDate,2021-10-27T21:26:05+02:00*%
%TF.ProjectId,General Purpose RF,47656e65-7261-46c2-9050-7572706f7365,rev1.0*%
%TF.SameCoordinates,Original*%
%TF.FileFunction,Legend,Bot*%
%TF.FilePolarity,Positive*%
%FSLAX46Y46*%
G04 Gerber Fmt 4.6, Leading zero omitted, Abs format (unit mm)*
G04 Created by KiCad (PCBNEW (5.1.10)-1) date 2021-10-27 21:26:05*
%MOMM*%
%LPD*%
G01*
G04 APERTURE LIST*
%ADD10C,0.500000*%
%ADD11C,0.300000*%
%ADD12C,1.000000*%
G04 APERTURE END LIST*
D10*
X227904761Y-122904761D02*
X227904761Y-121571428D01*
X227904761Y-121952380D02*
X227809523Y-121761904D01*
X227714285Y-121666666D01*
X227523809Y-121571428D01*
X227333333Y-121571428D01*
X225904761Y-122809523D02*
X226095238Y-122904761D01*
X226476190Y-122904761D01*
X226666666Y-122809523D01*
X226761904Y-122619047D01*
X226761904Y-121857142D01*
X226666666Y-121666666D01*
X226476190Y-121571428D01*
X226095238Y-121571428D01*
X225904761Y-121666666D01*
X225809523Y-121857142D01*
X225809523Y-122047619D01*
X226761904Y-122238095D01*
X225142857Y-121571428D02*
X224666666Y-122904761D01*
X224190476Y-121571428D01*
X220857142Y-122904761D02*
X222000000Y-122904761D01*
X221428571Y-122904761D02*
X221428571Y-120904761D01*
X221619047Y-121190476D01*
X221809523Y-121380952D01*
X222000000Y-121476190D01*
X220000000Y-122714285D02*
X219904761Y-122809523D01*
X220000000Y-122904761D01*
X220095238Y-122809523D01*
X220000000Y-122714285D01*
X220000000Y-122904761D01*
X218666666Y-120904761D02*
X218476190Y-120904761D01*
X218285714Y-121000000D01*
X218190476Y-121095238D01*
X218095238Y-121285714D01*
X218000000Y-121666666D01*
X218000000Y-122142857D01*
X218095238Y-122523809D01*
X218190476Y-122714285D01*
X218285714Y-122809523D01*
X218476190Y-122904761D01*
X218666666Y-122904761D01*
X218857142Y-122809523D01*
X218952380Y-122714285D01*
X219047619Y-122523809D01*
X219142857Y-122142857D01*
X219142857Y-121666666D01*
X219047619Y-121285714D01*
X218952380Y-121095238D01*
X218857142Y-121000000D01*
X218666666Y-120904761D01*
D11*
X230214285Y-135071428D02*
X230357142Y-135214285D01*
X230785714Y-135357142D01*
X231071428Y-135357142D01*
X231500000Y-135214285D01*
X231785714Y-134928571D01*
X231928571Y-134642857D01*
X232071428Y-134071428D01*
X232071428Y-133642857D01*
X231928571Y-133071428D01*
X231785714Y-132785714D01*
X231500000Y-132500000D01*
X231071428Y-132357142D01*
X230785714Y-132357142D01*
X230357142Y-132500000D01*
X230214285Y-132642857D01*
X228928571Y-135357142D02*
X228928571Y-133357142D01*
X228928571Y-133928571D02*
X228785714Y-133642857D01*
X228642857Y-133500000D01*
X228357142Y-133357142D01*
X228071428Y-133357142D01*
X225928571Y-135214285D02*
X226214285Y-135357142D01*
X226785714Y-135357142D01*
X227071428Y-135214285D01*
X227214285Y-134928571D01*
X227214285Y-133785714D01*
X227071428Y-133500000D01*
X226785714Y-133357142D01*
X226214285Y-133357142D01*
X225928571Y-133500000D01*
X225785714Y-133785714D01*
X225785714Y-134071428D01*
X227214285Y-134357142D01*
X223214285Y-135357142D02*
X223214285Y-133785714D01*
X223357142Y-133500000D01*
X223642857Y-133357142D01*
X224214285Y-133357142D01*
X224500000Y-133500000D01*
X223214285Y-135214285D02*
X223500000Y-135357142D01*
X224214285Y-135357142D01*
X224500000Y-135214285D01*
X224642857Y-134928571D01*
X224642857Y-134642857D01*
X224500000Y-134357142D01*
X224214285Y-134214285D01*
X223500000Y-134214285D01*
X223214285Y-134071428D01*
X222214285Y-133357142D02*
X221071428Y-133357142D01*
X221785714Y-132357142D02*
X221785714Y-134928571D01*
X221642857Y-135214285D01*
X221357142Y-135357142D01*
X221071428Y-135357142D01*
X219642857Y-135357142D02*
X219928571Y-135214285D01*
X220071428Y-135071428D01*
X220214285Y-134785714D01*
X220214285Y-133928571D01*
X220071428Y-133642857D01*
X219928571Y-133500000D01*
X219642857Y-133357142D01*
X219214285Y-133357142D01*
X218928571Y-133500000D01*
X218785714Y-133642857D01*
X218642857Y-133928571D01*
X218642857Y-134785714D01*
X218785714Y-135071428D01*
X218928571Y-135214285D01*
X219214285Y-135357142D01*
X219642857Y-135357142D01*
X217357142Y-135357142D02*
X217357142Y-133357142D01*
X217357142Y-133928571D02*
X217214285Y-133642857D01*
X217071428Y-133500000D01*
X216785714Y-133357142D01*
X216500000Y-133357142D01*
X215500000Y-135071428D02*
X215357142Y-135214285D01*
X215500000Y-135357142D01*
X215642857Y-135214285D01*
X215500000Y-135071428D01*
X215500000Y-135357142D01*
X215500000Y-133500000D02*
X215357142Y-133642857D01*
X215500000Y-133785714D01*
X215642857Y-133642857D01*
X215500000Y-133500000D01*
X215500000Y-133785714D01*
X210357142Y-135357142D02*
X211785714Y-135357142D01*
X211785714Y-132357142D01*
X208071428Y-133357142D02*
X208071428Y-135357142D01*
X209357142Y-133357142D02*
X209357142Y-134928571D01*
X209214285Y-135214285D01*
X208928571Y-135357142D01*
X208500000Y-135357142D01*
X208214285Y-135214285D01*
X208071428Y-135071428D01*
X205357142Y-135214285D02*
X205642857Y-135357142D01*
X206214285Y-135357142D01*
X206500000Y-135214285D01*
X206642857Y-135071428D01*
X206785714Y-134785714D01*
X206785714Y-133928571D01*
X206642857Y-133642857D01*
X206500000Y-133500000D01*
X206214285Y-133357142D01*
X205642857Y-133357142D01*
X205357142Y-133500000D01*
X200785714Y-133785714D02*
X200357142Y-133928571D01*
X200214285Y-134071428D01*
X200071428Y-134357142D01*
X200071428Y-134785714D01*
X200214285Y-135071428D01*
X200357142Y-135214285D01*
X200642857Y-135357142D01*
X201785714Y-135357142D01*
X201785714Y-132357142D01*
X200785714Y-132357142D01*
X200500000Y-132500000D01*
X200357142Y-132642857D01*
X200214285Y-132928571D01*
X200214285Y-133214285D01*
X200357142Y-133500000D01*
X200500000Y-133642857D01*
X200785714Y-133785714D01*
X201785714Y-133785714D01*
X198357142Y-135357142D02*
X198642857Y-135214285D01*
X198785714Y-135071428D01*
X198928571Y-134785714D01*
X198928571Y-133928571D01*
X198785714Y-133642857D01*
X198642857Y-133500000D01*
X198357142Y-133357142D01*
X197928571Y-133357142D01*
X197642857Y-133500000D01*
X197500000Y-133642857D01*
X197357142Y-133928571D01*
X197357142Y-134785714D01*
X197500000Y-135071428D01*
X197642857Y-135214285D01*
X197928571Y-135357142D01*
X198357142Y-135357142D01*
X194785714Y-133357142D02*
X194785714Y-135357142D01*
X196071428Y-133357142D02*
X196071428Y-134928571D01*
X195928571Y-135214285D01*
X195642857Y-135357142D01*
X195214285Y-135357142D01*
X194928571Y-135214285D01*
X194785714Y-135071428D01*
X192928571Y-135357142D02*
X193214285Y-135214285D01*
X193357142Y-134928571D01*
X193357142Y-132357142D01*
X190642857Y-135214285D02*
X190928571Y-135357142D01*
X191500000Y-135357142D01*
X191785714Y-135214285D01*
X191928571Y-134928571D01*
X191928571Y-133785714D01*
X191785714Y-133500000D01*
X191500000Y-133357142D01*
X190928571Y-133357142D01*
X190642857Y-133500000D01*
X190500000Y-133785714D01*
X190500000Y-134071428D01*
X191928571Y-134357142D01*
X189357142Y-135214285D02*
X189071428Y-135357142D01*
X188500000Y-135357142D01*
X188214285Y-135214285D01*
X188071428Y-134928571D01*
X188071428Y-134785714D01*
X188214285Y-134500000D01*
X188500000Y-134357142D01*
X188928571Y-134357142D01*
X189214285Y-134214285D01*
X189357142Y-133928571D01*
X189357142Y-133785714D01*
X189214285Y-133500000D01*
X188928571Y-133357142D01*
X188500000Y-133357142D01*
X188214285Y-133500000D01*
X187214285Y-133357142D02*
X186071428Y-133357142D01*
X186785714Y-132357142D02*
X186785714Y-134928571D01*
X186642857Y-135214285D01*
X186357142Y-135357142D01*
X186071428Y-135357142D01*
X183928571Y-135214285D02*
X184214285Y-135357142D01*
X184785714Y-135357142D01*
X185071428Y-135214285D01*
X185214285Y-134928571D01*
X185214285Y-133785714D01*
X185071428Y-133500000D01*
X184785714Y-133357142D01*
X184214285Y-133357142D01*
X183928571Y-133500000D01*
X183785714Y-133785714D01*
X183785714Y-134071428D01*
X185214285Y-134357142D01*
X182500000Y-135357142D02*
X182500000Y-133357142D01*
X182500000Y-132357142D02*
X182642857Y-132500000D01*
X182500000Y-132642857D01*
X182357142Y-132500000D01*
X182500000Y-132357142D01*
X182500000Y-132642857D01*
X181357142Y-135357142D02*
X179785714Y-133357142D01*
X181357142Y-133357142D02*
X179785714Y-135357142D01*
D12*
X229166666Y-112261904D02*
X226309523Y-112261904D01*
X227738095Y-117261904D02*
X227738095Y-112261904D01*
X224642857Y-117261904D02*
X224642857Y-113928571D01*
X224642857Y-112261904D02*
X224880952Y-112500000D01*
X224642857Y-112738095D01*
X224404761Y-112500000D01*
X224642857Y-112261904D01*
X224642857Y-112738095D01*
X222261904Y-113928571D02*
X222261904Y-117261904D01*
X222261904Y-114404761D02*
X222023809Y-114166666D01*
X221547619Y-113928571D01*
X220833333Y-113928571D01*
X220357142Y-114166666D01*
X220119047Y-114642857D01*
X220119047Y-117261904D01*
X218214285Y-113928571D02*
X217023809Y-117261904D01*
X215833333Y-113928571D02*
X217023809Y-117261904D01*
X217500000Y-118452380D01*
X217738095Y-118690476D01*
X218214285Y-118928571D01*
X211071428Y-117261904D02*
X212738095Y-114880952D01*
X213928571Y-117261904D02*
X213928571Y-112261904D01*
X212023809Y-112261904D01*
X211547619Y-112500000D01*
X211309523Y-112738095D01*
X211071428Y-113214285D01*
X211071428Y-113928571D01*
X211309523Y-114404761D01*
X211547619Y-114642857D01*
X212023809Y-114880952D01*
X213928571Y-114880952D01*
X208928571Y-117261904D02*
X208928571Y-112261904D01*
X206785714Y-117023809D02*
X206071428Y-117261904D01*
X204880952Y-117261904D01*
X204404761Y-117023809D01*
X204166666Y-116785714D01*
X203928571Y-116309523D01*
X203928571Y-115833333D01*
X204166666Y-115357142D01*
X204404761Y-115119047D01*
X204880952Y-114880952D01*
X205833333Y-114642857D01*
X206309523Y-114404761D01*
X206547619Y-114166666D01*
X206785714Y-113690476D01*
X206785714Y-113214285D01*
X206547619Y-112738095D01*
X206309523Y-112500000D01*
X205833333Y-112261904D01*
X204642857Y-112261904D01*
X203928571Y-112500000D01*
X198928571Y-116785714D02*
X199166666Y-117023809D01*
X199880952Y-117261904D01*
X200357142Y-117261904D01*
X201071428Y-117023809D01*
X201547619Y-116547619D01*
X201785714Y-116071428D01*
X202023809Y-115119047D01*
X202023809Y-114404761D01*
X201785714Y-113452380D01*
X201547619Y-112976190D01*
X201071428Y-112500000D01*
X200357142Y-112261904D01*
X199880952Y-112261904D01*
X199166666Y-112500000D01*
X198928571Y-112738095D01*
X190357142Y-112500000D02*
X190833333Y-112261904D01*
X191547619Y-112261904D01*
X192261904Y-112500000D01*
X192738095Y-112976190D01*
X192976190Y-113452380D01*
X193214285Y-114404761D01*
X193214285Y-115119047D01*
X192976190Y-116071428D01*
X192738095Y-116547619D01*
X192261904Y-117023809D01*
X191547619Y-117261904D01*
X191071428Y-117261904D01*
X190357142Y-117023809D01*
X190119047Y-116785714D01*
X190119047Y-115119047D01*
X191071428Y-115119047D01*
X186071428Y-117023809D02*
X186547619Y-117261904D01*
X187500000Y-117261904D01*
X187976190Y-117023809D01*
X188214285Y-116547619D01*
X188214285Y-114642857D01*
X187976190Y-114166666D01*
X187500000Y-113928571D01*
X186547619Y-113928571D01*
X186071428Y-114166666D01*
X185833333Y-114642857D01*
X185833333Y-115119047D01*
X188214285Y-115595238D01*
X183690476Y-113928571D02*
X183690476Y-117261904D01*
X183690476Y-114404761D02*
X183452380Y-114166666D01*
X182976190Y-113928571D01*
X182261904Y-113928571D01*
X181785714Y-114166666D01*
X181547619Y-114642857D01*
X181547619Y-117261904D01*
X177261904Y-117023809D02*
X177738095Y-117261904D01*
X178690476Y-117261904D01*
X179166666Y-117023809D01*
X179404761Y-116547619D01*
X179404761Y-114642857D01*
X179166666Y-114166666D01*
X178690476Y-113928571D01*
X177738095Y-113928571D01*
X177261904Y-114166666D01*
X177023809Y-114642857D01*
X177023809Y-115119047D01*
X179404761Y-115595238D01*
X174880952Y-117261904D02*
X174880952Y-113928571D01*
X174880952Y-114880952D02*
X174642857Y-114404761D01*
X174404761Y-114166666D01*
X173928571Y-113928571D01*
X173452380Y-113928571D01*
X169642857Y-117261904D02*
X169642857Y-114642857D01*
X169880952Y-114166666D01*
X170357142Y-113928571D01*
X171309523Y-113928571D01*
X171785714Y-114166666D01*
X169642857Y-117023809D02*
X170119047Y-117261904D01*
X171309523Y-117261904D01*
X171785714Y-117023809D01*
X172023809Y-116547619D01*
X172023809Y-116071428D01*
X171785714Y-115595238D01*
X171309523Y-115357142D01*
X170119047Y-115357142D01*
X169642857Y-115119047D01*
X166547619Y-117261904D02*
X167023809Y-117023809D01*
X167261904Y-116547619D01*
X167261904Y-112261904D01*
X160833333Y-117261904D02*
X160833333Y-112261904D01*
X158928571Y-112261904D01*
X158452380Y-112500000D01*
X158214285Y-112738095D01*
X157976190Y-113214285D01*
X157976190Y-113928571D01*
X158214285Y-114404761D01*
X158452380Y-114642857D01*
X158928571Y-114880952D01*
X160833333Y-114880952D01*
X153690476Y-113928571D02*
X153690476Y-117261904D01*
X155833333Y-113928571D02*
X155833333Y-116547619D01*
X155595238Y-117023809D01*
X155119047Y-117261904D01*
X154404761Y-117261904D01*
X153928571Y-117023809D01*
X153690476Y-116785714D01*
X151309523Y-117261904D02*
X151309523Y-113928571D01*
X151309523Y-114880952D02*
X151071428Y-114404761D01*
X150833333Y-114166666D01*
X150357142Y-113928571D01*
X149880952Y-113928571D01*
X148214285Y-113928571D02*
X148214285Y-118928571D01*
X148214285Y-114166666D02*
X147738095Y-113928571D01*
X146785714Y-113928571D01*
X146309523Y-114166666D01*
X146071428Y-114404761D01*
X145833333Y-114880952D01*
X145833333Y-116309523D01*
X146071428Y-116785714D01*
X146309523Y-117023809D01*
X146785714Y-117261904D01*
X147738095Y-117261904D01*
X148214285Y-117023809D01*
X142976190Y-117261904D02*
X143452380Y-117023809D01*
X143690476Y-116785714D01*
X143928571Y-116309523D01*
X143928571Y-114880952D01*
X143690476Y-114404761D01*
X143452380Y-114166666D01*
X142976190Y-113928571D01*
X142261904Y-113928571D01*
X141785714Y-114166666D01*
X141547619Y-114404761D01*
X141309523Y-114880952D01*
X141309523Y-116309523D01*
X141547619Y-116785714D01*
X141785714Y-117023809D01*
X142261904Y-117261904D01*
X142976190Y-117261904D01*
X139404761Y-117023809D02*
X138928571Y-117261904D01*
X137976190Y-117261904D01*
X137500000Y-117023809D01*
X137261904Y-116547619D01*
X137261904Y-116309523D01*
X137500000Y-115833333D01*
X137976190Y-115595238D01*
X138690476Y-115595238D01*
X139166666Y-115357142D01*
X139404761Y-114880952D01*
X139404761Y-114642857D01*
X139166666Y-114166666D01*
X138690476Y-113928571D01*
X137976190Y-113928571D01*
X137500000Y-114166666D01*
X133214285Y-117023809D02*
X133690476Y-117261904D01*
X134642857Y-117261904D01*
X135119047Y-117023809D01*
X135357142Y-116547619D01*
X135357142Y-114642857D01*
X135119047Y-114166666D01*
X134642857Y-113928571D01*
X133690476Y-113928571D01*
X133214285Y-114166666D01*
X132976190Y-114642857D01*
X132976190Y-115119047D01*
X135357142Y-115595238D01*
X124166666Y-117261904D02*
X125833333Y-114880952D01*
X127023809Y-117261904D02*
X127023809Y-112261904D01*
X125119047Y-112261904D01*
X124642857Y-112500000D01*
X124404761Y-112738095D01*
X124166666Y-113214285D01*
X124166666Y-113928571D01*
X124404761Y-114404761D01*
X124642857Y-114642857D01*
X125119047Y-114880952D01*
X127023809Y-114880952D01*
X120119047Y-117023809D02*
X120595238Y-117261904D01*
X121547619Y-117261904D01*
X122023809Y-117023809D01*
X122261904Y-116547619D01*
X122261904Y-114642857D01*
X122023809Y-114166666D01*
X121547619Y-113928571D01*
X120595238Y-113928571D01*
X120119047Y-114166666D01*
X119880952Y-114642857D01*
X119880952Y-115119047D01*
X122261904Y-115595238D01*
X115595238Y-113928571D02*
X115595238Y-117976190D01*
X115833333Y-118452380D01*
X116071428Y-118690476D01*
X116547619Y-118928571D01*
X117261904Y-118928571D01*
X117738095Y-118690476D01*
X115595238Y-117023809D02*
X116071428Y-117261904D01*
X117023809Y-117261904D01*
X117500000Y-117023809D01*
X117738095Y-116785714D01*
X117976190Y-116309523D01*
X117976190Y-114880952D01*
X117738095Y-114404761D01*
X117500000Y-114166666D01*
X117023809Y-113928571D01*
X116071428Y-113928571D01*
X115595238Y-114166666D01*
X113214285Y-117261904D02*
X113214285Y-113928571D01*
X113214285Y-112261904D02*
X113452380Y-112500000D01*
X113214285Y-112738095D01*
X112976190Y-112500000D01*
X113214285Y-112261904D01*
X113214285Y-112738095D01*
X111071428Y-117023809D02*
X110595238Y-117261904D01*
X109642857Y-117261904D01*
X109166666Y-117023809D01*
X108928571Y-116547619D01*
X108928571Y-116309523D01*
X109166666Y-115833333D01*
X109642857Y-115595238D01*
X110357142Y-115595238D01*
X110833333Y-115357142D01*
X111071428Y-114880952D01*
X111071428Y-114642857D01*
X110833333Y-114166666D01*
X110357142Y-113928571D01*
X109642857Y-113928571D01*
X109166666Y-114166666D01*
X107500000Y-113928571D02*
X105595238Y-113928571D01*
X106785714Y-112261904D02*
X106785714Y-116547619D01*
X106547619Y-117023809D01*
X106071428Y-117261904D01*
X105595238Y-117261904D01*
X102023809Y-117023809D02*
X102500000Y-117261904D01*
X103452380Y-117261904D01*
X103928571Y-117023809D01*
X104166666Y-116547619D01*
X104166666Y-114642857D01*
X103928571Y-114166666D01*
X103452380Y-113928571D01*
X102500000Y-113928571D01*
X102023809Y-114166666D01*
X101785714Y-114642857D01*
X101785714Y-115119047D01*
X104166666Y-115595238D01*
X99642857Y-117261904D02*
X99642857Y-113928571D01*
X99642857Y-114880952D02*
X99404761Y-114404761D01*
X99166666Y-114166666D01*
X98690476Y-113928571D01*
X98214285Y-113928571D01*
X91071428Y-114642857D02*
X92738095Y-114642857D01*
X92738095Y-117261904D02*
X92738095Y-112261904D01*
X90357142Y-112261904D01*
X88452380Y-117261904D02*
X88452380Y-113928571D01*
X88452380Y-112261904D02*
X88690476Y-112500000D01*
X88452380Y-112738095D01*
X88214285Y-112500000D01*
X88452380Y-112261904D01*
X88452380Y-112738095D01*
X85357142Y-117261904D02*
X85833333Y-117023809D01*
X86071428Y-116547619D01*
X86071428Y-112261904D01*
X81547619Y-117023809D02*
X82023809Y-117261904D01*
X82976190Y-117261904D01*
X83452380Y-117023809D01*
X83690476Y-116547619D01*
X83690476Y-114642857D01*
X83452380Y-114166666D01*
X82976190Y-113928571D01*
X82023809Y-113928571D01*
X81547619Y-114166666D01*
X81309523Y-114642857D01*
X81309523Y-115119047D01*
X83690476Y-115595238D01*
M02*
