M48
; DRILL file {KiCad (5.1.10)-1} date 10/27/21 21:26:08
; FORMAT={-:-/ absolute / inch / decimal}
; #@! TF.CreationDate,2021-10-27T21:26:08+02:00
; #@! TF.GenerationSoftware,Kicad,Pcbnew,(5.1.10)-1
; #@! TF.FileFunction,Plated,1,2,PTH
FMAT,2
INCH
T1C0.0157
T2C0.0197
T3C0.0315
T4C0.0394
T5C0.0433
T6C0.1378
%
G90
G05
T1
X2.7639Y-2.8238
X3.3074Y-4.8712
X3.5902Y-2.5221
X3.9764Y-1.9291
X4.1255Y-4.8416
X4.3307Y-1.9291
X4.3797Y-3.0383
X4.7199Y-3.2407
X4.9606Y-1.6142
X5.0365Y-2.201
X5.0476Y-2.2409
X5.1181Y-1.7323
X5.3543Y-1.9685
X5.4112Y-2.9291
X5.5323Y-2.9004
X5.6101Y-2.3498
X5.7874Y-1.9685
X5.8736Y-2.9337
X5.9836Y-4.5511
X6.0764Y-3.3452
X6.13Y-4.7997
X6.7866Y-3.2906
X7.1654Y-1.9291
X7.4403Y-4.8518
X7.5197Y-1.9291
X7.5987Y-3.2883
X8.246Y-3.2776
X8.4446Y-4.8648
X8.622Y-1.9291
X8.937Y-1.9291
X9.0587Y-3.2846
X9.2126Y-1.9685
X9.4094Y-2.126
X9.6063Y-1.9685
X9.8322Y-3.4324
X9.8425Y-1.9685
T2
X2.062Y-1.1024
X2.062Y-5.315
X2.0923Y-1.0293
X2.0923Y-1.1754
X2.0923Y-5.2419
X2.0923Y-5.388
X2.1654Y-0.999
X2.1654Y-1.2057
X2.1654Y-5.2116
X2.1654Y-5.4183
X2.2384Y-1.0293
X2.2384Y-1.1754
X2.2384Y-5.2419
X2.2384Y-5.388
X2.2687Y-1.1024
X2.2687Y-5.315
X2.4557Y-1.1024
X2.4557Y-5.315
X2.486Y-1.0293
X2.486Y-1.1754
X2.486Y-5.2419
X2.486Y-5.388
X2.5591Y-0.999
X2.5591Y-1.2057
X2.5591Y-5.2116
X2.5591Y-5.4183
X2.6321Y-1.0293
X2.6321Y-1.1754
X2.6321Y-5.2419
X2.6321Y-5.388
X2.6624Y-1.1024
X2.6624Y-5.315
X9.5423Y-1.1024
X9.5423Y-5.315
X9.5726Y-1.0293
X9.5726Y-1.1754
X9.5726Y-5.2419
X9.5726Y-5.388
X9.6457Y-0.999
X9.6457Y-1.2057
X9.6457Y-5.2116
X9.6457Y-5.4183
X9.7187Y-1.0293
X9.7187Y-1.1754
X9.7187Y-5.2419
X9.7187Y-5.388
X9.749Y-1.1024
X9.749Y-5.315
X9.936Y-1.1024
X9.936Y-5.315
X9.9663Y-1.0293
X9.9663Y-1.1754
X9.9663Y-5.2419
X9.9663Y-5.388
X10.0394Y-0.999
X10.0394Y-1.2057
X10.0394Y-5.2116
X10.0394Y-5.4183
X10.1124Y-1.0293
X10.1124Y-1.1754
X10.1124Y-5.2419
X10.1124Y-5.388
X10.1427Y-1.1024
X10.1427Y-5.315
T3
X2.874Y-2.3622
X2.874Y-2.5197
X2.874Y-2.6197
X2.874Y-2.7197
X2.874Y-2.8197
X2.874Y-2.9197
X2.874Y-3.0197
X2.874Y-3.1197
X2.874Y-3.2197
X2.874Y-3.3197
X2.874Y-3.4197
X2.9134Y-3.937
X2.9134Y-4.037
X2.9134Y-4.137
X2.9134Y-4.237
X2.9134Y-4.337
X2.9134Y-4.437
X2.9134Y-4.537
X2.9134Y-4.637
X2.9134Y-4.737
X2.9134Y-4.837
X2.9134Y-5.0
X3.1693Y-2.3622
X3.174Y-2.5197
X3.174Y-2.6197
X3.174Y-2.7197
X3.174Y-2.8197
X3.174Y-2.9197
X3.174Y-3.0197
X3.174Y-3.1197
X3.174Y-3.2197
X3.174Y-3.3197
X3.174Y-3.4197
X3.2087Y-5.0
X3.2134Y-3.937
X3.2134Y-4.037
X3.2134Y-4.137
X3.2134Y-4.237
X3.2134Y-4.337
X3.2134Y-4.437
X3.2134Y-4.537
X3.2134Y-4.637
X3.2134Y-4.737
X3.2134Y-4.837
X3.7008Y-2.5394
X3.7008Y-2.8346
X3.7008Y-3.248
X3.7008Y-3.5433
X3.8583Y-2.5346
X3.8583Y-2.8346
X3.8583Y-3.2433
X3.8583Y-3.5433
X3.937Y-3.9764
X3.937Y-4.0764
X3.937Y-4.1764
X3.937Y-4.2764
X3.937Y-4.3764
X3.937Y-4.4764
X3.937Y-4.5764
X3.937Y-4.6764
X3.937Y-4.7764
X3.937Y-4.8764
X3.937Y-5.0394
X3.9583Y-2.5346
X3.9583Y-2.8346
X3.9583Y-3.2433
X3.9583Y-3.5433
X4.0583Y-2.5346
X4.0583Y-2.8346
X4.0583Y-3.2433
X4.0583Y-3.5433
X4.1583Y-2.5346
X4.1583Y-2.8346
X4.1583Y-3.2433
X4.1583Y-3.5433
X4.2323Y-5.0394
X4.237Y-3.9764
X4.237Y-4.0764
X4.237Y-4.1764
X4.237Y-4.2764
X4.237Y-4.3764
X4.237Y-4.4764
X4.237Y-4.5764
X4.237Y-4.6764
X4.237Y-4.7764
X4.237Y-4.8764
X4.2583Y-2.5346
X4.2583Y-2.8346
X4.2583Y-3.2433
X4.2583Y-3.5433
X4.3583Y-2.5346
X4.3583Y-2.8346
X4.3583Y-3.2433
X4.3583Y-3.5433
X4.4583Y-2.5346
X4.4583Y-2.8346
X4.4583Y-3.2433
X4.4583Y-3.5433
X4.9606Y-2.1654
X4.9606Y-2.3228
X4.9606Y-2.4228
X4.9606Y-2.5228
X4.9606Y-2.6228
X4.9606Y-2.7228
X4.9606Y-2.8228
X4.9606Y-2.9228
X4.9606Y-3.0228
X4.9606Y-3.1228
X4.9606Y-3.2228
X4.9606Y-3.8976
X4.9606Y-3.9976
X4.9606Y-4.0976
X4.9606Y-4.1976
X4.9606Y-4.2976
X4.9606Y-4.3976
X4.9606Y-4.4976
X4.9606Y-4.5976
X4.9606Y-4.6976
X4.9606Y-4.7976
X4.9606Y-4.9606
X5.2559Y-2.1654
X5.2559Y-4.9606
X5.2606Y-2.3228
X5.2606Y-2.4228
X5.2606Y-2.5228
X5.2606Y-2.6228
X5.2606Y-2.7228
X5.2606Y-2.8228
X5.2606Y-2.9228
X5.2606Y-3.0228
X5.2606Y-3.1228
X5.2606Y-3.2228
X5.2606Y-3.8976
X5.2606Y-3.9976
X5.2606Y-4.0976
X5.2606Y-4.1976
X5.2606Y-4.2976
X5.2606Y-4.3976
X5.2606Y-4.4976
X5.2606Y-4.5976
X5.2606Y-4.6976
X5.2606Y-4.7976
X5.748Y-3.8976
X5.748Y-3.9976
X5.748Y-4.0976
X5.748Y-4.1976
X5.748Y-4.2976
X5.748Y-4.3976
X5.748Y-4.4976
X5.748Y-4.5976
X5.748Y-4.6976
X5.748Y-4.7976
X5.748Y-4.9606
X5.7874Y-2.1654
X5.7874Y-2.3228
X5.7874Y-2.4228
X5.7874Y-2.5228
X5.7874Y-2.6228
X5.7874Y-2.7228
X5.7874Y-2.8228
X5.7874Y-2.9228
X5.7874Y-3.0228
X5.7874Y-3.1228
X5.7874Y-3.2228
X6.0433Y-4.9606
X6.048Y-3.8976
X6.048Y-3.9976
X6.048Y-4.0976
X6.048Y-4.1976
X6.048Y-4.2976
X6.048Y-4.3976
X6.048Y-4.4976
X6.048Y-4.5976
X6.048Y-4.6976
X6.048Y-4.7976
X6.0827Y-2.1654
X6.0874Y-2.3228
X6.0874Y-2.4228
X6.0874Y-2.5228
X6.0874Y-2.6228
X6.0874Y-2.7228
X6.0874Y-2.8228
X6.0874Y-2.9228
X6.0874Y-3.0228
X6.0874Y-3.1228
X6.0874Y-3.2228
X6.5748Y-2.1654
X6.5748Y-2.3228
X6.5748Y-2.4228
X6.5748Y-2.5228
X6.5748Y-2.6228
X6.5748Y-2.7228
X6.5748Y-2.8228
X6.5748Y-2.9228
X6.5748Y-3.0228
X6.5748Y-3.1228
X6.5748Y-3.2228
X6.5748Y-3.8976
X6.5748Y-3.9976
X6.5748Y-4.0976
X6.5748Y-4.1976
X6.5748Y-4.2976
X6.5748Y-4.3976
X6.5748Y-4.4976
X6.5748Y-4.5976
X6.5748Y-4.6976
X6.5748Y-4.7976
X6.5748Y-4.9606
X6.8701Y-2.1654
X6.8701Y-4.9606
X6.8748Y-2.3228
X6.8748Y-2.4228
X6.8748Y-2.5228
X6.8748Y-2.6228
X6.8748Y-2.7228
X6.8748Y-2.8228
X6.8748Y-2.9228
X6.8748Y-3.0228
X6.8748Y-3.1228
X6.8748Y-3.2228
X6.8748Y-3.8976
X6.8748Y-3.9976
X6.8748Y-4.0976
X6.8748Y-4.1976
X6.8748Y-4.2976
X6.8748Y-4.3976
X6.8748Y-4.4976
X6.8748Y-4.5976
X6.8748Y-4.6976
X6.8748Y-4.7976
X7.3622Y-2.1654
X7.3622Y-2.3228
X7.3622Y-2.4228
X7.3622Y-2.5228
X7.3622Y-2.6228
X7.3622Y-2.7228
X7.3622Y-2.8228
X7.3622Y-2.9228
X7.3622Y-3.0228
X7.3622Y-3.1228
X7.3622Y-3.2228
X7.3622Y-3.8976
X7.3622Y-3.9976
X7.3622Y-4.0976
X7.3622Y-4.1976
X7.3622Y-4.2976
X7.3622Y-4.3976
X7.3622Y-4.4976
X7.3622Y-4.5976
X7.3622Y-4.6976
X7.3622Y-4.7976
X7.3622Y-4.9606
X7.6575Y-2.1654
X7.6575Y-4.9606
X7.6622Y-2.3228
X7.6622Y-2.4228
X7.6622Y-2.5228
X7.6622Y-2.6228
X7.6622Y-2.7228
X7.6622Y-2.8228
X7.6622Y-2.9228
X7.6622Y-3.0228
X7.6622Y-3.1228
X7.6622Y-3.2228
X7.6622Y-3.8976
X7.6622Y-3.9976
X7.6622Y-4.0976
X7.6622Y-4.1976
X7.6622Y-4.2976
X7.6622Y-4.3976
X7.6622Y-4.4976
X7.6622Y-4.5976
X7.6622Y-4.6976
X7.6622Y-4.7976
X8.1496Y-2.1654
X8.1496Y-2.3228
X8.1496Y-2.4228
X8.1496Y-2.5228
X8.1496Y-2.6228
X8.1496Y-2.7228
X8.1496Y-2.8228
X8.1496Y-2.9228
X8.1496Y-3.0228
X8.1496Y-3.1228
X8.1496Y-3.2228
X8.1496Y-3.8976
X8.1496Y-3.9976
X8.1496Y-4.0976
X8.1496Y-4.1976
X8.1496Y-4.2976
X8.1496Y-4.3976
X8.1496Y-4.4976
X8.1496Y-4.5976
X8.1496Y-4.6976
X8.1496Y-4.7976
X8.1496Y-4.9606
X8.4449Y-2.1654
X8.4449Y-4.9606
X8.4496Y-2.3228
X8.4496Y-2.4228
X8.4496Y-2.5228
X8.4496Y-2.6228
X8.4496Y-2.7228
X8.4496Y-2.8228
X8.4496Y-2.9228
X8.4496Y-3.0228
X8.4496Y-3.1228
X8.4496Y-3.2228
X8.4496Y-3.8976
X8.4496Y-3.9976
X8.4496Y-4.0976
X8.4496Y-4.1976
X8.4496Y-4.2976
X8.4496Y-4.3976
X8.4496Y-4.4976
X8.4496Y-4.5976
X8.4496Y-4.6976
X8.4496Y-4.7976
X8.937Y-2.1654
X8.937Y-2.3228
X8.937Y-2.4228
X8.937Y-2.5228
X8.937Y-2.6228
X8.937Y-2.7228
X8.937Y-2.8228
X8.937Y-2.9228
X8.937Y-3.0228
X8.937Y-3.1228
X8.937Y-3.2228
X9.0157Y-3.937
X9.0157Y-4.037
X9.0157Y-4.137
X9.0157Y-4.237
X9.0157Y-4.337
X9.0157Y-4.437
X9.0157Y-4.537
X9.0157Y-4.637
X9.0157Y-4.737
X9.0157Y-4.837
X9.0157Y-5.0
X9.2323Y-2.1654
X9.237Y-2.3228
X9.237Y-2.4228
X9.237Y-2.5228
X9.237Y-2.6228
X9.237Y-2.7228
X9.237Y-2.8228
X9.237Y-2.9228
X9.237Y-3.0228
X9.237Y-3.1228
X9.237Y-3.2228
X9.311Y-5.0
X9.3157Y-3.937
X9.3157Y-4.037
X9.3157Y-4.137
X9.3157Y-4.237
X9.3157Y-4.337
X9.3157Y-4.437
X9.3157Y-4.537
X9.3157Y-4.637
X9.3157Y-4.737
X9.3157Y-4.837
X9.7244Y-2.1654
X9.7244Y-2.3228
X9.7244Y-2.4228
X9.7244Y-2.5228
X9.7244Y-2.6228
X9.7244Y-2.7228
X9.7244Y-2.8228
X9.7244Y-2.9228
X9.7244Y-3.0228
X9.7244Y-3.1228
X9.7244Y-3.2228
X9.7787Y-3.9425
X9.7787Y-4.0425
X9.7787Y-4.1425
X9.7787Y-4.2425
X9.7787Y-4.3425
X9.7787Y-4.4425
X9.7787Y-4.5425
X9.7787Y-4.6425
X9.7787Y-4.7425
X9.7787Y-4.8425
X9.7835Y-5.0
X10.0197Y-2.1654
X10.0244Y-2.3228
X10.0244Y-2.4228
X10.0244Y-2.5228
X10.0244Y-2.6228
X10.0244Y-2.7228
X10.0244Y-2.8228
X10.0244Y-2.9228
X10.0244Y-3.0228
X10.0244Y-3.1228
X10.0244Y-3.2228
X10.0787Y-3.9425
X10.0787Y-4.0425
X10.0787Y-4.1425
X10.0787Y-4.2425
X10.0787Y-4.3425
X10.0787Y-4.4425
X10.0787Y-4.5425
X10.0787Y-4.6425
X10.0787Y-4.7425
X10.0787Y-4.8425
X10.0787Y-5.0
T4
X2.3016Y-2.8315
X2.3016Y-2.9315
X2.3016Y-3.0315
X2.3016Y-4.2882
X2.3016Y-4.3882
X2.3016Y-4.4882
X2.4016Y-2.8315
X2.4016Y-2.9315
X2.4016Y-3.0315
X2.4016Y-4.2882
X2.4016Y-4.3882
X2.4016Y-4.4882
X2.9134Y-1.5142
X2.9134Y-1.6142
X3.0134Y-1.5142
X3.0134Y-1.6142
X3.1134Y-1.5142
X3.1134Y-1.6142
X3.7402Y-1.5748
X4.0945Y-1.5354
X4.1929Y-1.5354
X4.6063Y-1.6535
X4.8031Y-1.6535
X6.8898Y-1.4567
X8.4252Y-1.4567
T5
X5.3543Y-1.3567
X5.3543Y-1.4567
X5.4543Y-1.3567
X5.4543Y-1.4567
X5.5543Y-1.3567
X5.5543Y-1.4567
X5.6543Y-1.3567
X5.6543Y-1.4567
X5.7543Y-1.3567
X5.7543Y-1.4567
X5.8543Y-1.3567
X5.8543Y-1.4567
X5.9543Y-1.3567
X5.9543Y-1.4567
X6.0543Y-1.3567
X6.0543Y-1.4567
X7.3228Y-1.4354
X7.3228Y-1.5354
X7.4228Y-1.4354
X7.4228Y-1.5354
X7.5228Y-1.4354
X7.5228Y-1.5354
X7.6228Y-1.4354
X7.6228Y-1.5354
X7.7228Y-1.4354
X7.7228Y-1.5354
X7.8228Y-1.4354
X7.8228Y-1.5354
X7.9228Y-1.4354
X7.9228Y-1.5354
X8.0228Y-1.4354
X8.0228Y-1.5354
X8.7402Y-1.4354
X8.7402Y-1.5354
X8.8402Y-1.4354
X8.8402Y-1.5354
X8.9402Y-1.4354
X8.9402Y-1.5354
X9.0402Y-1.4354
X9.0402Y-1.5354
X9.1402Y-1.4354
X9.1402Y-1.5354
X9.2402Y-1.4354
X9.2402Y-1.5354
X9.3402Y-1.4354
X9.3402Y-1.5354
X9.4402Y-1.4354
X9.4402Y-1.5354
T6
X2.1654Y-1.1024
X2.1654Y-5.315
X2.5591Y-1.1024
X2.5591Y-5.315
X9.6457Y-1.1024
X9.6457Y-5.315
X10.0394Y-1.1024
X10.0394Y-5.315
T0
M30
