%TF.GenerationSoftware,KiCad,Pcbnew,(5.1.10)-1*%
%TF.CreationDate,2021-10-27T21:26:05+02:00*%
%TF.ProjectId,General Purpose RF,47656e65-7261-46c2-9050-7572706f7365,rev1.0*%
%TF.SameCoordinates,Original*%
%TF.FileFunction,Copper,L1,Top*%
%TF.FilePolarity,Positive*%
%FSLAX46Y46*%
G04 Gerber Fmt 4.6, Leading zero omitted, Abs format (unit mm)*
G04 Created by KiCad (PCBNEW (5.1.10)-1) date 2021-10-27 21:26:05*
%MOMM*%
%LPD*%
G01*
G04 APERTURE LIST*
%TA.AperFunction,ComponentPad*%
%ADD10C,2.000000*%
%TD*%
%TA.AperFunction,ComponentPad*%
%ADD11R,2.000000X2.000000*%
%TD*%
%TA.AperFunction,ComponentPad*%
%ADD12C,1.650000*%
%TD*%
%TA.AperFunction,ComponentPad*%
%ADD13R,1.650000X1.650000*%
%TD*%
%TA.AperFunction,ComponentPad*%
%ADD14C,1.500000*%
%TD*%
%TA.AperFunction,ComponentPad*%
%ADD15R,1.500000X1.500000*%
%TD*%
%TA.AperFunction,ComponentPad*%
%ADD16O,1.600000X1.600000*%
%TD*%
%TA.AperFunction,ComponentPad*%
%ADD17R,1.600000X1.600000*%
%TD*%
%TA.AperFunction,ComponentPad*%
%ADD18C,0.800000*%
%TD*%
%TA.AperFunction,ComponentPad*%
%ADD19C,7.000000*%
%TD*%
%TA.AperFunction,ComponentPad*%
%ADD20C,1.600000*%
%TD*%
%TA.AperFunction,ComponentPad*%
%ADD21O,1.700000X2.000000*%
%TD*%
%TA.AperFunction,ViaPad*%
%ADD22C,0.800000*%
%TD*%
%TA.AperFunction,Conductor*%
%ADD23C,0.400000*%
%TD*%
%TA.AperFunction,Conductor*%
%ADD24C,0.250000*%
%TD*%
G04 APERTURE END LIST*
D10*
%TO.P,C_BOARD1,2*%
%TO.N,+5V*%
X122000000Y-42000000D03*
D11*
%TO.P,C_BOARD1,1*%
%TO.N,GNDREF*%
X117000000Y-42000000D03*
%TD*%
D10*
%TO.P,~R2OE7,1*%
%TO.N,~BEO7*%
X214000000Y-37000000D03*
%TD*%
%TO.P,~R1OE7,1*%
%TO.N,~AEO7*%
X175000000Y-37000000D03*
%TD*%
D12*
%TO.P,Write1,16*%
%TO.N,N/C*%
X153780000Y-34460000D03*
%TO.P,Write1,15*%
X153780000Y-37000000D03*
%TO.P,Write1,14*%
X151240000Y-34460000D03*
%TO.P,Write1,13*%
X151240000Y-37000000D03*
%TO.P,Write1,12*%
X148700000Y-34460000D03*
%TO.P,Write1,11*%
X148700000Y-37000000D03*
%TO.P,Write1,10*%
X146160000Y-34460000D03*
%TO.P,Write1,9*%
X146160000Y-37000000D03*
%TO.P,Write1,8*%
%TO.N,/W7*%
X143620000Y-34460000D03*
%TO.P,Write1,7*%
%TO.N,/W6*%
X143620000Y-37000000D03*
%TO.P,Write1,6*%
%TO.N,/W5*%
X141080000Y-34460000D03*
%TO.P,Write1,5*%
%TO.N,/W4*%
X141080000Y-37000000D03*
%TO.P,Write1,4*%
%TO.N,/W3*%
X138540000Y-34460000D03*
%TO.P,Write1,3*%
%TO.N,/W2*%
X138540000Y-37000000D03*
%TO.P,Write1,2*%
%TO.N,/W1*%
X136000000Y-34460000D03*
D13*
%TO.P,Write1,1*%
%TO.N,/W0*%
X136000000Y-37000000D03*
%TD*%
D14*
%TO.P,W1,6*%
%TO.N,Net-(DECWrite1-Pad6)*%
X79080000Y-38460000D03*
%TO.P,W1,5*%
%TO.N,Net-(W1-Pad5)*%
X76540000Y-38460000D03*
%TO.P,W1,4*%
%TO.N,Net-(W1-Pad4)*%
X74000000Y-38460000D03*
%TO.P,W1,3*%
%TO.N,/W2*%
X79080000Y-41000000D03*
%TO.P,W1,2*%
%TO.N,/W1*%
X76540000Y-41000000D03*
D15*
%TO.P,W1,1*%
%TO.N,/W0*%
X74000000Y-41000000D03*
%TD*%
D12*
%TO.P,Read2,16*%
%TO.N,N/C*%
X239780000Y-36460000D03*
%TO.P,Read2,15*%
X239780000Y-39000000D03*
%TO.P,Read2,14*%
X237240000Y-36460000D03*
%TO.P,Read2,13*%
X237240000Y-39000000D03*
%TO.P,Read2,12*%
X234700000Y-36460000D03*
%TO.P,Read2,11*%
X234700000Y-39000000D03*
%TO.P,Read2,10*%
X232160000Y-36460000D03*
%TO.P,Read2,9*%
X232160000Y-39000000D03*
%TO.P,Read2,8*%
%TO.N,/B7*%
X229620000Y-36460000D03*
%TO.P,Read2,7*%
%TO.N,/B6*%
X229620000Y-39000000D03*
%TO.P,Read2,6*%
%TO.N,/B5*%
X227080000Y-36460000D03*
%TO.P,Read2,5*%
%TO.N,/B4*%
X227080000Y-39000000D03*
%TO.P,Read2,4*%
%TO.N,/B3*%
X224540000Y-36460000D03*
%TO.P,Read2,3*%
%TO.N,/B2*%
X224540000Y-39000000D03*
%TO.P,Read2,2*%
%TO.N,/B1*%
X222000000Y-36460000D03*
D13*
%TO.P,Read2,1*%
%TO.N,/B0*%
X222000000Y-39000000D03*
%TD*%
D12*
%TO.P,Read1,16*%
%TO.N,N/C*%
X203780000Y-36460000D03*
%TO.P,Read1,15*%
X203780000Y-39000000D03*
%TO.P,Read1,14*%
X201240000Y-36460000D03*
%TO.P,Read1,13*%
X201240000Y-39000000D03*
%TO.P,Read1,12*%
X198700000Y-36460000D03*
%TO.P,Read1,11*%
X198700000Y-39000000D03*
%TO.P,Read1,10*%
X196160000Y-36460000D03*
%TO.P,Read1,9*%
X196160000Y-39000000D03*
%TO.P,Read1,8*%
%TO.N,/A7*%
X193620000Y-36460000D03*
%TO.P,Read1,7*%
%TO.N,/A6*%
X193620000Y-39000000D03*
%TO.P,Read1,6*%
%TO.N,/A5*%
X191080000Y-36460000D03*
%TO.P,Read1,5*%
%TO.N,/A4*%
X191080000Y-39000000D03*
%TO.P,Read1,4*%
%TO.N,/A3*%
X188540000Y-36460000D03*
%TO.P,Read1,3*%
%TO.N,/A2*%
X188540000Y-39000000D03*
%TO.P,Read1,2*%
%TO.N,/A1*%
X186000000Y-36460000D03*
D13*
%TO.P,Read1,1*%
%TO.N,/A0*%
X186000000Y-39000000D03*
%TD*%
D14*
%TO.P,Read 2 ID,6*%
%TO.N,Net-(DECRead2-Pad6)*%
X58460000Y-71920000D03*
%TO.P,Read 2 ID,5*%
%TO.N,Net-(R2-Pad5)*%
X58460000Y-74460000D03*
%TO.P,Read 2 ID,4*%
%TO.N,Net-(R2-Pad4)*%
X58460000Y-77000000D03*
%TO.P,Read 2 ID,3*%
%TO.N,/Y2*%
X61000000Y-71920000D03*
%TO.P,Read 2 ID,2*%
%TO.N,/Y1*%
X61000000Y-74460000D03*
D15*
%TO.P,Read 2 ID,1*%
%TO.N,/Y0*%
X61000000Y-77000000D03*
%TD*%
D16*
%TO.P,Latch8B6,20*%
%TO.N,+5V*%
X254620000Y-59000000D03*
%TO.P,Latch8B6,10*%
%TO.N,GNDREF*%
X247000000Y-81860000D03*
%TO.P,Latch8B6,19*%
%TO.N,/B0*%
X254620000Y-61540000D03*
%TO.P,Latch8B6,9*%
%TO.N,/W7*%
X247000000Y-79320000D03*
%TO.P,Latch8B6,18*%
%TO.N,/B1*%
X254620000Y-64080000D03*
%TO.P,Latch8B6,8*%
%TO.N,/W6*%
X247000000Y-76780000D03*
%TO.P,Latch8B6,17*%
%TO.N,/B2*%
X254620000Y-66620000D03*
%TO.P,Latch8B6,7*%
%TO.N,/W5*%
X247000000Y-74240000D03*
%TO.P,Latch8B6,16*%
%TO.N,/B3*%
X254620000Y-69160000D03*
%TO.P,Latch8B6,6*%
%TO.N,/W4*%
X247000000Y-71700000D03*
%TO.P,Latch8B6,15*%
%TO.N,/B4*%
X254620000Y-71700000D03*
%TO.P,Latch8B6,5*%
%TO.N,/W3*%
X247000000Y-69160000D03*
%TO.P,Latch8B6,14*%
%TO.N,/B5*%
X254620000Y-74240000D03*
%TO.P,Latch8B6,4*%
%TO.N,/W2*%
X247000000Y-66620000D03*
%TO.P,Latch8B6,13*%
%TO.N,/B6*%
X254620000Y-76780000D03*
%TO.P,Latch8B6,3*%
%TO.N,/W1*%
X247000000Y-64080000D03*
%TO.P,Latch8B6,12*%
%TO.N,/B7*%
X254620000Y-79320000D03*
%TO.P,Latch8B6,2*%
%TO.N,/W0*%
X247000000Y-61540000D03*
%TO.P,Latch8B6,11*%
%TO.N,LE6*%
X254620000Y-81860000D03*
D17*
%TO.P,Latch8B6,1*%
%TO.N,~BEO6*%
X247000000Y-59000000D03*
%TD*%
D16*
%TO.P,Latch8B5,20*%
%TO.N,+5V*%
X234620000Y-59000000D03*
%TO.P,Latch8B5,10*%
%TO.N,GNDREF*%
X227000000Y-81860000D03*
%TO.P,Latch8B5,19*%
%TO.N,/B0*%
X234620000Y-61540000D03*
%TO.P,Latch8B5,9*%
%TO.N,/W7*%
X227000000Y-79320000D03*
%TO.P,Latch8B5,18*%
%TO.N,/B1*%
X234620000Y-64080000D03*
%TO.P,Latch8B5,8*%
%TO.N,/W6*%
X227000000Y-76780000D03*
%TO.P,Latch8B5,17*%
%TO.N,/B2*%
X234620000Y-66620000D03*
%TO.P,Latch8B5,7*%
%TO.N,/W5*%
X227000000Y-74240000D03*
%TO.P,Latch8B5,16*%
%TO.N,/B3*%
X234620000Y-69160000D03*
%TO.P,Latch8B5,6*%
%TO.N,/W4*%
X227000000Y-71700000D03*
%TO.P,Latch8B5,15*%
%TO.N,/B4*%
X234620000Y-71700000D03*
%TO.P,Latch8B5,5*%
%TO.N,/W3*%
X227000000Y-69160000D03*
%TO.P,Latch8B5,14*%
%TO.N,/B5*%
X234620000Y-74240000D03*
%TO.P,Latch8B5,4*%
%TO.N,/W2*%
X227000000Y-66620000D03*
%TO.P,Latch8B5,13*%
%TO.N,/B6*%
X234620000Y-76780000D03*
%TO.P,Latch8B5,3*%
%TO.N,/W1*%
X227000000Y-64080000D03*
%TO.P,Latch8B5,12*%
%TO.N,/B7*%
X234620000Y-79320000D03*
%TO.P,Latch8B5,2*%
%TO.N,/W0*%
X227000000Y-61540000D03*
%TO.P,Latch8B5,11*%
%TO.N,LE5*%
X234620000Y-81860000D03*
D17*
%TO.P,Latch8B5,1*%
%TO.N,~BEO5*%
X227000000Y-59000000D03*
%TD*%
D16*
%TO.P,Latch8B4,20*%
%TO.N,+5V*%
X214620000Y-59000000D03*
%TO.P,Latch8B4,10*%
%TO.N,GNDREF*%
X207000000Y-81860000D03*
%TO.P,Latch8B4,19*%
%TO.N,/B0*%
X214620000Y-61540000D03*
%TO.P,Latch8B4,9*%
%TO.N,/W7*%
X207000000Y-79320000D03*
%TO.P,Latch8B4,18*%
%TO.N,/B1*%
X214620000Y-64080000D03*
%TO.P,Latch8B4,8*%
%TO.N,/W6*%
X207000000Y-76780000D03*
%TO.P,Latch8B4,17*%
%TO.N,/B2*%
X214620000Y-66620000D03*
%TO.P,Latch8B4,7*%
%TO.N,/W5*%
X207000000Y-74240000D03*
%TO.P,Latch8B4,16*%
%TO.N,/B3*%
X214620000Y-69160000D03*
%TO.P,Latch8B4,6*%
%TO.N,/W4*%
X207000000Y-71700000D03*
%TO.P,Latch8B4,15*%
%TO.N,/B4*%
X214620000Y-71700000D03*
%TO.P,Latch8B4,5*%
%TO.N,/W3*%
X207000000Y-69160000D03*
%TO.P,Latch8B4,14*%
%TO.N,/B5*%
X214620000Y-74240000D03*
%TO.P,Latch8B4,4*%
%TO.N,/W2*%
X207000000Y-66620000D03*
%TO.P,Latch8B4,13*%
%TO.N,/B6*%
X214620000Y-76780000D03*
%TO.P,Latch8B4,3*%
%TO.N,/W1*%
X207000000Y-64080000D03*
%TO.P,Latch8B4,12*%
%TO.N,/B7*%
X214620000Y-79320000D03*
%TO.P,Latch8B4,2*%
%TO.N,/W0*%
X207000000Y-61540000D03*
%TO.P,Latch8B4,11*%
%TO.N,LE4*%
X214620000Y-81860000D03*
D17*
%TO.P,Latch8B4,1*%
%TO.N,~BEO4*%
X207000000Y-59000000D03*
%TD*%
D16*
%TO.P,Latch8B3,20*%
%TO.N,+5V*%
X194620000Y-59000000D03*
%TO.P,Latch8B3,10*%
%TO.N,GNDREF*%
X187000000Y-81860000D03*
%TO.P,Latch8B3,19*%
%TO.N,/B0*%
X194620000Y-61540000D03*
%TO.P,Latch8B3,9*%
%TO.N,/W7*%
X187000000Y-79320000D03*
%TO.P,Latch8B3,18*%
%TO.N,/B1*%
X194620000Y-64080000D03*
%TO.P,Latch8B3,8*%
%TO.N,/W6*%
X187000000Y-76780000D03*
%TO.P,Latch8B3,17*%
%TO.N,/B2*%
X194620000Y-66620000D03*
%TO.P,Latch8B3,7*%
%TO.N,/W5*%
X187000000Y-74240000D03*
%TO.P,Latch8B3,16*%
%TO.N,/B3*%
X194620000Y-69160000D03*
%TO.P,Latch8B3,6*%
%TO.N,/W4*%
X187000000Y-71700000D03*
%TO.P,Latch8B3,15*%
%TO.N,/B4*%
X194620000Y-71700000D03*
%TO.P,Latch8B3,5*%
%TO.N,/W3*%
X187000000Y-69160000D03*
%TO.P,Latch8B3,14*%
%TO.N,/B5*%
X194620000Y-74240000D03*
%TO.P,Latch8B3,4*%
%TO.N,/W2*%
X187000000Y-66620000D03*
%TO.P,Latch8B3,13*%
%TO.N,/B6*%
X194620000Y-76780000D03*
%TO.P,Latch8B3,3*%
%TO.N,/W1*%
X187000000Y-64080000D03*
%TO.P,Latch8B3,12*%
%TO.N,/B7*%
X194620000Y-79320000D03*
%TO.P,Latch8B3,2*%
%TO.N,/W0*%
X187000000Y-61540000D03*
%TO.P,Latch8B3,11*%
%TO.N,LE3*%
X194620000Y-81860000D03*
D17*
%TO.P,Latch8B3,1*%
%TO.N,~BEO3*%
X187000000Y-59000000D03*
%TD*%
D16*
%TO.P,Latch8B2,20*%
%TO.N,+5V*%
X174620000Y-59000000D03*
%TO.P,Latch8B2,10*%
%TO.N,GNDREF*%
X167000000Y-81860000D03*
%TO.P,Latch8B2,19*%
%TO.N,/B0*%
X174620000Y-61540000D03*
%TO.P,Latch8B2,9*%
%TO.N,/W7*%
X167000000Y-79320000D03*
%TO.P,Latch8B2,18*%
%TO.N,/B1*%
X174620000Y-64080000D03*
%TO.P,Latch8B2,8*%
%TO.N,/W6*%
X167000000Y-76780000D03*
%TO.P,Latch8B2,17*%
%TO.N,/B2*%
X174620000Y-66620000D03*
%TO.P,Latch8B2,7*%
%TO.N,/W5*%
X167000000Y-74240000D03*
%TO.P,Latch8B2,16*%
%TO.N,/B3*%
X174620000Y-69160000D03*
%TO.P,Latch8B2,6*%
%TO.N,/W4*%
X167000000Y-71700000D03*
%TO.P,Latch8B2,15*%
%TO.N,/B4*%
X174620000Y-71700000D03*
%TO.P,Latch8B2,5*%
%TO.N,/W3*%
X167000000Y-69160000D03*
%TO.P,Latch8B2,14*%
%TO.N,/B5*%
X174620000Y-74240000D03*
%TO.P,Latch8B2,4*%
%TO.N,/W2*%
X167000000Y-66620000D03*
%TO.P,Latch8B2,13*%
%TO.N,/B6*%
X174620000Y-76780000D03*
%TO.P,Latch8B2,3*%
%TO.N,/W1*%
X167000000Y-64080000D03*
%TO.P,Latch8B2,12*%
%TO.N,/B7*%
X174620000Y-79320000D03*
%TO.P,Latch8B2,2*%
%TO.N,/W0*%
X167000000Y-61540000D03*
%TO.P,Latch8B2,11*%
%TO.N,LE2*%
X174620000Y-81860000D03*
D17*
%TO.P,Latch8B2,1*%
%TO.N,~BEO2*%
X167000000Y-59000000D03*
%TD*%
D16*
%TO.P,Latch8B1,20*%
%TO.N,+5V*%
X154620000Y-59000000D03*
%TO.P,Latch8B1,10*%
%TO.N,GNDREF*%
X147000000Y-81860000D03*
%TO.P,Latch8B1,19*%
%TO.N,/B0*%
X154620000Y-61540000D03*
%TO.P,Latch8B1,9*%
%TO.N,/W7*%
X147000000Y-79320000D03*
%TO.P,Latch8B1,18*%
%TO.N,/B1*%
X154620000Y-64080000D03*
%TO.P,Latch8B1,8*%
%TO.N,/W6*%
X147000000Y-76780000D03*
%TO.P,Latch8B1,17*%
%TO.N,/B2*%
X154620000Y-66620000D03*
%TO.P,Latch8B1,7*%
%TO.N,/W5*%
X147000000Y-74240000D03*
%TO.P,Latch8B1,16*%
%TO.N,/B3*%
X154620000Y-69160000D03*
%TO.P,Latch8B1,6*%
%TO.N,/W4*%
X147000000Y-71700000D03*
%TO.P,Latch8B1,15*%
%TO.N,/B4*%
X154620000Y-71700000D03*
%TO.P,Latch8B1,5*%
%TO.N,/W3*%
X147000000Y-69160000D03*
%TO.P,Latch8B1,14*%
%TO.N,/B5*%
X154620000Y-74240000D03*
%TO.P,Latch8B1,4*%
%TO.N,/W2*%
X147000000Y-66620000D03*
%TO.P,Latch8B1,13*%
%TO.N,/B6*%
X154620000Y-76780000D03*
%TO.P,Latch8B1,3*%
%TO.N,/W1*%
X147000000Y-64080000D03*
%TO.P,Latch8B1,12*%
%TO.N,/B7*%
X154620000Y-79320000D03*
%TO.P,Latch8B1,2*%
%TO.N,/W0*%
X147000000Y-61540000D03*
%TO.P,Latch8B1,11*%
%TO.N,LE1*%
X154620000Y-81860000D03*
D17*
%TO.P,Latch8B1,1*%
%TO.N,~BEO1*%
X147000000Y-59000000D03*
%TD*%
D16*
%TO.P,Latch8B0,20*%
%TO.N,+5V*%
X133620000Y-59000000D03*
%TO.P,Latch8B0,10*%
%TO.N,GNDREF*%
X126000000Y-81860000D03*
%TO.P,Latch8B0,19*%
%TO.N,/B0*%
X133620000Y-61540000D03*
%TO.P,Latch8B0,9*%
%TO.N,/W7*%
X126000000Y-79320000D03*
%TO.P,Latch8B0,18*%
%TO.N,/B1*%
X133620000Y-64080000D03*
%TO.P,Latch8B0,8*%
%TO.N,/W6*%
X126000000Y-76780000D03*
%TO.P,Latch8B0,17*%
%TO.N,/B2*%
X133620000Y-66620000D03*
%TO.P,Latch8B0,7*%
%TO.N,/W5*%
X126000000Y-74240000D03*
%TO.P,Latch8B0,16*%
%TO.N,/B3*%
X133620000Y-69160000D03*
%TO.P,Latch8B0,6*%
%TO.N,/W4*%
X126000000Y-71700000D03*
%TO.P,Latch8B0,15*%
%TO.N,/B4*%
X133620000Y-71700000D03*
%TO.P,Latch8B0,5*%
%TO.N,/W3*%
X126000000Y-69160000D03*
%TO.P,Latch8B0,14*%
%TO.N,/B5*%
X133620000Y-74240000D03*
%TO.P,Latch8B0,4*%
%TO.N,/W2*%
X126000000Y-66620000D03*
%TO.P,Latch8B0,13*%
%TO.N,/B6*%
X133620000Y-76780000D03*
%TO.P,Latch8B0,3*%
%TO.N,/W1*%
X126000000Y-64080000D03*
%TO.P,Latch8B0,12*%
%TO.N,/B7*%
X133620000Y-79320000D03*
%TO.P,Latch8B0,2*%
%TO.N,/W0*%
X126000000Y-61540000D03*
%TO.P,Latch8B0,11*%
%TO.N,LE0*%
X133620000Y-81860000D03*
D17*
%TO.P,Latch8B0,1*%
%TO.N,~BEO0*%
X126000000Y-59000000D03*
%TD*%
D16*
%TO.P,Latch8A6,20*%
%TO.N,+5V*%
X248380000Y-123000000D03*
%TO.P,Latch8A6,10*%
%TO.N,GNDREF*%
X256000000Y-100140000D03*
%TO.P,Latch8A6,19*%
%TO.N,/A0*%
X248380000Y-120460000D03*
%TO.P,Latch8A6,9*%
%TO.N,/W7*%
X256000000Y-102680000D03*
%TO.P,Latch8A6,18*%
%TO.N,/A1*%
X248380000Y-117920000D03*
%TO.P,Latch8A6,8*%
%TO.N,/W6*%
X256000000Y-105220000D03*
%TO.P,Latch8A6,17*%
%TO.N,/A2*%
X248380000Y-115380000D03*
%TO.P,Latch8A6,7*%
%TO.N,/W5*%
X256000000Y-107760000D03*
%TO.P,Latch8A6,16*%
%TO.N,/A3*%
X248380000Y-112840000D03*
%TO.P,Latch8A6,6*%
%TO.N,/W4*%
X256000000Y-110300000D03*
%TO.P,Latch8A6,15*%
%TO.N,/A4*%
X248380000Y-110300000D03*
%TO.P,Latch8A6,5*%
%TO.N,/W3*%
X256000000Y-112840000D03*
%TO.P,Latch8A6,14*%
%TO.N,/A5*%
X248380000Y-107760000D03*
%TO.P,Latch8A6,4*%
%TO.N,/W2*%
X256000000Y-115380000D03*
%TO.P,Latch8A6,13*%
%TO.N,/A6*%
X248380000Y-105220000D03*
%TO.P,Latch8A6,3*%
%TO.N,/W1*%
X256000000Y-117920000D03*
%TO.P,Latch8A6,12*%
%TO.N,/A7*%
X248380000Y-102680000D03*
%TO.P,Latch8A6,2*%
%TO.N,/W0*%
X256000000Y-120460000D03*
%TO.P,Latch8A6,11*%
%TO.N,LE6*%
X248380000Y-100140000D03*
D17*
%TO.P,Latch8A6,1*%
%TO.N,~AEO6*%
X256000000Y-123000000D03*
%TD*%
D16*
%TO.P,Latch8A5,20*%
%TO.N,+5V*%
X236620000Y-100000000D03*
%TO.P,Latch8A5,10*%
%TO.N,GNDREF*%
X229000000Y-122860000D03*
%TO.P,Latch8A5,19*%
%TO.N,/A0*%
X236620000Y-102540000D03*
%TO.P,Latch8A5,9*%
%TO.N,/W7*%
X229000000Y-120320000D03*
%TO.P,Latch8A5,18*%
%TO.N,/A1*%
X236620000Y-105080000D03*
%TO.P,Latch8A5,8*%
%TO.N,/W6*%
X229000000Y-117780000D03*
%TO.P,Latch8A5,17*%
%TO.N,/A2*%
X236620000Y-107620000D03*
%TO.P,Latch8A5,7*%
%TO.N,/W5*%
X229000000Y-115240000D03*
%TO.P,Latch8A5,16*%
%TO.N,/A3*%
X236620000Y-110160000D03*
%TO.P,Latch8A5,6*%
%TO.N,/W4*%
X229000000Y-112700000D03*
%TO.P,Latch8A5,15*%
%TO.N,/A4*%
X236620000Y-112700000D03*
%TO.P,Latch8A5,5*%
%TO.N,/W3*%
X229000000Y-110160000D03*
%TO.P,Latch8A5,14*%
%TO.N,/A5*%
X236620000Y-115240000D03*
%TO.P,Latch8A5,4*%
%TO.N,/W2*%
X229000000Y-107620000D03*
%TO.P,Latch8A5,13*%
%TO.N,/A6*%
X236620000Y-117780000D03*
%TO.P,Latch8A5,3*%
%TO.N,/W1*%
X229000000Y-105080000D03*
%TO.P,Latch8A5,12*%
%TO.N,/A7*%
X236620000Y-120320000D03*
%TO.P,Latch8A5,2*%
%TO.N,/W0*%
X229000000Y-102540000D03*
%TO.P,Latch8A5,11*%
%TO.N,LE5*%
X236620000Y-122860000D03*
D17*
%TO.P,Latch8A5,1*%
%TO.N,~AEO5*%
X229000000Y-100000000D03*
%TD*%
D16*
%TO.P,Latch8A4,20*%
%TO.N,+5V*%
X214620000Y-99000000D03*
%TO.P,Latch8A4,10*%
%TO.N,GNDREF*%
X207000000Y-121860000D03*
%TO.P,Latch8A4,19*%
%TO.N,/A0*%
X214620000Y-101540000D03*
%TO.P,Latch8A4,9*%
%TO.N,/W7*%
X207000000Y-119320000D03*
%TO.P,Latch8A4,18*%
%TO.N,/A1*%
X214620000Y-104080000D03*
%TO.P,Latch8A4,8*%
%TO.N,/W6*%
X207000000Y-116780000D03*
%TO.P,Latch8A4,17*%
%TO.N,/A2*%
X214620000Y-106620000D03*
%TO.P,Latch8A4,7*%
%TO.N,/W5*%
X207000000Y-114240000D03*
%TO.P,Latch8A4,16*%
%TO.N,/A3*%
X214620000Y-109160000D03*
%TO.P,Latch8A4,6*%
%TO.N,/W4*%
X207000000Y-111700000D03*
%TO.P,Latch8A4,15*%
%TO.N,/A4*%
X214620000Y-111700000D03*
%TO.P,Latch8A4,5*%
%TO.N,/W3*%
X207000000Y-109160000D03*
%TO.P,Latch8A4,14*%
%TO.N,/A5*%
X214620000Y-114240000D03*
%TO.P,Latch8A4,4*%
%TO.N,/W2*%
X207000000Y-106620000D03*
%TO.P,Latch8A4,13*%
%TO.N,/A6*%
X214620000Y-116780000D03*
%TO.P,Latch8A4,3*%
%TO.N,/W1*%
X207000000Y-104080000D03*
%TO.P,Latch8A4,12*%
%TO.N,/A7*%
X214620000Y-119320000D03*
%TO.P,Latch8A4,2*%
%TO.N,/W0*%
X207000000Y-101540000D03*
%TO.P,Latch8A4,11*%
%TO.N,LE4*%
X214620000Y-121860000D03*
D17*
%TO.P,Latch8A4,1*%
%TO.N,~AEO4*%
X207000000Y-99000000D03*
%TD*%
D16*
%TO.P,Latch8A3,20*%
%TO.N,+5V*%
X194620000Y-99000000D03*
%TO.P,Latch8A3,10*%
%TO.N,GNDREF*%
X187000000Y-121860000D03*
%TO.P,Latch8A3,19*%
%TO.N,/A0*%
X194620000Y-101540000D03*
%TO.P,Latch8A3,9*%
%TO.N,/W7*%
X187000000Y-119320000D03*
%TO.P,Latch8A3,18*%
%TO.N,/A1*%
X194620000Y-104080000D03*
%TO.P,Latch8A3,8*%
%TO.N,/W6*%
X187000000Y-116780000D03*
%TO.P,Latch8A3,17*%
%TO.N,/A2*%
X194620000Y-106620000D03*
%TO.P,Latch8A3,7*%
%TO.N,/W5*%
X187000000Y-114240000D03*
%TO.P,Latch8A3,16*%
%TO.N,/A3*%
X194620000Y-109160000D03*
%TO.P,Latch8A3,6*%
%TO.N,/W4*%
X187000000Y-111700000D03*
%TO.P,Latch8A3,15*%
%TO.N,/A4*%
X194620000Y-111700000D03*
%TO.P,Latch8A3,5*%
%TO.N,/W3*%
X187000000Y-109160000D03*
%TO.P,Latch8A3,14*%
%TO.N,/A5*%
X194620000Y-114240000D03*
%TO.P,Latch8A3,4*%
%TO.N,/W2*%
X187000000Y-106620000D03*
%TO.P,Latch8A3,13*%
%TO.N,/A6*%
X194620000Y-116780000D03*
%TO.P,Latch8A3,3*%
%TO.N,/W1*%
X187000000Y-104080000D03*
%TO.P,Latch8A3,12*%
%TO.N,/A7*%
X194620000Y-119320000D03*
%TO.P,Latch8A3,2*%
%TO.N,/W0*%
X187000000Y-101540000D03*
%TO.P,Latch8A3,11*%
%TO.N,LE3*%
X194620000Y-121860000D03*
D17*
%TO.P,Latch8A3,1*%
%TO.N,~AEO3*%
X187000000Y-99000000D03*
%TD*%
D16*
%TO.P,Latch8A2,20*%
%TO.N,+5V*%
X174620000Y-99000000D03*
%TO.P,Latch8A2,10*%
%TO.N,GNDREF*%
X167000000Y-121860000D03*
%TO.P,Latch8A2,19*%
%TO.N,/A0*%
X174620000Y-101540000D03*
%TO.P,Latch8A2,9*%
%TO.N,/W7*%
X167000000Y-119320000D03*
%TO.P,Latch8A2,18*%
%TO.N,/A1*%
X174620000Y-104080000D03*
%TO.P,Latch8A2,8*%
%TO.N,/W6*%
X167000000Y-116780000D03*
%TO.P,Latch8A2,17*%
%TO.N,/A2*%
X174620000Y-106620000D03*
%TO.P,Latch8A2,7*%
%TO.N,/W5*%
X167000000Y-114240000D03*
%TO.P,Latch8A2,16*%
%TO.N,/A3*%
X174620000Y-109160000D03*
%TO.P,Latch8A2,6*%
%TO.N,/W4*%
X167000000Y-111700000D03*
%TO.P,Latch8A2,15*%
%TO.N,/A4*%
X174620000Y-111700000D03*
%TO.P,Latch8A2,5*%
%TO.N,/W3*%
X167000000Y-109160000D03*
%TO.P,Latch8A2,14*%
%TO.N,/A5*%
X174620000Y-114240000D03*
%TO.P,Latch8A2,4*%
%TO.N,/W2*%
X167000000Y-106620000D03*
%TO.P,Latch8A2,13*%
%TO.N,/A6*%
X174620000Y-116780000D03*
%TO.P,Latch8A2,3*%
%TO.N,/W1*%
X167000000Y-104080000D03*
%TO.P,Latch8A2,12*%
%TO.N,/A7*%
X174620000Y-119320000D03*
%TO.P,Latch8A2,2*%
%TO.N,/W0*%
X167000000Y-101540000D03*
%TO.P,Latch8A2,11*%
%TO.N,LE2*%
X174620000Y-121860000D03*
D17*
%TO.P,Latch8A2,1*%
%TO.N,~AEO2*%
X167000000Y-99000000D03*
%TD*%
D16*
%TO.P,Latch8A1,20*%
%TO.N,+5V*%
X153620000Y-99000000D03*
%TO.P,Latch8A1,10*%
%TO.N,GNDREF*%
X146000000Y-121860000D03*
%TO.P,Latch8A1,19*%
%TO.N,/A0*%
X153620000Y-101540000D03*
%TO.P,Latch8A1,9*%
%TO.N,/W7*%
X146000000Y-119320000D03*
%TO.P,Latch8A1,18*%
%TO.N,/A1*%
X153620000Y-104080000D03*
%TO.P,Latch8A1,8*%
%TO.N,/W6*%
X146000000Y-116780000D03*
%TO.P,Latch8A1,17*%
%TO.N,/A2*%
X153620000Y-106620000D03*
%TO.P,Latch8A1,7*%
%TO.N,/W5*%
X146000000Y-114240000D03*
%TO.P,Latch8A1,16*%
%TO.N,/A3*%
X153620000Y-109160000D03*
%TO.P,Latch8A1,6*%
%TO.N,/W4*%
X146000000Y-111700000D03*
%TO.P,Latch8A1,15*%
%TO.N,/A4*%
X153620000Y-111700000D03*
%TO.P,Latch8A1,5*%
%TO.N,/W3*%
X146000000Y-109160000D03*
%TO.P,Latch8A1,14*%
%TO.N,/A5*%
X153620000Y-114240000D03*
%TO.P,Latch8A1,4*%
%TO.N,/W2*%
X146000000Y-106620000D03*
%TO.P,Latch8A1,13*%
%TO.N,/A6*%
X153620000Y-116780000D03*
%TO.P,Latch8A1,3*%
%TO.N,/W1*%
X146000000Y-104080000D03*
%TO.P,Latch8A1,12*%
%TO.N,/A7*%
X153620000Y-119320000D03*
%TO.P,Latch8A1,2*%
%TO.N,/W0*%
X146000000Y-101540000D03*
%TO.P,Latch8A1,11*%
%TO.N,LE1*%
X153620000Y-121860000D03*
D17*
%TO.P,Latch8A1,1*%
%TO.N,~AEO1*%
X146000000Y-99000000D03*
%TD*%
D16*
%TO.P,Latch8A0,20*%
%TO.N,+5V*%
X133620000Y-99000000D03*
%TO.P,Latch8A0,10*%
%TO.N,GNDREF*%
X126000000Y-121860000D03*
%TO.P,Latch8A0,19*%
%TO.N,/A0*%
X133620000Y-101540000D03*
%TO.P,Latch8A0,9*%
%TO.N,/W7*%
X126000000Y-119320000D03*
%TO.P,Latch8A0,18*%
%TO.N,/A1*%
X133620000Y-104080000D03*
%TO.P,Latch8A0,8*%
%TO.N,/W6*%
X126000000Y-116780000D03*
%TO.P,Latch8A0,17*%
%TO.N,/A2*%
X133620000Y-106620000D03*
%TO.P,Latch8A0,7*%
%TO.N,/W5*%
X126000000Y-114240000D03*
%TO.P,Latch8A0,16*%
%TO.N,/A3*%
X133620000Y-109160000D03*
%TO.P,Latch8A0,6*%
%TO.N,/W4*%
X126000000Y-111700000D03*
%TO.P,Latch8A0,15*%
%TO.N,/A4*%
X133620000Y-111700000D03*
%TO.P,Latch8A0,5*%
%TO.N,/W3*%
X126000000Y-109160000D03*
%TO.P,Latch8A0,14*%
%TO.N,/A5*%
X133620000Y-114240000D03*
%TO.P,Latch8A0,4*%
%TO.N,/W2*%
X126000000Y-106620000D03*
%TO.P,Latch8A0,13*%
%TO.N,/A6*%
X133620000Y-116780000D03*
%TO.P,Latch8A0,3*%
%TO.N,/W1*%
X126000000Y-104080000D03*
%TO.P,Latch8A0,12*%
%TO.N,/A7*%
X133620000Y-119320000D03*
%TO.P,Latch8A0,2*%
%TO.N,/W0*%
X126000000Y-101540000D03*
%TO.P,Latch8A0,11*%
%TO.N,LE0*%
X133620000Y-121860000D03*
D17*
%TO.P,Latch8A0,1*%
%TO.N,~AEO0*%
X126000000Y-99000000D03*
%TD*%
D14*
%TO.P,Read 1 ID,6*%
%TO.N,Net-(DECRead1-Pad6)*%
X58460000Y-108920000D03*
%TO.P,Read 1 ID,5*%
%TO.N,Net-(JR1-Pad5)*%
X58460000Y-111460000D03*
%TO.P,Read 1 ID,4*%
%TO.N,Net-(JR1-Pad4)*%
X58460000Y-114000000D03*
%TO.P,Read 1 ID,3*%
%TO.N,/X2*%
X61000000Y-108920000D03*
%TO.P,Read 1 ID,2*%
%TO.N,/X1*%
X61000000Y-111460000D03*
D15*
%TO.P,Read 1 ID,1*%
%TO.N,/X0*%
X61000000Y-114000000D03*
%TD*%
D16*
%TO.P,INV2,14*%
%TO.N,+5V*%
X98000000Y-82380000D03*
%TO.P,INV2,7*%
%TO.N,GNDREF*%
X113240000Y-90000000D03*
%TO.P,INV2,13*%
%TO.N,Net-(INV2-Pad13)*%
X100540000Y-82380000D03*
%TO.P,INV2,6*%
%TO.N,LE6*%
X110700000Y-90000000D03*
%TO.P,INV2,12*%
%TO.N,Net-(INV2-Pad12)*%
X103080000Y-82380000D03*
%TO.P,INV2,5*%
%TO.N,Net-(DECWrite1-Pad9)*%
X108160000Y-90000000D03*
%TO.P,INV2,11*%
%TO.N,Net-(INV2-Pad11)*%
X105620000Y-82380000D03*
%TO.P,INV2,4*%
%TO.N,LE5*%
X105620000Y-90000000D03*
%TO.P,INV2,10*%
%TO.N,Net-(INV2-Pad10)*%
X108160000Y-82380000D03*
%TO.P,INV2,3*%
%TO.N,Net-(DECWrite1-Pad10)*%
X103080000Y-90000000D03*
%TO.P,INV2,9*%
%TO.N,Net-(DECWrite1-Pad7)*%
X110700000Y-82380000D03*
%TO.P,INV2,2*%
%TO.N,LE4*%
X100540000Y-90000000D03*
%TO.P,INV2,8*%
%TO.N,LE7*%
X113240000Y-82380000D03*
D17*
%TO.P,INV2,1*%
%TO.N,Net-(DECWrite1-Pad11)*%
X98000000Y-90000000D03*
%TD*%
D16*
%TO.P,INV1,14*%
%TO.N,+5V*%
X98000000Y-64380000D03*
%TO.P,INV1,7*%
%TO.N,GNDREF*%
X113240000Y-72000000D03*
%TO.P,INV1,13*%
%TO.N,Net-(INV1-Pad13)*%
X100540000Y-64380000D03*
%TO.P,INV1,6*%
%TO.N,LE2*%
X110700000Y-72000000D03*
%TO.P,INV1,12*%
%TO.N,Net-(INV1-Pad12)*%
X103080000Y-64380000D03*
%TO.P,INV1,5*%
%TO.N,Net-(DECWrite1-Pad13)*%
X108160000Y-72000000D03*
%TO.P,INV1,11*%
%TO.N,Net-(INV1-Pad11)*%
X105620000Y-64380000D03*
%TO.P,INV1,4*%
%TO.N,LE1*%
X105620000Y-72000000D03*
%TO.P,INV1,10*%
%TO.N,Net-(INV1-Pad10)*%
X108160000Y-64380000D03*
%TO.P,INV1,3*%
%TO.N,Net-(DECWrite1-Pad14)*%
X103080000Y-72000000D03*
%TO.P,INV1,9*%
%TO.N,Net-(DECWrite1-Pad12)*%
X110700000Y-64380000D03*
%TO.P,INV1,2*%
%TO.N,LE0*%
X100540000Y-72000000D03*
%TO.P,INV1,8*%
%TO.N,LE3*%
X113240000Y-64380000D03*
D17*
%TO.P,INV1,1*%
%TO.N,Net-(DECWrite1-Pad15)*%
X98000000Y-72000000D03*
%TD*%
D18*
%TO.P,H8,1*%
%TO.N,+5V*%
X246856155Y-26143845D03*
X245000000Y-25375000D03*
X243143845Y-26143845D03*
X242375000Y-28000000D03*
X243143845Y-29856155D03*
X245000000Y-30625000D03*
X246856155Y-29856155D03*
X247625000Y-28000000D03*
D19*
X245000000Y-28000000D03*
%TD*%
D18*
%TO.P,H7,1*%
%TO.N,+5V*%
X66856155Y-133143845D03*
X65000000Y-132375000D03*
X63143845Y-133143845D03*
X62375000Y-135000000D03*
X63143845Y-136856155D03*
X65000000Y-137625000D03*
X66856155Y-136856155D03*
X67625000Y-135000000D03*
D19*
X65000000Y-135000000D03*
%TD*%
D18*
%TO.P,H6,1*%
%TO.N,GNDREF*%
X66856155Y-26143845D03*
X65000000Y-25375000D03*
X63143845Y-26143845D03*
X62375000Y-28000000D03*
X63143845Y-29856155D03*
X65000000Y-30625000D03*
X66856155Y-29856155D03*
X67625000Y-28000000D03*
D19*
X65000000Y-28000000D03*
%TD*%
D18*
%TO.P,H5,1*%
%TO.N,N/C*%
X56856155Y-26143845D03*
X55000000Y-25375000D03*
X53143845Y-26143845D03*
X52375000Y-28000000D03*
X53143845Y-29856155D03*
X55000000Y-30625000D03*
X56856155Y-29856155D03*
X57625000Y-28000000D03*
D19*
X55000000Y-28000000D03*
%TD*%
D18*
%TO.P,H4,1*%
%TO.N,N/C*%
X56856155Y-133143845D03*
X55000000Y-132375000D03*
X53143845Y-133143845D03*
X52375000Y-135000000D03*
X53143845Y-136856155D03*
X55000000Y-137625000D03*
X56856155Y-136856155D03*
X57625000Y-135000000D03*
D19*
X55000000Y-135000000D03*
%TD*%
D18*
%TO.P,H3,1*%
%TO.N,GNDREF*%
X246856155Y-133143845D03*
X245000000Y-132375000D03*
X243143845Y-133143845D03*
X242375000Y-135000000D03*
X243143845Y-136856155D03*
X245000000Y-137625000D03*
X246856155Y-136856155D03*
X247625000Y-135000000D03*
D19*
X245000000Y-135000000D03*
%TD*%
D18*
%TO.P,H2,1*%
%TO.N,N/C*%
X256856155Y-26143845D03*
X255000000Y-25375000D03*
X253143845Y-26143845D03*
X252375000Y-28000000D03*
X253143845Y-29856155D03*
X255000000Y-30625000D03*
X256856155Y-29856155D03*
X257625000Y-28000000D03*
D19*
X255000000Y-28000000D03*
%TD*%
D18*
%TO.P,H1,1*%
%TO.N,N/C*%
X256856155Y-133143845D03*
X255000000Y-132375000D03*
X253143845Y-133143845D03*
X252375000Y-135000000D03*
X253143845Y-136856155D03*
X255000000Y-137625000D03*
X256856155Y-136856155D03*
X257625000Y-135000000D03*
D19*
X255000000Y-135000000D03*
%TD*%
D16*
%TO.P,DECRead2,20*%
%TO.N,N/C*%
X107620000Y-101000000D03*
%TO.P,DECRead2,10*%
%TO.N,~BEO5*%
X100000000Y-123860000D03*
%TO.P,DECRead2,19*%
%TO.N,N/C*%
X107620000Y-103540000D03*
%TO.P,DECRead2,9*%
%TO.N,~BEO6*%
X100000000Y-121320000D03*
%TO.P,DECRead2,18*%
%TO.N,N/C*%
X107620000Y-106080000D03*
%TO.P,DECRead2,8*%
%TO.N,GNDREF*%
X100000000Y-118780000D03*
%TO.P,DECRead2,17*%
%TO.N,N/C*%
X107620000Y-108620000D03*
%TO.P,DECRead2,7*%
%TO.N,~BEO7*%
X100000000Y-116240000D03*
%TO.P,DECRead2,16*%
%TO.N,+5V*%
X107620000Y-111160000D03*
%TO.P,DECRead2,6*%
%TO.N,Net-(DECRead2-Pad6)*%
X100000000Y-113700000D03*
%TO.P,DECRead2,15*%
%TO.N,~BEO0*%
X107620000Y-113700000D03*
%TO.P,DECRead2,5*%
%TO.N,GNDREF*%
X100000000Y-111160000D03*
%TO.P,DECRead2,14*%
%TO.N,~BEO1*%
X107620000Y-116240000D03*
%TO.P,DECRead2,4*%
%TO.N,GNDREF*%
X100000000Y-108620000D03*
%TO.P,DECRead2,13*%
%TO.N,~BEO2*%
X107620000Y-118780000D03*
%TO.P,DECRead2,3*%
%TO.N,/Y2*%
X100000000Y-106080000D03*
%TO.P,DECRead2,12*%
%TO.N,~BEO3*%
X107620000Y-121320000D03*
%TO.P,DECRead2,2*%
%TO.N,/Y1*%
X100000000Y-103540000D03*
%TO.P,DECRead2,11*%
%TO.N,~BEO4*%
X107620000Y-123860000D03*
D17*
%TO.P,DECRead2,1*%
%TO.N,/Y0*%
X100000000Y-101000000D03*
%TD*%
D16*
%TO.P,DECRead1,20*%
%TO.N,N/C*%
X81620000Y-100000000D03*
%TO.P,DECRead1,10*%
%TO.N,~AEO5*%
X74000000Y-122860000D03*
%TO.P,DECRead1,19*%
%TO.N,N/C*%
X81620000Y-102540000D03*
%TO.P,DECRead1,9*%
%TO.N,~AEO6*%
X74000000Y-120320000D03*
%TO.P,DECRead1,18*%
%TO.N,N/C*%
X81620000Y-105080000D03*
%TO.P,DECRead1,8*%
%TO.N,GNDREF*%
X74000000Y-117780000D03*
%TO.P,DECRead1,17*%
%TO.N,N/C*%
X81620000Y-107620000D03*
%TO.P,DECRead1,7*%
%TO.N,~AEO7*%
X74000000Y-115240000D03*
%TO.P,DECRead1,16*%
%TO.N,+5V*%
X81620000Y-110160000D03*
%TO.P,DECRead1,6*%
%TO.N,Net-(DECRead1-Pad6)*%
X74000000Y-112700000D03*
%TO.P,DECRead1,15*%
%TO.N,~AEO0*%
X81620000Y-112700000D03*
%TO.P,DECRead1,5*%
%TO.N,GNDREF*%
X74000000Y-110160000D03*
%TO.P,DECRead1,14*%
%TO.N,~AEO1*%
X81620000Y-115240000D03*
%TO.P,DECRead1,4*%
%TO.N,GNDREF*%
X74000000Y-107620000D03*
%TO.P,DECRead1,13*%
%TO.N,~AEO2*%
X81620000Y-117780000D03*
%TO.P,DECRead1,3*%
%TO.N,/X2*%
X74000000Y-105080000D03*
%TO.P,DECRead1,12*%
%TO.N,~AEO3*%
X81620000Y-120320000D03*
%TO.P,DECRead1,2*%
%TO.N,/X1*%
X74000000Y-102540000D03*
%TO.P,DECRead1,11*%
%TO.N,~AEO4*%
X81620000Y-122860000D03*
D17*
%TO.P,DECRead1,1*%
%TO.N,/X0*%
X74000000Y-100000000D03*
%TD*%
D16*
%TO.P,DECWrite1,20*%
%TO.N,N/C*%
X80620000Y-64000000D03*
%TO.P,DECWrite1,10*%
%TO.N,Net-(DECWrite1-Pad10)*%
X73000000Y-86860000D03*
%TO.P,DECWrite1,19*%
%TO.N,N/C*%
X80620000Y-66540000D03*
%TO.P,DECWrite1,9*%
%TO.N,Net-(DECWrite1-Pad9)*%
X73000000Y-84320000D03*
%TO.P,DECWrite1,18*%
%TO.N,N/C*%
X80620000Y-69080000D03*
%TO.P,DECWrite1,8*%
%TO.N,GNDREF*%
X73000000Y-81780000D03*
%TO.P,DECWrite1,17*%
%TO.N,N/C*%
X80620000Y-71620000D03*
%TO.P,DECWrite1,7*%
%TO.N,Net-(DECWrite1-Pad7)*%
X73000000Y-79240000D03*
%TO.P,DECWrite1,16*%
%TO.N,+5V*%
X80620000Y-74160000D03*
%TO.P,DECWrite1,6*%
%TO.N,Net-(DECWrite1-Pad6)*%
X73000000Y-76700000D03*
%TO.P,DECWrite1,15*%
%TO.N,Net-(DECWrite1-Pad15)*%
X80620000Y-76700000D03*
%TO.P,DECWrite1,5*%
%TO.N,GNDREF*%
X73000000Y-74160000D03*
%TO.P,DECWrite1,14*%
%TO.N,Net-(DECWrite1-Pad14)*%
X80620000Y-79240000D03*
%TO.P,DECWrite1,4*%
%TO.N,GNDREF*%
X73000000Y-71620000D03*
%TO.P,DECWrite1,13*%
%TO.N,Net-(DECWrite1-Pad13)*%
X80620000Y-81780000D03*
%TO.P,DECWrite1,3*%
%TO.N,/W2*%
X73000000Y-69080000D03*
%TO.P,DECWrite1,12*%
%TO.N,Net-(DECWrite1-Pad12)*%
X80620000Y-84320000D03*
%TO.P,DECWrite1,2*%
%TO.N,/W1*%
X73000000Y-66540000D03*
%TO.P,DECWrite1,11*%
%TO.N,Net-(DECWrite1-Pad11)*%
X80620000Y-86860000D03*
D17*
%TO.P,DECWrite1,1*%
%TO.N,/W0*%
X73000000Y-64000000D03*
%TD*%
D16*
%TO.P,CB6,2*%
%TO.N,GNDREF*%
X254500000Y-55000000D03*
D20*
%TO.P,CB6,1*%
%TO.N,+5V*%
X247000000Y-55000000D03*
%TD*%
D16*
%TO.P,CB5,2*%
%TO.N,GNDREF*%
X234500000Y-55000000D03*
D20*
%TO.P,CB5,1*%
%TO.N,+5V*%
X227000000Y-55000000D03*
%TD*%
D16*
%TO.P,CB4,2*%
%TO.N,GNDREF*%
X214500000Y-55000000D03*
D20*
%TO.P,CB4,1*%
%TO.N,+5V*%
X207000000Y-55000000D03*
%TD*%
D16*
%TO.P,CB3,2*%
%TO.N,GNDREF*%
X194500000Y-55000000D03*
D20*
%TO.P,CB3,1*%
%TO.N,+5V*%
X187000000Y-55000000D03*
%TD*%
D16*
%TO.P,CB2,2*%
%TO.N,GNDREF*%
X174500000Y-55000000D03*
D20*
%TO.P,CB2,1*%
%TO.N,+5V*%
X167000000Y-55000000D03*
%TD*%
D16*
%TO.P,CB1,2*%
%TO.N,GNDREF*%
X154500000Y-55000000D03*
D20*
%TO.P,CB1,1*%
%TO.N,+5V*%
X147000000Y-55000000D03*
%TD*%
D16*
%TO.P,CB0,2*%
%TO.N,GNDREF*%
X133500000Y-55000000D03*
D20*
%TO.P,CB0,1*%
%TO.N,+5V*%
X126000000Y-55000000D03*
%TD*%
D16*
%TO.P,CA11,2*%
%TO.N,GNDREF*%
X94000000Y-82500000D03*
D20*
%TO.P,CA11,1*%
%TO.N,+5V*%
X94000000Y-90000000D03*
%TD*%
D16*
%TO.P,CA10,2*%
%TO.N,GNDREF*%
X94000000Y-64500000D03*
D20*
%TO.P,CA10,1*%
%TO.N,+5V*%
X94000000Y-72000000D03*
%TD*%
D16*
%TO.P,CA9,2*%
%TO.N,GNDREF*%
X107500000Y-128000000D03*
D20*
%TO.P,CA9,1*%
%TO.N,+5V*%
X100000000Y-128000000D03*
%TD*%
D16*
%TO.P,CA8,2*%
%TO.N,GNDREF*%
X81500000Y-127000000D03*
D20*
%TO.P,CA8,1*%
%TO.N,+5V*%
X74000000Y-127000000D03*
%TD*%
D16*
%TO.P,CA7,2*%
%TO.N,GNDREF*%
X80500000Y-60000000D03*
D20*
%TO.P,CA7,1*%
%TO.N,+5V*%
X73000000Y-60000000D03*
%TD*%
D16*
%TO.P,CA6,2*%
%TO.N,GNDREF*%
X248500000Y-127000000D03*
D20*
%TO.P,CA6,1*%
%TO.N,+5V*%
X256000000Y-127000000D03*
%TD*%
D16*
%TO.P,CA5,2*%
%TO.N,GNDREF*%
X236500000Y-127000000D03*
D20*
%TO.P,CA5,1*%
%TO.N,+5V*%
X229000000Y-127000000D03*
%TD*%
D16*
%TO.P,CA4,2*%
%TO.N,GNDREF*%
X214500000Y-126000000D03*
D20*
%TO.P,CA4,1*%
%TO.N,+5V*%
X207000000Y-126000000D03*
%TD*%
D16*
%TO.P,CA3,2*%
%TO.N,GNDREF*%
X187000000Y-126000000D03*
D20*
%TO.P,CA3,1*%
%TO.N,+5V*%
X194500000Y-126000000D03*
%TD*%
D16*
%TO.P,CA2,2*%
%TO.N,GNDREF*%
X174500000Y-126000000D03*
D20*
%TO.P,CA2,1*%
%TO.N,+5V*%
X167000000Y-126000000D03*
%TD*%
D16*
%TO.P,CA1,2*%
%TO.N,GNDREF*%
X153500000Y-126000000D03*
D20*
%TO.P,CA1,1*%
%TO.N,+5V*%
X146000000Y-126000000D03*
%TD*%
D16*
%TO.P,CA0,2*%
%TO.N,GNDREF*%
X133500000Y-126000000D03*
D20*
%TO.P,CA0,1*%
%TO.N,+5V*%
X126000000Y-126000000D03*
%TD*%
D10*
%TO.P,7WE1,1*%
%TO.N,LE7*%
X95000000Y-40000000D03*
%TD*%
D21*
%TO.P,5V/GND1,2*%
%TO.N,GNDREF*%
X106500000Y-39000000D03*
%TO.P,5V/GND1,1*%
%TO.N,+5V*%
%TA.AperFunction,ComponentPad*%
G36*
G01*
X103150000Y-39750000D02*
X103150000Y-38250000D01*
G75*
G02*
X103400000Y-38000000I250000J0D01*
G01*
X104600000Y-38000000D01*
G75*
G02*
X104850000Y-38250000I0J-250000D01*
G01*
X104850000Y-39750000D01*
G75*
G02*
X104600000Y-40000000I-250000J0D01*
G01*
X103400000Y-40000000D01*
G75*
G02*
X103150000Y-39750000I0J250000D01*
G01*
G37*
%TD.AperFunction*%
%TD*%
D22*
%TO.N,GNDREF*%
X249738900Y-87183600D03*
X230090900Y-83429000D03*
X84007500Y-123729100D03*
X119884400Y-82312900D03*
X104788500Y-122976200D03*
X172379800Y-83582100D03*
X209448300Y-83251300D03*
X70202200Y-71724900D03*
X193006100Y-83522100D03*
X91190500Y-64062000D03*
X155702400Y-121911300D03*
X110000000Y-49000000D03*
X101000000Y-49000000D03*
X147000000Y-50000000D03*
X136000000Y-50000000D03*
X191000000Y-49000000D03*
X182000000Y-49000000D03*
X219000000Y-49000000D03*
X227000000Y-49000000D03*
X234000000Y-50000000D03*
X239000000Y-54000000D03*
X244000000Y-50000000D03*
X250000000Y-50000000D03*
X130000000Y-44000000D03*
X126000000Y-41000000D03*
%TO.N,~BEO5*%
X128209500Y-56918100D03*
%TO.N,~BEO6*%
X214493200Y-123566600D03*
%TO.N,~BEO7*%
X127927300Y-55906500D03*
%TO.N,~BEO2*%
X142496600Y-59684300D03*
%TO.N,~BEO4*%
X188982700Y-123235800D03*
%TO.N,LE1*%
X154339400Y-84969300D03*
X111244100Y-77171900D03*
%TO.N,/W6*%
X151983900Y-115598400D03*
%TO.N,/B4*%
X137444200Y-74398900D03*
%TO.N,/B5*%
X149190600Y-74516600D03*
X140520800Y-73670600D03*
%TD*%
D23*
%TO.N,GNDREF*%
X246731300Y-83429000D02*
X247000000Y-83160300D01*
X230090900Y-83429000D02*
X246731300Y-83429000D01*
X246731300Y-83429000D02*
X246731300Y-84176000D01*
X246731300Y-84176000D02*
X249738900Y-87183600D01*
X244231200Y-133143800D02*
X245000000Y-132375000D01*
X243143900Y-133143800D02*
X244231200Y-133143800D01*
X244231200Y-133143800D02*
X244231200Y-134231200D01*
X244231200Y-134231200D02*
X245000000Y-135000000D01*
X205699700Y-121860000D02*
X204382500Y-123177200D01*
X204382500Y-123177200D02*
X190197300Y-123177200D01*
X190197300Y-123177200D02*
X188880100Y-121860000D01*
X188880100Y-121860000D02*
X188300300Y-121860000D01*
X100000000Y-118780000D02*
X98699700Y-118780000D01*
X84007500Y-123729100D02*
X93750600Y-123729100D01*
X93750600Y-123729100D02*
X98699700Y-118780000D01*
X229000000Y-122860000D02*
X227699700Y-122860000D01*
X214500000Y-126000000D02*
X224559700Y-126000000D01*
X224559700Y-126000000D02*
X227699700Y-122860000D01*
X126000000Y-81860000D02*
X124699700Y-81860000D01*
X119884400Y-82312900D02*
X124246800Y-82312900D01*
X124246800Y-82312900D02*
X124699700Y-81860000D01*
X101300300Y-118780000D02*
X101300300Y-119488000D01*
X101300300Y-119488000D02*
X104788500Y-122976200D01*
X247000000Y-81860000D02*
X247000000Y-83160300D01*
X207000000Y-121860000D02*
X205699700Y-121860000D01*
X187000000Y-121860000D02*
X188300300Y-121860000D01*
X100000000Y-118780000D02*
X101300300Y-118780000D01*
X244231100Y-136856100D02*
X245000000Y-137625000D01*
X243143900Y-136856100D02*
X244231100Y-136856100D01*
X244231100Y-136856100D02*
X244231100Y-135768900D01*
X244231100Y-135768900D02*
X245000000Y-135000000D01*
X187000000Y-81860000D02*
X185699700Y-81860000D01*
X172379800Y-83582100D02*
X183977600Y-83582100D01*
X183977600Y-83582100D02*
X185699700Y-81860000D01*
X227000000Y-81860000D02*
X225699700Y-81860000D01*
X209448300Y-83251300D02*
X224308400Y-83251300D01*
X224308400Y-83251300D02*
X225699700Y-81860000D01*
X73000000Y-71620000D02*
X71699700Y-71620000D01*
X70202200Y-71724900D02*
X71594800Y-71724900D01*
X71594800Y-71724900D02*
X71699700Y-71620000D01*
X207000000Y-81860000D02*
X205699700Y-81860000D01*
X193006100Y-83522100D02*
X204037600Y-83522100D01*
X204037600Y-83522100D02*
X205699700Y-81860000D01*
X126000000Y-81860000D02*
X127300300Y-81860000D01*
X127300300Y-81860000D02*
X128600700Y-83160400D01*
X128600700Y-83160400D02*
X144399300Y-83160400D01*
X144399300Y-83160400D02*
X145699700Y-81860000D01*
X147000000Y-81860000D02*
X145699700Y-81860000D01*
X94000000Y-64500000D02*
X92699700Y-64500000D01*
X91190500Y-64062000D02*
X92261700Y-64062000D01*
X92261700Y-64062000D02*
X92699700Y-64500000D01*
X167000000Y-81860000D02*
X165699700Y-81860000D01*
X147000000Y-81860000D02*
X148300300Y-81860000D01*
X148300300Y-81860000D02*
X149600700Y-83160400D01*
X149600700Y-83160400D02*
X164399300Y-83160400D01*
X164399300Y-83160400D02*
X165699700Y-81860000D01*
X167000000Y-121860000D02*
X165699700Y-121860000D01*
X155702400Y-121911300D02*
X165648400Y-121911300D01*
X165648400Y-121911300D02*
X165699700Y-121860000D01*
X187000000Y-126000000D02*
X174500000Y-126000000D01*
X110000000Y-49000000D02*
X101000000Y-49000000D01*
X147000000Y-50000000D02*
X136000000Y-50000000D01*
X191000000Y-49000000D02*
X182000000Y-49000000D01*
X219000000Y-49000000D02*
X227000000Y-49000000D01*
X234000000Y-50000000D02*
X237000000Y-53000000D01*
X238000000Y-53000000D02*
X239000000Y-54000000D01*
X237000000Y-53000000D02*
X238000000Y-53000000D01*
X244000000Y-50000000D02*
X250000000Y-50000000D01*
X130000000Y-44000000D02*
X129000000Y-44000000D01*
X129000000Y-44000000D02*
X126000000Y-41000000D01*
%TO.N,+5V*%
X174620000Y-59000000D02*
X175920300Y-59000000D01*
X175920300Y-59000000D02*
X179920300Y-55000000D01*
X179920300Y-55000000D02*
X187000000Y-55000000D01*
X126000000Y-126000000D02*
X127300400Y-124699600D01*
X127300400Y-124699600D02*
X144699600Y-124699600D01*
X144699600Y-124699600D02*
X146000000Y-126000000D01*
X100000000Y-128000000D02*
X102000000Y-126000000D01*
X102000000Y-126000000D02*
X126000000Y-126000000D01*
X194500000Y-126000000D02*
X193192900Y-124692900D01*
X193192900Y-124692900D02*
X168307100Y-124692900D01*
X168307100Y-124692900D02*
X167000000Y-126000000D01*
X207000000Y-126000000D02*
X194500000Y-126000000D01*
X167000000Y-126000000D02*
X165699600Y-124699600D01*
X165699600Y-124699600D02*
X147300400Y-124699600D01*
X147300400Y-124699600D02*
X146000000Y-126000000D01*
X79329200Y-127000000D02*
X80633000Y-128303800D01*
X80633000Y-128303800D02*
X99696200Y-128303800D01*
X99696200Y-128303800D02*
X100000000Y-128000000D01*
X81620000Y-110160000D02*
X79329200Y-112450800D01*
X79329200Y-112450800D02*
X79329200Y-127000000D01*
X79329200Y-127000000D02*
X74000000Y-127000000D01*
X133620000Y-59000000D02*
X134920300Y-59000000D01*
X134920300Y-59000000D02*
X138920300Y-55000000D01*
X138920300Y-55000000D02*
X147000000Y-55000000D01*
X174620000Y-99000000D02*
X173319700Y-99000000D01*
X153620000Y-99000000D02*
X154920300Y-99000000D01*
X154920300Y-99000000D02*
X156220700Y-97699600D01*
X156220700Y-97699600D02*
X172019300Y-97699600D01*
X172019300Y-97699600D02*
X173319700Y-99000000D01*
X214620000Y-99000000D02*
X213319700Y-99000000D01*
X194620000Y-99000000D02*
X195920300Y-99000000D01*
X195920300Y-99000000D02*
X197220700Y-97699600D01*
X197220700Y-97699600D02*
X212019300Y-97699600D01*
X212019300Y-97699600D02*
X213319700Y-99000000D01*
X193969900Y-99000000D02*
X194620000Y-99000000D01*
X193969900Y-99000000D02*
X193319700Y-99000000D01*
X174620000Y-99000000D02*
X175920300Y-99000000D01*
X175920300Y-99000000D02*
X177220700Y-97699600D01*
X177220700Y-97699600D02*
X192019300Y-97699600D01*
X192019300Y-97699600D02*
X193319700Y-99000000D01*
X207000000Y-126000000D02*
X208306600Y-127306600D01*
X208306600Y-127306600D02*
X228693400Y-127306600D01*
X228693400Y-127306600D02*
X229000000Y-127000000D01*
X122000000Y-42000000D02*
X122000000Y-51000000D01*
X122000000Y-51000000D02*
X126000000Y-55000000D01*
X104000000Y-39000000D02*
X105565100Y-40565100D01*
X105565100Y-40565100D02*
X107784900Y-40565100D01*
X107784900Y-40565100D02*
X107850400Y-40499600D01*
X107850400Y-40499600D02*
X120499600Y-40499600D01*
X120499600Y-40499600D02*
X122000000Y-42000000D01*
X234620000Y-59000000D02*
X235920300Y-59000000D01*
X235920300Y-59000000D02*
X239920300Y-55000000D01*
X239920300Y-55000000D02*
X247000000Y-55000000D01*
X243143900Y-29856100D02*
X242375000Y-29087200D01*
X242375000Y-29087200D02*
X242375000Y-28000000D01*
X214620000Y-59000000D02*
X215920300Y-59000000D01*
X215920300Y-59000000D02*
X219920300Y-55000000D01*
X219920300Y-55000000D02*
X227000000Y-55000000D01*
X248380000Y-123000000D02*
X247079700Y-123000000D01*
X229000000Y-127000000D02*
X231010000Y-124990000D01*
X231010000Y-124990000D02*
X245089700Y-124990000D01*
X245089700Y-124990000D02*
X247079700Y-123000000D01*
X243143900Y-26143800D02*
X244231200Y-26143800D01*
X244231200Y-26143800D02*
X245000000Y-25375000D01*
X246856200Y-26143800D02*
X245768800Y-26143800D01*
X245768800Y-26143800D02*
X245000000Y-25375000D01*
X194620000Y-59000000D02*
X195920300Y-59000000D01*
X195920300Y-59000000D02*
X199920300Y-55000000D01*
X199920300Y-55000000D02*
X207000000Y-55000000D01*
X94000000Y-72000000D02*
X94000000Y-69680300D01*
X94000000Y-69680300D02*
X98000000Y-65680300D01*
X98000000Y-64380000D02*
X98000000Y-65680300D01*
X94000000Y-72000000D02*
X84080300Y-72000000D01*
X84080300Y-72000000D02*
X81920300Y-74160000D01*
X63143900Y-133143800D02*
X64231200Y-133143800D01*
X64231200Y-133143800D02*
X65000000Y-132375000D01*
X66856200Y-133143800D02*
X65768800Y-133143800D01*
X65768800Y-133143800D02*
X65000000Y-132375000D01*
X154620000Y-59000000D02*
X155920300Y-59000000D01*
X155920300Y-59000000D02*
X159920300Y-55000000D01*
X159920300Y-55000000D02*
X167000000Y-55000000D01*
X214620000Y-99000000D02*
X215920300Y-99000000D01*
X236620000Y-100000000D02*
X235319700Y-100000000D01*
X235319700Y-100000000D02*
X234019300Y-98699600D01*
X234019300Y-98699600D02*
X216220700Y-98699600D01*
X216220700Y-98699600D02*
X215920300Y-99000000D01*
X80620000Y-74160000D02*
X81920300Y-74160000D01*
D24*
%TO.N,Net-(DECWrite1-Pad10)*%
X103080000Y-90000000D02*
X101828800Y-91251200D01*
X101828800Y-91251200D02*
X78516500Y-91251200D01*
X78516500Y-91251200D02*
X74125300Y-86860000D01*
X73000000Y-86860000D02*
X74125300Y-86860000D01*
%TO.N,Net-(DECWrite1-Pad9)*%
X73000000Y-84320000D02*
X73000000Y-85445300D01*
X108160000Y-90000000D02*
X106455600Y-91704400D01*
X106455600Y-91704400D02*
X76242100Y-91704400D01*
X76242100Y-91704400D02*
X71874700Y-87337000D01*
X71874700Y-87337000D02*
X71874700Y-86289200D01*
X71874700Y-86289200D02*
X72718600Y-85445300D01*
X72718600Y-85445300D02*
X73000000Y-85445300D01*
%TO.N,Net-(DECWrite1-Pad7)*%
X73000000Y-79240000D02*
X74125300Y-79240000D01*
X110700000Y-82380000D02*
X109574700Y-82380000D01*
X109574700Y-82380000D02*
X109574700Y-82661300D01*
X109574700Y-82661300D02*
X108510600Y-83725400D01*
X108510600Y-83725400D02*
X81825600Y-83725400D01*
X81825600Y-83725400D02*
X81150200Y-83050000D01*
X81150200Y-83050000D02*
X77935300Y-83050000D01*
X77935300Y-83050000D02*
X74125300Y-79240000D01*
%TO.N,Net-(DECWrite1-Pad15)*%
X96874700Y-72000000D02*
X92174700Y-76700000D01*
X92174700Y-76700000D02*
X80620000Y-76700000D01*
X98000000Y-72000000D02*
X96874700Y-72000000D01*
%TO.N,Net-(DECWrite1-Pad14)*%
X103080000Y-72000000D02*
X101954700Y-72000000D01*
X101954700Y-72000000D02*
X101954700Y-72281300D01*
X101954700Y-72281300D02*
X94996000Y-79240000D01*
X94996000Y-79240000D02*
X80620000Y-79240000D01*
%TO.N,Net-(DECWrite1-Pad13)*%
X80620000Y-81780000D02*
X81745300Y-81780000D01*
X108160000Y-72000000D02*
X107034700Y-72000000D01*
X107034700Y-72000000D02*
X107034700Y-72281300D01*
X107034700Y-72281300D02*
X98661300Y-80654700D01*
X98661300Y-80654700D02*
X82870600Y-80654700D01*
X82870600Y-80654700D02*
X81745300Y-81780000D01*
%TO.N,/W2*%
X207000000Y-106620000D02*
X208125300Y-106620000D01*
X208125300Y-106620000D02*
X209292900Y-105452400D01*
X209292900Y-105452400D02*
X225707100Y-105452400D01*
X225707100Y-105452400D02*
X227874700Y-107620000D01*
X206437400Y-106620000D02*
X207000000Y-106620000D01*
X229000000Y-107620000D02*
X227874700Y-107620000D01*
X256000000Y-114254700D02*
X255718600Y-114254700D01*
X255718600Y-114254700D02*
X254874700Y-113410800D01*
X254874700Y-113410800D02*
X254874700Y-112638300D01*
X254874700Y-112638300D02*
X248726400Y-106490000D01*
X248726400Y-106490000D02*
X235775100Y-106490000D01*
X235775100Y-106490000D02*
X234645100Y-107620000D01*
X234645100Y-107620000D02*
X229000000Y-107620000D01*
X256000000Y-115380000D02*
X256000000Y-114254700D01*
X79080000Y-41000000D02*
X84230400Y-35849600D01*
X84230400Y-35849600D02*
X137389600Y-35849600D01*
X137389600Y-35849600D02*
X138540000Y-37000000D01*
X127125300Y-66620000D02*
X128250600Y-65494700D01*
X128250600Y-65494700D02*
X134817000Y-65494700D01*
X134817000Y-65494700D02*
X135476000Y-66153700D01*
X135476000Y-66153700D02*
X145408400Y-66153700D01*
X145408400Y-66153700D02*
X145874700Y-66620000D01*
X168125300Y-106620000D02*
X168694900Y-106050400D01*
X168694900Y-106050400D02*
X171842600Y-106050400D01*
X171842600Y-106050400D02*
X172398300Y-105494700D01*
X172398300Y-105494700D02*
X176343300Y-105494700D01*
X176343300Y-105494700D02*
X176755100Y-105906500D01*
X176755100Y-105906500D02*
X185161200Y-105906500D01*
X185161200Y-105906500D02*
X185874700Y-106620000D01*
X167000000Y-66620000D02*
X165874700Y-66620000D01*
X187000000Y-66620000D02*
X185874700Y-66620000D01*
X167000000Y-66620000D02*
X168125300Y-66620000D01*
X168125300Y-66620000D02*
X169256700Y-65488600D01*
X169256700Y-65488600D02*
X175567300Y-65488600D01*
X175567300Y-65488600D02*
X176129100Y-66050400D01*
X176129100Y-66050400D02*
X185305100Y-66050400D01*
X185305100Y-66050400D02*
X185874700Y-66620000D01*
X148125300Y-66620000D02*
X149250600Y-65494700D01*
X149250600Y-65494700D02*
X164749400Y-65494700D01*
X164749400Y-65494700D02*
X165874700Y-66620000D01*
X147000000Y-66620000D02*
X145874700Y-66620000D01*
X147000000Y-66620000D02*
X148125300Y-66620000D01*
X126000000Y-66620000D02*
X127125300Y-66620000D01*
X125437400Y-66620000D02*
X126000000Y-66620000D01*
X125437400Y-66620000D02*
X124874700Y-66620000D01*
X73000000Y-69080000D02*
X74125300Y-69080000D01*
X74125300Y-69080000D02*
X74125300Y-68798700D01*
X74125300Y-68798700D02*
X80187500Y-62736500D01*
X80187500Y-62736500D02*
X120991200Y-62736500D01*
X120991200Y-62736500D02*
X124874700Y-66620000D01*
X167000000Y-106620000D02*
X168125300Y-106620000D01*
X187000000Y-106620000D02*
X185874700Y-106620000D01*
X187562700Y-106620000D02*
X187000000Y-106620000D01*
X187562700Y-106620000D02*
X188125300Y-106620000D01*
X146000000Y-106620000D02*
X144874700Y-106620000D01*
X126000000Y-106620000D02*
X127125300Y-106620000D01*
X127125300Y-106620000D02*
X128250600Y-107745300D01*
X128250600Y-107745300D02*
X143749400Y-107745300D01*
X143749400Y-107745300D02*
X144874700Y-106620000D01*
X146000000Y-106620000D02*
X147125300Y-106620000D01*
X167000000Y-106620000D02*
X161218400Y-106620000D01*
X161218400Y-106620000D02*
X160093100Y-105494700D01*
X160093100Y-105494700D02*
X148250600Y-105494700D01*
X148250600Y-105494700D02*
X147125300Y-106620000D01*
X228125300Y-66620000D02*
X229250600Y-65494700D01*
X229250600Y-65494700D02*
X244112500Y-65494700D01*
X244112500Y-65494700D02*
X245237800Y-66620000D01*
X245237800Y-66620000D02*
X245874700Y-66620000D01*
X187562700Y-66620000D02*
X187000000Y-66620000D01*
X187562700Y-66620000D02*
X188125300Y-66620000D01*
X208125300Y-66620000D02*
X209250600Y-65494700D01*
X209250600Y-65494700D02*
X224112500Y-65494700D01*
X224112500Y-65494700D02*
X225237800Y-66620000D01*
X225237800Y-66620000D02*
X225874700Y-66620000D01*
X247000000Y-66620000D02*
X245874700Y-66620000D01*
X227000000Y-66620000D02*
X228125300Y-66620000D01*
X226437400Y-66620000D02*
X227000000Y-66620000D01*
X226437400Y-66620000D02*
X225874700Y-66620000D01*
X188125300Y-66620000D02*
X189250600Y-65494700D01*
X189250600Y-65494700D02*
X204112500Y-65494700D01*
X204112500Y-65494700D02*
X205237800Y-66620000D01*
X205237800Y-66620000D02*
X205874700Y-66620000D01*
X207000000Y-66620000D02*
X208125300Y-66620000D01*
X206437400Y-66620000D02*
X207000000Y-66620000D01*
X206437400Y-66620000D02*
X205874700Y-66620000D01*
X205874700Y-106620000D02*
X205237800Y-106620000D01*
X205237800Y-106620000D02*
X204112500Y-105494700D01*
X204112500Y-105494700D02*
X189250600Y-105494700D01*
X189250600Y-105494700D02*
X188125300Y-106620000D01*
X206437400Y-106620000D02*
X205874700Y-106620000D01*
%TO.N,/W1*%
X126000000Y-64080000D02*
X127125300Y-64080000D01*
X127125300Y-64080000D02*
X128269900Y-62935400D01*
X128269900Y-62935400D02*
X134237600Y-62935400D01*
X134237600Y-62935400D02*
X135382200Y-64080000D01*
X135382200Y-64080000D02*
X147000000Y-64080000D01*
X125437400Y-64080000D02*
X126000000Y-64080000D01*
X125437400Y-64080000D02*
X124874700Y-64080000D01*
X167000000Y-64080000D02*
X165874700Y-64080000D01*
X167000000Y-64080000D02*
X168125300Y-64080000D01*
X168125300Y-64080000D02*
X169258600Y-62946700D01*
X169258600Y-62946700D02*
X176833700Y-62946700D01*
X176833700Y-62946700D02*
X177967000Y-64080000D01*
X177967000Y-64080000D02*
X187000000Y-64080000D01*
X148125300Y-64080000D02*
X148695100Y-63510200D01*
X148695100Y-63510200D02*
X152654500Y-63510200D01*
X152654500Y-63510200D02*
X153210000Y-62954700D01*
X153210000Y-62954700D02*
X164749400Y-62954700D01*
X164749400Y-62954700D02*
X165874700Y-64080000D01*
X147000000Y-64080000D02*
X148125300Y-64080000D01*
X167000000Y-104080000D02*
X172084700Y-104080000D01*
X172084700Y-104080000D02*
X173210100Y-102954600D01*
X173210100Y-102954600D02*
X176841600Y-102954600D01*
X176841600Y-102954600D02*
X177967000Y-104080000D01*
X177967000Y-104080000D02*
X187000000Y-104080000D01*
X166516100Y-104080000D02*
X167000000Y-104080000D01*
X187000000Y-104080000D02*
X188125300Y-104080000D01*
X188125300Y-104080000D02*
X189250600Y-102954700D01*
X189250600Y-102954700D02*
X204035500Y-102954700D01*
X204035500Y-102954700D02*
X205160800Y-104080000D01*
X205160800Y-104080000D02*
X205874700Y-104080000D01*
X165874700Y-104080000D02*
X164749400Y-102954700D01*
X164749400Y-102954700D02*
X148250600Y-102954700D01*
X148250600Y-102954700D02*
X147125300Y-104080000D01*
X146000000Y-104080000D02*
X144874700Y-104080000D01*
X126000000Y-104080000D02*
X127125300Y-104080000D01*
X127125300Y-104080000D02*
X128250600Y-105205300D01*
X128250600Y-105205300D02*
X143749400Y-105205300D01*
X143749400Y-105205300D02*
X144874700Y-104080000D01*
X74125300Y-66540000D02*
X78379100Y-62286200D01*
X78379100Y-62286200D02*
X123080900Y-62286200D01*
X123080900Y-62286200D02*
X124874700Y-64080000D01*
X146000000Y-104080000D02*
X147125300Y-104080000D01*
X229000000Y-105080000D02*
X230125300Y-105080000D01*
X256000000Y-117920000D02*
X256000000Y-116794700D01*
X256000000Y-116794700D02*
X256281300Y-116794700D01*
X256281300Y-116794700D02*
X257172100Y-115903900D01*
X257172100Y-115903900D02*
X257172100Y-112384700D01*
X257172100Y-112384700D02*
X256356700Y-111569300D01*
X256356700Y-111569300D02*
X255672100Y-111569300D01*
X255672100Y-111569300D02*
X250584100Y-106481300D01*
X250584100Y-106481300D02*
X250584100Y-105805900D01*
X250584100Y-105805900D02*
X248732900Y-103954700D01*
X248732900Y-103954700D02*
X231250600Y-103954700D01*
X231250600Y-103954700D02*
X230125300Y-105080000D01*
X73000000Y-66540000D02*
X74125300Y-66540000D01*
X247000000Y-64080000D02*
X245874700Y-64080000D01*
X227000000Y-64080000D02*
X232084700Y-64080000D01*
X232084700Y-64080000D02*
X233210000Y-62954700D01*
X233210000Y-62954700D02*
X244749400Y-62954700D01*
X244749400Y-62954700D02*
X245874700Y-64080000D01*
X226437400Y-64080000D02*
X227000000Y-64080000D01*
X226437400Y-64080000D02*
X225874700Y-64080000D01*
X207000000Y-64080000D02*
X212084700Y-64080000D01*
X212084700Y-64080000D02*
X213210000Y-62954700D01*
X213210000Y-62954700D02*
X224749400Y-62954700D01*
X224749400Y-62954700D02*
X225874700Y-64080000D01*
X206437400Y-64080000D02*
X207000000Y-64080000D01*
X206437400Y-64080000D02*
X205874700Y-64080000D01*
X187000000Y-64080000D02*
X192084700Y-64080000D01*
X192084700Y-64080000D02*
X193210000Y-62954700D01*
X193210000Y-62954700D02*
X204749400Y-62954700D01*
X204749400Y-62954700D02*
X205874700Y-64080000D01*
X207000000Y-104080000D02*
X208125300Y-104080000D01*
X229000000Y-105080000D02*
X227874700Y-105080000D01*
X227874700Y-105080000D02*
X225749400Y-102954700D01*
X225749400Y-102954700D02*
X209250600Y-102954700D01*
X209250600Y-102954700D02*
X208125300Y-104080000D01*
X207000000Y-104080000D02*
X205874700Y-104080000D01*
X166516100Y-104080000D02*
X165874700Y-104080000D01*
%TO.N,Net-(DECWrite1-Pad11)*%
X98000000Y-90000000D02*
X96874700Y-90000000D01*
X96874700Y-90000000D02*
X93734700Y-86860000D01*
X93734700Y-86860000D02*
X80620000Y-86860000D01*
%TO.N,/W0*%
X146000000Y-101540000D02*
X144874700Y-101540000D01*
X126000000Y-101540000D02*
X127125300Y-101540000D01*
X127125300Y-101540000D02*
X128250600Y-102665300D01*
X128250600Y-102665300D02*
X143749400Y-102665300D01*
X143749400Y-102665300D02*
X144874700Y-101540000D01*
X136000000Y-38150300D02*
X136000000Y-46808100D01*
X136000000Y-46808100D02*
X127167000Y-55641100D01*
X127167000Y-55641100D02*
X127167000Y-59330900D01*
X127167000Y-59330900D02*
X128250700Y-60414600D01*
X167000000Y-101540000D02*
X165874700Y-101540000D01*
X146000000Y-101540000D02*
X147125300Y-101540000D01*
X147125300Y-101540000D02*
X148250600Y-100414700D01*
X148250600Y-100414700D02*
X164749400Y-100414700D01*
X164749400Y-100414700D02*
X165874700Y-101540000D01*
X147000000Y-61540000D02*
X145874700Y-61540000D01*
X128250700Y-60414600D02*
X144749300Y-60414600D01*
X144749300Y-60414600D02*
X145874700Y-61540000D01*
X127125300Y-61540000D02*
X128250700Y-60414600D01*
X74240500Y-61540000D02*
X74240500Y-42315800D01*
X74240500Y-42315800D02*
X74000000Y-42075300D01*
X73000000Y-62874700D02*
X74240500Y-61634200D01*
X74240500Y-61634200D02*
X74240500Y-61540000D01*
X74240500Y-61540000D02*
X124874700Y-61540000D01*
X126000000Y-61540000D02*
X124874700Y-61540000D01*
X136000000Y-37000000D02*
X136000000Y-38150300D01*
X74000000Y-41000000D02*
X74000000Y-42075300D01*
X73000000Y-64000000D02*
X73000000Y-62874700D01*
X187000000Y-101540000D02*
X185874700Y-101540000D01*
X167000000Y-101540000D02*
X168125300Y-101540000D01*
X168125300Y-101540000D02*
X169250600Y-100414700D01*
X169250600Y-100414700D02*
X184749400Y-100414700D01*
X184749400Y-100414700D02*
X185874700Y-101540000D01*
X147000000Y-61540000D02*
X148125300Y-61540000D01*
X167000000Y-61540000D02*
X165874700Y-61540000D01*
X167000000Y-61540000D02*
X168125300Y-61540000D01*
X168125300Y-61540000D02*
X169250600Y-60414700D01*
X169250600Y-60414700D02*
X184749400Y-60414700D01*
X184749400Y-60414700D02*
X185874700Y-61540000D01*
X165874700Y-61540000D02*
X164749400Y-60414700D01*
X164749400Y-60414700D02*
X149250600Y-60414700D01*
X149250600Y-60414700D02*
X148125300Y-61540000D01*
X227000000Y-61540000D02*
X225874700Y-61540000D01*
X206437400Y-61540000D02*
X207562700Y-60414700D01*
X207562700Y-60414700D02*
X224749400Y-60414700D01*
X224749400Y-60414700D02*
X225874700Y-61540000D01*
X206437400Y-61540000D02*
X205874700Y-61540000D01*
X207000000Y-61540000D02*
X206437400Y-61540000D01*
X247000000Y-61540000D02*
X245874700Y-61540000D01*
X227000000Y-61540000D02*
X228125300Y-61540000D01*
X228125300Y-61540000D02*
X229250600Y-60414700D01*
X229250600Y-60414700D02*
X244749400Y-60414700D01*
X244749400Y-60414700D02*
X245874700Y-61540000D01*
X229000000Y-102540000D02*
X227874700Y-102540000D01*
X207000000Y-101540000D02*
X208125300Y-101540000D01*
X208125300Y-101540000D02*
X209254700Y-100410600D01*
X209254700Y-100410600D02*
X225745300Y-100410600D01*
X225745300Y-100410600D02*
X227874700Y-102540000D01*
X206437400Y-101540000D02*
X207000000Y-101540000D01*
X229000000Y-102540000D02*
X230125300Y-102540000D01*
X230125300Y-102540000D02*
X231255300Y-101410000D01*
X231255300Y-101410000D02*
X251400500Y-101410000D01*
X251400500Y-101410000D02*
X253940500Y-103950000D01*
X253940500Y-103950000D02*
X256329900Y-103950000D01*
X256329900Y-103950000D02*
X258093900Y-105714000D01*
X258093900Y-105714000D02*
X258093900Y-118366100D01*
X258093900Y-118366100D02*
X256000000Y-120460000D01*
X126000000Y-61540000D02*
X127125300Y-61540000D01*
X187000000Y-61540000D02*
X185874700Y-61540000D01*
X206437400Y-101540000D02*
X205874700Y-101540000D01*
X187000000Y-61540000D02*
X188125300Y-61540000D01*
X188125300Y-61540000D02*
X189250600Y-60414700D01*
X189250600Y-60414700D02*
X204749400Y-60414700D01*
X204749400Y-60414700D02*
X205874700Y-61540000D01*
X188125300Y-101540000D02*
X189250600Y-100414700D01*
X189250600Y-100414700D02*
X204749400Y-100414700D01*
X204749400Y-100414700D02*
X205874700Y-101540000D01*
X187000000Y-101540000D02*
X188125300Y-101540000D01*
%TO.N,~AEO6*%
X256000000Y-123000000D02*
X254874700Y-123000000D01*
X74000000Y-120320000D02*
X74000000Y-121445300D01*
X74000000Y-121445300D02*
X73718700Y-121445300D01*
X73718700Y-121445300D02*
X72752900Y-122411100D01*
X72752900Y-122411100D02*
X72752900Y-127521400D01*
X72752900Y-127521400D02*
X74457300Y-129225800D01*
X74457300Y-129225800D02*
X248648900Y-129225800D01*
X248648900Y-129225800D02*
X254874700Y-123000000D01*
%TO.N,~AEO0*%
X126000000Y-99000000D02*
X124874700Y-99000000D01*
X81620000Y-112700000D02*
X82745300Y-112700000D01*
X82745300Y-112700000D02*
X88095300Y-107350000D01*
X88095300Y-107350000D02*
X116524700Y-107350000D01*
X116524700Y-107350000D02*
X124874700Y-99000000D01*
%TO.N,~AEO1*%
X146000000Y-99000000D02*
X144874700Y-99000000D01*
X81620000Y-115240000D02*
X82745300Y-115240000D01*
X82745300Y-115240000D02*
X88050600Y-109934700D01*
X88050600Y-109934700D02*
X115070000Y-109934700D01*
X115070000Y-109934700D02*
X124590100Y-100414600D01*
X124590100Y-100414600D02*
X143460100Y-100414600D01*
X143460100Y-100414600D02*
X144874700Y-99000000D01*
%TO.N,/X2*%
X74000000Y-105080000D02*
X64840000Y-105080000D01*
X64840000Y-105080000D02*
X61000000Y-108920000D01*
%TO.N,~BEO5*%
X227000000Y-57874700D02*
X228266500Y-56608200D01*
X228266500Y-56608200D02*
X228266500Y-54452600D01*
X228266500Y-54452600D02*
X227060300Y-53246400D01*
X227060300Y-53246400D02*
X131881200Y-53246400D01*
X131881200Y-53246400D02*
X128209500Y-56918100D01*
X227000000Y-59000000D02*
X227000000Y-57874700D01*
%TO.N,~BEO6*%
X101125300Y-121320000D02*
X104790700Y-124985400D01*
X104790700Y-124985400D02*
X124607600Y-124985400D01*
X124607600Y-124985400D02*
X125525500Y-124067500D01*
X125525500Y-124067500D02*
X213992300Y-124067500D01*
X213992300Y-124067500D02*
X214493200Y-123566600D01*
X100000000Y-121320000D02*
X101125300Y-121320000D01*
%TO.N,~BEO7*%
X127927300Y-55906500D02*
X142094300Y-41739500D01*
X142094300Y-41739500D02*
X209260500Y-41739500D01*
X209260500Y-41739500D02*
X214000000Y-37000000D01*
%TO.N,~BEO2*%
X167000000Y-57874700D02*
X168316200Y-56558500D01*
X168316200Y-56558500D02*
X168316200Y-54535600D01*
X168316200Y-54535600D02*
X167525800Y-53745200D01*
X167525800Y-53745200D02*
X150177400Y-53745200D01*
X150177400Y-53745200D02*
X144238300Y-59684300D01*
X144238300Y-59684300D02*
X142496600Y-59684300D01*
X167000000Y-59000000D02*
X167000000Y-57874700D01*
%TO.N,/Y2*%
X61000000Y-71920000D02*
X59730000Y-73190000D01*
X59730000Y-73190000D02*
X59730000Y-74763000D01*
X59730000Y-74763000D02*
X58763000Y-75730000D01*
X58763000Y-75730000D02*
X58181700Y-75730000D01*
X58181700Y-75730000D02*
X57361500Y-76550200D01*
X57361500Y-76550200D02*
X57361500Y-77440500D01*
X57361500Y-77440500D02*
X77877900Y-97956900D01*
X77877900Y-97956900D02*
X90751600Y-97956900D01*
X90751600Y-97956900D02*
X98874700Y-106080000D01*
X100000000Y-106080000D02*
X98874700Y-106080000D01*
%TO.N,/Y1*%
X100000000Y-103540000D02*
X98874700Y-103540000D01*
X98874700Y-103540000D02*
X92841200Y-97506500D01*
X92841200Y-97506500D02*
X79537700Y-97506500D01*
X79537700Y-97506500D02*
X59924600Y-77893400D01*
X59924600Y-77893400D02*
X59924600Y-75535400D01*
X59924600Y-75535400D02*
X61000000Y-74460000D01*
%TO.N,~BEO4*%
X107620000Y-123860000D02*
X108745300Y-123860000D01*
X108745300Y-123860000D02*
X109369500Y-123235800D01*
X109369500Y-123235800D02*
X188982700Y-123235800D01*
%TO.N,/Y0*%
X100000000Y-101000000D02*
X98874700Y-101000000D01*
X98874700Y-101000000D02*
X94771700Y-96897000D01*
X94771700Y-96897000D02*
X79821700Y-96897000D01*
X79821700Y-96897000D02*
X61000000Y-78075300D01*
X61000000Y-77000000D02*
X61000000Y-78075300D01*
%TO.N,LE2*%
X110700000Y-73125300D02*
X110700000Y-74295600D01*
X110700000Y-74295600D02*
X120198100Y-83793700D01*
X120198100Y-83793700D02*
X171001100Y-83793700D01*
X171001100Y-83793700D02*
X172934800Y-81860000D01*
X172934800Y-81860000D02*
X173494700Y-81860000D01*
X110700000Y-72000000D02*
X110700000Y-73125300D01*
X174620000Y-81860000D02*
X173494700Y-81860000D01*
%TO.N,LE1*%
X111244100Y-77171900D02*
X119041500Y-84969300D01*
X119041500Y-84969300D02*
X154339400Y-84969300D01*
%TO.N,LE0*%
X100540000Y-72000000D02*
X104306700Y-68233300D01*
X104306700Y-68233300D02*
X108444200Y-68233300D01*
X108444200Y-68233300D02*
X111970000Y-64707500D01*
X111970000Y-64707500D02*
X111970000Y-64013800D01*
X111970000Y-64013800D02*
X112745200Y-63238600D01*
X112745200Y-63238600D02*
X113721300Y-63238600D01*
X113721300Y-63238600D02*
X123469200Y-72986500D01*
X123469200Y-72986500D02*
X123469200Y-78407100D01*
X123469200Y-78407100D02*
X125507500Y-80445400D01*
X125507500Y-80445400D02*
X126770100Y-80445400D01*
X126770100Y-80445400D02*
X128184700Y-81860000D01*
X128184700Y-81860000D02*
X133620000Y-81860000D01*
%TO.N,LE3*%
X113240000Y-65505300D02*
X109541100Y-69204200D01*
X109541100Y-69204200D02*
X109541100Y-73773600D01*
X109541100Y-73773600D02*
X120011500Y-84244000D01*
X120011500Y-84244000D02*
X155597900Y-84244000D01*
X155597900Y-84244000D02*
X155761300Y-84407400D01*
X155761300Y-84407400D02*
X190947300Y-84407400D01*
X190947300Y-84407400D02*
X193494700Y-81860000D01*
X194620000Y-81860000D02*
X193494700Y-81860000D01*
X113240000Y-64380000D02*
X113240000Y-65505300D01*
%TO.N,LE6*%
X246933000Y-92001200D02*
X113404500Y-92001200D01*
X113404500Y-92001200D02*
X111825300Y-90422000D01*
X111825300Y-90422000D02*
X111825300Y-90000000D01*
X247254700Y-100140000D02*
X247254700Y-92322900D01*
X247254700Y-92322900D02*
X246933000Y-92001200D01*
X246933000Y-92001200D02*
X254620000Y-84314200D01*
X254620000Y-84314200D02*
X254620000Y-82985300D01*
X254620000Y-81860000D02*
X254620000Y-82985300D01*
X248380000Y-100140000D02*
X247254700Y-100140000D01*
X110700000Y-90000000D02*
X111825300Y-90000000D01*
%TO.N,LE5*%
X233494700Y-81860000D02*
X229301800Y-81860000D01*
X229301800Y-81860000D02*
X223891100Y-87270700D01*
X223891100Y-87270700D02*
X109193300Y-87270700D01*
X109193300Y-87270700D02*
X106745300Y-89718700D01*
X106745300Y-89718700D02*
X106745300Y-90000000D01*
X234620000Y-81860000D02*
X233494700Y-81860000D01*
X105620000Y-90000000D02*
X106745300Y-90000000D01*
%TO.N,LE4*%
X214620000Y-81860000D02*
X209672500Y-81860000D01*
X209672500Y-81860000D02*
X204712100Y-86820400D01*
X204712100Y-86820400D02*
X104563600Y-86820400D01*
X104563600Y-86820400D02*
X101665300Y-89718700D01*
X101665300Y-89718700D02*
X101665300Y-90000000D01*
X100540000Y-90000000D02*
X101665300Y-90000000D01*
%TO.N,/A0*%
X153620000Y-101540000D02*
X164149000Y-101540000D01*
X164149000Y-101540000D02*
X165274300Y-102665300D01*
X165274300Y-102665300D02*
X172369400Y-102665300D01*
X172369400Y-102665300D02*
X173494700Y-101540000D01*
X194620000Y-101540000D02*
X188762200Y-101540000D01*
X188762200Y-101540000D02*
X187629000Y-102673200D01*
X187629000Y-102673200D02*
X177515500Y-102673200D01*
X177515500Y-102673200D02*
X176382300Y-101540000D01*
X176382300Y-101540000D02*
X175745300Y-101540000D01*
X174620000Y-101540000D02*
X175745300Y-101540000D01*
X174057400Y-101540000D02*
X174620000Y-101540000D01*
X213494700Y-101684600D02*
X225532500Y-101684600D01*
X225532500Y-101684600D02*
X227521100Y-103673200D01*
X227521100Y-103673200D02*
X229629000Y-103673200D01*
X229629000Y-103673200D02*
X230762200Y-102540000D01*
X230762200Y-102540000D02*
X236620000Y-102540000D01*
X194620000Y-101540000D02*
X203334700Y-101540000D01*
X203334700Y-101540000D02*
X204467900Y-102673200D01*
X204467900Y-102673200D02*
X207629000Y-102673200D01*
X207629000Y-102673200D02*
X208617600Y-101684600D01*
X208617600Y-101684600D02*
X213494700Y-101684600D01*
X213494700Y-101540000D02*
X213494700Y-101684600D01*
X214620000Y-101540000D02*
X213494700Y-101540000D01*
X174057400Y-101540000D02*
X173494700Y-101540000D01*
%TO.N,/W7*%
X187000000Y-119320000D02*
X192084700Y-119320000D01*
X192084700Y-119320000D02*
X193211000Y-118193700D01*
X193211000Y-118193700D02*
X195255900Y-118193700D01*
X195255900Y-118193700D02*
X196382200Y-119320000D01*
X196382200Y-119320000D02*
X207000000Y-119320000D01*
X186437400Y-119320000D02*
X187000000Y-119320000D01*
X147000000Y-79320000D02*
X148125300Y-79320000D01*
X167000000Y-79320000D02*
X165874700Y-79320000D01*
X165874700Y-79320000D02*
X164749400Y-80445300D01*
X164749400Y-80445300D02*
X149250600Y-80445300D01*
X149250600Y-80445300D02*
X148125300Y-79320000D01*
X207000000Y-119320000D02*
X208125300Y-119320000D01*
X227000000Y-79320000D02*
X228125300Y-79320000D01*
X247000000Y-79320000D02*
X237545600Y-79320000D01*
X237545600Y-79320000D02*
X236420300Y-78194700D01*
X236420300Y-78194700D02*
X229250600Y-78194700D01*
X229250600Y-78194700D02*
X228125300Y-79320000D01*
X207000000Y-79320000D02*
X208125300Y-79320000D01*
X227000000Y-79320000D02*
X225874700Y-79320000D01*
X225874700Y-79320000D02*
X224749400Y-78194700D01*
X224749400Y-78194700D02*
X209250600Y-78194700D01*
X209250600Y-78194700D02*
X208125300Y-79320000D01*
X229000000Y-120320000D02*
X218418900Y-120320000D01*
X218418900Y-120320000D02*
X216293600Y-118194700D01*
X216293600Y-118194700D02*
X209250600Y-118194700D01*
X209250600Y-118194700D02*
X208125300Y-119320000D01*
X188125300Y-79320000D02*
X189250600Y-78194700D01*
X189250600Y-78194700D02*
X196266200Y-78194700D01*
X196266200Y-78194700D02*
X197391500Y-79320000D01*
X197391500Y-79320000D02*
X207000000Y-79320000D01*
X187000000Y-79320000D02*
X188125300Y-79320000D01*
X186437400Y-119320000D02*
X185874700Y-119320000D01*
X145437400Y-119320000D02*
X146565600Y-118191800D01*
X146565600Y-118191800D02*
X154254000Y-118191800D01*
X154254000Y-118191800D02*
X155382200Y-119320000D01*
X155382200Y-119320000D02*
X167000000Y-119320000D01*
X145437400Y-119320000D02*
X144874700Y-119320000D01*
X146000000Y-119320000D02*
X145437400Y-119320000D01*
X126000000Y-119320000D02*
X127125300Y-119320000D01*
X127125300Y-119320000D02*
X128250600Y-118194700D01*
X128250600Y-118194700D02*
X143749400Y-118194700D01*
X143749400Y-118194700D02*
X144874700Y-119320000D01*
X145874700Y-79320000D02*
X144749300Y-80445400D01*
X144749300Y-80445400D02*
X128250700Y-80445400D01*
X128250700Y-80445400D02*
X127125300Y-79320000D01*
X126000000Y-79320000D02*
X127125300Y-79320000D01*
X147000000Y-79320000D02*
X145874700Y-79320000D01*
X167000000Y-119320000D02*
X168125300Y-119320000D01*
X168125300Y-119320000D02*
X169250600Y-118194700D01*
X169250600Y-118194700D02*
X184749400Y-118194700D01*
X184749400Y-118194700D02*
X185874700Y-119320000D01*
%TO.N,/A1*%
X194620000Y-104080000D02*
X193494700Y-104080000D01*
X174620000Y-104080000D02*
X175745300Y-104080000D01*
X175745300Y-104080000D02*
X176881600Y-105216300D01*
X176881600Y-105216300D02*
X187953400Y-105216300D01*
X187953400Y-105216300D02*
X189089700Y-104080000D01*
X189089700Y-104080000D02*
X193494700Y-104080000D01*
X174057400Y-104080000D02*
X174620000Y-104080000D01*
X173494700Y-104080000D02*
X172857900Y-104080000D01*
X172857900Y-104080000D02*
X171724600Y-105213300D01*
X171724600Y-105213300D02*
X165423200Y-105213300D01*
X165423200Y-105213300D02*
X164289900Y-104080000D01*
X164289900Y-104080000D02*
X153620000Y-104080000D01*
X174057400Y-104080000D02*
X173494700Y-104080000D01*
X236620000Y-105080000D02*
X235494700Y-105080000D01*
X235494700Y-105080000D02*
X234360100Y-106214600D01*
X234360100Y-106214600D02*
X228372400Y-106214600D01*
X228372400Y-106214600D02*
X226237800Y-104080000D01*
X226237800Y-104080000D02*
X214620000Y-104080000D01*
X214620000Y-104080000D02*
X209535300Y-104080000D01*
X209535300Y-104080000D02*
X208402000Y-105213300D01*
X208402000Y-105213300D02*
X204786300Y-105213300D01*
X204786300Y-105213300D02*
X203653000Y-104080000D01*
X203653000Y-104080000D02*
X194620000Y-104080000D01*
%TO.N,/W6*%
X167000000Y-76780000D02*
X159221000Y-76780000D01*
X159221000Y-76780000D02*
X158089000Y-77912000D01*
X158089000Y-77912000D02*
X153857900Y-77912000D01*
X153857900Y-77912000D02*
X152725900Y-76780000D01*
X152725900Y-76780000D02*
X147000000Y-76780000D01*
X205874700Y-116780000D02*
X196786500Y-116780000D01*
X196786500Y-116780000D02*
X195661200Y-115654700D01*
X195661200Y-115654700D02*
X189250600Y-115654700D01*
X189250600Y-115654700D02*
X188125300Y-116780000D01*
X207000000Y-76780000D02*
X208125300Y-76780000D01*
X208125300Y-76780000D02*
X209250600Y-75654700D01*
X209250600Y-75654700D02*
X224749400Y-75654700D01*
X224749400Y-75654700D02*
X225874700Y-76780000D01*
X187000000Y-76780000D02*
X192084700Y-76780000D01*
X192084700Y-76780000D02*
X193217900Y-75646800D01*
X193217900Y-75646800D02*
X195249000Y-75646800D01*
X195249000Y-75646800D02*
X196382200Y-76780000D01*
X196382200Y-76780000D02*
X207000000Y-76780000D01*
X227000000Y-76780000D02*
X225874700Y-76780000D01*
X168125300Y-116780000D02*
X169250600Y-115654700D01*
X169250600Y-115654700D02*
X183881500Y-115654700D01*
X183881500Y-115654700D02*
X185006800Y-116780000D01*
X185006800Y-116780000D02*
X185874700Y-116780000D01*
X256000000Y-106345300D02*
X256213600Y-106345300D01*
X256213600Y-106345300D02*
X257631200Y-107762900D01*
X257631200Y-107762900D02*
X257631200Y-117951200D01*
X257631200Y-117951200D02*
X256529500Y-119052900D01*
X256529500Y-119052900D02*
X239554000Y-119052900D01*
X239554000Y-119052900D02*
X237123700Y-116622600D01*
X237123700Y-116622600D02*
X235977200Y-116622600D01*
X235977200Y-116622600D02*
X235270200Y-117329600D01*
X235270200Y-117329600D02*
X229138700Y-117329600D01*
X229138700Y-117329600D02*
X228688300Y-117780000D01*
X228688300Y-117780000D02*
X223936800Y-117780000D01*
X256000000Y-105220000D02*
X256000000Y-106345300D01*
X223936800Y-117780000D02*
X229000000Y-117780000D01*
X207000000Y-116780000D02*
X212084700Y-116780000D01*
X212084700Y-116780000D02*
X213269600Y-115595100D01*
X213269600Y-115595100D02*
X216688600Y-115595100D01*
X216688600Y-115595100D02*
X218873500Y-117780000D01*
X218873500Y-117780000D02*
X223936800Y-117780000D01*
X207000000Y-116780000D02*
X205874700Y-116780000D01*
X187000000Y-116780000D02*
X188125300Y-116780000D01*
X167000000Y-116780000D02*
X165874700Y-116780000D01*
X151983900Y-115598400D02*
X154528100Y-115598400D01*
X154528100Y-115598400D02*
X155709700Y-116780000D01*
X155709700Y-116780000D02*
X165874700Y-116780000D01*
X146437400Y-76780000D02*
X147000000Y-76780000D01*
X146437400Y-76780000D02*
X145874700Y-76780000D01*
X186437400Y-116780000D02*
X187000000Y-116780000D01*
X186437400Y-116780000D02*
X185874700Y-116780000D01*
X145874700Y-76780000D02*
X144749400Y-77905300D01*
X144749400Y-77905300D02*
X128250600Y-77905300D01*
X128250600Y-77905300D02*
X127125300Y-76780000D01*
X126000000Y-76780000D02*
X127125300Y-76780000D01*
X167000000Y-116780000D02*
X168125300Y-116780000D01*
%TO.N,/A2*%
X214620000Y-106620000D02*
X225464700Y-106620000D01*
X225464700Y-106620000D02*
X227590000Y-108745300D01*
X227590000Y-108745300D02*
X234369400Y-108745300D01*
X234369400Y-108745300D02*
X235494700Y-107620000D01*
X236620000Y-107620000D02*
X235494700Y-107620000D01*
X214057400Y-106620000D02*
X214620000Y-106620000D01*
X214057400Y-106620000D02*
X213494700Y-106620000D01*
X213494700Y-106620000D02*
X208762200Y-106620000D01*
X208762200Y-106620000D02*
X207635100Y-107747100D01*
X207635100Y-107747100D02*
X196872400Y-107747100D01*
X196872400Y-107747100D02*
X195745300Y-106620000D01*
X194620000Y-106620000D02*
X195745300Y-106620000D01*
X194057400Y-106620000D02*
X194620000Y-106620000D01*
X194057400Y-106620000D02*
X193494700Y-106620000D01*
X174620000Y-106620000D02*
X184201100Y-106620000D01*
X184201100Y-106620000D02*
X185326400Y-107745300D01*
X185326400Y-107745300D02*
X192369400Y-107745300D01*
X192369400Y-107745300D02*
X193494700Y-106620000D01*
X174057400Y-106620000D02*
X174620000Y-106620000D01*
X174057400Y-106620000D02*
X173494700Y-106620000D01*
X153620000Y-106620000D02*
X154745300Y-106620000D01*
X154745300Y-106620000D02*
X155881600Y-107756300D01*
X155881600Y-107756300D02*
X167953400Y-107756300D01*
X167953400Y-107756300D02*
X169089700Y-106620000D01*
X169089700Y-106620000D02*
X173494700Y-106620000D01*
%TO.N,/W5*%
X247000000Y-74240000D02*
X245874700Y-74240000D01*
X227000000Y-74240000D02*
X228125300Y-74240000D01*
X228125300Y-74240000D02*
X229250600Y-75365300D01*
X229250600Y-75365300D02*
X244749400Y-75365300D01*
X244749400Y-75365300D02*
X245874700Y-74240000D01*
X167000000Y-74240000D02*
X156709700Y-74240000D01*
X156709700Y-74240000D02*
X155573400Y-73103700D01*
X155573400Y-73103700D02*
X153221000Y-73103700D01*
X153221000Y-73103700D02*
X152533400Y-73791300D01*
X152533400Y-73791300D02*
X148574000Y-73791300D01*
X148574000Y-73791300D02*
X148125300Y-74240000D01*
X188125300Y-114240000D02*
X189250600Y-113114700D01*
X189250600Y-113114700D02*
X199339300Y-113114700D01*
X199339300Y-113114700D02*
X200464600Y-114240000D01*
X200464600Y-114240000D02*
X207000000Y-114240000D01*
X146000000Y-114240000D02*
X144874700Y-114240000D01*
X126000000Y-114240000D02*
X127125300Y-114240000D01*
X127125300Y-114240000D02*
X128255200Y-115369900D01*
X128255200Y-115369900D02*
X143744800Y-115369900D01*
X143744800Y-115369900D02*
X144874700Y-114240000D01*
X206437400Y-74240000D02*
X207000000Y-74240000D01*
X187000000Y-114240000D02*
X185874700Y-114240000D01*
X167000000Y-114240000D02*
X168125300Y-114240000D01*
X168125300Y-114240000D02*
X168575700Y-113789600D01*
X168575700Y-113789600D02*
X172535100Y-113789600D01*
X172535100Y-113789600D02*
X173216100Y-113108600D01*
X173216100Y-113108600D02*
X175567300Y-113108600D01*
X175567300Y-113108600D02*
X176129100Y-113670400D01*
X176129100Y-113670400D02*
X185305100Y-113670400D01*
X185305100Y-113670400D02*
X185874700Y-114240000D01*
X147125300Y-114240000D02*
X148258600Y-113106700D01*
X148258600Y-113106700D02*
X155833700Y-113106700D01*
X155833700Y-113106700D02*
X156967000Y-114240000D01*
X156967000Y-114240000D02*
X167000000Y-114240000D01*
X146000000Y-114240000D02*
X147125300Y-114240000D01*
X187000000Y-114240000D02*
X188125300Y-114240000D01*
X207562700Y-114240000D02*
X207000000Y-114240000D01*
X207562700Y-114240000D02*
X208125300Y-114240000D01*
X187000000Y-74240000D02*
X185874700Y-74240000D01*
X167000000Y-74240000D02*
X172084700Y-74240000D01*
X172084700Y-74240000D02*
X173210000Y-73114700D01*
X173210000Y-73114700D02*
X184749400Y-73114700D01*
X184749400Y-73114700D02*
X185874700Y-74240000D01*
X205874700Y-74240000D02*
X196775500Y-74240000D01*
X196775500Y-74240000D02*
X195644100Y-73108600D01*
X195644100Y-73108600D02*
X189256700Y-73108600D01*
X189256700Y-73108600D02*
X188125300Y-74240000D01*
X147000000Y-74240000D02*
X148125300Y-74240000D01*
X127125300Y-74240000D02*
X128250700Y-75365400D01*
X128250700Y-75365400D02*
X134262800Y-75365400D01*
X134262800Y-75365400D02*
X134472600Y-75155600D01*
X134472600Y-75155600D02*
X144959100Y-75155600D01*
X144959100Y-75155600D02*
X145874700Y-74240000D01*
X187000000Y-74240000D02*
X188125300Y-74240000D01*
X146437400Y-74240000D02*
X147000000Y-74240000D01*
X146437400Y-74240000D02*
X145874700Y-74240000D01*
X229000000Y-115240000D02*
X219867400Y-115240000D01*
X219867400Y-115240000D02*
X217742100Y-113114700D01*
X217742100Y-113114700D02*
X209250600Y-113114700D01*
X209250600Y-113114700D02*
X208125300Y-114240000D01*
X206437400Y-74240000D02*
X205874700Y-74240000D01*
X126000000Y-74240000D02*
X127125300Y-74240000D01*
%TO.N,/A3*%
X174620000Y-109160000D02*
X175745300Y-109160000D01*
X194620000Y-109160000D02*
X193494700Y-109160000D01*
X193494700Y-109160000D02*
X193044300Y-109610400D01*
X193044300Y-109610400D02*
X189084900Y-109610400D01*
X189084900Y-109610400D02*
X188410000Y-110285300D01*
X188410000Y-110285300D02*
X176870600Y-110285300D01*
X176870600Y-110285300D02*
X175745300Y-109160000D01*
X214620000Y-109160000D02*
X208762200Y-109160000D01*
X208762200Y-109160000D02*
X207635900Y-110286300D01*
X207635900Y-110286300D02*
X204461000Y-110286300D01*
X204461000Y-110286300D02*
X203334700Y-109160000D01*
X203334700Y-109160000D02*
X194620000Y-109160000D01*
X174620000Y-109160000D02*
X173494700Y-109160000D01*
X154745300Y-109160000D02*
X155870600Y-110285300D01*
X155870600Y-110285300D02*
X172369400Y-110285300D01*
X172369400Y-110285300D02*
X173494700Y-109160000D01*
X153620000Y-109160000D02*
X154745300Y-109160000D01*
X236620000Y-110160000D02*
X235494700Y-110160000D01*
X214620000Y-109160000D02*
X217995900Y-109160000D01*
X217995900Y-109160000D02*
X220121200Y-111285300D01*
X220121200Y-111285300D02*
X234369400Y-111285300D01*
X234369400Y-111285300D02*
X235494700Y-110160000D01*
X236620000Y-110160000D02*
X237745300Y-110160000D01*
X248380000Y-112840000D02*
X248380000Y-111714700D01*
X237745300Y-110160000D02*
X238766800Y-109138500D01*
X238766800Y-109138500D02*
X248850200Y-109138500D01*
X248850200Y-109138500D02*
X249505300Y-109793600D01*
X249505300Y-109793600D02*
X249505300Y-110870800D01*
X249505300Y-110870800D02*
X248661400Y-111714700D01*
X248661400Y-111714700D02*
X248380000Y-111714700D01*
%TO.N,/W4*%
X227000000Y-71700000D02*
X225874700Y-71700000D01*
X225874700Y-71700000D02*
X224749400Y-70574700D01*
X224749400Y-70574700D02*
X212687800Y-70574700D01*
X212687800Y-70574700D02*
X211562500Y-71700000D01*
X211562500Y-71700000D02*
X207000000Y-71700000D01*
X227562700Y-71700000D02*
X227000000Y-71700000D01*
X227562700Y-71700000D02*
X228125300Y-71700000D01*
X188125300Y-71700000D02*
X189250600Y-70574700D01*
X189250600Y-70574700D02*
X199226200Y-70574700D01*
X199226200Y-70574700D02*
X200351500Y-71700000D01*
X200351500Y-71700000D02*
X207000000Y-71700000D01*
X187000000Y-71700000D02*
X188125300Y-71700000D01*
X167000000Y-111700000D02*
X172084700Y-111700000D01*
X172084700Y-111700000D02*
X173217900Y-110566800D01*
X173217900Y-110566800D02*
X175249000Y-110566800D01*
X175249000Y-110566800D02*
X176382200Y-111700000D01*
X176382200Y-111700000D02*
X187000000Y-111700000D01*
X166437400Y-111700000D02*
X167000000Y-111700000D01*
X166437400Y-111700000D02*
X165874700Y-111700000D01*
X187000000Y-111700000D02*
X188125300Y-111700000D01*
X147125300Y-111700000D02*
X148261600Y-110563700D01*
X148261600Y-110563700D02*
X154805900Y-110563700D01*
X154805900Y-110563700D02*
X155475900Y-111233700D01*
X155475900Y-111233700D02*
X165408400Y-111233700D01*
X165408400Y-111233700D02*
X165874700Y-111700000D01*
X146000000Y-111700000D02*
X147125300Y-111700000D01*
X145437400Y-111700000D02*
X146000000Y-111700000D01*
X145437400Y-111700000D02*
X144874700Y-111700000D01*
X228125300Y-71700000D02*
X229250600Y-70574700D01*
X229250600Y-70574700D02*
X243733200Y-70574700D01*
X243733200Y-70574700D02*
X244858500Y-71700000D01*
X244858500Y-71700000D02*
X245874700Y-71700000D01*
X126000000Y-111700000D02*
X127125300Y-111700000D01*
X127125300Y-111700000D02*
X128250600Y-112825300D01*
X128250600Y-112825300D02*
X143749400Y-112825300D01*
X143749400Y-112825300D02*
X144874700Y-111700000D01*
X207000000Y-111700000D02*
X208125300Y-111700000D01*
X188125300Y-111700000D02*
X189261600Y-110563700D01*
X189261600Y-110563700D02*
X204024500Y-110563700D01*
X204024500Y-110563700D02*
X205160800Y-111700000D01*
X205160800Y-111700000D02*
X205874700Y-111700000D01*
X187000000Y-71700000D02*
X185874700Y-71700000D01*
X167000000Y-71700000D02*
X168125300Y-71700000D01*
X168125300Y-71700000D02*
X169250600Y-70574700D01*
X169250600Y-70574700D02*
X184749400Y-70574700D01*
X184749400Y-70574700D02*
X185874700Y-71700000D01*
X166437400Y-71700000D02*
X167000000Y-71700000D01*
X166437400Y-71700000D02*
X165874700Y-71700000D01*
X229000000Y-112700000D02*
X219792500Y-112700000D01*
X219792500Y-112700000D02*
X217667200Y-110574700D01*
X217667200Y-110574700D02*
X209250600Y-110574700D01*
X209250600Y-110574700D02*
X208125300Y-111700000D01*
X147000000Y-71700000D02*
X145874700Y-71700000D01*
X126000000Y-71700000D02*
X127125300Y-71700000D01*
X127125300Y-71700000D02*
X128250600Y-72825300D01*
X128250600Y-72825300D02*
X144749400Y-72825300D01*
X144749400Y-72825300D02*
X145874700Y-71700000D01*
X147000000Y-71700000D02*
X148125300Y-71700000D01*
X165874700Y-71700000D02*
X164749400Y-70574700D01*
X164749400Y-70574700D02*
X149250600Y-70574700D01*
X149250600Y-70574700D02*
X148125300Y-71700000D01*
X247000000Y-71700000D02*
X245874700Y-71700000D01*
X207000000Y-111700000D02*
X205874700Y-111700000D01*
%TO.N,/A4*%
X194620000Y-111700000D02*
X198638500Y-111700000D01*
X198638500Y-111700000D02*
X199771700Y-112833200D01*
X199771700Y-112833200D02*
X207629000Y-112833200D01*
X207629000Y-112833200D02*
X208762200Y-111700000D01*
X208762200Y-111700000D02*
X214620000Y-111700000D01*
X194057400Y-111700000D02*
X194620000Y-111700000D01*
X194057400Y-111700000D02*
X193494700Y-111700000D01*
X173494700Y-111700000D02*
X172369400Y-112825300D01*
X172369400Y-112825300D02*
X156507600Y-112825300D01*
X156507600Y-112825300D02*
X155382300Y-111700000D01*
X155382300Y-111700000D02*
X154745300Y-111700000D01*
X174620000Y-111700000D02*
X173494700Y-111700000D01*
X153620000Y-111700000D02*
X154745300Y-111700000D01*
X174620000Y-111700000D02*
X175745300Y-111700000D01*
X175745300Y-111700000D02*
X176881600Y-112836300D01*
X176881600Y-112836300D02*
X187953400Y-112836300D01*
X187953400Y-112836300D02*
X189089700Y-111700000D01*
X189089700Y-111700000D02*
X193494700Y-111700000D01*
X235494700Y-112700000D02*
X234361400Y-113833300D01*
X234361400Y-113833300D02*
X219097600Y-113833300D01*
X219097600Y-113833300D02*
X216964300Y-111700000D01*
X216964300Y-111700000D02*
X215745300Y-111700000D01*
X236620000Y-112700000D02*
X235494700Y-112700000D01*
X214620000Y-111700000D02*
X215745300Y-111700000D01*
X247254700Y-110300000D02*
X244854700Y-112700000D01*
X244854700Y-112700000D02*
X236620000Y-112700000D01*
X248380000Y-110300000D02*
X247254700Y-110300000D01*
%TO.N,/W3*%
X208125300Y-109160000D02*
X209260300Y-108025000D01*
X209260300Y-108025000D02*
X225739700Y-108025000D01*
X225739700Y-108025000D02*
X227874700Y-110160000D01*
X229000000Y-110160000D02*
X227874700Y-110160000D01*
X146000000Y-109160000D02*
X144874700Y-109160000D01*
X126000000Y-109160000D02*
X127125300Y-109160000D01*
X127125300Y-109160000D02*
X128250600Y-110285300D01*
X128250600Y-110285300D02*
X143749400Y-110285300D01*
X143749400Y-110285300D02*
X144874700Y-109160000D01*
X207000000Y-109160000D02*
X205874700Y-109160000D01*
X187000000Y-109160000D02*
X192084700Y-109160000D01*
X192084700Y-109160000D02*
X193220200Y-108024500D01*
X193220200Y-108024500D02*
X195572400Y-108024500D01*
X195572400Y-108024500D02*
X196138300Y-108590400D01*
X196138300Y-108590400D02*
X205305100Y-108590400D01*
X205305100Y-108590400D02*
X205874700Y-109160000D01*
X186437400Y-109160000D02*
X187000000Y-109160000D01*
X167000000Y-69160000D02*
X168125300Y-69160000D01*
X187000000Y-69160000D02*
X181846200Y-69160000D01*
X181846200Y-69160000D02*
X180720900Y-68034700D01*
X180720900Y-68034700D02*
X169250600Y-68034700D01*
X169250600Y-68034700D02*
X168125300Y-69160000D01*
X205874700Y-69160000D02*
X205408300Y-68693600D01*
X205408300Y-68693600D02*
X197182000Y-68693600D01*
X197182000Y-68693600D02*
X196523000Y-68034600D01*
X196523000Y-68034600D02*
X193942200Y-68034600D01*
X193942200Y-68034600D02*
X192816800Y-69160000D01*
X192816800Y-69160000D02*
X187000000Y-69160000D01*
X147000000Y-69160000D02*
X148125300Y-69160000D01*
X167000000Y-69160000D02*
X165874700Y-69160000D01*
X165874700Y-69160000D02*
X164749400Y-68034700D01*
X164749400Y-68034700D02*
X153945100Y-68034700D01*
X153945100Y-68034700D02*
X153286100Y-68693700D01*
X153286100Y-68693700D02*
X148591600Y-68693700D01*
X148591600Y-68693700D02*
X148125300Y-69160000D01*
X207000000Y-109160000D02*
X208125300Y-109160000D01*
X127125300Y-69160000D02*
X128303900Y-67981400D01*
X128303900Y-67981400D02*
X135788400Y-67981400D01*
X135788400Y-67981400D02*
X136967000Y-69160000D01*
X136967000Y-69160000D02*
X147000000Y-69160000D01*
X126000000Y-69160000D02*
X127125300Y-69160000D01*
X186437400Y-109160000D02*
X185874700Y-109160000D01*
X146000000Y-109160000D02*
X147125300Y-109160000D01*
X147125300Y-109160000D02*
X148256700Y-108028600D01*
X148256700Y-108028600D02*
X154567300Y-108028600D01*
X154567300Y-108028600D02*
X155698700Y-109160000D01*
X155698700Y-109160000D02*
X167000000Y-109160000D01*
X228125300Y-69160000D02*
X232538300Y-69160000D01*
X232538300Y-69160000D02*
X233671100Y-68027200D01*
X233671100Y-68027200D02*
X244105000Y-68027200D01*
X244105000Y-68027200D02*
X245237800Y-69160000D01*
X245237800Y-69160000D02*
X245874700Y-69160000D01*
X227000000Y-69160000D02*
X228125300Y-69160000D01*
X247000000Y-69160000D02*
X245874700Y-69160000D01*
X208125300Y-69160000D02*
X209250600Y-68034700D01*
X209250600Y-68034700D02*
X224112500Y-68034700D01*
X224112500Y-68034700D02*
X225237800Y-69160000D01*
X225237800Y-69160000D02*
X225874700Y-69160000D01*
X207000000Y-69160000D02*
X205874700Y-69160000D01*
X207562700Y-69160000D02*
X207000000Y-69160000D01*
X207562700Y-69160000D02*
X208125300Y-69160000D01*
X227000000Y-69160000D02*
X225874700Y-69160000D01*
X167000000Y-109160000D02*
X168125300Y-109160000D01*
X168125300Y-109160000D02*
X169250600Y-108034700D01*
X169250600Y-108034700D02*
X184749400Y-108034700D01*
X184749400Y-108034700D02*
X185874700Y-109160000D01*
%TO.N,/A5*%
X174620000Y-114240000D02*
X183180700Y-114240000D01*
X183180700Y-114240000D02*
X184313900Y-115373200D01*
X184313900Y-115373200D02*
X187629000Y-115373200D01*
X187629000Y-115373200D02*
X188762200Y-114240000D01*
X188762200Y-114240000D02*
X194620000Y-114240000D01*
X154745300Y-114240000D02*
X155870600Y-115365300D01*
X155870600Y-115365300D02*
X168673600Y-115365300D01*
X168673600Y-115365300D02*
X169798900Y-114240000D01*
X169798900Y-114240000D02*
X174620000Y-114240000D01*
X236620000Y-115240000D02*
X237745300Y-115240000D01*
X237745300Y-115240000D02*
X238870600Y-114114700D01*
X238870600Y-114114700D02*
X248706800Y-114114700D01*
X248706800Y-114114700D02*
X250006800Y-112814700D01*
X250006800Y-112814700D02*
X250006800Y-109386800D01*
X250006800Y-109386800D02*
X248380000Y-107760000D01*
X236057400Y-115240000D02*
X236620000Y-115240000D01*
X236057400Y-115240000D02*
X235494700Y-115240000D01*
X214620000Y-114240000D02*
X215745300Y-114240000D01*
X215745300Y-114240000D02*
X217912200Y-114240000D01*
X217912200Y-114240000D02*
X220037500Y-116365300D01*
X220037500Y-116365300D02*
X234369400Y-116365300D01*
X234369400Y-116365300D02*
X235494700Y-115240000D01*
X214057400Y-114240000D02*
X214620000Y-114240000D01*
X214057400Y-114240000D02*
X213494700Y-114240000D01*
X194620000Y-114240000D02*
X195745300Y-114240000D01*
X213494700Y-114240000D02*
X212369400Y-115365300D01*
X212369400Y-115365300D02*
X196870600Y-115365300D01*
X196870600Y-115365300D02*
X195745300Y-114240000D01*
X153620000Y-114240000D02*
X154745300Y-114240000D01*
%TO.N,/A6*%
X213494700Y-116780000D02*
X212925100Y-117349600D01*
X212925100Y-117349600D02*
X208520100Y-117349600D01*
X208520100Y-117349600D02*
X207953400Y-117916300D01*
X207953400Y-117916300D02*
X196881600Y-117916300D01*
X196881600Y-117916300D02*
X195745300Y-116780000D01*
X194620000Y-116780000D02*
X195745300Y-116780000D01*
X194057400Y-116780000D02*
X194620000Y-116780000D01*
X214620000Y-116780000D02*
X213494700Y-116780000D01*
X173494700Y-117688500D02*
X186316900Y-117688500D01*
X186316900Y-117688500D02*
X186533700Y-117905300D01*
X186533700Y-117905300D02*
X192369400Y-117905300D01*
X192369400Y-117905300D02*
X193494700Y-116780000D01*
X194057400Y-116780000D02*
X193494700Y-116780000D01*
X235494700Y-117780000D02*
X234369400Y-118905300D01*
X234369400Y-118905300D02*
X217870600Y-118905300D01*
X217870600Y-118905300D02*
X215745300Y-116780000D01*
X236620000Y-117780000D02*
X235494700Y-117780000D01*
X214620000Y-116780000D02*
X215745300Y-116780000D01*
X153620000Y-116780000D02*
X154745300Y-116780000D01*
X133620000Y-116780000D02*
X143201100Y-116780000D01*
X143201100Y-116780000D02*
X144326400Y-115654700D01*
X144326400Y-115654700D02*
X151014500Y-115654700D01*
X151014500Y-115654700D02*
X152139800Y-116780000D01*
X152139800Y-116780000D02*
X152494700Y-116780000D01*
X173494700Y-117688500D02*
X168626800Y-117688500D01*
X168626800Y-117688500D02*
X168410000Y-117905300D01*
X168410000Y-117905300D02*
X155870600Y-117905300D01*
X155870600Y-117905300D02*
X154745300Y-116780000D01*
X153620000Y-116780000D02*
X152494700Y-116780000D01*
X173494700Y-116780000D02*
X173494700Y-117688500D01*
X174620000Y-116780000D02*
X173494700Y-116780000D01*
%TO.N,/A7*%
X194620000Y-119320000D02*
X193494700Y-119320000D01*
X174620000Y-119320000D02*
X175745300Y-119320000D01*
X175745300Y-119320000D02*
X176870600Y-120445300D01*
X176870600Y-120445300D02*
X192369400Y-120445300D01*
X192369400Y-120445300D02*
X193494700Y-119320000D01*
X174057400Y-119320000D02*
X174620000Y-119320000D01*
X235494700Y-120320000D02*
X234369400Y-121445300D01*
X234369400Y-121445300D02*
X217870600Y-121445300D01*
X217870600Y-121445300D02*
X215745300Y-119320000D01*
X214620000Y-119320000D02*
X213494700Y-119320000D01*
X194620000Y-119320000D02*
X195745300Y-119320000D01*
X195745300Y-119320000D02*
X196870600Y-120445300D01*
X196870600Y-120445300D02*
X212369400Y-120445300D01*
X212369400Y-120445300D02*
X213494700Y-119320000D01*
X153620000Y-119320000D02*
X152494700Y-119320000D01*
X133620000Y-119320000D02*
X134745300Y-119320000D01*
X134745300Y-119320000D02*
X135870600Y-120445300D01*
X135870600Y-120445300D02*
X151369400Y-120445300D01*
X151369400Y-120445300D02*
X152494700Y-119320000D01*
X236620000Y-120320000D02*
X235494700Y-120320000D01*
X214620000Y-119320000D02*
X215745300Y-119320000D01*
X174057400Y-119320000D02*
X173494700Y-119320000D01*
X153620000Y-119320000D02*
X154745300Y-119320000D01*
X154745300Y-119320000D02*
X155870600Y-120445300D01*
X155870600Y-120445300D02*
X172369400Y-120445300D01*
X172369400Y-120445300D02*
X173494700Y-119320000D01*
%TO.N,/B0*%
X193494700Y-61540000D02*
X192369400Y-62665300D01*
X192369400Y-62665300D02*
X177507600Y-62665300D01*
X177507600Y-62665300D02*
X176382300Y-61540000D01*
X176382300Y-61540000D02*
X175745300Y-61540000D01*
X234620000Y-61540000D02*
X244225800Y-61540000D01*
X244225800Y-61540000D02*
X245351100Y-62665300D01*
X245351100Y-62665300D02*
X252369400Y-62665300D01*
X252369400Y-62665300D02*
X253494700Y-61540000D01*
X214620000Y-61540000D02*
X224225800Y-61540000D01*
X224225800Y-61540000D02*
X225351100Y-62665300D01*
X225351100Y-62665300D02*
X232369400Y-62665300D01*
X232369400Y-62665300D02*
X233494700Y-61540000D01*
X254620000Y-61540000D02*
X253494700Y-61540000D01*
X234057400Y-61540000D02*
X234620000Y-61540000D01*
X174620000Y-61540000D02*
X175745300Y-61540000D01*
X234057400Y-61540000D02*
X233494700Y-61540000D01*
X214057400Y-61540000D02*
X214620000Y-61540000D01*
X214057400Y-61540000D02*
X213494700Y-61540000D01*
X194620000Y-61540000D02*
X204379400Y-61540000D01*
X204379400Y-61540000D02*
X205504700Y-62665300D01*
X205504700Y-62665300D02*
X212369400Y-62665300D01*
X212369400Y-62665300D02*
X213494700Y-61540000D01*
X194057400Y-61540000D02*
X194620000Y-61540000D01*
X194057400Y-61540000D02*
X193494700Y-61540000D01*
X153494700Y-61540000D02*
X154620000Y-61540000D01*
X150307598Y-62602400D02*
X152432300Y-62602400D01*
X140954999Y-62954999D02*
X149954999Y-62954999D01*
X139897350Y-61897350D02*
X140954999Y-62954999D01*
X152432300Y-62602400D02*
X153494700Y-61540000D01*
X135102650Y-61897350D02*
X139897350Y-61897350D01*
X149954999Y-62954999D02*
X150307598Y-62602400D01*
X134745300Y-61540000D02*
X135102650Y-61897350D01*
X133620000Y-61540000D02*
X134745300Y-61540000D01*
%TO.N,/B1*%
X154620000Y-64080000D02*
X148762200Y-64080000D01*
X148762200Y-64080000D02*
X147635900Y-65206300D01*
X147635900Y-65206300D02*
X135871600Y-65206300D01*
X135871600Y-65206300D02*
X134745300Y-64080000D01*
X133620000Y-64080000D02*
X134745300Y-64080000D01*
X194620000Y-64080000D02*
X193494700Y-64080000D01*
X174620000Y-64080000D02*
X175745300Y-64080000D01*
X175745300Y-64080000D02*
X176881600Y-65216300D01*
X176881600Y-65216300D02*
X187953400Y-65216300D01*
X187953400Y-65216300D02*
X188623400Y-64546300D01*
X188623400Y-64546300D02*
X193028400Y-64546300D01*
X193028400Y-64546300D02*
X193494700Y-64080000D01*
X254620000Y-64080000D02*
X253494700Y-64080000D01*
X253494700Y-64080000D02*
X252361400Y-65213300D01*
X252361400Y-65213300D02*
X244786300Y-65213300D01*
X244786300Y-65213300D02*
X243653000Y-64080000D01*
X243653000Y-64080000D02*
X234620000Y-64080000D01*
X234620000Y-64080000D02*
X233494700Y-64080000D01*
X233494700Y-64080000D02*
X233044300Y-64530400D01*
X233044300Y-64530400D02*
X229084900Y-64530400D01*
X229084900Y-64530400D02*
X228402000Y-65213300D01*
X228402000Y-65213300D02*
X224786300Y-65213300D01*
X224786300Y-65213300D02*
X223653000Y-64080000D01*
X223653000Y-64080000D02*
X214620000Y-64080000D01*
X214620000Y-64080000D02*
X213494700Y-64080000D01*
X213494700Y-64080000D02*
X213044300Y-64530400D01*
X213044300Y-64530400D02*
X209084900Y-64530400D01*
X209084900Y-64530400D02*
X208402000Y-65213300D01*
X208402000Y-65213300D02*
X204786300Y-65213300D01*
X204786300Y-65213300D02*
X203653000Y-64080000D01*
X203653000Y-64080000D02*
X194620000Y-64080000D01*
%TO.N,/B2*%
X193494700Y-66620000D02*
X192369400Y-67745300D01*
X192369400Y-67745300D02*
X185794900Y-67745300D01*
X185794900Y-67745300D02*
X184669600Y-66620000D01*
X184669600Y-66620000D02*
X174620000Y-66620000D01*
X154620000Y-66620000D02*
X153494700Y-66620000D01*
X134745300Y-66620000D02*
X135382300Y-66620000D01*
X135382300Y-66620000D02*
X136507600Y-67745300D01*
X136507600Y-67745300D02*
X152369400Y-67745300D01*
X152369400Y-67745300D02*
X153494700Y-66620000D01*
X194620000Y-66620000D02*
X193494700Y-66620000D01*
X133620000Y-66620000D02*
X134745300Y-66620000D01*
X254620000Y-66620000D02*
X253494700Y-66620000D01*
X253494700Y-66620000D02*
X252368900Y-67745800D01*
X252368900Y-67745800D02*
X244778800Y-67745800D01*
X244778800Y-67745800D02*
X243653000Y-66620000D01*
X243653000Y-66620000D02*
X234620000Y-66620000D01*
X234620000Y-66620000D02*
X233494700Y-66620000D01*
X233494700Y-66620000D02*
X232361400Y-67753300D01*
X232361400Y-67753300D02*
X224786300Y-67753300D01*
X224786300Y-67753300D02*
X223653000Y-66620000D01*
X223653000Y-66620000D02*
X214620000Y-66620000D01*
X214620000Y-66620000D02*
X209535300Y-66620000D01*
X209535300Y-66620000D02*
X208410000Y-67745300D01*
X208410000Y-67745300D02*
X196870600Y-67745300D01*
X196870600Y-67745300D02*
X195745300Y-66620000D01*
X194620000Y-66620000D02*
X195745300Y-66620000D01*
%TO.N,/B3*%
X213494700Y-69160000D02*
X212857900Y-69160000D01*
X212857900Y-69160000D02*
X211732600Y-70285300D01*
X211732600Y-70285300D02*
X199650700Y-70285300D01*
X199650700Y-70285300D02*
X198525400Y-69160000D01*
X198525400Y-69160000D02*
X194620000Y-69160000D01*
X214620000Y-69160000D02*
X213494700Y-69160000D01*
X254620000Y-69160000D02*
X253494700Y-69160000D01*
X234620000Y-69160000D02*
X243032400Y-69160000D01*
X243032400Y-69160000D02*
X244157700Y-70285300D01*
X244157700Y-70285300D02*
X252369400Y-70285300D01*
X252369400Y-70285300D02*
X253494700Y-69160000D01*
X133620000Y-69160000D02*
X134745300Y-69160000D01*
X134745300Y-69160000D02*
X135878500Y-70293200D01*
X135878500Y-70293200D02*
X147629000Y-70293200D01*
X147629000Y-70293200D02*
X148762200Y-69160000D01*
X148762200Y-69160000D02*
X154620000Y-69160000D01*
%TO.N,/B4*%
X153494700Y-71700000D02*
X152369400Y-72825300D01*
X152369400Y-72825300D02*
X145879400Y-72825300D01*
X145879400Y-72825300D02*
X144305800Y-74398900D01*
X144305800Y-74398900D02*
X137444200Y-74398900D01*
X254620000Y-71700000D02*
X254620000Y-70574700D01*
X227080000Y-39000000D02*
X240533100Y-52453100D01*
X240533100Y-52453100D02*
X246241900Y-52453100D01*
X246241900Y-52453100D02*
X254129500Y-60340700D01*
X254129500Y-60340700D02*
X255038500Y-60340700D01*
X255038500Y-60340700D02*
X255745300Y-61047500D01*
X255745300Y-61047500D02*
X255745300Y-69730800D01*
X255745300Y-69730800D02*
X254901400Y-70574700D01*
X254901400Y-70574700D02*
X254620000Y-70574700D01*
X174620000Y-71700000D02*
X173494700Y-71700000D01*
X154620000Y-71700000D02*
X153494700Y-71700000D01*
X214620000Y-71700000D02*
X213494700Y-71700000D01*
X194620000Y-71700000D02*
X195745300Y-71700000D01*
X195745300Y-71700000D02*
X196881600Y-72836300D01*
X196881600Y-72836300D02*
X212358400Y-72836300D01*
X212358400Y-72836300D02*
X213494700Y-71700000D01*
X154620000Y-71700000D02*
X155745300Y-71700000D01*
X173494700Y-71700000D02*
X172369400Y-72825300D01*
X172369400Y-72825300D02*
X156870600Y-72825300D01*
X156870600Y-72825300D02*
X155745300Y-71700000D01*
%TO.N,/B5*%
X153494700Y-74240000D02*
X153218100Y-74516600D01*
X153218100Y-74516600D02*
X149190600Y-74516600D01*
X134745300Y-74240000D02*
X135314700Y-73670600D01*
X135314700Y-73670600D02*
X140520800Y-73670600D01*
X234620000Y-74240000D02*
X233494700Y-74240000D01*
X214620000Y-74240000D02*
X215745300Y-74240000D01*
X215745300Y-74240000D02*
X216870600Y-73114700D01*
X216870600Y-73114700D02*
X232369400Y-73114700D01*
X232369400Y-73114700D02*
X233494700Y-74240000D01*
X214057400Y-74240000D02*
X214620000Y-74240000D01*
X214057400Y-74240000D02*
X213494700Y-74240000D01*
X193494700Y-74240000D02*
X192369400Y-75365300D01*
X192369400Y-75365300D02*
X177507600Y-75365300D01*
X177507600Y-75365300D02*
X176382300Y-74240000D01*
X176382300Y-74240000D02*
X175745300Y-74240000D01*
X254620000Y-74240000D02*
X253494700Y-74240000D01*
X234620000Y-74240000D02*
X235745300Y-74240000D01*
X235745300Y-74240000D02*
X236870600Y-73114700D01*
X236870600Y-73114700D02*
X252369400Y-73114700D01*
X252369400Y-73114700D02*
X253494700Y-74240000D01*
X194620000Y-74240000D02*
X195745300Y-74240000D01*
X213494700Y-74240000D02*
X209535300Y-74240000D01*
X209535300Y-74240000D02*
X208410000Y-75365300D01*
X208410000Y-75365300D02*
X196870600Y-75365300D01*
X196870600Y-75365300D02*
X195745300Y-74240000D01*
X194620000Y-74240000D02*
X193494700Y-74240000D01*
X174620000Y-74240000D02*
X175745300Y-74240000D01*
X133620000Y-74240000D02*
X134745300Y-74240000D01*
X154620000Y-74240000D02*
X153494700Y-74240000D01*
%TO.N,/B6*%
X134745300Y-76780000D02*
X135870600Y-75654700D01*
X135870600Y-75654700D02*
X152369400Y-75654700D01*
X152369400Y-75654700D02*
X153494700Y-76780000D01*
X253494700Y-76780000D02*
X252369400Y-77905300D01*
X252369400Y-77905300D02*
X236870600Y-77905300D01*
X236870600Y-77905300D02*
X235745300Y-76780000D01*
X194620000Y-76780000D02*
X193494700Y-76780000D01*
X174620000Y-76780000D02*
X175745300Y-76780000D01*
X175745300Y-76780000D02*
X176881600Y-77916300D01*
X176881600Y-77916300D02*
X187953400Y-77916300D01*
X187953400Y-77916300D02*
X188520100Y-77349600D01*
X188520100Y-77349600D02*
X192925100Y-77349600D01*
X192925100Y-77349600D02*
X193494700Y-76780000D01*
X194620000Y-76780000D02*
X195745300Y-76780000D01*
X195745300Y-76780000D02*
X196878500Y-77913200D01*
X196878500Y-77913200D02*
X207629000Y-77913200D01*
X207629000Y-77913200D02*
X208762200Y-76780000D01*
X208762200Y-76780000D02*
X214620000Y-76780000D01*
X133620000Y-76780000D02*
X134745300Y-76780000D01*
X154620000Y-76780000D02*
X153494700Y-76780000D01*
X254620000Y-76780000D02*
X253494700Y-76780000D01*
X234620000Y-76780000D02*
X235745300Y-76780000D01*
%TO.N,/B7*%
X154620000Y-79320000D02*
X153494700Y-79320000D01*
X174620000Y-79320000D02*
X173494700Y-79320000D01*
X154620000Y-79320000D02*
X159876700Y-79320000D01*
X159876700Y-79320000D02*
X161002000Y-78194700D01*
X161002000Y-78194700D02*
X172369400Y-78194700D01*
X172369400Y-78194700D02*
X173494700Y-79320000D01*
X134745300Y-79320000D02*
X144464700Y-79320000D01*
X144464700Y-79320000D02*
X145590000Y-78194700D01*
X145590000Y-78194700D02*
X152369400Y-78194700D01*
X152369400Y-78194700D02*
X153494700Y-79320000D01*
X194620000Y-79320000D02*
X193494700Y-79320000D01*
X174620000Y-79320000D02*
X175745300Y-79320000D01*
X175745300Y-79320000D02*
X176870600Y-80445300D01*
X176870600Y-80445300D02*
X192369400Y-80445300D01*
X192369400Y-80445300D02*
X193494700Y-79320000D01*
X214620000Y-79320000D02*
X213494700Y-79320000D01*
X194620000Y-79320000D02*
X195745300Y-79320000D01*
X195745300Y-79320000D02*
X196870600Y-80445300D01*
X196870600Y-80445300D02*
X212369400Y-80445300D01*
X212369400Y-80445300D02*
X213494700Y-79320000D01*
X234620000Y-79320000D02*
X233494700Y-79320000D01*
X214620000Y-79320000D02*
X215745300Y-79320000D01*
X215745300Y-79320000D02*
X216870600Y-80445300D01*
X216870600Y-80445300D02*
X232369400Y-80445300D01*
X232369400Y-80445300D02*
X233494700Y-79320000D01*
X133620000Y-79320000D02*
X134745300Y-79320000D01*
X254620000Y-79320000D02*
X253494700Y-79320000D01*
X234620000Y-79320000D02*
X235745300Y-79320000D01*
X235745300Y-79320000D02*
X236870600Y-80445300D01*
X236870600Y-80445300D02*
X252369400Y-80445300D01*
X252369400Y-80445300D02*
X253494700Y-79320000D01*
%TO.N,Net-(DECRead1-Pad6)*%
X74000000Y-112700000D02*
X72874700Y-112700000D01*
X72874700Y-112700000D02*
X70364700Y-110190000D01*
X70364700Y-110190000D02*
X59730000Y-110190000D01*
X59730000Y-110190000D02*
X58460000Y-108920000D01*
%TO.N,Net-(DECRead2-Pad6)*%
X100000000Y-113700000D02*
X98874700Y-113700000D01*
X98874700Y-113700000D02*
X96184900Y-116389800D01*
X96184900Y-116389800D02*
X81115600Y-116389800D01*
X81115600Y-116389800D02*
X80462900Y-115737100D01*
X80462900Y-115737100D02*
X80462900Y-112265500D01*
X80462900Y-112265500D02*
X81227700Y-111500700D01*
X81227700Y-111500700D02*
X82036500Y-111500700D01*
X82036500Y-111500700D02*
X82849700Y-110687500D01*
X82849700Y-110687500D02*
X82849700Y-102110100D01*
X82849700Y-102110100D02*
X82009600Y-101270000D01*
X82009600Y-101270000D02*
X80510600Y-101270000D01*
X80510600Y-101270000D02*
X56870400Y-77629800D01*
X56870400Y-77629800D02*
X56870400Y-73509600D01*
X56870400Y-73509600D02*
X58460000Y-71920000D01*
%TD*%
M02*
