<?xml version="1.0" standalone="no"?>
 <!DOCTYPE svg PUBLIC "-//W3C//DTD SVG 1.1//EN" 
 "http://www.w3.org/Graphics/SVG/1.1/DTD/svg11.dtd"> 
<svg
  xmlns:svg="http://www.w3.org/2000/svg"
  xmlns="http://www.w3.org/2000/svg"
  xmlns:xlink="http://www.w3.org/1999/xlink"
  version="1.1"
  width="29.700220cm" height="21.000720cm" viewBox="0 0 116930 82680">
<title>SVG Picture created as Program Counter-B_SilkS.svg date 2021/10/27 19:54:55 </title>
  <desc>Picture generated by PCBNEW </desc>
<g style="fill:#000000; fill-opacity:1;stroke:#000000; stroke-opacity:1;
stroke-linecap:round; stroke-linejoin:round;"
 transform="translate(0 0) scale(1 1)">
</g>
<g style="fill:#000000; fill-opacity:0.0; 
stroke:#000000; stroke-width:-0.000393701; stroke-opacity:1; 
stroke-linecap:round; stroke-linejoin:round;">
</g>
<g style="fill:#000000; fill-opacity:0.0; 
stroke:#000000; stroke-width:39.3701; stroke-opacity:1; 
stroke-linecap:round; stroke-linejoin:round;">
</g>
<g style="fill:#000000; fill-opacity:0.0; 
stroke:#000000; stroke-width:59.0551; stroke-opacity:1; 
stroke-linecap:round; stroke-linejoin:round;">
<rect x="69685.9" y="65357.2" width="42519.7" height="12598.4" rx="0" />
</g>
<g style="fill:#000000; fill-opacity:0.0; 
stroke:#000000; stroke-width:39.3701; stroke-opacity:1; 
stroke-linecap:round; stroke-linejoin:round;">
</g>
<g style="fill:#000000; fill-opacity:0.0; 
stroke:#000000; stroke-width:59.0551; stroke-opacity:1; 
stroke-linecap:round; stroke-linejoin:round;">
<rect x="3937.01" y="3937.01" width="109056" height="74806" rx="0" />
</g>
<g style="fill:#000000; fill-opacity:0.0; 
stroke:#000000; stroke-width:39.3701; stroke-opacity:1; 
stroke-linecap:round; stroke-linejoin:round;">
</g>
<g style="fill:#000000; fill-opacity:0.0; 
stroke:#000000; stroke-width:59.0551; stroke-opacity:1; 
stroke-linecap:round; stroke-linejoin:round;">
<rect x="4724.41" y="4724.41" width="107481" height="73231.2" rx="0" />
</g>
<g style="fill:#000000; fill-opacity:0.0; 
stroke:#000000; stroke-width:39.3701; stroke-opacity:1; 
stroke-linecap:round; stroke-linejoin:round;">
</g>
<g style="fill:#000000; fill-opacity:0.0; 
stroke:#000000; stroke-width:59.0551; stroke-opacity:1; 
stroke-linecap:round; stroke-linejoin:round;">
<path d="M23622 4724
L23622 3937
" />
</g>
<g style="fill:#000000; fill-opacity:0.0; 
stroke:#000000; stroke-width:39.3701; stroke-opacity:1; 
stroke-linecap:round; stroke-linejoin:round;">
</g>
<g style="fill:#000000; fill-opacity:0.0; 
stroke:#000000; stroke-width:59.0551; stroke-opacity:1; 
stroke-linecap:round; stroke-linejoin:round;">
<path d="M43307 4724
L43307 3937
" />
</g>
<g style="fill:#000000; fill-opacity:0.0; 
stroke:#000000; stroke-width:39.3701; stroke-opacity:1; 
stroke-linecap:round; stroke-linejoin:round;">
</g>
<g style="fill:#000000; fill-opacity:0.0; 
stroke:#000000; stroke-width:59.0551; stroke-opacity:1; 
stroke-linecap:round; stroke-linejoin:round;">
<path d="M62992 4724
L62992 3937
" />
</g>
<g style="fill:#000000; fill-opacity:0.0; 
stroke:#000000; stroke-width:39.3701; stroke-opacity:1; 
stroke-linecap:round; stroke-linejoin:round;">
</g>
<g style="fill:#000000; fill-opacity:0.0; 
stroke:#000000; stroke-width:59.0551; stroke-opacity:1; 
stroke-linecap:round; stroke-linejoin:round;">
<path d="M82677 4724
L82677 3937
" />
</g>
<g style="fill:#000000; fill-opacity:0.0; 
stroke:#000000; stroke-width:39.3701; stroke-opacity:1; 
stroke-linecap:round; stroke-linejoin:round;">
</g>
<g style="fill:#000000; fill-opacity:0.0; 
stroke:#000000; stroke-width:59.0551; stroke-opacity:1; 
stroke-linecap:round; stroke-linejoin:round;">
<path d="M102362 4724
L102362 3937
" />
</g>
<g style="fill:#000000; fill-opacity:0.0; 
stroke:#000000; stroke-width:39.3701; stroke-opacity:1; 
stroke-linecap:round; stroke-linejoin:round;">
</g>
<g style="fill:#000000; fill-opacity:0.0; 
stroke:#000000; stroke-width:59.0551; stroke-opacity:1; 
stroke-linecap:round; stroke-linejoin:round;">
<text x="13779.5" y="4586.61"
textLength="546.494" font-size="682.415" lengthAdjust="spacingAndGlyphs"
text-anchor="start" opacity="0">1</text>
<path d="M14199 4562
L13906 4562
" />
<path d="M14052 4562
L14052 4050
L14004 4123
L13955 4172
L13906 4196
" />
</g>
<g style="fill:#000000; fill-opacity:0.0; 
stroke:#000000; stroke-width:39.3701; stroke-opacity:1; 
stroke-linecap:round; stroke-linejoin:round;">
</g>
<g style="fill:#000000; fill-opacity:0.0; 
stroke:#000000; stroke-width:59.0551; stroke-opacity:1; 
stroke-linecap:round; stroke-linejoin:round;">
<text x="33464.6" y="4586.61"
textLength="546.494" font-size="682.415" lengthAdjust="spacingAndGlyphs"
text-anchor="start" opacity="0">2</text>
<path d="M33591 4099
L33615 4074
L33664 4050
L33786 4050
L33835 4074
L33859 4099
L33884 4147
L33884 4196
L33859 4269
L33567 4562
L33884 4562
" />
</g>
<g style="fill:#000000; fill-opacity:0.0; 
stroke:#000000; stroke-width:39.3701; stroke-opacity:1; 
stroke-linecap:round; stroke-linejoin:round;">
</g>
<g style="fill:#000000; fill-opacity:0.0; 
stroke:#000000; stroke-width:59.0551; stroke-opacity:1; 
stroke-linecap:round; stroke-linejoin:round;">
<text x="53149.6" y="4586.61"
textLength="546.494" font-size="682.415" lengthAdjust="spacingAndGlyphs"
text-anchor="start" opacity="0">3</text>
<path d="M53252 4050
L53569 4050
L53398 4245
L53471 4245
L53520 4269
L53544 4294
L53569 4342
L53569 4464
L53544 4513
L53520 4537
L53471 4562
L53325 4562
L53276 4537
L53252 4513
" />
</g>
<g style="fill:#000000; fill-opacity:0.0; 
stroke:#000000; stroke-width:39.3701; stroke-opacity:1; 
stroke-linecap:round; stroke-linejoin:round;">
</g>
<g style="fill:#000000; fill-opacity:0.0; 
stroke:#000000; stroke-width:59.0551; stroke-opacity:1; 
stroke-linecap:round; stroke-linejoin:round;">
<text x="72834.6" y="4586.61"
textLength="546.494" font-size="682.415" lengthAdjust="spacingAndGlyphs"
text-anchor="start" opacity="0">4</text>
<path d="M73205 4221
L73205 4562
" />
<path d="M73083 4026
L72961 4391
L73278 4391
" />
</g>
<g style="fill:#000000; fill-opacity:0.0; 
stroke:#000000; stroke-width:39.3701; stroke-opacity:1; 
stroke-linecap:round; stroke-linejoin:round;">
</g>
<g style="fill:#000000; fill-opacity:0.0; 
stroke:#000000; stroke-width:59.0551; stroke-opacity:1; 
stroke-linecap:round; stroke-linejoin:round;">
<text x="92519.7" y="4586.61"
textLength="546.494" font-size="682.415" lengthAdjust="spacingAndGlyphs"
text-anchor="start" opacity="0">5</text>
<path d="M92914 4050
L92671 4050
L92646 4294
L92671 4269
L92719 4245
L92841 4245
L92890 4269
L92914 4294
L92939 4342
L92939 4464
L92914 4513
L92890 4537
L92841 4562
L92719 4562
L92671 4537
L92646 4513
" />
</g>
<g style="fill:#000000; fill-opacity:0.0; 
stroke:#000000; stroke-width:39.3701; stroke-opacity:1; 
stroke-linecap:round; stroke-linejoin:round;">
</g>
<g style="fill:#000000; fill-opacity:0.0; 
stroke:#000000; stroke-width:59.0551; stroke-opacity:1; 
stroke-linecap:round; stroke-linejoin:round;">
<text x="112205" y="4586.61"
textLength="546.494" font-size="682.415" lengthAdjust="spacingAndGlyphs"
text-anchor="start" opacity="0">6</text>
<path d="M112575 4050
L112477 4050
L112429 4074
L112404 4099
L112356 4172
L112331 4269
L112331 4464
L112356 4513
L112380 4537
L112429 4562
L112526 4562
L112575 4537
L112599 4513
L112624 4464
L112624 4342
L112599 4294
L112575 4269
L112526 4245
L112429 4245
L112380 4269
L112356 4294
L112331 4342
" />
</g>
<g style="fill:#000000; fill-opacity:0.0; 
stroke:#000000; stroke-width:39.3701; stroke-opacity:1; 
stroke-linecap:round; stroke-linejoin:round;">
</g>
<g style="fill:#000000; fill-opacity:0.0; 
stroke:#000000; stroke-width:59.0551; stroke-opacity:1; 
stroke-linecap:round; stroke-linejoin:round;">
<path d="M23622 77955
L23622 78742
" />
</g>
<g style="fill:#000000; fill-opacity:0.0; 
stroke:#000000; stroke-width:39.3701; stroke-opacity:1; 
stroke-linecap:round; stroke-linejoin:round;">
</g>
<g style="fill:#000000; fill-opacity:0.0; 
stroke:#000000; stroke-width:59.0551; stroke-opacity:1; 
stroke-linecap:round; stroke-linejoin:round;">
<path d="M43307 77955
L43307 78742
" />
</g>
<g style="fill:#000000; fill-opacity:0.0; 
stroke:#000000; stroke-width:39.3701; stroke-opacity:1; 
stroke-linecap:round; stroke-linejoin:round;">
</g>
<g style="fill:#000000; fill-opacity:0.0; 
stroke:#000000; stroke-width:59.0551; stroke-opacity:1; 
stroke-linecap:round; stroke-linejoin:round;">
<path d="M62992 77955
L62992 78742
" />
</g>
<g style="fill:#000000; fill-opacity:0.0; 
stroke:#000000; stroke-width:39.3701; stroke-opacity:1; 
stroke-linecap:round; stroke-linejoin:round;">
</g>
<g style="fill:#000000; fill-opacity:0.0; 
stroke:#000000; stroke-width:59.0551; stroke-opacity:1; 
stroke-linecap:round; stroke-linejoin:round;">
<path d="M82677 77955
L82677 78742
" />
</g>
<g style="fill:#000000; fill-opacity:0.0; 
stroke:#000000; stroke-width:39.3701; stroke-opacity:1; 
stroke-linecap:round; stroke-linejoin:round;">
</g>
<g style="fill:#000000; fill-opacity:0.0; 
stroke:#000000; stroke-width:59.0551; stroke-opacity:1; 
stroke-linecap:round; stroke-linejoin:round;">
<path d="M102362 77955
L102362 78742
" />
</g>
<g style="fill:#000000; fill-opacity:0.0; 
stroke:#000000; stroke-width:39.3701; stroke-opacity:1; 
stroke-linecap:round; stroke-linejoin:round;">
</g>
<g style="fill:#000000; fill-opacity:0.0; 
stroke:#000000; stroke-width:59.0551; stroke-opacity:1; 
stroke-linecap:round; stroke-linejoin:round;">
<text x="13779.5" y="78605.2"
textLength="546.494" font-size="682.415" lengthAdjust="spacingAndGlyphs"
text-anchor="start" opacity="0">1</text>
<path d="M14199 78580
L13906 78580
" />
<path d="M14052 78580
L14052 78069
L14004 78142
L13955 78190
L13906 78215
" />
</g>
<g style="fill:#000000; fill-opacity:0.0; 
stroke:#000000; stroke-width:39.3701; stroke-opacity:1; 
stroke-linecap:round; stroke-linejoin:round;">
</g>
<g style="fill:#000000; fill-opacity:0.0; 
stroke:#000000; stroke-width:59.0551; stroke-opacity:1; 
stroke-linecap:round; stroke-linejoin:round;">
<text x="33464.6" y="78605.2"
textLength="546.494" font-size="682.415" lengthAdjust="spacingAndGlyphs"
text-anchor="start" opacity="0">2</text>
<path d="M33591 78117
L33615 78093
L33664 78069
L33786 78069
L33835 78093
L33859 78117
L33884 78166
L33884 78215
L33859 78288
L33567 78580
L33884 78580
" />
</g>
<g style="fill:#000000; fill-opacity:0.0; 
stroke:#000000; stroke-width:39.3701; stroke-opacity:1; 
stroke-linecap:round; stroke-linejoin:round;">
</g>
<g style="fill:#000000; fill-opacity:0.0; 
stroke:#000000; stroke-width:59.0551; stroke-opacity:1; 
stroke-linecap:round; stroke-linejoin:round;">
<text x="53149.6" y="78605.2"
textLength="546.494" font-size="682.415" lengthAdjust="spacingAndGlyphs"
text-anchor="start" opacity="0">3</text>
<path d="M53252 78069
L53569 78069
L53398 78263
L53471 78263
L53520 78288
L53544 78312
L53569 78361
L53569 78483
L53544 78532
L53520 78556
L53471 78580
L53325 78580
L53276 78556
L53252 78532
" />
</g>
<g style="fill:#000000; fill-opacity:0.0; 
stroke:#000000; stroke-width:39.3701; stroke-opacity:1; 
stroke-linecap:round; stroke-linejoin:round;">
</g>
<g style="fill:#000000; fill-opacity:0.0; 
stroke:#000000; stroke-width:59.0551; stroke-opacity:1; 
stroke-linecap:round; stroke-linejoin:round;">
<text x="72834.6" y="78605.2"
textLength="546.494" font-size="682.415" lengthAdjust="spacingAndGlyphs"
text-anchor="start" opacity="0">4</text>
<path d="M73205 78239
L73205 78580
" />
<path d="M73083 78044
L72961 78410
L73278 78410
" />
</g>
<g style="fill:#000000; fill-opacity:0.0; 
stroke:#000000; stroke-width:39.3701; stroke-opacity:1; 
stroke-linecap:round; stroke-linejoin:round;">
</g>
<g style="fill:#000000; fill-opacity:0.0; 
stroke:#000000; stroke-width:59.0551; stroke-opacity:1; 
stroke-linecap:round; stroke-linejoin:round;">
<text x="92519.7" y="78605.2"
textLength="546.494" font-size="682.415" lengthAdjust="spacingAndGlyphs"
text-anchor="start" opacity="0">5</text>
<path d="M92914 78069
L92671 78069
L92646 78312
L92671 78288
L92719 78263
L92841 78263
L92890 78288
L92914 78312
L92939 78361
L92939 78483
L92914 78532
L92890 78556
L92841 78580
L92719 78580
L92671 78556
L92646 78532
" />
</g>
<g style="fill:#000000; fill-opacity:0.0; 
stroke:#000000; stroke-width:39.3701; stroke-opacity:1; 
stroke-linecap:round; stroke-linejoin:round;">
</g>
<g style="fill:#000000; fill-opacity:0.0; 
stroke:#000000; stroke-width:59.0551; stroke-opacity:1; 
stroke-linecap:round; stroke-linejoin:round;">
<text x="112205" y="78605.2"
textLength="546.494" font-size="682.415" lengthAdjust="spacingAndGlyphs"
text-anchor="start" opacity="0">6</text>
<path d="M112575 78069
L112477 78069
L112429 78093
L112404 78117
L112356 78190
L112331 78288
L112331 78483
L112356 78532
L112380 78556
L112429 78580
L112526 78580
L112575 78556
L112599 78532
L112624 78483
L112624 78361
L112599 78312
L112575 78288
L112526 78263
L112429 78263
L112380 78288
L112356 78312
L112331 78361
" />
</g>
<g style="fill:#000000; fill-opacity:0.0; 
stroke:#000000; stroke-width:39.3701; stroke-opacity:1; 
stroke-linecap:round; stroke-linejoin:round;">
</g>
<g style="fill:#000000; fill-opacity:0.0; 
stroke:#000000; stroke-width:59.0551; stroke-opacity:1; 
stroke-linecap:round; stroke-linejoin:round;">
<path d="M3937 23622
L4724 23622
" />
</g>
<g style="fill:#000000; fill-opacity:0.0; 
stroke:#000000; stroke-width:39.3701; stroke-opacity:1; 
stroke-linecap:round; stroke-linejoin:round;">
</g>
<g style="fill:#000000; fill-opacity:0.0; 
stroke:#000000; stroke-width:59.0551; stroke-opacity:1; 
stroke-linecap:round; stroke-linejoin:round;">
<path d="M3937 43307
L4724 43307
" />
</g>
<g style="fill:#000000; fill-opacity:0.0; 
stroke:#000000; stroke-width:39.3701; stroke-opacity:1; 
stroke-linecap:round; stroke-linejoin:round;">
</g>
<g style="fill:#000000; fill-opacity:0.0; 
stroke:#000000; stroke-width:59.0551; stroke-opacity:1; 
stroke-linecap:round; stroke-linejoin:round;">
<path d="M3937 62992
L4724 62992
" />
</g>
<g style="fill:#000000; fill-opacity:0.0; 
stroke:#000000; stroke-width:39.3701; stroke-opacity:1; 
stroke-linecap:round; stroke-linejoin:round;">
</g>
<g style="fill:#000000; fill-opacity:0.0; 
stroke:#000000; stroke-width:59.0551; stroke-opacity:1; 
stroke-linecap:round; stroke-linejoin:round;">
<text x="4330.71" y="14035.4"
textLength="497.75" font-size="682.415" lengthAdjust="spacingAndGlyphs"
text-anchor="middle" opacity="0">A</text>
<path d="M4208 13864
L4452 13864
" />
<path d="M4160 14011
L4330 13499
L4501 14011
" />
</g>
<g style="fill:#000000; fill-opacity:0.0; 
stroke:#000000; stroke-width:39.3701; stroke-opacity:1; 
stroke-linecap:round; stroke-linejoin:round;">
</g>
<g style="fill:#000000; fill-opacity:0.0; 
stroke:#000000; stroke-width:59.0551; stroke-opacity:1; 
stroke-linecap:round; stroke-linejoin:round;">
<text x="4330.71" y="33720.5"
textLength="570.866" font-size="682.415" lengthAdjust="spacingAndGlyphs"
text-anchor="middle" opacity="0">B</text>
<path d="M4367 33428
L4440 33452
L4464 33476
L4489 33525
L4489 33598
L4464 33647
L4440 33671
L4391 33696
L4196 33696
L4196 33184
L4367 33184
L4416 33208
L4440 33233
L4464 33281
L4464 33330
L4440 33379
L4416 33403
L4367 33428
L4196 33428
" />
</g>
<g style="fill:#000000; fill-opacity:0.0; 
stroke:#000000; stroke-width:39.3701; stroke-opacity:1; 
stroke-linecap:round; stroke-linejoin:round;">
</g>
<g style="fill:#000000; fill-opacity:0.0; 
stroke:#000000; stroke-width:59.0551; stroke-opacity:1; 
stroke-linecap:round; stroke-linejoin:round;">
<text x="4330.71" y="53405.5"
textLength="570.866" font-size="682.415" lengthAdjust="spacingAndGlyphs"
text-anchor="middle" opacity="0">C</text>
<path d="M4489 53332
L4464 53356
L4391 53381
L4342 53381
L4269 53356
L4221 53308
L4196 53259
L4172 53161
L4172 53088
L4196 52991
L4221 52942
L4269 52893
L4342 52869
L4391 52869
L4464 52893
L4489 52918
" />
</g>
<g style="fill:#000000; fill-opacity:0.0; 
stroke:#000000; stroke-width:39.3701; stroke-opacity:1; 
stroke-linecap:round; stroke-linejoin:round;">
</g>
<g style="fill:#000000; fill-opacity:0.0; 
stroke:#000000; stroke-width:59.0551; stroke-opacity:1; 
stroke-linecap:round; stroke-linejoin:round;">
<text x="4330.71" y="73090.6"
textLength="570.866" font-size="682.415" lengthAdjust="spacingAndGlyphs"
text-anchor="middle" opacity="0">D</text>
<path d="M4196 73066
L4196 72554
L4318 72554
L4391 72578
L4440 72627
L4464 72676
L4489 72773
L4489 72846
L4464 72944
L4440 72993
L4391 73041
L4318 73066
L4196 73066
" />
</g>
<g style="fill:#000000; fill-opacity:0.0; 
stroke:#000000; stroke-width:39.3701; stroke-opacity:1; 
stroke-linecap:round; stroke-linejoin:round;">
</g>
<g style="fill:#000000; fill-opacity:0.0; 
stroke:#000000; stroke-width:59.0551; stroke-opacity:1; 
stroke-linecap:round; stroke-linejoin:round;">
<path d="M112992 23622
L112205 23622
" />
</g>
<g style="fill:#000000; fill-opacity:0.0; 
stroke:#000000; stroke-width:39.3701; stroke-opacity:1; 
stroke-linecap:round; stroke-linejoin:round;">
</g>
<g style="fill:#000000; fill-opacity:0.0; 
stroke:#000000; stroke-width:59.0551; stroke-opacity:1; 
stroke-linecap:round; stroke-linejoin:round;">
<path d="M112992 43307
L112205 43307
" />
</g>
<g style="fill:#000000; fill-opacity:0.0; 
stroke:#000000; stroke-width:39.3701; stroke-opacity:1; 
stroke-linecap:round; stroke-linejoin:round;">
</g>
<g style="fill:#000000; fill-opacity:0.0; 
stroke:#000000; stroke-width:59.0551; stroke-opacity:1; 
stroke-linecap:round; stroke-linejoin:round;">
<path d="M112992 62992
L112205 62992
" />
</g>
<g style="fill:#000000; fill-opacity:0.0; 
stroke:#000000; stroke-width:39.3701; stroke-opacity:1; 
stroke-linecap:round; stroke-linejoin:round;">
</g>
<g style="fill:#000000; fill-opacity:0.0; 
stroke:#000000; stroke-width:59.0551; stroke-opacity:1; 
stroke-linecap:round; stroke-linejoin:round;">
<text x="112599" y="14035.4"
textLength="497.75" font-size="682.415" lengthAdjust="spacingAndGlyphs"
text-anchor="middle" opacity="0">A</text>
<path d="M112477 13864
L112721 13864
" />
<path d="M112428 14011
L112599 13499
L112769 14011
" />
</g>
<g style="fill:#000000; fill-opacity:0.0; 
stroke:#000000; stroke-width:39.3701; stroke-opacity:1; 
stroke-linecap:round; stroke-linejoin:round;">
</g>
<g style="fill:#000000; fill-opacity:0.0; 
stroke:#000000; stroke-width:59.0551; stroke-opacity:1; 
stroke-linecap:round; stroke-linejoin:round;">
<text x="112599" y="33720.5"
textLength="570.866" font-size="682.415" lengthAdjust="spacingAndGlyphs"
text-anchor="middle" opacity="0">B</text>
<path d="M112635 33428
L112708 33452
L112733 33476
L112757 33525
L112757 33598
L112733 33647
L112708 33671
L112660 33696
L112465 33696
L112465 33184
L112635 33184
L112684 33208
L112708 33233
L112733 33281
L112733 33330
L112708 33379
L112684 33403
L112635 33428
L112465 33428
" />
</g>
<g style="fill:#000000; fill-opacity:0.0; 
stroke:#000000; stroke-width:39.3701; stroke-opacity:1; 
stroke-linecap:round; stroke-linejoin:round;">
</g>
<g style="fill:#000000; fill-opacity:0.0; 
stroke:#000000; stroke-width:59.0551; stroke-opacity:1; 
stroke-linecap:round; stroke-linejoin:round;">
<text x="112599" y="53405.5"
textLength="570.866" font-size="682.415" lengthAdjust="spacingAndGlyphs"
text-anchor="middle" opacity="0">C</text>
<path d="M112757 53332
L112733 53356
L112660 53381
L112611 53381
L112538 53356
L112489 53308
L112465 53259
L112440 53161
L112440 53088
L112465 52991
L112489 52942
L112538 52893
L112611 52869
L112660 52869
L112733 52893
L112757 52918
" />
</g>
<g style="fill:#000000; fill-opacity:0.0; 
stroke:#000000; stroke-width:39.3701; stroke-opacity:1; 
stroke-linecap:round; stroke-linejoin:round;">
</g>
<g style="fill:#000000; fill-opacity:0.0; 
stroke:#000000; stroke-width:59.0551; stroke-opacity:1; 
stroke-linecap:round; stroke-linejoin:round;">
<text x="112599" y="73090.6"
textLength="570.866" font-size="682.415" lengthAdjust="spacingAndGlyphs"
text-anchor="middle" opacity="0">D</text>
<path d="M112465 73066
L112465 72554
L112587 72554
L112660 72578
L112708 72627
L112733 72676
L112757 72773
L112757 72846
L112733 72944
L112708 72993
L112660 73041
L112587 73066
L112465 73066
" />
</g>
<g style="fill:#000000; fill-opacity:0.0; 
stroke:#000000; stroke-width:39.3701; stroke-opacity:1; 
stroke-linecap:round; stroke-linejoin:round;">
</g>
<g style="fill:#000000; fill-opacity:0.0; 
stroke:#000000; stroke-width:59.0551; stroke-opacity:1; 
stroke-linecap:round; stroke-linejoin:round;">
<text x="78741" y="76321.7"
textLength="8720.47" font-size="787.402" lengthAdjust="spacingAndGlyphs"
text-anchor="start" opacity="0">Date: 2021-10-21</text>
<path d="M78911 76293
L78911 75703
L79051 75703
L79136 75731
L79192 75787
L79220 75843
L79248 75956
L79248 76040
L79220 76153
L79192 76209
L79136 76265
L79051 76293
L78911 76293
" />
<path d="M79754 76293
L79754 75984
L79726 75928
L79670 75899
L79557 75899
L79501 75928
" />
<path d="M79754 76265
L79698 76293
L79557 76293
L79501 76265
L79473 76209
L79473 76153
L79501 76096
L79557 76068
L79698 76068
L79754 76040
" />
<path d="M79951 75899
L80176 75899
" />
<path d="M80036 75703
L80036 76209
L80064 76265
L80120 76293
L80176 76293
" />
<path d="M80598 76265
L80542 76293
L80429 76293
L80373 76265
L80345 76209
L80345 75984
L80373 75928
L80429 75899
L80542 75899
L80598 75928
L80626 75984
L80626 76040
L80345 76096
" />
<path d="M80879 76237
L80907 76265
L80879 76293
L80851 76265
L80879 76237
L80879 76293
" />
<path d="M80879 75928
L80907 75956
L80879 75984
L80851 75956
L80879 75928
L80879 75984
" />
<path d="M81582 75759
L81610 75731
L81667 75703
L81807 75703
L81863 75731
L81892 75759
L81920 75815
L81920 75871
L81892 75956
L81554 76293
L81920 76293
" />
<path d="M82285 75703
L82341 75703
L82398 75731
L82426 75759
L82454 75815
L82482 75928
L82482 76068
L82454 76181
L82426 76237
L82398 76265
L82341 76293
L82285 76293
L82229 76265
L82201 76237
L82173 76181
L82145 76068
L82145 75928
L82173 75815
L82201 75759
L82229 75731
L82285 75703
" />
<path d="M82707 75759
L82735 75731
L82791 75703
L82932 75703
L82988 75731
L83016 75759
L83045 75815
L83045 75871
L83016 75956
L82679 76293
L83045 76293
" />
<path d="M83607 76293
L83269 76293
" />
<path d="M83438 76293
L83438 75703
L83382 75787
L83326 75843
L83269 75871
" />
<path d="M83860 76068
L84310 76068
" />
<path d="M84901 76293
L84563 76293
" />
<path d="M84732 76293
L84732 75703
L84676 75787
L84619 75843
L84563 75871
" />
<path d="M85266 75703
L85322 75703
L85379 75731
L85407 75759
L85435 75815
L85463 75928
L85463 76068
L85435 76181
L85407 76237
L85379 76265
L85322 76293
L85266 76293
L85210 76265
L85182 76237
L85154 76181
L85126 76068
L85126 75928
L85154 75815
L85182 75759
L85210 75731
L85266 75703
" />
<path d="M85716 76068
L86166 76068
" />
<path d="M86419 75759
L86447 75731
L86503 75703
L86644 75703
L86700 75731
L86728 75759
L86757 75815
L86757 75871
L86728 75956
L86391 76293
L86757 76293
" />
<path d="M87319 76293
L86982 76293
" />
<path d="M87150 76293
L87150 75703
L87094 75787
L87038 75843
L86982 75871
" />
</g>
<g style="fill:#000000; fill-opacity:0.0; 
stroke:#000000; stroke-width:39.3701; stroke-opacity:1; 
stroke-linecap:round; stroke-linejoin:round;">
</g>
<g style="fill:#000000; fill-opacity:0.0; 
stroke:#000000; stroke-width:59.0551; stroke-opacity:1; 
stroke-linecap:round; stroke-linejoin:round;">
<path d="M69685 76577
L112205 76577
" />
</g>
<g style="fill:#000000; fill-opacity:0.0; 
stroke:#000000; stroke-width:39.3701; stroke-opacity:1; 
stroke-linecap:round; stroke-linejoin:round;">
</g>
<g style="fill:#000000; fill-opacity:0.0; 
stroke:#000000; stroke-width:59.0551; stroke-opacity:1; 
stroke-linecap:round; stroke-linejoin:round;">
<text x="70079.6" y="77424.1"
textLength="14991.6" font-size="787.402" lengthAdjust="spacingAndGlyphs"
text-anchor="start" opacity="0">KiCad E.D.A.  pcbnew (5.1.10)-1</text>
<path d="M70249 77395
L70249 76805
" />
<path d="M70587 77395
L70334 77058
" />
<path d="M70587 76805
L70249 77142
" />
<path d="M70840 77395
L70840 77002
" />
<path d="M70840 76805
L70812 76833
L70840 76861
L70868 76833
L70840 76805
L70840 76861
" />
<path d="M71458 77339
L71430 77367
L71346 77395
L71290 77395
L71205 77367
L71149 77311
L71121 77255
L71093 77142
L71093 77058
L71121 76946
L71149 76889
L71205 76833
L71290 76805
L71346 76805
L71430 76833
L71458 76861
" />
<path d="M71965 77395
L71965 77086
L71937 77030
L71880 77002
L71768 77002
L71712 77030
" />
<path d="M71965 77367
L71908 77395
L71768 77395
L71712 77367
L71683 77311
L71683 77255
L71712 77199
L71768 77171
L71908 77171
L71965 77142
" />
<path d="M72499 77395
L72499 76805
" />
<path d="M72499 77367
L72443 77395
L72330 77395
L72274 77367
L72246 77339
L72218 77283
L72218 77114
L72246 77058
L72274 77030
L72330 77002
L72443 77002
L72499 77030
" />
<path d="M73230 77086
L73427 77086
" />
<path d="M73511 77395
L73230 77395
L73230 76805
L73511 76805
" />
<path d="M73764 77339
L73793 77367
L73764 77395
L73736 77367
L73764 77339
L73764 77395
" />
<path d="M74046 77395
L74046 76805
L74186 76805
L74271 76833
L74327 76889
L74355 76946
L74383 77058
L74383 77142
L74355 77255
L74327 77311
L74271 77367
L74186 77395
L74046 77395
" />
<path d="M74636 77339
L74664 77367
L74636 77395
L74608 77367
L74636 77339
L74636 77395
" />
<path d="M74889 77227
L75171 77227
" />
<path d="M74833 77395
L75030 76805
L75227 77395
" />
<path d="M75424 77339
L75452 77367
L75424 77395
L75395 77367
L75424 77339
L75424 77395
" />
<path d="M76605 77002
L76605 77592
" />
<path d="M76605 77030
L76661 77002
L76773 77002
L76830 77030
L76858 77058
L76886 77114
L76886 77283
L76858 77339
L76830 77367
L76773 77395
L76661 77395
L76605 77367
" />
<path d="M77392 77367
L77336 77395
L77223 77395
L77167 77367
L77139 77339
L77111 77283
L77111 77114
L77139 77058
L77167 77030
L77223 77002
L77336 77002
L77392 77030
" />
<path d="M77645 77395
L77645 76805
" />
<path d="M77645 77030
L77701 77002
L77814 77002
L77870 77030
L77898 77058
L77926 77114
L77926 77283
L77898 77339
L77870 77367
L77814 77395
L77701 77395
L77645 77367
" />
<path d="M78180 77002
L78180 77395
" />
<path d="M78180 77058
L78208 77030
L78264 77002
L78348 77002
L78404 77030
L78433 77086
L78433 77395
" />
<path d="M78939 77367
L78883 77395
L78770 77395
L78714 77367
L78686 77311
L78686 77086
L78714 77030
L78770 77002
L78883 77002
L78939 77030
L78967 77086
L78967 77142
L78686 77199
" />
<path d="M79164 77002
L79276 77395
L79389 77114
L79501 77395
L79614 77002
" />
<path d="M80457 77620
L80429 77592
L80373 77508
L80345 77452
L80317 77367
L80289 77227
L80289 77114
L80317 76974
L80345 76889
L80373 76833
L80429 76749
L80457 76721
" />
<path d="M80964 76805
L80682 76805
L80654 77086
L80682 77058
L80739 77030
L80879 77030
L80935 77058
L80964 77086
L80992 77142
L80992 77283
L80964 77339
L80935 77367
L80879 77395
L80739 77395
L80682 77367
L80654 77339
" />
<path d="M81245 77339
L81273 77367
L81245 77395
L81217 77367
L81245 77339
L81245 77395
" />
<path d="M81835 77395
L81498 77395
" />
<path d="M81667 77395
L81667 76805
L81610 76889
L81554 76946
L81498 76974
" />
<path d="M82088 77339
L82117 77367
L82088 77395
L82060 77367
L82088 77339
L82088 77395
" />
<path d="M82679 77395
L82341 77395
" />
<path d="M82510 77395
L82510 76805
L82454 76889
L82398 76946
L82341 76974
" />
<path d="M83045 76805
L83101 76805
L83157 76833
L83185 76861
L83213 76917
L83241 77030
L83241 77171
L83213 77283
L83185 77339
L83157 77367
L83101 77395
L83045 77395
L82988 77367
L82960 77339
L82932 77283
L82904 77171
L82904 77030
L82932 76917
L82960 76861
L82988 76833
L83045 76805
" />
<path d="M83438 77620
L83466 77592
L83523 77508
L83551 77452
L83579 77367
L83607 77227
L83607 77114
L83579 76974
L83551 76889
L83523 76833
L83466 76749
L83438 76721
" />
<path d="M83888 77171
L84338 77171
" />
<path d="M84929 77395
L84591 77395
" />
<path d="M84760 77395
L84760 76805
L84704 76889
L84647 76946
L84591 76974
" />
</g>
<g style="fill:#000000; fill-opacity:0.0; 
stroke:#000000; stroke-width:39.3701; stroke-opacity:1; 
stroke-linecap:round; stroke-linejoin:round;">
</g>
<g style="fill:#000000; fill-opacity:0.0; 
stroke:#000000; stroke-width:59.0551; stroke-opacity:1; 
stroke-linecap:round; stroke-linejoin:round;">
<path d="M69685 75396
L112205 75396
" />
</g>
<g style="fill:#000000; fill-opacity:0.0; 
stroke:#000000; stroke-width:39.3701; stroke-opacity:1; 
stroke-linecap:round; stroke-linejoin:round;">
</g>
<g style="fill:#000000; fill-opacity:0.0; 
stroke:#000000; stroke-width:118.11; stroke-opacity:1; 
stroke-linecap:round; stroke-linejoin:round;">
<text x="103544" y="76321.7"
textLength="5064.68" font-size="787.402" lengthAdjust="spacingAndGlyphs"
text-anchor="start" opacity="0">Rev: rev1.0</text>
<path d="M104099 76293
L103902 76012
" />
<path d="M103761 76293
L103761 75703
L103986 75703
L104042 75731
L104070 75759
L104099 75815
L104099 75899
L104070 75956
L104042 75984
L103986 76012
L103761 76012
" />
<path d="M104577 76265
L104520 76293
L104408 76293
L104352 76265
L104323 76209
L104323 75984
L104352 75928
L104408 75899
L104520 75899
L104577 75928
L104605 75984
L104605 76040
L104323 76096
" />
<path d="M104802 75899
L104942 76293
L105083 75899
" />
<path d="M105308 76237
L105336 76265
L105308 76293
L105280 76265
L105308 76237
L105308 76293
" />
<path d="M105308 75928
L105336 75956
L105308 75984
L105280 75956
L105308 75928
L105308 75984
" />
<path d="M106039 76293
L106039 75899
" />
<path d="M106039 76012
L106067 75956
L106095 75928
L106151 75899
L106208 75899
" />
<path d="M106629 76265
L106573 76293
L106461 76293
L106404 76265
L106376 76209
L106376 75984
L106404 75928
L106461 75899
L106573 75899
L106629 75928
L106658 75984
L106658 76040
L106376 76096
" />
<path d="M106854 75899
L106995 76293
L107136 75899
" />
<path d="M107670 76293
L107332 76293
" />
<path d="M107501 76293
L107501 75703
L107445 75787
L107389 75843
L107332 75871
" />
<path d="M107923 76237
L107951 76265
L107923 76293
L107895 76265
L107923 76237
L107923 76293
" />
<path d="M108317 75703
L108373 75703
L108429 75731
L108457 75759
L108485 75815
L108514 75928
L108514 76068
L108485 76181
L108457 76237
L108429 76265
L108373 76293
L108317 76293
L108260 76265
L108232 76237
L108204 76181
L108176 76068
L108176 75928
L108204 75815
L108232 75759
L108260 75731
L108317 75703
" />
</g>
<g style="fill:#000000; fill-opacity:0.0; 
stroke:#000000; stroke-width:39.3701; stroke-opacity:1; 
stroke-linecap:round; stroke-linejoin:round;">
</g>
<g style="fill:#000000; fill-opacity:0.0; 
stroke:#000000; stroke-width:59.0551; stroke-opacity:1; 
stroke-linecap:round; stroke-linejoin:round;">
<text x="70079.6" y="76321.7"
textLength="3781.21" font-size="787.402" lengthAdjust="spacingAndGlyphs"
text-anchor="start" opacity="0">Size: A4</text>
<path d="M70221 76265
L70305 76293
L70446 76293
L70502 76265
L70530 76237
L70559 76181
L70559 76124
L70530 76068
L70502 76040
L70446 76012
L70334 75984
L70277 75956
L70249 75928
L70221 75871
L70221 75815
L70249 75759
L70277 75731
L70334 75703
L70474 75703
L70559 75731
" />
<path d="M70812 76293
L70812 75899
" />
<path d="M70812 75703
L70784 75731
L70812 75759
L70840 75731
L70812 75703
L70812 75759
" />
<path d="M71037 75899
L71346 75899
L71037 76293
L71346 76293
" />
<path d="M71796 76265
L71740 76293
L71627 76293
L71571 76265
L71543 76209
L71543 75984
L71571 75928
L71627 75899
L71740 75899
L71796 75928
L71824 75984
L71824 76040
L71543 76096
" />
<path d="M72077 76237
L72105 76265
L72077 76293
L72049 76265
L72077 76237
L72077 76293
" />
<path d="M72077 75928
L72105 75956
L72077 75984
L72049 75956
L72077 75928
L72077 75984
" />
<path d="M72780 76124
L73061 76124
" />
<path d="M72724 76293
L72921 75703
L73118 76293
" />
<path d="M73568 75899
L73568 76293
" />
<path d="M73427 75674
L73286 76096
L73652 76096
" />
</g>
<g style="fill:#000000; fill-opacity:0.0; 
stroke:#000000; stroke-width:39.3701; stroke-opacity:1; 
stroke-linecap:round; stroke-linejoin:round;">
</g>
<g style="fill:#000000; fill-opacity:0.0; 
stroke:#000000; stroke-width:59.0551; stroke-opacity:1; 
stroke-linecap:round; stroke-linejoin:round;">
<text x="103544" y="77424.1"
textLength="3349.27" font-size="787.402" lengthAdjust="spacingAndGlyphs"
text-anchor="start" opacity="0">Id: 1/1</text>
<path d="M103714 77395
L103714 76805
" />
<path d="M104248 77395
L104248 76805
" />
<path d="M104248 77367
L104192 77395
L104079 77395
L104023 77367
L103995 77339
L103967 77283
L103967 77114
L103995 77058
L104023 77030
L104079 77002
L104192 77002
L104248 77030
" />
<path d="M104529 77339
L104557 77367
L104529 77395
L104501 77367
L104529 77339
L104529 77395
" />
<path d="M104529 77030
L104557 77058
L104529 77086
L104501 77058
L104529 77030
L104529 77086
" />
<path d="M105570 77395
L105232 77395
" />
<path d="M105401 77395
L105401 76805
L105345 76889
L105289 76946
L105232 76974
" />
<path d="M106245 76777
L105739 77536
" />
<path d="M106751 77395
L106413 77395
" />
<path d="M106582 77395
L106582 76805
L106526 76889
L106470 76946
L106413 76974
" />
</g>
<g style="fill:#000000; fill-opacity:0.0; 
stroke:#000000; stroke-width:39.3701; stroke-opacity:1; 
stroke-linecap:round; stroke-linejoin:round;">
</g>
<g style="fill:#000000; fill-opacity:0.0; 
stroke:#000000; stroke-width:59.0551; stroke-opacity:1; 
stroke-linecap:round; stroke-linejoin:round;">
<path d="M69685 73821
L112205 73821
" />
</g>
<g style="fill:#000000; fill-opacity:0.0; 
stroke:#000000; stroke-width:39.3701; stroke-opacity:1; 
stroke-linecap:round; stroke-linejoin:round;">
</g>
<g style="fill:#000000; fill-opacity:0.0; 
stroke:#000000; stroke-width:157.48; stroke-opacity:1; 
stroke-linecap:round; stroke-linejoin:round;">
<text x="70079.6" y="74924.1"
textLength="19299.2" font-size="1049.87" lengthAdjust="spacingAndGlyphs"
text-anchor="start" opacity="0">Title: TinyRISC program Counter</text>
<path d="M70360 74099
L70810 74099
" />
<path d="M70486 74886
L70585 74099
" />
<path d="M70974 74886
L71039 74361
" />
<path d="M71072 74099
L71030 74136
L71063 74174
L71105 74136
L71072 74099
L71063 74174
" />
<path d="M71302 74361
L71602 74361
" />
<path d="M71447 74099
L71363 74774
L71391 74849
L71461 74886
L71536 74886
" />
<path d="M71911 74886
L71841 74849
L71813 74774
L71897 74099
" />
<path d="M72516 74849
L72436 74886
L72286 74886
L72216 74849
L72187 74774
L72225 74474
L72272 74399
L72352 74361
L72501 74361
L72572 74399
L72600 74474
L72591 74549
L72206 74624
" />
<path d="M72895 74811
L72928 74849
L72886 74886
L72853 74849
L72895 74811
L72886 74886
" />
<path d="M72947 74399
L72980 74436
L72937 74474
L72905 74436
L72947 74399
L72937 74474
" />
<path d="M73847 74099
L74297 74099
" />
<path d="M73973 74886
L74072 74099
" />
<path d="M74461 74886
L74526 74361
" />
<path d="M74559 74099
L74517 74136
L74550 74174
L74592 74136
L74559 74099
L74550 74174
" />
<path d="M74901 74361
L74836 74886
" />
<path d="M74892 74436
L74934 74399
L75014 74361
L75126 74361
L75196 74399
L75225 74474
L75173 74886
" />
<path d="M75539 74361
L75660 74886
" />
<path d="M75914 74361
L75660 74886
L75562 75074
L75520 75111
L75440 75149
" />
<path d="M76598 74886
L76382 74511
" />
<path d="M76148 74886
L76246 74099
L76546 74099
L76617 74136
L76649 74174
L76678 74249
L76663 74361
L76617 74436
L76574 74474
L76495 74511
L76195 74511
" />
<path d="M76935 74886
L77034 74099
" />
<path d="M77277 74849
L77385 74886
L77573 74886
L77652 74849
L77695 74811
L77741 74736
L77751 74661
L77723 74586
L77690 74549
L77620 74511
L77474 74474
L77404 74436
L77371 74399
L77343 74324
L77352 74249
L77399 74174
L77441 74136
L77521 74099
L77709 74099
L77816 74136
" />
<path d="M78519 74811
L78477 74849
L78360 74886
L78285 74886
L78177 74849
L78112 74774
L78084 74699
L78065 74549
L78079 74436
L78135 74286
L78182 74211
L78266 74136
L78384 74099
L78459 74099
L78566 74136
L78599 74174
" />
<path d="M79513 74361
L79415 75149
" />
<path d="M79508 74399
L79588 74361
L79738 74361
L79808 74399
L79841 74436
L79869 74511
L79841 74736
L79794 74811
L79752 74849
L79672 74886
L79522 74886
L79452 74849
" />
<path d="M80160 74886
L80226 74361
" />
<path d="M80207 74511
L80254 74436
L80296 74399
L80376 74361
L80450 74361
" />
<path d="M80760 74886
L80690 74849
L80657 74811
L80629 74736
L80657 74511
L80704 74436
L80746 74399
L80825 74361
L80938 74361
L81008 74399
L81041 74436
L81069 74511
L81041 74736
L80994 74811
L80952 74849
L80872 74886
L80760 74886
" />
<path d="M81763 74361
L81683 74999
L81636 75074
L81594 75111
L81514 75149
L81402 75149
L81332 75111
" />
<path d="M81702 74849
L81622 74886
L81472 74886
L81402 74849
L81369 74811
L81341 74736
L81369 74511
L81416 74436
L81458 74399
L81538 74361
L81688 74361
L81758 74399
" />
<path d="M82072 74886
L82138 74361
" />
<path d="M82119 74511
L82166 74436
L82208 74399
L82288 74361
L82363 74361
" />
<path d="M82897 74886
L82949 74474
L82921 74399
L82850 74361
L82700 74361
L82621 74399
" />
<path d="M82902 74849
L82822 74886
L82635 74886
L82564 74849
L82536 74774
L82546 74699
L82592 74624
L82672 74586
L82860 74586
L82939 74549
" />
<path d="M83272 74886
L83338 74361
" />
<path d="M83328 74436
L83370 74399
L83450 74361
L83563 74361
L83633 74399
L83661 74474
L83609 74886
" />
<path d="M83661 74474
L83708 74399
L83788 74361
L83900 74361
L83970 74399
L83998 74474
L83947 74886
" />
<path d="M85381 74811
L85339 74849
L85222 74886
L85147 74886
L85039 74849
L84973 74774
L84945 74699
L84927 74549
L84941 74436
L84997 74286
L85044 74211
L85128 74136
L85245 74099
L85320 74099
L85428 74136
L85461 74174
" />
<path d="M85822 74886
L85751 74849
L85719 74811
L85690 74736
L85719 74511
L85765 74436
L85808 74399
L85887 74361
L86000 74361
L86070 74399
L86103 74436
L86131 74511
L86103 74736
L86056 74811
L86014 74849
L85934 74886
L85822 74886
" />
<path d="M86825 74361
L86759 74886
" />
<path d="M86487 74361
L86436 74774
L86464 74849
L86534 74886
L86647 74886
L86726 74849
L86768 74811
" />
<path d="M87200 74361
L87134 74886
" />
<path d="M87190 74436
L87232 74399
L87312 74361
L87425 74361
L87495 74399
L87523 74474
L87471 74886
" />
<path d="M87800 74361
L88100 74361
" />
<path d="M87945 74099
L87861 74774
L87889 74849
L87959 74886
L88034 74886
" />
<path d="M88601 74849
L88521 74886
L88371 74886
L88301 74849
L88273 74774
L88310 74474
L88357 74399
L88437 74361
L88587 74361
L88657 74399
L88685 74474
L88676 74549
L88292 74624
" />
<path d="M88971 74886
L89037 74361
" />
<path d="M89018 74511
L89065 74436
L89107 74399
L89187 74361
L89262 74361
" />
</g>
<g style="fill:#000000; fill-opacity:0.0; 
stroke:#000000; stroke-width:39.3701; stroke-opacity:1; 
stroke-linecap:round; stroke-linejoin:round;">
</g>
<g style="fill:#000000; fill-opacity:0.0; 
stroke:#000000; stroke-width:59.0551; stroke-opacity:1; 
stroke-linecap:round; stroke-linejoin:round;">
<text x="70079.6" y="73408.3"
textLength="14743.5" font-size="787.402" lengthAdjust="spacingAndGlyphs"
text-anchor="start" opacity="0">File: Program Counter.kicad_pcb</text>
<path d="M70446 73070
L70249 73070
" />
<path d="M70249 73380
L70249 72789
L70530 72789
" />
<path d="M70755 73380
L70755 72986
" />
<path d="M70755 72789
L70727 72817
L70755 72845
L70784 72817
L70755 72789
L70755 72845
" />
<path d="M71121 73380
L71065 73352
L71037 73295
L71037 72789
" />
<path d="M71571 73352
L71515 73380
L71402 73380
L71346 73352
L71318 73295
L71318 73070
L71346 73014
L71402 72986
L71515 72986
L71571 73014
L71599 73070
L71599 73127
L71318 73183
" />
<path d="M71852 73323
L71880 73352
L71852 73380
L71824 73352
L71852 73323
L71852 73380
" />
<path d="M71852 73014
L71880 73042
L71852 73070
L71824 73042
L71852 73014
L71852 73070
" />
<path d="M72583 73380
L72583 72789
L72808 72789
L72865 72817
L72893 72845
L72921 72902
L72921 72986
L72893 73042
L72865 73070
L72808 73099
L72583 73099
" />
<path d="M73174 73380
L73174 72986
" />
<path d="M73174 73099
L73202 73042
L73230 73014
L73286 72986
L73343 72986
" />
<path d="M73624 73380
L73568 73352
L73539 73323
L73511 73267
L73511 73099
L73539 73042
L73568 73014
L73624 72986
L73708 72986
L73764 73014
L73793 73042
L73821 73099
L73821 73267
L73793 73323
L73764 73352
L73708 73380
L73624 73380
" />
<path d="M74327 72986
L74327 73464
L74299 73520
L74271 73548
L74214 73577
L74130 73577
L74074 73548
" />
<path d="M74327 73352
L74271 73380
L74158 73380
L74102 73352
L74074 73323
L74046 73267
L74046 73099
L74074 73042
L74102 73014
L74158 72986
L74271 72986
L74327 73014
" />
<path d="M74608 73380
L74608 72986
" />
<path d="M74608 73099
L74636 73042
L74664 73014
L74721 72986
L74777 72986
" />
<path d="M75227 73380
L75227 73070
L75199 73014
L75142 72986
L75030 72986
L74974 73014
" />
<path d="M75227 73352
L75171 73380
L75030 73380
L74974 73352
L74946 73295
L74946 73239
L74974 73183
L75030 73155
L75171 73155
L75227 73127
" />
<path d="M75508 73380
L75508 72986
" />
<path d="M75508 73042
L75536 73014
L75592 72986
L75677 72986
L75733 73014
L75761 73070
L75761 73380
" />
<path d="M75761 73070
L75789 73014
L75845 72986
L75930 72986
L75986 73014
L76014 73070
L76014 73380
" />
<path d="M77083 73323
L77055 73352
L76970 73380
L76914 73380
L76830 73352
L76773 73295
L76745 73239
L76717 73127
L76717 73042
L76745 72930
L76773 72874
L76830 72817
L76914 72789
L76970 72789
L77055 72817
L77083 72845
" />
<path d="M77420 73380
L77364 73352
L77336 73323
L77308 73267
L77308 73099
L77336 73042
L77364 73014
L77420 72986
L77505 72986
L77561 73014
L77589 73042
L77617 73099
L77617 73267
L77589 73323
L77561 73352
L77505 73380
L77420 73380
" />
<path d="M78123 72986
L78123 73380
" />
<path d="M77870 72986
L77870 73295
L77898 73352
L77955 73380
L78039 73380
L78095 73352
L78123 73323
" />
<path d="M78404 72986
L78404 73380
" />
<path d="M78404 73042
L78433 73014
L78489 72986
L78573 72986
L78629 73014
L78658 73070
L78658 73380
" />
<path d="M78854 72986
L79079 72986
" />
<path d="M78939 72789
L78939 73295
L78967 73352
L79023 73380
L79079 73380
" />
<path d="M79501 73352
L79445 73380
L79332 73380
L79276 73352
L79248 73295
L79248 73070
L79276 73014
L79332 72986
L79445 72986
L79501 73014
L79529 73070
L79529 73127
L79248 73183
" />
<path d="M79782 73380
L79782 72986
" />
<path d="M79782 73099
L79811 73042
L79839 73014
L79895 72986
L79951 72986
" />
<path d="M80148 73323
L80176 73352
L80148 73380
L80120 73352
L80148 73323
L80148 73380
" />
<path d="M80429 73380
L80429 72789
" />
<path d="M80485 73155
L80654 73380
" />
<path d="M80654 72986
L80429 73211
" />
<path d="M80907 73380
L80907 72986
" />
<path d="M80907 72789
L80879 72817
L80907 72845
L80935 72817
L80907 72789
L80907 72845
" />
<path d="M81442 73352
L81385 73380
L81273 73380
L81217 73352
L81188 73323
L81160 73267
L81160 73099
L81188 73042
L81217 73014
L81273 72986
L81385 72986
L81442 73014
" />
<path d="M81948 73380
L81948 73070
L81920 73014
L81863 72986
L81751 72986
L81695 73014
" />
<path d="M81948 73352
L81892 73380
L81751 73380
L81695 73352
L81667 73295
L81667 73239
L81695 73183
L81751 73155
L81892 73155
L81948 73127
" />
<path d="M82482 73380
L82482 72789
" />
<path d="M82482 73352
L82426 73380
L82313 73380
L82257 73352
L82229 73323
L82201 73267
L82201 73099
L82229 73042
L82257 73014
L82313 72986
L82426 72986
L82482 73014
" />
<path d="M82623 73436
L83073 73436
" />
<path d="M83213 72986
L83213 73577
" />
<path d="M83213 73014
L83269 72986
L83382 72986
L83438 73014
L83466 73042
L83494 73099
L83494 73267
L83466 73323
L83438 73352
L83382 73380
L83269 73380
L83213 73352
" />
<path d="M84001 73352
L83944 73380
L83832 73380
L83776 73352
L83748 73323
L83719 73267
L83719 73099
L83748 73042
L83776 73014
L83832 72986
L83944 72986
L84001 73014
" />
<path d="M84254 73380
L84254 72789
" />
<path d="M84254 73014
L84310 72986
L84422 72986
L84479 73014
L84507 73042
L84535 73099
L84535 73267
L84507 73323
L84479 73352
L84422 73380
L84310 73380
L84254 73352
" />
</g>
<g style="fill:#000000; fill-opacity:0.0; 
stroke:#000000; stroke-width:39.3701; stroke-opacity:1; 
stroke-linecap:round; stroke-linejoin:round;">
</g>
<g style="fill:#000000; fill-opacity:0.0; 
stroke:#000000; stroke-width:59.0551; stroke-opacity:1; 
stroke-linecap:round; stroke-linejoin:round;">
<path d="M69685 71459
L112205 71459
" />
</g>
<g style="fill:#000000; fill-opacity:0.0; 
stroke:#000000; stroke-width:39.3701; stroke-opacity:1; 
stroke-linecap:round; stroke-linejoin:round;">
</g>
<g style="fill:#000000; fill-opacity:0.0; 
stroke:#000000; stroke-width:59.0551; stroke-opacity:1; 
stroke-linecap:round; stroke-linejoin:round;">
<text x="70079.6" y="72345.4"
textLength="3236.78" font-size="787.402" lengthAdjust="spacingAndGlyphs"
text-anchor="start" opacity="0">Sheet: </text>
<path d="M70221 72289
L70305 72317
L70446 72317
L70502 72289
L70530 72260
L70559 72204
L70559 72148
L70530 72092
L70502 72064
L70446 72036
L70334 72007
L70277 71979
L70249 71951
L70221 71895
L70221 71839
L70249 71782
L70277 71754
L70334 71726
L70474 71726
L70559 71754
" />
<path d="M70812 72317
L70812 71726
" />
<path d="M71065 72317
L71065 72007
L71037 71951
L70980 71923
L70896 71923
L70840 71951
L70812 71979
" />
<path d="M71571 72289
L71515 72317
L71402 72317
L71346 72289
L71318 72232
L71318 72007
L71346 71951
L71402 71923
L71515 71923
L71571 71951
L71599 72007
L71599 72064
L71318 72120
" />
<path d="M72077 72289
L72021 72317
L71908 72317
L71852 72289
L71824 72232
L71824 72007
L71852 71951
L71908 71923
L72021 71923
L72077 71951
L72105 72007
L72105 72064
L71824 72120
" />
<path d="M72274 71923
L72499 71923
" />
<path d="M72358 71726
L72358 72232
L72386 72289
L72443 72317
L72499 72317
" />
<path d="M72696 72260
L72724 72289
L72696 72317
L72668 72289
L72696 72260
L72696 72317
" />
<path d="M72696 71951
L72724 71979
L72696 72007
L72668 71979
L72696 71951
L72696 72007
" />
</g>
<g style="fill:#000000; fill-opacity:0.0; 
stroke:#000000; stroke-width:39.3701; stroke-opacity:1; 
stroke-linecap:round; stroke-linejoin:round;">
</g>
<g style="fill:#000000; fill-opacity:0.0; 
stroke:#000000; stroke-width:59.0551; stroke-opacity:1; 
stroke-linecap:round; stroke-linejoin:round;">
<path d="M77559 75396
L77559 76577
" />
</g>
<g style="fill:#000000; fill-opacity:0.0; 
stroke:#000000; stroke-width:39.3701; stroke-opacity:1; 
stroke-linecap:round; stroke-linejoin:round;">
</g>
<g style="fill:#000000; fill-opacity:0.0; 
stroke:#000000; stroke-width:59.0551; stroke-opacity:1; 
stroke-linecap:round; stroke-linejoin:round;">
<path d="M102756 75396
L102756 77955
" />
</g>
<g style="fill:#840084; fill-opacity:0.0; 
stroke:#840084; stroke-width:59.0551; stroke-opacity:1; 
stroke-linecap:round; stroke-linejoin:round;">
</g>
<g style="fill:#840084; fill-opacity:0.0; 
stroke:#840084; stroke-width:196.85; stroke-opacity:1; 
stroke-linecap:round; stroke-linejoin:round;">
<g transform="rotate(-90 32677.2 16535.4)">
<text x="32677.2" y="17126"
transform="scale(-1 1) translate(-65354.330709 0)"
textLength="7308.77" font-size="1574.8" lengthAdjust="spacingAndGlyphs"
text-anchor="middle" opacity="0">Rev. 1.0</text>
</g>
<path d="M33211 13807
L32649 13413
" />
<path d="M33211 13132
L32030 13132
L32030 13582
L32086 13695
L32142 13751
L32255 13807
L32424 13807
L32536 13751
L32592 13695
L32649 13582
L32649 13132
" />
<path d="M33155 14763
L33211 14651
L33211 14426
L33155 14313
L33042 14257
L32592 14257
L32480 14313
L32424 14426
L32424 14651
L32480 14763
L32592 14820
L32705 14820
L32817 14257
" />
<path d="M32424 15213
L33211 15494
L32424 15776
" />
<path d="M33098 16226
L33155 16282
L33211 16226
L33155 16169
L33098 16226
L33211 16226
" />
<path d="M33211 18307
L33211 17632
" />
<path d="M33211 17969
L32030 17969
L32199 17857
L32311 17744
L32367 17632
" />
<path d="M33098 18813
L33155 18869
L33211 18813
L33155 18757
L33098 18813
L33211 18813
" />
<path d="M32030 19600
L32030 19713
L32086 19825
L32142 19881
L32255 19938
L32480 19994
L32761 19994
L32986 19938
L33098 19881
L33155 19825
L33211 19713
L33211 19600
L33155 19488
L33098 19431
L32986 19375
L32761 19319
L32480 19319
L32255 19375
L32142 19431
L32086 19488
L32030 19600
" />
</g>
<g style="fill:#840084; fill-opacity:0.0; 
stroke:#840084; stroke-width:314.961; stroke-opacity:1; 
stroke-linecap:round; stroke-linejoin:round;">
<g transform="rotate(-90 29133.9 32283.5)">
<text x="29133.9" y="33267.7"
transform="scale(-1 1) translate(-58267.716535 0)"
textLength="38926.7" font-size="2624.67" lengthAdjust="spacingAndGlyphs"
text-anchor="middle" opacity="0">TinyRISC Program Counter</text>
</g>
<path d="M28055 12879
L28055 14004
" />
<path d="M30024 13442
L28055 13442
" />
<path d="M30024 14660
L28712 14660
" />
<path d="M28055 14660
L28149 14566
L28243 14660
L28149 14754
L28055 14660
L28243 14660
" />
<path d="M28712 15598
L30024 15598
" />
<path d="M28899 15598
L28805 15691
L28712 15879
L28712 16160
L28805 16347
L28993 16441
L30024 16441
" />
<path d="M28712 17191
L30024 17660
" />
<path d="M28712 18128
L30024 17660
L30493 17472
L30586 17379
L30680 17191
" />
<path d="M30024 20003
L29086 19347
" />
<path d="M30024 18878
L28055 18878
L28055 19628
L28149 19816
L28243 19910
L28430 20003
L28712 20003
L28899 19910
L28993 19816
L29086 19628
L29086 18878
" />
<path d="M30024 20847
L28055 20847
" />
<path d="M29930 21691
L30024 21972
L30024 22440
L29930 22628
L29836 22722
L29649 22815
L29461 22815
L29274 22722
L29180 22628
L29086 22440
L28993 22065
L28899 21878
L28805 21784
L28618 21691
L28430 21691
L28243 21784
L28149 21878
L28055 22065
L28055 22534
L28149 22815
" />
<path d="M29836 24784
L29930 24690
L30024 24409
L30024 24221
L29930 23940
L29743 23753
L29555 23659
L29180 23565
L28899 23565
L28524 23659
L28337 23753
L28149 23940
L28055 24221
L28055 24409
L28149 24690
L28243 24784
" />
<path d="M30024 27127
L28055 27127
L28055 27877
L28149 28065
L28243 28158
L28430 28252
L28712 28252
L28899 28158
L28993 28065
L29086 27877
L29086 27127
" />
<path d="M30024 29096
L28712 29096
" />
<path d="M29086 29096
L28899 29190
L28805 29283
L28712 29471
L28712 29658
" />
<path d="M30024 30596
L29930 30408
L29836 30314
L29649 30221
L29086 30221
L28899 30314
L28805 30408
L28712 30596
L28712 30877
L28805 31064
L28899 31158
L29086 31252
L29649 31252
L29836 31158
L29930 31064
L30024 30877
L30024 30596
" />
<path d="M28712 32939
L30305 32939
L30493 32845
L30586 32752
L30680 32564
L30680 32283
L30586 32095
" />
<path d="M29930 32939
L30024 32752
L30024 32377
L29930 32189
L29836 32095
L29649 32002
L29086 32002
L28899 32095
L28805 32189
L28712 32377
L28712 32752
L28805 32939
" />
<path d="M30024 33877
L28712 33877
" />
<path d="M29086 33877
L28899 33970
L28805 34064
L28712 34251
L28712 34439
" />
<path d="M30024 35939
L28993 35939
L28805 35845
L28712 35658
L28712 35283
L28805 35095
" />
<path d="M29930 35939
L30024 35751
L30024 35283
L29930 35095
L29743 35001
L29555 35001
L29368 35095
L29274 35283
L29274 35751
L29180 35939
" />
<path d="M30024 36876
L28712 36876
" />
<path d="M28899 36876
L28805 36970
L28712 37157
L28712 37439
L28805 37626
L28993 37720
L30024 37720
" />
<path d="M28993 37720
L28805 37814
L28712 38001
L28712 38282
L28805 38470
L28993 38563
L30024 38563
" />
<path d="M29836 42125
L29930 42032
L30024 41751
L30024 41563
L29930 41282
L29743 41094
L29555 41001
L29180 40907
L28899 40907
L28524 41001
L28337 41094
L28149 41282
L28055 41563
L28055 41751
L28149 42032
L28243 42125
" />
<path d="M30024 43250
L29930 43063
L29836 42969
L29649 42875
L29086 42875
L28899 42969
L28805 43063
L28712 43250
L28712 43532
L28805 43719
L28899 43813
L29086 43907
L29649 43907
L29836 43813
L29930 43719
L30024 43532
L30024 43250
" />
<path d="M28712 45594
L30024 45594
" />
<path d="M28712 44750
L29743 44750
L29930 44844
L30024 45031
L30024 45313
L29930 45500
L29836 45594
" />
<path d="M28712 46531
L30024 46531
" />
<path d="M28899 46531
L28805 46625
L28712 46812
L28712 47094
L28805 47281
L28993 47375
L30024 47375
" />
<path d="M28712 48031
L28712 48781
" />
<path d="M28055 48312
L29743 48312
L29930 48406
L30024 48593
L30024 48781
" />
<path d="M29930 50187
L30024 49999
L30024 49625
L29930 49437
L29743 49343
L28993 49343
L28805 49437
L28712 49625
L28712 49999
L28805 50187
L28993 50281
L29180 50281
L29368 49343
" />
<path d="M30024 51124
L28712 51124
" />
<path d="M29086 51124
L28899 51218
L28805 51312
L28712 51499
L28712 51687
" />
</g>
<g style="fill:#840084; fill-opacity:0.0; 
stroke:#840084; stroke-width:196.85; stroke-opacity:1; 
stroke-linecap:round; stroke-linejoin:round;">
<g transform="rotate(-90 81102.4 35039.4)">
<text x="81102.4" y="36023.6"
transform="scale(-1 1) translate(-162204.724409 0)"
textLength="34554.9" font-size="2624.67" lengthAdjust="spacingAndGlyphs"
text-anchor="middle" opacity="0">Creator: Luc Boulesteix</text>
</g>
<path d="M81805 19150
L81899 19056
L81992 18775
L81992 18588
L81899 18307
L81711 18119
L81524 18025
L81149 17932
L80868 17932
L80493 18025
L80305 18119
L80118 18307
L80024 18588
L80024 18775
L80118 19056
L80211 19150
" />
<path d="M81992 19994
L80680 19994
" />
<path d="M81055 19994
L80868 20088
L80774 20181
L80680 20369
L80680 20556
" />
<path d="M81899 21962
L81992 21775
L81992 21400
L81899 21212
L81711 21119
L80961 21119
L80774 21212
L80680 21400
L80680 21775
L80774 21962
L80961 22056
L81149 22056
L81336 21119
" />
<path d="M81992 23743
L80961 23743
L80774 23650
L80680 23462
L80680 23087
L80774 22900
" />
<path d="M81899 23743
L81992 23556
L81992 23087
L81899 22900
L81711 22806
L81524 22806
L81336 22900
L81242 23087
L81242 23556
L81149 23743
" />
<path d="M80680 24400
L80680 25149
" />
<path d="M80024 24681
L81711 24681
L81899 24775
L81992 24962
L81992 25149
" />
<path d="M81992 26087
L81899 25899
L81805 25806
L81617 25712
L81055 25712
L80868 25806
L80774 25899
L80680 26087
L80680 26368
L80774 26556
L80868 26649
L81055 26743
L81617 26743
L81805 26649
L81899 26556
L81992 26368
L81992 26087
" />
<path d="M81992 27587
L80680 27587
" />
<path d="M81055 27587
L80868 27680
L80774 27774
L80680 27962
L80680 28149
" />
<path d="M81805 28805
L81899 28899
L81992 28805
L81899 28712
L81805 28805
L81992 28805
" />
<path d="M80774 28805
L80868 28899
L80961 28805
L80868 28712
L80774 28805
L80961 28805
" />
<path d="M81992 32180
L81992 31242
L80024 31242
" />
<path d="M80680 33680
L81992 33680
" />
<path d="M80680 32836
L81711 32836
L81899 32930
L81992 33117
L81992 33398
L81899 33586
L81805 33680
" />
<path d="M81899 35461
L81992 35273
L81992 34898
L81899 34711
L81805 34617
L81617 34523
L81055 34523
L80868 34617
L80774 34711
L80680 34898
L80680 35273
L80774 35461
" />
<path d="M80961 38460
L81055 38742
L81149 38835
L81336 38929
L81617 38929
L81805 38835
L81899 38742
L81992 38554
L81992 37804
L80024 37804
L80024 38460
L80118 38648
L80211 38742
L80399 38835
L80586 38835
L80774 38742
L80868 38648
L80961 38460
L80961 37804
" />
<path d="M81992 40054
L81899 39866
L81805 39773
L81617 39679
L81055 39679
L80868 39773
L80774 39866
L80680 40054
L80680 40335
L80774 40523
L80868 40616
L81055 40710
L81617 40710
L81805 40616
L81899 40523
L81992 40335
L81992 40054
" />
<path d="M80680 42397
L81992 42397
" />
<path d="M80680 41554
L81711 41554
L81899 41647
L81992 41835
L81992 42116
L81899 42304
L81805 42397
" />
<path d="M81992 43616
L81899 43428
L81711 43335
L80024 43335
" />
<path d="M81899 45116
L81992 44928
L81992 44553
L81899 44366
L81711 44272
L80961 44272
L80774 44366
L80680 44553
L80680 44928
L80774 45116
L80961 45209
L81149 45209
L81336 44272
" />
<path d="M81899 45959
L81992 46147
L81992 46522
L81899 46709
L81711 46803
L81617 46803
L81430 46709
L81336 46522
L81336 46241
L81242 46053
L81055 45959
L80961 45959
L80774 46053
L80680 46241
L80680 46522
L80774 46709
" />
<path d="M80680 47365
L80680 48115
" />
<path d="M80024 47647
L81711 47647
L81899 47740
L81992 47928
L81992 48115
" />
<path d="M81899 49521
L81992 49334
L81992 48959
L81899 48772
L81711 48678
L80961 48678
L80774 48772
L80680 48959
L80680 49334
L80774 49521
L80961 49615
L81149 49615
L81336 48678
" />
<path d="M81992 50459
L80680 50459
" />
<path d="M80024 50459
L80118 50365
L80211 50459
L80118 50553
L80024 50459
L80211 50459
" />
<path d="M81992 51209
L80680 52240
" />
<path d="M80680 51209
L81992 52240
" />
<g transform="rotate(-90 84252 35039.4)">
<text x="84252" y="36023.6"
transform="scale(-1 1) translate(-168503.937008 0)"
textLength="13617.4" font-size="2624.67" lengthAdjust="spacingAndGlyphs"
text-anchor="middle" opacity="0">Oct 2021</text>
</g>
<path d="M83173 28946
L83173 29321
L83267 29508
L83455 29696
L83830 29790
L84486 29790
L84861 29696
L85048 29508
L85142 29321
L85142 28946
L85048 28758
L84861 28571
L84486 28477
L83830 28477
L83455 28571
L83267 28758
L83173 28946
" />
<path d="M85048 31477
L85142 31289
L85142 30914
L85048 30727
L84955 30633
L84767 30539
L84205 30539
L84017 30633
L83923 30727
L83830 30914
L83830 31289
L83923 31477
" />
<path d="M83830 32039
L83830 32789
" />
<path d="M83173 32320
L84861 32320
L85048 32414
L85142 32602
L85142 32789
" />
<path d="M83361 34851
L83267 34945
L83173 35133
L83173 35601
L83267 35789
L83361 35883
L83548 35976
L83736 35976
L84017 35883
L85142 34758
L85142 35976
" />
<path d="M83173 37195
L83173 37382
L83267 37570
L83361 37664
L83548 37757
L83923 37851
L84392 37851
L84767 37757
L84955 37664
L85048 37570
L85142 37382
L85142 37195
L85048 37007
L84955 36914
L84767 36820
L84392 36726
L83923 36726
L83548 36820
L83361 36914
L83267 37007
L83173 37195
" />
<path d="M83361 38601
L83267 38695
L83173 38882
L83173 39351
L83267 39538
L83361 39632
L83548 39726
L83736 39726
L84017 39632
L85142 38507
L85142 39726
" />
<path d="M85142 41601
L85142 40476
" />
<path d="M85142 41038
L83173 41038
L83455 40851
L83642 40663
L83736 40476
" />
<g >
</g>
</g>
<g style="fill:#000000; fill-opacity:0.0; 
stroke:#000000; stroke-width:196.85; stroke-opacity:1; 
stroke-linecap:round; stroke-linejoin:round;">
</g>
<g style="fill:#C2C200; fill-opacity:0.0; 
stroke:#C2C200; stroke-width:196.85; stroke-opacity:1; 
stroke-linecap:round; stroke-linejoin:round;">
</g>
<g style="fill:#C2C200; fill-opacity:0.0; 
stroke:#C2C200; stroke-width:19.685; stroke-opacity:1; 
stroke-linecap:round; stroke-linejoin:round;">
<path d="M94488 9448
L94488 9842
" />
<path d="M94488.2 9448.82 A1968.5 1968.5 0.0 0 0 92519.7 7480.31" />
<path d="M94488 60236
L94488 9842
" />
<path d="M92519.7 62204.7 A1968.5 1968.5 0.0 0 0 94488.2 60236.2" />
<path d="M17716 62204
L92519 62204
" />
<path d="M15748 60236.2 A1968.5 1968.5 0.0 0 0 17716.5 62204.7" />
<path d="M15748 9448
L15748 60236
" />
<path d="M17716.5 7480.31 A1968.5 1968.5 0.0 0 0 15748 9448.82" />
<path d="M92519 7480
L17716 7480
" />
<g >
</g>
<g >
</g>
<g >
</g>
<g >
</g>
<g >
</g>
<g >
</g>
<g >
</g>
<g >
</g>
<g >
</g>
<g >
</g>
<g >
</g>
<g >
</g>
<g >
</g>
<g >
</g>
<g >
</g>
<g >
</g>
<g >
</g>
<g >
</g>
<g >
</g>
<g >
</g>
<g >
</g>
<g >
</g>
<g >
</g>
<g >
</g>
<g >
</g>
<g >
</g>
<g >
</g>
<g >
</g>
<g >
</g>
<g >
</g>
<g >
</g>
<g >
</g>
<g >
</g>
<g >
</g>
<g >
</g>
<g >
</g>
<g >
</g>
<g >
</g>
<g >
</g>
<g >
</g>
<g >
</g>
<g >
</g>
<g >
</g>
<g >
</g>
<g >
</g>
<g >
</g>
<g >
</g>
</g> 
</svg>
